<svg width="91" height="42" viewBox="0 0 91 42" fill="none" xmlns="http://www.w3.org/2000/svg">
<path d="M37.5 22C37.5 31.665 29.665 39.5 20 39.5C10.335 39.5 2.5 31.665 2.5 22C2.5 12.335 10.335 4.5 20 4.5V2C8.9543 2 0 10.9543 0 22C0 33.0457 8.9543 42 20 42C31.0457 42 40 33.0457 40 22H37.5Z" fill="#F2F2F2"/>
<path d="M15 21.9995C15 24.7609 17.2386 26.9995 20 26.9995C22.7614 26.9995 25 24.7609 25 21.9995C25 19.2381 22.7614 16.9995 20 16.9995C17.2386 16.9995 15 19.2381 15 21.9995ZM22.5 21.9995C22.5 23.3802 21.3807 24.4995 20 24.4995C18.6193 24.4995 17.5 23.3802 17.5 21.9995C17.5 20.6188 18.6193 19.4995 20 19.4995C21.3807 19.4995 22.5 20.6188 22.5 21.9995Z" fill="#F2F2F2"/>
<path d="M20 9.5C13.0964 9.5 7.5 15.0964 7.5 22H10C10 16.4772 14.4772 12 20 12V9.5Z" fill="#F2F2F2"/>
<path d="M20 32V34.5C26.9036 34.5 32.5 28.9036 32.5 22H30C30 27.5228 25.5228 32 20 32Z" fill="#F2F2F2"/>
<path d="M59.9297 12.8281L59.1914 13.5869V16H57.5303V5.5H59.1914V11.5566L59.7109 10.9072L61.7549 8.60352H63.751L61.0029 11.6865L64.0449 16H62.124L59.9297 12.8281ZM71.332 12.377C71.332 13.5254 71.0745 14.4391 70.5596 15.1182C70.0492 15.7972 69.3451 16.1367 68.4473 16.1367C67.5814 16.1367 66.9069 15.8245 66.4238 15.2002L66.3418 16H64.8379V5.5H66.499V9.31445C66.9775 8.74935 67.6224 8.4668 68.4336 8.4668C69.3359 8.4668 70.0446 8.80176 70.5596 9.47168C71.0745 10.1416 71.332 11.0781 71.332 12.2812V12.377ZM69.6709 12.2334C69.6709 11.4313 69.5296 10.8298 69.2471 10.4287C68.9645 10.0277 68.5544 9.82715 68.0166 9.82715C67.2965 9.82715 66.7907 10.1416 66.499 10.7705V13.8193C66.7952 14.4619 67.3057 14.7832 68.0303 14.7832C68.5498 14.7832 68.9508 14.5895 69.2334 14.2021C69.516 13.8148 69.6618 13.2292 69.6709 12.4453V12.2334ZM79.207 12.377C79.207 13.5208 78.9473 14.4346 78.4277 15.1182C77.9082 15.7972 77.2109 16.1367 76.3359 16.1367C75.5247 16.1367 74.8753 15.8701 74.3877 15.3369V18.8438H72.7266V8.60352H74.2578L74.3262 9.35547C74.8138 8.76302 75.4769 8.4668 76.3154 8.4668C77.2178 8.4668 77.9242 8.80404 78.4346 9.47852C78.9495 10.1484 79.207 11.0804 79.207 12.2744V12.377ZM77.5527 12.2334C77.5527 11.4951 77.4046 10.9095 77.1084 10.4766C76.8167 10.0436 76.3975 9.82715 75.8506 9.82715C75.1715 9.82715 74.6839 10.1074 74.3877 10.668V13.9492C74.6885 14.5234 75.1807 14.8105 75.8643 14.8105C76.3929 14.8105 76.8053 14.5986 77.1016 14.1748C77.4023 13.7464 77.5527 13.0993 77.5527 12.2334ZM84.7646 13.9902C84.7646 13.694 84.6416 13.4684 84.3955 13.3135C84.154 13.1585 83.7507 13.0218 83.1855 12.9033C82.6204 12.7848 82.1488 12.6344 81.7705 12.4521C80.9411 12.0511 80.5264 11.4701 80.5264 10.709C80.5264 10.071 80.7952 9.53776 81.333 9.10938C81.8708 8.68099 82.5544 8.4668 83.3838 8.4668C84.2679 8.4668 84.9811 8.68555 85.5234 9.12305C86.0703 9.56055 86.3438 10.1279 86.3438 10.8252H84.6826C84.6826 10.5062 84.5641 10.2419 84.3271 10.0322C84.0902 9.81803 83.7757 9.71094 83.3838 9.71094C83.0192 9.71094 82.7207 9.79525 82.4883 9.96387C82.2604 10.1325 82.1465 10.3581 82.1465 10.6406C82.1465 10.8958 82.2536 11.0941 82.4678 11.2354C82.682 11.3766 83.1149 11.5202 83.7666 11.666C84.4183 11.8073 84.9287 11.9782 85.2979 12.1787C85.6715 12.3747 85.9473 12.6117 86.125 12.8896C86.3073 13.1676 86.3984 13.5049 86.3984 13.9014C86.3984 14.5667 86.1227 15.1068 85.5713 15.5215C85.0199 15.9316 84.2975 16.1367 83.4043 16.1367C82.7982 16.1367 82.2581 16.0273 81.7842 15.8086C81.3102 15.5898 80.9411 15.2891 80.6768 14.9062C80.4124 14.5234 80.2803 14.111 80.2803 13.6689H81.8936C81.9163 14.0609 82.0645 14.3639 82.3379 14.5781C82.6113 14.7878 82.9736 14.8926 83.4248 14.8926C83.8623 14.8926 84.195 14.8105 84.4229 14.6465C84.6507 14.4779 84.7646 14.2591 84.7646 13.9902Z" fill="#F2F2F2"/>
<path d="M54.73 33.544V35C54.4033 35 54.0907 34.986 53.792 34.958C53.82 35.014 53.834 35.07 53.834 35.126C53.9367 36.0033 53.7033 36.68 53.134 37.156C52.574 37.6413 51.6873 38.024 50.474 38.304C49.5313 38.5187 48.696 38.5 47.968 38.248C47.2493 38.0053 46.7033 37.576 46.33 36.96C45.966 36.3533 45.756 35.5927 45.7 34.678C45.6533 33.7633 45.8307 32.7507 46.232 31.64L47.464 32.13C46.8667 33.838 46.8247 35.1353 47.338 36.022C47.8513 36.918 48.7987 37.2073 50.18 36.89C51.16 36.6567 51.8227 36.4327 52.168 36.218C52.5133 36.0127 52.6393 35.6627 52.546 35.168C52.4993 34.9253 52.1027 34.6593 51.356 34.37C51.2813 34.3513 51.132 34.3047 50.908 34.23C50.684 34.1553 50.502 34.0947 50.362 34.048L50.768 32.676C50.8707 32.704 51.0573 32.76 51.328 32.844C51.5987 32.9187 51.776 32.97 51.86 32.998C51.944 33.0167 52.0933 33.0587 52.308 33.124C52.5227 33.18 52.6673 33.2173 52.742 33.236C52.8167 33.2547 52.938 33.2873 53.106 33.334C53.274 33.3713 53.3953 33.3993 53.47 33.418C53.5447 33.4273 53.6473 33.446 53.778 33.474C53.918 33.4927 54.03 33.5067 54.114 33.516C54.2073 33.516 54.3053 33.5207 54.408 33.53C54.52 33.5393 54.6273 33.544 54.73 33.544ZM57.354 32.508C57.382 33.1893 57.186 33.7773 56.766 34.272C56.346 34.7573 55.73 35 54.918 35H54.568V33.544H54.918C55.366 33.544 55.6693 33.4507 55.828 33.264C55.996 33.0773 56.0753 32.844 56.066 32.564L55.8 25.648L57.088 25.578L57.354 32.508ZM65.1126 33.544V35H64.4266C64.4546 35.4667 64.4126 35.868 64.3006 36.204C64.198 36.5493 64.0393 36.8387 63.8246 37.072C63.6193 37.3053 63.302 37.5153 62.8726 37.702C62.4526 37.8887 62.0093 38.0427 61.5426 38.164C61.0853 38.2947 60.474 38.4393 59.7086 38.598L59.4426 37.184C61.104 36.8293 62.1446 36.54 62.5646 36.316C62.9846 36.092 63.1666 35.6533 63.1106 35H61.3886C60.6793 35 60.1053 34.79 59.6666 34.37C59.228 33.95 58.9806 33.3807 58.9246 32.662C58.8593 31.8687 59.0553 31.1593 59.5126 30.534C59.9793 29.8993 60.5906 29.5633 61.3466 29.526C62.1026 29.4887 62.7326 29.75 63.2366 30.31C63.75 30.8607 64.058 31.598 64.1606 32.522L64.2726 33.544H65.1126ZM60.2266 32.55C60.2826 33.2127 60.67 33.544 61.3886 33.544H62.9566L62.8586 32.69C62.8026 32.13 62.644 31.7007 62.3826 31.402C62.1306 31.1033 61.8086 30.9633 61.4166 30.982C61.0246 30.9913 60.7166 31.1547 60.4926 31.472C60.278 31.78 60.1893 32.1393 60.2266 32.55ZM71.539 32.41C71.5576 32.7647 71.679 33.0447 71.903 33.25C72.127 33.446 72.435 33.544 72.827 33.544V35C72.0616 35 71.4643 34.7433 71.035 34.23C70.8203 34.6033 70.5123 34.86 70.111 35C69.7096 35.1307 69.2943 35.0933 68.865 34.888L67.143 34.006C66.6296 34.6687 65.9576 35 65.127 35H64.973V33.544H65.127C65.7243 33.544 66.1443 33.306 66.387 32.83L67.423 30.856C67.7123 30.3053 68.1276 29.9413 68.669 29.764C69.2196 29.5773 69.761 29.6287 70.293 29.918C70.7036 30.142 71.0163 30.478 71.231 30.926C71.455 31.3647 71.5576 31.8593 71.539 32.41ZM70.041 33.572C70.3023 33.0773 70.419 32.6013 70.391 32.144C70.363 31.6773 70.1763 31.3507 69.831 31.164C69.5696 31.024 69.299 31.01 69.019 31.122C68.7483 31.234 68.529 31.4533 68.361 31.78L67.829 32.816L69.579 33.712C69.7843 33.8147 69.9383 33.768 70.041 33.572ZM80.0339 33.544V35C78.9139 35 78.0739 34.972 77.5139 34.916C76.9632 34.8507 76.4919 34.6967 76.0999 34.454C74.9892 34.818 73.9346 35 72.9359 35H72.6839V33.544H72.9359C73.7759 33.544 74.4992 33.4927 75.1059 33.39L73.4539 31.178L73.8179 30.044L77.2059 29.554C77.9339 29.4513 78.5172 29.7033 78.9559 30.31C79.4039 30.9167 79.4879 31.5653 79.2079 32.256C79.0212 32.7133 78.6386 33.1333 78.0599 33.516C78.4052 33.5347 79.0632 33.544 80.0339 33.544ZM75.0639 31.164L76.5199 33.04C77.4346 32.6947 77.9806 32.1907 78.1579 31.528C78.2326 31.3413 78.2139 31.1733 78.1019 31.024C77.9899 30.8747 77.8359 30.814 77.6399 30.842L75.0639 31.164ZM85.209 29.918C85.853 30.2633 86.2497 30.8513 86.399 31.682C86.5577 32.5127 86.4223 33.3387 85.993 34.16C85.7783 34.552 85.4657 34.8227 85.055 34.972C84.6443 35.1213 84.2197 35.0933 83.781 34.888L82.059 34.006C81.5457 34.6687 80.8737 35 80.043 35H79.889V33.544H80.043C80.6403 33.544 81.0603 33.306 81.303 32.83L82.339 30.856C82.6283 30.3053 83.0437 29.9413 83.585 29.764C84.1357 29.5773 84.677 29.6287 85.209 29.918ZM84.957 33.572C85.2183 33.0773 85.335 32.6013 85.307 32.144C85.279 31.6773 85.0923 31.3507 84.747 31.164C84.4857 31.024 84.215 31.01 83.935 31.122C83.6643 31.234 83.445 31.4533 83.277 31.78L82.745 32.816L84.495 33.712C84.7003 33.8147 84.8543 33.768 84.957 33.572Z" fill="#F2F2F2"/>
<path d="M32.232 12.304C32.232 13.0933 31.9547 13.776 31.4 14.352C30.856 14.9173 30.1947 15.2 29.416 15.2C28.6373 15.2 27.9707 14.9173 27.416 14.352C26.872 13.776 26.6 13.0933 26.6 12.304C26.6 11.504 26.872 10.8213 27.416 10.256C27.9707 9.68 28.6373 9.392 29.416 9.392C30.1947 9.392 30.856 9.68 31.4 10.256C31.9547 10.8213 32.232 11.504 32.232 12.304ZM30.408 13.264C30.696 12.9973 30.84 12.6773 30.84 12.304C30.84 11.9307 30.696 11.616 30.408 11.36C30.1307 11.0933 29.8 10.96 29.416 10.96C29.032 10.96 28.696 11.0933 28.408 11.36C28.1307 11.616 27.992 11.9307 27.992 12.304C27.992 12.6773 28.1307 12.9973 28.408 13.264C28.696 13.52 29.032 13.648 29.416 13.648C29.8 13.648 30.1307 13.52 30.408 13.264ZM42.0116 15.904L40.5236 16.064L40.0436 11.472H38.1556C37.313 11.472 36.593 11.1733 35.9956 10.576C35.409 9.97867 35.1156 9.25333 35.1156 8.4C35.1156 7.54667 35.409 6.816 35.9956 6.208C36.593 5.6 37.313 5.296 38.1556 5.296C38.9556 5.296 39.6383 5.584 40.2036 6.16C40.7796 6.72533 41.1156 7.44 41.2116 8.304L42.0116 15.904ZM38.1556 9.856H39.8676L39.7236 8.464C39.6703 8.016 39.4996 7.648 39.2116 7.36C38.9236 7.072 38.5716 6.928 38.1556 6.928C37.7076 6.928 37.3343 7.072 37.0356 7.36C36.7476 7.63733 36.6036 7.984 36.6036 8.4C36.6036 8.80533 36.753 9.152 37.0516 9.44C37.3503 9.71733 37.7183 9.856 38.1556 9.856ZM50.4489 10.144C50.4382 10.1547 50.4115 10.192 50.3689 10.256L46.1769 16.464L44.9449 15.536L47.6809 11.488C47.1902 11.4347 46.7369 11.2693 46.3209 10.992C45.6062 10.5333 45.1635 9.87733 44.9929 9.024C44.8329 8.16 44.9929 7.376 45.4729 6.672C45.6009 6.49067 45.8409 6.256 46.1929 5.968C46.5449 5.68 46.8702 5.44 47.1689 5.248L47.6009 4.96L48.3529 6.4C47.4355 6.92267 46.8862 7.32267 46.7049 7.6C46.4702 7.96267 46.3849 8.32 46.4489 8.672C46.5129 9.024 46.7209 9.32267 47.0729 9.568C47.4035 9.80267 47.7715 9.89333 48.1769 9.84C48.5929 9.776 48.9235 9.58933 49.1689 9.28L50.7689 6.912L52.0009 7.84L50.4489 10.144Z" fill="#F2F2F2"/>
</svg>
