<svg width="62" height="85" viewBox="0 0 62 85" fill="none" xmlns="http://www.w3.org/2000/svg">
<path d="M31.9332 61.8663C48.4648 61.8663 61.8663 48.4648 61.8663 31.9332C61.8663 15.4015 48.4648 2 31.9332 2C15.4015 2 2 15.4015 2 31.9332C2 48.4648 15.4015 61.8663 31.9332 61.8663Z" fill="#FFCA27"/>
<g filter="url(#filter0_f_141_305)">
<path fill-rule="evenodd" clip-rule="evenodd" d="M11.2095 53.4943C-0.276411 41.7892 -0.208653 22.9891 11.4128 11.3677C23.0489 -0.268455 41.8817 -0.321684 53.5837 11.2079C53.5163 11.1392 53.4485 11.0708 53.3804 11.0026C41.6907 -0.687053 22.7381 -0.687057 11.0485 11.0026C-0.641157 22.6922 -0.641157 41.6448 11.0485 53.3345C11.102 53.388 11.1557 53.4413 11.2095 53.4943Z" fill="white"/>
</g>
<path d="M40.9764 31.6918C40.9764 32.5478 40.8554 33.3779 40.6305 34.1561C39.5583 37.883 36.1255 40.6067 32.0615 40.6067C27.9974 40.6067 24.5559 37.883 23.4924 34.1561C23.2675 33.3779 23.1465 32.5478 23.1465 31.6918C23.1465 29.6079 23.8555 27.6969 25.0575 26.175L27.0895 28.2071C26.3977 29.1928 25.9913 30.3947 25.9913 31.6918C25.9913 32.5651 26.1816 33.4039 26.5101 34.1561C27.4526 36.2833 29.5884 37.7705 32.0615 37.7705C34.5345 37.7705 36.6703 36.2833 37.6128 34.1561C37.95 33.4039 38.1316 32.5651 38.1316 31.6918C38.1316 30.3169 37.6733 29.0545 36.9037 28.0341L38.9271 26.0107C40.2069 27.5499 40.9764 29.53 40.9764 31.6918Z" fill="url(#paint0_linear_141_305)"/>
<path d="M38.1276 31.6917C38.1276 32.565 37.9373 33.4038 37.6088 34.1561C36.6662 36.2832 34.5305 37.7705 32.0574 37.7705C29.5844 37.7705 27.4486 36.2832 26.5061 34.1561C26.1689 33.4038 25.9873 32.565 25.9873 31.6917C25.9873 30.3946 26.3937 29.1927 27.0855 28.207L30.2502 31.3717C31.1668 32.2883 32.6454 32.2883 33.562 31.3717L36.9084 28.0254C37.6779 29.0544 38.1276 30.3168 38.1276 31.6917Z" fill="url(#paint1_linear_141_305)"/>
<path fill-rule="evenodd" clip-rule="evenodd" d="M47.5275 17.4072C46.879 16.7068 46.1872 16.0496 45.4436 15.4357C45.4436 15.4357 45.4349 15.4357 45.4349 15.427C45.2879 15.3146 45.1496 15.1936 45.0026 15.0812C45.0026 15.0812 44.994 15.0725 44.9853 15.0725C44.112 14.4499 43.0397 14.0781 41.8897 14.0781C39.0622 14.0781 36.7448 16.2744 36.5546 19.0674V19.2749H40.5581H40.5927H40.6273C41.0769 19.2836 41.4833 19.4306 41.8205 19.6727C41.9329 19.7505 42.0281 19.8456 42.1232 19.9407C42.4691 20.3126 42.6852 20.8141 42.6852 21.3588C42.6852 21.9036 42.4777 22.4051 42.1318 22.7769L40.3419 24.6014L38.9325 26.0109C40.2122 27.55 40.9818 29.5302 40.9818 31.6919C40.9818 32.5479 40.8607 33.378 40.6359 34.1563C39.5637 37.8831 36.1309 40.6069 32.0668 40.6069C28.0028 40.6069 24.5613 37.8831 23.4977 34.1563C23.2729 33.378 23.1518 32.5479 23.1518 31.6919C23.1518 29.608 23.8609 27.697 25.0628 26.1752L23.5583 24.6879L21.8289 22.9585L21.8375 22.9499C21.4052 22.5694 21.1285 22.0073 21.1285 21.3761C21.1285 20.7795 21.3792 20.2347 21.777 19.8543C21.8894 19.7419 22.0191 19.6467 22.1574 19.5689C22.1574 19.5689 22.1661 19.5689 22.1661 19.5603C22.4255 19.4046 22.7195 19.3095 23.0308 19.2836C23.0913 19.2749 23.1605 19.2749 23.221 19.2749C23.2815 19.2749 23.3421 19.2749 23.4026 19.2836H27.5618V19.1798C27.3975 16.3609 25.0542 14.13 22.192 14.13C20.9642 14.13 19.8228 14.5451 18.9149 15.2368C18.8284 15.306 18.7419 15.3752 18.6554 15.453C17.8686 16.1015 17.1249 16.8106 16.4418 17.5715C13.0609 21.3069 11.0029 26.2616 11.0029 31.6919C11.0029 43.322 20.4281 52.7471 32.0582 52.7471C43.6883 52.7471 53.1134 43.322 53.1134 31.6919C53.1134 26.1838 50.9949 21.1599 47.5275 17.4072ZM22.4687 44.6623C22.6763 44.8006 22.9357 44.8871 23.2124 44.8871C23.9474 44.8871 24.5526 44.2818 24.5613 43.5468C24.5613 43.1318 24.3711 42.7686 24.0857 42.5178L24.0944 42.5265C24.0771 42.5092 24.0511 42.4919 24.0252 42.4746H24.0165C23.9992 42.4573 23.9733 42.4487 23.956 42.4314C21.336 40.4512 19.4683 37.5286 18.8457 34.1736C18.8197 34.0525 18.8024 33.9401 18.7852 33.8277C18.7765 33.7758 18.7679 33.7326 18.7592 33.6807V33.672C18.7333 33.5423 18.69 33.4126 18.6209 33.3002C18.6036 33.2656 18.5776 33.2397 18.5603 33.2051C18.5344 33.1792 18.5171 33.1446 18.4912 33.1186C18.4652 33.084 18.4393 33.0581 18.4133 33.0322L18.3701 32.9889C18.128 32.7641 17.7994 32.6171 17.4362 32.6171C17.3411 32.6171 17.2633 32.6258 17.1768 32.6431C17.0385 32.669 16.9088 32.7122 16.7877 32.7814C16.3727 33.0149 16.096 33.4472 16.096 33.9574C16.096 33.992 16.1046 34.0352 16.1046 34.0698C16.1046 34.1303 16.1219 34.1822 16.1305 34.2427C16.805 38.4624 19.1051 42.1374 22.3823 44.6017C22.4169 44.619 22.4428 44.645 22.4687 44.6623Z" fill="url(#paint2_linear_141_305)"/>
<path fill-rule="evenodd" clip-rule="evenodd" d="M31.9816 40.6063V52.7469C20.3867 52.7056 11.0029 43.2963 11.0029 31.6918C11.0029 26.2615 13.0609 21.3068 16.4418 17.5714C17.1249 16.8104 17.8686 16.1014 18.6554 15.4529C18.7419 15.375 18.8284 15.3059 18.9149 15.2367C19.8228 14.5449 20.9642 14.1299 22.192 14.1299C25.0542 14.1299 27.3975 16.3608 27.5618 19.1797V19.2834H23.4026C23.3421 19.2748 23.2815 19.2748 23.221 19.2748C23.1605 19.2748 23.0913 19.2748 23.0308 19.2834C22.7195 19.3094 22.4255 19.4045 22.1661 19.5601C22.1661 19.5688 22.1574 19.5688 22.1574 19.5688C22.0191 19.6466 21.8894 19.7417 21.777 19.8541C21.3792 20.2346 21.1285 20.7794 21.1285 21.376C21.1285 22.0072 21.4052 22.5693 21.8375 22.9497L21.8289 22.9584L23.5583 24.6878L25.0628 26.175C23.8609 27.6969 23.1518 29.6079 23.1518 31.6918C23.1518 32.5478 23.2729 33.3779 23.4977 34.1561C24.5538 37.8569 27.9547 40.5686 31.9816 40.6063ZM23.2124 44.887C22.9357 44.887 22.6763 44.8005 22.4687 44.6621C22.4594 44.6559 22.4501 44.6486 22.4404 44.641C22.4231 44.6273 22.4044 44.6127 22.3823 44.6016C19.1051 42.1372 16.805 38.4623 16.1305 34.2426C16.1275 34.2212 16.1234 34.2009 16.1193 34.1809C16.1118 34.1444 16.1046 34.1088 16.1046 34.0697C16.1046 34.0524 16.1024 34.0329 16.1003 34.0135C16.0981 33.994 16.096 33.9746 16.096 33.9573C16.096 33.4471 16.3727 33.0147 16.7877 32.7813C16.9088 32.7121 17.0385 32.6689 17.1768 32.6429C17.2633 32.6256 17.3411 32.617 17.4362 32.617C17.7994 32.617 18.128 32.764 18.3701 32.9888L18.4133 33.032C18.4393 33.058 18.4652 33.0839 18.4912 33.1185C18.5041 33.1315 18.5149 33.1466 18.5257 33.1617C18.5366 33.1769 18.5474 33.192 18.5603 33.205C18.569 33.2223 18.5798 33.2374 18.5906 33.2525C18.6014 33.2677 18.6122 33.2828 18.6209 33.3001C18.69 33.4125 18.7333 33.5422 18.7592 33.6719V33.6806C18.7635 33.7065 18.7679 33.7303 18.7722 33.7541C18.7765 33.7778 18.7808 33.8016 18.7852 33.8276C18.8024 33.94 18.8197 34.0524 18.8457 34.1734C19.4683 37.5284 21.336 40.4511 23.956 42.4312C23.9647 42.4399 23.9755 42.4464 23.9863 42.4529C23.9971 42.4593 24.0079 42.4658 24.0165 42.4745H24.0252C24.0511 42.4918 24.0771 42.5091 24.0943 42.5263L24.0857 42.5177C24.3711 42.7685 24.5613 43.1316 24.5613 43.5467C24.5526 44.2817 23.9474 44.887 23.2124 44.887Z" fill="url(#paint3_linear_141_305)"/>
<path fill-rule="evenodd" clip-rule="evenodd" d="M23.1612 31.3162H11.0078C11.1003 26.0332 13.1406 21.2205 16.4434 17.5714C17.1265 16.8104 17.8702 16.1014 18.657 15.4529C18.7435 15.375 18.83 15.3059 18.9165 15.2367C19.8244 14.5449 20.9658 14.1299 22.1936 14.1299C25.0558 14.1299 27.3991 16.3608 27.5634 19.1797V19.2834H23.4042C23.3437 19.2748 23.2831 19.2748 23.2226 19.2748C23.1621 19.2748 23.0929 19.2748 23.0324 19.2834C22.7211 19.3094 22.4271 19.4045 22.1677 19.5601C22.1677 19.5688 22.159 19.5688 22.159 19.5688C22.0207 19.6466 21.891 19.7417 21.7786 19.8541C21.3808 20.2346 21.1301 20.7794 21.1301 21.376C21.1301 22.0072 21.4068 22.5693 21.8391 22.9497L21.8305 22.9584L23.5598 24.6878L25.0644 26.175C23.9351 27.605 23.2409 29.3785 23.1612 31.3162Z" fill="#2E2E2E"/>
<path d="M5.95457 83.3427C5.24311 83.3427 4.58555 83.1648 3.98189 82.8091C3.37824 82.4642 2.89854 81.9899 2.54281 81.3862C2.19786 80.7825 2.02539 80.125 2.02539 79.4135V75.6622H4.01423V79.3003C4.01423 79.8393 4.20288 80.2975 4.58016 80.6747C4.96823 81.052 5.42637 81.2407 5.95457 81.2407H9.5927C9.9053 81.2407 10.1532 81.1383 10.3365 80.9335C10.5305 80.7394 10.6275 80.4915 10.6275 80.1897C10.6275 79.9525 10.5575 79.7423 10.4173 79.559C10.2772 79.365 10.0832 79.241 9.83524 79.1872L5.79287 78.2493V76.2766C5.79287 75.6945 5.94379 75.1502 6.24562 74.6435C6.54745 74.1369 6.95708 73.7327 7.4745 73.4308C7.99192 73.129 8.54707 72.9781 9.13995 72.9781H11.9858V74.9669H9.10761C8.7411 74.9669 8.4285 75.1017 8.16978 75.3712C7.91107 75.6299 7.78172 75.9371 7.78172 76.2928V76.6647L10.482 77.2792C11.1288 77.4624 11.657 77.8343 12.0666 78.3948C12.487 78.9554 12.6972 79.5752 12.6972 80.2543C12.6972 80.8149 12.5571 81.3269 12.2768 81.7904C11.9966 82.2647 11.6193 82.642 11.145 82.9223C10.6707 83.2026 10.1532 83.3427 9.5927 83.3427H5.95457Z" fill="#F2C94C"/>
<path d="M17.1739 79.7046C16.6349 79.7046 16.1391 79.5752 15.6863 79.3165C15.2443 79.047 14.894 78.6913 14.6353 78.2493C14.3766 77.7966 14.2472 77.3007 14.2472 76.7617V68.8872H16.2361V76.6324C16.2361 76.9019 16.3277 77.1336 16.5109 77.3277C16.6942 77.5109 16.9206 77.6025 17.1901 77.6025H18.0147C18.1225 77.6025 18.1764 77.6564 18.1764 77.7642V79.5429C18.1764 79.6507 18.1225 79.7046 18.0147 79.7046H17.1739Z" fill="#F2C94C"/>
<path d="M22.1154 69.7442C22.6289 69.7442 23.0452 70.1604 23.0452 70.6739V70.6739C23.0452 71.1874 22.6289 71.6037 22.1154 71.6037V71.6037C21.602 71.6037 21.1857 71.1874 21.1857 70.6739V70.6739C21.1857 70.1604 21.602 69.7442 22.1154 69.7442V69.7442ZM26.1982 77.6025C26.306 77.6025 26.3599 77.6564 26.3599 77.7642V79.5429C26.3599 79.6507 26.306 79.7046 26.1982 79.7046H18.0165C17.9087 79.7046 17.8548 79.6507 17.8548 79.5429V77.7642C17.8548 77.6564 17.9087 77.6025 18.0165 77.6025H18.9705C18.7872 77.1821 18.6956 76.7348 18.6956 76.2605C18.6956 75.6353 18.8465 75.0693 19.1483 74.5627C19.4502 74.056 19.8598 73.6572 20.3772 73.3661C20.9054 73.0751 21.4821 72.9296 22.1073 72.9296C22.7218 72.9296 23.2877 73.0751 23.8051 73.3661C24.3333 73.6572 24.7484 74.056 25.0502 74.5627C25.3628 75.0693 25.5191 75.6353 25.5191 76.2605C25.5191 76.7348 25.4275 77.1821 25.2442 77.6025H26.1982ZM20.7976 76.3252C20.7976 76.6917 20.9216 76.9989 21.1695 77.2468C21.4175 77.484 21.7301 77.6025 22.1073 77.6025C22.4846 77.6025 22.7972 77.484 23.0452 77.2468C23.2931 76.9989 23.4171 76.6917 23.4171 76.3252C23.4171 75.9586 23.2877 75.6514 23.029 75.4035C22.7811 75.1556 22.4739 75.0316 22.1073 75.0316C21.7408 75.0316 21.4282 75.1556 21.1695 75.4035C20.9216 75.6514 20.7976 75.9586 20.7976 76.3252Z" fill="#F2C94C"/>
<path d="M26.1959 79.7046C26.0882 79.7046 26.0343 79.6507 26.0343 79.5429V77.7642C26.0343 77.6564 26.0882 77.6025 26.1959 77.6025H27.7644C28.0231 77.6025 28.2441 77.5109 28.4273 77.3277C28.6106 77.1336 28.7022 76.9019 28.7022 76.6324V73.447H30.6911V76.7617C30.6911 77.3007 30.5617 77.7966 30.303 78.2493C30.0443 78.6913 29.6886 79.047 29.2358 79.3165C28.7938 79.5752 28.3034 79.7046 27.7644 79.7046H26.1959ZM25.5162 82.0734C25.5162 81.5599 25.9324 81.1437 26.4459 81.1437H28.012V83.0031H26.4459C25.9324 83.0031 25.5162 82.5869 25.5162 82.0734V82.0734ZM26.2862 81.1437H29.7825C30.296 81.1437 30.7123 81.5599 30.7123 82.0734V82.0734C30.7123 82.5869 30.296 83.0031 29.7825 83.0031H26.2862V81.1437Z" fill="#F2C94C"/>
<path d="M36.129 77.6025C36.4093 77.6025 36.6411 77.5163 36.8243 77.3438C37.0076 77.1714 37.0992 76.9504 37.0992 76.6809C37.0992 76.4976 37.0453 76.3359 36.9375 76.1958C36.8405 76.0449 36.668 75.8886 36.4201 75.7269L33.1539 73.4793L34.2857 71.8462L37.8754 74.3201C38.2634 74.622 38.5599 74.9561 38.7647 75.3226C38.9803 75.6784 39.0881 76.1096 39.0881 76.6162C39.0881 77.1875 38.9479 77.7103 38.6677 78.1846C38.3874 78.6589 38.0047 79.0308 37.5196 79.3003C37.0345 79.5698 36.5117 79.7046 35.9512 79.7046H32.1999V77.6025H36.129Z" fill="#F2C94C"/>
<path d="M47.9274 77.6025C48.0352 77.6025 48.0891 77.6564 48.0891 77.7642V79.5429C48.0891 79.6507 48.0352 79.7046 47.9274 79.7046H47.1351C47.0489 80.4376 46.8333 81.0466 46.4884 81.5317C46.1434 82.0276 45.6529 82.4642 45.0169 82.8414C44.3809 83.2295 43.4916 83.6715 42.349 84.1673L41.7345 82.421C42.7155 82.0006 43.4431 81.6557 43.9174 81.3862C44.3917 81.1275 44.7205 80.8688 44.9038 80.6101C45.0978 80.3621 45.1948 80.0603 45.1948 79.7046H43.9174C43.2922 79.7046 42.7155 79.5644 42.1873 79.2842C41.6699 78.9931 41.2602 78.5997 40.9584 78.1038C40.6566 77.6079 40.5057 77.0528 40.5057 76.4383C40.5057 75.8239 40.6566 75.258 40.9584 74.7405C41.271 74.2123 41.686 73.7973 42.2035 73.4955C42.7317 73.1829 43.303 73.0266 43.9174 73.0266C44.5211 73.0266 45.0708 73.1829 45.5667 73.4955C46.0733 73.7973 46.4668 74.2123 46.7471 74.7405C47.0381 75.258 47.1836 75.8239 47.1836 76.4383V77.6025H47.9274ZM45.1948 76.4383C45.1948 76.0718 45.0708 75.7646 44.8229 75.5167C44.575 75.258 44.2731 75.1286 43.9174 75.1286C43.5509 75.1286 43.2383 75.2526 42.9796 75.5005C42.7317 75.7484 42.6077 76.0611 42.6077 76.4383C42.6077 76.8049 42.7317 77.1121 42.9796 77.36C43.2383 77.6079 43.5509 77.7319 43.9174 77.7319H45.1948V76.4383Z" fill="#F2C94C"/>
<path d="M47.9237 79.7046C47.8159 79.7046 47.762 79.6507 47.762 79.5429V77.7642C47.762 77.6564 47.8159 77.6025 47.9237 77.6025H48.6351C48.9046 77.6025 49.131 77.5109 49.3142 77.3277C49.4975 77.1444 49.5891 76.918 49.5891 76.6485V68.8872H51.5779V76.6485C51.5779 76.918 51.6642 77.1444 51.8367 77.3277C52.0199 77.5109 52.2463 77.6025 52.5158 77.6025H53.2272C53.335 77.6025 53.3889 77.6564 53.3889 77.7642V79.5429C53.3889 79.6507 53.335 79.7046 53.2272 79.7046H52.5158C52.0954 79.7046 51.7181 79.6183 51.3839 79.4459C51.0497 79.2626 50.7803 79.0147 50.5754 78.7021C50.3706 79.0147 50.1011 79.2626 49.767 79.4459C49.4328 79.6183 49.0555 79.7046 48.6351 79.7046H47.9237Z" fill="#F2C94C"/>
<path d="M58.452 73.0589C59.0664 73.0589 59.6324 73.2045 60.1498 73.4955C60.678 73.7758 61.093 74.1692 61.3948 74.6759C61.7074 75.1717 61.8637 75.7215 61.8637 76.3252C61.8637 76.9396 61.7074 77.5109 61.3948 78.0391C61.093 78.5565 60.678 78.9716 60.1498 79.2842C59.6324 79.586 59.0664 79.7369 58.452 79.7369C57.9992 79.7369 57.5788 79.6561 57.1908 79.4944C56.8027 79.3327 56.4631 79.1009 56.1721 78.7991C55.9457 79.0794 55.6655 79.3003 55.3313 79.462C55.0079 79.6237 54.6414 79.7046 54.2318 79.7046H53.2293C53.1215 79.7046 53.0676 79.6507 53.0676 79.5429V77.7642C53.0676 77.6564 53.1215 77.6025 53.2293 77.6025H54.2318C54.5013 77.6025 54.7276 77.5109 54.9109 77.3277C55.0941 77.1444 55.1858 76.918 55.1858 76.6485V75.0478V73.0589H58.452ZM58.452 77.6349C58.8293 77.6349 59.1419 77.5109 59.3898 77.263C59.6378 77.0043 59.7617 76.6917 59.7617 76.3252C59.7617 75.9586 59.6378 75.6568 59.3898 75.4197C59.1419 75.1717 58.8293 75.0478 58.452 75.0478H57.1584V76.3252C57.1584 76.7024 57.2824 77.0151 57.5303 77.263C57.7783 77.5109 58.0855 77.6349 58.452 77.6349Z" fill="#F2C94C"/>
<defs>
<filter id="filter0_f_141_305" x="0.28125" y="0.235352" width="55.3025" height="55.259" filterUnits="userSpaceOnUse" color-interpolation-filters="sRGB">
<feFlood flood-opacity="0" result="BackgroundImageFix"/>
<feBlend mode="normal" in="SourceGraphic" in2="BackgroundImageFix" result="shape"/>
<feGaussianBlur stdDeviation="1" result="effect1_foregroundBlur_141_305"/>
</filter>
<linearGradient id="paint0_linear_141_305" x1="32.0615" y1="26.0107" x2="32.0615" y2="40.6067" gradientUnits="userSpaceOnUse">
<stop stop-color="#E8B007"/>
<stop offset="0.0656249" stop-color="#E6A80B"/>
<stop offset="0.430208" stop-color="#FFCA27"/>
</linearGradient>
<linearGradient id="paint1_linear_141_305" x1="36.9782" y1="27.985" x2="27.6501" y2="37.3131" gradientUnits="userSpaceOnUse">
<stop offset="0.16726" stop-color="#333333"/>
<stop offset="0.426443" stop-color="#656565"/>
<stop offset="0.726316" stop-color="#292929"/>
</linearGradient>
<linearGradient id="paint2_linear_141_305" x1="53.3029" y1="28.6513" x2="29.3164" y2="52.6378" gradientUnits="userSpaceOnUse">
<stop offset="0.14375" stop-color="#333333"/>
<stop offset="0.352083" stop-color="#515151"/>
<stop offset="0.505582" stop-color="#868686"/>
<stop offset="0.680461" stop-color="#545252"/>
<stop offset="0.83125" stop-color="#292929"/>
</linearGradient>
<linearGradient id="paint3_linear_141_305" x1="15.9906" y1="50.6387" x2="31.9816" y2="40.6443" gradientUnits="userSpaceOnUse">
<stop stop-color="#898989"/>
<stop offset="0.0552082" stop-color="#343434"/>
<stop offset="0.816152" stop-color="#292929"/>
<stop offset="1" stop-color="#4F4E4E"/>
</linearGradient>
</defs>
</svg>
