<svg width="146" height="160" viewBox="0 0 146 160" fill="none" xmlns="http://www.w3.org/2000/svg">
<g filter="url(#filter0_d_54_153)">
<path d="M77.9624 149.559C77.0704 149.529 76.2688 149.18 75.654 148.631L62.4666 148.854C62.0627 149.005 61.6288 149.089 61.1888 149.089C61.1587 149.089 60.8151 149.083 60.8151 149.083C60.4535 149.077 60.1039 149.011 59.7724 148.902C59.7724 148.902 34.3317 149.33 34.3076 149.33C33.3131 149.33 32.3608 148.92 31.6798 148.197C30.9806 147.456 30.625 146.461 30.7034 145.443L31.6858 132.358C17.8775 120.364 10 103.144 10 84.8093C10 64.787 19.2035 46.4102 35.2478 34.392C38.7376 31.7762 42.5106 29.522 46.4584 27.6898C46.9225 27.4668 47.4288 27.2437 47.929 27.0268C48.4654 26.7917 49.026 26.5567 49.5925 26.3336C52.2806 25.2548 55.0652 24.3628 57.8859 23.6696C58.1873 23.3442 58.5127 23.0549 58.8683 22.8017C59.0311 20.0111 59.9412 17.54 61.4781 15.8885C63.9372 13.2366 71.3386 10 76.4737 10C77.655 10 78.7339 10.1567 79.6922 10.4701C83.2483 11.6273 85.6169 14.876 86.8344 16.9734C89.7878 17.6666 94.947 19.5651 95.9294 24.417C96.05 25.0257 96.1103 25.6345 96.1103 26.2432C120.056 35.6938 135.926 58.8382 135.926 84.8093C135.926 100.824 129.911 116.078 118.989 127.759C115.681 131.309 111.956 134.473 107.899 137.185L107.761 144.599C107.725 146.546 106.152 148.113 104.205 148.149L80.9097 148.541C80.8916 148.559 80.8736 148.577 80.8555 148.589C80.1865 149.216 79.3005 149.565 78.3783 149.565C78.3301 149.571 77.9624 149.559 77.9624 149.559Z" fill="#F2C94C"/>
<path d="M132.501 84.8101C132.501 100.457 126.444 114.699 116.541 125.295C109.887 132.431 101.479 137.928 92.0107 141.098C91.9082 141.134 91.8058 141.164 91.6973 141.194C85.869 143.117 79.6429 144.154 73.1698 144.154C64.2977 144.154 55.8898 142.213 48.3318 138.717C48.2414 138.675 48.1509 138.639 48.0545 138.585C27.8273 129.128 13.8201 108.605 13.8201 84.8101C13.8201 65.3664 23.1743 48.1106 37.6215 37.2858C40.8942 34.8327 44.4322 32.7112 48.1811 30.9753C48.6391 30.7584 49.1032 30.5535 49.5673 30.3485C50.0917 30.1195 50.6161 29.9025 51.1465 29.6916C57.9511 26.9673 65.3826 25.4725 73.1637 25.4725C105.933 25.4665 132.501 52.0403 132.501 84.8101Z" fill="#F2C94C"/>
<path d="M84.6259 20.205C84.6259 20.205 91.75 21.0368 92.5817 25.1353C93.4135 29.2338 89.4114 32.6512 85.4094 33.0912L76.3807 21.2839C76.3807 21.2779 81.6002 19.6686 84.6259 20.205Z" fill="#6E58A6"/>
<path d="M61.2517 43.2821C61.2517 43.2821 50.0291 45.5242 45.5389 48.6523C45.5389 48.6523 50.9091 57.3375 52.1748 69.2412C53.4465 81.1448 48.4681 112.667 48.4681 112.667L88.2836 114.421L80.7677 51.3766L73.2518 46.5971L61.2517 43.2821Z" fill="#FFE2BF"/>
<path d="M105.943 102.917H37.535V105.647H105.943V102.917Z" fill="#3C2238"/>
<path d="M38.7094 103.888L38.613 110.427" stroke="#3C2238" stroke-width="0.9513" stroke-miterlimit="10" stroke-linecap="round" stroke-linejoin="round"/>
<path d="M104.092 103.888L103.996 110.427" stroke="#3C2238" stroke-width="0.9513" stroke-miterlimit="10" stroke-linecap="round" stroke-linejoin="round"/>
<path d="M104.973 109.842L104.768 120.854L104.334 144.534L34.5155 145.704L36.5406 118.69L37.294 108.673L104.973 109.842Z" fill="#6E58A6"/>
<path d="M56.601 139.248C60.8495 135 60.8495 128.111 56.601 123.863C52.3525 119.614 45.4643 119.614 41.2158 123.863C36.9674 128.111 36.9673 135 41.2158 139.248C45.4643 143.497 52.3525 143.497 56.601 139.248Z" stroke="#FFE2BF" stroke-width="0.4756" stroke-miterlimit="10"/>
<path d="M48.9102 140.196C53.6803 140.196 57.5472 136.329 57.5472 131.559C57.5472 126.789 53.6803 122.922 48.9102 122.922C44.1402 122.922 40.2733 126.789 40.2733 131.559C40.2733 136.329 44.1402 140.196 48.9102 140.196Z" stroke="#FFE2BF" stroke-width="0.4756" stroke-miterlimit="10"/>
<path d="M51.9835 131.558C51.9835 133.258 50.6093 134.632 48.9096 134.632C47.21 134.632 45.8358 133.258 45.8358 131.558C45.8358 129.858 47.21 128.484 48.9096 128.484C50.6033 128.484 51.9835 129.858 51.9835 131.558Z" stroke="#FFE2BF" stroke-width="0.4756" stroke-miterlimit="10"/>
<path d="M102.741 134.899C104.105 129.047 100.468 123.197 94.6163 121.833C88.7648 120.468 82.915 124.106 81.5505 129.957C80.186 135.809 83.8235 141.659 89.675 143.023C95.5266 144.388 101.376 140.75 102.741 134.899Z" stroke="#FFE2BF" stroke-width="0.4756" stroke-miterlimit="10"/>
<path d="M100.657 133.806C101.414 129.096 98.2104 124.665 93.5009 123.908C88.7914 123.151 84.3599 126.355 83.6029 131.064C82.8459 135.774 86.05 140.205 90.7595 140.962C95.469 141.719 99.9004 138.515 100.657 133.806Z" stroke="#FFE2BF" stroke-width="0.4756" stroke-miterlimit="10"/>
<path d="M95.2159 132.431C95.2159 134.131 93.8417 135.505 92.142 135.505C90.4424 135.505 89.0682 134.131 89.0682 132.431C89.0682 130.732 90.4424 129.357 92.142 129.357C93.8357 129.357 95.2159 130.738 95.2159 132.431Z" stroke="#FFE2BF" stroke-width="0.4756" stroke-miterlimit="10"/>
<path d="M61.9348 117.159L61.2537 145.463" stroke="#FFE2BF" stroke-width="0.4756" stroke-miterlimit="10"/>
<path d="M79.3054 117.551L78.4315 145.951" stroke="#FFE2BF" stroke-width="0.4756" stroke-miterlimit="10"/>
<path d="M61.8143 125.946L79.1605 125.874" stroke="#FFE2BF" stroke-width="0.4756" stroke-miterlimit="10"/>
<path d="M65.9842 125.947L66.5688 128.533L75.2058 128.581L75.8447 125.947" stroke="#FFE2BF" stroke-width="0.4756" stroke-miterlimit="10"/>
<path d="M67.1613 132.607C67.1613 133.24 66.6489 133.752 66.0161 133.752C65.3832 133.752 64.8709 133.24 64.8709 132.607C64.8709 131.974 65.3832 131.462 66.0161 131.462C66.6429 131.462 67.1613 131.974 67.1613 132.607Z" fill="#FFE2BF"/>
<path d="M75.0376 133.752C75.67 133.752 76.1827 133.24 76.1827 132.607C76.1827 131.975 75.67 131.462 75.0376 131.462C74.4051 131.462 73.8924 131.975 73.8924 132.607C73.8924 133.24 74.4051 133.752 75.0376 133.752Z" fill="#FFE2BF"/>
<path d="M104.975 109.842L104.77 120.854L36.5426 118.69L37.296 108.673L104.975 109.842Z" fill="white"/>
<path d="M71.1078 113.977C71.1078 115.086 70.2038 115.99 69.0948 115.99C67.9858 115.99 67.0817 115.086 67.0817 113.977C67.0817 112.868 67.9858 111.964 69.0948 111.964C70.2098 111.964 71.1078 112.868 71.1078 113.977Z" stroke="#3C2238" stroke-width="0.4756" stroke-miterlimit="10"/>
<path d="M76.2666 115.99C77.3784 115.99 78.2796 115.089 78.2796 113.977C78.2796 112.865 77.3784 111.964 76.2666 111.964C75.1548 111.964 74.2535 112.865 74.2535 113.977C74.2535 115.089 75.1548 115.99 76.2666 115.99Z" stroke="#3C2238" stroke-width="0.4756" stroke-miterlimit="10"/>
<path d="M85.0903 113.977C85.0903 115.086 84.1862 115.99 83.0772 115.99C81.9682 115.99 81.0641 115.086 81.0641 113.977C81.0641 112.868 81.9682 111.964 83.0772 111.964C84.1862 111.964 85.0903 112.868 85.0903 113.977Z" stroke="#3C2238" stroke-width="0.4756" stroke-miterlimit="10"/>
<path d="M97.2058 118.19C99.0865 118.19 100.611 116.665 100.611 114.784C100.611 112.904 99.0865 111.379 97.2058 111.379C95.3251 111.379 93.8004 112.904 93.8004 114.784C93.8004 116.665 95.3251 118.19 97.2058 118.19Z" stroke="#3C2238" stroke-width="0.4756" stroke-miterlimit="10"/>
<path d="M61.5232 136.85L78.8694 136.777" stroke="#FFE2BF" stroke-width="0.4756" stroke-miterlimit="10"/>
<path d="M61.6371 99.2328L61.4864 99.0459C61.4864 99.0459 56.5441 89.957 54.3502 87.0037C52.741 84.8399 52.8615 76.1728 52.8615 76.1728L39.5897 75.2928C39.5897 75.2928 39.7825 85.5391 42.32 89.0529C44.2125 91.6747 48.6063 97.2559 51.1498 99.9319C51.5596 100.414 52.09 101.065 52.2709 101.493C52.6626 102.421 53.7355 106.664 54.2237 107.008C54.7119 107.351 56.08 107.249 56.08 107.249C56.08 107.249 56.3211 108.418 57.1046 108.418C57.8882 108.418 59.1057 108.177 59.1057 108.177C59.1057 108.177 59.9856 108.714 60.6667 108.617C61.3478 108.521 61.836 107.641 61.836 107.641C61.836 107.641 63.2042 107.737 63.9334 107.345C64.6446 106.978 63.0655 101.529 61.6371 99.2328Z" fill="#F29E74"/>
<path d="M54.9705 103.692C54.9705 103.692 55.8143 107.206 56.4351 107.899C57.0559 108.592 58.5567 108.267 58.9244 108.195" stroke="#3C2238" stroke-width="0.4756" stroke-miterlimit="10" stroke-linecap="round" stroke-linejoin="round"/>
<path d="M57.5684 103.94C57.5684 103.94 58.6955 108.003 59.2018 108.256C59.6177 108.461 60.4193 108.768 60.9858 108.449C61.5464 108.129 61.8417 107.641 61.8417 107.641" stroke="#3C2238" stroke-width="0.4756" stroke-miterlimit="10" stroke-linecap="round" stroke-linejoin="round"/>
<path d="M60.2147 103.302L61.848 107.659C61.848 107.659 62.505 107.828 63.1439 107.623C63.7767 107.418 64.3132 107.37 64.0721 106.11C63.831 104.857 62.9751 102.355 62.9751 102.355" stroke="#3C2238" stroke-width="0.4756" stroke-miterlimit="10" stroke-linecap="round" stroke-linejoin="round"/>
<path d="M65.3508 32.7471C65.3508 32.7471 64.8626 36.3092 63.9344 38.2138C63.0063 40.1184 60.8124 43.584 60.8124 43.584C60.8124 43.584 65.0073 48.0743 68.5693 48.3153C72.1314 48.5564 73.3007 46.1697 73.3007 46.1697L75.4946 37.8763L65.3508 32.7471Z" fill="#F29E74"/>
<path d="M87.0126 29.0348C87.0126 29.7158 86.9523 30.3849 86.8258 31.0237C86.657 31.9158 86.3797 32.7716 86.0121 33.5732C85.3913 35.4055 84.3426 38.2081 83.0407 40.4442C81.9558 42.3187 80.6901 43.8013 79.352 44.0183C75.4042 44.6572 70.1305 43.6266 67.7437 41.1373C65.3449 38.6481 64.6638 36.7013 64.6638 36.7013L65.3931 29.9147C65.369 29.6194 65.3449 29.3361 65.3449 29.0348C65.3449 28.5405 65.3811 28.0584 65.4474 27.5882C65.4775 27.317 65.5197 27.0518 65.5739 26.7926C66.6106 21.8865 70.9622 18.2039 76.1818 18.2039C79.9668 18.2039 83.2938 20.1447 85.2285 23.0859C86.3014 24.7133 86.9463 26.654 87.0066 28.7334C87.0126 28.8298 87.0126 28.9323 87.0126 29.0348Z" fill="#F29E74"/>
<path d="M74.1989 20.4462C74.0603 20.6873 74.1145 20.9887 74.1446 21.272C74.44 23.7491 72.8066 26.3167 70.4379 27.1003C69.7267 27.3353 68.9251 27.4438 68.3766 27.9561C67.8101 28.4865 67.6534 29.3243 67.6052 30.1078C67.5569 30.9275 67.6052 31.7954 68.015 32.5066C68.672 33.6337 70.1064 34.0918 71.4143 34.0677C72.7222 34.0436 73.9879 33.6458 75.2898 33.477C76.3205 33.3444 77.3692 33.3745 78.3998 33.5433C79.099 33.6639 79.7981 33.8567 80.3888 34.2425C81.54 34.9898 82.1487 36.3218 82.5465 37.6297C82.8358 38.5398 83.0347 39.4982 83.0408 40.4444C81.9559 42.3189 80.3466 44.0487 79.0146 44.2596C75.0668 44.8985 70.1366 43.6268 67.7438 41.1376C65.345 38.6483 64.6639 36.7015 64.6639 36.7015C64.8327 35.1465 65.0798 33.5976 65.2425 32.0425C65.3872 30.6382 65.4113 29.2278 65.5378 27.8175C65.6041 27.0882 65.6885 26.3529 65.8452 25.6296C65.9778 24.9968 66.3455 24.4363 66.6529 23.8697C67.1471 22.9596 67.7799 22.1158 68.5092 21.3805C69.9919 19.8918 71.9025 18.8551 73.9578 18.4271C74.6871 18.2765 75.4284 18.1981 76.1758 18.1981C79.9609 18.1981 83.2879 20.1389 85.2226 23.0801C83.5651 23.1766 81.8715 22.8752 80.3526 22.2002C78.659 21.4528 77.116 20.2594 75.2717 20.0726C74.886 20.0424 74.4038 20.0906 74.1989 20.4462Z" fill="#3C2238"/>
<path d="M80.9062 34.4714C80.7977 34.827 80.6772 35.1946 80.4361 35.4839C80.0745 35.9179 79.4838 36.1288 78.9173 36.0866C78.3567 36.0445 77.8263 35.7672 77.4105 35.3815C77.0729 35.068 76.8017 34.6642 76.7475 34.2062C76.6932 33.73 76.8801 33.2478 77.1694 32.8621C77.4527 32.4764 77.8263 32.163 78.188 31.8495C79.1403 31.0178 80.0443 30.1318 80.8881 29.1976C81.075 28.9866 81.3402 28.7576 81.5994 28.8601C81.5511 30.7767 81.4607 32.609 80.9062 34.4714Z" fill="#F29E74"/>
<path d="M77.1047 30.1441C77.1047 30.6986 76.6707 31.1506 76.1343 31.1506C75.5979 31.1506 75.1639 30.6986 75.1639 30.1441C75.1639 29.5896 75.5979 29.1376 76.1343 29.1376C76.6707 29.1376 77.1047 29.5836 77.1047 30.1441Z" fill="#3C2238"/>
<path d="M84.2824 32.0308C84.2824 32.5853 83.8484 33.0374 83.312 33.0374C82.7756 33.0374 82.3416 32.5853 82.3416 32.0308C82.3416 31.4763 82.7756 31.0243 83.312 31.0243C83.8484 31.0243 84.2824 31.4763 84.2824 32.0308Z" fill="#3C2238"/>
<path d="M74.1329 27.5708C74.1329 27.8179 74.151 28.0892 74.3077 28.282C74.4282 28.4327 74.6211 28.5111 74.8019 28.5774C75.6999 28.8968 76.6583 29.0415 77.6105 28.9993C77.8516 28.9872 78.1048 28.9631 78.3218 28.8546C78.7858 28.6256 78.9968 28.059 78.9667 27.5467C78.9124 26.4859 77.7492 25.2986 76.6643 25.2684C75.1635 25.2202 74.1148 26.064 74.1329 27.5708Z" fill="#3C2238"/>
<path d="M87.0118 29.0358C87.0118 29.7168 86.9515 30.3859 86.825 31.0247C86.8009 31.0669 86.7647 31.1031 86.7406 31.1453C86.5899 31.3382 86.4151 31.5491 86.174 31.6034C85.9872 31.6516 85.7823 31.5913 85.6014 31.537C84.6974 31.2417 83.8415 30.7776 83.1122 30.1689C82.9314 30.0122 82.7446 29.8434 82.6361 29.6264C82.4131 29.1623 82.5818 28.5837 82.9194 28.192C83.6125 27.3783 85.2519 27.1432 86.1379 27.7821C86.5296 28.0654 86.825 28.3909 87.0178 28.7404C87.0118 28.8309 87.0118 28.9333 87.0118 29.0358Z" fill="#3C2238"/>
<path d="M81.6843 29.2225C81.6843 29.2225 82.052 36.0634 79.2674 36.1056" stroke="#3C2238" stroke-width="0.4756" stroke-miterlimit="10" stroke-linecap="round" stroke-linejoin="round"/>
<path d="M65.6462 26.5997L64.6698 36.7012C64.6698 36.7012 65.7968 37.7741 66.9179 37.9187C68.0389 38.0634 67.4543 31.2828 67.4543 31.2828L67.5507 25.5751L65.6462 26.5997Z" fill="#3C2238"/>
<path d="M76.0838 36.4188C76.3791 36.9492 76.9758 37.2566 77.5424 37.4013C78.0728 37.5399 78.6273 37.57 79.1697 37.5761" stroke="#F29E74" stroke-width="0.4756" stroke-miterlimit="10" stroke-linecap="round" stroke-linejoin="round"/>
<path d="M63.4457 28.0644C63.4457 28.0644 68.8159 24.3577 72.6191 22.5978C76.4222 20.8439 82.8653 19.7168 84.6252 20.205C84.6252 20.205 82.4554 15.112 78.7728 13.9126C74.5779 12.5444 66.2303 16.3054 64.3317 18.3546C62.4211 20.4039 62.18 24.9363 63.4457 28.0644Z" fill="#FFE2BF"/>
<path d="M63.8681 25.5747C63.2714 25.3095 62.6325 25.201 61.9816 25.3698C60.2036 25.8339 59.4984 28.1001 59.8419 29.7214C60.1192 31.0172 61.0112 32.0358 62.1202 32.7109C62.5662 32.9821 63.0484 33.2051 63.5667 33.2895C65.7847 33.6632 67.5929 31.4271 67.0926 29.3296C66.9118 28.5702 66.502 27.8831 66.0017 27.2864C65.4593 26.6294 64.7059 25.9484 63.8681 25.5747Z" fill="#F29E74"/>
<path d="M61.1561 27.1242C62.0541 27.0639 62.8618 27.6666 63.4283 28.3658C64.2058 29.3301 64.688 30.5295 64.7905 31.7651C64.7664 31.7168 64.7423 31.6686 64.7242 31.6204" stroke="#3C2238" stroke-width="0.4756" stroke-miterlimit="10" stroke-linecap="round" stroke-linejoin="round"/>
<path d="M84.7209 75.1974C84.7209 75.1974 85.8781 83.4908 85.2573 86.6128C84.968 88.0533 83.5938 92.1096 81.4482 95.8826C78.9529 100.282 75.6922 104.387 76.078 104.863C76.7892 105.743 79.9112 101.741 79.9112 101.741C79.9112 101.741 77.7716 108.672 78.3984 109.16C78.3984 109.16 78.8444 109.649 79.3808 108.968C79.9173 108.287 81.1649 105.894 81.1649 105.894C81.1649 105.894 81.7857 106.918 83.0333 106.726C83.0333 106.726 84.1905 107.943 85.2634 107.117C85.2634 107.117 86.734 107.75 87.626 106.677C88.518 105.604 94.1776 92.7726 95.0636 90.2834C95.9556 87.7942 96.7029 83.0025 96.2147 80.2059C95.7024 77.2767 94.8225 74.1306 94.8225 74.1306L84.7209 75.1974Z" fill="#F29E74"/>
<path d="M79.9884 101.084C79.9884 101.084 78.8432 105.911 78.6202 106.767C78.4032 107.623 77.9391 109.208 78.5479 109.353C79.1566 109.498 79.8919 108.28 80.6453 106.84C81.3987 105.399 82.9357 101.572 82.9357 101.572" stroke="#3C2238" stroke-width="0.4756" stroke-miterlimit="10" stroke-linecap="round" stroke-linejoin="round"/>
<path d="M81.242 106.026C81.5674 106.37 82.0315 106.581 82.5077 106.599C82.6704 106.605 82.8392 106.587 82.9838 106.514C83.1827 106.418 83.3214 106.237 83.4419 106.056C84.0567 105.164 84.4846 104.158 84.8884 103.151" stroke="#3C2238" stroke-width="0.4756" stroke-miterlimit="10" stroke-linecap="round" stroke-linejoin="round"/>
<path d="M83.0623 106.654C83.3938 107.136 84.0447 107.329 84.6233 107.244C84.7921 107.22 84.9609 107.172 85.1055 107.076C85.2803 106.961 85.4069 106.786 85.5154 106.605C85.6962 106.304 85.8348 105.979 85.9674 105.653C86.1904 105.111 86.3953 104.556 86.5882 104.002" stroke="#3C2238" stroke-width="0.4756" stroke-miterlimit="10" stroke-linecap="round" stroke-linejoin="round"/>
<path d="M46.1235 48.4606C46.1235 48.4304 46.1235 48.3943 46.1235 48.3641C42.6398 50.3109 40.3616 53.7645 39.0416 57.5315C37.7217 61.2984 37.3721 65.3246 37.137 69.3086C36.9261 72.8586 36.8055 76.4206 36.7694 79.9767C43.3028 79.6874 50.0291 80.1153 56.5626 79.82C56.7675 76.2941 56.1829 72.7742 55.6043 69.2905C55.0799 66.1443 54.5556 62.9861 53.7359 59.9062C53.103 57.5254 52.2893 55.1688 51.0357 53.0412C49.8966 51.1186 47.8654 49.8589 46.1235 48.4606Z" fill="#FFE2BF"/>
<path d="M80.7681 51.3837C80.8646 51.5765 88.7722 57.4349 92.4789 64.1673C96.1857 70.8997 98.6267 81.9294 98.6267 81.9294L80.6717 83.9786L80.7681 51.3837Z" fill="#FFE2BF"/>
<path d="M36.7694 79.9761H56.1769L55.3692 60.8036" stroke="#3C2238" stroke-width="0.4756" stroke-miterlimit="10" stroke-linecap="round" stroke-linejoin="round"/>
<path d="M85.1621 87.2988C85.1621 87.2988 82.3836 67.8311 81.6483 63.5819" stroke="#3C2238" stroke-width="0.4756" stroke-miterlimit="10" stroke-linecap="round" stroke-linejoin="round"/>
<path d="M60.5642 42.7938C66.6999 52.2987 70.063 63.2802 73.3479 74.105C74.0892 64.7568 74.0892 55.3786 73.5106 46.0184" stroke="#3C2238" stroke-width="0.4756" stroke-miterlimit="10" stroke-linecap="round" stroke-linejoin="round"/>
<path d="M76.7645 77.685C76.7645 79.6498 75.1673 81.247 73.2024 81.247C71.2376 81.247 69.6404 79.6498 69.6404 77.685C69.6404 75.7201 71.2376 74.1229 73.2024 74.1229C75.1733 74.1229 76.7645 75.7201 76.7645 77.685Z" stroke="#3C2238" stroke-width="0.4756" stroke-miterlimit="10" stroke-linecap="round" stroke-linejoin="round"/>
<path d="M86.5668 38.9852C89.924 37.6833 93.1485 36.062 96.5298 34.7481H96.5358C96.7407 34.6697 96.9758 34.7722 97.0541 34.9771C97.1325 35.182 97.03 35.4171 96.8251 35.4954C96.8191 35.4954 96.813 35.5015 96.807 35.5015C93.4077 36.6527 90.1048 38.1354 86.6814 39.2926C86.597 39.3227 86.5066 39.2745 86.4764 39.1901C86.4463 39.1118 86.4885 39.0213 86.5668 38.9852Z" fill="#29100D"/>
<path d="M86.3528 43.1622C90.7045 43.0899 95.0501 42.8247 99.4198 42.7463C99.6428 42.7403 99.8236 42.9151 99.8296 43.1381C99.8356 43.3611 99.6609 43.5419 99.4379 43.5479C99.4318 43.5479 99.4258 43.5479 99.4258 43.5479C95.0802 43.4816 90.7226 43.6082 86.3589 43.5419C86.2564 43.5419 86.172 43.4515 86.172 43.349C86.166 43.2466 86.2504 43.1622 86.3528 43.1622Z" fill="#29100D"/>
<path d="M85.5738 46.9586L94.0841 49.7491C94.2951 49.8154 94.4096 50.0445 94.3373 50.2554C94.271 50.4664 94.0419 50.5809 93.831 50.5086C93.825 50.5086 93.8189 50.5025 93.8129 50.5025L85.4653 47.2539C85.3869 47.2238 85.3447 47.1333 85.3749 47.055C85.411 46.9706 85.4954 46.9345 85.5738 46.9586Z" fill="#29100D"/>
<path d="M58.105 39.0891C55.3084 36.7927 52.7468 34.2372 49.9743 31.9529C49.8055 31.8143 49.7814 31.5611 49.9201 31.3924C50.0587 31.2236 50.3118 31.1995 50.4806 31.3381C50.4866 31.3442 50.4866 31.3441 50.4926 31.3502L50.4987 31.3562C53.1988 33.7852 55.6399 36.4431 58.3159 38.848C58.3822 38.9083 58.3882 39.0107 58.328 39.077C58.2737 39.1373 58.1713 39.1433 58.105 39.0891Z" fill="#29100D"/>
<path d="M56.9123 43.1811C52.8078 41.6984 48.7756 40.0349 44.6892 38.5523C44.4842 38.4799 44.3757 38.2509 44.4481 38.0399C44.5204 37.835 44.7494 37.7265 44.9604 37.7989C44.9664 37.7989 44.9724 37.8049 44.9724 37.8049C49.0287 39.4202 53.0006 41.2102 57.0449 42.8195C57.1413 42.8557 57.1895 42.9702 57.1534 43.0666C57.1172 43.1691 57.0087 43.2173 56.9123 43.1811Z" fill="#29100D"/>
<path d="M56.4187 46.9606L47.4623 47.039C47.2393 47.039 47.0585 46.8642 47.0585 46.6412C47.0585 46.4182 47.2332 46.2374 47.4563 46.2374C47.4623 46.2374 47.4743 46.2374 47.4804 46.2374L56.4247 46.6472C56.5091 46.6532 56.5754 46.7256 56.5693 46.81C56.5693 46.8943 56.503 46.9606 56.4187 46.9606Z" fill="#29100D"/>
<path d="M103.816 52.9624L105.16 42.3485L106.944 52.8479H116.335L107.951 55.53L110.187 64.4743L105.606 56.7595L101.134 64.6973L103.256 56.5365L93.6484 52.5164L103.816 52.9624Z" fill="#F56A6C"/>
<path d="M24.3425 89.1618L25.5299 79.7534L27.115 89.0593H35.4325L28.007 91.434L29.99 99.3598L25.9277 92.5249L21.9678 99.5587L23.8483 92.3261L15.3319 88.764L24.3425 89.1618Z" fill="#F56A6C"/>
<path d="M109.023 91.5122L113.019 85.5573L111.271 92.5006L117.919 95.6589L111.211 94.4534L110.229 100.601L109.198 94.4052L103.755 97.69L107.601 93.4831L101.941 87.8175L109.023 91.5122Z" fill="#F56A6C"/>
<path d="M113.473 68.4831L127.558 79.2115" stroke="#FFE2BF" stroke-width="0.9076" stroke-miterlimit="10" stroke-linecap="round" stroke-linejoin="round"/>
<path d="M122.26 80.7361C121.488 81.3629 120.753 82.0741 120.325 82.9721C119.897 83.8702 119.843 84.9973 120.392 85.823C121.097 86.8777 122.622 87.1429 123.797 86.6849C124.978 86.2268 125.846 85.1901 126.461 84.0872C126.961 83.1891 128.691 79.392 127.395 78.7591C125.912 78.0238 123.309 79.8802 122.26 80.7361Z" fill="#FFE2BF"/>
<path d="M28.7879 117.749L28.1912 108.057" stroke="#FFE2BF" stroke-width="0.4979" stroke-miterlimit="10" stroke-linecap="round" stroke-linejoin="round"/>
<path d="M30.7275 109.708C31.2639 109.805 31.8244 109.859 32.3488 109.708C32.8732 109.563 33.3614 109.184 33.506 108.659C33.6929 107.99 33.2589 107.261 32.6441 106.936C32.0294 106.61 31.288 106.622 30.607 106.761C30.0525 106.875 27.8586 107.52 28.0575 108.286C28.2865 109.166 29.9922 109.582 30.7275 109.708Z" fill="#FFE2BF"/>
<path d="M33.5297 53.4391L27.9666 68.8868" stroke="#FFE2BF" stroke-width="0.8416" stroke-miterlimit="10" stroke-linecap="round" stroke-linejoin="round"/>
<path d="M25.1395 64.6254C24.368 64.1191 23.5363 63.661 22.6262 63.5344C21.7161 63.4079 20.7035 63.667 20.1249 64.3843C19.3896 65.3004 19.5764 66.7228 20.3118 67.6389C21.0471 68.5551 22.2043 69.0372 23.3555 69.2723C24.2897 69.4652 28.129 69.9353 28.3279 68.6153C28.5569 67.0965 26.1882 65.3125 25.1395 64.6254Z" fill="#FFE2BF"/>
</g>
<defs>
<filter id="filter0_d_54_153" x="0" y="0" width="145.926" height="159.567" filterUnits="userSpaceOnUse" color-interpolation-filters="sRGB">
<feFlood flood-opacity="0" result="BackgroundImageFix"/>
<feColorMatrix in="SourceAlpha" type="matrix" values="0 0 0 0 0 0 0 0 0 0 0 0 0 0 0 0 0 0 127 0" result="hardAlpha"/>
<feOffset/>
<feGaussianBlur stdDeviation="5"/>
<feColorMatrix type="matrix" values="0 0 0 0 0 0 0 0 0 0 0 0 0 0 0 0 0 0 0.3 0"/>
<feBlend mode="normal" in2="BackgroundImageFix" result="effect1_dropShadow_54_153"/>
<feBlend mode="normal" in="SourceGraphic" in2="effect1_dropShadow_54_153" result="shape"/>
</filter>
</defs>
</svg>
