<svg width="162" height="77" viewBox="0 0 162 77" fill="none" xmlns="http://www.w3.org/2000/svg">
<rect opacity="0.8" width="162" height="77" rx="5" fill="url(#paint0_linear_520_785)"/>
<path d="M41.0494 51.976L40.0834 51.01L41.0494 50.03L42.0294 51.01L41.0494 51.976ZM41.8054 58.304C40.8907 58.5187 40.0834 58.5047 39.3834 58.262C38.6834 58.0287 38.156 57.6133 37.8014 57.016C37.4467 56.4187 37.246 55.6767 37.1994 54.79C37.1527 53.894 37.3254 52.9 37.7174 51.808L38.7254 52.214C38.1094 53.9687 38.0674 55.3127 38.5994 56.246C39.1407 57.1793 40.13 57.478 41.5674 57.142C42.5287 56.918 43.154 56.722 43.4434 56.554C43.994 56.2273 44.2134 55.6627 44.1014 54.86L43.5414 51.024L44.5914 50.842C44.9087 52.9793 45.0954 54.2627 45.1514 54.692C45.2167 55.168 45.2074 55.5927 45.1234 55.966C45.0394 56.3393 44.9087 56.6473 44.7314 56.89C44.554 57.1327 44.2974 57.3473 43.9614 57.534C43.6347 57.7207 43.308 57.8653 42.9814 57.968C42.664 58.08 42.272 58.192 41.8054 58.304ZM46.9248 55.042L46.5608 45.788L47.6248 45.732L47.9748 54.986L46.9248 55.042ZM56.8972 53.824H57.5832V55H56.8972C56.2719 55 55.7679 54.7387 55.3852 54.216C54.9372 54.7387 54.1952 55 53.1592 55H52.6132C51.9226 55 51.3719 54.8647 50.9612 54.594C50.5599 54.314 50.3359 53.95 50.2892 53.502L50.2192 52.578H51.1992C51.1992 52.858 51.2179 53.0913 51.2552 53.278C51.3299 53.642 51.7266 53.824 52.4452 53.824H53.2992C53.9246 53.824 54.3399 53.712 54.5452 53.488C54.7599 53.264 54.8159 52.9607 54.7132 52.578V52.564L53.6632 48.448L54.6992 48.168L55.7492 52.298C55.8239 52.5687 55.8799 52.774 55.9172 52.914C55.9639 53.054 56.0292 53.208 56.1132 53.376C56.2066 53.5347 56.3139 53.6513 56.4352 53.726C56.5659 53.7913 56.7199 53.824 56.8972 53.824ZM60.2987 48.756L59.3187 49.722L58.3527 48.756L59.3187 47.776L60.2987 48.756ZM60.6487 52.662C60.686 53.082 60.798 53.3807 60.9847 53.558C61.1714 53.7353 61.4794 53.824 61.9087 53.824V55C61.1247 55 60.5367 54.7713 60.1447 54.314C59.7154 54.7713 59.1087 55 58.3247 55H57.4427V53.824H58.3247C58.782 53.824 59.1134 53.7353 59.3187 53.558C59.524 53.3807 59.6127 53.1193 59.5847 52.774V52.732L59.4307 51.01L60.4947 50.912L60.6487 52.634V52.662ZM67.027 50.17C67.643 50.506 68.021 51.066 68.161 51.85C68.301 52.634 68.1657 53.4273 67.755 54.23C67.5683 54.594 67.2837 54.846 66.901 54.986C66.5183 55.126 66.1217 55.098 65.711 54.902L63.919 53.978C63.3963 54.6593 62.729 55 61.917 55H61.763V53.824H61.917C62.561 53.824 63.0183 53.558 63.289 53.026L64.325 51.052C64.5957 50.5293 64.9877 50.184 65.501 50.016C66.0237 49.848 66.5323 49.8993 67.027 50.17ZM66.915 53.74C67.1857 53.208 67.3023 52.6993 67.265 52.214C67.2277 51.7287 67.0223 51.388 66.649 51.192C66.3597 51.0333 66.0703 51.0147 65.781 51.136C65.4917 51.248 65.263 51.472 65.095 51.808L64.465 53.012L66.285 53.936C66.5557 54.0667 66.7657 54.0013 66.915 53.74ZM72.9885 53.824H73.0865V55H72.9885C72.7178 55 72.4845 54.972 72.2885 54.916C72.4378 56.0267 72.2045 56.8247 71.5885 57.31C70.9818 57.7953 69.9972 58.2247 68.6345 58.598L68.3545 57.45C69.4185 57.1607 70.0905 56.946 70.3705 56.806C70.9865 56.4887 71.2852 55.9987 71.2665 55.336C71.2572 55.2427 71.2478 55.1447 71.2385 55.042L70.6785 51.024L71.7285 50.856L71.7985 51.36V51.402C71.8078 51.458 71.8405 51.6913 71.8965 52.102C72.0085 52.83 72.1298 53.3013 72.2605 53.516C72.4005 53.7213 72.6432 53.824 72.9885 53.824ZM75.8026 48.756L74.8226 49.722L73.8566 48.756L74.8226 47.776L75.8026 48.756ZM76.1526 52.662C76.1899 53.082 76.3019 53.3807 76.4886 53.558C76.6753 53.7353 76.9833 53.824 77.4126 53.824V55C76.6286 55 76.0406 54.7713 75.6486 54.314C75.2193 54.7713 74.6126 55 73.8286 55H72.9466V53.824H73.8286C74.2859 53.824 74.6173 53.7353 74.8226 53.558C75.0279 53.3807 75.1166 53.1193 75.0886 52.774V52.732L74.9346 51.01L75.9986 50.912L76.1526 52.634V52.662ZM84.2809 50.954C84.8316 51.2527 85.2096 51.7007 85.4149 52.298C85.6296 52.8953 85.6062 53.474 85.3449 54.034C85.0836 54.6033 84.6636 54.9953 84.0849 55.21C83.5156 55.4247 82.9509 55.4013 82.3909 55.14L80.7249 54.384C79.9222 54.7947 78.9982 55 77.9529 55H77.2669V53.824H77.9529C78.3822 53.824 78.8162 53.7913 79.2549 53.726C78.6856 53.4367 78.2982 52.9887 78.0929 52.382C77.8969 51.7753 77.9436 51.1733 78.2329 50.576C78.4289 50.1467 78.7322 49.806 79.1429 49.554L78.8489 49.4L79.3389 48.35L84.2809 50.954ZM79.8289 52.718L80.7389 53.152C81.0936 52.9 81.3549 52.578 81.5229 52.186C81.6722 51.8687 81.6862 51.5513 81.5649 51.234C81.4529 50.9073 81.2429 50.6647 80.9349 50.506C80.6082 50.3473 80.2816 50.3193 79.9549 50.422C79.6376 50.5247 79.3996 50.73 79.2409 51.038C79.0729 51.3553 79.0449 51.6773 79.1569 52.004C79.2689 52.3307 79.4929 52.5687 79.8289 52.718ZM84.4069 53.572C84.5469 53.292 84.5609 52.998 84.4489 52.69C84.3369 52.382 84.1222 52.1487 83.8049 51.99L82.6849 51.402C82.7316 51.8407 82.6616 52.2653 82.4749 52.676C82.3256 53.0213 82.0969 53.3433 81.7889 53.642L82.8249 54.132C83.1142 54.272 83.4129 54.2907 83.7209 54.188C84.0382 54.076 84.2669 53.8707 84.4069 53.572ZM95.391 51.052L94.425 52.018L93.445 51.052L94.425 50.072L95.391 51.052ZM99.339 53.824H99.745V55H99.367C99.0497 55 98.765 54.93 98.513 54.79C98.569 55.2567 98.5503 55.6673 98.457 56.022C98.373 56.386 98.2377 56.6847 98.051 56.918C97.8737 57.1513 97.6217 57.3567 97.295 57.534C96.9683 57.7207 96.6463 57.8653 96.329 57.968C96.0117 58.08 95.6197 58.192 95.153 58.304C94.2383 58.5187 93.431 58.5047 92.731 58.262C92.031 58.0287 91.5037 57.6133 91.149 57.016C90.7943 56.4187 90.5937 55.6767 90.547 54.79C90.5003 53.894 90.673 52.9 91.065 51.808L92.073 52.214C91.457 53.9687 91.415 55.3127 91.947 56.246C92.4883 57.1793 93.4777 57.478 94.915 57.142C95.8763 56.918 96.5017 56.722 96.791 56.554C97.3417 56.2273 97.561 55.6627 97.449 54.86C97.4303 54.72 97.3837 54.4027 97.309 53.908C97.2437 53.4133 97.1643 52.8813 97.071 52.312C96.987 51.7333 96.9357 51.3647 96.917 51.206C96.917 51.1873 96.9123 51.1593 96.903 51.122C96.8937 51.0753 96.889 51.0427 96.889 51.024L97.939 50.842L98.079 51.836C98.2097 52.6107 98.359 53.138 98.527 53.418C98.695 53.6887 98.9657 53.824 99.339 53.824ZM104.423 51.794C104.693 52.7927 104.572 53.5767 104.059 54.146C103.545 54.7153 102.845 55 101.959 55H99.6068V53.824H101.959C103.228 53.824 103.699 53.2267 103.373 52.032L102.827 49.946L103.849 49.652L104.423 51.794ZM99.6908 57.016L100.559 56.148L101.427 57.016L100.559 57.884L99.6908 57.016ZM102.127 57.016L102.981 56.148L103.849 57.016L102.981 57.884L102.127 57.016ZM109.889 53.824H109.987V55H109.889C109.618 55 109.385 54.972 109.189 54.916C109.338 56.0267 109.105 56.8247 108.489 57.31C107.882 57.7953 106.898 58.2247 105.535 58.598L105.255 57.45C106.319 57.1607 106.991 56.946 107.271 56.806C107.887 56.4887 108.186 55.9987 108.167 55.336C108.158 55.2427 108.148 55.1447 108.139 55.042L107.579 51.024L108.629 50.856L108.699 51.36V51.402C108.708 51.458 108.741 51.6913 108.797 52.102C108.909 52.83 109.03 53.3013 109.161 53.516C109.301 53.7213 109.544 53.824 109.889 53.824ZM112.269 48.77L111.401 49.624L110.547 48.77L111.401 47.902L112.269 48.77ZM114.705 48.77L113.837 49.624L112.983 48.77L113.837 47.902L114.705 48.77ZM114.313 52.718C114.36 53.1287 114.472 53.418 114.649 53.586C114.836 53.7447 115.144 53.824 115.573 53.824V55C114.798 55 114.21 54.7713 113.809 54.314C113.38 54.7713 112.773 55 111.989 55H109.847V53.824H111.989C112.446 53.824 112.778 53.7353 112.983 53.558C113.188 53.3807 113.277 53.1193 113.249 52.774V52.732L113.095 51.01L114.159 50.912L114.313 52.634V52.718ZM121.571 53.824H122.271V55H121.571C121.291 55 121.053 55.0933 120.857 55.28C120.67 55.4667 120.577 55.6907 120.577 55.952V57.828L120.059 58.36C119.219 58.3693 118.463 58.066 117.791 57.45C117.119 56.834 116.722 56.0173 116.601 55H116.405H115.439V53.824H116.405H116.671C116.764 53.3947 116.927 52.816 117.161 52.088C117.394 51.3507 117.604 50.7253 117.791 50.212L118.071 49.428L118.701 49.106L119.737 49.4C120.325 49.568 120.735 50.002 120.969 50.702C121.211 51.402 121.193 52.06 120.913 52.676C120.67 53.2267 120.259 53.698 119.681 54.09C119.111 54.4727 118.439 54.7387 117.665 54.888C117.739 55.5133 117.949 56.0313 118.295 56.442C118.649 56.8527 119.069 57.1093 119.555 57.212V55.952C119.555 55.364 119.746 54.8647 120.129 54.454C120.521 54.034 121.001 53.824 121.571 53.824ZM118.855 50.38C118.332 51.78 117.968 52.8907 117.763 53.712C118.939 53.488 119.685 52.984 120.003 52.2C120.152 51.8733 120.161 51.5373 120.031 51.192C119.909 50.8373 119.713 50.6227 119.443 50.548L118.855 50.38ZM122.124 55V53.824H123.23C124.5 53.824 124.976 53.2267 124.658 52.032L124.098 49.946L125.134 49.652L125.694 51.738C125.965 52.7647 125.848 53.5673 125.344 54.146C124.84 54.7153 124.136 55 123.23 55H122.124ZM123.118 57.954L122.138 56.974L123.118 56.008L124.084 56.988L123.118 57.954Z" fill="white"/>
<path d="M55.2134 35.272H49.4494L48.5254 38H44.5874L50.1754 22.556H54.5314L60.1194 38H56.1374L55.2134 35.272ZM54.2454 32.368L52.3314 26.714L50.4394 32.368H54.2454ZM65.5821 27.77C66.0221 27.0953 66.5721 26.5673 67.2321 26.186C67.8921 25.79 68.6254 25.592 69.4321 25.592V29.574H68.3981C67.4594 29.574 66.7554 29.7793 66.2861 30.19C65.8167 30.586 65.5821 31.29 65.5821 32.302V38H61.8201V25.724H65.5821V27.77ZM78.0722 34.81V38H76.1582C74.7942 38 73.7309 37.67 72.9682 37.01C72.2055 36.3353 71.8242 35.2427 71.8242 33.732V28.848H70.3282V25.724H71.8242V22.732H75.5862V25.724H78.0502V28.848H75.5862V33.776C75.5862 34.1427 75.6742 34.4067 75.8502 34.568C76.0262 34.7293 76.3195 34.81 76.7302 34.81H78.0722ZM82.0597 24.448C81.3997 24.448 80.857 24.2573 80.4317 23.876C80.021 23.48 79.8157 22.996 79.8157 22.424C79.8157 21.8373 80.021 21.3533 80.4317 20.972C80.857 20.576 81.3997 20.378 82.0597 20.378C82.705 20.378 83.233 20.576 83.6437 20.972C84.069 21.3533 84.2817 21.8373 84.2817 22.424C84.2817 22.996 84.069 23.48 83.6437 23.876C83.233 24.2573 82.705 24.448 82.0597 24.448ZM83.9297 25.724V38H80.1677V25.724H83.9297ZM91.65 38.176C90.5793 38.176 89.626 37.9927 88.79 37.626C87.954 37.2593 87.294 36.7607 86.81 36.13C86.326 35.4847 86.0547 34.766 85.996 33.974H89.714C89.758 34.3993 89.956 34.744 90.308 35.008C90.66 35.272 91.0927 35.404 91.606 35.404C92.0753 35.404 92.4347 35.316 92.684 35.14C92.948 34.9493 93.08 34.7073 93.08 34.414C93.08 34.062 92.8967 33.8053 92.53 33.644C92.1633 33.468 91.5693 33.2773 90.748 33.072C89.868 32.8667 89.1347 32.654 88.548 32.434C87.9613 32.1993 87.4553 31.84 87.03 31.356C86.6047 30.8573 86.392 30.19 86.392 29.354C86.392 28.65 86.5827 28.012 86.964 27.44C87.36 26.8533 87.932 26.3913 88.68 26.054C89.4427 25.7167 90.3447 25.548 91.386 25.548C92.926 25.548 94.136 25.9293 95.016 26.692C95.9107 27.4547 96.424 28.4667 96.556 29.728H93.08C93.0213 29.3027 92.8307 28.9653 92.508 28.716C92.2 28.4667 91.7893 28.342 91.276 28.342C90.836 28.342 90.4987 28.43 90.264 28.606C90.0293 28.7673 89.912 28.9947 89.912 29.288C89.912 29.64 90.0953 29.904 90.462 30.08C90.8433 30.256 91.43 30.432 92.222 30.608C93.1313 30.8427 93.872 31.0773 94.444 31.312C95.016 31.532 95.5147 31.8987 95.94 32.412C96.38 32.9107 96.6073 33.5853 96.622 34.436C96.622 35.1547 96.4167 35.8 96.006 36.372C95.61 36.9293 95.0307 37.3693 94.268 37.692C93.52 38.0147 92.6473 38.176 91.65 38.176ZM105.766 34.81V38H103.852C102.488 38 101.424 37.67 100.662 37.01C99.8989 36.3353 99.5176 35.2427 99.5176 33.732V28.848H98.0216V25.724H99.5176V22.732H103.28V25.724H105.744V28.848H103.28V33.776C103.28 34.1427 103.368 34.4067 103.544 34.568C103.72 34.7293 104.013 34.81 104.424 34.81H105.766ZM112.855 38.176C111.784 38.176 110.831 37.9927 109.995 37.626C109.159 37.2593 108.499 36.7607 108.015 36.13C107.531 35.4847 107.26 34.766 107.201 33.974H110.919C110.963 34.3993 111.161 34.744 111.513 35.008C111.865 35.272 112.298 35.404 112.811 35.404C113.28 35.404 113.64 35.316 113.889 35.14C114.153 34.9493 114.285 34.7073 114.285 34.414C114.285 34.062 114.102 33.8053 113.735 33.644C113.368 33.468 112.774 33.2773 111.953 33.072C111.073 32.8667 110.34 32.654 109.753 32.434C109.166 32.1993 108.66 31.84 108.235 31.356C107.81 30.8573 107.597 30.19 107.597 29.354C107.597 28.65 107.788 28.012 108.169 27.44C108.565 26.8533 109.137 26.3913 109.885 26.054C110.648 25.7167 111.55 25.548 112.591 25.548C114.131 25.548 115.341 25.9293 116.221 26.692C117.116 27.4547 117.629 28.4667 117.761 29.728H114.285C114.226 29.3027 114.036 28.9653 113.713 28.716C113.405 28.4667 112.994 28.342 112.481 28.342C112.041 28.342 111.704 28.43 111.469 28.606C111.234 28.7673 111.117 28.9947 111.117 29.288C111.117 29.64 111.3 29.904 111.667 30.08C112.048 30.256 112.635 30.432 113.427 30.608C114.336 30.8427 115.077 31.0773 115.649 31.312C116.221 31.532 116.72 31.8987 117.145 32.412C117.585 32.9107 117.812 33.5853 117.827 34.436C117.827 35.1547 117.622 35.8 117.211 36.372C116.815 36.9293 116.236 37.3693 115.473 37.692C114.725 38.0147 113.852 38.176 112.855 38.176Z" fill="white"/>
<path d="M96.5 60.5L93 61.5" stroke="white" stroke-linecap="round"/>
<defs>
<linearGradient id="paint0_linear_520_785" x1="81" y1="0" x2="81" y2="77" gradientUnits="userSpaceOnUse">
<stop stop-color="#B73636"/>
<stop offset="1" stop-color="#881F5E"/>
</linearGradient>
</defs>
</svg>
