<svg width="162" height="77" viewBox="0 0 162 77" fill="none" xmlns="http://www.w3.org/2000/svg">
<rect opacity="0.8" width="162" height="77" rx="5" fill="url(#paint0_linear_520_783)"/>
<path d="M26.1889 30.256C26.1889 28.7307 26.5189 27.374 27.1789 26.186C27.8389 24.9833 28.7556 24.052 29.9289 23.392C31.1169 22.7173 32.4589 22.38 33.9549 22.38C35.7882 22.38 37.3576 22.864 38.6629 23.832C39.9682 24.8 40.8409 26.12 41.2809 27.792H37.1449C36.8369 27.1467 36.3969 26.6553 35.8249 26.318C35.2676 25.9807 34.6296 25.812 33.9109 25.812C32.7522 25.812 31.8136 26.2153 31.0949 27.022C30.3762 27.8287 30.0169 28.9067 30.0169 30.256C30.0169 31.6053 30.3762 32.6833 31.0949 33.49C31.8136 34.2967 32.7522 34.7 33.9109 34.7C34.6296 34.7 35.2676 34.5313 35.8249 34.194C36.3969 33.8567 36.8369 33.3653 37.1449 32.72H41.2809C40.8409 34.392 39.9682 35.712 38.6629 36.68C37.3576 37.6333 35.7882 38.11 33.9549 38.11C32.4589 38.11 31.1169 37.78 29.9289 37.12C28.7556 36.4453 27.8389 35.514 27.1789 34.326C26.5189 33.138 26.1889 31.7813 26.1889 30.256ZM49.1727 38.176C47.97 38.176 46.8847 37.9193 45.9167 37.406C44.9634 36.8927 44.208 36.1593 43.6507 35.206C43.108 34.2527 42.8367 33.138 42.8367 31.862C42.8367 30.6007 43.1154 29.4933 43.6727 28.54C44.23 27.572 44.9927 26.8313 45.9607 26.318C46.9287 25.8047 48.014 25.548 49.2167 25.548C50.4194 25.548 51.5047 25.8047 52.4727 26.318C53.4407 26.8313 54.2034 27.572 54.7607 28.54C55.318 29.4933 55.5967 30.6007 55.5967 31.862C55.5967 33.1233 55.3107 34.238 54.7387 35.206C54.1814 36.1593 53.4114 36.8927 52.4287 37.406C51.4607 37.9193 50.3754 38.176 49.1727 38.176ZM49.1727 34.92C49.8914 34.92 50.5 34.656 50.9987 34.128C51.512 33.6 51.7687 32.8447 51.7687 31.862C51.7687 30.8793 51.5194 30.124 51.0207 29.596C50.5367 29.068 49.9354 28.804 49.2167 28.804C48.4834 28.804 47.8747 29.068 47.3907 29.596C46.9067 30.1093 46.6647 30.8647 46.6647 31.862C46.6647 32.8447 46.8994 33.6 47.3687 34.128C47.8527 34.656 48.454 34.92 49.1727 34.92ZM69.7145 25.724V38H65.9525V36.328C65.5712 36.8707 65.0505 37.3107 64.3905 37.648C63.7452 37.9707 63.0265 38.132 62.2345 38.132C61.2958 38.132 60.4672 37.9267 59.7485 37.516C59.0298 37.0907 58.4725 36.482 58.0765 35.69C57.6805 34.898 57.4825 33.9667 57.4825 32.896V25.724H61.2225V32.39C61.2225 33.2113 61.4352 33.8493 61.8605 34.304C62.2858 34.7587 62.8578 34.986 63.5765 34.986C64.3098 34.986 64.8892 34.7587 65.3145 34.304C65.7398 33.8493 65.9525 33.2113 65.9525 32.39V25.724H69.7145ZM79.8967 25.592C81.3341 25.592 82.4781 26.0613 83.3287 27C84.1941 27.924 84.6267 29.2 84.6267 30.828V38H80.8867V31.334C80.8867 30.5127 80.6741 29.8747 80.2487 29.42C79.8234 28.9653 79.2514 28.738 78.5327 28.738C77.8141 28.738 77.2421 28.9653 76.8167 29.42C76.3914 29.8747 76.1787 30.5127 76.1787 31.334V38H72.4167V25.724H76.1787V27.352C76.5601 26.8093 77.0734 26.384 77.7187 26.076C78.3641 25.7533 79.0901 25.592 79.8967 25.592ZM94.083 34.81V38H92.169C90.805 38 89.7416 37.67 88.979 37.01C88.2163 36.3353 87.835 35.2427 87.835 33.732V28.848H86.339V25.724H87.835V22.732H91.597V25.724H94.061V28.848H91.597V33.776C91.597 34.1427 91.685 34.4067 91.861 34.568C92.037 34.7293 92.3303 34.81 92.741 34.81H94.083ZM99.9405 27.77C100.38 27.0953 100.93 26.5673 101.59 26.186C102.25 25.79 102.984 25.592 103.79 25.592V29.574H102.756C101.818 29.574 101.114 29.7793 100.644 30.19C100.175 30.586 99.9405 31.29 99.9405 32.302V38H96.1785V25.724H99.9405V27.77ZM107.481 24.448C106.821 24.448 106.278 24.2573 105.853 23.876C105.442 23.48 105.237 22.996 105.237 22.424C105.237 21.8373 105.442 21.3533 105.853 20.972C106.278 20.576 106.821 20.378 107.481 20.378C108.126 20.378 108.654 20.576 109.065 20.972C109.49 21.3533 109.703 21.8373 109.703 22.424C109.703 22.996 109.49 23.48 109.065 23.876C108.654 24.2573 108.126 24.448 107.481 24.448ZM109.351 25.724V38H105.589V25.724H109.351ZM123.649 31.664C123.649 32.016 123.627 32.3827 123.583 32.764H115.069C115.128 33.5267 115.37 34.1133 115.795 34.524C116.235 34.92 116.77 35.118 117.401 35.118C118.34 35.118 118.992 34.722 119.359 33.93H123.363C123.158 34.7367 122.784 35.4627 122.241 36.108C121.713 36.7533 121.046 37.2593 120.239 37.626C119.432 37.9927 118.53 38.176 117.533 38.176C116.33 38.176 115.26 37.9193 114.321 37.406C113.382 36.8927 112.649 36.1593 112.121 35.206C111.593 34.2527 111.329 33.138 111.329 31.862C111.329 30.586 111.586 29.4713 112.099 28.518C112.627 27.5647 113.36 26.8313 114.299 26.318C115.238 25.8047 116.316 25.548 117.533 25.548C118.721 25.548 119.777 25.7973 120.701 26.296C121.625 26.7947 122.344 27.506 122.857 28.43C123.385 29.354 123.649 30.432 123.649 31.664ZM119.799 30.674C119.799 30.0287 119.579 29.5153 119.139 29.134C118.699 28.7527 118.149 28.562 117.489 28.562C116.858 28.562 116.323 28.7453 115.883 29.112C115.458 29.4787 115.194 29.9993 115.091 30.674H119.799ZM130.628 38.176C129.557 38.176 128.604 37.9927 127.768 37.626C126.932 37.2593 126.272 36.7607 125.788 36.13C125.304 35.4847 125.032 34.766 124.974 33.974H128.692C128.736 34.3993 128.934 34.744 129.286 35.008C129.638 35.272 130.07 35.404 130.584 35.404C131.053 35.404 131.412 35.316 131.662 35.14C131.926 34.9493 132.058 34.7073 132.058 34.414C132.058 34.062 131.874 33.8053 131.508 33.644C131.141 33.468 130.547 33.2773 129.726 33.072C128.846 32.8667 128.112 32.654 127.526 32.434C126.939 32.1993 126.433 31.84 126.008 31.356C125.582 30.8573 125.37 30.19 125.37 29.354C125.37 28.65 125.56 28.012 125.942 27.44C126.338 26.8533 126.91 26.3913 127.658 26.054C128.42 25.7167 129.322 25.548 130.364 25.548C131.904 25.548 133.114 25.9293 133.994 26.692C134.888 27.4547 135.402 28.4667 135.534 29.728H132.058C131.999 29.3027 131.808 28.9653 131.486 28.716C131.178 28.4667 130.767 28.342 130.254 28.342C129.814 28.342 129.476 28.43 129.242 28.606C129.007 28.7673 128.89 28.9947 128.89 29.288C128.89 29.64 129.073 29.904 129.44 30.08C129.821 30.256 130.408 30.432 131.2 30.608C132.109 30.8427 132.85 31.0773 133.422 31.312C133.994 31.532 134.492 31.8987 134.918 32.412C135.358 32.9107 135.585 33.5853 135.6 34.436C135.6 35.1547 135.394 35.8 134.984 36.372C134.588 36.9293 134.008 37.3693 133.246 37.692C132.498 38.0147 131.625 38.176 130.628 38.176Z" fill="white"/>
<path d="M61.0863 55C60.1996 55 59.579 54.7993 59.2243 54.398C58.8696 53.9873 58.669 53.264 58.6223 52.228L58.3703 45.788L59.4343 45.732L59.6863 52.228C59.705 52.9093 59.7983 53.348 59.9663 53.544C60.1343 53.7307 60.5076 53.824 61.0863 53.824H61.2263V55H61.0863ZM68.1071 50.954C68.6578 51.2527 69.0358 51.7007 69.2411 52.298C69.4558 52.8953 69.4324 53.474 69.1711 54.034C68.9098 54.6033 68.4898 54.9953 67.9111 55.21C67.3418 55.4247 66.7771 55.4013 66.2171 55.14L64.5511 54.384C63.7484 54.7947 62.8244 55 61.7791 55H61.0931V53.824H61.7791C62.2084 53.824 62.6424 53.7913 63.0811 53.726C62.5118 53.4367 62.1244 52.9887 61.9191 52.382C61.7231 51.7753 61.7698 51.1733 62.0591 50.576C62.2551 50.1467 62.5584 49.806 62.9691 49.554L62.6751 49.4L63.1651 48.35L68.1071 50.954ZM63.6551 52.718L64.5651 53.152C64.9198 52.9 65.1811 52.578 65.3491 52.186C65.4984 51.8687 65.5124 51.5513 65.3911 51.234C65.2791 50.9073 65.0691 50.6647 64.7611 50.506C64.4344 50.3473 64.1078 50.3193 63.7811 50.422C63.4638 50.5247 63.2258 50.73 63.0671 51.038C62.8991 51.3553 62.8711 51.6773 62.9831 52.004C63.0951 52.3307 63.3191 52.5687 63.6551 52.718ZM68.2331 53.572C68.3731 53.292 68.3871 52.998 68.2751 52.69C68.1631 52.382 67.9484 52.1487 67.6311 51.99L66.5111 51.402C66.5578 51.8407 66.4878 52.2653 66.3011 52.676C66.1518 53.0213 65.9231 53.3433 65.6151 53.642L66.6511 54.132C66.9404 54.272 67.2391 54.2907 67.5471 54.188C67.8644 54.076 68.0931 53.8707 68.2331 53.572ZM69.7966 58.598L69.5166 57.45C70.5806 57.1607 71.2526 56.946 71.5326 56.806C72.1486 56.4887 72.4473 55.9987 72.4286 55.336C72.4193 55.2427 72.4099 55.1447 72.4006 55.042L71.8406 51.024L72.8906 50.856L73.4506 54.902C73.5159 55.378 73.4973 55.8027 73.3946 56.176C73.2919 56.5493 73.1473 56.8527 72.9606 57.086C72.7833 57.3193 72.5033 57.5387 72.1206 57.744C71.7473 57.9493 71.3973 58.1033 71.0706 58.206C70.7533 58.318 70.3286 58.4487 69.7966 58.598ZM81.0804 53.824V55H80.3524C80.3804 55.3453 80.371 55.6533 80.3244 55.924C80.287 56.1947 80.2217 56.4327 80.1284 56.638C80.0444 56.8527 79.8997 57.044 79.6944 57.212C79.489 57.38 79.2744 57.5247 79.0504 57.646C78.8357 57.7673 78.5417 57.884 78.1684 57.996C77.8044 58.1173 77.445 58.22 77.0904 58.304C76.7357 58.388 76.283 58.486 75.7324 58.598L75.5224 57.436C77.221 57.0907 78.2897 56.792 78.7284 56.54C79.1764 56.288 79.3584 55.7887 79.2744 55.042V55H77.4404C76.7684 55 76.2224 54.804 75.8024 54.412C75.3917 54.02 75.1584 53.4787 75.1024 52.788C75.0464 52.032 75.233 51.3553 75.6624 50.758C76.101 50.1513 76.6844 49.834 77.4124 49.806C78.131 49.7687 78.733 50.016 79.2184 50.548C79.713 51.08 80.007 51.7893 80.1004 52.676L80.2264 53.824H81.0804ZM77.4404 53.824H79.1484L79.0364 52.802C78.971 52.214 78.7984 51.7613 78.5184 51.444C78.2384 51.1173 77.8884 50.9633 77.4684 50.982C77.0297 51.0007 76.6937 51.1827 76.4604 51.528C76.227 51.864 76.129 52.256 76.1664 52.704C76.2224 53.4507 76.647 53.824 77.4404 53.824ZM87.2866 47.132L86.5446 47.888L85.7886 47.132L86.5446 46.39L87.2866 47.132ZM86.1946 48.84L85.3266 49.694L84.4586 48.84L85.3266 47.972L86.1946 48.84ZM87.7486 49.694L86.8806 48.84L87.7486 47.972L88.6166 48.84L87.7486 49.694ZM90.4226 52.41C90.5346 52.83 90.754 53.1707 91.0806 53.432C91.4073 53.6933 91.7806 53.824 92.2006 53.824V55C91.3886 55 90.7166 54.6827 90.1846 54.048C89.774 54.6827 89.13 55 88.2526 55C87.534 55 86.96 54.7153 86.5306 54.146C86.12 54.7153 85.5133 55 84.7106 55C84.0013 55 83.446 54.7153 83.0446 54.146C82.6246 54.7153 82.0273 55 81.2526 55H80.9446V53.824H81.2526C82.102 53.824 82.5266 53.446 82.5266 52.69V50.954H83.5206V52.69C83.6513 53.418 84.048 53.796 84.7106 53.824C85.56 53.824 85.9846 53.446 85.9846 52.69V50.954H86.9786V52.69C86.9786 52.7273 86.9786 52.7787 86.9786 52.844C86.988 52.9 87.016 52.9887 87.0626 53.11C87.1093 53.2313 87.17 53.3387 87.2446 53.432C87.3286 53.5253 87.45 53.6093 87.6086 53.684C87.7673 53.7587 87.9586 53.796 88.1826 53.796C88.7146 53.796 89.0786 53.6793 89.2746 53.446C89.48 53.2127 89.536 52.9373 89.4426 52.62L88.9806 50.898L89.9466 50.618L90.4086 52.34C90.4086 52.3493 90.4133 52.3633 90.4226 52.382V52.41ZM93.9499 47.944L96.5399 51.696C96.8479 52.2 96.9879 52.6993 96.9599 53.194C96.9319 53.6887 96.7499 54.0947 96.4139 54.412C96.0499 54.804 95.5599 55 94.9439 55H92.0599V53.824H94.9579C95.1819 53.824 95.3639 53.768 95.5039 53.656C95.7092 53.516 95.8305 53.3293 95.8679 53.096C95.9145 52.8533 95.8725 52.6247 95.7419 52.41L92.6199 48L92.8579 47.104L97.9259 45.242L98.2899 46.348L93.9499 47.944Z" fill="white"/>
<defs>
<linearGradient id="paint0_linear_520_783" x1="81" y1="0" x2="81" y2="77" gradientUnits="userSpaceOnUse">
<stop stop-color="#DF8F50"/>
<stop offset="1" stop-color="#D6B140"/>
</linearGradient>
</defs>
</svg>
