<svg width="162" height="77" viewBox="0 0 162 77" fill="none" xmlns="http://www.w3.org/2000/svg">
<rect opacity="0.8" width="162" height="77" rx="5" fill="url(#paint0_linear_520_782)"/>
<path d="M64.2025 55C63.3158 55 62.6952 54.7993 62.3405 54.398C61.9858 53.9873 61.7852 53.264 61.7385 52.228L61.4865 45.788L62.5505 45.732L62.8025 52.228C62.8212 52.9093 62.9145 53.348 63.0825 53.544C63.2505 53.7307 63.6238 53.824 64.2025 53.824H64.3425V55H64.2025ZM71.2233 50.954C71.774 51.2527 72.152 51.7007 72.3573 52.298C72.572 52.8953 72.5486 53.474 72.2873 54.034C72.026 54.6033 71.606 54.9953 71.0273 55.21C70.458 55.4247 69.8933 55.4013 69.3333 55.14L67.6673 54.384C66.8646 54.7947 65.9406 55 64.8953 55H64.2093V53.824H64.8953C65.3246 53.824 65.7586 53.7913 66.1973 53.726C65.628 53.4367 65.2406 52.9887 65.0353 52.382C64.8393 51.7753 64.886 51.1733 65.1753 50.576C65.3713 50.1467 65.6746 49.806 66.0853 49.554L65.7913 49.4L66.2813 48.35L71.2233 50.954ZM66.7713 52.718L67.6813 53.152C68.036 52.9 68.2973 52.578 68.4653 52.186C68.6146 51.8687 68.6286 51.5513 68.5073 51.234C68.3953 50.9073 68.1853 50.6647 67.8773 50.506C67.5506 50.3473 67.224 50.3193 66.8973 50.422C66.58 50.5247 66.342 50.73 66.1833 51.038C66.0153 51.3553 65.9873 51.6773 66.0993 52.004C66.2113 52.3307 66.4353 52.5687 66.7713 52.718ZM71.3493 53.572C71.4893 53.292 71.5033 52.998 71.3913 52.69C71.2793 52.382 71.0646 52.1487 70.7473 51.99L69.6273 51.402C69.674 51.8407 69.604 52.2653 69.4173 52.676C69.268 53.0213 69.0393 53.3433 68.7313 53.642L69.7673 54.132C70.0566 54.272 70.3553 54.2907 70.6633 54.188C70.9806 54.076 71.2093 53.8707 71.3493 53.572ZM86.5494 53.824H86.7454V55H86.5494C85.7467 55 85.0047 54.6033 84.3234 53.81C84.2207 54.0527 84.0807 54.2533 83.9034 54.412C83.558 54.804 83.068 55 82.4334 55H79.5494C78.0094 55 76.9827 54.9767 76.4694 54.93C75.9654 54.8833 75.5407 54.7807 75.1954 54.622C74.6354 54.3793 74.2527 54.0013 74.0474 53.488C73.8514 52.9653 73.842 52.354 74.0194 51.654L74.5374 49.68L75.5594 49.988L75.0414 52.004C74.9387 52.4147 74.9294 52.7413 75.0134 52.984C75.1067 53.2173 75.3074 53.404 75.6154 53.544C75.7834 53.6093 75.9514 53.6607 76.1194 53.698C76.2874 53.726 76.656 53.754 77.2254 53.782C77.7947 53.81 78.5927 53.824 79.6194 53.824H82.4474C82.662 53.824 82.8487 53.768 83.0074 53.656C83.2127 53.516 83.334 53.3293 83.3714 53.096C83.418 52.8533 83.3714 52.6247 83.2314 52.41L80.1094 48L80.3474 47.104L85.4154 45.242L85.7934 46.348L81.4394 47.944L84.0294 51.696L84.1134 51.822C84.608 52.5873 85.028 53.1147 85.3734 53.404C85.728 53.684 86.12 53.824 86.5494 53.824ZM89.8098 52.662C89.8472 53.082 89.9592 53.3807 90.1458 53.558C90.3325 53.7353 90.6405 53.824 91.0698 53.824V55C90.2858 55 89.6978 54.7713 89.3058 54.314C88.8765 54.7713 88.2698 55 87.4858 55H86.6038V53.824H87.4858C87.9432 53.824 88.2745 53.7353 88.4798 53.558C88.6852 53.3807 88.7738 53.1193 88.7458 52.774V52.732L88.5918 51.01L89.6558 50.912L89.8098 52.634V52.662ZM87.3738 56.974L88.3538 55.994L89.3198 56.974L88.3538 57.94L87.3738 56.974ZM100.682 51.738C100.962 52.7367 100.864 53.53 100.388 54.118C99.9215 54.706 99.2868 55 98.4841 55C97.7748 55 97.2101 54.7433 96.7901 54.23C96.3888 54.7433 95.8055 55 95.0401 55C94.3401 55 93.7755 54.7387 93.3461 54.216C92.9355 54.7387 92.3475 55 91.5821 55H90.9241V53.824H91.5821C92.4221 53.824 92.8421 53.446 92.8421 52.69V50.954H93.8361V52.69V52.774C93.8361 53.0913 93.9388 53.348 94.1441 53.544C94.3588 53.7307 94.6575 53.824 95.0401 53.824C95.8428 53.824 96.2628 53.4833 96.3001 52.802V52.69V50.954H97.2941V52.69V52.802C97.3035 53.1193 97.4108 53.3713 97.6161 53.558C97.8215 53.7353 98.1108 53.824 98.4841 53.824C98.9508 53.824 99.3055 53.6887 99.5481 53.418C99.8001 53.138 99.8375 52.676 99.6601 52.032L99.1001 49.946L100.122 49.652L100.682 51.738Z" fill="white"/>
<path d="M52.9295 27.44C52.6508 26.9267 52.2475 26.538 51.7195 26.274C51.2061 25.9953 50.5975 25.856 49.8935 25.856C48.6761 25.856 47.7008 26.2593 46.9675 27.066C46.2341 27.858 45.8675 28.9213 45.8675 30.256C45.8675 31.6787 46.2488 32.7933 47.0115 33.6C47.7888 34.392 48.8521 34.788 50.2015 34.788C51.1255 34.788 51.9028 34.5533 52.5335 34.084C53.1788 33.6147 53.6481 32.94 53.9415 32.06H49.1675V29.288H57.3515V32.786C57.0728 33.7247 56.5961 34.5973 55.9215 35.404C55.2615 36.2107 54.4181 36.8633 53.3915 37.362C52.3648 37.8607 51.2061 38.11 49.9155 38.11C48.3901 38.11 47.0261 37.78 45.8235 37.12C44.6355 36.4453 43.7041 35.514 43.0295 34.326C42.3695 33.138 42.0395 31.7813 42.0395 30.256C42.0395 28.7307 42.3695 27.374 43.0295 26.186C43.7041 24.9833 44.6355 24.052 45.8235 23.392C47.0115 22.7173 48.3681 22.38 49.8935 22.38C51.7415 22.38 53.2961 22.8273 54.5575 23.722C55.8335 24.6167 56.6768 25.856 57.0875 27.44H52.9295ZM71.0073 31.664C71.0073 32.016 70.9853 32.3827 70.9413 32.764H62.4273C62.486 33.5267 62.728 34.1133 63.1533 34.524C63.5933 34.92 64.1286 35.118 64.7593 35.118C65.698 35.118 66.3506 34.722 66.7173 33.93H70.7213C70.516 34.7367 70.142 35.4627 69.5993 36.108C69.0713 36.7533 68.404 37.2593 67.5973 37.626C66.7906 37.9927 65.8886 38.176 64.8913 38.176C63.6886 38.176 62.618 37.9193 61.6793 37.406C60.7406 36.8927 60.0073 36.1593 59.4793 35.206C58.9513 34.2527 58.6873 33.138 58.6873 31.862C58.6873 30.586 58.944 29.4713 59.4573 28.518C59.9853 27.5647 60.7186 26.8313 61.6573 26.318C62.596 25.8047 63.674 25.548 64.8913 25.548C66.0793 25.548 67.1353 25.7973 68.0593 26.296C68.9833 26.7947 69.702 27.506 70.2153 28.43C70.7433 29.354 71.0073 30.432 71.0073 31.664ZM67.1573 30.674C67.1573 30.0287 66.9373 29.5153 66.4973 29.134C66.0573 28.7527 65.5073 28.562 64.8473 28.562C64.2166 28.562 63.6813 28.7453 63.2413 29.112C62.816 29.4787 62.552 29.9993 62.4493 30.674H67.1573ZM80.4719 25.592C81.9093 25.592 83.0533 26.0613 83.9039 27C84.7693 27.924 85.2019 29.2 85.2019 30.828V38H81.4619V31.334C81.4619 30.5127 81.2493 29.8747 80.8239 29.42C80.3986 28.9653 79.8266 28.738 79.1079 28.738C78.3893 28.738 77.8173 28.9653 77.3919 29.42C76.9666 29.8747 76.7539 30.5127 76.7539 31.334V38H72.9919V25.724H76.7539V27.352C77.1353 26.8093 77.6486 26.384 78.2939 26.076C78.9393 25.7533 79.6653 25.592 80.4719 25.592ZM91.5781 27.77C92.0181 27.0953 92.5681 26.5673 93.2281 26.186C93.8881 25.79 94.6215 25.592 95.4281 25.592V29.574H94.3941C93.4555 29.574 92.7515 29.7793 92.2821 30.19C91.8128 30.586 91.5781 31.29 91.5781 32.302V38H87.8161V25.724H91.5781V27.77ZM108.798 31.664C108.798 32.016 108.776 32.3827 108.732 32.764H100.218C100.277 33.5267 100.519 34.1133 100.944 34.524C101.384 34.92 101.92 35.118 102.55 35.118C103.489 35.118 104.142 34.722 104.508 33.93H108.512C108.307 34.7367 107.933 35.4627 107.39 36.108C106.862 36.7533 106.195 37.2593 105.388 37.626C104.582 37.9927 103.68 38.176 102.682 38.176C101.48 38.176 100.409 37.9193 99.4703 37.406C98.5316 36.8927 97.7983 36.1593 97.2703 35.206C96.7423 34.2527 96.4783 33.138 96.4783 31.862C96.4783 30.586 96.735 29.4713 97.2483 28.518C97.7763 27.5647 98.5096 26.8313 99.4483 26.318C100.387 25.8047 101.465 25.548 102.682 25.548C103.87 25.548 104.926 25.7973 105.85 26.296C106.774 26.7947 107.493 27.506 108.006 28.43C108.534 29.354 108.798 30.432 108.798 31.664ZM104.948 30.674C104.948 30.0287 104.728 29.5153 104.288 29.134C103.848 28.7527 103.298 28.562 102.638 28.562C102.008 28.562 101.472 28.7453 101.032 29.112C100.607 29.4787 100.343 29.9993 100.24 30.674H104.948ZM115.777 38.176C114.706 38.176 113.753 37.9927 112.917 37.626C112.081 37.2593 111.421 36.7607 110.937 36.13C110.453 35.4847 110.182 34.766 110.123 33.974H113.841C113.885 34.3993 114.083 34.744 114.435 35.008C114.787 35.272 115.22 35.404 115.733 35.404C116.202 35.404 116.562 35.316 116.811 35.14C117.075 34.9493 117.207 34.7073 117.207 34.414C117.207 34.062 117.024 33.8053 116.657 33.644C116.29 33.468 115.696 33.2773 114.875 33.072C113.995 32.8667 113.262 32.654 112.675 32.434C112.088 32.1993 111.582 31.84 111.157 31.356C110.732 30.8573 110.519 30.19 110.519 29.354C110.519 28.65 110.71 28.012 111.091 27.44C111.487 26.8533 112.059 26.3913 112.807 26.054C113.57 25.7167 114.472 25.548 115.513 25.548C117.053 25.548 118.263 25.9293 119.143 26.692C120.038 27.4547 120.551 28.4667 120.683 29.728H117.207C117.148 29.3027 116.958 28.9653 116.635 28.716C116.327 28.4667 115.916 28.342 115.403 28.342C114.963 28.342 114.626 28.43 114.391 28.606C114.156 28.7673 114.039 28.9947 114.039 29.288C114.039 29.64 114.222 29.904 114.589 30.08C114.97 30.256 115.557 30.432 116.349 30.608C117.258 30.8427 117.999 31.0773 118.571 31.312C119.143 31.532 119.642 31.8987 120.067 32.412C120.507 32.9107 120.734 33.5853 120.749 34.436C120.749 35.1547 120.544 35.8 120.133 36.372C119.737 36.9293 119.158 37.3693 118.395 37.692C117.647 38.0147 116.774 38.176 115.777 38.176Z" fill="white"/>
<defs>
<linearGradient id="paint0_linear_520_782" x1="81" y1="0" x2="81" y2="77" gradientUnits="userSpaceOnUse">
<stop stop-color="#458498"/>
<stop offset="1" stop-color="#3F5681"/>
</linearGradient>
</defs>
</svg>
