<svg width="162" height="77" viewBox="0 0 162 77" fill="none" xmlns="http://www.w3.org/2000/svg">
<rect opacity="0.8" width="162" height="77" rx="5" fill="url(#paint0_linear_520_784)"/>
<path d="M64.764 55C63.8774 55 63.2567 54.7993 62.902 54.398C62.5474 53.9873 62.3467 53.264 62.3 52.228L62.048 45.788L63.112 45.732L63.364 52.228C63.3827 52.9093 63.476 53.348 63.644 53.544C63.812 53.7307 64.1854 53.824 64.764 53.824H64.904V55H64.764ZM71.7848 50.954C72.3355 51.2527 72.7135 51.7007 72.9188 52.298C73.1335 52.8953 73.1102 53.474 72.8488 54.034C72.5875 54.6033 72.1675 54.9953 71.5888 55.21C71.0195 55.4247 70.4548 55.4013 69.8948 55.14L68.2288 54.384C67.4262 54.7947 66.5022 55 65.4568 55H64.7708V53.824H65.4568C65.8862 53.824 66.3202 53.7913 66.7588 53.726C66.1895 53.4367 65.8022 52.9887 65.5968 52.382C65.4008 51.7753 65.4475 51.1733 65.7368 50.576C65.9328 50.1467 66.2362 49.806 66.6468 49.554L66.3528 49.4L66.8428 48.35L71.7848 50.954ZM67.3328 52.718L68.2428 53.152C68.5975 52.9 68.8588 52.578 69.0268 52.186C69.1762 51.8687 69.1902 51.5513 69.0688 51.234C68.9568 50.9073 68.7468 50.6647 68.4388 50.506C68.1122 50.3473 67.7855 50.3193 67.4588 50.422C67.1415 50.5247 66.9035 50.73 66.7448 51.038C66.5768 51.3553 66.5488 51.6773 66.6608 52.004C66.7728 52.3307 66.9968 52.5687 67.3328 52.718ZM71.9108 53.572C72.0508 53.292 72.0648 52.998 71.9528 52.69C71.8408 52.382 71.6262 52.1487 71.3088 51.99L70.1888 51.402C70.2355 51.8407 70.1655 52.2653 69.9788 52.676C69.8295 53.0213 69.6008 53.3433 69.2928 53.642L70.3288 54.132C70.6182 54.272 70.9168 54.2907 71.2248 54.188C71.5422 54.076 71.7708 53.8707 71.9108 53.572ZM77.0449 55C76.3542 55 75.8035 54.8647 75.3929 54.594C74.9915 54.314 74.7675 53.95 74.7209 53.502L74.6509 52.578H75.6309C75.6309 52.858 75.6495 53.0913 75.6869 53.278C75.7615 53.642 76.1582 53.824 76.8769 53.824H77.8289C78.4635 53.824 78.8835 53.712 79.0889 53.488C79.2942 53.2547 79.3409 52.9467 79.2289 52.564C79.0889 52.1253 78.8369 51.5793 78.4729 50.926C78.1089 50.2727 77.7775 49.7313 77.4789 49.302L77.0309 48.658L77.8849 47.958C78.0342 48.154 78.2209 48.4153 78.4449 48.742C78.6689 49.0593 78.9955 49.6053 79.4249 50.38C79.8635 51.1547 80.1435 51.794 80.2649 52.298C80.4515 53.0633 80.3302 53.7073 79.9009 54.23C79.4809 54.7433 78.7435 55 77.6889 55H77.0449ZM87.9437 53.824V55H87.2157C87.2437 55.3453 87.2343 55.6533 87.1877 55.924C87.1503 56.1947 87.085 56.4327 86.9917 56.638C86.9077 56.8527 86.763 57.044 86.5577 57.212C86.3523 57.38 86.1377 57.5247 85.9137 57.646C85.699 57.7673 85.405 57.884 85.0317 57.996C84.6677 58.1173 84.3083 58.22 83.9537 58.304C83.599 58.388 83.1463 58.486 82.5957 58.598L82.3857 57.436C84.0843 57.0907 85.153 56.792 85.5917 56.54C86.0397 56.288 86.2217 55.7887 86.1377 55.042V55H84.3037C83.6317 55 83.0857 54.804 82.6657 54.412C82.255 54.02 82.0217 53.4787 81.9657 52.788C81.9097 52.032 82.0963 51.3553 82.5257 50.758C82.9643 50.1513 83.5477 49.834 84.2757 49.806C84.9943 49.7687 85.5963 50.016 86.0817 50.548C86.5763 51.08 86.8703 51.7893 86.9637 52.676L87.0897 53.824H87.9437ZM84.3037 53.824H86.0117L85.8997 52.802C85.8343 52.214 85.6617 51.7613 85.3817 51.444C85.1017 51.1173 84.7517 50.9633 84.3317 50.982C83.893 51.0007 83.557 51.1827 83.3237 51.528C83.0903 51.864 82.9923 52.256 83.0297 52.704C83.0857 53.4507 83.5103 53.824 84.3037 53.824ZM93.0719 50.17C93.6879 50.506 94.0659 51.066 94.2059 51.85C94.3459 52.634 94.2106 53.4273 93.7999 54.23C93.6133 54.594 93.3286 54.846 92.9459 54.986C92.5633 55.126 92.1666 55.098 91.7559 54.902L89.9639 53.978C89.4413 54.6593 88.7739 55 87.9619 55H87.8079V53.824H87.9619C88.6059 53.824 89.0633 53.558 89.3339 53.026L90.3699 51.052C90.6406 50.5293 91.0326 50.184 91.5459 50.016C92.0686 49.848 92.5773 49.8993 93.0719 50.17ZM92.9599 53.74C93.2306 53.208 93.3473 52.6993 93.3099 52.214C93.2726 51.7287 93.0673 51.388 92.6939 51.192C92.4046 51.0333 92.1153 51.0147 91.8259 51.136C91.5366 51.248 91.3079 51.472 91.1399 51.808L90.5099 53.012L92.3299 53.936C92.6006 54.0667 92.8106 54.0013 92.9599 53.74Z" fill="white"/>
<path d="M62.1489 22.556V38H58.3869V28.738L54.9329 38H51.8969L48.4209 28.716V38H44.6589V22.556H49.1029L53.4369 33.248L57.7269 22.556H62.1489ZM70.4422 38.176C69.2396 38.176 68.1542 37.9193 67.1862 37.406C66.2329 36.8927 65.4776 36.1593 64.9202 35.206C64.3776 34.2527 64.1062 33.138 64.1062 31.862C64.1062 30.6007 64.3849 29.4933 64.9422 28.54C65.4996 27.572 66.2622 26.8313 67.2302 26.318C68.1982 25.8047 69.2836 25.548 70.4862 25.548C71.6889 25.548 72.7742 25.8047 73.7422 26.318C74.7102 26.8313 75.4729 27.572 76.0302 28.54C76.5876 29.4933 76.8662 30.6007 76.8662 31.862C76.8662 33.1233 76.5802 34.238 76.0082 35.206C75.4509 36.1593 74.6809 36.8927 73.6982 37.406C72.7302 37.9193 71.6449 38.176 70.4422 38.176ZM70.4422 34.92C71.1609 34.92 71.7696 34.656 72.2682 34.128C72.7816 33.6 73.0382 32.8447 73.0382 31.862C73.0382 30.8793 72.7889 30.124 72.2902 29.596C71.8062 29.068 71.2049 28.804 70.4862 28.804C69.7529 28.804 69.1442 29.068 68.6602 29.596C68.1762 30.1093 67.9342 30.8647 67.9342 31.862C67.9342 32.8447 68.1689 33.6 68.6382 34.128C69.1222 34.656 69.7236 34.92 70.4422 34.92ZM84.45 38.176C83.2474 38.176 82.162 37.9193 81.194 37.406C80.2407 36.8927 79.4854 36.1593 78.928 35.206C78.3854 34.2527 78.114 33.138 78.114 31.862C78.114 30.6007 78.3927 29.4933 78.95 28.54C79.5074 27.572 80.27 26.8313 81.238 26.318C82.206 25.8047 83.2914 25.548 84.494 25.548C85.6967 25.548 86.782 25.8047 87.75 26.318C88.718 26.8313 89.4807 27.572 90.038 28.54C90.5954 29.4933 90.874 30.6007 90.874 31.862C90.874 33.1233 90.588 34.238 90.016 35.206C89.4587 36.1593 88.6887 36.8927 87.706 37.406C86.738 37.9193 85.6527 38.176 84.45 38.176ZM84.45 34.92C85.1687 34.92 85.7774 34.656 86.276 34.128C86.7894 33.6 87.046 32.8447 87.046 31.862C87.046 30.8793 86.7967 30.124 86.298 29.596C85.814 29.068 85.2127 28.804 84.494 28.804C83.7607 28.804 83.152 29.068 82.668 29.596C82.184 30.1093 81.942 30.8647 81.942 31.862C81.942 32.8447 82.1767 33.6 82.646 34.128C83.13 34.656 83.7314 34.92 84.45 34.92ZM92.1219 31.84C92.1219 30.5787 92.3565 29.4713 92.8259 28.518C93.3099 27.5647 93.9625 26.8313 94.7839 26.318C95.6052 25.8047 96.5219 25.548 97.5339 25.548C98.3405 25.548 99.0739 25.7167 99.7339 26.054C100.409 26.3913 100.937 26.846 101.318 27.418V21.72H105.08V38H101.318V36.24C100.966 36.8267 100.46 37.296 99.7999 37.648C99.1545 38 98.3992 38.176 97.5339 38.176C96.5219 38.176 95.6052 37.9193 94.7839 37.406C93.9625 36.878 93.3099 36.1373 92.8259 35.184C92.3565 34.216 92.1219 33.1013 92.1219 31.84ZM101.318 31.862C101.318 30.9233 101.054 30.1827 100.526 29.64C100.013 29.0973 99.3819 28.826 98.6339 28.826C97.8859 28.826 97.2479 29.0973 96.7199 29.64C96.2065 30.168 95.9499 30.9013 95.9499 31.84C95.9499 32.7787 96.2065 33.5267 96.7199 34.084C97.2479 34.6267 97.8859 34.898 98.6339 34.898C99.3819 34.898 100.013 34.6267 100.526 34.084C101.054 33.5413 101.318 32.8007 101.318 31.862ZM112.796 38.176C111.725 38.176 110.772 37.9927 109.936 37.626C109.1 37.2593 108.44 36.7607 107.956 36.13C107.472 35.4847 107.2 34.766 107.142 33.974H110.86C110.904 34.3993 111.102 34.744 111.454 35.008C111.806 35.272 112.238 35.404 112.752 35.404C113.221 35.404 113.58 35.316 113.83 35.14C114.094 34.9493 114.226 34.7073 114.226 34.414C114.226 34.062 114.042 33.8053 113.676 33.644C113.309 33.468 112.715 33.2773 111.894 33.072C111.014 32.8667 110.28 32.654 109.694 32.434C109.107 32.1993 108.601 31.84 108.176 31.356C107.75 30.8573 107.538 30.19 107.538 29.354C107.538 28.65 107.728 28.012 108.11 27.44C108.506 26.8533 109.078 26.3913 109.826 26.054C110.588 25.7167 111.49 25.548 112.532 25.548C114.072 25.548 115.282 25.9293 116.162 26.692C117.056 27.4547 117.57 28.4667 117.702 29.728H114.226C114.167 29.3027 113.976 28.9653 113.654 28.716C113.346 28.4667 112.935 28.342 112.422 28.342C111.982 28.342 111.644 28.43 111.41 28.606C111.175 28.7673 111.058 28.9947 111.058 29.288C111.058 29.64 111.241 29.904 111.608 30.08C111.989 30.256 112.576 30.432 113.368 30.608C114.277 30.8427 115.018 31.0773 115.59 31.312C116.162 31.532 116.66 31.8987 117.086 32.412C117.526 32.9107 117.753 33.5853 117.768 34.436C117.768 35.1547 117.562 35.8 117.152 36.372C116.756 36.9293 116.176 37.3693 115.414 37.692C114.666 38.0147 113.793 38.176 112.796 38.176Z" fill="white"/>
<defs>
<linearGradient id="paint0_linear_520_784" x1="81" y1="0" x2="81" y2="77" gradientUnits="userSpaceOnUse">
<stop stop-color="#409B65"/>
<stop offset="1" stop-color="#228976"/>
</linearGradient>
</defs>
</svg>
