<svg width="500" height="239" viewBox="0 0 500 239" fill="none" xmlns="http://www.w3.org/2000/svg">
<path opacity="0.3" d="M0 15.9231C0 7.40016 6.90919 0.490967 15.4321 0.490967H484.568C493.091 0.490967 500 7.40015 500 15.9231V222.713C500 231.236 493.091 238.145 484.568 238.145H15.4321C6.90918 238.145 0 231.236 0 222.713V15.9231Z" fill="black"/>
<path opacity="0.8" d="M0 15.9231C0 7.40016 6.90919 0.490967 15.4321 0.490967H484.568C493.091 0.490967 500 7.40015 500 15.9231V222.713C500 231.236 493.091 238.145 484.568 238.145H15.4321C6.90918 238.145 0 231.236 0 222.713V15.9231Z" fill="url(#paint0_linear_61_37)"/>
<path d="M65.835 115.244L60.156 109.565L65.835 103.824L71.5141 109.565L65.835 115.244ZM69.7857 144.688C66.2466 145.388 63.0573 145.491 60.2178 144.997C57.4194 144.503 55.0531 143.31 53.119 141.417C51.1848 139.565 49.7239 137.302 48.7363 134.627C47.7898 131.952 47.3988 128.804 47.5634 125.182C47.728 121.561 48.5099 117.754 49.9091 113.763L57.3165 116.664C54.8474 123.824 54.6005 129.174 56.5758 132.713C58.5511 136.293 62.3782 137.425 68.0573 136.108C69.0038 135.902 69.7445 135.717 70.2795 135.553C70.8556 135.429 71.5141 135.265 72.2548 135.059C72.9955 134.894 73.5511 134.73 73.9215 134.565C74.333 134.442 74.7857 134.256 75.2795 134.009C75.7733 133.804 76.1437 133.598 76.3906 133.392C76.6375 133.228 76.905 133.001 77.1931 132.713C77.4811 132.425 77.6663 132.137 77.7486 131.849C77.8721 131.561 77.975 131.211 78.0573 130.8C78.1396 130.388 78.1807 129.956 78.1807 129.503C78.1807 129.051 78.1396 128.557 78.0573 128.022L75.5264 111.046L83.2424 109.812C84.6416 119.153 85.4647 124.812 85.7116 126.787C86.082 129.503 86.0202 131.849 85.5264 133.824C85.0326 135.841 84.0449 137.528 82.5634 138.886C81.1231 140.285 79.3741 141.417 77.3165 142.281C75.3001 143.186 72.7898 143.989 69.7857 144.688Z" fill="white"/>
<path d="M93.2087 130.367L91.542 87.7131L99.3815 87.3428L100.986 129.997L93.2087 130.367Z" fill="white"/>
<path d="M140.699 121.355H143.723V130.121H140.699C137.983 130.121 135.74 129.195 133.97 127.343C131.707 129.195 128.764 130.121 125.143 130.121H121.254C118.044 130.121 115.41 129.298 113.353 127.651C111.336 126.005 110.287 123.968 110.205 121.54L110.143 117.528H117.304C117.304 118.639 117.345 119.483 117.427 120.059C117.509 120.923 118.332 121.355 119.896 121.355H126.192C127.592 121.355 128.559 121.129 129.094 120.676C129.629 120.182 129.814 119.524 129.649 118.701L129.464 117.96L124.896 99.8736L132.489 97.7749C134.382 105.141 135.925 111.191 137.118 115.923C137.653 118.104 138.127 119.565 138.538 120.306C138.991 121.005 139.711 121.355 140.699 121.355Z" fill="white"/>
<path d="M157.348 100.121L151.608 105.861L145.929 100.121L151.608 94.4415L157.348 100.121ZM162.78 121.355V130.121C159.571 130.121 156.978 129.298 155.003 127.651C152.904 129.298 150.229 130.121 146.978 130.121H143.089V121.355H146.978C148.583 121.355 149.673 121.149 150.25 120.738C150.826 120.326 151.073 119.627 150.99 118.639V118.516L150.311 110.923L158.089 110.182L158.768 117.775V117.837C158.892 119.236 159.221 120.182 159.756 120.676C160.291 121.129 161.299 121.355 162.78 121.355Z" fill="white"/>
<path d="M186.089 105.491C189.216 107.178 191.15 110.038 191.891 114.071C192.632 118.063 191.973 121.972 189.916 125.8C188.805 127.857 187.22 129.256 185.163 129.997C183.105 130.738 180.986 130.573 178.805 129.503L171.891 125.923C169.463 128.721 166.438 130.121 162.817 130.121H162.138V121.355H162.817C164.957 121.355 166.5 120.553 167.447 118.948L172.015 110.121C173.455 107.405 175.492 105.614 178.126 104.75C180.801 103.845 183.455 104.092 186.089 105.491ZM183.743 122.281C184.813 120.388 185.327 118.577 185.286 116.849C185.286 115.079 184.628 113.824 183.311 113.084C182.241 112.507 181.212 112.466 180.225 112.96C179.237 113.413 178.373 114.359 177.632 115.8L176.089 118.763L183.187 122.343C183.229 122.384 183.29 122.425 183.373 122.466C183.537 122.549 183.64 122.528 183.681 122.405C183.722 122.363 183.743 122.322 183.743 122.281Z" fill="white"/>
<path d="M213.878 121.355H214.187V130.121H213.878C213.178 130.121 212.664 130.1 212.335 130.059C212.499 134.421 211.183 137.734 208.384 139.997C205.586 142.26 201.08 144.236 194.866 145.923L192.829 137.466C197.932 136.067 201.1 134.977 202.335 134.195C203.981 133.166 204.701 131.499 204.495 129.195C204.495 129.071 204.475 128.927 204.434 128.763L201.964 111.046L209.681 109.874L210.483 115.8C210.895 118.228 211.306 119.771 211.718 120.429C212.17 121.046 212.89 121.355 213.878 121.355Z" fill="white"/>
<path d="M227.818 100.121L222.077 105.861L216.398 100.121L222.077 94.4415L227.818 100.121ZM233.25 121.355V130.121C230.04 130.121 227.447 129.298 225.472 127.651C223.373 129.298 220.698 130.121 217.447 130.121H213.558V121.355H217.447C219.052 121.355 220.143 121.149 220.719 120.738C221.295 120.326 221.542 119.627 221.46 118.639V118.516L220.781 110.923L228.558 110.182L229.237 117.775V117.837C229.361 119.236 229.69 120.182 230.225 120.676C230.76 121.129 231.768 121.355 233.25 121.355Z" fill="white"/>
<path d="M264.953 108.948C267.751 110.388 269.686 112.693 270.755 115.861C271.825 118.989 271.681 121.993 270.323 124.874C268.883 127.837 266.743 129.853 263.904 130.923C261.064 132.034 258.183 131.931 255.262 130.614L248.595 127.528C244.932 129.256 240.858 130.121 236.373 130.121H232.607V121.355H236.373H237.793C236.27 119.544 235.344 117.446 235.015 115.059C234.727 112.672 235.118 110.326 236.188 108.022C237.216 105.841 238.698 104.133 240.632 102.898L243.163 97.4662L264.953 108.948ZM245.323 116.664L248.657 118.33C249.48 117.507 250.138 116.499 250.632 115.306C251.085 114.359 251.126 113.392 250.755 112.405C250.426 111.417 249.788 110.676 248.842 110.182C247.731 109.606 246.681 109.462 245.694 109.75C244.747 109.997 244.048 110.573 243.595 111.479C243.06 112.425 242.937 113.392 243.225 114.38C243.554 115.367 244.253 116.129 245.323 116.664ZM263.41 121.54C263.862 120.717 263.904 119.832 263.533 118.886C263.204 117.898 262.525 117.137 261.496 116.602L258.718 115.182C258.513 116.623 258.163 117.857 257.669 118.886C257.258 119.791 256.661 120.8 255.879 121.911L258.41 123.145C259.315 123.598 260.262 123.68 261.249 123.392C262.278 123.063 262.998 122.446 263.41 121.54Z" fill="white"/>
<path d="M315.355 109.627L309.676 115.306L303.935 109.627L309.676 103.886L315.355 109.627ZM331.774 121.355H333.503V130.121H332.021C331.322 130.121 330.56 130.018 329.737 129.812C329.779 134.009 328.462 137.219 325.787 139.442C323.153 141.664 319.079 143.413 313.565 144.688C310.026 145.388 306.836 145.491 303.997 144.997C301.198 144.503 298.832 143.31 296.898 141.417C294.964 139.565 293.503 137.302 292.515 134.627C291.569 131.952 291.178 128.804 291.342 125.182C291.507 121.561 292.289 117.754 293.688 113.763L301.095 116.664C298.626 123.824 298.379 129.174 300.355 132.713C302.33 136.293 306.157 137.425 311.836 136.108C312.783 135.902 313.523 135.717 314.058 135.553C314.635 135.429 315.293 135.265 316.034 135.059C316.774 134.894 317.33 134.73 317.7 134.565C318.112 134.442 318.565 134.256 319.058 134.009C319.552 133.804 319.923 133.598 320.17 133.392C320.416 133.228 320.684 133.001 320.972 132.713C321.26 132.425 321.445 132.137 321.528 131.849C321.651 131.561 321.754 131.211 321.836 130.8C321.919 130.388 321.96 129.956 321.96 129.503C321.96 129.051 321.919 128.557 321.836 128.022L319.305 111.046L327.021 109.812L327.7 114.38C328.194 117.302 328.709 119.195 329.244 120.059C329.779 120.923 330.622 121.355 331.774 121.355Z" fill="white"/>
<path d="M357.053 113.948C358.329 118.68 357.732 122.569 355.263 125.614C352.835 128.618 349.296 130.121 344.646 130.121H332.856V121.355H344.646C346.827 121.355 348.308 120.944 349.09 120.121C349.872 119.298 349.975 117.837 349.399 115.738L346.991 106.54L354.522 104.318L357.053 113.948ZM333.103 139.256L338.164 134.195L343.226 139.256L338.164 144.256L333.103 139.256ZM345.448 139.256L350.51 134.195L355.572 139.256L350.51 144.256L345.448 139.256Z" fill="white"/>
<path d="M381.823 121.355H382.131V130.121H381.823C381.123 130.121 380.609 130.1 380.279 130.059C380.444 134.421 379.127 137.734 376.329 139.997C373.531 142.26 369.024 144.236 362.81 145.923L360.773 137.466C365.876 136.067 369.045 134.977 370.28 134.195C371.926 133.166 372.646 131.499 372.44 129.195C372.44 129.071 372.419 128.927 372.378 128.763L369.909 111.046L377.625 109.874L378.428 115.8C378.839 118.228 379.251 119.771 379.662 120.429C380.115 121.046 380.835 121.355 381.823 121.355Z" fill="white"/>
<path d="M393.478 100.182L388.417 105.244L383.355 100.182L388.417 95.1206L393.478 100.182ZM405.824 100.182L400.762 105.244L395.701 100.182L400.762 95.1206L405.824 100.182ZM408.17 121.355V130.121C404.96 130.121 402.367 129.298 400.392 127.651C398.293 129.298 395.618 130.121 392.367 130.121H381.503V121.355H392.367C393.972 121.355 395.063 121.149 395.639 120.738C396.215 120.326 396.462 119.627 396.38 118.639V118.516L395.701 110.923L403.478 110.182L404.157 117.775V118.145C404.322 119.462 404.651 120.326 405.145 120.738C405.68 121.149 406.688 121.355 408.17 121.355Z" fill="white"/>
<path d="M435.014 121.355H438.347V130.121H435.014C434.191 130.121 433.512 130.347 432.977 130.8C432.442 131.293 432.174 131.87 432.174 132.528V140.985L428.285 144.874C424.294 144.956 420.755 143.618 417.668 140.861C414.623 138.104 412.689 134.524 411.866 130.121H407.545V121.355H412.236C412.771 119.339 413.512 116.808 414.458 113.763C415.446 110.717 416.289 108.186 416.989 106.17L418.1 103.084L422.792 100.676L427.298 101.972C430.343 102.837 432.503 105.1 433.779 108.763C435.055 112.384 434.952 115.758 433.471 118.886C432.977 119.956 432.38 120.964 431.68 121.911C432.668 121.54 433.779 121.355 435.014 121.355ZM423.841 110.059C422.442 113.886 421.289 117.363 420.384 120.491C423.717 119.627 425.857 117.939 426.804 115.429C427.215 114.442 427.236 113.413 426.866 112.343C426.495 111.273 425.919 110.635 425.137 110.429L423.841 110.059ZM424.643 136.417V132.528C424.643 130.47 425.137 128.516 426.125 126.664C423.985 127.857 421.783 128.721 419.52 129.256C420.22 132.919 421.927 135.306 424.643 136.417Z" fill="white"/>
<path d="M437.746 130.121V121.355H442.622C444.844 121.355 446.347 120.964 447.128 120.182C447.91 119.359 448.013 117.878 447.437 115.738L444.968 106.54L452.499 104.318L454.968 113.516C456.285 118.413 455.729 122.405 453.301 125.491C450.873 128.577 447.314 130.121 442.622 130.121H437.746ZM442.252 144.935L436.573 139.195L442.252 133.516L447.993 139.195L442.252 144.935Z" fill="white"/>
<path fill-rule="evenodd" clip-rule="evenodd" d="M324.776 151.164C325.086 152.404 324.332 153.661 323.092 153.971L304.574 158.601C303.333 158.911 302.077 158.157 301.766 156.917C301.456 155.676 302.21 154.42 303.451 154.109L321.969 149.48C323.209 149.17 324.466 149.924 324.776 151.164Z" fill="white"/>
<defs>
<linearGradient id="paint0_linear_61_37" x1="250" y1="0.490967" x2="250" y2="238.145" gradientUnits="userSpaceOnUse">
<stop stop-color="#B73636"/>
<stop offset="1" stop-color="#881F5E"/>
</linearGradient>
</defs>
</svg>
