<svg width="501" height="239" viewBox="0 0 501 239" fill="none" xmlns="http://www.w3.org/2000/svg">
<path opacity="0.3" d="M0.0385742 16.0732C0.0385742 7.55031 6.94776 0.641113 15.4707 0.641113H484.606C493.129 0.641113 500.039 7.5503 500.039 16.0732V222.863C500.039 231.386 493.129 238.295 484.606 238.295H15.4707C6.94775 238.295 0.0385742 231.386 0.0385742 222.863V16.0732Z" fill="black"/>
<path opacity="0.8" d="M0.0385742 16.0732C0.0385742 7.55031 6.94776 0.641113 15.4707 0.641113H484.606C493.129 0.641113 500.039 7.5503 500.039 16.0732V222.863C500.039 231.386 493.129 238.295 484.606 238.295H15.4707C6.94775 238.295 0.0385742 231.386 0.0385742 222.863V16.0732Z" fill="url(#paint0_linear_61_22)"/>
<path d="M225.073 123.715V133.357C223.534 133.357 222.448 133.335 221.814 133.289C221.995 137.59 220.659 140.985 217.808 143.474C215.001 145.964 210.474 147.933 204.227 149.382C200.334 150.151 196.826 150.265 193.703 149.721C190.624 149.178 188.022 147.865 185.894 145.783C183.766 143.746 182.159 141.256 181.073 138.314C180.032 135.372 179.602 131.909 179.783 127.925C179.964 123.942 180.824 119.754 182.363 115.363L190.511 118.555C187.795 126.431 187.524 132.316 189.696 136.209C191.869 140.147 196.079 141.392 202.326 139.944C206.989 138.857 210.022 137.884 211.425 137.024C212.873 136.164 213.462 134.715 213.19 132.678C213.145 132.135 212.308 131.546 210.678 130.913L203.888 128.74L206.468 119.573C213.077 121.384 217.378 122.538 219.369 123.036C221.406 123.489 223.308 123.715 225.073 123.715Z" fill="white"/>
<path d="M243.331 123.715H244.689V133.357H243.331C239.981 133.357 237.175 132.339 234.911 130.302C232.603 132.339 229.615 133.357 225.948 133.357H224.251V123.715H225.948C227.714 123.715 228.891 123.421 229.479 122.833C230.113 122.244 230.407 121.407 230.362 120.32L229.072 86.709L237.627 86.3016L238.917 119.505C238.963 121.09 239.347 122.199 240.072 122.833C240.841 123.421 241.928 123.715 243.331 123.715Z" fill="white"/>
<path d="M286.724 123.715H291.07V133.357H286.724C284.506 133.357 282.424 132.791 280.477 131.66C278.576 130.483 277.082 128.921 275.996 126.974L265.403 130.234C258.568 132.316 251.551 133.357 244.354 133.357H244.014V123.715H244.422C250.216 123.625 256.395 122.719 262.959 120.999L275.996 117.604L264.724 112.512C263.049 111.651 261.397 111.47 259.767 111.968C258.183 112.466 256.916 113.507 255.965 115.092L254.743 117.265L247.274 112.579L248.632 110.135C250.985 106.197 254.018 103.707 257.73 102.666C261.488 101.579 265.222 102.055 268.934 104.092L286.317 113.326L285.095 123.444C285.728 123.625 286.271 123.715 286.724 123.715Z" fill="white"/>
<path d="M316.711 106.265C320.151 108.121 322.278 111.267 323.093 115.703C323.908 120.094 323.184 124.394 320.92 128.604C319.698 130.867 317.955 132.407 315.692 133.221C313.429 134.036 311.097 133.855 308.698 132.678L301.093 128.74C298.422 131.818 295.095 133.357 291.112 133.357H290.365V123.715H291.112C293.466 123.715 295.163 122.833 296.204 121.067L301.229 111.357C302.813 108.37 305.054 106.4 307.951 105.45C310.894 104.454 313.813 104.726 316.711 106.265ZM314.13 124.734C315.307 122.651 315.873 120.66 315.828 118.758C315.828 116.812 315.104 115.431 313.655 114.616C312.478 113.983 311.346 113.937 310.26 114.481C309.173 114.979 308.223 116.02 307.408 117.604L305.711 120.863L313.519 124.802C313.564 124.847 313.632 124.892 313.723 124.937C313.904 125.028 314.017 125.005 314.062 124.87C314.108 124.824 314.13 124.779 314.13 124.734Z" fill="white"/>
<defs>
<linearGradient id="paint0_linear_61_22" x1="250.039" y1="0.641113" x2="250.039" y2="238.295" gradientUnits="userSpaceOnUse">
<stop stop-color="#DF8F50"/>
<stop offset="1" stop-color="#D6B140"/>
</linearGradient>
</defs>
</svg>
