<svg width="500" height="239" viewBox="0 0 500 239" fill="none" xmlns="http://www.w3.org/2000/svg">
<path opacity="0.3" d="M0 16.0732C0 7.55031 6.90919 0.641113 15.4321 0.641113H484.568C493.091 0.641113 500 7.5503 500 16.0732V222.863C500 231.386 493.091 238.295 484.568 238.295H15.4321C6.90918 238.295 0 231.386 0 222.863V16.0732Z" fill="black"/>
<path opacity="0.8" d="M0 16.0732C0 7.55031 6.90919 0.641113 15.4321 0.641113H484.568C493.091 0.641113 500 7.5503 500 16.0732V222.863C500 231.386 493.091 238.295 484.568 238.295H15.4321C6.90918 238.295 0 231.386 0 222.863V16.0732Z" fill="url(#paint0_linear_61_27)"/>
<path d="M167.408 133.357C162.609 133.357 159.192 132.203 157.155 129.894C155.118 127.586 153.986 123.602 153.76 117.944L152.537 86.709L161.093 86.3016L162.315 117.944C162.36 120.614 162.632 122.244 163.13 122.832C163.673 123.421 165.099 123.715 167.408 123.715H168.087V133.357H167.408Z" fill="white"/>
<path d="M203.002 110.067C206.08 111.651 208.208 114.186 209.384 117.672C210.561 121.112 210.403 124.417 208.909 127.586C207.325 130.845 204.971 133.063 201.847 134.24C198.724 135.462 195.555 135.349 192.341 133.9L185.008 130.505C180.979 132.407 176.498 133.357 171.563 133.357H167.422V123.715H171.563H173.125C171.45 121.723 170.432 119.415 170.07 116.789C169.753 114.164 170.183 111.583 171.36 109.048C172.491 106.649 174.121 104.771 176.249 103.413L179.033 97.4374L203.002 110.067ZM181.409 118.555L185.076 120.388C185.981 119.483 186.705 118.374 187.249 117.061C187.747 116.02 187.792 114.956 187.384 113.869C187.022 112.783 186.321 111.968 185.28 111.425C184.057 110.791 182.903 110.633 181.817 110.95C180.775 111.221 180.006 111.855 179.508 112.851C178.919 113.892 178.784 114.956 179.101 116.042C179.463 117.129 180.232 117.966 181.409 118.555ZM201.304 123.919C201.802 123.014 201.847 122.04 201.44 120.999C201.078 119.913 200.331 119.075 199.199 118.487L196.144 116.925C195.917 118.509 195.533 119.867 194.989 120.999C194.537 121.995 193.88 123.104 193.02 124.326L195.804 125.684C196.8 126.182 197.841 126.273 198.928 125.956C200.059 125.594 200.852 124.915 201.304 123.919Z" fill="white"/>
<path d="M280.601 123.715H281.552V133.357H280.601C276.935 133.357 273.585 131.909 270.552 129.011L270.348 129.283C268.311 131.999 265.142 133.357 260.842 133.357H246.107C238.729 133.357 233.727 133.244 231.101 133.018C228.521 132.791 226.258 132.248 224.311 131.388C221.233 130.03 219.105 127.88 217.928 124.937C216.751 121.995 216.638 118.668 217.589 114.956L220.169 105.042L228.453 107.555L225.805 117.808C225.443 119.166 225.397 120.184 225.669 120.863C225.941 121.497 226.62 122.063 227.706 122.561C228.702 122.968 230.354 123.262 232.663 123.444C234.972 123.625 239.566 123.715 246.447 123.715H260.978C261.883 123.715 262.517 123.557 262.879 123.24C264.011 122.335 264.101 121.18 263.151 119.777L248.212 98.5917L250.114 91.3263L274.694 82.2954L277.681 91.2584L258.941 98.1843L269.669 114.005C269.895 114.322 270.19 114.797 270.552 115.431C272.498 118.69 274.173 120.886 275.577 122.018C276.98 123.149 278.655 123.715 280.601 123.715Z" fill="white"/>
<path d="M298.124 119.845C298.26 121.384 298.622 122.425 299.211 122.968C299.799 123.466 300.908 123.715 302.538 123.715V133.357C299.007 133.357 296.155 132.452 293.983 130.641C291.674 132.452 288.731 133.357 285.155 133.357H280.878V123.715H285.155C286.921 123.715 288.12 123.489 288.754 123.036C289.388 122.583 289.659 121.814 289.569 120.728V120.592L288.822 112.24L297.378 111.425L298.124 119.777V119.845ZM284.205 143.271L290.52 137.024L296.766 143.271L290.52 149.586L284.205 143.271Z" fill="white"/>
<path d="M350.313 115.092C351.762 120.297 351.241 124.643 348.751 128.129C346.307 131.614 342.731 133.357 338.023 133.357C334.809 133.357 332.093 132.316 329.875 130.234C327.702 132.316 324.918 133.357 321.523 133.357C318.354 133.357 315.683 132.271 313.51 130.098C311.247 132.271 308.418 133.357 305.023 133.357H301.831V123.715H305.023C306.788 123.715 307.965 123.421 308.554 122.832C309.142 122.244 309.436 121.407 309.436 120.32V120.184V111.765H317.449V120.184C317.449 122.538 318.807 123.715 321.523 123.715C323.288 123.715 324.465 123.444 325.054 122.9C325.642 122.312 325.936 121.452 325.936 120.32V120.184V111.765H334.017V120.184V120.456C334.017 122.629 335.352 123.715 338.023 123.715C339.924 123.715 341.237 123.262 341.961 122.357C342.685 121.452 342.731 119.845 342.097 117.536L339.381 107.419L347.597 104.974L350.313 115.092Z" fill="white"/>
<defs>
<linearGradient id="paint0_linear_61_27" x1="250" y1="0.641113" x2="250" y2="238.295" gradientUnits="userSpaceOnUse">
<stop stop-color="#458498"/>
<stop offset="1" stop-color="#3F5681"/>
</linearGradient>
</defs>
</svg>
