<svg width="501" height="239" viewBox="0 0 501 239" fill="none" xmlns="http://www.w3.org/2000/svg">
<path opacity="0.3" d="M0.0385742 15.9231C0.0385742 7.40016 6.94776 0.490967 15.4707 0.490967H484.606C493.129 0.490967 500.039 7.40015 500.039 15.9231V222.713C500.039 231.236 493.129 238.145 484.606 238.145H15.4707C6.94775 238.145 0.0385742 231.236 0.0385742 222.713V15.9231Z" fill="black"/>
<path opacity="0.8" d="M0.0385742 15.9231C0.0385742 7.40016 6.94776 0.490967 15.4707 0.490967H484.606C493.129 0.490967 500.039 7.40015 500.039 15.9231V222.713C500.039 231.236 493.129 238.145 484.606 238.145H15.4707C6.94775 238.145 0.0385742 231.236 0.0385742 222.713V15.9231Z" fill="url(#paint0_linear_61_32)"/>
<path d="M180.042 133.207C175.244 133.207 171.826 132.053 169.789 129.744C167.752 127.435 166.62 123.452 166.394 117.793L165.172 86.5588L173.727 86.1514L174.95 117.793C174.995 120.464 175.267 122.094 175.764 122.682C176.308 123.271 177.734 123.565 180.042 123.565H180.721V133.207H180.042Z" fill="white"/>
<path d="M215.636 109.917C218.714 111.501 220.842 114.036 222.019 117.522C223.196 120.962 223.038 124.267 221.544 127.435C219.959 130.695 217.605 132.913 214.482 134.09C211.359 135.312 208.19 135.199 204.976 133.75L197.642 130.355C193.614 132.256 189.132 133.207 184.198 133.207H180.056V123.565H184.198H185.76C184.085 121.573 183.066 119.265 182.704 116.639C182.387 114.014 182.817 111.433 183.994 108.898C185.126 106.499 186.756 104.621 188.883 103.262L191.667 97.2872L215.636 109.917ZM194.044 118.404L197.71 120.238C198.616 119.332 199.34 118.223 199.883 116.911C200.381 115.869 200.426 114.806 200.019 113.719C199.657 112.633 198.955 111.818 197.914 111.275C196.692 110.641 195.538 110.483 194.451 110.8C193.41 111.071 192.64 111.705 192.142 112.701C191.554 113.742 191.418 114.806 191.735 115.892C192.097 116.979 192.867 117.816 194.044 118.404ZM213.939 123.769C214.437 122.863 214.482 121.89 214.075 120.849C213.712 119.762 212.966 118.925 211.834 118.337L208.778 116.775C208.552 118.359 208.167 119.717 207.624 120.849C207.171 121.845 206.515 122.954 205.655 124.176L208.439 125.534C209.435 126.032 210.476 126.123 211.562 125.806C212.694 125.444 213.486 124.765 213.939 123.769Z" fill="white"/>
<path d="M242.174 133.207C238.643 133.207 235.746 132.302 233.483 130.491C231.265 128.68 230.11 126.439 230.02 123.769L229.952 119.355H237.828C237.828 120.577 237.874 121.505 237.964 122.139C238.055 123.09 238.96 123.565 240.68 123.565H248.421C251.635 123.565 252.834 122.32 252.02 119.83C251.295 117.793 250.051 115.281 248.285 112.293C246.565 109.26 245.026 106.725 243.668 104.688L241.563 101.701L248.557 95.997C249.281 96.9477 250.186 98.2152 251.273 99.7995C252.404 101.384 254.034 104.1 256.162 107.948C258.289 111.795 259.67 115.009 260.304 117.59C261.39 121.981 260.756 125.693 258.402 128.725C256.048 131.713 252.337 133.207 247.267 133.207H242.174Z" fill="white"/>
<path d="M299.995 123.565V133.207H297.007C297.053 135.923 296.668 138.186 295.853 139.997C295.038 141.808 293.567 143.369 291.44 144.682C289.357 145.995 286.958 147.059 284.242 147.874C281.526 148.734 277.837 149.639 273.174 150.59L271.477 141.219C278.9 139.68 283.586 138.481 285.532 137.621C287.479 136.76 288.429 135.289 288.384 133.207H281.119C277.407 133.207 274.374 132.098 272.02 129.88C269.711 127.616 268.398 124.561 268.082 120.713C267.719 116.413 268.761 112.61 271.205 109.306C273.695 106.001 276.931 104.258 280.915 104.077C284.898 103.896 288.226 105.277 290.896 108.219C293.612 111.116 295.219 114.964 295.717 119.762L296.125 123.565H299.995ZM276.637 119.966C276.728 121.234 277.112 122.162 277.791 122.75C278.47 123.293 279.579 123.565 281.119 123.565H287.433L287.162 120.781C286.89 118.427 286.234 116.639 285.193 115.417C284.197 114.195 282.907 113.629 281.322 113.719C279.783 113.765 278.584 114.398 277.723 115.621C276.863 116.797 276.501 118.246 276.637 119.966Z" fill="white"/>
<path d="M325.693 106.114C329.133 107.97 331.261 111.116 332.076 115.553C332.891 119.944 332.166 124.244 329.903 128.454C328.681 130.717 326.938 132.256 324.675 133.071C322.411 133.886 320.08 133.705 317.681 132.528L310.076 128.59C307.405 131.668 304.078 133.207 300.094 133.207H299.347V123.565H300.094C302.448 123.565 304.146 122.682 305.187 120.917L310.212 111.207C311.796 108.219 314.037 106.25 316.934 105.3C319.876 104.304 322.796 104.575 325.693 106.114ZM323.113 124.583C324.29 122.501 324.856 120.509 324.81 118.608C324.81 116.662 324.086 115.281 322.637 114.466C321.461 113.832 320.329 113.787 319.242 114.33C318.156 114.828 317.205 115.869 316.391 117.454L314.693 120.713L322.502 124.651C322.547 124.697 322.615 124.742 322.705 124.787C322.886 124.878 323 124.855 323.045 124.719C323.09 124.674 323.113 124.629 323.113 124.583Z" fill="white"/>
<defs>
<linearGradient id="paint0_linear_61_32" x1="250.039" y1="0.490967" x2="250.039" y2="238.145" gradientUnits="userSpaceOnUse">
<stop stop-color="#409B65"/>
<stop offset="1" stop-color="#228976"/>
</linearGradient>
</defs>
</svg>
