<svg width="191" height="191" viewBox="0 0 191 191" fill="none" xmlns="http://www.w3.org/2000/svg">
<g filter="url(#filter0_d_33_12)">
<circle cx="95.5" cy="95.5" r="75.5" fill="#F2C94C"/>
</g>
<path d="M113.974 57.5485C114.146 57.5485 114.261 57.4339 114.261 57.2619V44.882L113.86 45.1112C113.802 45.1112 110.822 46.716 107.842 46.6014C107.67 46.6014 107.555 46.716 107.555 46.888C107.555 47.0599 107.67 47.1745 107.842 47.1745C110.306 47.2892 112.771 46.2575 113.688 45.8563V57.2619C113.688 57.4339 113.802 57.5485 113.974 57.5485Z" fill="#739DF3"/>
<path d="M113.688 57.2046C113.688 58.4655 114.777 59.4972 116.095 59.4972C117.413 59.4972 118.502 58.4655 118.502 57.2046C118.502 55.9437 117.413 54.912 116.095 54.912C114.777 54.912 113.688 55.9437 113.688 57.2046Z" fill="#739DF3"/>
<path d="M41.0696 79.1562C41.1842 79.2135 41.2989 79.1561 41.3562 79.0415L44.1073 70.2724L43.7634 70.3297C43.7634 70.3297 41.2415 70.7882 39.1782 70.0431C39.0636 69.9858 38.9489 70.0431 38.8916 70.1577C38.8343 70.2724 38.8916 70.387 39.0063 70.4443C40.7257 71.0748 42.6744 70.9028 43.4768 70.7882L40.8976 78.9269C40.8976 78.9842 40.955 79.0988 41.0696 79.1562Z" fill="#739DF3"/>
<path d="M40.9551 78.8122C40.6685 79.7293 41.1843 80.6463 42.1587 80.9902C43.0757 81.2768 44.1074 80.8183 44.3939 79.9012C44.6805 78.9842 44.1647 78.0672 43.1903 77.7233C42.216 77.4367 41.1843 77.9525 40.9551 78.8122Z" fill="#739DF3"/>
<path d="M79.9292 39.1505C80.1012 39.1505 80.2158 39.0358 80.2158 38.8639V26.9998L88.1825 25.3376V37.0871C88.1825 37.2591 88.2972 37.3737 88.4691 37.3737C88.6411 37.3737 88.7557 37.2591 88.7557 37.0871V24.5925L79.5853 26.5412V38.8639C79.5853 39.0358 79.7573 39.1505 79.9292 39.1505Z" fill="#739DF3"/>
<path d="M88.3709 27.5199L79.8154 29.6895L79.9563 30.245L88.5118 28.0755L88.3709 27.5199Z" fill="#739DF3"/>
<path d="M79.5852 39.1505C79.5852 40.4114 80.7315 41.4431 82.107 41.4431C83.4826 41.4431 84.6289 40.4114 84.6289 39.1505C84.6289 37.8896 83.4826 36.8579 82.107 36.8579C80.7315 36.8579 79.5852 37.8896 79.5852 39.1505Z" fill="#739DF3"/>
<path d="M88.1825 37.1445C88.1825 38.4054 89.3288 39.4371 90.7043 39.4371C92.0799 39.4371 93.2262 38.4054 93.2262 37.1445C93.2262 35.8836 92.0799 34.8519 90.7043 34.8519C89.3288 34.7946 88.1825 35.8262 88.1825 37.1445Z" fill="#739DF3"/>
<path d="M57.4617 67.464C57.4617 68.8395 58.6653 69.9858 60.1555 69.9858C61.6457 69.9858 62.8493 68.8395 62.8493 67.464C62.8493 66.0884 61.6457 64.9421 60.1555 64.9421C59.3531 64.9421 58.608 65.286 58.0921 65.8591V57.7778L66.7467 55.5998V65.1714C66.7467 65.1714 66.7467 65.1714 66.7467 65.2287C66.7467 66.6042 67.9503 67.7505 69.4405 67.7505C70.9306 67.7505 72.1342 66.6042 72.1342 65.2287C72.1342 63.8531 70.9306 62.7068 69.4405 62.7068C68.5807 62.7068 67.8356 63.0507 67.3771 63.6239V51.7024L57.4617 53.8231V67.1774V67.2347C57.519 67.292 57.4617 67.3493 57.4617 67.464Z" fill="#739DF3"/>
<path d="M69.2686 99.159C69.3832 99.1017 69.4979 99.159 69.5552 99.2736L72.7075 106.954L78.3244 105.922L75.172 98.2993C75.1147 98.1847 75.172 98.07 75.2867 98.0127C75.4013 97.9554 75.5159 98.0127 75.5732 98.1274L78.8975 106.209L72.4209 107.412L69.0967 99.4456C69.0967 99.331 69.154 99.2163 69.2686 99.159Z" fill="#739DF3"/>
<path d="M71.6757 104.89L77.8083 104.031L77.8656 104.432L71.733 105.292L71.6757 104.89Z" fill="#739DF3"/>
<path d="M69.0393 99.2736C68.6954 98.4712 69.1539 97.4969 70.0136 97.0957C70.9307 96.7518 71.905 97.0957 72.2489 97.8981C72.5928 98.7005 72.1343 99.6748 71.2745 100.076C70.4148 100.477 69.3832 100.076 69.0393 99.2736Z" fill="#739DF3"/>
<path d="M75.172 98.2993C74.8281 97.4969 75.2866 96.5225 76.1463 96.1213C77.0633 95.7774 78.0377 96.1213 78.3816 96.9237C78.7255 97.7261 78.267 98.7005 77.4072 99.1017C76.4902 99.5029 75.5159 99.1017 75.172 98.2993Z" fill="#739DF3"/>
<path d="M129.334 66.0311V75.7746L136.556 77.3221V68.6103C136.9 69.0115 137.473 69.298 138.046 69.298C139.135 69.298 139.995 68.4956 139.995 67.464C139.995 66.4323 139.135 65.6299 138.046 65.6299C136.957 65.6299 136.098 66.4323 136.098 67.464V74.399L129.85 72.7942V66.9481C130.194 67.3493 130.767 67.5786 131.34 67.5786C132.429 67.5786 133.289 66.7762 133.289 65.7445C133.289 64.7129 132.429 63.9105 131.34 63.9105C130.252 63.9105 129.392 64.7129 129.392 65.7445C129.334 65.9165 129.334 65.9738 129.334 66.0311Z" fill="#739DF3"/>
<path d="M88.9282 58.4082C89.5014 58.4082 95.6914 50.4414 100.964 50.9572C106.18 51.4731 118.101 67.2346 117.414 72.6795C116.726 78.1244 108.874 83.5693 108.874 83.5693L88.9282 58.4082Z" fill="#B5714E"/>
<path d="M108.816 83.5693C108.816 83.5693 115.292 79.0414 116.955 74.1697C116.553 73.0234 116.095 71.8771 115.464 70.7881C112.026 64.6555 104.403 56.2875 97.0664 51.817C92.997 53.823 89.3289 58.4081 88.8704 58.4081L108.816 83.5693Z" fill="#603B2D"/>
<path d="M79.8148 62.7068C79.8148 62.7068 74.7711 52.8486 83.5976 49.2951C92.424 45.7416 108.243 61.0446 113.688 70.7882C120.222 82.3657 113.459 97.3822 98.4421 89.2435C83.4829 81.1048 79.8148 62.7068 79.8148 62.7068Z" fill="#B5714E"/>
<path d="M111.395 85.8619C113 81.9645 110.363 77.3794 108.3 74.1697C105.205 69.3553 101.078 64.8848 96.5505 61.5032C93.5701 59.2106 88.4691 55.3705 84.629 57.9497C81.706 59.8984 80.617 62.191 80.3304 64.4836C81.706 69.3553 86.3485 82.595 98.4992 89.1862C100.448 90.2179 102.282 90.9057 103.944 91.2495C107.039 90.7337 110.134 88.785 111.395 85.8619Z" fill="#9B6348"/>
<path fill-rule="evenodd" clip-rule="evenodd" d="M71.4504 167.089L79.0695 128.676H84.8583L80.6371 169.537C77.5004 168.911 74.4338 168.091 71.4504 167.089Z" fill="#E47C55"/>
<path d="M86.2339 102.827C86.2339 102.827 79.0123 105.922 77.7514 110.221C76.4904 114.519 75.0002 134.465 75.0002 134.465C75.0002 134.465 77.4648 137.732 87.6668 135.668L86.2339 102.827Z" fill="#3F71F2"/>
<path opacity="0.5" d="M81.878 109.017C82.4512 107.126 83.4255 105.464 84.3426 103.744C85.4315 103.171 86.2339 102.827 86.2339 102.827L87.6668 135.668C77.4648 137.732 75.0002 134.465 75.0002 134.465C75.0002 134.465 75.0002 134.35 75.0002 134.121C76.4331 129.02 76.8916 123.862 78.6111 118.818C79.6427 115.551 80.6744 112.284 81.878 109.017Z" fill="#3F71F2"/>
<path d="M106.523 100.019C106.581 100.019 106.581 99.9611 106.523 100.019C106.523 99.9611 106.523 100.019 106.523 100.019Z" fill="#222221"/>
<path d="M101.537 87.0656C101.537 87.0656 102.626 103.687 101.537 106.151C100.448 108.616 91.3348 109.017 91.1628 103.343C90.9909 97.6688 90.4177 91.4215 90.4177 91.4215L101.537 87.0656Z" fill="#F9A17B"/>
<path d="M94.1432 94.4018C92.9969 94.6311 91.8506 94.9177 90.7043 95.2042C90.5324 92.969 90.4177 91.4788 90.4177 91.4788L101.537 87.0656C101.537 87.0656 101.651 88.4411 101.709 90.5044C101.136 91.0203 100.505 91.5361 99.8174 91.9373C98.0406 92.969 96.2065 93.886 94.1432 94.4018Z" fill="#E47C55"/>
<path fill-rule="evenodd" clip-rule="evenodd" d="M72.8578 167.546C73.2402 165.957 73.7901 163.655 74.579 160.327C75.7473 155.369 77.8223 141.641 79.7334 128.998C81.6662 116.211 83.4314 104.533 83.9213 104.158C84.953 103.413 89.1369 101.063 89.1369 101.063C89.1369 101.063 88.9077 107.597 94.8111 106.508C99.9121 105.591 101.345 99 101.345 99C106.733 100.089 106.847 101.694 106.847 101.694C117.929 121.518 116.351 157.067 115.485 168.327C109.12 170.069 102.418 171 95.4998 171C87.6115 171 80.0056 169.79 72.8578 167.546Z" fill="#3F71F2"/>
<path d="M101.995 97.6115C102.225 97.2103 104.116 97.7261 104.288 98.1846C104.46 98.6431 101.823 107.642 95.6334 108.1C89.4434 108.616 88.813 100.993 89.1569 100.477C89.5008 99.9041 90.819 98.987 91.0483 99.6175C91.2775 100.248 91.4495 105.636 95.1749 105.12C98.8431 104.604 101.193 99.159 101.995 97.6115Z" fill="#0055B8"/>
<path d="M83.5972 143.521C83.5972 143.521 76.2609 125.238 75.8597 124.951C75.4585 124.664 66.0016 124.894 65.8296 125.066L65.1418 125.639C66.1735 128.619 72.4781 143.865 72.7074 144.094C72.994 144.323 80.7315 144.323 83.196 144.209C83.196 144.094 83.5399 143.578 83.5972 143.521Z" fill="white"/>
<path d="M65.1418 125.524C65.3138 125.237 65.8296 125.008 65.8296 125.008C65.9442 124.836 75.5158 124.607 75.8597 124.893C76.2609 125.18 83.6545 143.635 83.6545 143.635C83.5972 143.807 83.4826 144.036 83.1387 144.036C81.8777 141.285 75.7451 125.696 75.4012 125.409C75.0573 125.18 67.2625 125.409 65.1418 125.524Z" fill="#E7DEF9"/>
<path d="M78.6108 141.343C79.9864 141.228 81.4192 141.572 82.7948 141.744C83.1387 142.546 83.4252 143.062 83.5399 143.349C82.279 143.635 80.7888 143.463 79.6998 143.463C77.8084 143.52 75 144.094 72.6501 143.807C72.4781 143.463 72.0769 142.546 71.5038 141.228C73.7964 141.858 76.1463 141.572 78.6108 141.343Z" fill="#E7DEF9"/>
<path d="M72.9367 138.305C75 138.706 77.1206 138.821 79.184 139.279C79.4132 139.337 79.4705 139.738 79.2413 139.852C77.6365 140.655 75.8024 140.769 74.083 140.655C73.0513 140.597 72.0769 140.368 71.1026 140.254C70.7587 139.508 70.4148 138.649 70.0709 137.732C71.0453 137.789 72.1343 138.133 72.9367 138.305Z" fill="#E7DEF9"/>
<path d="M74.7133 126.211C74.8279 126.383 76.2608 130.052 76.2608 130.338C76.2608 130.625 75.4011 130.797 75.1718 130.338C74.9999 129.88 73.6816 126.269 73.6816 126.211C73.6816 126.04 74.484 125.81 74.7133 126.211Z" fill="#E7DEF9"/>
<path d="M74.0256 127.014C74.1402 127.358 74.3695 127.587 74.5987 127.53C74.828 127.472 74.8853 127.129 74.7707 126.785C74.656 126.441 74.4268 126.211 74.1975 126.269C73.9683 126.326 73.9109 126.67 74.0256 127.014Z" fill="#7C7993"/>
<path d="M74.5988 128.447C74.7134 128.791 74.9427 129.02 75.172 128.963C75.4012 128.905 75.4585 128.561 75.3439 128.217C75.2293 127.874 75 127.644 74.7708 127.702C74.5415 127.759 74.4842 128.103 74.5988 128.447Z" fill="#7C7993"/>
<path d="M75.1146 129.937C75.2292 130.281 75.4585 130.51 75.6877 130.453C75.917 130.395 75.9743 130.052 75.8597 129.708C75.745 129.364 75.5158 129.135 75.2865 129.192C75.0572 129.249 74.9999 129.593 75.1146 129.937Z" fill="#7C7993"/>
<path d="M74.7704 127.931C74.7704 128.103 74.885 128.275 74.885 128.447C74.885 128.504 74.8277 128.619 74.7704 128.504C74.5984 128.332 74.6558 128.103 74.7131 127.931C74.7131 127.874 74.7704 127.931 74.7704 127.931Z" fill="#B5B4D8"/>
<path d="M74.1401 126.613C74.1401 126.785 74.1974 126.899 74.2547 127.071C74.2547 127.129 74.1401 127.186 74.1401 127.129C74.0828 126.899 74.1401 126.785 74.1401 126.613C74.1401 126.555 74.1401 126.555 74.1401 126.613Z" fill="#B5B4D8"/>
<path d="M74.3693 127.243C74.3693 127.3 74.3693 127.3 74.3693 127.243C74.5985 127.3 74.3693 127.53 74.3693 127.358C74.312 127.358 74.312 127.3 74.3693 127.243C74.2547 127.243 74.312 127.243 74.3693 127.243Z" fill="#B5B4D8"/>
<path d="M75.229 129.822C75.229 129.822 75.2863 129.88 75.229 129.822C75.4582 129.88 75.229 130.109 75.229 129.937C75.229 129.937 75.1716 129.88 75.229 129.822C75.1716 129.822 75.229 129.822 75.229 129.822Z" fill="#B5B4D8"/>
<path d="M74.9425 128.676C74.9425 128.733 74.9425 128.733 74.9999 128.791C74.9999 128.848 74.9425 128.848 74.9425 128.848L74.8852 128.791C74.7706 128.676 74.8852 128.619 74.9425 128.676Z" fill="#B5B4D8"/>
<path d="M75.4584 130.166C75.4584 130.224 75.4584 130.224 75.5157 130.281C75.5157 130.338 75.4584 130.338 75.4584 130.338L75.4011 130.281C75.2292 130.109 75.4011 130.052 75.4584 130.166Z" fill="#B5B4D8"/>
<path d="M87.6092 142.432C87.6092 142.432 125.15 169.427 126.354 147.876C126.526 144.724 126.469 126.211 122.285 115.78C118.101 105.292 111.739 100.993 107.325 101.108C106.179 103.629 105.835 105.807 107.039 111.367C108.243 116.926 113.63 136.643 113.802 143.635C113.859 145.756 87.6092 135.668 87.6092 135.668C87.6092 135.668 85.7752 131.828 83.1387 131.255C80.5595 130.682 78.2096 132.344 78.2096 132.344C78.2096 132.344 70.8733 132.688 69.9563 133.204C69.0393 133.72 69.3258 134.579 69.3258 134.579C69.3258 134.579 67.7783 134.522 67.7783 135.382C67.7783 135.955 68.2368 136.528 69.0966 136.757C69.0966 136.757 68.2942 137.159 68.5234 137.846C69.3258 139.795 77.1779 139.795 77.1779 139.795C77.1779 139.795 76.089 141.4 72.8793 140.999C71.6757 140.827 70.9879 141.457 72.1342 142.489C73.2232 143.521 76.2036 143.349 78.7828 142.89C81.4192 142.432 87.6092 142.432 87.6092 142.432Z" fill="#F9A17B"/>
<path d="M76.4903 134.981C75.1721 134.981 73.7965 134.981 72.4783 134.981C71.3893 134.923 70.1857 135.095 69.2687 134.522V134.465C71.6759 134.694 74.0831 134.809 76.4903 134.809C76.605 134.809 76.605 134.981 76.4903 134.981Z" fill="#E47C55"/>
<path d="M69.2113 136.757C71.7905 137.388 74.6562 136.929 77.2927 137.044C77.4646 137.044 77.4646 137.331 77.2927 137.331C74.5989 137.273 71.7905 137.617 69.2113 136.757C69.154 136.815 69.154 136.757 69.2113 136.757Z" fill="#E47C55"/>
<path d="M81.9353 132.401C81.9926 132.401 81.9926 132.459 81.9353 132.459C80.5025 132.573 79.1269 132.631 77.7514 132.401C77.694 132.401 77.694 132.344 77.7514 132.344C79.1269 132.172 80.5025 132.287 81.9353 132.401Z" fill="#E47C55"/>
<path d="M114.433 147.131C112.598 147.475 90.5896 139.451 87.6665 137.044C86.6922 135.095 85.4313 132.516 83.024 131.255C83.0814 131.255 83.1387 131.255 83.196 131.312C85.7752 131.886 87.6665 135.726 87.6665 135.726C87.6665 135.726 113.917 145.813 113.859 143.692C113.63 136.757 108.3 116.984 107.096 111.424C105.893 105.865 106.237 103.687 107.383 101.165C111.796 101.05 118.158 105.349 122.342 115.838C124.864 122.085 125.838 131.198 126.239 138.19C123.488 138.534 120.966 138.935 118.731 140.426C115.579 142.546 117.184 146.616 114.433 147.131Z" fill="#E47C55"/>
<path d="M130.137 135.095C130.137 135.095 124.635 139.107 111.739 138.19C111.739 138.19 105.778 115.436 105.664 107.183C105.549 98.9297 109.217 96.4651 119.591 106.724C130.022 116.984 130.137 135.095 130.137 135.095Z" fill="#3F71F2"/>
<path opacity="0.5" d="M122.8 118.073C120.68 109.705 116.152 104.26 109.217 100.019C111.452 100.019 114.834 102.025 119.591 106.782C129.965 117.041 130.137 135.153 130.137 135.153C130.137 135.153 127.443 137.101 121.425 138.018C122.055 137.388 122.629 136.643 123.144 135.955C126.354 130.969 124.291 123.231 122.8 118.073Z" fill="#3F71F2"/>
<path d="M79.8717 67.0054C78.2096 67.3493 75.8597 67.7505 75.1719 69.5846C74.4268 71.4186 75.917 73.2527 77.006 74.571C78.2096 76.1185 78.2096 76.9209 77.1206 78.5257C75.917 80.1305 75.0573 82.0792 76.6621 83.7986C78.3815 85.69 80.8461 85.4034 82.9094 84.2571L79.8717 67.0054Z" fill="#0A2E52"/>
<path d="M104.575 74.6856C104.69 82.7097 101.423 95.7201 89.3868 94.3445C76.2617 92.9117 77.2934 74.1124 79.7006 67.8651C82.1651 61.2739 104.346 58.5802 104.575 74.6856Z" fill="#F9A17B"/>
<path d="M79.6426 67.9225C80.1585 66.6042 81.4194 65.4579 83.1388 64.5409C82.2791 65.2287 81.6487 65.9738 81.3621 66.8335C79.0122 73.0808 77.9232 91.88 91.0483 93.3129C93.7994 93.5994 96.092 93.1409 98.0407 92.1666C95.8627 93.886 92.997 94.8031 89.3288 94.4019C76.2038 92.9117 77.2927 74.1124 79.6426 67.9225Z" fill="#FFB094"/>
<path d="M101.365 79.672C101.365 79.672 100.333 87.3521 101.594 89.4155C102.855 91.4788 100.276 97.3822 97.3529 99.9041C94.4299 102.426 86.2339 104.26 83.9413 103.744C83.9413 103.744 78.611 100.649 79.6427 93.4848C80.6743 86.2632 82.5084 85.6327 82.5084 85.6327C82.5084 85.6327 85.3741 86.6644 87.2655 86.2632C89.1569 85.862 92.3092 91.88 94.5445 91.0776C96.8371 90.2752 100.161 80.7036 101.365 79.672Z" fill="#0A2E52"/>
<path d="M82.7949 92.1666C83.8839 91.4215 85.8899 89.9886 87.2654 90.4472C88.3544 90.791 89.3287 91.2496 90.4177 91.5362C93.3981 92.3386 96.2638 91.7654 96.665 88.6131C95.92 89.874 95.1749 90.8484 94.4871 91.0776C93.7993 91.3069 92.9969 90.9057 92.1945 90.2752C90.1312 89.9886 87.7813 88.785 86.0618 88.6704C85.374 88.6131 84.7436 89.1289 84.2277 89.4728C82.8522 90.4472 81.3047 90.963 79.8718 91.8227C79.8145 91.9947 79.8145 92.1666 79.7572 92.3386C80.7889 92.969 81.7632 92.9117 82.7949 92.1666Z" fill="#092842"/>
<path d="M85.2021 93.3702C85.2594 93.4848 85.4313 93.4275 85.4313 93.3129C85.3167 92.9117 85.2021 92.6251 85.1447 92.2239C85.1447 91.8227 85.2021 91.4788 85.2594 91.0776C85.2594 91.0776 85.2594 91.0776 85.2021 91.0776C85.0301 91.7654 84.7435 92.6824 85.2021 93.3702Z" fill="#0D4C84"/>
<path d="M86.0045 93.0263C86.0045 92.7397 86.0619 92.3959 86.0045 92.1093C85.9472 91.8227 85.8899 91.4788 85.7753 91.1923C85.7753 91.1349 85.6606 91.1923 85.6606 91.2496C85.7753 91.8227 85.718 92.4532 85.8326 93.0836C85.8899 93.141 86.0045 93.1409 86.0045 93.0263Z" fill="#0D4C84"/>
<path d="M86.4057 92.1666C86.4057 92.2239 86.5203 92.2239 86.5203 92.1666C86.5776 91.8227 86.4057 91.3642 86.1764 91.0776C86.1191 91.0203 86.0618 91.0776 86.1191 91.1349C86.3483 91.4788 86.3483 91.7654 86.4057 92.1666Z" fill="#0D4C84"/>
<path d="M84.6289 92.1666C84.6862 91.8227 84.7435 91.4215 85.0301 91.1923C85.0874 91.135 85.0301 91.0776 84.9728 91.0776C84.6289 91.3069 84.5716 91.7654 84.5143 92.1666C84.4569 92.2812 84.6289 92.3385 84.6289 92.1666Z" fill="#0D4C84"/>
<path d="M82.1072 92.3959C82.1072 92.3385 82.0499 92.3385 82.1072 92.3959C80.3304 95.4909 81.2475 99.4456 83.3681 102.139C83.4827 102.254 83.6547 102.139 83.5974 102.025C81.7633 99.1017 80.617 95.7201 82.1072 92.3959Z" fill="#0D4C84"/>
<path d="M83.9412 93.6568C83.9412 93.6568 83.8839 93.5995 83.9412 93.6568C82.7949 96.3506 82.5657 100.191 84.2851 102.713C84.3424 102.827 84.5144 102.77 84.4571 102.598C83.3681 100.019 82.7949 96.3506 83.9412 93.6568Z" fill="#0D4C84"/>
<path d="M85.4885 94.7458C85.4885 94.6885 85.4885 94.7458 85.4885 94.7458C85.6605 95.8921 85.3166 97.153 85.2592 98.3566C85.1446 99.6175 84.9727 100.764 84.6288 101.967C84.5715 102.139 84.8007 102.254 84.9154 102.082C85.4885 101.108 85.5458 99.8468 85.6031 98.7578C85.6605 97.4969 85.8324 96.0067 85.4885 94.7458Z" fill="#0D4C84"/>
<path d="M87.6093 91.8227C88.6409 95.2043 87.0934 99.2163 85.5459 102.197C85.4886 102.311 85.6606 102.483 85.7752 102.311C87.8385 99.6175 88.8702 95.0897 87.6093 91.8227Z" fill="#0D4C84"/>
<path d="M90.3031 91.3642C90.2458 91.3642 90.2458 91.3642 90.3031 91.3642C91.1629 93.2556 90.5324 95.7201 89.9593 97.6115C89.4434 99.4456 88.2971 100.535 86.9789 101.853C86.8642 101.967 86.9789 102.197 87.1508 102.082C90.3605 100.019 91.7933 94.9177 90.3031 91.3642Z" fill="#0D4C84"/>
<path d="M93.9139 92.6251C93.1115 96.6945 91.5067 100.133 87.8958 102.369C87.7812 102.426 87.8959 102.598 87.9532 102.541C89.6153 101.624 90.9908 100.535 91.9652 98.8724C93.0542 96.981 93.6273 94.8031 93.9712 92.6251C93.9712 92.6251 93.9139 92.6251 93.9139 92.6251Z" fill="#0D4C84"/>
<path d="M98.7285 87.7534C98.6139 89.5301 98.6712 91.5361 98.1554 93.2556C98.1554 93.3129 98.27 93.3702 98.27 93.3129C98.7285 91.5361 98.6712 89.5874 98.7285 87.7534C98.7285 87.7534 98.7285 87.6961 98.7285 87.7534Z" fill="#0D4C84"/>
<path d="M96.4358 91.9947C96.2066 93.5995 95.8054 95.0897 95.1749 96.5798C94.5445 98.07 93.4555 99.159 92.4238 100.363C92.3665 100.477 92.4811 100.592 92.5958 100.477C95.003 98.1846 96.0346 95.2616 96.4358 91.9947Z" fill="#0D4C84"/>
<path d="M100.849 89.4155C100.849 90.3325 100.505 91.1922 100.161 92.052C100.161 92.1093 100.219 92.1093 100.219 92.052C100.62 91.1922 100.906 90.3325 100.906 89.4155H100.849Z" fill="#0D4C84"/>
<path d="M99.8747 86.3778C99.8747 86.3205 99.8174 86.3205 99.8747 86.3778C100.391 87.8107 99.8174 89.2435 99.3016 90.6191C99.2443 90.7337 99.4162 90.791 99.4735 90.6764C99.7601 90.046 100.047 89.3582 100.161 88.6704C100.276 87.868 100.047 87.1229 99.8747 86.3778Z" fill="#0D4C84"/>
<path d="M80.6742 88.6704C80.273 89.8167 79.9291 91.3642 79.6425 93.4848C78.6109 100.706 83.9411 103.744 83.9411 103.744C84.285 103.801 84.6862 103.859 85.2594 103.801C83.9411 102.139 82.1071 100.764 81.0754 98.8151C79.6425 95.9494 80.273 92.052 80.6742 88.6704Z" fill="#0D4C84"/>
<path d="M85.89 85.5754C85.89 85.5754 90.1886 83.9706 92.1373 85.9766C94.0287 87.9826 93.6848 90.9057 94.7165 90.3325C95.6908 89.7594 95.6908 87.5814 94.4872 86.779C94.4872 86.779 96.7798 88.1545 96.0347 90.7337C95.2896 93.3129 87.8387 90.1606 85.8327 89.7594C83.5401 91.0203 80.3305 92.1093 78.8403 91.8227C77.3501 91.5361 77.2928 89.4728 78.1525 88.6131C78.1525 88.6131 78.0952 91.0776 79.1269 90.6191C80.1585 90.1606 79.2988 85.862 83.3108 85.4608C83.2535 85.4035 84.801 86.0912 85.89 85.5754Z" fill="#0A2E52"/>
<path d="M84.6863 87.4668C84.1704 87.9253 84.0558 88.6704 83.8839 89.3009C83.4254 90.6764 81.6486 91.1923 80.2731 91.4788C80.9035 91.1923 81.362 90.791 81.7632 90.2752C81.9925 89.9886 82.1071 89.5874 82.2791 89.2436C82.7376 88.2119 83.368 87.696 84.3997 87.2948C84.457 87.2948 84.457 87.1802 84.3424 87.1802C83.54 87.3522 82.7376 87.6387 82.3937 88.4985C82.1071 89.1862 81.9352 89.874 81.4767 90.5045C80.8462 91.4215 79.4133 91.7081 78.6109 91.0776C78.9548 91.0776 79.4133 90.8484 79.8145 90.5618C80.273 90.1606 80.5023 89.3582 80.7316 88.8423C80.9608 88.2119 81.1901 87.6387 81.534 87.0656C82.2217 85.862 83.1388 86.1485 84.1131 86.1485C84.1131 86.1485 84.1131 86.1486 84.1131 86.0912C83.0242 85.5754 82.0498 85.9766 81.362 86.951C80.9608 87.4668 80.7889 88.1546 80.6169 88.785C80.5023 89.1289 80.445 89.4155 80.2731 89.7594C80.1584 90.1033 79.0694 91.2496 78.439 90.963C78.267 90.7911 78.1524 90.6191 78.0951 90.3899V90.3325C78.0951 90.2752 77.9805 90.2752 77.9805 90.3325C77.9805 90.6191 78.0951 90.7911 78.1524 90.9057C78.439 91.5935 79.0694 91.8227 79.8718 91.5934C81.1328 91.5361 82.5656 91.0776 83.4827 90.1606C84.1705 89.4728 83.9412 88.2692 84.5717 87.5814C84.8009 87.5241 84.7436 87.4668 84.6863 87.4668Z" fill="#0D4C84"/>
<path d="M95.748 89.874C95.1176 90.963 93.742 91.2495 92.825 89.5874C92.7104 89.3008 92.5957 89.0143 92.4811 88.6704C92.3092 88.2119 92.1372 87.7534 91.908 87.3521C91.6214 86.779 90.9336 86.2059 90.3605 85.9766C88.7557 85.3461 86.9216 85.5181 85.4314 86.3205V86.3778C87.2655 85.9193 88.9276 85.3461 90.7043 86.3778C92.1945 87.2375 91.908 88.8997 92.825 90.1033C93.7993 91.3642 95.1749 91.4215 95.8627 89.9313C95.92 89.874 95.8054 89.8167 95.748 89.874Z" fill="#0D4C84"/>
<path d="M88.8127 87.5241C87.8384 86.779 86.6348 86.7217 85.5458 87.0083C85.4885 87.0083 85.4885 87.0656 85.5458 87.0656C87.7238 86.5498 88.9274 87.6961 90.3029 89.1862C91.2773 90.2752 92.1943 90.963 93.5699 91.3069C93.5699 91.3069 93.6272 91.3069 93.5699 91.3069C91.5638 90.3898 90.4749 88.785 88.8127 87.5241Z" fill="#0D4C84"/>
<path d="M87.1506 88.5558C86.8067 87.868 86.4055 87.6387 85.6604 87.868V87.9253C86.7494 87.7534 86.9213 88.4985 87.2652 89.2436C87.4371 89.6448 87.781 89.9313 88.1249 90.1606C88.9846 90.7337 90.1883 90.8484 91.1626 90.5618C91.2199 90.5618 91.1626 90.5045 91.1626 90.5045C89.4432 90.5045 88.0103 90.3325 87.1506 88.5558Z" fill="#0D4C84"/>
<path d="M83.4827 84.4291C83.4827 84.773 83.7693 84.945 84.0559 85.0596C84.3997 85.1742 84.7436 85.2889 85.1448 85.4035C85.4887 85.5181 85.4314 86.034 85.0875 86.0913C84.5144 86.1486 83.9412 86.0913 83.4254 85.7474C82.8522 85.4035 82.7376 84.8303 83.0815 84.2572C83.1961 84.0279 83.4827 84.1999 83.4827 84.4291Z" fill="#D15D46"/>
<path d="M90.9908 81.2768C89.9591 81.8499 88.9848 81.4487 88.9275 80.1878C88.9275 80.0159 89.1567 79.9012 89.2714 80.0732C89.6153 80.8183 90.2457 80.7037 90.8762 80.3024C91.4493 79.9012 92.0798 79.3281 92.2517 78.6976C92.3091 78.583 92.5383 78.583 92.5383 78.7549C92.5956 79.7866 91.9078 80.761 90.9908 81.2768Z" fill="#603B2D"/>
<path d="M81.0181 79.6146C81.0754 79.4427 81.2473 79.4427 81.3046 79.6146C81.4766 80.1305 81.5912 80.9329 82.279 80.9902C82.8521 81.0475 83.4253 80.4171 83.7119 80.0159C83.7692 79.9012 83.9411 79.9585 83.9411 80.0732C83.7119 80.9329 83.196 81.678 82.2217 81.6207C81.2473 81.5633 80.8461 80.4171 81.0181 79.6146Z" fill="#603B2D"/>
<path d="M96.3785 78.7549C96.7797 78.9269 97.1236 79.1561 97.3528 79.5C97.9833 80.5317 97.754 81.7926 96.8943 82.6523C96.4931 83.0535 96.0346 83.512 95.4041 83.5694C94.831 83.6267 94.2578 83.5121 93.742 83.1682C92.3665 82.1938 92.4811 79.8439 93.8566 78.9269C94.6017 78.411 95.6334 78.2964 96.3785 78.7549Z" fill="#F77D77"/>
<path d="M78.4962 81.5633C78.8401 80.4744 80.1011 80.7036 80.7888 81.2768C81.1327 81.5633 81.3047 81.9072 81.4193 82.3084C81.4193 82.4231 81.4766 82.5377 81.4766 82.6523C81.4766 82.9389 81.4193 83.1682 81.2473 83.3974C80.7315 84.0852 79.6999 84.0279 79.0694 83.5121C78.4389 82.9962 78.267 82.3084 78.4962 81.5633Z" fill="#F77D77"/>
<path d="M92.7679 74.9722C92.3667 73.8832 91.2777 74.1125 90.3607 73.7686C90.0741 73.6539 90.1314 73.2527 90.418 73.1954C91.335 73.0808 93.6849 73.482 93.1118 74.9149C93.0544 75.1441 92.8252 75.1441 92.7679 74.9722Z" fill="#0A2E52"/>
<path d="M82.6803 74.0551C82.3364 74.1698 81.9925 74.2844 81.7632 74.571C81.534 74.8002 81.534 75.2014 81.4767 75.488C81.4193 75.8892 80.9035 75.8892 80.7889 75.488C80.5596 74.3417 81.5913 73.6539 82.623 73.5966C82.8522 73.5966 82.9095 73.9405 82.6803 74.0551Z" fill="#0A2E52"/>
<path d="M99.2442 68.4956C99.2442 68.4956 79.0694 74.7429 74.6562 64.9994C70.2429 55.2559 86.1191 60.013 86.1191 60.013C86.1191 60.013 87.38 53.5938 92.7103 54.0523C98.0979 54.5108 98.0979 61.102 98.0979 61.102C98.0979 61.102 105.205 56.1729 108.128 60.5862C111.051 64.9421 106.638 69.9858 106.638 69.9858C109.561 70.9601 116.267 84.3718 105.32 86.8936C98.9576 88.3838 97.8687 79.6147 101.193 78.583C101.25 78.583 96.6077 76.1758 99.2442 68.4956Z" fill="#0A2E52"/>
<path d="M77.2352 61.7898C79.5278 65.8018 82.2789 67.5785 86.9214 68.0944C90.9908 68.5529 94.7735 67.3493 98.4417 65.5725C98.499 65.5725 98.499 65.6299 98.499 65.6299C92.0224 69.6992 80.4449 70.215 76.834 61.9617C76.6621 61.6751 77.1206 61.5032 77.2352 61.7898Z" fill="#0D4C84"/>
<path d="M96.2636 62.019C95.5185 60.7008 94.9454 59.2679 93.7991 58.2362C92.0223 56.6314 90.2456 58.4655 89.2139 59.841C89.042 60.0703 88.6981 59.8411 88.8127 59.6118C89.3859 58.007 91.5065 56.3449 93.2833 57.0326C95.1746 57.7777 96.3782 60.013 96.4356 61.9617C96.3782 62.0763 96.3209 62.0763 96.2636 62.019Z" fill="#0D4C84"/>
<path d="M104.288 68.037C104.23 68.0944 104.173 68.037 104.23 67.9797C105.319 66.6042 107.325 64.4835 106.523 62.5922C105.606 60.4715 102.568 61.3885 101.135 62.5348C102.396 62.5348 103.543 63.9104 103.199 65.2286C103.141 65.4579 102.855 65.4006 102.855 65.1713C102.855 64.025 102.052 62.8214 100.849 62.7641C100.792 62.8214 100.792 62.8214 100.734 62.8787C100.505 63.1653 100.046 62.8214 100.276 62.5348C101.651 60.93 104.861 59.7264 106.58 61.5032C108.701 63.7384 106.294 66.7188 104.288 68.037Z" fill="#0D4C84"/>
<path d="M105.491 81.4487C107.325 80.2451 108.586 79.0415 107.841 76.6343C107.096 74.2844 105.319 72.5649 103.313 71.2467C103.199 71.1894 103.313 70.9601 103.428 71.0747C105.778 72.3357 108.128 74.2844 108.758 77.0355C109.274 79.4427 108.013 81.1048 105.778 81.9645C105.491 82.0219 105.205 81.678 105.491 81.4487Z" fill="#0D4C84"/>
<path d="M102.683 80.5317C103.543 79.7866 104.345 79.3854 104.231 78.0671C104.116 76.6343 102.97 75.316 102.053 74.3417C101.995 74.227 102.11 74.1124 102.225 74.1697C104.231 75.9465 106.695 79.5573 102.97 80.9902C102.626 81.1048 102.396 80.7036 102.683 80.5317Z" fill="#0D4C84"/>
<path d="M89.1567 65.8591C87.9531 63.0507 84.4569 61.4459 81.5338 62.0763C81.3619 62.1337 81.3046 61.8471 81.4765 61.7898C84.5142 60.5288 88.6408 62.6495 89.5006 65.7445C89.5006 65.9738 89.214 66.0311 89.1567 65.8591Z" fill="#0D4C84"/>
<path d="M87.0361 65.8591C87.0934 65.8591 87.0361 65.9164 87.0361 65.8591C86.4629 65.8018 85.8898 65.5152 85.3166 65.4006C84.6288 65.286 83.9984 65.5152 83.3106 65.6299C83.1387 65.6299 83.0814 65.4006 83.196 65.3433C84.4569 64.5409 86.0044 65.0567 87.0361 65.8591Z" fill="#0D4C84"/>
<path d="M92.8821 65.5152C93.0541 65.6872 92.9394 65.9737 92.6529 65.8591C91.5066 65.4579 89.6152 63.8531 90.4749 62.4775C91.5066 60.8154 93.5126 61.1593 94.3723 62.7641C94.4296 62.8214 94.315 62.9361 94.2577 62.8787C93.226 61.9044 91.6212 61.2166 90.8761 62.936C90.3603 64.0823 92.1944 64.9421 92.8821 65.5152Z" fill="#0D4C84"/>
<path d="M75.1147 59.6691C75.8597 63.4519 77.2926 67.0054 81.4193 68.3237C84.8008 69.4126 89.2714 69.8711 100.047 67.8078C98.671 75.7746 102.511 78.0098 102.568 78.3537C102.626 78.9269 100.505 80.8183 100.62 82.595C100.677 83.7413 100.39 84.6583 100.677 85.6327C98.7283 83.3974 98.9576 79.2708 101.193 78.583C101.193 78.583 96.5504 76.2331 99.1868 68.4956C99.1868 68.4956 79.0121 74.7429 74.5988 64.9994C73.3952 62.1337 73.8537 60.5288 75.1147 59.6691Z" fill="#0D4C84"/>
<path d="M99.1293 84.8303C98.8428 87.2375 100.562 89.4155 102.969 89.702C105.377 89.9886 107.555 88.2692 107.841 85.8619C108.128 83.4547 106.408 81.2768 104.001 80.9902C101.594 80.7036 99.4159 82.4231 99.1293 84.8303Z" fill="#F9A17B"/>
<path d="M101.651 83.6267C102.511 82.8243 103.657 82.7096 104.746 82.9389C104.918 82.9962 104.918 83.2255 104.689 83.2255C103.199 83.1682 102.224 83.9706 101.938 85.0595C102.396 84.8303 102.97 84.8303 103.485 85.1742C104.861 85.9766 104.288 87.8106 102.912 88.1545C102.339 88.2692 102.052 87.2948 102.626 87.1229C103.084 86.9509 103.256 86.4924 102.855 86.1485C102.396 85.7473 101.766 86.3778 101.823 86.8363C101.881 87.5241 100.906 87.6387 100.792 86.9509C100.62 85.862 100.734 84.4864 101.651 83.6267Z" fill="#D15D46"/>
<path d="M101.536 89.2435C101.938 88.613 102.339 88.0972 102.454 87.9252C102.396 87.8679 102.339 87.8679 102.282 87.8106L102.224 87.7533C102.167 87.696 102.11 87.6387 102.052 87.5814C102.052 87.524 101.995 87.5241 101.995 87.4667C101.938 87.4094 101.88 87.2948 101.88 87.2375C101.88 87.1802 101.823 87.1802 101.823 87.1228C101.766 87.0082 101.766 86.8936 101.708 86.779C101.594 85.8619 102.167 85.0595 103.084 84.8876C103.199 84.8876 103.313 84.8876 103.485 84.8876C103.543 84.8876 103.543 84.8876 103.6 84.8876C103.657 84.8876 103.772 84.9449 103.829 84.9449C103.886 84.9449 103.886 84.9449 103.944 85.0022C104.001 85.0595 104.116 85.0595 104.173 85.1168C104.23 85.1168 104.23 85.1741 104.288 85.1741C104.402 85.2315 104.46 85.2888 104.574 85.4034C104.803 85.6327 104.918 85.9192 104.975 86.2631C105.033 86.7216 104.918 87.1802 104.631 87.5241C104.517 87.9253 104.288 88.3838 104.058 88.7276C104.001 88.785 104.001 88.785 103.944 88.7276C103.772 89.0142 103.543 89.3581 103.313 89.702C103.199 89.702 103.084 89.702 102.969 89.702C102.454 89.5874 101.995 89.4728 101.536 89.2435Z" fill="#E47C55"/>
<path d="M101.365 86.2058C101.479 87.1229 102.339 87.696 103.256 87.5814C104.173 87.4668 104.746 86.607 104.632 85.69C104.517 84.773 103.657 84.1998 102.74 84.3145C101.823 84.4864 101.25 85.3461 101.365 86.2058Z" fill="white"/>
<path d="M101.365 86.2058C101.25 85.2888 101.823 84.4864 102.74 84.3145C103.313 84.2571 103.829 84.4291 104.173 84.8303C103.887 84.7157 103.543 84.6583 103.199 84.7157C102.282 84.8303 101.709 85.69 101.823 86.607C101.881 86.9509 102.053 87.2375 102.224 87.4668C101.823 87.2375 101.422 86.779 101.365 86.2058Z" fill="#E7E9F7"/>
<path d="M104.173 86.0339C104.46 87.2375 103.199 89.0143 100.677 91.9373C100.677 91.9373 99.8745 91.8227 99.5879 91.0776C99.5879 91.0776 101.938 87.5814 102.11 87.3521C102.282 87.1229 101.88 86.4351 102.224 85.9766C102.568 85.4607 103.944 84.8876 104.173 86.0339Z" fill="white"/>
<path d="M104.116 85.6327C104.632 86.4924 104.173 87.4095 103.715 88.1546C103.657 88.2119 103.543 88.1546 103.6 88.0973C104.058 87.3522 104.23 86.5497 104.058 85.6327C104.058 85.5754 104.116 85.5754 104.116 85.6327Z" fill="#E7E9F7"/>
<defs>
<filter id="filter0_d_33_12" x="0" y="0" width="191" height="191" filterUnits="userSpaceOnUse" color-interpolation-filters="sRGB">
<feFlood flood-opacity="0" result="BackgroundImageFix"/>
<feColorMatrix in="SourceAlpha" type="matrix" values="0 0 0 0 0 0 0 0 0 0 0 0 0 0 0 0 0 0 127 0" result="hardAlpha"/>
<feOffset/>
<feGaussianBlur stdDeviation="10"/>
<feColorMatrix type="matrix" values="0 0 0 0 0 0 0 0 0 0 0 0 0 0 0 0 0 0 0.6 0"/>
<feBlend mode="normal" in2="BackgroundImageFix" result="effect1_dropShadow_33_12"/>
<feBlend mode="normal" in="SourceGraphic" in2="effect1_dropShadow_33_12" result="shape"/>
</filter>
</defs>
</svg>
