<svg width="191" height="191" viewBox="0 0 191 191" fill="none" xmlns="http://www.w3.org/2000/svg">
<g filter="url(#filter0_d_33_15)">
<circle cx="95.5" cy="95.5" r="75.5" fill="#F2C94C"/>
</g>
<path d="M160.41 103.546C160.41 103.546 159.638 103.814 158.396 104.385C157.155 104.955 155.443 105.761 153.597 106.869C149.871 109.084 145.542 112.373 142.89 117.038C140.306 121.603 140.104 126.067 140.574 129.591C141.044 133.082 142.185 135.565 142.387 135.935C143.226 134.592 144.031 133.25 144.87 131.907L144.3 129.155C144.098 128.215 143.897 127.309 143.729 126.369C143.326 124.523 142.957 122.677 142.554 120.831C143.091 122.643 143.528 124.456 143.998 126.302C144.233 127.208 144.434 128.148 144.635 129.088L145.139 131.504L145.709 130.564C146.381 129.457 147.086 128.316 147.723 127.174L147.119 124.456C146.918 123.516 146.683 122.61 146.481 121.67C146.045 119.824 145.609 117.978 145.172 116.132C145.743 117.945 146.246 119.757 146.716 121.603C146.951 122.509 147.186 123.449 147.421 124.389L147.992 126.772C148.797 125.429 149.569 124.087 150.341 122.711L150.509 122.408L149.972 120.227C149.771 119.455 149.603 118.683 149.401 117.911C149.032 116.367 148.629 114.857 148.294 113.313C148.797 114.79 149.234 116.3 149.67 117.844C149.905 118.616 150.073 119.354 150.274 120.126L150.744 121.972C151.55 120.529 152.389 119.086 153.194 117.642C152.892 116.468 152.59 115.259 152.254 114.085C151.952 112.876 151.617 111.668 151.348 110.426C151.784 111.601 152.154 112.776 152.523 113.984C152.858 115.058 153.161 116.132 153.429 117.206C153.899 116.367 154.335 115.561 154.772 114.722L155.779 112.843C155.577 112.138 155.409 111.467 155.208 110.762L154.939 109.688C154.872 109.319 154.772 108.983 154.704 108.614C154.839 108.949 154.973 109.285 155.107 109.621L155.476 110.661C155.678 111.232 155.846 111.802 156.013 112.407L156.92 110.695C157.625 109.352 158.329 108.01 159.034 106.634C158.396 108.01 157.725 109.386 157.087 110.762L156.181 112.574C156.785 112.373 157.356 112.172 157.96 111.97C158.631 111.769 159.303 111.534 160.008 111.366C159.37 111.668 158.699 111.97 158.027 112.205C157.356 112.474 156.685 112.709 156.013 112.944L155.946 112.977L155.007 114.79C154.57 115.662 154.1 116.501 153.63 117.374C154.738 117.005 155.846 116.669 156.92 116.3L158.732 115.729C159.336 115.561 159.94 115.36 160.545 115.159C159.94 115.427 159.37 115.629 158.766 115.864L156.987 116.535C155.812 116.971 154.604 117.374 153.395 117.777H153.362C152.59 119.253 151.784 120.697 150.945 122.14L152.892 121.536L155.174 120.831L157.457 120.126L159.773 119.421C159.034 119.723 158.262 119.992 157.524 120.294L155.241 121.099C154.503 121.368 153.731 121.603 152.959 121.871L150.677 122.61L150.543 122.811C149.737 124.187 148.932 125.563 148.126 126.94C148.965 126.705 149.771 126.47 150.576 126.235L153.362 125.429L156.148 124.59L158.933 123.751C158.027 124.087 157.088 124.422 156.181 124.724L153.429 125.631C152.523 125.933 151.583 126.201 150.677 126.503L147.925 127.309H147.891C147.22 128.416 146.549 129.524 145.877 130.598L145.24 131.605L147.757 130.934L150.543 130.162L153.328 129.39L156.114 128.618C155.208 128.953 154.268 129.255 153.362 129.558L150.61 130.43C149.703 130.699 148.764 130.967 147.857 131.236L145.105 132.008L145.038 132.041C144.199 133.35 143.36 134.626 142.487 135.935C142.89 135.935 145.642 136.002 149.032 134.793C152.422 133.619 156.483 131.135 159.269 126.201C162.122 121.167 162.491 115.394 162.055 110.963C161.854 108.748 161.451 106.869 161.115 105.56C160.679 104.318 160.41 103.546 160.41 103.546Z" fill="#05D9E5"/>
<path d="M145.004 132.075L147.757 131.303C148.663 131.034 149.603 130.799 150.509 130.497L153.261 129.625C154.167 129.323 155.107 129.02 156.013 128.685L153.227 129.457L150.442 130.229L147.656 131.001L145.139 131.672L145.776 130.665C146.448 129.558 147.119 128.483 147.79 127.376H147.824L150.576 126.57C151.482 126.302 152.422 126 153.328 125.698L156.08 124.791C156.987 124.456 157.926 124.154 158.833 123.818L156.047 124.657L153.261 125.496L150.475 126.302C149.67 126.537 148.831 126.772 148.025 127.007C148.831 125.631 149.636 124.254 150.442 122.878L150.576 122.677L152.858 121.939C153.63 121.704 154.369 121.469 155.141 121.167L157.423 120.361C158.161 120.093 158.933 119.791 159.672 119.488L157.356 120.193L155.073 120.898L152.791 121.603L150.844 122.207C151.65 120.764 152.456 119.287 153.261 117.844H153.295C154.469 117.441 155.678 117.038 156.886 116.602L158.665 115.931C159.269 115.696 159.84 115.461 160.444 115.226C159.84 115.394 159.235 115.595 158.631 115.796L156.819 116.367C155.711 116.736 154.604 117.072 153.53 117.441C153.999 116.568 154.436 115.729 154.906 114.857L155.845 113.044L155.913 113.011C156.584 112.776 157.255 112.541 157.926 112.272C158.598 112.004 159.235 111.735 159.907 111.433C159.202 111.601 158.531 111.836 157.859 112.037C157.255 112.239 156.685 112.44 156.08 112.641L156.987 110.829C157.658 109.453 158.296 108.077 158.933 106.701C158.228 108.043 157.557 109.419 156.819 110.762L155.913 112.474C155.745 111.903 155.577 111.332 155.376 110.728L155.006 109.688C154.872 109.352 154.771 109.017 154.604 108.681C154.671 109.05 154.771 109.386 154.839 109.755L155.107 110.829C155.275 111.534 155.476 112.205 155.678 112.91L154.671 114.79C154.234 115.629 153.765 116.468 153.328 117.273C153.026 116.199 152.758 115.125 152.422 114.051C152.053 112.843 151.684 111.668 151.247 110.493C151.549 111.702 151.851 112.91 152.153 114.152C152.456 115.327 152.758 116.535 153.093 117.71C152.288 119.153 151.482 120.596 150.643 122.039L150.173 120.193C149.972 119.421 149.77 118.649 149.569 117.911C149.133 116.401 148.696 114.89 148.193 113.38C148.562 114.924 148.931 116.434 149.301 117.978C149.502 118.75 149.67 119.522 149.871 120.294L150.408 122.476L150.24 122.778C149.468 124.154 148.696 125.496 147.891 126.839L147.32 124.456C147.085 123.516 146.884 122.61 146.615 121.67C146.146 119.824 145.642 118.012 145.072 116.199C145.508 118.045 145.944 119.891 146.381 121.737C146.582 122.677 146.817 123.583 147.018 124.523L147.622 127.242C146.951 128.383 146.28 129.49 145.609 130.632L145.038 131.571L144.535 129.155C144.333 128.215 144.132 127.309 143.897 126.369C143.46 124.523 142.991 122.711 142.454 120.898C142.856 122.744 143.226 124.59 143.628 126.436C143.83 127.376 144.031 128.282 144.199 129.222L144.769 131.974C143.964 133.317 143.125 134.659 142.286 136.002C142.286 136.035 142.319 136.069 142.319 136.069C142.319 136.069 142.353 136.069 142.386 136.069C143.259 134.793 144.098 133.484 144.937 132.175L145.004 132.075Z" fill="#3A17B0"/>
<path d="M168.231 119.757C168.231 119.757 167.358 119.757 165.949 119.858C164.539 119.958 162.559 120.16 160.31 120.596C155.846 121.469 150.409 123.113 146.112 126.772C141.917 130.363 140.138 134.659 139.333 138.284C138.527 141.875 138.796 144.762 138.829 145.165C140.138 144.158 141.414 143.117 142.723 142.11L143.159 139.19C143.293 138.217 143.427 137.21 143.595 136.237C143.864 134.29 144.132 132.31 144.434 130.363C144.3 132.343 144.099 134.29 143.864 136.27C143.763 137.244 143.629 138.25 143.494 139.224L143.125 141.775L143.998 141.07C145.072 140.197 146.146 139.358 147.22 138.452L147.589 135.565C147.724 134.558 147.824 133.585 147.958 132.578C148.193 130.598 148.428 128.618 148.663 126.671C148.563 128.651 148.395 130.632 148.227 132.612C148.16 133.619 148.026 134.592 147.925 135.599L147.623 138.116C148.898 137.076 150.14 136.035 151.382 134.961L151.65 134.726L151.919 132.377C152.02 131.538 152.087 130.732 152.187 129.893C152.355 128.248 152.523 126.604 152.724 124.959C152.691 126.604 152.59 128.248 152.456 129.893C152.389 130.732 152.322 131.538 152.255 132.377L152.053 134.391C153.396 133.249 154.705 132.142 156.014 131.001C156.148 129.725 156.249 128.45 156.383 127.174C156.517 125.865 156.651 124.556 156.786 123.248C156.786 124.556 156.719 125.865 156.651 127.174C156.584 128.349 156.517 129.49 156.416 130.665C157.155 130.027 157.893 129.356 158.632 128.685L160.31 127.208C160.377 126.47 160.411 125.731 160.511 124.959L160.645 123.818C160.713 123.449 160.746 123.046 160.813 122.677C160.847 123.046 160.813 123.449 160.847 123.818L160.813 124.959C160.813 125.597 160.78 126.235 160.713 126.839L162.223 125.463C163.398 124.389 164.572 123.315 165.747 122.241C164.64 123.382 163.498 124.489 162.357 125.597L160.813 127.074C161.485 127.074 162.122 127.107 162.76 127.141C163.498 127.174 164.237 127.208 164.975 127.275C164.237 127.342 163.465 127.376 162.726 127.409C161.988 127.443 161.25 127.443 160.478 127.443H160.411L158.833 128.92C158.095 129.625 157.323 130.296 156.551 130.967C157.759 131.001 158.967 131.034 160.176 131.101L162.156 131.169C162.827 131.202 163.465 131.236 164.136 131.269C163.465 131.303 162.794 131.336 162.122 131.336L160.142 131.37C158.833 131.37 157.491 131.336 156.182 131.303H156.148C154.839 132.444 153.53 133.619 152.221 134.726L154.369 134.827L156.886 134.961L159.404 135.095L161.921 135.23C161.082 135.263 160.243 135.263 159.404 135.263L156.886 135.23C156.047 135.23 155.208 135.196 154.369 135.163L151.885 135.062L151.684 135.23C150.409 136.304 149.133 137.378 147.824 138.418C148.73 138.485 149.603 138.553 150.509 138.62L153.53 138.821L156.551 138.989L159.605 139.19C158.565 139.19 157.558 139.19 156.551 139.19L153.496 139.123C152.49 139.09 151.483 139.022 150.476 138.989L147.455 138.821H147.421C146.381 139.66 145.307 140.499 144.266 141.338L143.293 142.077L146.012 142.312L149.032 142.547L152.053 142.782L155.074 143.016C154.067 143.016 153.06 142.983 152.02 142.949L148.999 142.815C147.992 142.782 146.985 142.681 145.978 142.614L142.991 142.379H142.924C141.649 143.352 140.34 144.325 139.031 145.299C139.433 145.467 142.118 146.507 145.878 146.541C149.637 146.574 154.503 145.601 159.001 141.741C163.599 137.814 166.016 132.243 167.19 127.745C167.795 125.496 168.063 123.516 168.197 122.073C168.231 120.596 168.231 119.757 168.231 119.757Z" fill="#5F54FF"/>
<path d="M142.856 142.345L145.844 142.58C146.851 142.647 147.857 142.714 148.864 142.782L151.885 142.916C152.892 142.949 153.899 142.983 154.939 142.983L151.919 142.748L148.898 142.513L145.877 142.278L143.159 142.043L144.132 141.305C145.206 140.466 146.246 139.627 147.287 138.788H147.32L150.341 138.955C151.348 138.989 152.355 139.056 153.362 139.09L156.416 139.157C157.423 139.157 158.464 139.19 159.47 139.157L156.416 138.955L153.395 138.788L150.375 138.586C149.468 138.519 148.596 138.452 147.69 138.385C148.999 137.344 150.274 136.27 151.549 135.196L151.751 135.028L154.235 135.129C155.074 135.163 155.913 135.196 156.752 135.196L159.269 135.23C160.108 135.23 160.947 135.23 161.786 135.196L159.269 135.062L156.752 134.928L154.235 134.793L152.086 134.693C153.395 133.552 154.704 132.41 156.013 131.269H156.047C157.356 131.303 158.698 131.336 160.007 131.336L161.988 131.303C162.659 131.269 163.33 131.269 164.002 131.236C163.33 131.202 162.693 131.169 162.021 131.135L160.041 131.068C158.833 131.034 157.624 131.001 156.416 130.934C157.188 130.262 157.927 129.558 158.698 128.886L160.276 127.409H160.343C161.081 127.409 161.82 127.409 162.592 127.376C163.33 127.342 164.102 127.309 164.841 127.242C164.102 127.175 163.364 127.141 162.625 127.107C161.988 127.074 161.316 127.074 160.679 127.04L162.223 125.563C163.364 124.456 164.505 123.348 165.613 122.207C164.438 123.281 163.263 124.389 162.088 125.429L160.578 126.805C160.612 126.168 160.645 125.53 160.679 124.926L160.712 123.785C160.712 123.415 160.712 123.013 160.679 122.643C160.612 123.013 160.578 123.415 160.511 123.785L160.377 124.926C160.31 125.664 160.242 126.403 160.175 127.174L158.497 128.651C157.759 129.323 157.02 129.96 156.282 130.632C156.383 129.457 156.483 128.316 156.517 127.141C156.584 125.832 156.651 124.523 156.651 123.214C156.517 124.523 156.383 125.832 156.248 127.141C156.114 128.416 156.013 129.692 155.879 130.967C154.57 132.108 153.261 133.25 151.919 134.357L152.12 132.343C152.187 131.504 152.288 130.699 152.321 129.86C152.456 128.215 152.556 126.57 152.59 124.926C152.389 126.57 152.221 128.215 152.053 129.86C151.952 130.699 151.885 131.504 151.784 132.343L151.516 134.693L151.247 134.928C150.006 136.002 148.764 137.042 147.488 138.083L147.79 135.565C147.891 134.558 148.025 133.585 148.092 132.578C148.294 130.598 148.428 128.618 148.529 126.637C148.294 128.618 148.059 130.598 147.824 132.545C147.69 133.552 147.589 134.525 147.455 135.532L147.085 138.418C146.011 139.291 144.937 140.164 143.863 141.036L142.991 141.741L143.36 139.19C143.494 138.217 143.628 137.21 143.729 136.237C143.964 134.256 144.165 132.31 144.3 130.329C144.031 132.276 143.763 134.256 143.461 136.203C143.326 137.176 143.192 138.183 143.024 139.157L142.588 142.077C141.313 143.117 140.004 144.124 138.695 145.131C138.695 145.165 138.695 145.198 138.695 145.198C138.695 145.198 138.728 145.198 138.762 145.232C140.071 144.258 141.346 143.319 142.655 142.312L142.856 142.345Z" fill="#3A17B0"/>
<path d="M30.9555 105.862C30.9555 105.862 31.6939 106.097 32.9022 106.566C34.1105 107.036 35.7215 107.775 37.5339 108.748C41.1588 110.695 45.3878 113.648 48.0729 117.945C50.6909 122.174 51.0601 126.369 50.758 129.725C50.4559 133.048 49.449 135.431 49.3148 135.8C48.4757 134.559 47.6366 133.35 46.7975 132.108L47.2003 129.49C47.3345 128.618 47.5023 127.712 47.6366 126.839C47.9387 125.094 48.2407 123.315 48.5428 121.536C48.1065 123.281 47.7708 125.026 47.4016 126.772C47.2338 127.644 47.066 128.551 46.8982 129.423L46.4954 131.706L45.9248 130.833C45.22 129.792 44.5487 128.752 43.8775 127.712L44.3474 125.127C44.5152 124.254 44.683 123.348 44.8508 122.476C45.1864 120.697 45.5221 118.951 45.8577 117.173C45.3878 118.884 44.9851 120.663 44.6159 122.408C44.4145 123.281 44.2467 124.187 44.0788 125.06L43.6425 127.309C42.837 126.067 42.065 124.825 41.2595 123.55L41.0917 123.281L41.4944 121.2C41.6287 120.462 41.7965 119.723 41.9308 118.985C42.2328 117.508 42.5349 116.065 42.8034 114.588C42.4007 116.031 42.0315 117.475 41.6958 118.918C41.528 119.656 41.3602 120.361 41.1924 121.099L40.8232 122.878C39.9841 121.536 39.1786 120.227 38.3395 118.851C38.5744 117.71 38.8429 116.602 39.0779 115.461C39.3128 114.286 39.5813 113.145 39.7827 111.97C39.4471 113.111 39.1114 114.253 38.8429 115.394C38.5744 116.401 38.3395 117.441 38.1045 118.448C37.6346 117.676 37.1983 116.904 36.7284 116.132L35.6879 114.387C35.8558 113.716 35.99 113.078 36.1243 112.407L36.3257 111.4C36.3928 111.064 36.4599 110.728 36.4935 110.393C36.3592 110.728 36.2585 111.03 36.1578 111.366L35.8558 112.339C35.6879 112.876 35.5537 113.447 35.4194 113.984L34.5132 112.373C33.7748 111.131 33.07 109.889 32.3652 108.614C33.0364 109.889 33.7077 111.165 34.379 112.44L35.3187 114.118C34.7482 113.95 34.1776 113.783 33.607 113.615C32.9693 113.447 32.298 113.279 31.6603 113.111C32.298 113.38 32.9357 113.615 33.5734 113.85C34.2112 114.085 34.8489 114.286 35.4866 114.487L35.5537 114.521L36.4935 116.199C36.9634 117.005 37.4333 117.81 37.9031 118.582C36.8627 118.28 35.7886 117.978 34.7482 117.71L33.0029 117.24C32.4323 117.105 31.8617 116.938 31.2576 116.77C31.8281 116.971 32.3987 117.173 32.9693 117.374L34.681 117.945C35.8222 118.314 36.9634 118.649 38.1045 118.985H38.1381C38.9436 120.328 39.7491 121.67 40.5882 123.013L38.7087 122.509L36.527 121.939L34.3454 121.368L32.1302 120.797C32.8686 121.066 33.5734 121.267 34.3118 121.536L36.4935 122.207C37.2319 122.442 37.9367 122.643 38.6751 122.845L40.8567 123.449L40.991 123.65C41.7965 124.926 42.602 126.201 43.4411 127.443C42.6692 127.242 41.8636 127.074 41.0917 126.872L38.4402 126.201L35.7886 125.53L33.1035 124.859C33.9762 125.161 34.8824 125.429 35.7551 125.698L38.4066 126.47C39.2793 126.738 40.1855 126.94 41.0581 127.175L43.7096 127.846H43.7432C44.4145 128.853 45.0858 129.86 45.7906 130.867L46.4283 131.773L44.0453 131.236L41.3938 130.632L38.7422 130.027L36.0571 129.423C36.9298 129.692 37.8025 129.96 38.7087 130.195L41.3602 130.9C42.2328 131.135 43.1391 131.336 44.0117 131.538L46.6632 132.142H46.7304C47.5695 133.35 48.4085 134.525 49.2812 135.7C48.912 135.733 46.294 135.901 43.0384 134.894C39.7827 133.887 35.8558 131.706 33.0364 127.175C30.15 122.543 29.5794 117.072 29.8143 112.876C29.915 110.795 30.2171 108.983 30.4856 107.741C30.7205 106.6 30.9555 105.862 30.9555 105.862Z" fill="#655CFF"/>
<path d="M46.5961 132.243L43.9446 131.638C43.0719 131.437 42.1657 131.236 41.2931 131.001L38.6415 130.296C37.7689 130.061 36.8962 129.792 35.99 129.524L38.6751 130.128L41.3266 130.732L43.9782 131.336L46.3612 131.873L45.7235 130.967C45.0522 129.96 44.3474 128.953 43.6761 127.946H43.6425L40.991 127.275C40.1183 127.04 39.2121 126.839 38.3395 126.57L35.6879 125.798C34.8153 125.53 33.9426 125.261 33.0364 124.959L35.7215 125.631L38.373 126.302L41.0246 126.973C41.7965 127.175 42.6021 127.342 43.374 127.544C42.5349 126.268 41.7294 125.026 40.9239 123.751L40.7896 123.55L38.608 122.945C37.8696 122.744 37.1648 122.543 36.4264 122.308L34.2447 121.637C33.5399 121.402 32.8015 121.167 32.0631 120.898L34.2783 121.469L36.4599 122.039L38.6415 122.61L40.5211 123.113C39.682 121.771 38.8765 120.428 38.071 119.086H38.0374C36.8962 118.75 35.7551 118.414 34.6139 118.045L32.9022 117.475C32.3316 117.273 31.761 117.072 31.1904 116.87C31.761 117.005 32.3652 117.173 32.9357 117.34L34.681 117.81C35.7215 118.112 36.7956 118.414 37.836 118.683C37.3661 117.877 36.8962 117.105 36.4264 116.3L35.4866 114.622L35.4194 114.588C34.7817 114.387 34.144 114.185 33.5063 113.95C32.8686 113.716 32.2309 113.481 31.5932 113.212C32.2645 113.346 32.9022 113.514 33.5399 113.716C34.1105 113.883 34.681 114.051 35.2516 114.219L34.3118 112.541C33.6406 111.265 32.9693 109.99 32.298 108.715C33.0029 109.956 33.7077 111.232 34.4461 112.474L35.3523 114.085C35.4866 113.514 35.6208 112.977 35.7886 112.44L36.0907 111.467C36.1914 111.131 36.2921 110.829 36.4264 110.493C36.3928 110.829 36.2921 111.165 36.2585 111.5L36.0572 112.507C35.9229 113.178 35.7551 113.816 35.6208 114.487L36.6613 116.233C37.0976 117.005 37.5675 117.777 38.0374 118.549C38.2723 117.508 38.5073 116.501 38.7758 115.494C39.0779 114.353 39.3799 113.212 39.7156 112.071C39.4806 113.246 39.2457 114.387 39.0107 115.562C38.7758 116.703 38.5073 117.81 38.2723 118.951C39.0779 120.294 39.917 121.637 40.7561 122.979L41.1253 121.2C41.2931 120.462 41.4273 119.723 41.6287 119.019C41.9643 117.575 42.3335 116.132 42.7363 114.689C42.4678 116.166 42.1657 117.609 41.8637 119.086C41.7294 119.824 41.5616 120.562 41.4273 121.301L41.0246 123.382L41.1924 123.65C41.9643 124.892 42.7699 126.168 43.5754 127.409L44.0117 125.161C44.1795 124.288 44.3474 123.382 44.5487 122.509C44.9179 120.764 45.3543 118.985 45.7906 117.273C45.455 119.052 45.1193 120.797 44.7837 122.576C44.6159 123.449 44.448 124.355 44.2802 125.228L43.8103 127.812C44.4816 128.853 45.1864 129.893 45.8577 130.934L46.4283 131.806L46.8311 129.524C46.9989 128.651 47.1331 127.745 47.3345 126.872C47.6702 125.127 48.0394 123.382 48.4757 121.637C48.1736 123.415 47.8715 125.161 47.5695 126.94C47.4352 127.812 47.2674 128.718 47.1331 129.591L46.7975 132.075C47.6366 133.317 48.4757 134.559 49.3148 135.767C49.3148 135.8 49.2812 135.8 49.2812 135.8C49.2812 135.8 49.2476 135.8 49.2141 135.8C48.3414 134.626 47.5023 133.417 46.6632 132.243H46.5961Z" fill="#3A17B0"/>
<path d="M25.89 111.882L23.4128 113.363L37.2988 136.58L39.7759 135.098L25.89 111.882Z" fill="#FF8AB9"/>
<path d="M25.8873 111.87L23.4036 113.346L22.3967 109.084C22.3631 108.949 22.531 108.849 22.6316 108.949L25.8873 111.87Z" fill="#FAD6B1"/>
<path d="M22.3967 109.084L22.6652 110.225L23.5043 109.721L22.6316 108.949C22.531 108.849 22.3631 108.949 22.3967 109.084Z" fill="#FF8AB9"/>
<path d="M25.0836 112.364L24.2483 112.864L38.1342 136.08L38.9695 135.58L25.0836 112.364Z" fill="white"/>
<path d="M41.1588 138.889L40.0176 139.56C39.6484 139.795 39.145 139.661 38.9436 139.292L37.299 136.573L39.7827 135.096L41.4273 137.815C41.6622 138.184 41.528 138.654 41.1588 138.889Z" fill="#F6B7C5"/>
<path d="M39.7782 135.086L37.301 136.567L38.1624 138.008L40.6396 136.526L39.7782 135.086Z" fill="#CCCBCB"/>
<path d="M39.9491 135.409L37.4719 136.891L37.9543 137.698L40.4315 136.216L39.9491 135.409Z" fill="#C6C6C5"/>
<path d="M18 125.798C18 125.798 18.8055 125.597 20.1816 125.396C21.5577 125.194 23.4709 124.959 25.6861 124.892C30.1165 124.758 35.6544 125.194 40.4876 127.779C45.2201 130.296 47.838 134.021 49.382 137.277C50.8923 140.533 51.2615 143.319 51.2951 143.721C49.8518 143.017 48.4086 142.345 46.9654 141.64L45.9249 138.955C45.5893 138.049 45.2536 137.143 44.8844 136.237C44.2132 134.424 43.5419 132.645 42.8706 130.833C43.4076 132.679 44.0118 134.491 44.6495 136.337C44.9516 137.244 45.2872 138.15 45.6228 139.056L46.4955 141.405L45.4886 140.902C44.2803 140.298 43.072 139.727 41.8973 139.123L40.9239 136.472C40.5883 135.565 40.2862 134.626 39.9506 133.719C39.3129 131.907 38.6752 130.061 38.0039 128.249C38.5074 130.095 39.0779 131.941 39.6821 133.787C39.9842 134.726 40.2862 135.633 40.6219 136.539L41.4274 138.888C40.0177 138.15 38.608 137.445 37.1984 136.673L36.8963 136.505L36.1579 134.324C35.8894 133.552 35.6545 132.78 35.3859 132.041C34.8489 130.531 34.3455 128.987 33.842 127.477C34.2448 129.02 34.6811 130.564 35.151 132.108C35.3859 132.88 35.6209 133.652 35.8894 134.424L36.4935 136.27C34.9832 135.465 33.5064 134.693 32.0296 133.887C31.6604 132.712 31.2576 131.504 30.8884 130.329C30.4857 129.121 30.0829 127.913 29.6801 126.705C29.9486 127.946 30.2843 129.188 30.6535 130.397C30.9555 131.504 31.2912 132.578 31.6268 133.652C30.7877 133.182 29.9486 132.712 29.1096 132.243L27.1964 131.169C26.995 130.464 26.7601 129.792 26.5587 129.088L26.1895 128.014C26.0553 127.678 25.9546 127.309 25.8203 126.973C25.8874 127.342 25.9546 127.712 26.0553 128.047L26.3238 129.121C26.458 129.725 26.6258 130.296 26.7937 130.9L25.0819 129.927C23.7394 129.155 22.3968 128.383 21.0543 127.611C22.3633 128.45 23.6723 129.255 25.0148 130.095L26.7937 131.169C26.1895 131.303 25.5518 131.471 24.9477 131.638C24.2428 131.84 23.538 132.008 22.8667 132.243C23.6051 132.142 24.31 132.041 25.0148 131.907C25.7196 131.773 26.4245 131.605 27.1293 131.471L27.1964 131.437L29.0089 132.478C29.8815 132.981 30.7206 133.451 31.5933 133.954C30.4521 134.256 29.3109 134.559 28.1698 134.827L26.2902 135.33C25.6861 135.498 25.0484 135.666 24.4106 135.834C25.0484 135.733 25.6861 135.599 26.3238 135.498L28.2369 135.096C29.5123 134.827 30.7542 134.525 31.996 134.189H32.0296C33.5064 135.028 34.9832 135.834 36.4935 136.639L34.4797 137.21L32.1303 137.848L29.7808 138.485L27.4314 139.157C28.2369 138.989 29.0424 138.821 29.8479 138.653L32.231 138.083C33.0365 137.915 33.8085 137.68 34.614 137.479L36.9634 136.841L37.1984 136.975C38.6416 137.713 40.0848 138.452 41.5281 139.19C40.689 139.459 39.8499 139.694 39.0108 139.929L36.1915 140.734L33.3386 141.54L30.4857 142.379C31.459 142.177 32.4323 141.942 33.4057 141.708L36.2922 140.969C37.2319 140.734 38.2053 140.466 39.1451 140.197L41.9644 139.392H41.998C43.1727 139.962 44.3474 140.533 45.5221 141.103L46.5962 141.607L44.0789 142.412L41.2931 143.285L38.4738 144.158L35.6545 145.03C36.6278 144.795 37.5676 144.56 38.5409 144.326L41.3938 143.554C42.3336 143.285 43.2734 143.017 44.2132 142.714L46.9989 141.842L47.0661 141.808C48.5093 142.48 49.919 143.117 51.3622 143.755C51.0266 143.99 48.6771 145.534 45.1194 146.373C41.5616 147.212 36.6949 147.313 31.6268 144.594C26.4245 141.842 22.9339 137.042 20.8865 133.048C19.846 131.034 19.1747 129.222 18.7384 127.879C18.2014 126.604 18 125.798 18 125.798Z" fill="#05D9E5"/>
<path d="M46.8983 141.875L44.1125 142.748C43.1727 143.016 42.2329 143.319 41.2932 143.587L38.4402 144.359C37.4669 144.594 36.5271 144.862 35.5538 145.064L38.3731 144.191L41.1925 143.319L43.9782 142.446L46.4955 141.64L45.4215 141.137C44.2467 140.566 43.072 139.996 41.8973 139.425H41.8637L39.0444 140.231C38.1046 140.499 37.1648 140.768 36.1915 141.003L33.305 141.741C32.3317 141.976 31.3583 142.211 30.385 142.412L33.2379 141.573L36.0908 140.768L38.9101 139.962C39.7492 139.727 40.5883 139.459 41.4274 139.224C39.9842 138.485 38.5409 137.747 37.0977 137.009L36.8628 136.874L34.5133 137.512C33.7413 137.713 32.9358 137.915 32.1303 138.116L29.7473 138.687C28.9417 138.855 28.1362 139.022 27.3307 139.19L29.6801 138.519L32.0296 137.881L34.3791 137.244L36.3929 136.673C34.9161 135.867 33.4057 135.062 31.9289 134.223H31.8953C30.6535 134.525 29.4116 134.861 28.1362 135.129L26.2231 135.532C25.5854 135.666 24.9477 135.767 24.31 135.867C24.9141 135.7 25.5518 135.532 26.1895 135.364L28.0691 134.861C29.2103 134.558 30.3514 134.256 31.4926 133.988C30.6199 133.518 29.7473 133.015 28.9082 132.511L27.0958 131.471L27.0286 131.504C26.3238 131.672 25.619 131.84 24.9141 131.94C24.2093 132.075 23.4709 132.209 22.766 132.276C23.4709 132.041 24.1422 131.873 24.847 131.672C25.4511 131.504 26.0888 131.37 26.693 131.202L24.9141 130.128C23.6051 129.323 22.2626 128.483 20.9536 127.644C22.2962 128.416 23.6387 129.222 24.9812 129.96L26.693 130.934C26.5252 130.329 26.3574 129.759 26.2231 129.155L25.9546 128.081C25.8875 127.711 25.7868 127.376 25.7196 127.007C25.8539 127.342 25.9882 127.711 26.0888 128.047L26.458 129.121C26.693 129.826 26.8944 130.497 27.0958 131.202L29.0089 132.276C29.848 132.746 30.6871 133.216 31.5261 133.686C31.1905 132.612 30.8549 131.504 30.5528 130.43C30.2172 129.188 29.8815 127.98 29.5795 126.738C29.9822 127.946 30.385 129.155 30.7877 130.363C31.1569 131.538 31.5597 132.746 31.9289 133.921C33.4057 134.726 34.9161 135.532 36.3929 136.304L35.7887 134.458C35.5538 133.686 35.2853 132.914 35.0503 132.142C34.5804 130.598 34.1441 129.054 33.7413 127.51C34.2784 129.02 34.7818 130.564 35.2853 132.075C35.5538 132.847 35.7887 133.619 36.0572 134.357L36.7956 136.539L37.0977 136.707C38.5074 137.445 39.917 138.183 41.3267 138.922L40.5212 136.572C40.2191 135.666 39.8835 134.726 39.5814 133.82C38.9773 131.974 38.4067 130.128 37.9032 128.282C38.5409 130.094 39.1786 131.94 39.8499 133.753C40.1856 134.659 40.4876 135.599 40.8233 136.505L41.7966 139.157C43.0049 139.761 44.1796 140.365 45.3879 140.936L46.3948 141.439L45.5222 139.09C45.1865 138.183 44.8509 137.277 44.5488 136.371C43.9111 134.558 43.307 132.712 42.7699 130.866C43.4412 132.679 44.1125 134.491 44.7838 136.27C45.1194 137.176 45.455 138.083 45.8242 138.989L46.8647 141.674C48.3079 142.379 49.7512 143.084 51.1944 143.755C51.1944 143.788 51.1944 143.822 51.1944 143.822C51.1944 143.822 51.1608 143.822 51.1608 143.856C49.7176 143.218 48.2744 142.58 46.8647 141.909L46.8983 141.875Z" fill="#3A17B0"/>
<path d="M144.501 145.937L45.3542 146.004L45.3207 78.2724C45.3207 76.7956 46.529 75.5537 48.0058 75.5537L141.749 75.4866C143.226 75.4866 144.468 76.6949 144.468 78.1717L144.501 145.937Z" fill="white"/>
<path d="M141.034 142.445L140.992 79.0102L48.8266 79.0703L48.8679 142.506L141.034 142.445Z" fill="#F8F6F5"/>
<path d="M107.581 79.0108L48.8112 79.0443L48.8447 142.48L107.615 142.446H141.01L140.977 79.0108H107.581Z" fill="#D4DCFF"/>
<path d="M153.328 149.864L36.5606 149.931C35.3188 149.931 34.3119 148.924 34.3119 147.682V146.306C34.3119 146.138 34.4461 145.97 34.6475 145.97L155.275 145.903C155.443 145.903 155.611 146.037 155.611 146.239V147.615C155.577 148.857 154.57 149.864 153.328 149.864Z" fill="#E7E7E7"/>
<path d="M34.5804 148.79C34.9496 149.494 35.688 149.964 36.5607 149.964L153.328 149.897C154.168 149.897 154.906 149.427 155.309 148.722L34.5804 148.79Z" fill="#B5B4B5"/>
<path d="M101.439 147.514H88.4498C87.5772 147.514 86.8723 146.809 86.8723 145.937H102.983C102.983 146.809 102.278 147.514 101.439 147.514Z" fill="#B5B4B5"/>
<path d="M94.8943 78.1046C94.5587 78.1046 94.3237 77.8361 94.3237 77.534C94.3237 77.1984 94.5922 76.9634 94.8943 76.9634C95.2299 76.9634 95.4649 77.2319 95.4649 77.534C95.4649 77.8361 95.2299 78.1046 94.8943 78.1046ZM94.8943 77.2655C94.7601 77.2655 94.6594 77.3662 94.6594 77.5004C94.6594 77.6347 94.7601 77.7354 94.8943 77.7354C95.0286 77.7354 95.1293 77.6347 95.1293 77.5004C95.1293 77.3662 95.0286 77.2655 94.8943 77.2655Z" fill="#D7D8DC"/>
<path fill-rule="evenodd" clip-rule="evenodd" d="M119.813 24C123.599 25.2872 127.251 26.8667 130.74 28.7117V141.808H60.0886V28.8026C63.6298 26.9185 67.3388 25.3083 71.1874 24L119.813 24Z" fill="url(#paint0_linear_33_15)"/>
<path d="M106.742 42.6613H66.7344V44.1717H106.742V42.6613Z" fill="#A1B2FF"/>
<path d="M106.742 45.9505H66.7344V47.4609H106.742V45.9505Z" fill="white"/>
<path d="M106.742 49.2398H66.7344V50.7501H106.742V49.2398Z" fill="white"/>
<path d="M124.195 42.6613H116.106V50.7501H124.195V42.6613Z" fill="white"/>
<path d="M124.23 55.0126H84.2222V56.523H124.23V55.0126Z" fill="#A1B2FF"/>
<path d="M84.2158 59.8048L124.224 59.8048V58.2944L84.2158 58.2944V59.8048Z" fill="white"/>
<path d="M84.2158 63.1001L124.224 63.1001V61.5897L84.2158 61.5897V63.1001Z" fill="white"/>
<path d="M66.7693 63.094H74.8582V55.0052H66.7693V63.094Z" fill="white"/>
<path d="M106.742 67.3305H66.7344V68.8409H106.742V67.3305Z" fill="#D4DCFF"/>
<path d="M106.742 70.6198H66.7344V72.1301H106.742V70.6198Z" fill="white"/>
<path d="M106.742 73.909H66.7344V75.4194H106.742V73.909Z" fill="white"/>
<path d="M124.195 67.3305H116.106V75.4194H124.195V67.3305Z" fill="white"/>
<path d="M124.23 79.6819H84.2222V81.1922H124.23V79.6819Z" fill="#D4DCFF"/>
<path d="M84.2158 84.4868H124.224V82.9765H84.2158V84.4868Z" fill="white"/>
<path d="M84.2158 87.7821H124.224V86.2718H84.2158V87.7821Z" fill="white"/>
<path d="M66.7693 87.776H74.8582V79.6872H66.7693V87.776Z" fill="white"/>
<path d="M124.104 28.456L66.656 30.6886L66.8463 35.5849L124.295 33.3524L124.104 28.456Z" fill="#3A17B0"/>
<path d="M120.47 48.9041C120.268 48.9041 120.1 48.837 119.966 48.7027L117.583 46.4875C117.281 46.219 117.248 45.7156 117.55 45.4135C117.852 45.1114 118.322 45.0778 118.624 45.3799L120.302 46.9574L124.195 40.4461C124.397 40.0769 124.866 39.9762 125.236 40.1776C125.605 40.3789 125.706 40.8488 125.504 41.218L121.141 48.5349C121.007 48.7363 120.839 48.8705 120.604 48.9041C120.537 48.9041 120.503 48.9041 120.47 48.9041Z" fill="#05D9E5"/>
<path d="M120.47 73.0363C120.268 73.0363 120.1 72.9692 119.966 72.8349L117.583 70.6197C117.281 70.3512 117.248 69.8478 117.55 69.5457C117.852 69.2436 118.322 69.2101 118.624 69.5122L120.302 71.0896L124.195 64.5783C124.397 64.2091 124.866 64.1084 125.236 64.3098C125.605 64.5112 125.706 64.9811 125.504 65.3503L121.141 72.6671C121.007 72.8685 120.839 73.0028 120.604 73.0363C120.537 73.0363 120.503 73.0363 120.47 73.0363Z" fill="#05D9E5"/>
<path d="M71.1984 60.9199C70.997 60.9199 70.8292 60.8527 70.6949 60.7185L68.3119 58.5033C68.0098 58.2348 67.9763 57.7313 68.2783 57.4293C68.5804 57.1272 69.0503 57.0936 69.3524 57.3957L71.0306 58.9732L74.9239 52.4618C75.1253 52.0926 75.5952 51.992 75.9644 52.1933C76.3336 52.3947 76.4343 52.8646 76.2329 53.2338L71.8696 60.5507C71.7354 60.7521 71.5676 60.8863 71.3326 60.9199C71.2655 60.9199 71.2319 60.9199 71.1984 60.9199Z" fill="#05D9E5"/>
<path d="M71.1984 85.1528C70.997 85.1528 70.8292 85.0857 70.6949 84.9514L68.3119 82.7362C68.0098 82.4677 67.9763 81.9642 68.2783 81.6622C68.5804 81.3601 69.0503 81.3265 69.3524 81.6286L71.0306 83.2061L74.9239 76.6948C75.1253 76.3256 75.5952 76.2249 75.9644 76.4262C76.3336 76.6276 76.4343 77.0975 76.2329 77.4667L71.8696 84.7836C71.7354 84.985 71.5676 85.1192 71.3326 85.1528C71.2655 85.1528 71.2319 85.1528 71.1984 85.1528Z" fill="#05D9E5"/>
<path d="M102.077 89.2812H88.3826V103.68H102.077V89.2812Z" fill="#FFC09C"/>
<path d="M82.1064 77.1312C82.0393 76.2921 81.3009 75.6544 80.4282 75.7215C79.4885 75.7887 78.8507 76.6949 79.0521 77.6011C79.0521 77.6011 79.8241 78.9772 80.5625 81.0246C80.9653 82.0986 80.9652 83.2062 80.8646 84.3474C80.831 84.9515 81.2002 85.5557 81.9722 85.5221C83.6168 85.4214 82.1064 77.1312 82.1064 77.1312Z" fill="#FFC09C"/>
<path d="M108.991 79.1115C109.091 78.2724 109.863 77.6682 110.702 77.7689C111.642 77.8696 112.246 78.8094 112.011 79.7156C112.011 79.7156 111.206 81.0917 110.4 83.072C109.964 84.1125 109.93 85.2536 109.998 86.3948C110.031 86.9989 109.628 87.6031 108.856 87.5359C107.212 87.3346 108.991 79.1115 108.991 79.1115Z" fill="#FFC09C"/>
<path d="M61.7673 147.883H57.1355V145.567C57.1355 143.017 59.2164 140.936 61.7673 140.936V147.883Z" fill="#FFB78D"/>
<path d="M65.1917 125.664L57.3378 147.078C57.0357 147.883 57.1029 148.756 57.4721 149.494L58.1098 150.77C58.7475 152.045 60.1572 152.716 61.5333 152.381C63.8156 151.844 65.6952 150.199 66.5007 148.018L73.5155 128.886L65.1917 125.664Z" fill="#FFC09C"/>
<path d="M128.659 147.883H133.291V145.567C133.291 143.017 131.21 140.936 128.659 140.936V147.883Z" fill="#FFB78D"/>
<path d="M125.27 125.664L133.123 147.078C133.426 147.883 133.358 148.756 132.989 149.494L132.351 150.77C131.714 152.045 130.304 152.716 128.928 152.381C126.646 151.844 124.766 150.199 123.961 148.018L116.946 128.886L125.27 125.664Z" fill="#FFC09C"/>
<path fill-rule="evenodd" clip-rule="evenodd" d="M70.1111 166.625C70.6088 153.008 75.7297 131.739 75.7297 131.739L62.3713 126.302C65.862 114.152 72.7761 108.043 78.314 105.023C81.8718 103.076 85.8659 102.103 89.927 102.103H100.533C104.393 102.103 108.219 102.975 111.643 104.754C117.248 107.708 124.464 113.783 128.122 126.302L114.764 131.739C114.764 131.739 119.131 153.293 119.281 167.179C111.804 169.658 103.809 171 95.5 171C86.5926 171 78.0454 169.457 70.1111 166.625Z" fill="#FF8AB9"/>
<path d="M121.174 91.6642C121.007 91.4628 120.805 91.2615 120.671 91.0265C120.436 90.6237 120.503 90.758 120.839 90.3888C122.383 88.6435 123.188 86.1598 123.088 83.7432C122.886 78.7087 118.489 75.0167 113.992 75.5872C113.925 73.8755 112.112 73.1035 110.736 72.8686C109.964 72.7343 109.092 72.8015 108.823 71.8281C108.655 71.224 108.789 70.5863 108.689 69.9821C108.521 69.0088 108.018 68.1361 107.346 67.4649C106.172 66.2566 104.661 65.7531 103.084 65.6524C102.446 65.6189 101.741 65.8202 101.171 65.4846C100.6 65.149 100.466 64.4106 99.7273 64.3099C98.7875 64.1756 97.7471 65.1154 97.1094 63.9071C96.8073 63.3701 96.673 62.7995 96.136 62.4639C94.6592 61.5912 92.981 62.9002 91.8399 63.84C91.2022 64.377 90.6987 64.9812 89.8932 65.2832C88.987 65.6189 88.0472 65.4846 87.141 65.6189C85.7984 65.8202 84.5566 66.4244 83.5832 67.4313C82.9455 68.1026 82.4421 68.9752 82.2407 69.9486C82.14 70.5527 82.2407 71.224 82.1064 71.7946C81.8379 72.7679 80.9653 72.7008 80.1933 72.835C78.8172 73.0364 77.0048 73.8084 76.9376 75.5537C72.4066 74.9831 68.0433 78.6751 67.8419 83.7096C67.7412 86.1262 68.5467 88.6099 70.0907 90.3552C70.4263 90.7244 70.4934 90.6237 70.2585 90.9929C70.1242 91.2279 69.8893 91.4293 69.755 91.6306C69.3858 92.1677 69.0838 92.7383 68.8488 93.3424C68.4125 94.4836 68.2447 95.7254 68.4125 96.9337C68.7146 99.6188 70.527 101.868 72.8429 102.74C71.5003 105.257 74.0512 107.842 76.1657 108.48C77.4747 108.882 78.7165 108.815 79.9584 108.547C81.066 108.614 82.0393 108.681 83.0127 109.52C83.7511 110.158 84.3552 110.93 85.0936 111.567C87.6444 113.749 91.2357 115.092 94.29 113.212C95.6997 112.339 96.6395 110.728 98.0491 109.889C100.029 108.681 101.708 110.728 103.654 110.896C105.03 110.997 106.239 110.493 107.111 109.587C108.118 108.547 109.595 108.11 111.005 108.513C112.213 108.849 113.455 108.916 114.764 108.547C116.878 107.909 119.429 105.325 118.087 102.807C120.402 101.901 122.215 99.6859 122.517 97.0008C122.651 95.7925 122.483 94.5171 122.081 93.4095C121.846 92.7718 121.544 92.2012 121.174 91.6642Z" fill="#2B1B63"/>
<path d="M89.4905 65.6524C87.5773 65.149 85.0601 63.6722 83.1134 64.8804C81.5359 65.8874 81.5695 67.7669 82.5764 69.2773C82.7106 69.4787 82.9791 69.2437 82.8449 69.0423C82.3079 68.2368 81.9051 67.2299 82.3078 66.2901C82.7106 65.3168 83.684 64.6455 84.6237 64.5784C86.2012 64.4777 87.678 65.5181 89.1884 65.9209C89.4233 65.9545 89.6918 65.686 89.4905 65.6524Z" fill="#2B1B63"/>
<path d="M69.6544 87.3345C68.4125 90.4559 65.6268 94.2821 66.8015 97.8399C67.7748 100.793 70.3928 101.163 72.7422 99.8873C73.0443 99.7195 72.8094 99.1824 72.5073 99.3502C71.2655 100.055 69.7551 100.458 68.5132 99.5181C67.305 98.5783 66.6001 96.7659 66.7679 95.1884C67.07 92.5033 68.9496 90.2881 69.9229 87.8715C70.0907 87.5023 69.7887 86.9653 69.6544 87.3345Z" fill="#2B1B63"/>
<path d="M119.832 83.4747C119.295 80.1183 119.664 75.2852 116.845 73.0028C114.529 71.1233 112.146 72.3987 110.871 74.8824C110.703 75.218 111.173 75.5201 111.341 75.1845C112.012 73.8419 113.086 72.6001 114.596 72.6336C116.107 72.7008 117.617 73.7748 118.255 75.1845C119.362 77.6011 118.926 80.5882 119.362 83.1726C119.396 83.5754 119.899 83.8439 119.832 83.4747Z" fill="#2B1B63"/>
<path d="M95.1626 62.3968C95.6325 61.2556 95.6996 59.8459 94.7934 58.9733C93.4173 57.6307 91.8734 59.2418 91.0678 60.4165C90.9336 60.6179 91.2692 60.5172 91.4035 60.3158C92.1754 59.2418 93.8872 57.6643 94.9612 59.4432C95.6996 60.6515 95.0284 62.4303 94.1893 63.3701C94.0215 63.5379 94.29 63.8064 94.4242 63.6386C94.4242 63.6386 94.4242 63.6051 94.4578 63.6051C94.4578 63.7729 94.6927 63.8736 94.7934 63.7058C95.6661 62.1283 96.9079 60.9535 98.4518 60.1816C97.8141 60.2151 95.9681 61.2892 95.1626 62.3968Z" fill="#2B1B63"/>
<path d="M120.805 90.6573C121.946 90.758 123.188 90.3552 123.658 89.1134C124.363 87.2338 122.651 87.1331 121.342 86.6632C121.141 86.5961 121.309 86.8982 121.544 86.9653C122.752 87.3681 124.464 87.7037 123.289 89.3819C122.484 90.5566 120.738 90.4559 119.631 89.9189C119.429 89.8182 119.295 90.1538 119.496 90.2545H119.53C119.396 90.3216 119.396 90.5566 119.563 90.6237C121.208 90.9929 122.685 91.8656 123.826 93.1746C123.591 92.6375 122.047 91.1272 120.805 90.6573Z" fill="#2B1B63"/>
<path d="M76.9711 75.5537C75.83 75.3858 74.5881 75.755 74.0511 76.9633C73.2791 78.8093 75.1587 79.9169 76.4341 80.4204C76.6355 80.4875 76.4677 80.1854 76.2663 80.1183C75.0916 79.6484 73.212 78.3394 74.4203 76.6948C75.2594 75.5872 77.0383 75.755 78.1123 76.3256C78.3137 76.4263 78.4815 76.0907 78.2801 75.99H78.2466C78.3808 75.9229 78.4144 75.6879 78.213 75.6208C76.5684 75.1845 75.1587 74.2447 74.0511 72.8686C74.2861 73.4727 75.7628 75.0502 76.9711 75.5537Z" fill="#2B1B63"/>
<path d="M104.225 63.3701C102.345 62.9338 100.868 64.7462 99.4588 65.7531C99.2574 65.8874 99.4588 66.1894 99.6602 66.0552C100.835 65.2161 101.909 63.6386 103.386 63.4708C105.467 63.2359 105.836 66.0216 105.634 67.8005C105.601 68.0354 105.97 68.0019 105.97 67.7669C105.903 66.3237 105.869 63.7729 104.225 63.3701Z" fill="#2B1B63"/>
<path d="M121.779 132.343C119.966 127.376 115.636 124.221 110.266 125.06C107.212 125.53 104.359 127.007 101.775 128.618C101.741 128.651 101.708 128.651 101.708 128.685C96.8409 131.773 90.6987 131.773 85.832 128.685C85.7985 128.651 85.7649 128.651 85.7649 128.618C83.1805 126.973 80.3276 125.53 77.2733 125.06C71.8696 124.221 67.5734 127.376 65.761 132.343C61.9347 142.815 67.9091 155.603 77.374 160.772C82.375 163.49 105.232 163.49 110.199 160.772C119.664 155.603 125.605 142.815 121.779 132.343Z" fill="#00D0DB"/>
<path d="M94.0553 162.114C85.3958 162.114 79.69 161.174 78.079 160.268C68.6812 155.133 63.6466 142.882 67.0701 133.552C68.4798 129.692 71.467 127.409 75.0583 127.409C75.5282 127.409 75.998 127.443 76.4679 127.51C79.5558 127.98 82.4758 129.658 84.3889 130.9L84.4561 130.967C87.3425 132.78 90.6318 133.753 94.0217 133.753C97.4116 133.753 100.701 132.78 103.587 130.967L103.688 130.9C105.601 129.692 108.521 128.014 111.609 127.544C112.079 127.477 112.582 127.443 113.019 127.443C116.61 127.443 119.597 129.759 121.007 133.585C124.43 142.949 119.396 155.167 109.998 160.302C108.387 161.141 102.715 162.114 94.0553 162.114Z" fill="#05D9E5"/>
<path d="M114.059 139.392C114.059 138.72 113.388 138.217 112.65 138.318C100.13 139.929 87.3762 139.929 74.8569 138.351C74.1185 138.25 73.4473 138.754 73.4473 139.425V145.836C73.4473 145.97 73.4473 152.918 73.4473 152.918C73.4473 153.455 73.9172 153.925 74.5213 153.992C87.2755 155.502 100.231 155.502 113.019 153.958C113.623 153.891 114.093 153.421 114.093 152.884V139.392H114.059Z" fill="#2B1B63"/>
<path fill-rule="evenodd" clip-rule="evenodd" d="M80.3094 169.471C79.1078 169.226 77.9165 168.952 76.7363 168.65V141.64H82.8113L80.3094 169.471Z" fill="#2B1B63"/>
<path fill-rule="evenodd" clip-rule="evenodd" d="M107.618 170.033L105.635 141.64H110.804V169.448C109.749 169.665 108.687 169.86 107.618 170.033Z" fill="#2B1B63"/>
<defs>
<filter id="filter0_d_33_15" x="0" y="0" width="191" height="191" filterUnits="userSpaceOnUse" color-interpolation-filters="sRGB">
<feFlood flood-opacity="0" result="BackgroundImageFix"/>
<feColorMatrix in="SourceAlpha" type="matrix" values="0 0 0 0 0 0 0 0 0 0 0 0 0 0 0 0 0 0 127 0" result="hardAlpha"/>
<feOffset/>
<feGaussianBlur stdDeviation="10"/>
<feColorMatrix type="matrix" values="0 0 0 0 0 0 0 0 0 0 0 0 0 0 0 0 0 0 0.6 0"/>
<feBlend mode="normal" in2="BackgroundImageFix" result="effect1_dropShadow_33_15"/>
<feBlend mode="normal" in="SourceGraphic" in2="effect1_dropShadow_33_15" result="shape"/>
</filter>
<linearGradient id="paint0_linear_33_15" x1="95.419" y1="141.808" x2="95.419" y2="24.0001" gradientUnits="userSpaceOnUse">
<stop offset="0.0281325" stop-color="white"/>
<stop offset="0.9918" stop-color="white" stop-opacity="0.2253"/>
</linearGradient>
</defs>
</svg>
