<svg width="191" height="191" viewBox="0 0 191 191" fill="none" xmlns="http://www.w3.org/2000/svg">
<g filter="url(#filter0_d_33_16)">
<path d="M171 95.5C171 137.198 137.198 171 95.5 171C53.8025 171 20 137.198 20 95.5C20 53.8025 53.8025 20 95.5 20C137.198 20 171 53.8025 171 95.5Z" fill="#F2C94C"/>
</g>
<path fill-rule="evenodd" clip-rule="evenodd" d="M153.658 143.648C164.489 130.579 171 113.8 171 95.5C171 53.8025 137.198 20 95.5 20C53.8025 20 20 53.8025 20 95.5C20 113.8 26.5107 130.579 37.3421 143.648H153.658Z" fill="#EEB341"/>
<path d="M66.8728 116.334H64.421V130.853H66.8728V116.334Z" fill="#8C6328"/>
<path d="M83.1924 88.9427C83.1924 88.2148 82.9242 87.5253 82.4645 87.0273C82.9242 86.5292 83.1924 85.8397 83.1924 85.1118C83.1924 84.269 82.8476 83.5412 82.2729 83.0048C82.771 82.5068 83.0774 81.7789 83.0774 81.0128C83.0774 79.7869 82.3112 78.7525 81.2386 78.3311C81.66 77.8331 81.8899 77.1819 81.8899 76.4923C81.8899 75.2664 81.1237 74.1938 80.0127 73.8107C80.1276 73.5042 80.2043 73.1595 80.2043 72.8147C80.2043 71.3589 79.0933 70.133 77.6759 69.9798C77.6376 68.4091 76.3734 67.1833 74.8027 67.1833C74.7261 67.1833 74.6495 67.1833 74.5729 67.1833C74.2664 65.9574 73.1554 65.0763 71.8146 65.0763C71.2783 65.0763 70.7803 65.2295 70.3589 65.4594C69.8992 64.5016 68.9031 63.8504 67.7922 63.8504C66.9111 63.8504 66.1066 64.2718 65.5703 64.8847C65.0339 64.2718 64.2678 63.927 63.425 63.927C62.4289 63.927 61.5478 64.425 61.0498 65.2295C60.5901 64.923 60.0538 64.7698 59.4792 64.7698C58.1 64.7698 56.9508 65.7275 56.6826 67.03C56.606 67.03 56.4911 67.03 56.4144 67.03C55.0736 67.03 53.9627 67.9494 53.6562 69.2136C52.1622 69.2136 50.9363 70.3629 50.8213 71.8186C49.4422 72.0102 48.3696 73.1978 48.3696 74.6535C48.3696 75.1898 48.5228 75.7261 48.791 76.1475C47.8716 76.6456 47.2586 77.565 47.2586 78.6759C47.2586 79.4421 47.5651 80.0934 48.0248 80.6297C47.4885 81.166 47.1437 81.8939 47.1437 82.6984C47.1437 83.3113 47.3352 83.9242 47.68 84.384C47.2586 84.882 46.9905 85.5332 46.9905 86.2228C46.9905 87.0656 47.3352 87.7934 47.9099 88.3298C47.3352 88.8661 46.9905 89.594 46.9905 90.4368C46.9905 91.2029 47.2969 91.8925 47.7566 92.3905C47.3735 92.8885 47.1054 93.5015 47.1054 94.191C47.1054 94.9189 47.3735 95.5701 47.7949 96.0682C47.2969 96.5662 46.9521 97.294 46.9521 98.0985C46.9521 98.903 47.2969 99.6309 47.8333 100.167C47.4502 100.665 47.2203 101.278 47.2203 101.929C47.2203 102.657 47.4885 103.309 47.9482 103.845C47.6034 104.305 47.4119 104.879 47.4119 105.492C47.4119 106.488 47.9482 107.408 48.7527 107.906C48.5994 108.25 48.5228 108.633 48.5228 109.055C48.5228 110.626 49.787 111.928 51.396 111.928H51.4343C51.3577 112.158 51.3194 112.426 51.3194 112.694C51.3194 114.265 52.5836 115.567 54.1925 115.567C54.2691 115.567 54.3458 115.567 54.4224 115.567C54.5373 117.061 55.7632 118.249 57.2572 118.249C57.7936 118.249 58.2533 118.096 58.6747 117.866C59.0194 119.015 60.1304 119.896 61.3946 119.896C62.1225 119.896 62.7737 119.628 63.2717 119.207C63.7698 119.973 64.6509 120.433 65.6086 120.433C66.6812 120.433 67.6006 119.858 68.0987 118.977C68.5967 119.475 69.3245 119.82 70.129 119.82C71.3932 119.82 72.4659 119.015 72.849 117.866C73.0788 117.943 73.347 117.981 73.6151 117.981C75.1858 117.981 76.45 116.717 76.4883 115.146C76.6798 115.184 76.8331 115.184 77.0246 115.184C78.5953 115.184 79.8978 113.92 79.8978 112.311C79.8978 112.043 79.8595 111.775 79.7829 111.545C81.162 111.353 82.1963 110.166 82.1963 108.71C82.1963 108.135 82.0048 107.599 81.7366 107.139C82.6177 106.641 83.2307 105.722 83.2307 104.611C83.2307 103.883 82.9625 103.232 82.5411 102.734C82.9625 102.236 83.2307 101.585 83.2307 100.857C83.2307 100.091 82.9242 99.3627 82.3879 98.8647C82.8859 98.3667 83.2307 97.6388 83.2307 96.8727C83.2307 96.1831 83.0008 95.5701 82.5794 95.0721C82.9625 94.5741 83.2307 93.9612 83.2307 93.2716C83.2307 92.4671 82.8859 91.701 82.3496 91.2029C82.8476 90.5134 83.1924 89.7472 83.1924 88.9427Z" fill="#6563CD"/>
<path d="M83.1924 88.9427C83.1924 88.2148 82.9242 87.5253 82.4645 87.0273C82.9242 86.5292 83.1924 85.8397 83.1924 85.1118C83.1924 84.269 82.8476 83.5412 82.2729 83.0048C82.771 82.5068 83.0774 81.7789 83.0774 81.0128C83.0774 79.7869 82.3112 78.7525 81.2386 78.3311C81.66 77.8331 81.8899 77.1819 81.8899 76.4923C81.8899 75.2664 81.1237 74.1938 80.0127 73.8107C80.1276 73.5042 80.2043 73.1595 80.2043 72.8147C80.2043 71.3589 79.0933 70.133 77.6759 69.9798C77.6376 68.4091 76.3734 67.1833 74.8027 67.1833C74.7261 67.1833 74.6495 67.1833 74.5729 67.1833C74.2664 65.9574 73.1554 65.0763 71.8146 65.0763C71.2783 65.0763 70.7803 65.2295 70.3589 65.4594C69.8992 64.5016 68.9031 63.8504 67.7922 63.8504C66.9111 63.8504 66.1066 64.2718 65.5703 64.8847C65.0339 64.2718 64.2678 63.927 63.425 63.927C62.4289 63.927 61.5478 64.425 61.0498 65.2295C60.5901 64.923 60.0538 64.7698 59.4792 64.7698C58.1 64.7698 56.9508 65.7275 56.6826 67.03C56.606 67.03 56.4911 67.03 56.4144 67.03C55.0736 67.03 53.9627 67.9494 53.6562 69.2136C52.1622 69.2136 50.9363 70.3629 50.8213 71.8186C49.4422 72.0102 48.3696 73.1978 48.3696 74.6535C48.3696 75.1898 48.5228 75.7261 48.791 76.1475C47.8716 76.6456 47.2586 77.565 47.2586 78.6759C47.2586 79.4421 47.5651 80.0934 48.0248 80.6297C47.4885 81.166 47.1437 81.8939 47.1437 82.6984C47.1437 83.3113 47.3352 83.9242 47.68 84.384C47.2586 84.882 46.9905 85.5332 46.9905 86.2228C46.9905 87.0656 47.3352 87.7934 47.9099 88.3298C47.3352 88.8661 46.9905 89.594 46.9905 90.4368C46.9905 91.2029 47.2969 91.8925 47.7566 92.3905C47.3735 92.8885 47.1054 93.5015 47.1054 94.191C47.1054 94.9189 47.3735 95.5701 47.7949 96.0682C47.2969 96.5662 46.9521 97.294 46.9521 98.0985C46.9521 98.903 47.2969 99.6309 47.8333 100.167C47.4502 100.665 47.2203 101.278 47.2203 101.929C47.2203 102.657 47.4885 103.309 47.9482 103.845C47.6034 104.305 47.4119 104.879 47.4119 105.492C47.4119 106.488 47.9482 107.408 48.7527 107.906C48.5994 108.25 48.5228 108.633 48.5228 109.055C48.5228 110.626 49.787 111.928 51.396 111.928H51.4343C51.3577 112.158 51.3194 112.426 51.3194 112.694C51.3194 114.265 52.5836 115.567 54.1925 115.567C54.2691 115.567 54.3458 115.567 54.4224 115.567C54.5373 117.061 55.7632 118.249 57.2572 118.249C57.7936 118.249 58.2533 118.096 58.6747 117.866C59.0194 119.015 60.1304 119.896 61.3946 119.896C62.1225 119.896 62.7737 119.628 63.2717 119.207C63.7698 119.973 64.6509 120.433 65.6086 120.433C66.6812 120.433 67.6006 119.858 68.0987 118.977C68.5967 119.475 69.3245 119.82 70.129 119.82C71.3932 119.82 72.4659 119.015 72.849 117.866C73.0788 117.943 73.347 117.981 73.6151 117.981C75.1858 117.981 76.45 116.717 76.4883 115.146C76.6798 115.184 76.8331 115.184 77.0246 115.184C78.5953 115.184 79.8978 113.92 79.8978 112.311C79.8978 112.043 79.8595 111.775 79.7829 111.545C81.162 111.353 82.1963 110.166 82.1963 108.71C82.1963 108.135 82.0048 107.599 81.7366 107.139C82.6177 106.641 83.2307 105.722 83.2307 104.611C83.2307 103.883 82.9625 103.232 82.5411 102.734C82.9625 102.236 83.2307 101.585 83.2307 100.857C83.2307 100.091 82.9242 99.3627 82.3879 98.8647C82.8859 98.3667 83.2307 97.6388 83.2307 96.8727C83.2307 96.1831 83.0008 95.5701 82.5794 95.0721C82.9625 94.5741 83.2307 93.9612 83.2307 93.2716C83.2307 92.4671 82.8859 91.701 82.3496 91.2029C82.8476 90.5134 83.1924 89.7472 83.1924 88.9427Z" fill="#6563CD"/>
<path d="M82.273 83.0431C82.771 82.5451 83.0775 81.8173 83.0775 81.0511C83.0775 79.8252 82.3113 78.7909 81.2386 78.3695C81.66 77.8715 81.8899 77.2202 81.8899 76.5306C81.8899 75.3048 81.1237 74.2321 80.0127 73.849C80.1277 73.5425 80.2043 73.1978 80.2043 72.853C80.2043 72.6231 80.166 72.4316 80.1277 72.24C80.0127 72.24 79.9361 72.24 79.8212 72.24C79.7446 72.24 79.668 72.24 79.5914 72.24C79.2849 71.0142 78.1739 70.1331 76.8331 70.1331C76.2968 70.1331 75.7988 70.2863 75.3774 70.5161C74.9177 69.5584 73.9216 68.9072 72.8107 68.9072C71.9296 68.9072 71.1251 69.3286 70.5888 69.9415C70.0524 69.3286 69.2863 68.9838 68.4435 68.9838C67.4474 68.9838 66.5663 69.4818 66.0683 70.2863C65.6086 69.9798 65.0723 69.8266 64.4976 69.8266C63.1185 69.8266 61.9693 70.7843 61.7011 72.0868C61.6245 72.0868 61.5096 72.0868 61.4329 72.0868C60.0921 72.0868 58.9812 73.0062 58.6747 74.2704C57.1807 74.2704 55.9548 75.4197 55.8398 76.8754C54.4607 77.067 53.3881 78.2545 53.3881 79.7103C53.3881 80.2466 53.5413 80.7829 53.8095 81.2043C52.8901 81.7023 52.2771 82.6218 52.2771 83.7327C52.2771 84.4989 52.5836 85.1501 53.0433 85.6865C52.507 86.2228 52.1622 86.9507 52.1622 87.7551C52.1622 88.3681 52.3537 88.981 52.6985 89.4407C52.2771 89.9387 52.009 90.59 52.009 91.2796C52.009 92.1224 52.3537 92.8502 52.9284 93.3865C52.3537 93.9229 52.009 94.6507 52.009 95.4935C52.009 96.2597 52.3154 96.9493 52.7751 97.4473C52.392 97.9453 52.1239 98.5583 52.1239 99.2478C52.1239 99.9757 52.392 100.627 52.8134 101.125C52.3154 101.623 51.9706 102.351 51.9706 103.155C51.9706 103.96 52.3154 104.688 52.8517 105.224C52.4687 105.722 52.2388 106.335 52.2388 106.986C52.2388 107.714 52.507 108.365 52.9667 108.902C52.6219 109.361 52.4303 109.936 52.4303 110.549C52.4303 111.545 52.9667 112.464 53.7712 112.962C53.6179 113.307 53.5413 113.69 53.5413 114.112C53.5413 114.648 53.6945 115.146 53.9244 115.567C54.001 115.567 54.0776 115.567 54.1542 115.567C54.2309 115.567 54.3075 115.567 54.3841 115.567C54.3841 115.836 54.4607 116.065 54.5373 116.295C55.0354 116.717 55.6866 116.985 56.3762 116.985H56.4145C56.3379 117.215 56.2995 117.483 56.2995 117.751C56.2995 117.866 56.2995 117.981 56.3379 118.134C56.606 118.211 56.9125 118.287 57.219 118.287C57.7553 118.287 58.215 118.134 58.6364 117.904C58.9812 119.054 60.0921 119.935 61.3563 119.935C62.0842 119.935 62.7354 119.666 63.2335 119.245C63.7315 120.011 64.6126 120.471 65.5703 120.471C66.6429 120.471 67.5624 119.896 68.0604 119.015C68.5584 119.513 69.2863 119.858 70.0907 119.858C71.3549 119.858 72.4276 119.054 72.8107 117.904C73.0405 117.981 73.3087 118.019 73.5769 118.019C75.1475 118.019 76.4117 116.755 76.45 115.184C76.6416 115.223 76.7948 115.223 76.9863 115.223C78.557 115.223 79.8595 113.958 79.8595 112.349C79.8595 112.081 79.8212 111.813 79.7446 111.583C81.1237 111.392 82.158 110.204 82.158 108.748C82.158 108.174 81.9665 107.637 81.6983 107.178C82.5794 106.68 83.1924 105.76 83.1924 104.649C83.1924 103.921 82.9242 103.27 82.5028 102.772C82.9242 102.274 83.1924 101.623 83.1924 100.895C83.1924 100.129 82.8859 99.401 82.3496 98.903C82.8476 98.405 83.1924 97.6771 83.1924 96.911C83.1924 96.2214 82.9625 95.6085 82.5411 95.1104C82.9242 94.6124 83.1924 93.9995 83.1924 93.3099C83.1924 92.5054 82.8476 91.7393 82.3113 91.2412C82.8476 90.7049 83.1924 89.9771 83.1924 89.1726C83.1924 88.4447 82.9242 87.7551 82.4645 87.2571C82.9242 86.7591 83.1924 86.0696 83.1924 85.3417C83.1924 84.3073 82.8476 83.5412 82.273 83.0431Z" fill="#6563CD"/>
<path fill-rule="evenodd" clip-rule="evenodd" d="M130.293 61.1263C130.794 61.1795 131.158 61.6294 131.105 62.131L127.597 95.1666C127.585 95.278 127.553 95.3863 127.502 95.4861L123.594 103.129V133.152C123.594 133.657 123.185 134.066 122.68 134.066C122.176 134.066 121.767 133.657 121.767 133.152V102.909C121.767 102.764 121.801 102.621 121.867 102.493L125.798 94.8052L129.288 61.9381C129.341 61.4365 129.791 61.073 130.293 61.1263Z" fill="url(#paint0_linear_33_16)"/>
<path fill-rule="evenodd" clip-rule="evenodd" d="M117.785 70.9556C118.274 71.0787 118.571 71.575 118.448 72.0642L117.022 77.7357L121.882 88.6715L126.542 96.4624C126.704 96.7334 126.715 97.0688 126.57 97.3495L123.492 103.327C123.261 103.775 122.711 103.952 122.262 103.721C121.814 103.49 121.637 102.939 121.868 102.49L124.714 96.9645L120.286 89.5619C120.267 89.5303 120.25 89.4976 120.235 89.4639L115.224 78.1896C115.141 78.003 115.123 77.7939 115.173 77.5959L116.676 71.6187C116.799 71.1294 117.296 70.8326 117.785 70.9556Z" fill="url(#paint1_linear_33_16)"/>
<path fill-rule="evenodd" clip-rule="evenodd" d="M113.187 73.5535C113.605 73.2717 114.173 73.3824 114.454 73.8008L116.817 77.3084C116.846 77.3525 116.872 77.3991 116.894 77.4477L121.905 88.722C122.109 89.183 121.902 89.7228 121.441 89.9277C120.98 90.1325 120.44 89.9249 120.235 89.4639L115.257 78.2626L112.939 74.8213C112.657 74.4029 112.768 73.8352 113.187 73.5535Z" fill="url(#paint2_linear_33_16)"/>
<path fill-rule="evenodd" clip-rule="evenodd" d="M113.732 73.4363C114.235 73.4757 114.611 73.9154 114.571 74.4183L114.286 78.055C114.264 78.549 114.412 79.0467 114.742 79.48L121.79 88.5318C122.1 88.9298 122.029 89.5037 121.631 89.8137C121.233 90.1236 120.659 90.0522 120.349 89.6542L113.293 80.5926C112.697 79.8131 112.415 78.8847 112.462 77.952C112.463 77.9434 112.463 77.9348 112.464 77.9262L112.75 74.2754C112.79 73.7725 113.229 73.3968 113.732 73.4363Z" fill="url(#paint3_linear_33_16)"/>
<path fill-rule="evenodd" clip-rule="evenodd" d="M130.389 60.2179C131.393 60.3245 132.12 61.2242 132.013 62.2275L128.506 95.2631C128.482 95.4859 128.418 95.7025 128.315 95.902L124.507 103.349V106.595C124.507 107.604 123.689 108.422 122.68 108.422C121.671 108.422 120.853 107.604 120.853 106.595V102.909C120.853 102.619 120.922 102.334 121.054 102.077L124.908 94.5402L128.38 61.8417C128.486 60.8384 129.386 60.1114 130.389 60.2179Z" fill="url(#paint4_linear_33_16)"/>
<path opacity="0.5" fill-rule="evenodd" clip-rule="evenodd" d="M130.389 60.2179C131.393 60.3245 132.12 61.2242 132.013 62.2275L128.506 95.2631C128.482 95.4859 128.418 95.7025 128.315 95.902L124.507 103.349V106.595C124.507 107.604 123.689 108.422 122.68 108.422C121.671 108.422 120.853 107.604 120.853 106.595V102.909C120.853 102.619 120.922 102.334 121.054 102.077L124.908 94.5402L128.38 61.8417C128.486 60.8384 129.386 60.1114 130.389 60.2179Z" fill="url(#paint5_linear_33_16)"/>
<path fill-rule="evenodd" clip-rule="evenodd" d="M135.419 96.2476C135.796 96.582 135.831 97.1593 135.497 97.537L133.28 100.04C132.925 100.446 132.757 100.91 132.756 101.399L132.827 105.829C132.833 106.175 132.642 106.495 132.334 106.654L123.494 111.236C123.046 111.468 122.495 111.293 122.263 110.845C122.03 110.397 122.205 109.846 122.653 109.614L130.992 105.293L130.929 101.42L130.929 101.405C130.929 100.465 131.262 99.5722 131.907 98.8353L131.91 98.8311L131.91 98.8311L134.129 96.3257C134.464 95.9481 135.041 95.9131 135.419 96.2476Z" fill="url(#paint6_linear_33_16)"/>
<path fill-rule="evenodd" clip-rule="evenodd" d="M139.747 96.4171C140.505 96.6313 140.946 97.4197 140.732 98.1781L139.873 101.22L139.869 101.235C139.391 102.861 138.252 104.153 136.734 104.957L136.723 104.963L136.723 104.963L123.73 111.692C123.03 112.054 122.169 111.781 121.807 111.081C121.445 110.381 121.718 109.52 122.418 109.158L135.404 102.432C136.314 101.949 136.891 101.241 137.129 100.437L137.986 97.4026C138.2 96.6442 138.988 96.203 139.747 96.4171Z" fill="url(#paint7_linear_33_16)"/>
<path opacity="0.5" fill-rule="evenodd" clip-rule="evenodd" d="M139.747 96.4171C140.505 96.6313 140.946 97.4197 140.732 98.1781L139.873 101.22L139.869 101.235C139.391 102.861 138.252 104.153 136.734 104.957L136.723 104.963L136.723 104.963L123.73 111.692C123.03 112.054 122.169 111.781 121.807 111.081C121.445 110.381 121.718 109.52 122.418 109.158L135.404 102.432C136.314 101.949 136.891 101.241 137.129 100.437L137.986 97.4026C138.2 96.6442 138.988 96.203 139.747 96.4171Z" fill="url(#paint8_linear_33_16)"/>
<path d="M143.046 100.439C149.648 100.439 155 96.1283 155 90.811C155 85.4936 149.648 81.1831 143.046 81.1831C136.444 81.1831 131.091 85.4936 131.091 90.811C131.091 96.1283 136.444 100.439 143.046 100.439Z" fill="#6563CD"/>
<path d="M143.046 100.439C149.648 100.439 155 96.1283 155 90.811C155 85.4936 149.648 81.1831 143.046 81.1831C136.444 81.1831 131.091 85.4936 131.091 90.811C131.091 96.1283 136.444 100.439 143.046 100.439Z" fill="#6563CD"/>
<path d="M144.728 82.6505C138.142 82.6505 132.773 86.9455 132.773 92.2784C132.773 94.4259 133.668 96.4302 135.171 98.0409C137.283 99.5083 140.003 100.403 143.01 100.403C149.595 100.403 154.964 96.1081 154.964 90.7752C154.964 88.6277 154.069 86.6234 152.566 85.0127C150.49 83.5453 147.734 82.6505 144.728 82.6505Z" fill="#6563CD"/>
<path fill-rule="evenodd" clip-rule="evenodd" d="M111.557 97.01C112.422 95.7687 114.131 95.4644 115.372 96.3303L124.248 102.522C124.983 103.035 125.421 103.874 125.421 104.77V133.152C125.421 134.666 124.194 135.893 122.68 135.893C121.167 135.893 119.94 134.666 119.94 133.152V106.199L112.236 100.825C110.995 99.9593 110.691 98.2512 111.557 97.01Z" fill="url(#paint9_linear_33_16)"/>
<path fill-rule="evenodd" clip-rule="evenodd" d="M115.181 94.2977C115.924 93.615 117.079 93.6638 117.762 94.4067C119.314 96.0958 120.071 98.2786 119.883 100.486L119.882 100.502L119.874 100.587L123.725 103.271C124.553 103.848 124.756 104.987 124.179 105.814C123.602 106.642 122.463 106.845 121.636 106.268L116.911 102.976C116.371 102.599 116.076 101.962 116.137 101.306L116.244 100.17C116.34 99.0152 115.952 97.8365 115.072 96.8789C114.389 96.136 114.438 94.9803 115.181 94.2977Z" fill="url(#paint10_linear_33_16)"/>
<path fill-rule="evenodd" clip-rule="evenodd" d="M122.68 102.029C124.194 102.029 125.421 103.256 125.421 104.77V133.152C125.421 134.666 124.194 135.893 122.68 135.893C121.167 135.893 119.94 134.666 119.94 133.152V104.77C119.94 103.256 121.167 102.029 122.68 102.029Z" fill="url(#paint11_linear_33_16)"/>
<path d="M106.037 101.191C112.877 101.191 118.421 97.2966 118.421 92.4932C118.421 87.6898 112.877 83.7958 106.037 83.7958C99.1977 83.7958 93.6533 87.6898 93.6533 92.4932C93.6533 97.2966 99.1977 101.191 106.037 101.191Z" fill="#6563CD"/>
<path d="M137.104 69.6224C145.604 69.6224 152.495 63.7735 152.495 56.5585C152.495 49.3435 145.604 43.4946 137.104 43.4946C128.604 43.4946 121.714 49.3435 121.714 56.5585C121.714 63.7735 128.604 69.6224 137.104 69.6224Z" fill="#6563CD"/>
<path d="M97.6619 55.8426C102.564 55.8426 106.538 52.798 106.538 49.0423C106.538 45.2865 102.564 42.2419 97.6619 42.2419C92.7597 42.2419 88.7856 45.2865 88.7856 49.0423C88.7856 52.798 92.7597 55.8426 97.6619 55.8426Z" fill="#6563CD"/>
<path d="M106.037 101.191C112.877 101.191 118.421 97.2966 118.421 92.4932C118.421 87.6898 112.877 83.7958 106.037 83.7958C99.1977 83.7958 93.6533 87.6898 93.6533 92.4932C93.6533 97.2966 99.1977 101.191 106.037 101.191Z" fill="#6563CD"/>
<path d="M108.006 85.478C101.169 85.478 95.6217 89.3793 95.6217 94.1754C95.6217 95.8576 96.3017 97.4324 97.4829 98.7567C99.7019 100.26 102.708 101.191 106.037 101.191C112.873 101.191 118.421 97.2892 118.421 92.4932C118.421 90.811 117.741 89.2361 116.56 87.9119C114.341 86.4086 111.334 85.478 108.006 85.478Z" fill="#6563CD"/>
<path d="M137.104 69.6224C145.604 69.6224 152.495 63.7735 152.495 56.5585C152.495 49.3435 145.604 43.4946 137.104 43.4946C128.604 43.4946 121.714 49.3435 121.714 56.5585C121.714 63.7735 128.604 69.6224 137.104 69.6224Z" fill="#6563CD"/>
<path d="M137.104 69.6224C145.604 69.6224 152.495 63.7735 152.495 56.5585C152.495 49.3435 145.604 43.4946 137.104 43.4946C128.604 43.4946 121.714 49.3435 121.714 56.5585C121.714 63.7735 128.604 69.6224 137.104 69.6224Z" fill="#6563CD"/>
<path d="M97.6619 55.8426C102.564 55.8426 106.538 52.798 106.538 49.0423C106.538 45.2865 102.564 42.2419 97.6619 42.2419C92.7597 42.2419 88.7856 45.2865 88.7856 49.0423C88.7856 52.798 92.7597 55.8426 97.6619 55.8426Z" fill="#6563CD"/>
<path d="M119.137 76.0649C133.764 76.0649 145.622 64.5273 145.622 50.295C145.622 36.0626 133.764 24.5251 119.137 24.5251C104.509 24.5251 92.651 36.0626 92.651 50.295C92.651 64.5273 104.509 76.0649 119.137 76.0649Z" fill="#6563CD"/>
<path d="M119.137 76.0649C133.764 76.0649 145.622 64.5273 145.622 50.295C145.622 36.0626 133.764 24.5251 119.137 24.5251C104.509 24.5251 92.651 36.0626 92.651 50.295C92.651 64.5273 104.509 76.0649 119.137 76.0649Z" fill="#6563CD"/>
<path d="M123.468 28.319C108.865 28.319 96.9821 39.8438 96.9821 54.0889C96.9821 60.7103 99.5591 66.7233 103.747 71.3046C108.077 74.3111 113.375 76.1007 119.101 76.1007C133.704 76.1007 145.587 64.5758 145.587 50.3308C145.587 43.7093 143.01 37.6963 138.822 33.115C134.492 30.0727 129.194 28.319 123.468 28.319Z" fill="#6563CD"/>
<path opacity="0.5" d="M125.064 134.071C125.677 134.071 126.175 133.573 126.175 132.96V116.219H123.915V132.96C123.953 133.573 124.451 134.071 125.064 134.071Z" fill="#8C6328"/>
<path d="M145.981 137.71H42.7769V158.32H71.4319H85.6445H126.329H140.541H147.475C148.126 158.32 148.701 157.784 148.701 157.094V140.43C148.701 138.936 147.475 137.71 145.981 137.71Z" fill="#353848"/>
<path d="M37.1069 146.444H35.383C34.5786 146.444 33.9273 145.793 33.9273 144.989V140.162C33.9273 139.357 34.5786 138.706 35.383 138.706H37.1069V146.444Z" fill="#F2C94C"/>
<path d="M43.3513 135.182H37.2985V149.93H43.3513V135.182Z" fill="#353848"/>
<path d="M41.8955 150.927H38.1795C36.4556 150.927 35.0382 149.509 35.0382 147.785V137.365C35.0382 135.641 36.4556 134.224 38.1795 134.224H41.9338V150.927H41.8955Z" fill="white"/>
<path d="M39.0608 134.224C37.3369 134.224 35.9194 135.641 35.9194 137.365V147.785C35.9194 149.509 37.3369 150.927 39.0608 150.927H41.9339V134.262H39.0608V134.224Z" fill="#C6D2E5"/>
<path d="M140.924 117.866H42.7769V158.32H71.4319V156.29C71.4319 154.183 73.1558 152.459 75.2628 152.459H81.8519C83.9589 152.459 85.6828 154.183 85.6828 156.29V158.32H126.367V156.29C126.367 154.183 128.091 152.459 130.198 152.459H136.787C138.894 152.459 140.618 154.183 140.618 156.29V158.32H144.832V121.659C144.755 119.552 143.031 117.866 140.924 117.866Z" fill="white"/>
<path d="M144.755 121.697C144.755 120.394 144.104 119.245 143.108 118.555C142.955 118.555 142.84 118.517 142.686 118.517H141.461H43.4281H42.7769V124.072C43.0067 124.225 43.2366 124.378 43.4664 124.493C43.6197 124.57 43.8112 124.647 43.9644 124.723C44.0027 124.723 44.041 124.762 44.0794 124.762C44.2709 124.838 44.4241 124.915 44.6157 124.953C44.654 124.953 44.6923 124.991 44.7306 124.991C44.8838 125.03 45.0754 125.068 45.2286 125.106C45.2669 125.106 45.3052 125.106 45.3435 125.145C45.5351 125.183 45.7266 125.221 45.9182 125.221C45.9565 125.221 45.9948 125.221 46.0331 125.221C46.2247 125.221 46.4545 125.26 46.6461 125.26H141.461H144.755V121.697Z" fill="#E8E8E8"/>
<path d="M53.0432 115.146H52.3154V119.973H53.0432V115.146Z" fill="#171717"/>
<path d="M59.2112 115.146H58.4833V119.973H59.2112V115.146Z" fill="#171717"/>
<path d="M65.3404 115.146H64.6125V119.973H65.3404V115.146Z" fill="#171717"/>
<path d="M65.3404 115.261H64.6125V115.989H65.3404V115.261Z" fill="#171717"/>
<path d="M59.2112 115.261H58.4833V115.989H59.2112V115.261Z" fill="#171717"/>
<path d="M53.0432 115.261H52.3154V115.989H53.0432V115.261Z" fill="#171717"/>
<path d="M71.3551 120.356H46.2244V117.406C46.2244 115.95 47.412 114.763 48.8677 114.763H68.7501C70.2058 114.763 71.3934 115.95 71.3934 117.406V120.356H71.3551ZM46.9523 119.628H70.6272V117.406C70.6272 116.372 69.7844 115.491 68.7117 115.491H48.8294C47.7951 115.491 46.914 116.334 46.914 117.406V119.628H46.9523Z" fill="#171717"/>
<path d="M70.627 117.406V119.628H47.2969V119.858H70.9718V117.636C70.9718 116.908 70.5504 116.257 69.9375 115.95C70.3589 116.334 70.627 116.832 70.627 117.406Z" fill="#424242"/>
<path d="M46.569 117.675C46.569 116.219 47.7566 115.032 49.2123 115.032H69.0946C69.5544 115.032 69.9758 115.146 70.3588 115.376C69.8991 115.032 69.3628 114.802 68.7499 114.802H48.8676C47.4118 114.802 46.2242 115.989 46.2242 117.445V120.395H46.569V117.675V117.675Z" fill="#424242"/>
<path d="M148.471 152.152H148.049V140.698H148.471C148.93 140.698 149.275 141.081 149.275 141.541V151.348C149.314 151.769 148.93 152.152 148.471 152.152Z" fill="#C6D2E5"/>
<path opacity="0.5" d="M148.471 140.66H148.126C148.586 140.66 148.931 141.043 148.931 141.464V151.271C148.931 151.731 148.548 152.114 148.126 152.114H148.471C148.931 152.114 149.314 151.731 149.314 151.271V141.464C149.314 141.043 148.931 140.66 148.471 140.66Z" fill="#C6D2E5"/>
<path d="M149.467 144.069H147.59V140.392H149.467C150.118 140.392 150.655 140.928 150.655 141.579V142.882C150.655 143.533 150.118 144.069 149.467 144.069Z" fill="#F2C94C"/>
<path opacity="0.5" d="M149.467 144.069H147.59V140.392H149.467C150.118 140.392 150.655 140.928 150.655 141.579V142.882C150.655 143.533 150.118 144.069 149.467 144.069Z" fill="#F2C94C"/>
<path d="M147.283 144.452V139.97H150.157V141.579C150.157 143.188 148.854 144.452 147.283 144.452Z" fill="#C6D2E5"/>
<path opacity="0.5" d="M147.283 144.452V139.97H150.157V141.579C150.157 143.188 148.854 144.452 147.283 144.452Z" fill="#C6D2E5"/>
<path d="M149.582 141.579V139.97H147.283V144.376C148.586 144.146 149.582 142.997 149.582 141.579Z" fill="#C6D2E5"/>
<path opacity="0.5" d="M147.628 140.392H147.59V144.069H147.628V140.392Z" fill="#F2C94C"/>
<path opacity="0.5" d="M150.501 141.043V141.579C150.501 142.652 149.927 143.571 149.084 144.069H149.467C150.118 144.069 150.655 143.533 150.655 142.882V141.579C150.655 141.388 150.578 141.196 150.501 141.043Z" fill="#F2C94C"/>
<path d="M90.0114 160.121H57.219C55.6867 160.121 54.4225 158.856 54.4225 157.324H92.808C92.808 158.856 91.5438 160.121 90.0114 160.121Z" fill="#353848"/>
<path d="M111.503 160.121H96.5239C94.9916 160.121 93.7274 158.856 93.7274 157.324H114.299C114.338 158.856 113.073 160.121 111.503 160.121Z" fill="#353848"/>
<path d="M130.504 164.296C134.333 164.296 137.438 161.192 137.438 157.362C137.438 153.533 134.333 150.428 130.504 150.428C126.674 150.428 123.57 153.533 123.57 157.362C123.57 161.192 126.674 164.296 130.504 164.296Z" fill="#353848"/>
<path d="M75.3393 150.467C71.6233 150.582 68.6353 153.646 68.6353 157.401C68.6353 161.155 71.6233 164.181 75.3393 164.335C79.0553 164.22 82.0434 161.155 82.0434 157.401C82.0434 153.646 79.0553 150.582 75.3393 150.467Z" fill="#353848"/>
<path d="M140.962 160.121H117.862C116.329 160.121 115.065 158.856 115.065 157.324H143.759C143.759 158.856 142.494 160.121 140.962 160.121Z" fill="#353848"/>
<path d="M64.9192 161.04H59.2494C58.3683 161.04 57.6788 160.312 57.6788 159.469V158.665H66.5281V159.469C66.4898 160.312 65.8003 161.04 64.9192 161.04Z" fill="#353848"/>
<path d="M64.0764 161.768H60.0923C59.4793 161.768 58.9813 161.27 58.9813 160.657V160.082H65.2257V160.657C65.1874 161.27 64.6893 161.768 64.0764 161.768Z" fill="#353848"/>
<path d="M138.323 163C141.031 160.293 141.031 155.902 138.323 153.194C135.616 150.487 131.225 150.487 128.517 153.194C125.81 155.902 125.81 160.293 128.517 163C131.225 165.708 135.616 165.708 138.323 163Z" fill="#576376"/>
<path d="M133.415 151.156C133.301 151.156 133.224 151.156 133.109 151.156C136.787 151.31 139.736 154.336 139.736 158.09C139.736 161.806 136.787 164.833 133.109 165.024C133.224 165.024 133.301 165.024 133.415 165.024C137.246 165.024 140.349 161.921 140.349 158.09C140.349 154.259 137.246 151.156 133.415 151.156Z" fill="#353848"/>
<path d="M133.415 162.457C131.002 162.457 129.048 160.504 129.048 158.09C129.048 155.677 131.002 153.723 133.415 153.723C135.829 153.723 137.782 155.677 137.782 158.09C137.782 160.504 135.829 162.457 133.415 162.457Z" fill="white"/>
<path d="M133.416 153.723C133.339 153.723 133.262 153.723 133.186 153.723C135.484 153.838 137.323 155.753 137.323 158.052C137.323 160.389 135.484 162.266 133.186 162.381C133.262 162.381 133.339 162.381 133.416 162.381C135.829 162.381 137.783 160.427 137.783 158.014C137.783 155.677 135.829 153.723 133.416 153.723Z" fill="#C6D2E5"/>
<path d="M133.415 160.963C131.845 160.963 130.542 159.661 130.542 158.09C130.542 156.52 131.845 155.217 133.415 155.217C134.986 155.217 136.289 156.52 136.289 158.09C136.327 159.661 135.024 160.963 133.415 160.963Z" fill="#F2C94C"/>
<path opacity="0.5" d="M133.416 155.217C133.339 155.217 133.224 155.217 133.147 155.217C134.603 155.37 135.752 156.596 135.752 158.09C135.752 159.584 134.603 160.81 133.147 160.963C133.224 160.963 133.339 160.963 133.416 160.963C134.986 160.963 136.289 159.661 136.289 158.09C136.327 156.481 135.025 155.217 133.416 155.217Z" fill="#F2C94C"/>
<path d="M133.416 158.742C133.032 158.742 132.726 158.435 132.726 158.052C132.726 157.669 133.032 157.362 133.416 157.362C133.799 157.362 134.105 157.669 134.105 158.052C134.105 158.473 133.799 158.742 133.416 158.742Z" fill="white"/>
<path d="M132.918 158.09C132.918 157.745 133.186 157.477 133.492 157.439C133.454 157.439 133.416 157.439 133.416 157.439C133.032 157.439 132.726 157.745 132.726 158.129C132.726 158.512 133.032 158.818 133.416 158.818C133.454 158.818 133.492 158.818 133.492 158.818C133.186 158.703 132.918 158.435 132.918 158.09Z" fill="#C6D2E5"/>
<path d="M85.3733 159.202C85.9868 155.422 83.4197 151.86 79.6396 151.246C75.8595 150.633 72.2978 153.2 71.6844 156.98C71.0709 160.76 73.6379 164.322 77.418 164.935C81.1981 165.549 84.7598 162.982 85.3733 159.202Z" fill="#353848"/>
<path d="M78.2891 151.156C74.5731 151.271 71.585 154.336 71.585 158.09C71.585 161.845 74.5731 164.871 78.2891 165.024C82.005 164.909 84.9931 161.845 84.9931 158.09C84.9931 154.336 82.005 151.31 78.2891 151.156Z" fill="#576376"/>
<path d="M78.5189 162.457C76.1055 162.457 74.1517 160.504 74.1517 158.09C74.1517 155.677 76.1055 153.723 78.5189 153.723C80.9324 153.723 82.8862 155.677 82.8862 158.09C82.8862 160.504 80.9324 162.457 78.5189 162.457Z" fill="white"/>
<path d="M78.5189 153.723C78.3657 153.723 78.2508 153.723 78.0975 153.761C80.3194 153.953 82.0434 155.83 82.0434 158.09C82.0434 160.35 80.3194 162.228 78.0975 162.419C78.2508 162.419 78.3657 162.457 78.5189 162.457C80.9324 162.457 82.8861 160.504 82.8861 158.09C82.8861 155.677 80.9324 153.723 78.5189 153.723Z" fill="#C6D2E5"/>
<path d="M78.5188 160.963C76.9481 160.963 75.6456 159.661 75.6456 158.09C75.6456 156.52 76.9481 155.217 78.5188 155.217C80.0895 155.217 81.392 156.52 81.392 158.09C81.392 159.661 80.1278 160.963 78.5188 160.963Z" fill="#F2C94C"/>
<path opacity="0.5" d="M78.5189 155.217C78.4039 155.217 78.3273 155.217 78.2124 155.217C79.6681 155.37 80.8174 156.596 80.8174 158.09C80.8174 159.584 79.6681 160.81 78.2124 160.963C78.3273 160.963 78.4039 160.963 78.5189 160.963C80.0895 160.963 81.392 159.661 81.392 158.09C81.392 156.481 80.1278 155.217 78.5189 155.217Z" fill="#F2C94C"/>
<path d="M78.519 158.742C78.1359 158.742 77.8294 158.435 77.8294 158.052C77.8294 157.669 78.1359 157.362 78.519 157.362C78.9021 157.362 79.2085 157.669 79.2085 158.052C79.2085 158.473 78.9021 158.742 78.519 158.742Z" fill="white"/>
<path d="M78.0593 158.09C78.0593 157.745 78.3274 157.477 78.6339 157.439C78.5956 157.439 78.5573 157.439 78.519 157.439C78.1359 157.439 77.8294 157.745 77.8294 158.129C77.8294 158.512 78.1359 158.818 78.519 158.818C78.5573 158.818 78.5956 158.818 78.6339 158.818C78.2891 158.703 78.0593 158.435 78.0593 158.09Z" fill="#C6D2E5"/>
<path d="M122.689 158.32H111.043V125.987C111.043 125.26 111.656 124.647 112.384 124.647H121.386C122.114 124.647 122.727 125.26 122.727 125.987V158.32H122.689Z" fill="#F2C94C"/>
<path d="M119.663 136.791H114.07C113.687 136.791 113.342 136.484 113.342 136.063V126.677C113.342 126.294 113.648 125.949 114.07 125.949H119.663C120.046 125.949 120.391 126.256 120.391 126.677V136.063C120.391 136.446 120.084 136.791 119.663 136.791Z" fill="#2D3845"/>
<path fill-rule="evenodd" clip-rule="evenodd" d="M114.302 126.91V135.83H119.43V126.91H114.302ZM112.381 126.677C112.381 125.797 113.085 124.989 114.07 124.989H119.663C120.543 124.989 121.351 125.692 121.351 126.677V136.063C121.351 136.943 120.647 137.751 119.663 137.751H114.07C113.189 137.751 112.381 137.047 112.381 136.063V126.677Z" fill="#424242"/>
<path d="M105.833 136.791H93.9958C93.6127 136.791 93.2679 136.484 93.2679 136.063V126.677C93.2679 126.294 93.5744 125.949 93.9958 125.949H105.833C106.216 125.949 106.561 126.256 106.561 126.677V136.063C106.561 136.446 106.216 136.791 105.833 136.791Z" fill="#2D3845"/>
<path d="M144.946 136.791H125.907C125.524 136.791 125.179 136.484 125.179 136.063V126.677C125.179 126.294 125.486 125.949 125.907 125.949H144.946C145.33 125.949 145.674 126.256 145.674 126.677V136.063C145.674 136.446 145.368 136.791 144.946 136.791Z" fill="#2D3845"/>
<path d="M127.593 126.102L138.242 136.752H141.575L130.734 125.911H128.052C127.861 125.949 127.707 126.026 127.593 126.102Z" fill="#2D3845"/>
<path d="M136.059 125.949H132.726L143.567 136.791H144.947C145.33 136.791 145.674 136.484 145.674 136.063V135.603L136.059 125.949Z" fill="#2D3845"/>
<path d="M138.702 128.439H140.886V134.262H138.702C138.472 134.262 138.319 134.071 138.319 133.879V128.822C138.319 128.631 138.511 128.439 138.702 128.439Z" fill="white"/>
<path d="M139.813 129.895H140.886V132.806H139.813C139.698 132.806 139.622 132.73 139.622 132.615V130.086C139.622 130.01 139.698 129.895 139.813 129.895Z" fill="#2D3845"/>
<path d="M63.8847 136.791H45.9179C45.5348 136.791 45.19 136.484 45.19 136.063V126.677C45.19 126.294 45.4965 125.949 45.9179 125.949H63.8847C64.2678 125.949 64.6126 126.256 64.6126 126.677V136.063C64.6126 136.446 64.2678 136.791 63.8847 136.791Z" fill="#2D3845"/>
<path fill-rule="evenodd" clip-rule="evenodd" d="M139.925 124.989H144.946C145.827 124.989 146.635 125.692 146.635 126.677V136.063C146.635 136.943 145.931 137.751 144.946 137.751H139.925V124.989ZM141.846 126.91V135.83H144.714V126.91H141.846Z" fill="white"/>
<path d="M145.981 137.71H42.7769V158.32H71.4319V156.29C71.4319 154.183 73.1558 152.459 75.2628 152.459H81.8519C83.9589 152.459 85.6828 154.183 85.6828 156.29V158.32H126.367V156.29C126.367 154.183 128.091 152.459 130.198 152.459H136.787C138.894 152.459 140.618 154.183 140.618 156.29V158.32H147.552C148.203 158.32 148.778 157.784 148.778 157.094V140.43C148.701 138.936 147.475 137.71 145.981 137.71Z" fill="#F2C94C"/>
<path d="M85.9508 137.71H72.6959L93.3061 158.32H106.561L85.9508 137.71Z" fill="white"/>
<g opacity="0.5">
<path opacity="0.5" d="M70.8185 156.328V158.358H71.3931V156.328C71.3931 154.221 73.117 152.497 75.224 152.497H74.6494C72.5424 152.497 70.8185 154.221 70.8185 156.328Z" fill="#F2C94C"/>
<path opacity="0.5" d="M145.981 137.71H145.406C146.9 137.71 148.126 138.936 148.126 140.43V157.094C148.126 157.745 147.59 158.32 146.9 158.32H147.475C148.126 158.32 148.701 157.784 148.701 157.094V140.43C148.701 138.936 147.475 137.71 145.981 137.71Z" fill="#F2C94C"/>
<path opacity="0.5" d="M125.715 156.328V158.358H126.29V156.328C126.29 154.221 128.014 152.497 130.121 152.497H129.546C127.439 152.497 125.715 154.221 125.715 156.328Z" fill="#F2C94C"/>
</g>
<path opacity="0.5" d="M43.0833 151.693H42.7769V155.792H43.1216C43.8112 155.792 44.3475 155.255 44.3475 154.566V152.919C44.3092 152.267 43.7729 151.693 43.0833 151.693Z" fill="#F2C94C"/>
<path opacity="0.5" fill-rule="evenodd" clip-rule="evenodd" d="M53.6946 148.074C52.932 148.074 52.3361 148.695 52.3361 149.432V157.84H65.5881V149.432C65.5881 148.67 64.9669 148.074 64.2296 148.074H53.6946ZM51.3755 149.432C51.3755 148.178 52.3885 147.113 53.6946 147.113H64.2296C65.4843 147.113 66.5487 148.126 66.5487 149.432V158.8H51.3755V149.432Z" fill="#F2C94C"/>
<path opacity="0.5" fill-rule="evenodd" clip-rule="evenodd" d="M53.6947 148.802C53.6085 148.802 53.5274 148.819 53.4537 148.85C53.3456 148.894 53.2304 148.897 53.1268 148.865C53.1591 148.968 53.1566 149.083 53.1117 149.192C53.0811 149.265 53.064 149.346 53.064 149.432V150.452C53.064 150.718 52.849 150.933 52.5837 150.933C52.3184 150.933 52.1034 150.718 52.1034 150.452V149.432C52.1034 149.217 52.1464 149.011 52.2246 148.823C52.3206 148.592 52.5764 148.475 52.8109 148.549C52.7376 148.314 52.854 148.058 53.0853 147.962C53.2736 147.884 53.4797 147.841 53.6947 147.841H54.5726C54.8378 147.841 55.0529 148.056 55.0529 148.321C55.0529 148.587 54.8378 148.802 54.5726 148.802H53.6947ZM55.8481 148.321C55.8481 148.056 56.0631 147.841 56.3284 147.841H58.0842C58.3495 147.841 58.5645 148.056 58.5645 148.321C58.5645 148.587 58.3495 148.802 58.0842 148.802H56.3284C56.0631 148.802 55.8481 148.587 55.8481 148.321ZM59.3597 148.321C59.3597 148.056 59.5748 147.841 59.84 147.841H61.5959C61.8611 147.841 62.0762 148.056 62.0762 148.321C62.0762 148.587 61.8611 148.802 61.5959 148.802H59.84C59.5748 148.802 59.3597 148.587 59.3597 148.321ZM62.8714 148.321C62.8714 148.056 63.0864 147.841 63.3517 147.841H64.2296C64.4445 147.841 64.6507 147.884 64.839 147.962C65.0702 148.058 65.1866 148.314 65.1134 148.549C65.3478 148.475 65.6036 148.592 65.6997 148.823C65.7779 149.011 65.8209 149.217 65.8209 149.432V150.452C65.8209 150.718 65.6058 150.933 65.3406 150.933C65.0753 150.933 64.8603 150.718 64.8603 150.452V149.432C64.8603 149.346 64.8432 149.265 64.8125 149.192C64.7676 149.083 64.7652 148.968 64.7975 148.865C64.6938 148.897 64.5787 148.894 64.4705 148.85C64.3968 148.819 64.3157 148.802 64.2296 148.802H63.3517C63.0864 148.802 62.8714 148.587 62.8714 148.321ZM52.5837 152.012C52.849 152.012 53.064 152.227 53.064 152.492V154.532C53.064 154.798 52.849 155.013 52.5837 155.013C52.3184 155.013 52.1034 154.798 52.1034 154.532V152.492C52.1034 152.227 52.3184 152.012 52.5837 152.012ZM65.3406 152.012C65.6058 152.012 65.8209 152.227 65.8209 152.492V154.532C65.8209 154.798 65.6058 155.013 65.3406 155.013C65.0753 155.013 64.8603 154.798 64.8603 154.532V152.492C64.8603 152.227 65.0753 152.012 65.3406 152.012ZM52.5837 156.092C52.849 156.092 53.064 156.307 53.064 156.572V157.112H53.6468C53.912 157.112 54.1271 157.327 54.1271 157.592C54.1271 157.858 53.912 158.073 53.6468 158.073H52.1034V156.572C52.1034 156.307 52.3184 156.092 52.5837 156.092ZM65.3406 156.092C65.6058 156.092 65.8209 156.307 65.8209 156.572V158.073H64.2775C64.0122 158.073 63.7972 157.858 63.7972 157.592C63.7972 157.327 64.0122 157.112 64.2775 157.112H64.8603V156.572C64.8603 156.307 65.0753 156.092 65.3406 156.092ZM55.2926 157.592C55.2926 157.327 55.5076 157.112 55.7729 157.112H57.8991C58.1643 157.112 58.3794 157.327 58.3794 157.592C58.3794 157.858 58.1643 158.073 57.8991 158.073H55.7729C55.5076 158.073 55.2926 157.858 55.2926 157.592ZM59.5449 157.592C59.5449 157.327 59.7599 157.112 60.0252 157.112H62.1513C62.4166 157.112 62.6316 157.327 62.6316 157.592C62.6316 157.858 62.4166 158.073 62.1513 158.073H60.0252C59.7599 158.073 59.5449 157.858 59.5449 157.592Z" fill="#F2C94C"/>
<path opacity="0.5" fill-rule="evenodd" clip-rule="evenodd" d="M46.2767 152.588C46.251 152.613 46.245 152.638 46.245 152.65V156.022C46.245 156.033 46.251 156.059 46.2767 156.084C46.3023 156.11 46.3274 156.116 46.3393 156.116H49.6339C49.6605 156.116 49.6722 156.108 49.6821 156.099C49.6938 156.087 49.7173 156.055 49.7282 155.99V152.65C49.7282 152.638 49.7221 152.613 49.6965 152.588C49.6708 152.562 49.6458 152.556 49.6339 152.556H46.3393C46.3274 152.556 46.3023 152.562 46.2767 152.588ZM45.2844 152.65C45.2844 152.079 45.7676 151.595 46.3393 151.595H49.6339C50.2056 151.595 50.6888 152.079 50.6888 152.65V156.048L50.6859 156.075C50.6259 156.614 50.2311 157.077 49.6339 157.077H46.3393C45.7676 157.077 45.2844 156.593 45.2844 156.022V152.65Z" fill="#F2C94C"/>
<path d="M46.0713 153.953H45.3434C45.0369 153.953 44.8071 153.723 44.8071 153.417C44.8071 153.11 45.0369 152.88 45.3434 152.88H46.0713C46.3777 152.88 46.6076 153.11 46.6076 153.417C46.6076 153.685 46.3777 153.953 46.0713 153.953Z" fill="#F2C94C"/>
<path d="M46.0711 155.868H45.3432C45.0367 155.868 44.8069 155.638 44.8069 155.332C44.8069 155.026 45.0367 154.796 45.3432 154.796H46.0711C46.3775 154.796 46.6074 155.026 46.6074 155.332C46.6074 155.6 46.3775 155.868 46.0711 155.868Z" fill="#F2C94C"/>
<g opacity="0.5">
<path opacity="0.5" d="M46.0713 153.953H45.3434C45.0369 153.953 44.8071 153.723 44.8071 153.417C44.8071 153.11 45.0369 152.88 45.3434 152.88H46.0713C46.3777 152.88 46.6076 153.11 46.6076 153.417C46.6076 153.685 46.3777 153.953 46.0713 153.953Z" fill="#F2C94C"/>
<path opacity="0.5" d="M46.0711 155.868H45.3432C45.0367 155.868 44.8069 155.638 44.8069 155.332C44.8069 155.026 45.0367 154.796 45.3432 154.796H46.0711C46.3775 154.796 46.6074 155.026 46.6074 155.332C46.6074 155.6 46.3775 155.868 46.0711 155.868Z" fill="#F2C94C"/>
</g>
<path fill-rule="evenodd" clip-rule="evenodd" d="M126.14 126.91V135.83H144.714V126.91H126.14ZM124.219 126.677C124.219 125.797 124.922 124.989 125.907 124.989H144.946C145.827 124.989 146.635 125.692 146.635 126.677V136.063C146.635 136.943 145.931 137.751 144.946 137.751H125.907C125.027 137.751 124.219 137.047 124.219 136.063V126.677Z" fill="#424242"/>
<path fill-rule="evenodd" clip-rule="evenodd" d="M112.384 125.607C112.187 125.607 112.004 125.79 112.004 125.987V158.32H110.083V125.987C110.083 124.729 111.126 123.686 112.384 123.686H121.387C122.645 123.686 123.688 124.729 123.688 125.987V158.32H121.767V125.987C121.767 125.79 121.584 125.607 121.387 125.607H112.384Z" fill="white"/>
<path d="M150.54 157.784H148.777C148.088 157.784 147.552 157.247 147.552 156.558V153.8C147.552 153.11 148.088 152.574 148.777 152.574H150.54V157.784Z" fill="#C6D2E5"/>
<path d="M148.088 156.558V153.8C148.088 153.11 148.624 152.574 149.314 152.574H148.777C148.088 152.574 147.552 153.11 147.552 153.8V156.558C147.552 157.247 148.088 157.784 148.777 157.784H149.314C148.624 157.784 148.088 157.247 148.088 156.558Z" fill="white"/>
<path opacity="0.5" d="M150.31 152.574C149.62 152.574 149.084 153.11 149.084 153.8V156.558C149.084 157.247 149.62 157.784 150.31 157.784H150.54V152.574H150.31Z" fill="#C6D2E5"/>
<path d="M40.9377 151.693H42.6999C43.3895 151.693 43.9258 152.229 43.9258 152.919V154.566C43.9258 155.255 43.3895 155.792 42.6999 155.792H40.9377V151.693Z" fill="#C6D2E5"/>
<path opacity="0.5" d="M42.7001 151.693H42.2787C42.9682 151.693 43.5046 152.229 43.5046 152.919V154.566C43.5046 155.255 42.9682 155.792 42.2787 155.792H42.7001C43.3896 155.792 43.926 155.255 43.926 154.566V152.919C43.926 152.267 43.3896 151.693 42.7001 151.693Z" fill="#C6D2E5"/>
<path d="M41.4357 151.693H40.9377V155.792H41.4357V151.693Z" fill="white"/>
<path d="M69.8609 158.742H42.6233C42.1635 158.742 41.7805 158.358 41.7805 157.899C41.7805 157.439 42.1635 157.056 42.6233 157.056H69.8609C70.3206 157.056 70.7037 157.439 70.7037 157.899C70.6654 158.397 70.2823 158.742 69.8609 158.742Z" fill="#C6D2E5"/>
<path opacity="0.5" d="M69.8611 157.094H68.9034C69.3631 157.094 69.7462 157.477 69.7462 157.937C69.7462 158.397 69.3631 158.78 68.9034 158.78H69.8611C70.3208 158.78 70.7039 158.397 70.7039 157.937C70.6656 157.477 70.2825 157.094 69.8611 157.094Z" fill="#C6D2E5"/>
<path d="M48.4845 157.937C48.4845 157.477 48.1014 157.094 47.6417 157.094H42.6233C42.1635 157.094 41.7805 157.477 41.7805 157.937C41.7805 158.397 42.1635 158.78 42.6233 158.78H47.68C48.1014 158.78 48.4845 158.397 48.4845 157.937Z" fill="white"/>
<path d="M124.489 158.742H87.0616C86.6019 158.742 86.2188 158.358 86.2188 157.899C86.2188 157.439 86.6019 157.056 87.0616 157.056H124.489C124.949 157.056 125.332 157.439 125.332 157.899C125.332 158.397 124.949 158.742 124.489 158.742Z" fill="#C6D2E5"/>
<path opacity="0.5" d="M124.49 157.094H122.383C122.842 157.094 123.225 157.477 123.225 157.937C123.225 158.397 122.842 158.78 122.383 158.78H124.49C124.949 158.78 125.332 158.397 125.332 157.937C125.332 157.477 124.949 157.094 124.49 157.094Z" fill="#C6D2E5"/>
<path d="M90.816 157.937C90.816 157.477 90.4329 157.094 89.9732 157.094H87.1C86.6403 157.094 86.2572 157.477 86.2572 157.937C86.2572 158.397 86.6403 158.78 87.1 158.78H89.9732C90.4329 158.78 90.816 158.397 90.816 157.937Z" fill="white"/>
<path d="M144.793 158.742H142.112C141.652 158.742 141.269 158.358 141.269 157.899C141.269 157.439 141.652 157.056 142.112 157.056H144.793C145.253 157.056 145.636 157.439 145.636 157.899C145.636 158.397 145.253 158.742 144.793 158.742Z" fill="#C6D2E5"/>
<path opacity="0.5" d="M144.793 157.094H142.916C143.376 157.094 143.759 157.477 143.759 157.937C143.759 158.397 143.376 158.78 142.916 158.78H144.793C145.253 158.78 145.636 158.397 145.636 157.937C145.636 157.477 145.253 157.094 144.793 157.094Z" fill="#C6D2E5"/>
<path d="M142.035 157.094C141.614 157.133 141.231 157.477 141.231 157.937C141.231 158.397 141.575 158.742 142.035 158.78C142.457 158.742 142.84 158.397 142.84 157.937C142.84 157.477 142.495 157.133 142.035 157.094Z" fill="white"/>
<path d="M142.035 117.866H140.809H42.7764H39.2137C39.2137 120.471 40.6694 122.731 42.8147 123.88C42.968 123.957 43.1595 124.034 43.3127 124.11C43.351 124.11 43.3894 124.149 43.4277 124.149C43.6192 124.225 43.7724 124.302 43.964 124.34C44.0023 124.34 44.0406 124.378 44.0789 124.378C44.2322 124.417 44.4237 124.455 44.5769 124.493C44.6152 124.493 44.6535 124.493 44.6919 124.532C44.8834 124.57 45.0749 124.608 45.2665 124.608C45.3048 124.608 45.3431 124.608 45.3814 124.608C45.573 124.608 45.8028 124.647 45.9944 124.647H140.809H144.831C145.406 124.647 145.866 124.187 145.866 123.612V121.659C145.866 119.552 144.142 117.866 142.035 117.866Z" fill="#F2C94C"/>
<path d="M40.0182 118.555H43.5809H141.613H142.839C143.605 118.555 144.295 118.785 144.908 119.168C144.218 118.364 143.184 117.866 142.035 117.866H140.809H42.7764H39.2137C39.2137 120.126 40.3246 122.157 42.0485 123.382C40.7843 122.157 40.0182 120.433 40.0182 118.555Z" fill="#2D3845"/>
<path d="M46.3775 121.429H44.7302C44.4238 121.429 44.1939 121.199 44.1939 120.892C44.1939 120.586 44.4238 120.356 44.7302 120.356H46.3775C46.684 120.356 46.9138 120.586 46.9138 120.892C46.9522 121.16 46.684 121.429 46.3775 121.429Z" fill="#FF546D"/>
<path opacity="0.5" d="M44.9603 120.509C44.6539 120.509 44.424 120.739 44.424 121.046C44.424 121.122 44.4623 121.237 44.5006 121.314C44.5772 121.352 44.6539 121.39 44.7688 121.39H46.4161C46.7225 121.39 46.9524 121.16 46.9524 120.854C46.9524 120.777 46.9141 120.662 46.8758 120.586C46.7992 120.548 46.7225 120.509 46.6076 120.509H44.9603Z" fill="#FF546D"/>
<path d="M101.389 121.429H99.7421C99.4357 121.429 99.2058 121.199 99.2058 120.892C99.2058 120.586 99.4357 120.356 99.7421 120.356H101.389C101.696 120.356 101.926 120.586 101.926 120.892C101.964 121.16 101.696 121.429 101.389 121.429Z" fill="#FF546D"/>
<path opacity="0.5" d="M99.9334 120.509C99.6269 120.509 99.3971 120.739 99.3971 121.046C99.3971 121.16 99.4354 121.237 99.4737 121.314C99.5503 121.352 99.6269 121.39 99.7419 121.39H101.389C101.696 121.39 101.925 121.16 101.925 120.854C101.925 120.739 101.887 120.662 101.849 120.586C101.772 120.548 101.696 120.509 101.581 120.509H99.9334Z" fill="#FF546D"/>
<path d="M138.396 121.429H136.748C136.442 121.429 136.212 121.199 136.212 120.892C136.212 120.586 136.442 120.356 136.748 120.356H138.396C138.702 120.356 138.932 120.586 138.932 120.892C138.932 121.16 138.702 121.429 138.396 121.429Z" fill="#FF546D"/>
<path d="M130.236 121.39V124.493C130.236 124.723 130.427 124.915 130.657 124.915C130.887 124.915 131.079 124.723 131.079 124.493H142.035C142.035 124.723 142.227 124.915 142.456 124.915C142.686 124.915 142.878 124.723 142.878 124.493H145.368C145.674 124.302 145.866 123.995 145.866 123.651V121.697C145.866 120.701 145.483 119.82 144.87 119.168H144.908C144.87 119.13 144.832 119.092 144.793 119.054C144.755 119.015 144.717 118.977 144.678 118.939C144.525 118.824 144.41 118.67 144.219 118.555C144.18 118.517 144.142 118.479 144.065 118.479C143.912 118.364 143.721 118.287 143.529 118.211C143.491 118.211 143.452 118.172 143.414 118.172C143.223 118.096 142.993 118.019 142.801 117.981C142.763 117.981 142.763 117.981 142.725 117.981C142.495 117.943 142.265 117.904 141.997 117.904H140.886H140.771H130.81C130.466 118.977 130.236 120.164 130.236 121.39Z" fill="#FCCD69"/>
<path d="M45.4199 126.102L56.0698 136.752H59.4027L48.5612 125.911H45.8796C45.7264 125.949 45.5732 126.026 45.4199 126.102Z" fill="#2D3845"/>
<path d="M53.8861 125.949H50.5532L61.3946 136.791H63.8464C64.0763 136.791 64.2678 136.676 64.421 136.522L53.8861 125.949Z" fill="#2D3845"/>
<path d="M59.6325 124.647H72.8873L66.0684 117.866H52.8135L59.6325 124.647Z" fill="white"/>
<path d="M80.8561 124.647H94.1493L87.3303 117.866H74.0371L80.8561 124.647Z" fill="white"/>
<path d="M92.502 121.429H90.8547C90.5482 121.429 90.3184 121.199 90.3184 120.892C90.3184 120.586 90.5482 120.356 90.8547 120.356H92.502C92.8084 120.356 93.0383 120.586 93.0383 120.892C93.0383 121.161 92.8084 121.429 92.502 121.429Z" fill="#FF546D"/>
<path opacity="0.5" d="M91.0461 120.509C90.7396 120.509 90.5098 120.739 90.5098 121.046C90.5098 121.161 90.5481 121.237 90.5864 121.314C90.663 121.352 90.7396 121.39 90.8545 121.39H92.5018C92.8083 121.39 93.0381 121.161 93.0381 120.854C93.0381 120.739 92.9998 120.662 92.9615 120.586C92.8849 120.548 92.8083 120.509 92.6934 120.509H91.0461Z" fill="#FF546D"/>
<path d="M114.529 158.32H126.328V156.826L107.212 137.71H93.9189L114.529 158.32Z" fill="white"/>
<path d="M93.2681 131.734L98.2865 136.791H101.619L93.2681 128.439V131.734Z" fill="white"/>
<path d="M103.611 136.791H105.833C106.14 136.791 106.369 136.599 106.484 136.369L96.1027 125.987H93.9957C93.6509 125.987 93.3828 126.217 93.3062 126.485L103.611 136.791Z" fill="white"/>
<path d="M114.07 136.79H117.364L113.342 132.768V136.063C113.342 136.063 113.342 136.063 113.342 136.101L114.07 136.79Z" fill="#2D3845"/>
<path d="M113.342 127.443V130.776L119.356 136.791H119.663C120.046 136.791 120.391 136.484 120.391 136.063V134.492L113.342 127.443Z" fill="#2D3845"/>
<path fill-rule="evenodd" clip-rule="evenodd" d="M45.8371 126.595C45.8148 126.618 45.803 126.649 45.803 126.677V136.063C45.803 136.099 45.8158 136.124 45.8357 136.143C45.8589 136.166 45.8896 136.178 45.9178 136.178H63.8847C63.8918 136.178 63.9233 136.172 63.9588 136.137C63.9944 136.101 63.9996 136.07 63.9996 136.063V126.677C63.9996 126.64 63.9868 126.616 63.9668 126.596C63.9436 126.574 63.9129 126.562 63.8847 126.562H45.9178C45.8813 126.562 45.8564 126.575 45.8371 126.595ZM44.577 126.677C44.577 125.977 45.1371 125.336 45.9178 125.336H63.8847C64.5851 125.336 65.2256 125.896 65.2256 126.677V136.063C65.2256 136.784 64.6063 137.404 63.8847 137.404H45.9178C45.2174 137.404 44.577 136.843 44.577 136.063V126.677Z" fill="#2D3845"/>
<path fill-rule="evenodd" clip-rule="evenodd" d="M93.9153 126.595C93.8929 126.618 93.8811 126.649 93.8811 126.677V136.063C93.8811 136.099 93.8939 136.124 93.9139 136.143C93.937 136.166 93.9677 136.178 93.996 136.178H105.833C105.84 136.178 105.872 136.172 105.908 136.137C105.943 136.101 105.948 136.07 105.948 136.063V126.677C105.948 126.64 105.935 126.616 105.915 126.596C105.892 126.574 105.862 126.562 105.833 126.562H93.996C93.9595 126.562 93.9345 126.575 93.9153 126.595ZM92.6551 126.677C92.6551 125.977 93.2152 125.336 93.996 125.336H105.833C106.534 125.336 107.174 125.896 107.174 126.677V136.063C107.174 136.784 106.555 137.404 105.833 137.404H93.996C93.2955 137.404 92.6551 136.843 92.6551 136.063V126.677Z" fill="#2D3845"/>
<defs>
<filter id="filter0_d_33_16" x="0" y="0" width="191" height="191" filterUnits="userSpaceOnUse" color-interpolation-filters="sRGB">
<feFlood flood-opacity="0" result="BackgroundImageFix"/>
<feColorMatrix in="SourceAlpha" type="matrix" values="0 0 0 0 0 0 0 0 0 0 0 0 0 0 0 0 0 0 127 0" result="hardAlpha"/>
<feOffset/>
<feGaussianBlur stdDeviation="10"/>
<feColorMatrix type="matrix" values="0 0 0 0 0 0 0 0 0 0 0 0 0 0 0 0 0 0 0.6 0"/>
<feBlend mode="normal" in2="BackgroundImageFix" result="effect1_dropShadow_33_16"/>
<feBlend mode="normal" in="SourceGraphic" in2="effect1_dropShadow_33_16" result="shape"/>
</filter>
<linearGradient id="paint0_linear_33_16" x1="131.11" y1="97.9545" x2="121.767" y2="97.9545" gradientUnits="userSpaceOnUse">
<stop stop-color="#1D1D1D"/>
<stop offset="1" stop-color="#282828"/>
</linearGradient>
<linearGradient id="paint1_linear_33_16" x1="126.672" y1="87.5378" x2="115.146" y2="87.5378" gradientUnits="userSpaceOnUse">
<stop stop-color="#1D1D1D"/>
<stop offset="1" stop-color="#282828"/>
</linearGradient>
<linearGradient id="paint2_linear_33_16" x1="121.984" y1="81.7843" x2="112.783" y2="81.7843" gradientUnits="userSpaceOnUse">
<stop stop-color="#1D1D1D"/>
<stop offset="1" stop-color="#282828"/>
</linearGradient>
<linearGradient id="paint3_linear_33_16" x1="121.983" y1="81.802" x2="112.457" y2="81.802" gradientUnits="userSpaceOnUse">
<stop stop-color="#1D1D1D"/>
<stop offset="1" stop-color="#282828"/>
</linearGradient>
<linearGradient id="paint4_linear_33_16" x1="132.024" y1="84.5534" x2="120.853" y2="84.5534" gradientUnits="userSpaceOnUse">
<stop stop-color="#1D1D1D"/>
<stop offset="1" stop-color="#282828"/>
</linearGradient>
<linearGradient id="paint5_linear_33_16" x1="132.024" y1="84.5534" x2="120.853" y2="84.5534" gradientUnits="userSpaceOnUse">
<stop stop-color="#1D1D1D"/>
<stop offset="1" stop-color="#282828"/>
</linearGradient>
<linearGradient id="paint6_linear_33_16" x1="135.727" y1="103.754" x2="122.16" y2="103.754" gradientUnits="userSpaceOnUse">
<stop stop-color="#1D1D1D"/>
<stop offset="1" stop-color="#282828"/>
</linearGradient>
<linearGradient id="paint7_linear_33_16" x1="140.786" y1="104.184" x2="121.647" y2="104.184" gradientUnits="userSpaceOnUse">
<stop stop-color="#1D1D1D"/>
<stop offset="1" stop-color="#282828"/>
</linearGradient>
<linearGradient id="paint8_linear_33_16" x1="140.786" y1="104.184" x2="121.647" y2="104.184" gradientUnits="userSpaceOnUse">
<stop stop-color="#1D1D1D"/>
<stop offset="1" stop-color="#282828"/>
</linearGradient>
<linearGradient id="paint9_linear_33_16" x1="125.421" y1="116.063" x2="111.063" y2="116.063" gradientUnits="userSpaceOnUse">
<stop stop-color="#1D1D1D"/>
<stop offset="1" stop-color="#282828"/>
</linearGradient>
<linearGradient id="paint10_linear_33_16" x1="124.507" y1="100.27" x2="114.59" y2="100.27" gradientUnits="userSpaceOnUse">
<stop stop-color="#1D1D1D"/>
<stop offset="1" stop-color="#282828"/>
</linearGradient>
<linearGradient id="paint11_linear_33_16" x1="125.421" y1="119.129" x2="119.94" y2="119.129" gradientUnits="userSpaceOnUse">
<stop stop-color="#1D1D1D"/>
<stop offset="1" stop-color="#282828"/>
</linearGradient>
</defs>
</svg>
