<svg width="191" height="191" viewBox="0 0 191 191" fill="none" xmlns="http://www.w3.org/2000/svg">
<g filter="url(#filter0_d_33_14)">
<circle cx="95.5" cy="95.5" r="75.5" fill="#F2C94C"/>
</g>
<path fill-rule="evenodd" clip-rule="evenodd" d="M157.605 138.445H118.394C117.101 138.445 116.645 140.004 117.253 140.688C117.177 140.802 117.101 140.954 117.101 141.22C116.835 143.502 116.151 145.707 115.048 147.76C112.615 152.246 109.117 155.325 103.985 156.124C102.413 156.377 100.808 156.326 99.2027 156.276C98.4001 156.25 97.5975 156.225 96.7991 156.238C93.2253 156.314 90.1078 155.059 87.4465 152.74C84.0248 149.737 82.1619 145.859 81.5536 141.372C81.4395 140.688 81.2494 140.422 80.4891 140.46C79.4626 140.498 78.4361 140.498 77.4096 140.498C77.3715 140.574 77.3335 140.65 77.2955 140.764C77.0294 141.753 76.7632 142.741 76.345 143.654C74.33 148.292 71.1365 151.714 66.004 152.892C64.3843 153.252 62.7472 153.212 61.1044 153.172C60.318 153.153 59.5302 153.134 58.7424 153.158C54.4843 153.272 51.0626 151.523 48.3633 148.33C44.3333 143.54 43.2688 137.951 44.4094 131.906C44.5614 131.069 44.3333 131.031 43.649 131.031C42.2043 131.05 40.7501 131.05 39.2959 131.05C37.8417 131.05 36.3875 131.05 34.9427 131.069C34.2964 131.069 34.0683 130.879 34.1063 130.195C34.1317 129.511 34.1232 128.826 34.1148 128.142C34.1105 127.8 34.1063 127.458 34.1063 127.115C34.451 126.771 34.8732 126.788 35.2877 126.804C35.3761 126.808 35.4641 126.811 35.551 126.811H47.4128H80.4511C82.1619 126.811 83.4545 126.203 84.405 124.758C86.2679 122.021 88.1688 119.284 90.0698 116.584C91.5905 114.417 93.6815 113.125 96.2668 112.82C99.7265 112.402 103.224 112.478 106.684 112.782C109.801 113.011 112.121 114.683 113.755 117.307C114.63 118.713 115.504 120.12 116.455 121.489C118.47 124.302 119.534 127.458 120.143 130.765C120.447 130.917 120.789 130.993 121.169 130.993C122.424 130.955 123.64 130.955 124.895 130.993C124.955 130.993 125.015 130.992 125.075 130.99C125.431 130.981 125.78 130.972 126.073 131.298C126.073 131.64 126.083 131.982 126.092 132.324C126.102 132.666 126.111 133.008 126.111 133.351H160.841C159.829 135.094 158.749 136.794 157.605 138.445Z" fill="#232226"/>
<path opacity="0.23" d="M87.2563 93.7352C87.5605 93.7352 87.9027 93.7732 88.2068 93.7732C100.639 93.7732 113.033 93.7732 125.465 93.8113C126.568 93.8113 127.138 93.4691 127.518 92.4426C129.343 87.6522 131.282 82.8999 133.145 78.1476C133.601 76.969 133.335 76.5888 132.042 76.5888C120.028 76.5888 107.977 76.5888 95.9626 76.5888C93.1112 82.1775 90.2598 87.7663 87.4084 93.355C87.3704 93.4311 87.3324 93.5831 87.2563 93.7352Z" fill="#80E7FF"/>
<path fill-rule="evenodd" clip-rule="evenodd" d="M160.708 133.579C167.251 122.4 171 109.388 171 95.5C171 95.2536 170.999 95.0075 170.997 94.7617H168.047C166.906 94.7617 166.564 94.4195 166.564 93.279V79.9724C166.564 78.7939 166.868 78.4897 168.009 78.4897H169.076C168.489 75.9414 167.774 73.4425 166.936 71L98.4725 71C96.6096 71 96.0393 71.5703 96.0013 73.4712V76.5508C96.4024 76.9519 96.9036 76.9273 97.3831 76.9038C97.4945 76.8983 97.6046 76.8929 97.7121 76.8929H130.75H131.891C132.993 76.9309 133.145 77.1591 132.803 78.1856C132.575 78.8319 132.309 79.5162 132.043 80.1625C131.093 82.4793 130.171 84.8243 129.252 87.1631C128.663 88.6624 128.075 90.1591 127.481 91.6442C126.758 93.4691 126.682 93.5071 124.743 93.5071H88.9298C88.8419 93.5071 88.754 93.5053 88.6663 93.5035C88.1847 93.4936 87.7072 93.4838 87.257 93.7732C85.1279 95.7502 82.6567 96.5866 79.7673 96.5866C76.2696 96.5431 72.7718 96.5493 69.2741 96.5556C66.6508 96.5602 64.0276 96.5649 61.4043 96.5486C59.9976 96.5486 58.781 96.9288 57.7545 97.9172C56.9941 98.6776 56.0056 99.0198 54.9031 99.0198H40.8362C38.327 99.0198 36.1979 99.7041 34.8673 102.061C34.335 103.012 34.1449 104 34.1449 105.103C34.1449 110.806 34.1449 116.508 34.1829 122.249C34.1829 123.048 33.9548 123.352 33.1564 123.238C32.7382 123.2 32.32 123.2 31.9018 123.238C30.8373 123.314 30.1529 124.15 30.191 125.215C30.229 126.279 30.9894 127.04 32.0919 127.078C32.7762 127.116 33.4225 127.116 34.1069 127.116C34.316 127.116 34.5251 127.106 34.7342 127.097C34.9433 127.087 35.1524 127.078 35.3615 127.078C50.4169 127.078 65.4723 127.078 80.5277 127.116C82.3526 127.116 83.6832 126.431 84.6717 124.91C86.0786 122.785 87.5563 120.683 89.0304 118.586C89.4285 118.02 89.8263 117.454 90.2224 116.889C92.0473 114.265 94.5946 113.011 97.7121 113.011C98.5244 113.011 99.334 113 100.142 112.989C102.361 112.959 104.569 112.93 106.799 113.125C109.308 113.353 111.399 114.493 112.844 116.546C114.516 118.942 116.113 121.413 117.634 123.922C118.982 126.169 119.482 128.784 119.969 131.332L119.991 131.45C120.295 133.008 120.903 133.579 122.5 133.579H150.558H160.708ZM138.202 76.0945C135.579 82.9759 132.917 89.8193 130.256 96.6626C129.762 97.9172 130.066 98.3735 131.397 98.4115H133.602C136.073 98.4115 137.708 96.9668 138.012 94.4575C138.126 93.6972 138.544 93.279 139.266 93.279C140.863 93.2409 142.498 93.2409 144.133 93.279C144.969 93.279 145.464 93.8112 145.464 94.6857C145.502 95.6361 145.54 96.5866 145.464 97.5371C145.426 98.2214 145.692 98.3735 146.338 98.3735H159.53C160.899 98.3735 161.355 97.8792 161.355 96.5106V86.5497V76.7789C161.355 75.2961 160.899 74.8399 159.416 74.8399C157.263 74.8399 155.106 74.8441 152.948 74.8484C148.626 74.8568 144.299 74.8653 139.989 74.8399C139.076 74.8399 138.544 75.2201 138.202 76.0945Z" fill="#855DF8"/>
<path d="M56.6515 123.276C62.5444 123.276 68.4753 123.276 74.3682 123.276C75.965 123.276 76.6493 122.591 76.6493 121.033C76.6493 116.622 76.6493 112.212 76.6493 107.802C76.6493 106.243 75.9269 105.521 74.3682 105.521C62.5444 105.521 50.6826 105.521 38.8588 105.521C37.262 105.521 36.5776 106.205 36.5776 107.802C36.5776 112.212 36.5776 116.622 36.5776 121.033C36.5776 122.629 37.262 123.314 38.8588 123.314C44.7897 123.276 50.7206 123.276 56.6515 123.276Z" fill="#232226"/>
<path opacity="0.23" d="M131.396 98.3734C132.119 98.3734 132.879 98.3734 133.601 98.3734C136.11 98.3734 137.707 96.9668 138.011 94.4195C138.125 93.6591 138.506 93.2409 139.266 93.2409C140.901 93.2029 142.536 93.2029 144.132 93.2409C145.007 93.2789 145.463 93.7732 145.463 94.6476C145.463 95.5981 145.501 96.5486 145.463 97.499C145.425 98.1834 145.691 98.3354 146.337 98.3354C150.748 98.2974 155.12 98.3354 159.53 98.3354C160.861 98.3354 161.355 97.8412 161.355 96.4725C161.355 93.1649 161.355 89.8573 161.355 86.5116C161.355 83.242 161.355 80.0104 161.355 76.7408C161.355 75.2581 160.899 74.8019 159.416 74.8019C152.953 74.8019 146.452 74.8019 139.988 74.8019C139.076 74.8019 138.544 75.1441 138.201 76.0185C135.578 82.8999 132.917 89.7432 130.256 96.5866C129.761 97.9172 130.065 98.3734 131.396 98.3734Z" fill="#80E7FF"/>
<path opacity="0.23" fill-rule="evenodd" clip-rule="evenodd" d="M169.076 78.4897C170.282 83.7265 170.943 89.1714 170.997 94.7617H168.046C166.867 94.7617 166.563 94.4195 166.563 93.279V79.9724C166.563 78.7939 166.867 78.4897 168.008 78.4897H169.076Z" fill="#80E7FF"/>
<path fill-rule="evenodd" clip-rule="evenodd" d="M170.954 98.1611C170.951 98.252 170.948 98.3427 170.944 98.4335C160.752 98.4086 153.751 98.3569 153.751 98.2973C153.751 98.2377 160.756 98.186 170.954 98.1611Z" fill="#232226"/>
<path d="M97.9395 75.068C110.752 75.068 123.564 75.068 136.376 75.068C136.376 74.9919 136.376 74.9159 136.376 74.8398C123.564 74.8398 110.752 74.8398 97.9395 74.8398C97.9775 74.9159 97.9395 74.9919 97.9395 75.068Z" fill="#232226"/>
<path fill-rule="evenodd" clip-rule="evenodd" d="M168.123 74.7852C168.148 74.8724 168.173 74.9596 168.197 75.0468C160.186 75.0204 154.815 74.9716 154.815 74.9159C154.815 74.8604 160.153 74.8118 168.123 74.7852Z" fill="#232226"/>
<path d="M122.804 98.1833C110.144 98.1833 97.5215 98.1833 84.8613 98.1833C84.8613 98.2594 84.8613 98.3354 84.8613 98.4115C97.5215 98.4115 110.144 98.4115 122.804 98.4115C122.804 98.2974 122.804 98.2594 122.804 98.1833Z" fill="#232226"/>
<path d="M82.6563 119.094C83.6448 117.763 84.5192 116.546 85.4317 115.33C86.2681 114.189 87.0665 113.049 87.9409 111.946C90.222 109.057 93.1875 107.574 96.8753 107.536C100.335 107.536 103.757 107.536 107.216 107.536C111.665 107.574 114.972 109.589 117.177 113.353C118.964 116.394 120.675 119.512 122.462 122.553C122.614 122.819 122.69 123.2 123.108 123.314C123.298 122.895 122.994 122.667 122.842 122.401C121.131 119.36 119.42 116.356 117.71 113.353C115.314 109.209 111.817 107.08 106.988 107.118C103.643 107.156 100.297 107.118 96.9514 107.118C93.2635 107.118 90.222 108.524 87.9029 111.338C86.078 113.581 84.4432 115.976 82.7324 118.333C82.5423 118.523 82.4282 118.675 82.6563 119.094Z" fill="#2F2524"/>
<path d="M79.4623 108.334C79.4623 107.536 79.4623 106.738 79.4623 105.977C79.5003 103.544 80.831 102.213 83.2642 102.213C95.164 102.213 107.064 102.213 118.964 102.213C119.344 102.213 119.762 102.365 120.18 102.023C119.99 101.681 119.648 101.795 119.42 101.795C107.216 101.795 95.05 101.795 82.846 101.795C80.831 101.795 79.3102 103.088 79.0821 105.103C78.9681 106.167 79.0441 107.27 79.0441 108.334C79.1962 108.372 79.3483 108.334 79.4623 108.334Z" fill="#3A2723"/>
<path d="M164.776 128.864C164.054 128.56 127.024 128.522 126.149 128.864C138.999 128.864 151.888 128.864 164.776 128.864Z" fill="#3A2723"/>
<path d="M56.4612 102.556C71.0752 102.556 78.0002 102.487 78.0002 102.403C78.0002 102.319 71.0752 102.251 56.4612 102.251C41.8472 102.251 38.0002 102.319 38.0002 102.403C38.0002 102.487 41.8472 102.556 56.4612 102.556Z" fill="#232226"/>
<path d="M162.533 100.921C162.495 100.997 162.419 101.073 162.419 101.149C163.332 109.057 163.332 116.965 162.609 124.91C163.788 116.927 163.75 108.905 162.799 100.921C162.723 100.921 162.609 100.921 162.533 100.921Z" fill="#292325"/>
<path d="M129.153 124.91C130.293 116.927 130.255 108.943 129.153 100.959C129.837 108.943 129.913 116.927 129.153 124.91Z" fill="#2D2425"/>
<path d="M128.659 95.8262C131.168 89.4011 133.639 82.9759 136.148 76.5508C136.034 76.5127 135.882 76.4367 135.768 76.3987C133.259 82.8238 130.788 89.249 128.279 95.6741C128.431 95.7122 128.545 95.7502 128.659 95.8262Z" fill="#2B2425"/>
<path d="M144.512 99.2859C143.752 99.0578 142.992 99.2099 142.269 99.1719C141.623 99.1339 140.977 99.1339 140.368 99.1719C139.532 99.2099 138.924 98.9818 138.771 98.0313C138.733 97.8412 138.657 97.4991 138.353 97.7652C137.707 98.3735 137.099 99.0578 136.566 99.7802C137.403 99.6281 137.669 98.7917 138.353 98.4115C138.771 99.362 139.57 99.5901 140.52 99.514C141.585 99.476 142.611 99.514 143.676 99.514C143.942 99.514 144.246 99.6661 144.512 99.2859Z" fill="#2A2425"/>
<path d="M158.465 101.871C155.88 101.871 153.333 101.871 150.747 101.871C150.747 101.947 150.747 101.985 150.747 102.061C153.333 102.061 155.88 102.061 158.465 102.061C158.465 102.023 158.465 101.947 158.465 101.871Z" fill="#3A2723"/>
<path d="M67.7905 114.569C67.8285 115.748 68.0567 117.117 68.8551 118.333C69.9956 120.082 71.7445 120.082 72.923 118.333C74.3297 116.242 74.3297 112.326 72.923 110.235C71.7825 108.524 70.0336 108.524 68.8931 110.235C68.2087 111.262 67.7905 112.821 67.7905 114.569Z" fill="#F9F9F9"/>
<path d="M38.7827 114.189C38.8207 115.368 39.0488 116.736 39.8472 117.953C40.9878 119.702 42.7367 119.702 43.9152 117.953C45.3219 115.862 45.3219 111.946 43.9152 109.855C42.7747 108.144 41.0258 108.144 39.8853 109.855C39.2009 110.882 38.7827 112.44 38.7827 114.189Z" fill="#F9F9F9"/>
<path d="M111.322 138.445C111.322 144.718 106.152 149.851 99.8786 149.813C93.6055 149.775 88.511 144.604 88.587 138.331C88.625 132.096 93.7576 127.001 99.9546 127.001C106.228 127.039 111.322 132.172 111.322 138.445Z" fill="#F9F9F9"/>
<path d="M99.8786 142.969C97.3693 142.969 95.3544 140.916 95.3924 138.407C95.3924 135.86 97.5214 133.769 100.031 133.807C102.502 133.845 104.517 135.936 104.517 138.445C104.517 140.992 102.464 143.007 99.8786 142.969Z" fill="#232226"/>
<path d="M101.551 76.8169H105.961C102.16 82.2155 97.4453 87.1579 93.3773 92.3665C93.1492 92.7467 92.921 93.0889 92.6929 93.393H88.1687C92.5028 87.7662 97.0271 82.3296 101.551 76.8169Z" fill="#FEFEFE"/>
<path d="M107.938 77.3111C108.052 77.121 108.204 76.9689 108.318 76.8169H111.512C111.398 76.8929 111.322 76.9689 111.208 77.045C107.368 81.9494 103.49 86.7778 99.5362 91.5681C98.8898 92.2144 98.3576 92.8607 97.8633 93.393H94.8599C98.8898 87.8423 103.718 82.7858 107.938 77.3111Z" fill="#FEFEFE"/>
<defs>
<filter id="filter0_d_33_14" x="0" y="0" width="191" height="191" filterUnits="userSpaceOnUse" color-interpolation-filters="sRGB">
<feFlood flood-opacity="0" result="BackgroundImageFix"/>
<feColorMatrix in="SourceAlpha" type="matrix" values="0 0 0 0 0 0 0 0 0 0 0 0 0 0 0 0 0 0 127 0" result="hardAlpha"/>
<feOffset/>
<feGaussianBlur stdDeviation="10"/>
<feColorMatrix type="matrix" values="0 0 0 0 0 0 0 0 0 0 0 0 0 0 0 0 0 0 0.6 0"/>
<feBlend mode="normal" in2="BackgroundImageFix" result="effect1_dropShadow_33_14"/>
<feBlend mode="normal" in="SourceGraphic" in2="effect1_dropShadow_33_14" result="shape"/>
</filter>
</defs>
</svg>
