<svg width="500" height="500" viewBox="0 0 500 500" fill="none" xmlns="http://www.w3.org/2000/svg">
<g opacity="0.7">
<path d="M104.719 73.3078C104.719 75.0792 104.331 76.7804 103.66 78.3062C101.736 82.6207 97.3756 85.6373 92.3268 85.6373C87.2781 85.6373 82.9179 82.6207 80.9937 78.3062C80.3053 76.7804 79.9346 75.0792 79.9346 73.3078C79.9346 70.6771 80.7643 68.2393 82.1765 66.2399L88.6374 72.6589C90.5086 74.518 93.5272 74.518 95.3984 72.6589L102.23 65.8716C103.801 67.9586 104.719 70.5192 104.719 73.3078Z" fill="#F2F2F2"/>
<path fill-rule="evenodd" clip-rule="evenodd" d="M123.908 44.3339C122.584 42.9133 121.172 41.5804 119.654 40.3352C119.654 40.3352 119.636 40.3352 119.636 40.3176C119.336 40.0896 119.054 39.8441 118.754 39.6161C118.754 39.6161 118.736 39.5986 118.718 39.5986C116.935 38.3358 114.746 37.5817 112.399 37.5817C106.626 37.5817 101.895 42.0364 101.507 47.7013V48.1222H109.68H109.751H109.821C110.739 48.1397 111.569 48.4379 112.257 48.929C112.487 49.0868 112.681 49.2797 112.875 49.4726C113.581 50.2268 114.023 51.244 114.023 52.3489C114.023 53.4538 113.599 54.4711 112.893 55.2252L109.239 58.9258L106.361 61.7845C108.974 64.9064 110.545 68.9227 110.545 73.3072C110.545 75.0435 110.298 76.7272 109.839 78.3056C107.65 85.8647 100.642 91.3892 92.345 91.3892C84.0482 91.3892 77.0224 85.8647 74.8511 78.3056C74.3921 76.7272 74.145 75.0435 74.145 73.3072C74.145 69.0805 75.5925 65.2045 78.0462 62.1178L74.9747 59.1012L71.4441 55.5935L71.4617 55.576C70.5791 54.8043 70.0142 53.6643 70.0142 52.384C70.0142 51.1739 70.5261 50.069 71.3382 49.2973C71.5677 49.0693 71.8325 48.8763 72.1149 48.7185C72.1149 48.7185 72.1325 48.7185 72.1325 48.701C72.6621 48.3853 73.2623 48.1924 73.8978 48.1397C74.0214 48.1222 74.1626 48.1222 74.2862 48.1222C74.4098 48.1222 74.5333 48.1222 74.6569 48.1397H83.1479V47.9293C82.8125 42.2118 78.0286 37.6869 72.1855 37.6869C69.6788 37.6869 67.3486 38.5287 65.4951 39.9318C65.3186 40.0721 65.142 40.2124 64.9655 40.3703C63.3591 41.6856 61.841 43.1238 60.4464 44.6672C53.5441 52.2437 49.3428 62.2932 49.3428 73.3072C49.3428 96.8963 68.5843 116.013 92.3274 116.013C116.07 116.013 135.312 96.8963 135.312 73.3072C135.312 62.1353 130.987 51.9456 123.908 44.3339ZM72.7504 99.6147C73.1741 99.8953 73.7037 100.071 74.2685 100.071C75.769 100.071 77.0047 98.843 77.0224 97.3523C77.0224 96.5104 76.634 95.7738 76.0515 95.2652L76.0691 95.2827C76.0338 95.2477 75.9809 95.2126 75.9279 95.1775H75.9103C75.8749 95.1424 75.822 95.1249 75.7867 95.0898C70.4379 91.0736 66.6249 85.1456 65.3539 78.3407C65.3009 78.0952 65.2656 77.8672 65.2303 77.6392C65.2126 77.534 65.195 77.4463 65.1773 77.341V77.3235C65.1244 77.0604 65.0361 76.7973 64.8949 76.5694C64.8596 76.4992 64.8066 76.4466 64.7713 76.3764C64.7184 76.3238 64.6831 76.2537 64.6301 76.2011C64.5771 76.1309 64.5242 76.0783 64.4712 76.0257L64.383 75.938C63.8887 75.482 63.2179 75.1838 62.4765 75.1838C62.2823 75.1838 62.1234 75.2014 61.9469 75.2364C61.6644 75.2891 61.3996 75.3767 61.1525 75.5171C60.3052 75.9906 59.7403 76.8675 59.7403 77.9023C59.7403 77.9724 59.7579 78.0601 59.7579 78.1303C59.7579 78.253 59.7932 78.3583 59.8109 78.481C61.1878 87.0397 65.8835 94.4935 72.5739 99.4919C72.6445 99.527 72.6974 99.5796 72.7504 99.6147Z" fill="#F2F2F2"/>
<path fill-rule="evenodd" clip-rule="evenodd" d="M92.171 91.3884V116.013C68.4999 115.929 49.3428 96.8445 49.3428 73.3072C49.3428 62.2932 53.5441 52.2437 60.4464 44.6671C61.841 43.1238 63.3591 41.6856 64.9655 40.3703C65.142 40.2124 65.3186 40.0721 65.4951 39.9318C67.3486 38.5287 69.6788 37.6869 72.1855 37.6869C78.0286 37.6869 82.8125 42.2118 83.1479 47.9293V48.1397H74.6569C74.5333 48.1222 74.4098 48.1222 74.2862 48.1222C74.1626 48.1222 74.0214 48.1222 73.8978 48.1397C73.2623 48.1923 72.6621 48.3853 72.1325 48.701C72.1325 48.7185 72.1149 48.7185 72.1149 48.7185C71.8325 48.8763 71.5677 49.0693 71.3382 49.2973C70.5261 50.0689 70.0142 51.1739 70.0142 52.384C70.0142 53.6643 70.5791 54.8043 71.4617 55.576L71.4441 55.5935L74.9747 59.1012L78.0462 62.1178C75.5925 65.2045 74.145 69.0805 74.145 73.3072C74.145 75.0435 74.3921 76.7272 74.8511 78.3056C77.0072 85.8118 83.9501 91.3118 92.171 91.3884ZM74.2685 100.071C73.7036 100.071 73.1741 99.8953 72.7504 99.6147C72.7314 99.6021 72.7124 99.5873 72.6926 99.5718C72.6572 99.5441 72.6191 99.5144 72.5739 99.4919C65.8835 94.4935 61.1878 87.0397 59.8109 78.481C59.8047 78.4377 59.7962 78.3965 59.7879 78.356C59.7727 78.2817 59.7579 78.2097 59.7579 78.1303C59.7579 78.0952 59.7535 78.0557 59.7491 78.0163C59.7447 77.9768 59.7403 77.9373 59.7403 77.9023C59.7403 76.8675 60.3052 75.9906 61.1525 75.517C61.3996 75.3767 61.6644 75.2891 61.9469 75.2364C62.1234 75.2014 62.2823 75.1838 62.4765 75.1838C63.2179 75.1838 63.8887 75.482 64.383 75.938L64.4712 76.0257C64.5242 76.0783 64.5771 76.1309 64.6301 76.201C64.6566 76.2274 64.6786 76.258 64.7007 76.2887C64.7228 76.3194 64.7448 76.3501 64.7713 76.3764C64.789 76.4115 64.811 76.4422 64.8331 76.4729C64.8552 76.5036 64.8772 76.5343 64.8949 76.5693C65.0361 76.7973 65.1244 77.0604 65.1773 77.3235V77.341C65.1862 77.3937 65.195 77.4419 65.2038 77.4901C65.2126 77.5383 65.2215 77.5866 65.2303 77.6392C65.2656 77.8672 65.3009 78.0952 65.3539 78.3407C66.6249 85.1456 70.4379 91.0736 75.7867 95.0898C75.8043 95.1074 75.8264 95.1205 75.8485 95.1337C75.8705 95.1468 75.8926 95.16 75.9102 95.1775H75.9279C75.9808 95.2126 76.0338 95.2477 76.0691 95.2827L76.0515 95.2652C76.634 95.7738 77.0224 96.5104 77.0224 97.3523C77.0047 98.843 75.769 100.071 74.2685 100.071Z" fill="#F2F2F2"/>
<path fill-rule="evenodd" clip-rule="evenodd" d="M74.1608 72.5454H49.3496C49.5385 61.8302 53.7037 52.0687 60.4465 44.6671C61.8411 43.1238 63.3592 41.6856 64.9656 40.3703C65.1422 40.2124 65.3187 40.0721 65.4952 39.9318C67.3488 38.5287 69.6789 37.6869 72.1856 37.6869C78.0287 37.6869 82.8126 42.2118 83.148 47.9293V48.1397H74.657C74.5335 48.1222 74.4099 48.1222 74.2863 48.1222C74.1627 48.1222 74.0215 48.1222 73.898 48.1397C73.2625 48.1923 72.6623 48.3853 72.1327 48.701C72.1327 48.7185 72.115 48.7185 72.115 48.7185C71.8326 48.8763 71.5678 49.0693 71.3383 49.2973C70.5263 50.0689 70.0143 51.1739 70.0143 52.384C70.0143 53.6643 70.5792 54.8043 71.4619 55.576L71.4442 55.5935L74.9748 59.1012L78.0464 62.1178C75.7408 65.0181 74.3236 68.6153 74.1608 72.5454Z" fill="#F2F2F2"/>
</g>
<path d="M283.053 246.5C280.293 246.5 277.753 245.82 275.433 244.46C273.113 243.1 271.273 241.26 269.913 238.94C268.553 236.62 267.873 234.08 267.873 231.32V216.74H276.513V230.84C276.513 232.64 277.153 234.18 278.433 235.46C279.713 236.78 281.253 237.44 283.053 237.44H296.793C297.753 237.44 298.533 237.12 299.133 236.48C299.733 235.88 300.033 235.1 300.033 234.14C300.033 233.42 299.813 232.76 299.373 232.16C298.933 231.56 298.333 231.18 297.573 231.02L282.093 227.48V219.62C282.093 217.34 282.673 215.22 283.833 213.26C285.033 211.26 286.633 209.68 288.633 208.52C290.673 207.36 292.853 206.78 295.173 206.78H306.333V215.36H295.053C293.893 215.36 292.873 215.8 291.993 216.68C291.153 217.52 290.733 218.52 290.733 219.68V220.64C294.413 221.44 296.813 221.98 297.933 222.26L300.333 222.8C302.853 223.56 304.913 225.02 306.513 227.18C308.113 229.34 308.913 231.76 308.913 234.44C308.913 236.64 308.373 238.66 307.293 240.5C306.213 242.34 304.733 243.8 302.853 244.88C301.013 245.96 298.993 246.5 296.793 246.5H283.053Z" fill="white"/>
<path d="M325.149 233C323.069 233 321.169 232.5 319.449 231.5C317.729 230.46 316.369 229.08 315.369 227.36C314.369 225.6 313.869 223.7 313.869 221.66V192.56H322.509V221.12C322.509 221.92 322.769 222.6 323.289 223.16C323.809 223.68 324.449 223.94 325.209 223.94H328.509C328.909 223.94 329.109 224.14 329.109 224.54V232.4C329.109 232.8 328.909 233 328.509 233H325.149Z" fill="white"/>
<path d="M360.431 207.56C362.831 207.56 365.031 208.1 367.031 209.18C369.031 210.26 370.611 211.76 371.771 213.68C372.971 215.56 373.571 217.68 373.571 220.04C373.571 222.4 372.971 224.58 371.771 226.58C370.571 228.54 368.951 230.1 366.911 231.26C364.911 232.42 362.751 233 360.431 233H328.511C328.111 233 327.911 232.8 327.911 232.4V224.54C327.911 224.14 328.111 223.94 328.511 223.94H334.751C334.311 222.74 334.091 221.52 334.091 220.28C334.091 218.88 334.371 217.5 334.931 216.14H331.091V207.56H360.431ZM342.911 220.04C342.911 221.08 343.291 222 344.051 222.8C344.811 223.56 345.731 223.94 346.811 223.94C347.891 223.94 348.811 223.56 349.571 222.8C350.331 222 350.711 221.08 350.711 220.04C350.711 218.96 350.331 218.04 349.571 217.28C348.811 216.52 347.891 216.14 346.811 216.14C345.731 216.14 344.811 216.52 344.051 217.28C343.291 218.04 342.911 218.96 342.911 220.04ZM360.431 223.94C361.591 223.94 362.551 223.58 363.311 222.86C364.111 222.1 364.511 221.16 364.511 220.04C364.511 218.92 364.111 218 363.311 217.28C362.551 216.52 361.591 216.14 360.431 216.14H357.491C357.931 217.54 358.151 218.92 358.151 220.28C358.151 221.56 357.971 222.78 357.611 223.94H360.431Z" fill="white"/>
<path d="M403.756 233C400.996 233 398.456 232.32 396.136 230.96C393.816 229.6 391.976 227.76 390.616 225.44C389.256 223.12 388.576 220.58 388.576 217.82V210.68H397.216V217.34C397.216 219.14 397.856 220.7 399.136 222.02C400.416 223.3 401.956 223.94 403.756 223.94H422.836C423.916 223.94 424.836 223.58 425.596 222.86C426.396 222.14 426.796 221.18 426.796 219.98C426.796 218.54 426.096 217.4 424.696 216.56L411.196 207.62V201.08L423.136 188.36L429.016 193.94L420.136 203.24L430.096 209.78C431.776 210.86 433.076 212.32 433.996 214.16C434.956 215.96 435.436 217.96 435.436 220.16C435.436 222.48 434.856 224.62 433.696 226.58C432.576 228.54 431.056 230.1 429.136 231.26C427.216 232.42 425.096 233 422.776 233H403.756Z" fill="white"/>
<path d="M454.32 223.94C454.72 223.94 454.92 224.14 454.92 224.54V232.4C454.92 232.8 454.72 233 454.32 233H451.8C450.76 233 449.82 232.88 448.98 232.64C448.82 235.44 448.28 237.8 447.36 239.72C446.44 241.68 444.98 243.44 442.98 245C440.98 246.6 438.18 248.28 434.58 250.04L431.34 242.78C434.18 241.14 436.2 239.82 437.4 238.82C438.6 237.82 439.4 236.74 439.8 235.58C440.2 234.42 440.4 232.74 440.4 230.54V210.62H449.04V221.12C449.04 221.92 449.3 222.6 449.82 223.16C450.34 223.68 451 223.94 451.8 223.94H454.32Z" fill="white"/>
<path d="M453.532 195.98H461.272V203.72H453.532V195.98ZM464.392 195.98H472.072V203.72H464.392V195.98ZM454.312 233C453.912 233 453.712 232.8 453.712 232.4V224.54C453.712 224.14 453.912 223.94 454.312 223.94H460.792C461.552 223.94 462.192 223.66 462.712 223.1C463.272 222.54 463.552 221.88 463.552 221.12V208.82H472.132V221.66C472.132 223.7 471.632 225.6 470.632 227.36C469.632 229.08 468.272 230.46 466.552 231.5C464.832 232.5 462.932 233 460.852 233H454.312Z" fill="white"/>
<path d="M105.67 345.56C102.19 345.56 98.9696 344.68 96.0096 342.92C93.0496 341.2 90.6896 338.86 88.9296 335.9C87.2096 332.94 86.3496 329.72 86.3496 326.24V315.02H94.9896V325.76C94.9896 327.68 95.4696 329.46 96.4296 331.1C97.3896 332.74 98.6896 334.04 100.33 335C101.97 335.96 103.75 336.44 105.67 336.44C107.63 336.44 109.43 335.96 111.07 335C112.75 334.04 114.07 332.74 115.03 331.1C115.99 329.46 116.47 327.68 116.47 325.76V294.56H125.11V326.24C125.11 329.72 124.23 332.94 122.47 335.9C120.75 338.86 118.39 341.2 115.39 342.92C112.43 344.68 109.19 345.56 105.67 345.56Z" fill="white"/>
<path d="M141.341 335C139.261 335 137.361 334.5 135.641 333.5C133.921 332.46 132.561 331.08 131.561 329.36C130.561 327.6 130.061 325.7 130.061 323.66V294.56H138.701V323.12C138.701 323.92 138.961 324.6 139.481 325.16C140.001 325.68 140.641 325.94 141.401 325.94H144.701C145.101 325.94 145.301 326.14 145.301 326.54V334.4C145.301 334.8 145.101 335 144.701 335H141.341Z" fill="white"/>
<path d="M144.703 335C144.303 335 144.103 334.8 144.103 334.4V326.54C144.103 326.14 144.303 325.94 144.703 325.94H147.223C148.023 325.94 148.683 325.68 149.203 325.16C149.763 324.6 150.043 323.92 150.043 323.12V312.62H158.623V323.12C158.623 323.92 158.883 324.6 159.403 325.16C159.923 325.68 160.583 325.94 161.383 325.94H163.963C164.363 325.94 164.563 326.14 164.563 326.54V334.4C164.563 334.8 164.363 335 163.963 335H161.383C158.503 335 156.143 334.02 154.303 332.06C152.543 334.02 150.183 335 147.223 335H144.703ZM150.643 340.04H158.323V347.78H150.643V340.04Z" fill="white"/>
<path d="M170.16 297.98H177.84V305.72H170.16V297.98ZM163.98 335C163.58 335 163.38 334.8 163.38 334.4V326.54C163.38 326.14 163.58 325.94 163.98 325.94H167.22C167.98 325.94 168.62 325.66 169.14 325.1C169.7 324.54 169.98 323.88 169.98 323.12V310.82H178.56V323.66C178.56 325.7 178.06 327.6 177.06 329.36C176.06 331.08 174.7 332.46 172.98 333.5C171.26 334.5 169.36 335 167.28 335H163.98Z" fill="white"/>
<path d="M198.144 325.94C199.024 325.94 199.724 325.68 200.244 325.16C200.804 324.64 201.084 323.98 201.084 323.18C201.084 322.62 200.904 322.14 200.544 321.74C200.224 321.3 199.624 320.78 198.744 320.18L186.144 311.54L191.004 304.4L205.044 314.12C206.564 315.28 207.704 316.56 208.464 317.96C209.264 319.32 209.664 320.98 209.664 322.94C209.664 325.18 209.104 327.22 207.984 329.06C206.904 330.9 205.424 332.36 203.544 333.44C201.664 334.48 199.624 335 197.424 335H183.144V325.94H198.144Z" fill="white"/>
<path d="M239.931 307.04H247.671V314.72H239.931V307.04ZM243.951 345.56C240.471 345.56 237.251 344.68 234.291 342.92C231.331 341.2 228.971 338.86 227.211 335.9C225.491 332.94 224.631 329.72 224.631 326.24V315.02H233.271V325.76C233.271 327.68 233.751 329.46 234.711 331.1C235.671 332.74 236.971 334.04 238.611 335C240.251 335.96 242.031 336.44 243.951 336.44C245.911 336.44 247.711 335.96 249.351 335C251.031 334.04 252.351 332.74 253.311 331.1C254.271 329.46 254.751 327.68 254.751 325.76V312.62H263.391V326.24C263.391 329.72 262.511 332.94 260.751 335.9C259.031 338.86 256.671 341.2 253.671 342.92C250.711 344.68 247.471 345.56 243.951 345.56Z" fill="white"/>
<path d="M279.622 335C277.542 335 275.642 334.5 273.922 333.5C272.202 332.46 270.842 331.08 269.842 329.36C268.842 327.6 268.342 325.7 268.342 323.66V294.56H276.982V323.12C276.982 323.92 277.242 324.6 277.762 325.16C278.282 325.68 278.922 325.94 279.682 325.94H282.982C283.382 325.94 283.582 326.14 283.582 326.54V334.4C283.582 334.8 283.382 335 282.982 335H279.622Z" fill="white"/>
<path d="M283.884 297.86L294.444 286.7L298.584 290.9L288.024 302.06L283.884 297.86ZM282.984 335C282.584 335 282.384 334.8 282.384 334.4V326.54C282.384 326.14 282.584 325.94 282.984 325.94H302.064C303.144 325.94 304.064 325.58 304.824 324.86C305.584 324.14 305.964 323.18 305.964 321.98C305.964 320.54 305.284 319.4 303.924 318.56L290.304 309.62V303.08L302.304 290.36L308.184 295.94L299.304 305.24L309.264 311.78C310.944 312.86 312.244 314.32 313.164 316.16C314.124 317.96 314.604 319.96 314.604 322.16C314.604 324.48 314.024 326.62 312.864 328.58C311.744 330.54 310.224 332.1 308.304 333.26C306.384 334.42 304.264 335 301.944 335H282.984Z" fill="white"/>
<path d="M333.361 325.94C334.241 325.94 334.981 325.7 335.581 325.22C336.181 324.7 336.481 324 336.481 323.12C336.481 322.88 336.361 322.36 336.121 321.56L330.421 306.08L338.581 303.02L345.961 323.48C346.641 325.12 347.721 325.94 349.201 325.94H349.561C349.961 325.94 350.161 326.14 350.161 326.54V334.4C350.161 334.8 349.961 335 349.561 335H348.781C347.141 335 345.681 334.68 344.401 334.04C343.121 333.4 342.161 332.6 341.521 331.64C340.241 332.92 339.021 333.8 337.861 334.28C336.701 334.76 335.201 335 333.361 335H319.081V325.94H333.361Z" fill="white"/>
<path d="M355.787 299.78H363.467V307.46H355.787V299.78ZM348.947 326.54C348.947 326.14 349.147 325.94 349.547 325.94H352.547C353.347 325.94 354.007 325.68 354.527 325.16C355.047 324.6 355.307 323.92 355.307 323.12V312.62H363.947V323.12C363.947 323.92 364.207 324.6 364.727 325.16C365.247 325.68 365.907 325.94 366.707 325.94H369.707C370.107 325.94 370.307 326.14 370.307 326.54V334.4C370.307 334.8 370.107 335 369.707 335H366.707C363.747 335 361.387 334.02 359.627 332.06C357.787 334.02 355.427 335 352.547 335H349.547C349.147 335 348.947 334.8 348.947 334.4V326.54Z" fill="white"/>
<path d="M375.883 297.98H383.563V305.72H375.883V297.98ZM369.703 335C369.303 335 369.103 334.8 369.103 334.4V326.54C369.103 326.14 369.303 325.94 369.703 325.94H372.943C373.703 325.94 374.343 325.66 374.863 325.1C375.423 324.54 375.703 323.88 375.703 323.12V310.82H384.283V323.66C384.283 325.7 383.783 327.6 382.783 329.36C381.783 331.08 380.423 332.46 378.703 333.5C376.983 334.5 375.083 335 373.003 335H369.703Z" fill="white"/>
<path d="M388.986 294.56H397.626V335H388.986V294.56Z" fill="white"/>
<path d="M430.774 325.94C431.174 325.94 431.374 326.14 431.374 326.54V334.4C431.374 334.8 431.174 335 430.774 335H428.074C427.754 337.76 426.934 340.08 425.614 341.96C424.334 343.84 422.474 345.52 420.034 347C417.634 348.52 414.274 350.2 409.954 352.04L407.254 344.42C410.814 342.9 413.454 341.66 415.174 340.7C416.934 339.74 418.134 338.84 418.774 338C419.414 337.16 419.734 336.16 419.734 335H415.834C413.434 335 411.234 334.46 409.234 333.38C407.234 332.3 405.634 330.82 404.434 328.94C403.274 327.02 402.694 324.88 402.694 322.52C402.694 320.12 403.274 317.92 404.434 315.92C405.634 313.92 407.234 312.34 409.234 311.18C411.234 309.98 413.434 309.38 415.834 309.38C418.154 309.38 420.274 309.98 422.194 311.18C424.114 312.34 425.614 313.92 426.694 315.92C427.774 317.92 428.314 320.12 428.314 322.52V325.94H430.774ZM419.734 322.46C419.734 321.3 419.354 320.34 418.594 319.58C417.874 318.82 416.954 318.44 415.834 318.44C414.674 318.44 413.694 318.82 412.894 319.58C412.134 320.34 411.754 321.3 411.754 322.46C411.754 323.62 412.134 324.58 412.894 325.34C413.694 326.1 414.674 326.48 415.834 326.48H419.734V322.46Z" fill="white"/>
<path d="M442.878 292.4H450.558V300.08H442.878V292.4ZM430.758 335C430.358 335 430.158 334.8 430.158 334.4V326.54C430.158 326.14 430.358 325.94 430.758 325.94H443.238C446.358 325.94 448.958 324.98 451.038 323.06L456.858 317.78L448.518 313.76C447.718 313.44 447.118 313.28 446.718 313.28C446.198 313.28 445.678 313.4 445.158 313.64C444.678 313.88 444.258 314.2 443.898 314.6L438.378 320.72L432.378 315.44L437.898 308.72C439.058 307.4 440.398 306.42 441.918 305.78C443.478 305.1 445.058 304.76 446.658 304.76C447.778 304.76 448.718 304.9 449.478 305.18C450.278 305.42 451.078 305.74 451.878 306.14L464.778 312.14C465.018 312.26 465.338 312.32 465.738 312.32H472.158V320.72H465.498L455.778 329.78C453.938 331.5 451.818 332.8 449.418 333.68C447.018 334.56 444.538 335 441.978 335H430.758Z" fill="white"/>
<path d="M373.426 433.28C372.226 432.08 371.326 430.74 370.726 429.26C370.126 427.78 369.826 426.24 369.826 424.64C369.826 422.92 370.166 421.24 370.846 419.6C371.566 417.92 372.586 416.42 373.906 415.1L376.666 412.34L373.966 409.7L380.146 403.7L391.606 415.1C392.926 416.42 393.926 417.92 394.606 419.6C395.286 421.24 395.626 422.92 395.626 424.64C395.626 426.24 395.326 427.8 394.726 429.32C394.126 430.8 393.226 432.12 392.026 433.28C390.786 434.52 389.366 435.46 387.766 436.1C386.166 436.74 384.486 437.06 382.726 437.06C381.006 437.06 379.346 436.74 377.746 436.1C376.146 435.46 374.706 434.52 373.426 433.28ZM379.906 426.8C380.746 427.64 381.706 428.06 382.786 428.06C383.826 428.06 384.766 427.64 385.606 426.8C386.366 426.04 386.746 425.16 386.746 424.16C386.746 423.04 386.326 422.06 385.486 421.22L382.726 418.4L379.966 421.1C379.126 421.94 378.706 422.9 378.706 423.98C378.706 425.06 379.106 426 379.906 426.8Z" fill="white"/>
<path d="M414.396 427.94C415.276 427.94 416.016 427.7 416.616 427.22C417.216 426.7 417.516 426 417.516 425.12C417.516 424.88 417.396 424.36 417.156 423.56L411.456 408.08L419.616 405.02L426.996 425.48C427.676 427.12 428.756 427.94 430.236 427.94H430.596C430.996 427.94 431.196 428.14 431.196 428.54V436.4C431.196 436.8 430.996 437 430.596 437H429.816C428.176 437 426.716 436.68 425.436 436.04C424.156 435.4 423.196 434.6 422.556 433.64C421.276 434.92 420.056 435.8 418.896 436.28C417.736 436.76 416.236 437 414.396 437H400.116V427.94H414.396Z" fill="white"/>
<path d="M458.182 391.22V398.96H450.502V391.22H458.182ZM452.722 402.02V409.7H445.042V402.02H452.722ZM455.842 409.7V402.02H463.582V409.7H455.842ZM472.162 412.82V437H461.362C458.482 437 456.162 435.96 454.402 433.88C452.682 436.04 450.302 437.12 447.262 437.12C444.262 437.12 441.902 436.06 440.182 433.94C438.462 435.98 436.102 437 433.102 437H430.582C430.182 437 429.982 436.8 429.982 436.4V428.54C429.982 428.14 430.182 427.94 430.582 427.94H433.102C433.902 427.94 434.562 427.68 435.082 427.16C435.642 426.6 435.922 425.92 435.922 425.12V414.62H444.502V425.24C444.502 426.04 444.762 426.72 445.282 427.28C445.802 427.8 446.462 428.06 447.262 428.06C448.062 428.06 448.722 427.8 449.242 427.28C449.762 426.72 450.022 426.04 450.022 425.24V414.62H458.662V425.12C458.662 425.92 458.922 426.6 459.442 427.16C459.962 427.68 460.602 427.94 461.362 427.94H463.522V412.82H472.162Z" fill="white"/>
</svg>
