<svg width="320" height="179" viewBox="0 0 320 179" fill="none" xmlns="http://www.w3.org/2000/svg">
<path d="M9.2052 178.05H308.973C309.174 172.447 307.272 155.037 305.922 152.936C300.068 143.981 286.511 140.028 276.855 138.327C266.4 136.476 253.692 136.376 245.038 130.123C235.632 123.319 231.48 109.912 220.274 107.01C212.619 105.009 204.715 108.211 196.961 109.661C185.704 111.813 173.848 110.262 163.442 105.309C151.785 99.7558 141.73 89.4501 128.822 86.8486C117.466 84.5473 104.559 90.2505 97.5548 99.4557C90.9511 108.161 89.9005 119.617 83.9972 128.622C78.1439 137.527 68.0882 143.881 57.2822 144.281C51.529 144.481 45.2254 143.33 40.3727 146.432C33.5689 150.835 32.8685 161.641 31.4177 165.643C28.5661 173.647 15.8589 166.393 9.2052 178.05Z" fill="#424242"/>
<path d="M84.1472 96.0038C80.295 88.8498 70.5395 84.5974 58.2326 88.3496C50.8785 90.6008 46.376 96.1039 40.1225 99.806C35.3198 102.658 29.5165 104.359 24.7639 107.21C20.0112 110.062 16.2091 114.714 17.96 119.117C19.711 123.569 26.2147 125.871 32.168 127.021C43.6745 129.172 56.2315 128.972 66.8375 125.02C75.3923 121.818 82.4963 115.665 84.9977 108.661C86.5485 104.108 86.0983 99.7059 84.1472 96.0038Z" fill="#424242"/>
<path d="M307.122 178.05H233.981C231.18 178.05 228.928 175.799 228.928 172.997V24.8639C228.928 22.0623 231.18 19.811 233.981 19.811H307.122C309.924 19.811 312.175 22.0623 312.175 24.8639V173.047C312.175 175.799 309.924 178.05 307.122 178.05Z" stroke="#EEEEEE" stroke-miterlimit="10" stroke-linejoin="round"/>
<path d="M273.704 169.695C273.704 171.446 272.303 172.847 270.552 172.847C268.801 172.847 267.4 171.446 267.4 169.695C267.4 167.944 268.801 166.543 270.552 166.543C272.303 166.543 273.704 167.944 273.704 169.695Z" stroke="#EEEEEE" stroke-miterlimit="10" stroke-linejoin="round"/>
<path d="M309.774 31.1175V161.391H231.33V31.1175H309.774ZM309.774 30.6172H231.33C231.03 30.6172 230.829 30.8173 230.829 31.1175V161.391C230.829 161.691 231.03 161.891 231.33 161.891H309.824C310.124 161.891 310.324 161.691 310.324 161.391V31.1175C310.274 30.8173 310.074 30.6172 309.774 30.6172Z" fill="#EEEEEE"/>
<path d="M265.799 25.114H280.958" stroke="#EEEEEE" stroke-width="2" stroke-miterlimit="10" stroke-linecap="round" stroke-linejoin="round"/>
<path d="M260.146 25.114H262.947" stroke="#EEEEEE" stroke-width="2" stroke-miterlimit="10" stroke-linecap="round" stroke-linejoin="round"/>
<path d="M231.33 114.714C239.184 124.12 242.036 132.975 256.594 132.825C260.896 132.774 265.349 131.474 269.301 133.425C271.802 134.676 273.804 137.177 274.804 140.179C275.955 143.831 275.855 148.533 278.506 150.785C280.707 152.636 283.709 151.785 286.361 151.485C290.663 150.985 292.564 153.886 295.666 157.889C297.967 160.89 308.473 161.341 304.621 161.341C297.867 161.341 231.33 161.341 231.33 161.341V114.714Z" fill="#424242"/>
<path d="M285.46 120.918C288.112 120.918 290.763 122.068 292.614 124.27C293.965 125.921 295.816 127.622 297.867 127.622C298.117 127.622 298.367 127.571 298.618 127.521C301.369 126.971 302.47 123.569 304.821 122.118C305.972 121.418 307.322 121.218 308.723 121.218C309.073 121.218 309.424 121.218 309.774 121.268V143.28C303.47 143.28 255.293 143.28 252.842 143.28C251.791 143.28 252.542 142.03 252.892 141.629C253.943 140.379 255.343 140.329 256.744 140.079C258.145 139.828 259.646 139.478 260.646 138.328C261.447 137.377 261.747 136.026 262.197 134.826C263.048 132.624 264.649 130.823 266.6 129.823C267.2 129.523 267.8 129.322 268.451 129.322C268.451 129.322 268.451 129.322 268.501 129.322C269.901 129.322 271.202 130.423 272.603 130.473H272.653C274.054 130.473 275.254 129.423 276.155 128.222C277.005 127.021 277.656 125.57 278.556 124.37C280.257 122.018 282.859 120.918 285.46 120.918ZM285.46 120.417C282.559 120.417 279.857 121.718 278.106 124.019C277.606 124.67 277.206 125.42 276.755 126.121C276.405 126.721 276.055 127.321 275.655 127.872C275.104 128.622 274.004 129.923 272.553 129.923H272.503C271.903 129.923 271.302 129.673 270.652 129.373C269.951 129.072 269.201 128.772 268.401 128.772H268.351C267.7 128.772 267.05 128.972 266.249 129.373C264.198 130.423 262.497 132.324 261.597 134.625C261.447 134.976 261.347 135.326 261.247 135.676C260.946 136.577 260.646 137.427 260.146 138.027C259.296 139.028 258.045 139.328 256.544 139.628C256.344 139.678 256.144 139.678 255.944 139.728C254.693 139.928 253.442 140.129 252.392 141.379C252.342 141.429 251.391 142.53 251.791 143.33C251.891 143.53 252.142 143.831 252.742 143.831H309.674C309.974 143.831 310.174 143.631 310.174 143.33V121.318C310.174 121.068 309.974 120.818 309.724 120.818C309.324 120.818 308.973 120.768 308.623 120.768C306.872 120.768 305.572 121.068 304.471 121.718C303.37 122.369 302.57 123.369 301.769 124.32C300.769 125.57 299.818 126.721 298.367 127.021C298.167 127.071 297.917 127.071 297.717 127.071C296.216 127.071 294.565 126.021 292.814 123.919C291.113 121.718 288.362 120.417 285.46 120.417Z" fill="#EEEEEE"/>
<path d="M309.774 40.6729C309.674 40.7229 309.574 40.7729 309.474 40.7729C307.172 41.7234 305.321 43.4744 303.62 45.2754C302.12 46.8263 300.669 48.5273 298.718 49.4778C296.016 50.7785 292.164 50.0281 289.212 50.2782C286.411 50.5284 280.207 53.8302 286.461 53.6301C294.215 53.38 302.02 53.2799 309.774 53.33V40.6729Z" fill="#424242"/>
<path d="M208.217 31.918C208.217 29.1664 202.964 30.167 200.262 30.167C199.212 30.167 197.961 30.167 197.461 28.9663C196.961 27.8157 197.561 26.3648 197.461 25.0141C197.261 22.3626 194.559 21.4621 192.558 22.0124C190.557 22.5627 188.456 23.7634 186.605 22.7128C184.103 21.312 184.203 18.7106 182.402 16.009C180.551 13.2575 177.4 12.6572 174.748 13.8078C172.097 14.9584 169.995 17.5599 168.294 20.4115C166.593 23.2631 165.643 28.2659 161.19 29.6167C158.489 30.4672 155.887 27.3654 153.236 27.6656C150.885 27.9157 147.933 29.2164 148.633 31.968H208.217V31.918Z" stroke="#EEEEEE" stroke-miterlimit="10" stroke-linejoin="round"/>
<path d="M130.573 17.4598C132.574 17.4598 128.872 13.9578 125.721 14.8083C124.87 15.0584 123.019 14.9583 122.169 14.6582C120.217 13.9078 120.167 11.3563 119.767 9.30517C119.367 7.25402 119.117 4.95273 117.766 3.35183C116.215 1.55082 113.464 1.10057 111.262 1.90102C109.011 2.70147 107.31 4.50248 105.509 6.05335C103.708 7.60422 101.457 9.005 99.1056 8.65481C97.3546 8.40467 95.9038 7.30405 94.2029 6.90383C90.801 6.10338 87.4491 8.20456 84.8476 10.5058C82.2962 12.8572 79.8448 14.1079 76.543 15.1585C74.742 15.7088 70.4395 16.5592 65.937 15.6087C63.7858 15.1585 62.4851 13.8577 60.2338 13.8577C56.932 13.8577 54.9809 15.8088 53.2799 17.5098C56.0815 17.4598 128.572 17.4598 130.573 17.4598Z" fill="#424242"/>
<path d="M0.100098 178.05H319.479" stroke="#010101" stroke-miterlimit="10" stroke-linejoin="round"/>
<path d="M296.767 114.364C296.767 114.965 296.266 115.465 295.666 115.465C295.066 115.465 294.565 114.965 294.565 114.364C294.565 113.764 295.066 113.264 295.666 113.264C296.266 113.264 296.767 113.764 296.767 114.364Z" stroke="#EEEEEE" stroke-miterlimit="10" stroke-linejoin="round"/>
<path d="M169.995 54.1805C169.995 54.7808 169.495 55.2811 168.895 55.2811C168.294 55.2811 167.794 54.7808 167.794 54.1805C167.794 53.5801 168.294 53.0798 168.895 53.0798C169.495 53.0798 169.995 53.5801 169.995 54.1805Z" stroke="#EEEEEE" stroke-miterlimit="10" stroke-linejoin="round"/>
<path d="M218.623 17.4598C218.623 18.0601 218.122 18.5604 217.522 18.5604C216.922 18.5604 216.421 18.0601 216.421 17.4598C216.421 16.8594 216.922 16.3591 217.522 16.3591C218.122 16.3591 218.623 16.8594 218.623 17.4598Z" stroke="#EEEEEE" stroke-miterlimit="10" stroke-linejoin="round"/>
<path d="M22.0124 86.3985C22.0124 86.9988 21.5121 87.4991 20.9118 87.4991C20.3114 87.4991 19.8112 86.9988 19.8112 86.3985C19.8112 85.7981 20.3114 85.2979 20.9118 85.2979C21.5121 85.2979 22.0124 85.7981 22.0124 86.3985Z" stroke="#EEEEEE" stroke-miterlimit="10" stroke-linejoin="round"/>
<path d="M99.1055 41.2232C99.1055 41.8235 98.6052 42.3238 98.0049 42.3238C97.4046 42.3238 96.9043 41.8235 96.9043 41.2232C96.9043 40.6228 97.4046 40.1226 98.0049 40.1226C98.6052 40.1226 99.1055 40.6228 99.1055 41.2232Z" stroke="#EEEEEE" stroke-miterlimit="10" stroke-linejoin="round"/>
<path d="M109.461 129.923C109.461 130.523 108.961 131.023 108.361 131.023C107.761 131.023 107.26 130.523 107.26 129.923C107.26 129.323 107.761 128.822 108.361 128.822C108.961 128.822 109.461 129.323 109.461 129.923Z" stroke="#EEEEEE" stroke-miterlimit="10" stroke-linejoin="round"/>
<path d="M23.113 145.882C23.113 146.482 22.6127 146.982 22.0124 146.982C21.412 146.982 20.9117 146.482 20.9117 145.882C20.9117 145.282 21.412 144.781 22.0124 144.781C22.6127 144.781 23.113 145.282 23.113 145.882Z" stroke="#EEEEEE" stroke-miterlimit="10" stroke-linejoin="round"/>
<path d="M78.7443 26.3147H100.006" stroke="#C5A546" stroke-width="1.5" stroke-miterlimit="10" stroke-linejoin="round"/>
<path d="M105.109 26.3147H113.564" stroke="#C5A546" stroke-width="1.5" stroke-miterlimit="10" stroke-linejoin="round"/>
<path d="M144.031 44.325H152.486" stroke="#C5A546" stroke-width="1.5" stroke-miterlimit="10" stroke-linejoin="round"/>
<path d="M151.085 151.785H159.54" stroke="#C5A546" stroke-width="1.5" stroke-miterlimit="10" stroke-linejoin="round"/>
<path d="M4.50244 102.708H20.2613" stroke="#C5A546" stroke-width="1.5" stroke-miterlimit="10" stroke-linejoin="round"/>
<path d="M288.912 85.5981H304.671" stroke="#C5A546" stroke-width="1.5" stroke-miterlimit="10" stroke-linejoin="round"/>
<path d="M300.769 91.9016H316.528" stroke="#C5A546" stroke-width="1.5" stroke-miterlimit="10" stroke-linejoin="round"/>
<path d="M158.639 146.982H174.398" stroke="#C5A546" stroke-width="1.5" stroke-miterlimit="10" stroke-linejoin="round"/>
<path d="M93.1522 139.928H108.911" stroke="#C5A546" stroke-width="1.5" stroke-miterlimit="10" stroke-linejoin="round"/>
<path d="M112.613 139.928H117.566" stroke="#C5A546" stroke-width="1.5" stroke-miterlimit="10" stroke-linejoin="round"/>
<path d="M161.691 65.937V68.9887" stroke="#EEEEEE" stroke-miterlimit="10" stroke-linejoin="round"/>
<path d="M163.242 67.4377H160.14" stroke="#EEEEEE" stroke-miterlimit="10" stroke-linejoin="round"/>
<path d="M241.936 49.2275V52.3293" stroke="#EEEEEE" stroke-miterlimit="10" stroke-linejoin="round"/>
<path d="M243.487 50.7783H240.385" stroke="#EEEEEE" stroke-miterlimit="10" stroke-linejoin="round"/>
<path d="M198.211 0V3.05171" stroke="#EEEEEE" stroke-miterlimit="10" stroke-linejoin="round"/>
<path d="M199.762 1.50073H196.71" stroke="#EEEEEE" stroke-miterlimit="10" stroke-linejoin="round"/>
<path d="M154.687 21.0117V24.1135" stroke="#EEEEEE" stroke-miterlimit="10" stroke-linejoin="round"/>
<path d="M156.238 22.5625H153.136" stroke="#EEEEEE" stroke-miterlimit="10" stroke-linejoin="round"/>
<path d="M304.671 100.656V103.758" stroke="#EEEEEE" stroke-miterlimit="10" stroke-linejoin="round"/>
<path d="M306.172 102.207H303.12" stroke="#EEEEEE" stroke-miterlimit="10" stroke-linejoin="round"/>
<path d="M81.7959 32.9685V36.0202" stroke="#EEEEEE" stroke-miterlimit="10" stroke-linejoin="round"/>
<path d="M83.3468 34.4692H80.295" stroke="#EEEEEE" stroke-miterlimit="10" stroke-linejoin="round"/>
<path d="M1.5509 120.317V123.419" stroke="#EEEEEE" stroke-miterlimit="10" stroke-linejoin="round"/>
<path d="M3.10174 121.868H0" stroke="#EEEEEE" stroke-miterlimit="10" stroke-linejoin="round"/>
<path d="M189.156 129.573L188.506 129.423L186.204 139.328C186.104 139.728 185.804 140.029 185.404 140.129L185.354 140.179L186.404 140.429C186.454 140.429 186.504 140.429 186.504 140.429H186.554C186.755 140.329 186.955 140.129 187.005 139.878L189.306 129.823C189.356 129.723 189.306 129.623 189.156 129.573Z" fill="#010101"/>
<path d="M176.949 126.171L184.703 129.372L188.155 129.973L185.904 139.578C185.854 139.828 185.554 139.978 185.304 139.928C185.104 139.878 184.954 139.728 184.903 139.528L183.553 134.625L175.248 132.474" fill="#FFA18D"/>
<path d="M182.052 128.272L184.653 129.323L188.105 129.923L185.854 139.528C185.804 139.778 185.504 139.929 185.254 139.878C185.054 139.828 184.904 139.678 184.854 139.478L183.503 134.576L180.001 133.675" fill="#EEEEEE"/>
<path d="M183.103 134.626L184.854 139.778C184.904 139.979 185.104 140.179 185.354 140.229C185.704 140.329 186.054 140.029 186.104 139.778L188.506 129.473L184.553 129.323C184.553 129.273 184.904 132.724 183.103 134.626Z" fill="#4376CF"/>
<path d="M183.153 135.376C183.603 135.176 184.053 135.076 184.503 134.976" stroke="#010101" stroke-miterlimit="10" stroke-linecap="round" stroke-linejoin="round"/>
<path d="M183.403 136.076C183.903 135.876 184.153 135.826 184.553 135.726" stroke="#010101" stroke-miterlimit="10" stroke-linecap="round" stroke-linejoin="round"/>
<path d="M183.553 136.627C183.853 136.477 184.303 136.426 184.603 136.326" stroke="#010101" stroke-miterlimit="10" stroke-linecap="round" stroke-linejoin="round"/>
<path d="M138.227 177.85V177.199L128.022 177.149C127.621 177.149 127.271 176.899 127.021 176.549H126.971V177.649C126.971 177.699 126.971 177.75 127.021 177.75V177.8C127.171 178 127.421 178.1 127.671 178.1L137.977 178.15C138.127 178.05 138.227 177.95 138.227 177.85Z" fill="#010101"/>
<path d="M136.126 164.792L137.477 173.447L137.677 176.949L127.821 176.899C127.571 176.899 127.321 176.649 127.321 176.399C127.321 176.199 127.421 175.999 127.621 175.949L132.074 173.547L129.572 164.592" fill="#FFA18D"/>
<path d="M136.977 170.245L137.477 173.397L137.677 176.899L127.821 176.849C127.571 176.849 127.321 176.599 127.321 176.349C127.321 176.149 127.421 175.949 127.621 175.899L132.074 173.497L131.273 170.596" fill="#EEEEEE"/>
<path d="M131.974 173.047L127.371 175.898C127.171 175.999 127.021 176.249 127.021 176.499C127.021 176.849 127.371 177.149 127.671 177.149L138.277 177.199L137.527 173.347C137.477 173.297 134.225 174.398 131.974 173.047Z" fill="#4376CF"/>
<path d="M131.273 173.247C131.574 173.647 131.774 174.048 131.974 174.498" stroke="#010101" stroke-miterlimit="10" stroke-linecap="round" stroke-linejoin="round"/>
<path d="M130.623 173.647C130.923 174.047 131.023 174.298 131.173 174.698" stroke="#010101" stroke-miterlimit="10" stroke-linecap="round" stroke-linejoin="round"/>
<path d="M130.123 173.948C130.323 174.248 130.473 174.598 130.623 174.898" stroke="#010101" stroke-miterlimit="10" stroke-linecap="round" stroke-linejoin="round"/>
<path d="M119.067 76.5928V81.5956C119.067 81.5956 114.964 111.963 118.116 128.572C121.418 145.832 129.773 167.244 129.773 167.244H137.077C137.077 167.244 134.475 133.625 133.825 126.221C134.175 119.117 135.876 96.654 135.876 96.654C135.876 96.654 142.93 85.7979 135.926 76.8929" fill="#4376CF"/>
<path d="M135.676 167.194C135.676 167.194 132.574 137.127 131.624 127.521C131.524 126.621 131.524 125.67 131.574 124.77C132.124 116.565 133.525 96.6541 133.525 96.6541" stroke="#1D334F" stroke-width="0.75" stroke-miterlimit="10" stroke-linejoin="round"/>
<path d="M124.47 79.9447C124.47 79.9447 124.42 91.1009 125.42 96.0537C126.921 103.208 129.923 113.764 137.827 122.068C145.181 129.873 176.349 133.125 176.349 133.125L178.75 126.621C178.75 126.621 160.34 114.514 148.283 113.714C147.533 111.212 144.131 93.9525 144.131 93.9525C144.131 93.9525 144.431 84.097 139.128 79.2943C138.728 78.9441 138.377 78.5939 138.127 78.1437L134.475 71.3398" fill="#4376CF"/>
<path d="M119.067 81.5455C119.067 81.5455 128.822 83.4466 138.628 78.844" stroke="#1D334F" stroke-width="0.75" stroke-miterlimit="10" stroke-linejoin="round"/>
<path d="M123.519 81.9459L122.568 81.8959C122.268 81.8959 121.968 81.5957 121.968 81.2955V79.2944C121.968 78.9942 122.218 78.6941 122.518 78.6941L123.819 78.644" stroke="#1D334F" stroke-width="0.75" stroke-miterlimit="10" stroke-linejoin="round"/>
<path d="M123.869 80.3448C123.869 80.5449 123.719 80.745 123.469 80.745C123.269 80.745 123.069 80.5949 123.069 80.3448C123.069 80.0947 123.219 79.9446 123.469 79.9446C123.669 79.9446 123.869 80.1447 123.869 80.3448Z" fill="#EEEEEE"/>
<path d="M124.47 81.9458C124.47 81.9458 124.42 91.1009 125.42 96.0037C126.521 101.457 129.072 110.212 134.375 117.866" stroke="#1D334F" stroke-width="0.75" stroke-miterlimit="10" stroke-linejoin="round"/>
<path d="M122.569 81.8958C122.619 83.2965 122.669 84.6973 122.719 86.0981C122.819 88.4494 122.268 90.7507 124.87 91.8513" stroke="#1D334F" stroke-width="0.75" stroke-miterlimit="10" stroke-linejoin="round"/>
<path d="M129.472 81.4455L128.722 78.4438" stroke="#1D334F" stroke-width="0.75" stroke-miterlimit="10" stroke-linejoin="round"/>
<path d="M136.476 79.7445L135.426 76.5928" stroke="#1D334F" stroke-width="0.75" stroke-miterlimit="10" stroke-linejoin="round"/>
<path d="M178.3 127.772C178.3 127.772 159.789 117.016 147.833 115.465C147.032 115.365 146.432 114.814 146.232 114.014C145.231 109.511 142.98 98.7553 142.48 96.0538C142.43 95.7536 142.43 95.4534 142.43 95.1032C142.63 93.2522 141.829 82.9964 136.426 79.6946" stroke="#1D334F" stroke-width="0.75" stroke-miterlimit="10" stroke-linejoin="round"/>
<path d="M180.351 127.221L178.45 126.071L175.698 133.425L177.95 133.775L180.351 127.221Z" fill="#89B5F4"/>
<path d="M137.477 168.294V166.093H129.022L129.522 168.294H137.477Z" fill="#89B5F4"/>
<path d="M133.525 80.7451C133.525 80.7451 136.726 82.9964 140.128 84.097" stroke="#1D334F" stroke-width="0.75" stroke-miterlimit="10" stroke-linejoin="round"/>
<path d="M118.266 86.8986C118.266 86.8986 119.767 84.1971 120.467 81.9458" stroke="#1D334F" stroke-width="0.75" stroke-miterlimit="10" stroke-linejoin="round"/>
<path d="M143.881 56.2815C143.881 56.2815 153.486 67.1876 154.437 70.1893C155.387 73.191 157.538 90.5007 157.538 90.5007L152.535 91.101L146.882 72.6907L134.475 60.734" fill="#FFA18D"/>
<path d="M152.235 89.45C152.335 90.6507 152.485 92.8519 152.585 94.0526C152.635 94.753 152.886 95.9537 153.186 96.0037C153.986 96.1038 153.286 94.1527 153.736 94.2027C153.986 94.2527 154.086 95.7536 154.136 96.554C154.186 97.2544 154.336 98.1549 154.787 98.255C155.337 98.355 155.037 94.4528 155.037 94.4528C155.037 94.4528 155.537 98.5551 156.037 98.6052C156.738 98.7052 156.187 94.6029 156.187 94.6029C156.187 94.6029 156.688 98.0549 157.188 98.1549C157.688 98.2049 157.238 95.7035 157.238 94.653C157.438 95.4034 157.688 97.4045 158.038 97.4545C158.389 97.5046 158.439 96.0037 158.389 95.6535C158.139 93.4023 157.238 89.0498 157.238 89.0498" fill="#FFA18D"/>
<path d="M112.713 55.281L106.159 62.1348L90.0004 54.6306L87.0988 58.2827C87.0988 58.2827 101.607 71.5901 106.41 71.5901C110.162 71.5901 122.619 62.0848 122.619 62.0848" fill="#FFA18D"/>
<path d="M91.8014 55.4311C90.7508 54.4305 88.5996 52.2793 87.549 51.2787C86.8986 50.6784 85.748 49.7279 85.4979 49.878C84.7975 50.3782 86.9487 51.679 86.5985 51.9291C86.3984 52.0792 84.9976 50.8785 84.7474 50.7284C84.047 50.2782 83.2966 49.8779 82.5462 49.5278C82.3961 49.4777 82.246 49.3777 82.0959 49.4277C81.9459 49.4277 81.7958 49.5778 81.7958 49.7279C81.7958 49.878 81.8958 49.978 81.9959 50.0781C82.8964 50.8285 83.8469 51.5789 84.7474 52.3293C84.3972 52.2793 84.1471 52.3794 83.897 52.6795C83.6468 52.9297 83.8469 53.2799 83.8469 53.2799C83.8469 53.2799 83.4467 53.2298 83.2466 53.3799C83.0965 53.53 83.0465 53.7801 83.0465 53.9803C83.0965 54.1804 83.1465 54.3805 83.2466 54.5806C82.9964 54.5306 82.7463 54.6806 82.6963 54.9308C82.5962 55.1309 82.6462 55.4311 82.6963 55.6312C82.8964 56.3316 83.3967 56.9819 83.997 57.3321C84.2972 57.4822 84.5473 57.7324 84.8975 57.6823C85.2477 57.6323 85.5479 57.4322 85.698 57.082C86.4484 58.0325 87.3989 58.7829 88.4995 59.2832" fill="#FFA18D"/>
<path d="M88.7496 55.9813C88.7496 55.9813 87.2988 54.8307 86.9987 52.6794" stroke="#E07A6C" stroke-width="0.75" stroke-miterlimit="10" stroke-linejoin="round"/>
<path d="M85.3976 53.0297C85.6978 53.3799 85.9479 53.7301 86.2481 54.0303C86.4982 54.3304 87.3987 54.9308 86.6983 55.2309C86.2481 55.4311 85.5477 55.0308 85.1975 54.7807C84.9474 54.5806 84.7473 54.3805 84.4971 54.1804C84.4471 54.1303 84.347 54.2304 84.3971 54.2804C84.7973 55.0809 86.1981 56.0814 87.0986 55.331C87.2987 55.1309 87.3487 54.9308 87.1986 54.6806C86.9985 54.3805 86.6483 54.0803 86.3481 53.8302C86.048 53.58 85.7478 53.2798 85.3976 53.0297C85.3976 52.9797 85.3976 52.9797 85.3976 53.0297Z" fill="#E07A6C"/>
<path d="M83.6468 55.1309C83.997 55.5812 84.3972 55.9814 84.8475 56.2816C85.1477 56.4817 85.4979 56.6818 85.8481 56.5817C86.2483 56.4316 86.5985 55.6812 86.2483 55.331C86.1983 55.281 86.1482 55.331 86.1482 55.3811C86.0982 55.5311 86.1482 55.7313 86.0982 55.8813C85.9981 56.3316 85.6479 56.4316 85.2477 56.2315C84.6974 55.9314 84.1971 55.4311 83.7469 55.0309C83.6468 54.9808 83.5968 55.0309 83.6468 55.1309Z" fill="#E07A6C"/>
<path d="M129.473 50.4282C129.473 50.4282 135.126 48.0769 140.279 52.3293C144.281 55.6311 148.233 60.4338 148.233 60.4338L140.579 67.4378L132.124 59.7334" fill="#F2C94C"/>
<path d="M127.371 50.7783C127.371 50.7783 122.218 49.3275 117.366 51.929C112.513 54.5305 108.411 59.8835 108.411 59.8835L115.415 67.4877L123.769 62.1347" fill="#F2C94C"/>
<path d="M119.617 54.1303C112.413 61.3343 118.466 66.9375 118.466 66.9375L119.067 78.3939C119.067 78.3939 120.868 78.9943 124.52 78.8942C131.123 78.6441 137.177 76.3928 137.177 76.3928C137.177 76.3928 139.428 66.1871 139.578 60.8341C139.678 56.0314 136.076 53.2798 136.076 53.2798L128.522 50.4282L119.617 54.1303Z" fill="#F2C94C"/>
<path d="M125.47 33.8188C124.97 33.9189 124.42 34.069 124.019 34.3692C123.669 34.6193 123.319 34.7694 122.919 34.9195C122.018 35.3197 121.168 35.92 120.568 36.6704C119.717 37.7711 119.217 39.1719 119.417 40.5726C119.467 40.9729 119.567 41.3731 119.567 41.8233C119.517 42.8739 118.867 43.024 118.116 43.6744C117.266 44.4248 116.465 45.3253 116.465 46.526C116.465 47.8267 117.266 49.1775 118.566 49.6277C119.517 49.9779 120.768 49.6277 121.818 49.5777C124.27 49.3776 126.671 49.2275 129.122 49.0274C131.123 48.8773 133.175 48.5771 135.226 48.5771C136.727 48.5771 136.977 47.2264 136.977 45.9757C136.977 45.0752 136.627 43.8245 136.026 43.1241C135.826 42.8739 135.526 42.6238 135.376 42.3236C135.226 42.0735 135.226 41.7733 135.176 41.4731C135.126 40.4726 135.026 39.422 134.775 38.4214C134.525 37.4209 134.025 36.4703 133.275 35.82C132.774 35.4197 132.174 35.1196 131.524 35.0195C130.923 34.9195 130.123 34.9695 129.523 35.0695" fill="#010101"/>
<path d="M126.421 44.9751L125.47 50.9785C125.47 50.9785 125.52 53.0796 128.522 53.0796C130.673 53.0796 131.073 51.1286 131.073 51.1286L130.223 45.0251" fill="#FFA18D"/>
<path d="M131.574 36.4704C134.325 39.222 136.276 46.426 131.924 47.2765C128.472 47.9268 125.57 45.7756 124.67 42.9741C123.369 38.8217 128.822 33.7189 131.574 36.4704Z" fill="#FFA18D"/>
<path d="M132.924 40.1724C132.924 40.3726 132.724 40.5727 132.524 40.5727C132.324 40.5727 132.124 40.3726 132.124 40.1724C132.124 39.9723 132.324 39.7722 132.524 39.7722C132.724 39.7722 132.924 39.9223 132.924 40.1724Z" fill="#060A47"/>
<path d="M128.522 41.7733C128.522 41.9734 128.722 42.1735 128.922 42.1735C129.122 42.1735 129.322 41.9734 129.322 41.7733C129.322 41.5732 129.122 41.373 128.922 41.373C128.672 41.373 128.522 41.5231 128.522 41.7733Z" fill="#060A47"/>
<path d="M129.472 40.1224C128.572 39.7222 127.371 40.2224 127.221 41.273C127.221 41.3231 127.321 41.3731 127.321 41.3231C127.772 40.4726 128.472 40.0223 129.422 40.2725C129.522 40.2725 129.522 40.1724 129.472 40.1224Z" fill="#060A47"/>
<path d="M133.075 38.7217C132.374 38.0713 130.873 38.5716 131.023 39.6222C131.023 39.6722 131.123 39.6722 131.123 39.6222C131.274 39.322 131.424 38.9718 131.724 38.7717C132.124 38.5216 132.574 38.6216 132.975 38.8217C133.075 38.8718 133.125 38.8217 133.075 38.7217Z" fill="#060A47"/>
<path d="M131.073 40.6726C131.073 40.6726 132.624 42.3235 132.474 42.6737C132.224 43.2741 131.273 43.2741 131.273 43.2741" stroke="#E07A6C" stroke-width="0.75" stroke-miterlimit="10" stroke-linejoin="round"/>
<path d="M129.773 44.675L132.824 43.8745C132.824 43.8745 133.225 45.6755 132.224 45.9257C130.323 46.476 129.773 44.675 129.773 44.675Z" fill="#EEEEEE"/>
<path d="M120.717 37.4709C121.218 35.5198 122.468 33.8188 124.42 33.3186C125.32 33.0684 126.271 33.0684 127.171 33.1685C127.972 33.2685 128.672 33.6187 129.422 33.8188C130.173 34.0189 130.823 33.6688 131.574 33.7188C133.024 33.8188 134.525 35.0695 133.875 36.6204C133.575 37.3208 132.974 37.8211 132.324 38.1713C130.573 39.1218 128.522 39.2719 126.571 39.3219C126.871 39.3219 127.071 41.1229 127.071 41.3731C127.021 42.0234 126.771 42.6238 126.571 43.2741C126.02 44.9751 125.27 46.576 124.42 48.1769C124.37 48.2769 124.269 48.427 124.119 48.427C124.069 48.427 124.019 48.377 123.969 48.327C123.269 47.5766 122.669 46.676 122.168 45.7255C121.818 45.0251 121.268 44.3247 121.018 43.5743C120.918 43.1741 120.968 42.7739 121.018 42.3736C121.018 41.8233 120.818 41.4731 120.667 40.9228C120.317 39.7221 120.467 38.5715 120.717 37.4709Z" fill="#010101"/>
<path d="M130.573 47.5767C130.573 47.5767 128.572 47.7268 126.971 46.426" stroke="#E07A6C" stroke-width="0.75" stroke-miterlimit="10" stroke-linejoin="round"/>
<path d="M126.671 43.0741C126.171 42.6239 125.62 42.9741 125.42 43.2242C124.92 43.8246 125.12 44.7751 125.57 45.4255C126.07 46.1759 126.621 46.1759 126.971 46.0258C127.321 45.8757 127.471 45.2754 127.271 44.625" fill="#FFA18D"/>
<path d="M123.819 35.2697C124.87 35.0196 124.87 33.7689 124.77 32.9184C124.47 31.0674 122.969 29.9167 121.118 30.0668C119.167 30.2169 117.066 31.5176 117.366 34.2692C117.616 36.7205 121.468 37.2208 123.219 35.82C123.269 35.77 123.319 35.72 123.419 35.67" fill="#010101"/>
<path d="M124.77 33.2686C124.77 33.2686 122.168 33.5187 120.568 36.5704" stroke="#4376CF" stroke-miterlimit="10" stroke-linejoin="round"/>
<path d="M139.178 66.1371L132.524 60.0337" stroke="#91302C" stroke-width="0.75" stroke-miterlimit="10" stroke-linejoin="round"/>
<path d="M119.617 54.1304C112.413 61.3344 118.466 66.9376 118.466 66.9376" stroke="#91302C" stroke-width="0.75" stroke-miterlimit="10" stroke-linejoin="round"/>
<path d="M209.067 53.9304C209.067 53.9304 217.972 59.3835 219.773 61.6848C224.326 67.488 230.779 86.4487 230.779 86.4487L225.927 88.75C225.927 88.75 214.37 69.7893 213.62 69.3391C210.668 67.6881 200.462 64.3863 200.462 64.3863" fill="#FF886F"/>
<path d="M197.911 46.8765C204.865 48.4273 216.221 57.3323 216.221 57.3323L204.915 71.2902L195.81 65.0366" fill="#4376CF"/>
<path d="M234.782 166.594L234.081 165.743L220.774 176.199C220.223 176.649 219.473 176.749 218.823 176.499L218.723 176.549L219.823 177.95C219.873 178 219.923 178.05 219.973 178.05H220.023C220.423 178.1 220.874 178 221.174 177.75L234.631 167.144C234.882 166.994 234.932 166.744 234.782 166.594Z" fill="#010101"/>
<path d="M223.475 148.233L229.879 161.241L233.081 166.043L220.223 176.149C219.873 176.449 219.323 176.349 219.073 175.999C218.873 175.749 218.823 175.349 219.023 175.048L222.725 167.144L214.47 154.987" fill="#FF886F"/>
<path d="M222.225 166.544L218.572 175.399C218.372 175.749 218.422 176.199 218.723 176.549C219.073 176.999 219.823 176.999 220.223 176.699L234.081 165.793L229.779 161.141C229.779 161.091 226.627 165.843 222.225 166.544Z" fill="#F2C94C"/>
<path d="M221.224 167.794C221.974 167.994 222.725 168.244 223.425 168.645" stroke="#010101" stroke-miterlimit="10" stroke-linecap="round" stroke-linejoin="round"/>
<path d="M220.774 168.995C221.574 169.245 222.024 169.395 222.625 169.746" stroke="#010101" stroke-miterlimit="10" stroke-linecap="round" stroke-linejoin="round"/>
<path d="M220.374 169.896C220.924 170.046 221.574 170.346 222.074 170.596" stroke="#010101" stroke-miterlimit="10" stroke-linecap="round" stroke-linejoin="round"/>
<path d="M194.109 95.0535C194.109 95.0535 194.409 127.722 196.91 134.926C200.062 144.031 212.169 163.892 212.169 163.892L228.478 155.337L215.02 129.773C214.42 128.622 214.12 127.272 214.12 125.971C214.22 121.869 214.52 112.713 214.82 110.262C215.121 107.711 216.121 105.509 217.022 103.108C218.773 98.2553 220.524 92.7022 219.773 87.4993" fill="#173682"/>
<path d="M198.561 93.3025C198.561 93.3025 198.861 125.971 201.363 133.175C204.515 142.28 216.371 161.741 216.371 161.741" stroke="#010101" stroke-width="0.75" stroke-miterlimit="10" stroke-linejoin="round"/>
<path d="M180.351 177.7V176.599H163.442C162.741 176.599 162.091 176.249 161.741 175.649H161.641V177.45C161.641 177.5 161.691 177.6 161.691 177.65L161.741 177.7C162.041 178 162.441 178.2 162.841 178.2H179.951C180.201 178.05 180.351 177.9 180.351 177.7Z" fill="#010101"/>
<path d="M182.853 156.238L179.851 170.396L179.401 176.149H163.041C162.591 176.149 162.191 175.799 162.191 175.299C162.191 174.948 162.391 174.648 162.741 174.498L170.546 170.546L171.596 155.888" fill="#FF886F"/>
<path d="M170.545 169.845L162.241 174.548C161.891 174.698 161.641 175.098 161.641 175.549C161.641 176.149 162.241 176.599 162.741 176.599H180.401L179.901 170.246C179.851 170.246 174.398 172.047 170.545 169.845Z" fill="#F2C94C"/>
<path d="M168.945 170.246C169.445 170.896 169.845 171.547 170.195 172.297" stroke="#010101" stroke-miterlimit="10" stroke-linecap="round" stroke-linejoin="round"/>
<path d="M167.894 170.896C168.394 171.597 168.594 171.997 168.895 172.647" stroke="#010101" stroke-miterlimit="10" stroke-linecap="round" stroke-linejoin="round"/>
<path d="M166.994 171.346C167.344 171.797 167.644 172.447 167.894 172.947" stroke="#010101" stroke-miterlimit="10" stroke-linecap="round" stroke-linejoin="round"/>
<path d="M188.806 89.3503L187.655 97.0546C187.655 97.0546 174.698 115.715 170.946 129.773C169.095 136.627 165.193 165.443 165.193 165.443H184.003C184.003 165.443 188.305 138.228 190.907 132.024C193.508 125.871 204.465 109.712 206.316 106.96C213.67 101.307 215.271 91.4014 211.519 82.1462" fill="#1238A7"/>
<path d="M195.41 123.82L205.665 107.961C206.066 107.41 206.516 106.86 207.066 106.46C208.467 105.309 212.369 101.007 212.919 96.8545" stroke="#010101" stroke-width="0.75" stroke-miterlimit="10" stroke-linejoin="round"/>
<path d="M192.158 89.3503L191.207 95.6039C191.057 96.5544 190.707 97.4549 190.156 98.2553C187.255 102.608 177.449 117.866 174.247 129.773C172.396 136.627 168.494 165.443 168.494 165.443" stroke="#010101" stroke-width="0.75" stroke-miterlimit="10" stroke-linejoin="round"/>
<path d="M165.843 160.94H184.753" stroke="#010101" stroke-width="0.75" stroke-miterlimit="10" stroke-linejoin="round"/>
<path d="M208.217 96.4541L199.112 96.5541C199.112 96.5541 197.961 102.658 198.311 103.008C198.811 103.508 201.363 105.909 202.313 105.909C203.264 105.909 206.015 103.558 206.566 103.008C207.116 102.457 208.217 96.4541 208.217 96.4541Z" stroke="#010101" stroke-width="0.75" stroke-miterlimit="10" stroke-linejoin="round"/>
<path d="M198.861 97.8049H199.862" stroke="#010101" stroke-width="0.75" stroke-linejoin="round"/>
<path d="M200.863 97.8049H206.416" stroke="#010101" stroke-width="0.75" stroke-linejoin="round" stroke-dasharray="4.05 4.05"/>
<path d="M206.916 97.8049H207.916" stroke="#010101" stroke-width="0.75" stroke-linejoin="round"/>
<path d="M218.973 95.5537L216.321 95.8539C216.321 95.8539 215.821 102.057 216.221 102.358L217.072 103.658" stroke="#010101" stroke-width="0.75" stroke-miterlimit="10" stroke-linejoin="round"/>
<path d="M216.171 97.1562L217.172 97.0562" stroke="#010101" stroke-width="0.75" stroke-linejoin="round"/>
<path d="M217.772 97.0046L218.773 96.9045" stroke="#010101" stroke-width="0.75" stroke-linejoin="round"/>
<path d="M210.118 160.39L226.677 151.785" stroke="#010101" stroke-width="0.75" stroke-miterlimit="10" stroke-linejoin="round"/>
<path d="M193.959 45.0254C206.566 49.2277 213.47 66.3874 221.424 89.3503C221.424 89.3503 203.064 94.9534 185.554 93.7527C185.854 83.8472 184.703 60.434 184.703 60.434L188.306 46.076" fill="#4376CF"/>
<path d="M211.168 63.4858C211.168 63.4858 205.165 51.4291 196.81 46.3762" stroke="#1D334F" stroke-width="0.75" stroke-miterlimit="10" stroke-linejoin="round"/>
<path d="M185.004 37.4712C185.004 38.4717 184.203 39.3222 183.153 39.3222C182.152 39.3222 181.302 38.5217 181.302 37.4712C181.302 36.4706 182.102 35.6201 183.153 35.6201C184.153 35.6701 185.004 36.4706 185.004 37.4712Z" stroke="#EEEEEE" stroke-width="0.5" stroke-miterlimit="10" stroke-linejoin="round"/>
<path d="M184.703 43.5245L186.204 35.5701L191.057 39.7724L191.858 40.873L194.009 45.0254C194.009 45.0254 191.858 49.728 187.855 49.1777C187.605 49.1277 187.455 48.9776 187.355 48.7775L184.703 43.5245Z" fill="#FF886F"/>
<path d="M182.903 32.4184C181.852 34.7697 180.551 43.3245 182.402 44.5752C184.203 45.7759 187.505 45.2756 188.906 43.9749C190.157 42.8742 192.258 36.0704 190.757 34.0693C189.206 32.0682 184.403 29.1665 182.903 32.4184Z" fill="#FF886F"/>
<path d="M192.758 33.3188C191.757 30.2171 189.956 29.7168 187.255 29.7168C184.804 29.7168 182.202 29.7168 180.301 31.3177C179.851 31.7179 179.551 32.1682 179.601 32.7685C179.751 33.719 180.751 34.3694 181.602 34.5195C182.903 34.7696 184.153 35.0198 185.404 35.37C186.705 35.7202 187.305 37.0209 188.406 37.6212C188.606 37.7213 188.806 37.8213 189.006 37.9214C189.406 38.1715 189.756 38.6218 189.856 39.1221C189.956 39.4723 189.906 39.8725 190.006 40.2227C190.157 40.823 190.707 41.1232 191.157 41.4234C191.557 41.6735 192.358 42.0737 192.358 42.0737C192.358 42.0737 193.859 39.6224 193.859 37.271C193.959 36.1204 193.659 34.2193 192.758 33.3188Z" fill="#010101"/>
<path d="M185.804 45.3756C185.804 45.3756 188.456 45.1254 189.256 43.2244" stroke="#F2C94C" stroke-width="0.75" stroke-miterlimit="10" stroke-linejoin="round"/>
<path d="M182.352 37.5212C182.352 37.5212 180.001 39.9226 180.301 40.573C180.601 41.2233 181.702 41.0732 181.702 41.0732" fill="#FF886F"/>
<path d="M183.453 37.321C183.353 37.4711 183.353 37.6712 183.303 37.8213C183.253 38.0214 183.453 38.2215 183.703 38.1715C184.103 38.1214 184.203 37.2209 183.703 37.1709C183.553 37.1709 183.503 37.271 183.453 37.321Z" fill="#010101"/>
<path d="M182.152 41.8236L185.104 41.5234C185.104 41.5234 184.854 43.6746 183.103 43.7247C182.002 43.7247 182.152 41.8236 182.152 41.8236Z" fill="#EEEEEE"/>
<path d="M183.053 36.5205C183.703 36.6206 184.303 36.8707 184.854 37.2209C184.904 37.2209 185.154 36.9207 185.054 36.7206C185.004 36.5705 184.053 36.0703 183.203 35.9202C183.153 35.9202 182.903 36.4204 183.053 36.5205Z" fill="#010101"/>
<path d="M185.554 37.6713C185.554 38.6719 184.754 39.5224 183.703 39.5224C182.702 39.5224 181.852 38.7219 181.852 37.6713C181.852 36.6208 182.652 35.8203 183.703 35.8203C184.754 35.8703 185.554 36.6708 185.554 37.6713Z" stroke="#EEEEEE" stroke-width="0.5" stroke-miterlimit="10" stroke-linejoin="round"/>
<path d="M181.952 37.2211L181.352 37.071" stroke="#EEEEEE" stroke-width="0.5" stroke-miterlimit="10" stroke-linejoin="round"/>
<path d="M185.554 37.5713L189.306 38.5218" stroke="#EEEEEE" stroke-width="0.5" stroke-miterlimit="10" stroke-linejoin="round"/>
<path d="M188.706 38.7718C189.006 38.3716 189.406 37.9213 189.856 37.9714C190.107 37.9714 190.307 38.1214 190.457 38.3215C191.207 39.3221 191.007 40.923 189.906 41.6234C189.456 41.9236 188.906 41.9736 188.606 41.4233L188.556 39.0219C188.556 38.9719 188.656 38.8719 188.706 38.7718Z" fill="#FF886F"/>
<path d="M190.407 41.2231C190.407 41.2231 189.606 42.0736 188.756 41.6734" stroke="#F2C94C" stroke-width="0.75" stroke-miterlimit="10" stroke-linejoin="round"/>
<path d="M180.901 57.0322C180.901 57.0322 176.099 69.6393 175.398 70.6399C174.548 71.8405 159.99 86.2486 159.99 86.2486L162.641 91.6016C162.641 91.6016 181.202 80.7455 183.603 77.6938C185.854 74.8422 189.706 64.8866 189.706 64.8866" fill="#FF886F"/>
<path d="M196.51 47.7269C192.358 45.8759 187.055 46.176 182.452 53.6302C179.4 58.633 175.398 66.7876 175.398 66.7876L189.706 74.1417L197.26 58.483" fill="#4376CF"/>
<path d="M196.06 60.7842L189.656 74.1417L175.348 66.7875" stroke="#1D334F" stroke-width="0.75" stroke-miterlimit="10" stroke-linejoin="round"/>
<path d="M190.357 46.9766C190.357 46.9766 193.258 46.3262 195.91 47.4768" stroke="#1D334F" stroke-width="0.75" stroke-miterlimit="10" stroke-linejoin="round"/>
<path d="M176.599 64.3362L190.907 71.5903" stroke="#1D334F" stroke-width="0.75" stroke-miterlimit="10" stroke-linejoin="round"/>
<path d="M160.94 85.248C160.94 85.248 159.189 86.899 157.138 87.3492C157.138 87.3492 157.188 88.3998 157.238 88.5999C156.988 88.8501 155.187 89.7005 154.487 89.9507C153.586 90.2509 152.385 90.7511 152.435 91.2514C152.485 91.9018 157.538 90.1508 157.538 90.1508C157.538 90.1508 152.285 92.1519 152.385 92.7022C152.486 93.4527 157.788 91.4515 157.788 91.4515C157.788 91.4515 153.336 93.2525 153.436 93.8028C153.536 94.3532 156.738 93.0024 158.139 92.6022C157.188 93.0524 154.637 94.053 154.687 94.4532C154.737 94.8534 156.738 94.3532 157.238 94.153C160.14 93.1025 165.343 89.8506 165.343 89.8506" fill="#FF886F"/>
<path d="M242.836 154.537L241.936 170.996C241.936 170.996 233.481 176.849 233.481 176.949C233.481 177.049 241.285 177.349 241.285 177.349L244.737 175.648H250.44C250.841 175.648 251.141 175.298 251.041 174.898L250.34 171.796L252.692 158.639" fill="#FFA18D"/>
<path d="M234.031 175.799C235.282 175.098 239.484 172.397 239.484 172.397L244.687 175.649H251.191V178.05H244.487V176.599H243.887C243.737 176.599 243.587 176.649 243.487 176.749L241.986 177.85C241.836 178 241.586 178.05 241.385 178.05H233.431C232.38 178.05 232.18 176.899 234.031 175.799Z" fill="#010101"/>
<path d="M246.438 176.099L250.791 173.447L250.541 172.447L245.838 175.648L246.438 176.099Z" fill="#010101"/>
<path d="M273.553 144.931L285.36 156.488C285.36 156.488 284.159 166.694 284.259 166.794C284.36 166.844 289.713 161.191 289.713 161.191L290.713 157.488L294.465 153.186C294.715 152.886 294.665 152.436 294.315 152.236L291.514 150.735L283.159 140.279" fill="#FFA18D"/>
<path d="M283.709 165.593C283.959 164.192 284.76 159.239 284.76 159.239L290.613 157.488L294.916 152.586L296.717 154.187L292.264 159.239L291.163 158.289L290.763 158.739C290.663 158.839 290.613 158.989 290.613 159.139L290.463 160.99C290.463 161.191 290.363 161.391 290.213 161.541L284.96 167.544C284.31 168.295 283.309 167.744 283.709 165.593Z" fill="#010101"/>
<path d="M292.114 156.488L292.964 151.435L292.064 150.935L291.414 156.638L292.114 156.488Z" fill="#010101"/>
<path d="M251.141 86.8489C251.141 86.8489 241.886 113.414 240.685 124.77C239.484 136.127 238.484 165.493 238.484 165.493H255.493C255.493 165.493 257.845 128.422 259.446 122.719C260.346 119.617 261.397 113.814 263.498 103.658C266.35 96.4042 267.75 93.6527 266.45 87.6493" fill="#F2C94C"/>
<path d="M258.195 86.5486C258.195 86.5486 258.195 95.0033 257.444 99.0056C256.494 103.208 251.191 118.166 253.992 126.121C256.844 134.075 277.806 155.837 277.806 155.837L287.061 144.131L269.451 121.118L274.004 102.958C274.004 102.958 278.456 95.0033 274.304 86.9488" fill="#F2C94C"/>
<path d="M258.195 91.001C258.195 91.001 258.195 95.0533 257.444 99.0055C256.494 103.208 251.191 118.166 253.992 126.121C254.643 127.972 256.194 130.423 258.145 133.125" stroke="#91302C" stroke-width="0.75" stroke-miterlimit="10" stroke-linejoin="round"/>
<path d="M252.542 80.9455L251.141 86.8488C259.896 90.0005 274.354 86.8488 274.354 86.8488L269.801 76.593" fill="#FFA18D"/>
<path d="M285.71 145.882L268 124.02C267.35 123.219 267.1 122.169 267.3 121.168L270.702 103.758C270.802 103.208 270.952 102.708 271.202 102.207C272.153 100.156 273.403 93.3023 272.403 90.0005" stroke="#91302C" stroke-width="0.75" stroke-miterlimit="10" stroke-linejoin="round"/>
<path d="M250.291 89.3501C250.291 89.3501 257.845 93.5024 275.405 89.3501" stroke="#91302C" stroke-width="0.75" stroke-miterlimit="10" stroke-linejoin="round"/>
<path d="M255.844 90.8509L254.993 90.7509C254.743 90.7008 254.543 90.5007 254.593 90.2506L254.993 88.2995C255.043 88.0493 255.293 87.8993 255.543 87.9493L257.544 88.0994" stroke="#91302C" stroke-width="0.75" stroke-miterlimit="10" stroke-linejoin="round"/>
<path d="M251.141 86.8489C259.896 90.0006 274.354 86.8489 274.354 86.8489" stroke="#91302C" stroke-width="0.75" stroke-miterlimit="10" stroke-linejoin="round"/>
<path d="M256.444 90.0005C256.858 90.0005 257.194 89.7317 257.194 89.4001C257.194 89.0686 256.858 88.7998 256.444 88.7998C256.029 88.7998 255.693 89.0686 255.693 89.4001C255.693 89.7317 256.029 90.0005 256.444 90.0005Z" fill="#F8F4F1"/>
<path d="M262.747 88.2495L263.098 91.1511" stroke="#91302C" stroke-width="0.75" stroke-miterlimit="10" stroke-linejoin="round"/>
<path d="M270.302 87.5493L271.102 90.2508" stroke="#91302C" stroke-width="0.75" stroke-miterlimit="10" stroke-linejoin="round"/>
<path d="M267.2 90.8511C267.2 90.8511 268.251 94.5532 272.603 95.4537" stroke="#91302C" stroke-width="0.75" stroke-miterlimit="10" stroke-linejoin="round"/>
<path d="M256.444 90.9512C256.444 90.9512 256.044 97.4048 256.044 98.1552C256.044 99.1057 257.344 99.556 257.344 99.556" stroke="#91302C" stroke-width="0.75" stroke-miterlimit="10" stroke-linejoin="round"/>
<path d="M249.14 92.8521C249.14 92.8521 251.491 92.802 253.242 90.5508" stroke="#91302C" stroke-width="0.75" stroke-miterlimit="10" stroke-linejoin="round"/>
<path d="M252.942 165.493L256.144 130.123" stroke="#91302C" stroke-width="0.75" stroke-miterlimit="10" stroke-linejoin="round"/>
<path d="M225.927 88.6999L228.178 93.1024C228.178 93.1024 231.03 94.4031 231.13 94.3531C231.23 94.253 232.981 92.3519 232.981 92.2519C232.981 92.1518 230.479 85.5981 230.479 85.5981" fill="#FF886F"/>
<path d="M250.09 57.082L244.837 73.041L231.98 87.9994L235.082 91.001C235.082 91.001 250.341 79.8448 252.642 76.693C254.943 73.5412 260.896 57.032 260.896 57.032" fill="#FFA18D"/>
<path d="M233.031 87.1489C232.13 87.8993 230.329 89.2001 229.429 89.9005C228.878 90.3507 227.978 91.1512 228.078 91.4013C228.378 92.0016 229.679 90.4508 229.829 90.7509C229.929 90.9511 228.728 91.8516 228.128 92.3018C227.578 92.702 226.877 93.3524 227.027 93.7026C227.227 94.1529 230.279 91.7515 230.279 91.7515C230.279 91.7515 227.177 94.353 227.327 94.7032C227.578 95.2034 230.729 92.602 230.729 92.602C230.729 92.602 228.128 94.8532 228.278 95.2535C228.478 95.6037 230.379 93.9527 231.23 93.3524C230.679 93.9027 229.179 95.1534 229.329 95.4536C229.479 95.7037 230.729 94.9033 230.98 94.6531C232.731 93.2524 235.882 90.2006 235.882 90.2006" fill="#FFA18D"/>
<path d="M229.829 90.751C229.829 90.751 231.18 90.8511 232.43 90.3008" stroke="#E07A6C" stroke-width="0.75" stroke-miterlimit="10" stroke-linejoin="round"/>
<path d="M227.127 91.001C227.478 91.9015 227.728 92.752 228.178 93.6024C228.278 93.8026 228.478 94.0527 228.728 93.9526C228.928 93.8526 228.928 93.6024 228.878 93.3523C228.778 92.902 228.578 91.9015 228.578 91.9015" fill="#FF886F"/>
<path d="M231.38 94.3531C230.83 94.0529 230.229 93.7027 229.629 93.4026C229.529 93.3525 229.429 93.3025 229.329 93.3025C229.229 93.3025 229.079 93.3525 229.029 93.4526C228.979 93.5526 229.029 93.7027 229.079 93.8028C229.379 94.3531 229.979 94.6533 230.579 94.8534C230.729 94.9034 230.88 94.9534 231.03 94.9534C231.18 94.9534 231.33 94.8534 231.38 94.7033" fill="#FF886F"/>
<path d="M231.93 93.9527C231.43 93.5525 230.83 93.2523 230.329 92.8521C230.229 92.8021 230.129 92.702 230.029 92.702C229.929 92.652 229.779 92.702 229.729 92.802C229.679 92.9021 229.679 93.0522 229.729 93.1523C229.929 93.7526 230.479 94.1528 231.03 94.453C231.18 94.553 231.28 94.6031 231.43 94.6031C231.58 94.6031 232.03 94.6031 232.03 94.0027" fill="#FF886F"/>
<path d="M232.43 93.3524C231.93 92.9522 231.58 92.702 231.08 92.3018C230.98 92.2518 230.88 92.1517 230.779 92.1517C230.679 92.1017 230.529 92.1517 230.479 92.2518C230.429 92.3518 230.429 92.5019 230.479 92.602C230.679 93.2023 231.23 93.6025 231.78 93.9027C231.93 94.0027 232.03 94.0528 232.18 94.0528C232.33 94.0528 232.731 94.0528 232.63 93.4024" fill="#FF886F"/>
<path d="M233.031 92.8522C232.531 92.402 232.33 92.1518 231.83 91.7516C231.73 91.7016 231.68 91.6015 231.58 91.5515C231.48 91.5015 231.33 91.5515 231.28 91.6015C231.18 91.7016 231.23 91.8517 231.23 91.9517C231.38 92.5521 231.93 93.0023 232.43 93.3525C232.531 93.4526 232.681 93.5026 232.831 93.5526C232.981 93.6026 233.431 93.4025 233.181 92.7021" fill="#FF886F"/>
<path d="M257.795 50.7786C257.795 50.7786 251.991 51.3289 248.589 55.7814C245.588 59.7336 243.937 68.7386 243.937 68.7386L250.19 73.4413L255.543 64.4863" fill="#EEEEEE"/>
<path d="M251.891 58.0327C247.489 64.7865 247.489 82.8466 247.489 82.8466C247.489 82.8466 258.945 86.999 276.355 82.3964C276.355 82.3964 272.753 63.7859 271.002 62.085C269.301 60.4341 259.095 49.1777 259.095 49.1777L253.192 53.8804L251.891 58.0327Z" fill="#EEEEEE"/>
<path d="M280.457 95.1033C280.457 96.304 280.407 98.4552 280.407 99.6559C280.407 100.356 280.507 101.557 280.758 101.607C281.408 101.757 281.008 99.7559 281.308 99.806C281.508 99.856 281.508 101.357 281.458 102.107C281.458 102.808 281.508 103.708 281.858 103.808C282.308 103.908 282.308 100.056 282.308 100.056C282.308 100.056 282.459 104.108 282.809 104.208C283.359 104.308 283.259 100.206 283.259 100.206C283.259 100.206 283.409 103.658 283.809 103.758C284.21 103.858 284.059 101.307 284.109 100.256C284.209 101.007 284.26 103.008 284.56 103.058C284.86 103.108 284.96 101.607 284.96 101.257C284.91 99.0555 284.46 94.6531 284.46 94.6531" fill="#FFA18D"/>
<path d="M276.255 60.584C276.255 60.584 281.108 70.6396 282.058 72.8909C284.76 79.3945 284.66 95.4035 284.66 95.4035L280.507 95.5036C280.507 95.5036 275.955 77.1933 275.505 76.643C273.754 74.4418 267.85 65.2366 267.85 65.2366" fill="#FFA18D"/>
<path d="M260.096 50.7786C260.096 50.7786 268.751 51.1288 273.504 54.5807C278.206 58.0326 282.108 68.7887 282.108 68.7887L269.852 74.0916L264.949 63.4857" fill="#EEEEEE"/>
<path d="M264.999 63.4856L269.852 74.0915L282.108 68.7886" stroke="#5A636D" stroke-width="0.75" stroke-miterlimit="10" stroke-linejoin="round"/>
<path d="M258.495 44.6252L261.397 49.8282C261.397 49.8282 261.547 52.1295 258.745 53.13C256.744 53.8304 256.244 51.7793 256.244 51.7793L254.993 45.8759" fill="#FFA18D"/>
<path d="M252.091 37.9214C249.94 41.0732 248.89 48.4773 253.242 48.4773C256.694 48.4773 259.095 45.8258 259.446 43.0243C259.946 38.8219 254.243 34.7696 252.091 37.9214Z" fill="#FFA18D"/>
<path d="M255.493 48.0771C255.493 48.0771 256.794 47.6268 258.095 46.126" stroke="#E07A6C" stroke-width="0.75" stroke-miterlimit="10" stroke-linejoin="round"/>
<path d="M252.742 42.1739C252.792 42.374 252.642 42.5741 252.442 42.6241C252.241 42.6742 252.041 42.5241 251.991 42.324C251.941 42.1238 252.091 41.9237 252.291 41.8737C252.492 41.8237 252.692 41.9738 252.742 42.1739Z" fill="#33002C"/>
<path d="M251.741 41.1731C252.642 40.7729 253.392 41.073 253.943 41.7734C253.993 41.8235 254.043 41.7734 254.043 41.7234C253.692 40.7729 252.442 40.5227 251.641 41.023C251.591 41.1231 251.641 41.2231 251.741 41.1731Z" fill="#33002C"/>
<path d="M250.941 41.7734C250.941 41.7734 249.19 44.2748 249.44 44.575C249.79 45.1253 250.691 44.9752 250.691 44.9752" fill="#FFA18D"/>
<path d="M253.142 45.7257L250.841 45.3755C250.841 45.3755 250.891 47.1765 251.641 47.2765C253.092 47.5267 253.142 45.7257 253.142 45.7257Z" fill="#EEEEEE"/>
<path d="M260.646 34.1192C258.545 33.0687 255.894 33.3188 253.992 34.9197C252.592 34.9197 250.591 35.7201 249.89 37.6712C249.49 38.7718 249.44 40.1726 250.541 41.3233C250.691 40.773 251.491 38.7218 252.241 38.0715C252.992 38.6218 254.093 39.8725 254.493 40.3728C255.243 41.3733 255.894 42.4239 256.394 43.5745C256.944 44.7252 257.645 45.8258 258.245 46.9765C258.895 48.1271 259.596 49.2777 260.546 50.2283C261.947 51.6291 263.748 52.5796 265.649 53.1799C267.5 53.8303 269.501 54.1805 271.402 54.6307C272.653 54.9309 273.954 55.2811 274.904 56.0816C275.555 56.6319 276.355 57.6324 276.805 58.3328C277.406 56.4318 277.356 54.5807 276.805 53.1299C276.305 51.6791 275.304 51.1788 275.004 50.5785C274.304 49.1777 274.804 48.6774 274.604 47.1265C274.404 45.8758 273.704 44.7752 272.753 43.9748C271.552 43.0242 270.051 42.8241 268.601 42.574C267.35 42.3739 266.049 41.9236 265.049 41.1732C264.048 40.4228 263.998 38.4217 263.498 37.3711C262.947 36.0203 261.897 34.7696 260.646 34.1192Z" fill="#010101"/>
<path d="M255.543 43.6246C255.844 42.9743 256.544 42.9743 256.894 43.0743C257.644 43.3745 257.895 44.275 257.745 45.1255C257.544 46.026 256.994 46.3261 256.594 46.3762C256.144 46.4262 255.743 45.9759 255.693 45.2755" fill="#FFA18D"/>
<path d="M248.189 71.8905C248.189 71.8905 248.84 61.5346 250.291 58.533" stroke="#5A636D" stroke-width="0.75" stroke-miterlimit="10" stroke-linejoin="round"/>
<path d="M15.959 54.6307C14.0579 53.6802 12.5071 51.9292 11.8067 49.9281C11.6566 49.5278 11.5565 49.1276 11.5565 48.7274C11.5565 47.977 11.9067 47.1765 12.457 46.7263C13.0073 46.276 13.8578 46.0259 14.6082 46.176C15.6088 46.3761 16.4092 47.1265 17.0096 47.9269C17.6099 48.6774 18.1602 49.5779 17.9601 50.4784" fill="#FF886F"/>
<path d="M36.5204 56.2815L31.4175 63.4856L19.4108 49.928L14.2079 53.4299C14.2079 53.4299 23.0629 76.8931 31.4676 76.8931C37.7211 76.8931 46.476 61.6846 46.476 61.6846" fill="#FF886F"/>
<path d="M55.2809 46.1258C55.2809 46.1258 47.3765 45.0752 42.1235 48.9774C36.8205 52.9296 31.4675 61.9847 31.4675 61.9847L47.0263 71.3399L55.2809 60.0836" fill="#173682"/>
<path d="M17.7098 40.6729C16.7093 41.9736 14.0578 44.425 12.8071 45.4755C11.9066 46.226 10.7059 46.7262 9.90547 47.5267C9.2551 48.1771 9.50524 48.3772 10.1556 48.8775C11.0561 49.5779 12.0567 50.1282 13.1073 50.5284C13.3074 50.6284 13.5075 50.6785 13.7076 50.6284C13.9077 50.5784 14.0578 50.4784 14.2079 50.3783C14.9083 49.828 15.5086 49.1776 16.0589 48.5273C17.5097 46.8263 20.3113 43.7246 21.4619 41.8235" fill="#4376CF"/>
<path d="M24.3637 43.7244C23.3131 45.0251 21.5121 45.2753 20.3114 44.2747C19.1108 43.3242 19.0107 41.4731 20.0613 40.1724C21.1119 38.8717 22.9129 38.6215 24.1136 39.6221C25.2642 40.5726 25.4143 42.4237 24.3637 43.7244Z" fill="#EEEEEE"/>
<path d="M19.1606 44.525L15.9088 42.0236L21.0617 35.47L24.4636 38.4216C24.8138 38.7218 24.7638 39.172 24.5637 39.5723C23.413 41.6234 22.1623 43.3244 20.3113 44.425C19.9611 44.6751 19.5108 44.8252 19.1606 44.525Z" fill="#699FED"/>
<path d="M19.7611 39.7722C18.3102 41.5732 16.5593 42.5738 15.8589 42.0235C15.1585 41.4732 15.8088 39.5721 17.2597 37.7711C18.7105 35.9701 20.4614 34.9695 21.1618 35.5198C21.8122 36.0701 21.2119 37.9712 19.7611 39.7722Z" fill="#4376CF"/>
<path d="M5.35291 38.6216C5.35291 38.6216 12.4069 40.0224 15.9088 41.4232C17.1595 41.7234 18.6103 40.2225 19.3107 39.322C21.1618 37.0207 20.9116 36.0202 20.9116 36.0202C18.1101 32.6683 15.8588 25.8145 15.8588 25.8145" fill="#EEEEEE"/>
<path d="M13.0573 34.1691C9.65536 38.3214 5.05278 40.2225 2.80152 38.3715C0.550254 36.5204 1.45076 31.6677 4.85267 27.4653C8.25458 23.313 12.8572 21.4119 15.1084 23.263C17.4097 25.114 16.4592 30.0168 13.0573 34.1691Z" fill="#699FED"/>
<path d="M12.0567 33.3687C9.15505 36.8706 5.40295 38.5716 3.60194 37.0707C1.80093 35.6199 2.70143 31.5676 5.55303 28.0157C8.45466 24.5137 12.2068 22.8127 14.0078 24.3136C15.8088 25.8144 14.9583 29.8667 12.0567 33.3687Z" fill="#4376CF"/>
<path d="M6.90381 31.7177C8.55474 33.0685 9.65535 34.3692 10.3057 35.2197C10.9061 34.6694 11.5064 34.0691 12.0567 33.4187C12.607 32.7183 13.1073 32.0179 13.5075 31.3676C12.557 30.9173 11.0061 30.0668 9.40521 28.7161L6.90381 31.7177Z" fill="#1238A7"/>
<path d="M8.95497 30.8673C8.25458 31.7178 7.35407 32.118 6.85379 31.7178C6.40354 31.3676 6.60365 30.367 7.25401 29.5165C7.95441 28.6661 8.85491 28.2658 9.3552 28.6661C9.85548 29.0163 9.65536 30.0168 8.95497 30.8673Z" fill="#EEEEEE"/>
<path d="M20.2613 51.5788C20.0612 49.5777 19.3608 47.6266 18.0601 46.1258C16.9594 44.8251 15.8088 43.6744 14.1078 43.8245C13.8577 43.8245 13.5575 43.9746 13.6076 44.1747C13.6076 44.3248 13.7577 44.4248 13.8577 44.5249C14.6582 45.1252 15.4586 45.9257 15.7087 46.9763C15.8088 47.4765 15.8088 48.0269 15.8088 48.5772C15.9089 49.978 16.6092 51.2787 17.7099 52.1292" fill="#FF886F"/>
<path d="M10.8059 46.7763C10.8059 46.4261 10.7059 46.1759 10.8059 45.8257C10.856 45.6756 11.0061 45.5256 11.1561 45.4255C11.2562 45.3254 11.4563 45.3254 11.6064 45.3254C11.7565 45.3755 11.9066 45.4255 12.0566 45.5255C12.657 45.8757 13.1573 46.4261 13.2573 47.1265C13.2573 47.1765 13.2573 47.2265 13.2573 47.2765C13.2573 47.3266 13.2073 47.3266 13.2073 47.3766C13.0572 47.4766 12.8071 47.5767 12.607 47.5767C12.1067 47.5767 11.3062 46.7763 11.2562 46.6262" fill="#FF886F"/>
<path d="M11.5565 46.0258C11.5565 45.6756 11.6065 45.3254 11.7066 45.0252C11.7566 44.8751 11.8067 44.7751 11.9067 44.675C12.0068 44.5749 12.2069 44.575 12.357 44.575C12.5071 44.625 12.6571 44.675 12.8072 44.7751C13.4076 45.1253 13.9078 45.6756 14.0079 46.376C14.0079 46.426 14.0079 46.476 14.0079 46.526C14.0079 46.5761 13.9579 46.5761 13.9579 46.6261C13.8078 46.7262 13.5576 46.7762 13.3575 46.7262C13.1574 46.6761 12.9573 46.526 12.8072 46.426C12.6071 46.2759 12.407 46.1758 12.2069 46.0258C12.1068 45.9257 11.9567 45.8757 11.9067 45.7256" fill="#FF886F"/>
<path d="M12.3569 45.1754C12.3569 44.8252 12.407 44.475 12.507 44.1749C12.557 44.0248 12.6071 43.9247 12.7071 43.8247C12.8072 43.7246 13.0073 43.7246 13.1574 43.7246C13.3075 43.7746 13.4576 43.8247 13.6076 43.9247C14.208 44.2749 14.7082 44.8252 14.8083 45.5256C14.8083 45.5756 14.8083 45.6257 14.8083 45.6757C14.8083 45.7257 14.7583 45.7257 14.7583 45.7758C14.6082 45.8758 14.3581 45.9258 14.1579 45.8758C13.9578 45.8258 13.7577 45.6757 13.6076 45.5756C13.4075 45.4256 13.2074 45.3255 13.0073 45.1754C12.9072 45.0754 12.7572 45.0253 12.7071 44.8753" fill="#FF886F"/>
<path d="M13.1573 44.3248C13.1573 43.9746 13.2074 43.6244 13.3074 43.3243C13.3575 43.1742 13.4075 43.0741 13.5075 42.9741C13.6076 42.874 13.8077 42.874 13.9578 42.874C14.1079 42.9241 14.258 42.9741 14.4081 43.0741C15.0084 43.4243 15.5087 43.9746 15.6087 44.675C15.6087 44.7251 15.6087 44.7751 15.6087 44.8251C15.6087 44.8751 15.5587 44.8751 15.5587 44.9252C15.4086 45.0252 15.1585 45.0753 14.9584 45.0252C14.7582 44.9752 14.5581 44.8251 14.4081 44.7251C14.2079 44.575 14.0078 44.4749 13.8077 44.3248C13.7077 44.2248 13.5576 44.1747 13.5075 44.0247" fill="#FF886F"/>
<path d="M15.8589 47.7268C15.8589 47.7268 15.8589 51.1287 16.9095 52.1793" stroke="#F2C94C" stroke-width="0.75" stroke-miterlimit="10" stroke-linejoin="round"/>
<path d="M59.7334 177.75V176.849H45.9256C45.3753 176.849 44.825 176.549 44.5249 176.049H44.4248V177.5C44.4248 177.55 44.4248 177.6 44.4748 177.65L44.5249 177.7C44.775 177.95 45.0752 178.1 45.4254 178.1H59.4332C59.5833 178.05 59.7334 177.9 59.7334 177.75Z" fill="#010101"/>
<path d="M58.5327 160.24L59.2832 171.846L58.8829 176.549H45.4754C45.0752 176.549 44.775 176.249 44.775 175.849C44.775 175.548 44.9251 175.298 45.2253 175.198L51.6289 171.346L49.2275 159.99" fill="#FF886F"/>
<path d="M51.6789 171.346L44.875 175.198C44.5749 175.348 44.3748 175.649 44.3748 175.999C44.3748 176.449 44.875 176.849 45.2753 176.849H59.7334L59.3331 171.696C59.3331 171.696 54.8806 173.147 51.6789 171.346Z" fill="#173682"/>
<path d="M50.4281 171.646C50.8283 172.147 51.1785 172.697 51.4287 173.297" stroke="#010101" stroke-miterlimit="10" stroke-linecap="round" stroke-linejoin="round"/>
<path d="M49.5276 172.197C49.9278 172.747 50.1279 173.097 50.328 173.597" stroke="#010101" stroke-miterlimit="10" stroke-linecap="round" stroke-linejoin="round"/>
<path d="M48.7772 172.597C49.0774 172.947 49.3275 173.497 49.5276 173.898" stroke="#010101" stroke-miterlimit="10" stroke-linecap="round" stroke-linejoin="round"/>
<path d="M84.0471 177.75V176.849H70.2394C69.6891 176.849 69.1387 176.549 68.8386 176.049H68.7385V177.5C68.7385 177.55 68.7385 177.6 68.7886 177.65L68.8386 177.7C69.0887 177.95 69.3889 178.1 69.7391 178.1H83.7469C83.897 178.05 84.0471 177.9 84.0471 177.75Z" fill="#010101"/>
<path d="M82.8463 160.24L83.5968 171.846L83.1965 176.549H69.789C69.3888 176.549 69.0886 176.249 69.0886 175.849C69.0886 175.548 69.2387 175.298 69.5389 175.198L75.9425 171.346L73.5411 159.99" fill="#FF886F"/>
<path d="M75.9926 171.346L69.1888 175.198C68.8886 175.348 68.6885 175.649 68.6885 175.999C68.6885 176.449 69.1888 176.849 69.589 176.849H83.9971L83.5968 171.696C83.5968 171.696 79.1443 173.147 75.9926 171.346Z" fill="#173682"/>
<path d="M74.6919 171.646C75.0921 172.147 75.4423 172.697 75.6925 173.297" stroke="#010101" stroke-miterlimit="10" stroke-linecap="round" stroke-linejoin="round"/>
<path d="M73.8413 172.197C74.2415 172.747 74.4416 173.097 74.6418 173.597" stroke="#010101" stroke-miterlimit="10" stroke-linecap="round" stroke-linejoin="round"/>
<path d="M73.0911 172.597C73.3912 172.947 73.6414 173.497 73.8415 173.898" stroke="#010101" stroke-miterlimit="10" stroke-linecap="round" stroke-linejoin="round"/>
<path d="M55.331 86.9988C55.331 86.9988 54.1303 96.354 55.331 104.909C56.5317 113.464 71.7902 167.694 71.7902 167.694H87.9993L78.9943 106.36C78.9943 106.36 79.6947 97.0544 74.1416 89.1" fill="#222256"/>
<path d="M42.4737 89.0999C42.4737 89.0999 41.7733 101.657 42.2735 115.515C43.074 138.428 46.9261 167.694 46.9261 167.694H62.2848L61.5343 108.061C61.5343 108.061 64.7361 94.0027 61.6344 87.5491" fill="#222256"/>
<path d="M61.8346 132.324C61.8346 132.324 56.4816 105.409 54.7806 94.1528" stroke="#4376CF" stroke-width="0.75" stroke-miterlimit="10" stroke-linejoin="round"/>
<path d="M53.3798 94.1528L54.5304 101.207C54.6805 101.807 55.0807 102.257 55.631 102.508L56.1313 102.708" stroke="#4376CF" stroke-width="0.75" stroke-miterlimit="10" stroke-linejoin="round"/>
<path d="M70.6896 163.892H87.399" stroke="#4376CF" stroke-width="0.75" stroke-miterlimit="10" stroke-linejoin="round"/>
<path d="M85.4479 167.694L75.2421 106.159C75.2421 106.159 75.8425 97.6046 72.1904 92.6519" stroke="#4376CF" stroke-width="0.75" stroke-miterlimit="10" stroke-linejoin="round"/>
<path d="M65.9869 94.2029C65.9869 94.2029 67.4878 97.1045 68.8886 97.6048C70.2894 98.1051 74.8419 99.1557 74.8419 99.1557" stroke="#4376CF" stroke-width="0.75" stroke-miterlimit="10" stroke-linejoin="round"/>
<path d="M42.3737 99.1056C42.3737 99.1056 45.9757 98.055 47.0263 97.5548C48.327 96.9544 48.427 93.6025 48.427 93.6025" stroke="#4376CF" stroke-width="0.75" stroke-miterlimit="10" stroke-linejoin="round"/>
<path d="M62.2849 163.892H46.4761" stroke="#4376CF" stroke-width="0.75" stroke-miterlimit="10" stroke-linejoin="round"/>
<path d="M60.0336 167.694C60.0336 167.694 58.2826 121.068 58.2826 114.714" stroke="#4376CF" stroke-width="0.75" stroke-miterlimit="10" stroke-linejoin="round"/>
<path d="M49.7779 48.127C49.7779 48.127 43.3243 52.9798 42.3738 65.937C41.4232 78.444 41.1731 93.3024 41.1731 93.3024C56.2816 98.055 78.7942 93.1523 78.7942 93.1523C78.7942 93.1523 74.842 60.1338 68.6885 50.3783L57.6824 45.3755L49.7779 48.127Z" fill="#173682"/>
<path d="M67.4878 63.0354C67.4878 63.0354 72.0403 69.0388 77.1932 75.9426C81.2455 81.3457 99.3557 94.2029 99.3557 94.2029L102.457 88.7998L87.9493 70.9899L76.9931 55.3811" fill="#FF886F"/>
<path d="M101.657 88.1995C102.758 89.1 104.959 90.6008 106.059 91.5013C106.71 92.0016 107.81 93.0022 107.66 93.3524C107.26 94.2529 105.709 92.3018 105.509 92.752C105.409 93.0522 106.86 94.1028 107.61 94.6531C108.261 95.1534 109.111 95.9038 108.911 96.4041C108.661 97.0544 104.959 94.2028 104.959 94.2028C104.959 94.2028 108.761 97.3546 108.511 97.8549C108.161 98.6053 104.358 95.4535 104.358 95.4535C104.358 95.4535 107.56 98.2051 107.31 98.7554C107.06 99.3057 104.759 97.2545 103.708 96.5541C104.358 97.2045 106.209 98.7554 106.009 99.1556C105.809 99.5558 104.308 98.6053 103.958 98.3552C101.857 96.7042 98.0049 92.9521 98.0049 92.9521" fill="#FF886F"/>
<path d="M101.007 90.3008C101.007 90.3008 102.257 92.1518 104.008 92.2519" stroke="#F2C94C" stroke-width="0.75" stroke-miterlimit="10" stroke-linejoin="round"/>
<path d="M59.1331 46.0259C59.1331 46.0259 69.3888 45.4255 73.8413 49.878C78.2938 54.3305 81.1454 60.0337 81.1454 60.0337L69.9391 69.489L63.9858 59.0832" fill="#173682"/>
<path d="M69.9392 69.4889L63.6356 60.4338" stroke="#010101" stroke-width="0.75" stroke-miterlimit="10" stroke-linejoin="round"/>
<path d="M52.0292 46.0259C52.2293 46.226 51.5289 49.4278 56.5317 49.4278C61.3344 49.4278 62.5851 46.1259 62.5851 46.1259" stroke="#010101" stroke-width="0.75" stroke-miterlimit="10" stroke-linejoin="round"/>
<path d="M42.0735 68.3382L43.3742 54.9807" stroke="#010101" stroke-width="0.75" stroke-miterlimit="10" stroke-linejoin="round"/>
<path d="M53.7301 40.7228L58.9831 34.5693L61.0842 40.6227L61.2343 41.9735L61.0342 46.6261C61.0342 46.6261 56.8318 49.6278 53.6801 47.1764C53.48 47.0263 53.4299 46.8262 53.4299 46.5761L53.7301 40.7228Z" fill="#FF886F"/>
<path d="M54.9308 30.2169C53.2298 32.1179 49.978 38.8217 51.4288 41.5232C52.7295 43.9246 55.4311 43.8245 57.182 43.024C58.6829 42.3237 62.7352 36.5204 61.8847 34.1691C61.0342 31.7677 57.3321 27.5153 54.9308 30.2169Z" fill="#FF886F"/>
<path d="M61.4845 30.1668C60.9342 28.7661 59.2832 27.9156 57.6823 27.8155C56.8819 27.7655 52.2793 28.5159 52.0292 31.8178L57.8324 33.2686C58.1826 34.9695 58.4328 37.3209 59.1832 38.9218C59.2832 39.0718 60.9842 42.4738 61.1843 42.3237C64.6863 40.0724 66.4873 37.1708 65.5868 34.4192C65.0365 32.9684 63.8358 30.5671 61.4845 30.1668Z" fill="#010101"/>
<path d="M53.8302 43.4244C53.8302 43.4244 56.3316 43.7246 57.7824 42.4238" stroke="#F2C94C" stroke-width="0.75" stroke-miterlimit="10" stroke-linejoin="round"/>
<path d="M53.0297 35.0195C53.0297 35.0195 50.078 36.5704 50.1281 37.3208C50.1781 38.0712 51.3287 38.2213 51.3287 38.2213" fill="#FF886F"/>
<path d="M53.9802 35.0696C53.8802 35.1697 53.7801 35.3698 53.7301 35.4699C53.63 35.67 53.7801 35.8701 53.9802 35.9201C54.3805 35.9701 54.7307 35.1197 54.2804 34.9696C54.1303 34.9195 54.0303 34.9696 53.9802 35.0696Z" fill="#010101"/>
<path d="M52.1793 39.2219L55.0809 39.8223C55.0809 39.8223 54.1804 41.8234 52.5295 41.3231C51.4789 41.0229 52.1793 39.2219 52.1793 39.2219Z" fill="#EEEEEE"/>
<path d="M53.8301 34.1192C54.3804 34.4193 54.9307 34.8696 55.3309 35.3198C55.381 35.3198 55.6811 35.1197 55.6811 34.9196C55.6811 34.7695 54.9307 34.0191 54.1303 33.6189C54.1303 33.6189 53.7801 34.0191 53.8301 34.1192Z" fill="#010101"/>
<path d="M58.5828 38.0212C58.983 37.721 59.5333 37.4208 59.9335 37.6209C60.1336 37.721 60.3338 37.9211 60.3838 38.1212C60.784 39.2719 60.0836 40.7727 58.8829 41.1229C58.3827 41.273 57.8324 41.1729 57.7323 40.5726L58.3827 38.2713C58.3827 38.1713 58.4827 38.0712 58.5828 38.0212Z" fill="#FF886F"/>
<path d="M59.4833 40.8728C59.4833 40.8728 58.4327 41.4231 57.7823 40.8228" stroke="#F2C94C" stroke-width="0.75" stroke-miterlimit="10" stroke-linejoin="round"/>
</svg>
