<svg width="360" height="224" viewBox="0 0 360 224" fill="none" xmlns="http://www.w3.org/2000/svg">
<rect width="360" height="194" fill="#212121"/>
<rect width="360" height="194" fill="#212121"/>
<rect width="360" height="224" fill="#171717"/>
<path d="M184.766 75.069C185.32 72.2488 188.241 70.6373 190.91 71.6949C193.579 72.7524 196.5 71.0905 197.054 68.3207L197.155 67.7164C197.709 64.8962 200.63 63.2846 203.299 64.3422L203.752 64.4933C206.27 65.4501 209.04 64.0904 209.796 61.522" stroke="#F2C94C" stroke-miterlimit="10"/>
<path d="M89.6849 59.1046L91.3468 50.7447L99.7571 52.4066L101.419 43.9963L109.829 45.7086" stroke="#F2C94C" stroke-miterlimit="10"/>
<path d="M330.611 181.028L310.467 197.396" stroke="#F2C94C" stroke-miterlimit="10"/>
<path d="M39.6263 144.919L22 160.028" stroke="#F2C94C" stroke-miterlimit="10"/>
<path d="M330.611 184.805L320.237 193.216" stroke="#F2C94C" stroke-miterlimit="10"/>
<path d="M134.154 59.8097L114.563 76.5798" stroke="#F2C94C" stroke-miterlimit="10"/>
<path d="M313.186 91.9903C313.287 93.199 310.971 94.9112 310.165 95.5156C309.057 96.3213 308.503 97.6811 307.546 98.6379C306.589 99.5948 304.726 100.048 303.97 98.8897C303.416 98.0336 303.87 96.8249 304.625 96.0695C305.38 95.3645 306.337 94.8609 307.042 94.1054C307.999 93.0982 310.417 90.5802 312.028 90.9831C312.834 91.2349 313.186 91.5874 313.186 91.9903Z" stroke="#F2C94C" stroke-miterlimit="10"/>
<path d="M139.244 65.3998C139.244 66.6848 138.208 67.72 136.923 67.72C135.638 67.72 134.603 66.6848 134.603 65.3998C134.603 64.1148 135.638 63.0796 136.923 63.0796C138.208 63.0796 139.244 64.1148 139.244 65.3998Z" fill="#F2C94C" stroke="#F2C94C"/>
<path d="M320.845 98.4868C320.845 99.6013 319.941 100.505 318.827 100.505C317.712 100.505 316.809 99.6013 316.809 98.4868C316.809 97.3723 317.712 96.4688 318.827 96.4688C319.941 96.4688 320.845 97.3723 320.845 98.4868Z" fill="#F2C94C" stroke="#F2C94C"/>
<path d="M251.192 50.9462L258.746 43.3921L266.3 50.9462L273.855 43.3921L281.409 50.9462" stroke="#F2C94C" stroke-miterlimit="10"/>
<path d="M340.988 132.08C340.36 132.551 339.528 132.657 338.66 132.508L340.719 130.331L342.462 128.488C342.427 129.005 342.362 129.518 342.244 130.001C342.026 130.888 341.644 131.614 340.998 132.073L340.998 132.072L340.988 132.08Z" fill="#242320" stroke="#F2C94C"/>
<path d="M24.0648 141.646C23.6115 140.236 23.9137 138.624 24.7698 137.416C25.1727 136.811 25.7267 136.308 25.9281 135.603C26.1296 134.797 25.8274 133.941 25.7771 133.085C25.6763 131.07 27.4893 129.157 29.5038 129.106C29.7052 129.106 29.9067 129.106 30.0577 129.207C30.2088 129.308 30.2592 129.459 30.3599 129.61C31.0146 131.322 29.7052 133.185 30.0074 134.948C30.2592 136.409 31.5686 137.466 32.0722 138.876C32.5758 140.236 32.2736 141.848 31.3168 142.955C29.3527 145.322 25.072 144.668 24.0648 141.646Z" stroke="#F2C94C" stroke-miterlimit="10"/>
<mask id="path-16-inside-1_61_193" fill="white">
<path d="M199.925 43.7446C197.457 42.9892 194.536 43.7446 192.774 45.608C191.011 47.5217 190.407 50.4426 191.313 52.8599"/>
</mask>
<path d="M199.925 43.7446C197.457 42.9892 194.536 43.7446 192.774 45.608C191.011 47.5217 190.407 50.4426 191.313 52.8599" fill="#F2C94C"/>
<path d="M192.774 45.608L192.047 44.9207L192.038 44.9305L192.774 45.608ZM200.218 42.7884C197.392 41.9235 194.075 42.7773 192.047 44.9208L193.5 46.2952C194.998 44.712 197.522 44.0549 199.632 44.7008L200.218 42.7884ZM192.038 44.9305C190.028 47.1131 189.334 50.4296 190.377 53.2111L192.25 52.5088C191.48 50.4557 191.994 47.9303 193.509 46.2855L192.038 44.9305Z" fill="#F2C94C" mask="url(#path-16-inside-1_61_193)"/>
<path d="M35.5261 172.788C35.5741 172.344 35.6484 171.994 35.8546 171.698C35.9422 171.576 36.0532 171.471 36.1931 171.359C36.256 171.309 36.32 171.261 36.3907 171.207C36.4003 171.2 36.41 171.193 36.4198 171.186C36.4992 171.126 36.5865 171.06 36.6723 170.988C37.5537 170.258 37.6538 169.227 37.7301 168.443C37.7327 168.415 37.7354 168.388 37.738 168.361C37.8233 167.496 37.9112 166.945 38.4387 166.591C38.8352 166.341 39.388 166.303 39.9333 166.478C40.353 166.612 40.7171 166.857 40.9566 167.157C39.1341 168.986 37.3139 170.883 35.5261 172.788Z" fill="#F2C94C" stroke="#F2C94C"/>
<path d="M169.054 118.48C168.802 118.379 168.55 118.329 168.298 118.329C167.895 118.379 167.492 118.732 167.09 118.732C166.737 118.732 166.385 118.48 166.082 118.329C165.78 118.128 165.327 118.027 165.025 118.178C164.874 118.279 164.773 118.43 164.572 118.53C164.269 118.682 163.967 118.48 163.715 118.279C163.464 118.077 163.262 117.825 163.01 117.725C162.557 117.574 162.104 117.775 161.701 118.027C160.341 118.933 158.428 118.833 158.025 120.746C157.874 121.653 157.874 122.66 158.377 123.415C159.032 124.473 160.291 124.926 161.5 125.228C163.917 125.782 166.385 125.833 168.852 125.833C170.111 125.833 171.27 125.531 172.025 124.473C172.629 123.667 172.73 122.559 172.68 121.602C172.68 120.746 172.831 119.437 172.025 118.883C171.572 118.581 170.967 118.631 170.514 118.883C170.413 118.984 170.313 119.034 170.162 119.084C170.011 119.084 169.91 119.034 169.809 118.933C169.658 118.833 169.356 118.631 169.054 118.48Z" fill="#F09F92"/>
<path d="M199.673 135.25C200.529 136.408 201.335 137.667 201.939 138.977C202.745 140.689 203.4 142.552 203.249 144.416C202.946 148.696 198.918 151.668 195.09 153.581C189.097 156.553 182.601 158.466 175.953 159.272C173.586 159.574 170.816 160.582 168.55 159.977C166.183 159.373 164.169 156.855 162.507 155.193C161.147 153.833 159.838 152.222 158.176 151.215C156.312 150.056 155.003 150.56 153.089 149.905C145.988 147.589 146.492 136.308 146.845 130.516C147.247 122.962 151.075 116.667 159.586 118.681C163.161 119.538 166.435 121.502 169.91 122.71C176.054 124.876 182.903 124.674 188.997 127.041C193.227 128.703 197.004 131.574 199.673 135.25Z" fill="#A2CBE0"/>
<path d="M250.537 122.71C250.739 122.257 250.89 121.804 251.091 121.351C253.358 115.408 250.135 109.264 243.386 111.581C241.17 112.336 238.954 113.091 236.89 114.199C234.422 115.509 232.256 117.322 229.839 118.782C227.321 120.343 224.602 121.502 221.882 122.66C218.961 123.919 216.091 125.178 213.17 126.387C210.098 127.696 206.975 129.056 203.652 129.761C202.946 129.912 202.191 130.063 201.536 130.466C200.277 131.322 199.925 133.135 200.428 134.545C201.486 137.668 204.759 140.135 207.731 141.042C218.357 144.315 230.494 143.358 239.66 137.063C244.998 133.437 248.17 128.502 250.537 122.71Z" fill="#D9664A"/>
<path d="M165.579 167.33C161.953 164.762 160.895 159.927 160.341 155.495C160.14 153.834 159.938 152.121 160.392 150.51C161.248 147.438 164.118 145.323 167.039 144.013C170.061 142.653 180.183 130.668 183.507 131.02C186.63 131.373 182.752 143.912 185.219 145.776C186.982 147.085 188.594 148.697 189.651 150.61C191.917 154.841 191.061 160.179 188.694 164.309C186.982 167.33 182.903 173.575 178.874 173.424C176.658 173.323 174.694 171.057 172.73 170.201C170.363 169.093 167.744 168.841 165.579 167.33Z" fill="#F2C94C"/>
<path d="M206.824 114.451C207.177 114.602 207.529 114.703 207.882 114.854C215.688 114.905 223.443 114.804 231.199 113.696C231.249 111.883 230.997 110.12 229.738 109.012C228.58 107.955 227.17 107.653 226.213 106.243C224.602 103.825 225.458 100.401 224.249 97.7315C222.235 93.2998 217.501 95.6667 214.58 92.8969C212.112 90.5803 211.709 87.1054 207.983 86.1485C200.882 84.3859 185.32 85.1917 184.766 95.7675C184.666 97.8826 184.867 100.199 183.709 102.012C183.104 102.969 182.097 103.724 181.694 104.782C180.939 106.645 182.047 109.113 180.888 110.725C180.637 111.077 180.334 111.329 180.083 111.631C179.529 112.336 179.378 113.243 179.378 114.149C182.349 114.451 185.27 114.754 188.241 114.703C194.184 114.602 200.177 114.754 206.17 114.804C206.22 114.552 206.472 114.3 206.824 114.451Z" fill="#2F80ED"/>
<path d="M227.925 134.394C225.559 131.121 217.602 126.689 213.321 125.279C206.321 122.912 197.558 123.365 190.81 126.488C183.809 129.761 181.845 131.725 177.816 138.272C195.795 138.272 210.198 142.653 228.127 143.912C227.019 139.783 230.292 137.668 227.925 134.394Z" fill="#94625A"/>
<path d="M210.954 107.552C211.105 103.523 211.155 98.6381 208.537 95.2639C204.709 90.2782 195.292 90.3286 191.112 94.9618C190.155 96.0193 189.601 94.4078 189.097 95.7172C186.327 103.07 188.745 112.789 190.608 115.559C191.867 117.423 195.493 118.883 195.493 118.631C195.493 120.545 195.392 121.703 195.493 123.063C195.644 125.732 196.198 129.006 199.018 130.114C202.745 131.574 210.752 131.373 211.457 126.085C211.558 125.43 211.508 124.775 211.457 124.121C211.155 119.89 210.904 115.761 210.904 111.581C210.904 110.271 210.904 108.912 210.954 107.552Z" fill="#94625A"/>
<path d="M211.155 110.322C213.297 110.322 215.033 108.586 215.033 106.444C215.033 104.302 213.297 102.566 211.155 102.566C209.014 102.566 207.278 104.302 207.278 106.444C207.278 108.586 209.014 110.322 211.155 110.322Z" fill="#94625A"/>
<path d="M210.45 104.681C211.306 104.782 212.112 105.386 212.364 106.242C212.616 107.048 212.364 108.055 211.76 108.66" fill="#1A2732"/>
<path d="M192.723 121.955C193.882 122.358 195.191 121.905 196.299 121.351C198.011 120.495 199.623 119.236 200.529 117.523C198.968 118.279 197.256 118.682 195.543 118.682C194.889 118.682 194.234 118.631 193.579 118.581C192.673 118.531 191.766 118.43 190.91 118.38" fill="#1A2732" fill-opacity="0.5"/>
<path d="M191.414 111.329C192.27 113.192 193.177 114.149 194.687 114.149C196.752 114.2 197.709 112.739 198.112 111.178" fill="white"/>
<path d="M209.544 92.343C206.875 89.7746 205.565 88.4148 201.637 88.9688C199.169 89.3213 196.702 89.6739 194.234 90.0264C192.723 90.2278 191.061 90.4796 189.853 91.4869C188.694 92.3933 188.14 93.8035 187.536 95.1632C186.932 96.5733 186.478 97.9834 186.176 99.3431C189.853 100.653 193.831 100.401 197.709 100.048C199.22 99.9475 200.882 99.6453 202.393 99.9978C202.795 100.099 203.148 100.25 203.45 100.501C203.5 100.401 203.551 100.25 203.652 100.149C203.853 99.7964 204.155 99.5446 204.357 99.1921C204.961 98.3359 205.213 97.1776 204.961 96.1704C205.162 96.9258 205.515 97.5302 205.565 98.3359C205.616 99.1921 205.162 99.6957 204.911 100.501C204.709 101.206 204.508 102.566 204.911 103.221C205.263 103.775 205.767 103.674 206.321 103.775C208.285 104.027 209.896 103.523 211.407 102.264C211.76 101.962 212.163 101.609 212.314 101.156C212.465 100.804 212.465 100.401 212.515 99.9978C212.565 97.228 211.558 94.3574 209.544 92.343Z" fill="#2F80ED"/>
<path d="M206.119 100.955C205.817 101.66 205.515 102.314 205.364 103.07C205.263 103.825 205.414 104.631 205.968 105.135C206.522 105.588 207.378 105.689 207.781 106.242C208.436 107.149 207.58 108.458 207.731 109.566C207.932 110.825 209.393 111.379 210.601 111.732C211.961 112.135 213.522 112.437 214.681 111.631" stroke="#2F80ED" stroke-miterlimit="10"/>
<path d="M235.026 112.084C233.767 111.782 232.76 110.725 232.458 109.516C232.055 107.955 232.508 107.401 230.947 106.645C230.141 106.242 229.336 105.89 228.53 105.487C228.177 105.336 227.825 105.134 227.523 104.883C226.666 104.127 226.465 102.919 226.515 101.76C226.616 98.789 226.868 96.4724 224.299 94.4076C222.839 93.2493 221.026 92.645 219.163 92.4939C218.458 92.4435 217.702 92.4435 217.048 92.1917C215.789 91.7385 215.033 90.5298 214.127 89.573C211.055 86.4506 206.22 86.1988 201.839 86.1484" stroke="#2F80ED" stroke-miterlimit="10"/>
<path fill-rule="evenodd" clip-rule="evenodd" d="M244.314 219H174.647C174.708 218.412 174.783 217.823 174.855 217.265C174.974 216.33 175.082 215.482 175.097 214.871C175.248 209.23 175.449 203.64 175.701 198L176.457 181.834C176.487 181.19 176.538 180.533 176.589 179.873C176.884 176.095 177.187 172.199 173.586 169.798C173.474 169.719 173.361 169.646 173.251 169.573C172.865 169.32 172.5 169.081 172.226 168.69C171.885 168.203 171.78 167.621 171.682 167.083C171.679 167.064 171.676 167.046 171.672 167.028C170.858 161.66 171.867 156.538 172.878 151.4C173.243 149.548 173.608 147.694 173.888 145.826C174.845 139.581 178.169 133.034 184.011 130.114C184.112 130.063 184.263 130.013 184.363 130.013C184.514 130.013 184.666 130.164 184.766 130.265L184.766 130.265C184.884 130.393 184.999 130.519 185.111 130.642C186.579 132.254 187.611 133.387 189.903 134.042C200.932 137.114 213.119 136.258 223.494 131.221C225.374 130.321 226.858 131.4 228.491 132.588C228.958 132.927 229.436 133.275 229.94 133.588C235.983 137.315 241.17 142.25 245.048 148.042C245.955 149.351 246.811 150.862 246.559 152.423C246.257 154.438 244.343 155.798 242.48 156.754C239.206 158.416 235.53 160.078 231.652 159.726C230.167 159.577 229.227 159.446 228.361 159.326C227.173 159.161 226.124 159.015 223.997 158.87C223.897 162.017 223.179 164.711 222.461 167.406C221.744 170.1 221.026 172.794 220.925 175.942C220.925 176.029 220.925 176.116 220.925 176.203C220.92 177.08 220.916 177.984 221.328 178.762C221.731 179.518 222.436 180.021 223.141 180.474C223.991 181.009 224.92 181.481 225.85 181.952C228.335 183.214 230.828 184.479 231.854 186.971C232.311 188.046 232.405 189.246 232.499 190.443C232.611 191.882 232.723 193.316 233.465 194.525C234.119 195.627 235.174 196.352 236.242 197.087C236.736 197.427 237.233 197.769 237.696 198.151C240.163 200.216 241.624 203.54 241.372 206.763C241.299 207.688 242.697 212.931 244.075 218.102C244.155 218.402 244.235 218.701 244.314 219Z" fill="#F2C94C"/>
<path d="M180.183 154.841C181.797 154.841 183.104 153.533 183.104 151.92C183.104 150.307 181.797 148.999 180.183 148.999C178.57 148.999 177.263 150.307 177.263 151.92C177.263 153.533 178.57 154.841 180.183 154.841Z" stroke="#1A2732" stroke-miterlimit="10"/>
<path d="M195.795 164.258C197.408 164.258 198.716 162.951 198.716 161.337C198.716 159.724 197.408 158.416 195.795 158.416C194.182 158.416 192.874 159.724 192.874 161.337C192.874 162.951 194.182 164.258 195.795 164.258Z" stroke="#1A2732" stroke-miterlimit="10"/>
<path d="M220.472 195.18C222.085 195.18 223.393 193.872 223.393 192.259C223.393 190.646 222.085 189.338 220.472 189.338C218.859 189.338 217.551 190.646 217.551 192.259C217.551 193.872 218.859 195.18 220.472 195.18Z" stroke="#1A2732" stroke-miterlimit="10"/>
<path d="M227.623 217.943C229.237 217.943 230.544 216.635 230.544 215.022C230.544 213.409 229.237 212.101 227.623 212.101C226.01 212.101 224.702 213.409 224.702 215.022C224.702 216.635 226.01 217.943 227.623 217.943Z" stroke="#1A2732" stroke-miterlimit="10"/>
<path d="M204.206 183.295C205.819 183.295 207.126 181.987 207.126 180.374C207.126 178.761 205.819 177.453 204.206 177.453C202.592 177.453 201.285 178.761 201.285 180.374C201.285 181.987 202.592 183.295 204.206 183.295Z" stroke="#1A2732" stroke-miterlimit="10"/>
<path d="M202.594 206.662C204.207 206.662 205.515 205.354 205.515 203.741C205.515 202.128 204.207 200.82 202.594 200.82C200.981 200.82 199.673 202.128 199.673 203.741C199.673 205.354 200.981 206.662 202.594 206.662Z" stroke="#1A2732" stroke-miterlimit="10"/>
<path d="M182.55 217.993C184.164 217.993 185.471 216.685 185.471 215.072C185.471 213.459 184.164 212.151 182.55 212.151C180.937 212.151 179.629 213.459 179.629 215.072C179.629 216.685 180.937 217.993 182.55 217.993Z" stroke="#1A2732" stroke-miterlimit="10"/>
<path d="M207.781 150.308C209.394 150.308 210.702 149.001 210.702 147.387C210.702 145.774 209.394 144.467 207.781 144.467C206.168 144.467 204.86 145.774 204.86 147.387C204.86 149.001 206.168 150.308 207.781 150.308Z" stroke="#1A2732" stroke-miterlimit="10"/>
<path d="M223.494 140.84C225.107 140.84 226.415 139.533 226.415 137.919C226.415 136.306 225.107 134.999 223.494 134.999C221.881 134.999 220.573 136.306 220.573 137.919C220.573 139.533 221.881 140.84 223.494 140.84Z" stroke="#1A2732" stroke-miterlimit="10"/>
<path d="M184.917 191.503C186.531 191.503 187.838 190.196 187.838 188.582C187.838 186.969 186.531 185.662 184.917 185.662C183.304 185.662 181.996 186.969 181.996 188.582C181.996 190.196 183.304 191.503 184.917 191.503Z" stroke="#1A2732" stroke-miterlimit="10"/>
<path d="M220.925 168.791C222.539 168.791 223.846 167.483 223.846 165.87C223.846 164.256 222.539 162.949 220.925 162.949C219.312 162.949 218.004 164.256 218.004 165.87C218.004 167.483 219.312 168.791 220.925 168.791Z" stroke="#1A2732" stroke-miterlimit="10"/>
<path d="M174.996 171.863C176.608 171.812 177.867 173.323 178.622 174.784C179.579 176.597 180.335 178.561 180.838 180.525" stroke="#1A2732" stroke-miterlimit="10"/>
<path d="M183.809 133.488C187.284 135.905 191.414 137.416 195.594 137.819" stroke="#1A2732" stroke-miterlimit="10"/>
<path d="M200.126 138.02C201.234 138.071 202.342 138.171 203.148 138.222" stroke="#1A2732" stroke-miterlimit="10"/>
<path d="M187.536 105.688C187.989 104.732 188.644 103.926 189.702 103.825C190.759 103.724 192.169 104.429 192.27 105.487" stroke="#1A2732" stroke-miterlimit="10"/>
<path d="M196.702 104.933C197.306 104.027 198.615 103.372 199.673 103.372C200.731 103.372 201.889 104.329 202.04 105.286" stroke="#1A2732" stroke-miterlimit="10"/>
<path fill-rule="evenodd" clip-rule="evenodd" d="M177.501 219H112.95C113.262 212.413 114.739 205.893 117.283 199.813C118.693 196.489 120.506 193.165 123.326 190.899C126.65 188.23 130.981 187.273 135.11 186.417C136.501 186.125 137.888 185.813 139.274 185.501C143.16 184.626 147.039 183.753 150.974 183.345C154.614 182.955 155.737 184.242 157.226 185.949C158.045 186.887 158.974 187.952 160.492 188.935C160.7 189.069 160.911 189.203 161.123 189.339C165.932 192.419 171.543 196.012 172.025 202.331C172.089 203.224 172.031 204.147 171.974 205.065C171.851 207.047 171.729 209.007 172.831 210.59C173.274 211.254 173.895 211.76 174.521 212.268C174.892 212.57 175.264 212.872 175.601 213.209C177.088 214.696 177.765 216.915 177.501 219Z" fill="#856096"/>
<path d="M95.2247 117.372C106.757 117.624 118.34 117.926 129.873 118.178C127.002 135.099 118.542 151.064 106.103 162.949" fill="#856096"/>
<path d="M147.902 108.458C151.679 108.156 155.658 105.839 157.974 103.422C161.348 99.9473 162.507 94.4579 160.694 89.9255C159.888 87.911 158.226 86.6017 157.269 84.6879C156.212 82.4217 155.154 79.954 152.284 79.5511C150.974 79.3497 149.665 79.7526 148.456 80.1555C145.485 81.1123 142.463 82.1195 139.945 83.8822C137.427 85.6952 135.362 88.465 135.262 91.5874C135.211 92.7457 135.463 93.904 135.413 95.0119C135.413 95.8177 135.262 96.6235 135.413 97.4292C135.564 97.9832 135.866 98.4868 136.168 98.9904C137.175 100.602 138.233 102.214 139.391 103.724C140.449 105.134 141.607 106.494 143.118 107.401C144.578 108.358 146.24 108.609 147.902 108.458Z" fill="#1A2732"/>
<path d="M171.521 171.712C170.967 169.194 170.313 166.675 169.91 164.107C168.097 151.92 172.075 138.876 165.428 127.747C161.097 120.545 153.291 116.718 145.032 116.315C138.535 116.012 125.995 116.869 121.261 121.854C115.268 128.25 115.671 142.452 115.319 150.51C115.268 151.114 115.268 151.769 115.621 152.323C115.873 152.726 116.628 152.826 117.031 152.877C117.081 152.877 112.448 182.237 111.592 184.906C110.635 188.028 109.477 191.1 108.973 194.324C108.47 197.496 109.124 200.568 108.872 203.741C108.721 205.907 108.57 208.122 109.275 210.187C111.189 215.727 117.988 217.54 123.83 217.993C125.34 218.094 126.801 218.195 128.312 218.245C132.492 218.346 136.621 216.835 139.744 214.015C141.355 212.554 142.413 210.087 143.269 208.122C144.326 205.705 144.78 203.036 145.082 200.417C144.981 202.432 144.931 204.446 144.83 206.41C144.679 209.986 145.334 214.921 148.355 217.288C150.017 218.597 152.233 218.9 154.298 218.597C156.363 218.245 158.276 217.338 160.039 216.231C165.075 213.209 172.277 207.921 173.334 201.676C174.946 192.863 173.385 180.424 171.521 171.712Z" fill="#A2CBE0"/>
<path d="M137.981 99.3934C137.83 95.3645 137.78 90.4795 140.398 87.1054C144.226 82.1196 153.643 82.17 157.823 86.8032C158.78 87.8608 159.435 89.1701 159.938 90.5299C161.248 93.9041 161.802 97.6308 161.147 101.206C160.744 103.473 159.787 105.638 158.377 107.451C157.722 108.307 156.866 109.314 155.96 109.818C155.658 109.969 153.24 110.674 153.19 110.473C153.391 111.782 153.492 113.646 153.492 115.005C153.492 118.682 151.528 124.926 148.708 126.034C144.981 127.495 138.233 123.315 137.528 118.027C137.427 117.372 137.477 116.718 137.528 116.063C137.83 111.833 138.082 107.703 138.082 103.523C138.031 102.113 138.031 100.753 137.981 99.3934Z" fill="#F09F92"/>
<path d="M140.78 100.752C142.14 99.0985 141.902 96.6547 140.248 95.2941C138.594 93.9335 136.15 94.1714 134.79 95.8254C133.429 97.4794 133.667 99.9232 135.321 101.284C136.975 102.644 139.419 102.406 140.78 100.752Z" fill="#F09F92"/>
<path d="M138.434 96.5228C137.578 96.6235 136.772 97.2279 136.521 98.084C136.269 98.8898 136.521 99.897 137.125 100.501" fill="#1A2732"/>
<path d="M154.499 103.019C153.391 103.12 152.183 103.221 151.024 103.019C151.427 104.429 152.837 105.537 154.298 105.487C155.859 105.437 157.219 104.127 157.471 102.566C156.463 102.767 155.456 102.919 154.499 103.019Z" fill="white"/>
<path d="M156.212 113.796C155.053 114.199 153.744 113.746 152.636 113.192C150.924 112.336 149.312 111.077 148.406 109.365C149.967 110.12 151.679 110.523 153.391 110.523C154.046 110.523 154.701 110.473 155.356 110.422C156.262 110.372 157.168 110.271 158.025 110.221" fill="#1A2732" fill-opacity="0.5"/>
<path d="M142.161 83.3785C143.118 82.6735 143.672 81.5655 144.478 80.7094C145.233 79.954 146.291 79.4504 147.348 79.2993C147.902 79.2489 148.456 79.2489 148.96 79.0978C150.068 78.7453 150.722 77.6374 151.578 76.882C153.391 75.22 156.413 75.069 158.428 76.5798C159.233 77.1841 159.989 78.0403 160.996 78.0403C161.852 77.9899 162.557 77.2848 163.413 77.0834C164.874 76.7309 166.233 77.9899 166.888 79.2993C167.694 80.9612 167.694 83.3281 166.133 84.3354C165.528 84.7382 164.823 84.839 164.169 85.0908C161.701 86.0476 163.111 89.3211 160.291 90.3283C158.78 90.8823 157.118 90.6808 155.507 90.5297C153.19 90.3283 150.622 90.429 148.96 92.0406C148.456 92.5442 148.053 93.0981 147.55 93.5514C146.693 94.2564 145.434 94.4075 144.377 94.2061C143.521 94.055 142.413 93.8032 141.708 94.5586C141.305 94.9615 141.254 95.5658 141.154 96.1702C141.053 96.6738 140.6 99.0911 139.693 98.7386C139.441 98.6378 139.341 98.386 139.29 98.1342C139.139 97.0767 139.794 95.3644 138.636 94.7097C138.283 94.5082 137.88 94.4579 137.528 94.4579C137.125 94.4579 136.772 94.5082 136.369 94.5082C136.47 94.5082 136.168 92.3931 136.168 92.1916C136.168 91.3355 136.369 90.429 136.621 89.6233C137.125 88.0117 138.031 86.5009 139.139 85.1915C139.844 84.3857 141.154 84.1843 142.06 83.58C142.06 83.4792 142.111 83.4289 142.161 83.3785Z" fill="#9B51E0"/>
<path d="M151.629 119.739C152.082 119.135 152.586 118.581 152.888 117.876C153.19 117.221 153.341 116.466 153.442 115.76C153.391 115.912 154.197 116.415 154.298 116.466C154.65 116.717 155.003 116.969 155.356 117.221C156.061 117.725 156.766 118.178 157.521 118.581C159.032 119.437 160.593 120.092 162.205 120.645C162.658 120.797 163.111 120.948 163.564 121.048C157.722 124.876 152.435 129.509 147.852 134.797C147.398 132.631 145.233 128.905 146.039 126.991C147.046 124.473 149.917 121.905 151.629 119.739Z" fill="#A2CBE0"/>
<path d="M142.211 134.293C141.053 132.581 139.945 130.869 138.787 129.106C136.319 125.379 133.801 121.602 130.175 119.034C132.945 117.876 135.463 116.163 137.578 114.048C137.981 115.861 138.837 117.775 140.197 119.034C142.564 121.3 145.183 123.365 147.952 125.128C145.485 127.897 143.621 131.221 142.463 134.747C142.06 135.049 141.355 134.696 141.305 134.193C141.254 133.689 141.859 133.236 142.312 133.437C142.816 133.689 142.614 133.991 142.211 134.293Z" fill="#A2CBE0"/>
<path d="M147.247 125.027C146.794 153.833 145.988 172.114 144.981 200.87" stroke="#1A2732" stroke-miterlimit="10"/>
<path d="M134.053 118.027C134.204 119.991 134.909 121.905 136.067 123.516C136.571 124.221 137.125 124.876 137.629 125.531C139.492 127.898 141.003 130.617 142.463 133.236C143.873 130.718 145.434 128.25 147.147 125.933C146.845 126.487 147.046 126.487 147.449 126.941C149.161 129.056 151.478 130.667 153.694 132.279C154.449 129.559 155.204 126.84 155.557 124.02C155.809 122.005 155.758 119.941 155.91 117.926C155.91 117.825 155.96 117.674 156.061 117.674C156.161 117.674 156.161 117.876 156.061 117.825" stroke="#1A2732" stroke-miterlimit="10"/>
<path d="M147.852 101.307C150.299 101.307 152.283 99.3228 152.283 96.8752C152.283 94.4276 150.299 92.4435 147.852 92.4435C145.404 92.4435 143.42 94.4276 143.42 96.8752C143.42 99.3228 145.404 101.307 147.852 101.307Z" stroke="#F2F2F2" stroke-miterlimit="10"/>
<path d="M159.485 101.307C161.933 101.307 163.917 99.3228 163.917 96.8752C163.917 94.4276 161.933 92.4435 159.485 92.4435C157.038 92.4435 155.053 94.4276 155.053 96.8752C155.053 99.3228 157.038 101.307 159.485 101.307Z" stroke="#F2F2F2" stroke-miterlimit="10"/>
<path d="M152.284 96.8752H155.053" stroke="#F2F2F2" stroke-miterlimit="10"/>
<path d="M139.29 95.5155L143.521 97.1774" stroke="#F2F2F2" stroke-miterlimit="10"/>
<path d="M133.65 157.913H131.182C128.664 157.913 126.65 155.898 126.65 153.38V144.013H138.132V153.38C138.182 155.898 136.118 157.913 133.65 157.913Z" fill="#7BADC7"/>
<path d="M116.628 153.078C117.182 153.229 117.686 152.725 118.038 152.323C119.348 150.812 120.556 149.2 121.714 147.589" stroke="#1A2732" stroke-miterlimit="10"/>
<path d="M148.607 97.4291C148.969 97.4291 149.262 97.136 149.262 96.7744C149.262 96.4129 148.969 96.1198 148.607 96.1198C148.246 96.1198 147.952 96.4129 147.952 96.7744C147.952 97.136 148.246 97.4291 148.607 97.4291Z" fill="#1A2732"/>
<path d="M159.032 96.6234C159.032 96.976 158.73 97.2781 158.377 97.2781C158.025 97.2781 157.722 96.976 157.722 96.6234C157.722 96.2709 158.025 95.9688 158.377 95.9688C158.73 95.9688 159.032 96.2709 159.032 96.6234Z" fill="#1A2732"/>
<path d="M169.255 143.006C169.356 141.042 169.457 139.128 169.557 137.164" stroke="#1A2732" stroke-miterlimit="10"/>
<path d="M152.485 158.064C152.485 158.92 151.78 159.625 150.924 159.625C150.068 159.625 149.363 158.92 149.363 158.064C149.363 157.207 150.068 156.502 150.924 156.502C151.78 156.502 152.485 157.207 152.485 158.064Z" fill="#1A2732"/>
<path d="M152.082 169.546C152.082 170.402 151.377 171.107 150.521 171.107C149.665 171.107 148.96 170.402 148.96 169.546C148.96 168.69 149.665 167.985 150.521 167.985C151.377 167.985 152.082 168.69 152.082 169.546Z" fill="#1A2732"/>
<path d="M151.629 181.028C151.629 181.884 150.924 182.589 150.068 182.589C149.212 182.589 148.506 181.884 148.506 181.028C148.506 180.172 149.212 179.467 150.068 179.467C150.924 179.467 151.629 180.172 151.629 181.028Z" fill="#1A2732"/>
<path fill-rule="evenodd" clip-rule="evenodd" d="M296.057 219H225.901C227.154 205.575 229.751 192.27 236.386 180.021C239.508 174.28 244.494 168.287 252.099 167.531C254.818 167.28 257.538 167.683 260.156 168.337C273.552 171.611 287.603 180.877 291.833 194.575C293.042 198.352 293.949 202.23 294.603 206.209C295.324 210.412 295.801 214.708 296.057 219Z" fill="#95C5CF"/>
<path d="M260.207 69.0257C261.869 68.371 263.833 67.8674 265.444 68.7235C267.005 69.63 267.257 72.5006 265.495 72.9539C268.818 71.2416 272.545 70.3351 276.322 70.2847C277.581 70.2847 278.891 70.3855 279.797 71.2416C280.905 72.2992 280.905 74.1122 280.15 75.4215C279.445 76.7309 278.135 77.6374 276.876 78.4432C279.092 77.9396 281.459 77.4863 283.574 78.1914C285.74 78.9468 287.452 81.4145 286.545 83.4793C285.538 85.7959 282.416 85.9973 279.898 85.8966C282.617 86.1484 285.689 87.4578 286.243 90.0765C286.797 92.7457 284.229 95.2637 281.56 95.7169C278.891 96.1702 276.171 95.163 273.653 94.2061C274.711 95.5659 274.862 97.5803 274.006 99.0911C273.149 100.602 271.387 101.508 269.675 101.307C268.013 101.106 266.603 100.048 265.344 98.9904C260.056 94.609 251.796 88.8175 248.724 82.5224C245.602 75.9251 255.322 70.9394 260.207 69.0257Z" fill="#F2F2F2"/>
<path d="M276.373 118.833C274.509 115.005 270.48 112.538 266.351 111.581C260.61 110.271 251.595 109.012 246.005 111.631C242.278 113.343 240.314 117.423 239.206 121.149C237.746 125.883 236.436 128.854 233.969 133.236C228.782 142.553 226.062 153.229 226.314 163.855C226.465 170.15 228.228 177.302 233.868 180.071C236.436 181.33 239.458 181.431 242.329 181.481C252.3 181.633 262.221 181.481 272.142 180.928C273.099 180.877 274.106 180.827 274.912 180.273C275.819 179.668 276.272 178.661 276.675 177.704C279.445 171.359 281.258 166.726 281.66 159.826C282.063 152.826 282.114 145.826 282.114 138.826C282.013 134.847 282.013 132.329 280.099 129.006C278.186 125.782 277.984 122.156 276.373 118.833Z" fill="#1A2732"/>
<path d="M270.178 166.625C260.408 168.69 250.336 169.193 240.415 168.086C237.595 167.783 234.775 167.33 232.005 166.726C230.746 166.474 230.192 168.388 231.451 168.69C241.523 170.755 251.897 171.208 262.12 169.999C264.991 169.647 267.862 169.193 270.682 168.589C271.991 168.287 271.437 166.373 270.178 166.625Z" fill="#856096"/>
<path d="M271.034 158.97C261.264 161.035 251.192 161.539 241.271 160.431C238.451 160.129 235.631 159.675 232.861 159.071C231.602 158.819 231.048 160.733 232.307 161.035C242.379 163.1 252.753 163.553 262.977 162.344C265.847 161.992 268.718 161.539 271.538 160.934C272.847 160.632 272.293 158.718 271.034 158.97Z" fill="#856096"/>
<path d="M271.891 151.315C262.121 153.38 252.048 153.884 242.127 152.776C239.307 152.474 236.487 152.02 233.717 151.416C232.458 151.164 231.904 153.078 233.163 153.38C243.235 155.445 253.61 155.898 263.833 154.69C266.703 154.337 269.574 153.884 272.394 153.279C273.653 152.977 273.15 151.064 271.891 151.315Z" fill="#856096"/>
<path d="M272.747 143.661C262.977 145.725 252.904 146.229 242.983 145.121C240.163 144.819 237.343 144.366 234.573 143.761C233.314 143.509 232.76 145.423 234.019 145.725C244.091 147.79 254.466 148.243 264.689 147.035C267.559 146.682 270.43 146.229 273.25 145.625C274.509 145.322 274.006 143.409 272.747 143.661Z" fill="#856096"/>
<path d="M273.552 136.006C263.782 138.07 253.71 138.574 243.789 137.466C240.969 137.164 238.149 136.711 235.379 136.106C234.12 135.854 233.566 137.768 234.825 138.07C244.897 140.135 255.271 140.588 265.495 139.38C268.365 139.027 271.236 138.574 274.056 137.97C275.365 137.667 274.862 135.754 273.552 136.006Z" fill="#856096"/>
<path d="M274.409 128.351C264.639 130.416 254.566 130.919 244.645 129.811C241.825 129.509 239.005 129.056 236.235 128.452C234.976 128.2 234.422 130.114 235.681 130.416C245.753 132.48 256.128 132.934 266.351 131.725C269.221 131.373 272.092 130.919 274.912 130.315C276.222 130.013 275.718 128.099 274.409 128.351Z" fill="#856096"/>
<path d="M231.904 119.84C230.544 121.602 232.962 124.926 232.458 127.142C226.918 149.804 222.285 151.063 221.127 162.848C220.472 169.445 220.069 176.193 222.285 182.69C223.494 186.165 226.062 189.388 229.638 190.295C231.602 190.798 233.717 190.597 235.681 190.194C238.904 189.539 242.58 187.776 242.933 184.503C243.034 183.546 242.832 182.64 242.681 181.683C241.775 174.934 245.098 169.093 245.854 162.596C246.408 158.013 245.854 153.43 245.854 148.848C245.854 146.581 245.703 143.912 246.408 141.696C246.962 139.883 247.768 138.574 247.969 136.56C248.322 132.329 248.876 128.149 249.581 123.969C250.235 120.092 250.739 116.163 252.25 112.537C252.753 111.329 253.156 110.019 252.804 108.76C252.502 107.652 240.113 112.688 238.854 113.444C236.084 115.156 233.868 117.372 231.904 119.84Z" fill="#D9664A"/>
<path d="M268.214 95.3142C268.365 91.2853 268.416 86.4003 265.797 83.0261C261.969 78.0404 252.552 78.0908 248.372 82.724C247.415 83.7815 246.861 82.17 246.358 83.4794C243.588 90.8321 245.552 100.904 247.868 103.322C249.933 105.487 253.056 106.545 253.056 106.343C252.854 107.653 252.703 109.516 252.753 110.876C252.904 113.545 253.458 116.818 256.279 117.926C260.005 119.387 268.013 119.185 268.718 113.897C268.818 113.243 268.768 112.588 268.718 111.933C268.416 107.703 268.164 103.573 268.164 99.3934C268.164 98.084 268.164 96.7243 268.214 95.3142Z" fill="#F09F92"/>
<path d="M271.139 96.9409C272.653 95.4265 272.653 92.9712 271.139 91.4569C269.625 89.9425 267.169 89.9425 265.655 91.4569C264.141 92.9712 264.141 95.4265 265.655 96.9408C267.169 98.4552 269.625 98.4552 271.139 96.9409Z" fill="#F09F92"/>
<path d="M267.761 92.4435C268.617 92.5442 269.423 93.1485 269.675 94.0047C269.926 94.8104 269.675 95.8177 269.07 96.422" fill="#1A2732"/>
<path d="M249.984 109.717C251.142 110.12 252.451 109.667 253.559 109.113C255.271 108.257 256.883 106.998 257.789 105.286C256.228 106.041 254.516 106.444 252.804 106.444C252.149 106.444 251.494 106.393 250.84 106.343C249.933 106.293 249.027 106.192 248.171 106.142" fill="#1A2732" fill-opacity="0.5"/>
<path d="M298.229 148.596C299.035 153.682 299.438 158.819 299.639 163.956C299.74 165.92 299.69 168.035 300.093 169.949C300.546 172.165 301.553 174.179 302.56 176.194C303.467 178.007 304.272 180.021 303.97 181.985C303.769 183.395 302.963 184.755 301.805 185.661C300.495 186.669 298.833 187.021 297.222 187.424C296.114 187.676 293.848 187.978 293.042 188.935C292.287 189.841 294.1 194.726 293.395 195.029C290.474 196.288 287.301 195.784 284.229 195.532C278.891 195.079 273.502 194.626 268.214 193.518C265.847 193.014 262.725 192.561 260.61 191.251C258.847 190.194 257.789 187.474 257.235 185.561C256.681 183.446 256.53 181.179 256.48 178.963C256.379 171.006 257.235 162.596 258.746 154.79C259.703 150.056 261.164 145.373 261.466 140.538C261.617 138.574 261.516 136.61 262.02 134.696C262.574 132.581 263.682 130.718 264.638 128.804C266.25 125.581 267.207 122.106 267.711 118.581C267.962 116.768 268.113 115.005 268.214 113.192C268.264 111.581 268.063 109.868 268.264 108.257C268.264 108.156 268.264 108.106 268.315 108.005C271.286 109.214 274.408 109.919 277.581 110.12C279.243 110.221 281.106 111.329 282.668 112.034C284.481 112.84 286.193 113.948 287.704 115.257C290.725 117.825 293.143 121.25 294.502 124.977C295.862 128.703 296.315 132.833 296.366 136.811C296.567 140.79 297.574 144.567 298.229 148.596Z" fill="#D9664A"/>
<path d="M309.409 165.013C309.913 163.603 310.064 162.143 309.359 161.085C307.798 158.668 303.618 158.618 301.251 159.323C298.531 160.128 296.164 161.891 293.848 163.603C291.481 165.416 289.164 168.035 286.294 169.042C285.639 169.294 284.984 169.395 284.279 169.546C283.222 169.747 282.164 169.949 281.106 170.15C280.905 170.201 280.653 170.251 280.553 170.402C280.452 170.503 280.553 170.906 280.452 170.805C279.747 170.049 280.2 175.891 282.869 178.661C283.826 179.668 286.495 183.143 286.697 183.143C286.848 183.143 286.999 183.043 287.099 182.992C289.869 181.078 291.984 178.359 294.805 176.395C297.877 174.33 301.251 172.819 304.373 170.754C305.582 169.949 306.791 169.143 307.697 168.035C308.402 167.28 309.006 166.172 309.409 165.013Z" fill="#F09F92"/>
<path d="M269.675 81.616C268.869 78.1914 263.43 77.7382 260.61 77.8389C259.25 73.3568 255.574 67.6157 250.386 67.3135C248.976 67.2128 247.214 67.9682 247.214 69.3783C247.214 70.6373 248.624 71.5438 248.724 72.8028C246.962 71.2416 244.796 70.1841 242.48 69.8315C240.868 69.5797 238.854 69.8819 238.149 71.3424C237.645 72.5007 238.199 73.9108 239.055 74.8173C239.156 74.918 239.257 75.0187 239.408 75.1698C237.998 75.0691 236.487 75.1194 235.177 75.623C233.667 76.2274 232.357 77.6375 232.508 79.4001C232.659 81.3138 234.573 82.2203 236.185 82.7743C236.588 82.9254 237.041 83.0261 237.494 83.1268C237.242 83.429 236.99 83.7311 236.739 84.0837C235.832 85.4434 235.58 87.2564 236.94 88.4147C237.998 89.3715 240.415 89.9255 241.724 89.2708C242.832 88.7169 243.286 87.6593 244.091 86.7528C244.393 88.5154 245.099 90.2277 246.811 90.9831C249.278 92.091 251.797 90.3788 252.753 88.1125C253.056 87.4578 253.257 86.7528 253.408 86.0477C253.761 86.2995 254.163 86.5513 254.566 86.7528C255.674 87.3068 257.034 87.8104 258.192 87.1053C259.2 86.501 259.602 85.242 259.502 84.134C261.415 85.7456 264.286 87.0046 266.703 86.2492C268.617 85.5945 270.128 83.58 269.675 81.616Z" fill="#F2F2F2"/>
<path d="M333.129 151.467C334.237 147.387 334.187 142.553 331.216 139.632C329 137.466 325.625 136.761 323.51 134.445C321.244 131.927 321.093 128.099 318.978 125.48C315.402 121.049 308.402 121.955 303.316 119.336C301.503 118.38 299.941 117.02 298.229 115.912C297.222 115.257 296.164 114.703 295.056 114.2C288.963 111.43 281.409 110.473 275.063 110.12C273.552 110.02 271.941 109.969 270.732 110.825C269.624 111.581 269.07 112.89 268.667 114.2C268.315 115.307 268.013 116.516 268.214 117.674C268.416 118.833 269.221 119.941 270.38 120.192C275.718 121.2 275.315 125.178 278.991 128.2C282.668 131.272 287.603 131.07 291.028 135.049C293.294 137.617 292.589 140.639 293.092 144.114C293.445 146.43 297.575 148.596 299.539 149.805C300.647 150.459 303.013 151.315 303.719 150.359C303.316 152.222 299.488 151.769 295.409 157.762C293.797 160.129 294.553 163.755 296.668 165.568C298.33 166.978 300.747 167.632 301.754 169.546C302.107 170.251 302.258 171.057 302.611 171.712C303.517 173.374 305.582 174.028 307.445 174.179C311.071 174.431 313.891 173.273 317.014 171.661C321.395 169.395 323.712 165.568 326.985 162.143C329.957 158.87 331.921 155.798 333.129 151.467Z" fill="#D9664A"/>
<path d="M247.617 97.1775C248.322 99.2926 249.178 100.401 250.84 100.602C253.056 100.854 254.264 99.3934 254.919 97.7818" fill="white"/>
<path d="M281.358 131.775C281.61 136.711 283.373 141.999 287.653 144.466C290.323 146.027 293.697 146.279 296.315 147.589C298.33 148.596 300.747 151.517 303.467 150.56C302.762 151.668 301.352 152.222 300.244 152.927C298.934 153.733 297.927 154.891 296.92 155.999C295.107 158.114 293.243 159.826 294.553 162.848C295.258 164.459 296.618 165.718 298.128 166.675C298.985 167.229 299.841 167.683 300.646 168.287C301.603 169.042 302.359 170.1 302.812 171.258" stroke="#1A2732" stroke-miterlimit="10"/>
<path fill-rule="evenodd" clip-rule="evenodd" d="M256.763 219H255.725C255.705 218.93 255.685 218.861 255.665 218.791C255.502 218.215 255.331 217.636 255.159 217.053L255.159 217.053L255.159 217.053C254.801 215.839 254.439 214.612 254.132 213.38C253.013 208.904 252.504 204.225 252.657 199.595L253.656 199.628C253.506 204.164 254.005 208.751 255.102 213.138C255.405 214.349 255.756 215.541 256.111 216.743L256.111 216.743C256.284 217.331 256.458 217.922 256.627 218.517C256.673 218.678 256.718 218.839 256.763 219Z" fill="#1A2732"/>
<path d="M280.301 168.74C279.797 172.215 280.754 175.891 282.97 178.611C284.481 180.474 286.545 182.036 287.402 184.251" stroke="#1A2732" stroke-miterlimit="10"/>
<path d="M223.04 174.935C227.019 172.769 229.285 168.237 229.889 163.704C229.99 163.1 230.141 162.344 230.746 162.143" stroke="#1A2732" stroke-miterlimit="10"/>
<path d="M255.221 91.1844C255.775 90.2779 256.782 89.6736 257.84 89.6736C258.897 89.6736 259.955 90.2779 260.459 91.1844" stroke="#1A2732" stroke-miterlimit="10"/>
<path d="M245.3 91.1844C245.854 90.2779 246.861 89.6736 247.919 89.6736C248.976 89.6736 250.034 90.2779 250.537 91.1844" stroke="#1A2732" stroke-miterlimit="10"/>
<path d="M230.444 134.445C231.4 132.783 230.897 130.617 231.602 128.804C231.904 128.049 232.357 127.444 232.76 126.739C233.415 125.531 233.667 124.221 233.767 122.862" stroke="#1A2732" stroke-miterlimit="10"/>
<path d="M243.839 137.718C244.618 137.718 245.25 137.087 245.25 136.308C245.25 135.529 244.618 134.898 243.839 134.898C243.061 134.898 242.429 135.529 242.429 136.308C242.429 137.087 243.061 137.718 243.839 137.718Z" fill="#1A2732"/>
<path d="M242.933 145.171C242.933 145.927 242.329 146.582 241.523 146.582C240.767 146.582 240.113 145.977 240.113 145.171C240.113 144.416 240.717 143.761 241.523 143.761C242.329 143.812 242.933 144.416 242.933 145.171Z" fill="#1A2732"/>
<path d="M240.566 156.049C241.345 156.049 241.976 155.418 241.976 154.639C241.976 153.86 241.345 153.229 240.566 153.229C239.787 153.229 239.156 153.86 239.156 154.639C239.156 155.418 239.787 156.049 240.566 156.049Z" fill="#1A2732"/>
<path d="M239.66 165.87C240.438 165.87 241.07 165.238 241.07 164.46C241.07 163.681 240.438 163.05 239.66 163.05C238.881 163.05 238.249 163.681 238.249 164.46C238.249 165.238 238.881 165.87 239.66 165.87Z" fill="#1A2732"/>
<path d="M164.219 124.372C164.219 124.272 164.219 124.171 164.219 124.07C164.169 122.106 164.068 120.142 163.413 118.329C163.262 117.876 162.809 117.523 162.305 117.473C162.003 117.423 161.751 117.473 161.55 117.725C161.248 118.128 161.55 118.933 161.6 119.387C161.751 120.847 162.104 122.257 162.003 123.718C161.953 124.574 162.406 127.042 163.816 125.682C164.169 125.38 164.219 124.876 164.219 124.372Z" fill="#F09F92"/>
<path d="M167.694 122.509C167.644 121.149 167.392 119.789 167.039 118.48C166.938 118.027 166.233 117.725 165.679 117.876C165.075 118.027 164.773 118.48 164.924 118.984C165.528 121.351 165.73 123.718 165.176 126.085C165.075 126.538 165.327 127.041 165.931 127.192C166.485 127.293 167.19 127.041 167.291 126.588C167.593 125.228 167.744 123.869 167.694 122.509Z" fill="#F09F92"/>
<path d="M170.111 118.732C170.01 118.279 169.305 117.976 168.751 118.128C168.147 118.279 167.895 118.732 167.996 119.236C168.399 121.25 168.651 123.315 168.701 125.329C168.701 125.782 169.205 126.236 169.809 126.236C170.413 126.236 170.917 125.833 170.917 125.329C170.816 123.113 170.564 120.897 170.111 118.732Z" fill="#F09F92"/>
<path d="M172.881 119.135C172.73 118.681 172.126 118.379 171.521 118.53C170.967 118.681 170.564 119.135 170.766 119.638C171.421 121.401 171.723 123.063 171.773 124.876C171.773 125.329 172.277 125.782 172.881 125.782C173.485 125.782 173.989 125.379 173.989 124.876C173.939 122.912 173.586 120.948 172.881 119.135Z" fill="#F09F92"/>
<path d="M61.3822 133.337C62.2887 133.891 63.2455 134.344 64.2528 134.696C68.1305 136.006 73.1163 135.099 75.1811 131.524C76.6415 128.955 76.3394 125.682 75.0803 123.013C73.8213 120.343 71.7062 118.178 69.6414 116.063C64.8067 111.127 59.8714 106.192 56.0943 100.401C49.497 90.2277 49.3963 77.8893 49.6985 66.1552C49.7488 63.7379 50.1517 61.3709 50.3028 59.004C50.3532 58.6011 50.3028 58.1982 50.5546 57.8456C50.7057 57.5938 51.0079 57.4428 51.31 57.2413C53.2237 56.0327 53.8281 54.4715 54.8856 52.5578C55.8929 50.7448 57.0008 49.3347 57.3533 47.1692C57.6051 45.759 55.3893 45.5072 55.1375 46.9173C54.9864 47.7231 53.677 52.6081 52.2669 51.0973C51.4611 50.2412 53.0223 47.7735 53.3748 46.9677C54.1806 45.1044 54.8857 43.1403 55.49 41.1762C55.6411 40.6222 55.49 39.9676 54.8856 39.7157C54.382 39.5143 53.6266 39.7661 53.4252 40.3201C52.9719 41.7805 52.4683 43.241 51.9144 44.6511C51.8136 44.5 51.7129 44.3993 51.6122 44.2986C51.5115 44.1979 51.3604 44.0971 51.2093 43.9964C51.9144 41.982 52.6698 39.9676 53.5259 38.0538C53.5763 38.0035 53.6266 37.9028 53.677 37.802C53.7273 37.7013 53.7274 37.651 53.7777 37.5502C53.9792 36.9963 53.7777 36.3416 53.1734 36.0898C52.6194 35.838 51.9647 36.1401 51.7129 36.6941C50.7561 38.8596 49.8999 41.0251 49.1445 43.241C48.792 43.1403 48.3891 43.0899 47.9862 43.0396C48.1373 42.687 48.238 42.2842 48.3891 41.9316C48.8423 40.6222 49.3963 39.2625 49.8999 38.0035C50.4539 36.6941 48.3891 35.838 47.8351 37.1473C47.2308 38.6582 46.6265 40.169 46.0725 41.7302C45.9214 42.1331 45.7703 42.5863 45.6193 42.9892C45.2667 43.0396 44.8638 43.0899 44.5113 43.1906C44.9142 41.9316 45.4178 40.6726 45.9718 39.4136C46.5761 38.1042 44.5113 37.2481 43.907 38.5574C42.799 40.9748 41.9429 43.4928 41.4393 46.1116C40.6839 48.2267 40.7343 50.8455 40.3314 53.011C39.8278 55.9823 39.2738 58.9536 38.6695 61.8745C37.209 69.1768 35.7989 76.5799 35.7485 84.0333C35.7485 93.2997 35.4464 100.803 40.6335 108.811C44.8135 115.307 49.497 121.451 54.6338 127.193C56.6483 129.509 58.8138 131.775 61.3822 133.337Z" fill="#F09F92"/>
<path d="M51.4611 130.416C54.6842 135.603 58.7131 140.286 62.7923 144.819C64.9074 147.135 67.224 149.15 69.7421 151.013C71.7062 152.474 73.7206 153.833 75.735 155.243C76.6415 153.028 77.1955 150.711 77.5984 148.445C79.361 138.574 81.0229 126.89 79.8142 116.868C79.8142 116.919 75.5336 115.811 75.181 115.71C73.1163 115.106 71.1522 114.401 69.4903 113.041C67.8284 111.732 66.519 109.969 64.5549 109.012C63.447 110.221 62.2887 111.379 61.08 112.487C59.3174 114.149 57.454 115.761 55.7418 117.523C53.9288 119.387 52.1661 121.3 50.3028 123.164C49.6985 123.768 49.0941 124.322 48.4898 124.926C49.3963 126.84 50.3532 128.653 51.4611 130.416Z" fill="#856096"/>
<path d="M88.6855 110.723L88.6849 110.724C88.1721 111.099 87.5773 111.175 86.8805 111.073C86.2226 110.977 85.5331 110.732 84.8026 110.471C84.7403 110.449 84.6776 110.427 84.6147 110.404L84.6147 110.404L84.6073 110.402C80.7303 109.093 77.5588 105.883 75.9962 102.074L75.9962 102.074L75.9941 102.069C74.3851 98.2662 74.3778 93.8552 75.5597 89.8662L75.5599 89.8655C76.6908 86.0302 79.0898 82.4806 82.5704 80.5952C86.0515 78.7096 90.6551 78.8322 93.5904 81.3414L93.5907 81.3416C95.538 83.004 96.6113 85.5012 97.2049 88.0727C99.0741 96.3891 95.5742 105.704 88.6855 110.723Z" fill="#F2C94C" stroke="#F2C94C"/>
<path d="M111.693 174.683C111.995 170.956 112.851 167.33 113.506 163.654C112.851 162.949 112.096 162.445 111.239 162.244C99.0521 159.675 87.1166 153.884 75.735 158.97C72.663 160.33 68.6342 148.243 66.2672 150.661C63.5981 153.43 64.4542 152.625 64.001 156.049C63.3463 161.337 64.8571 181.683 64.8571 181.733C64.9075 183.899 63.3463 183.446 64.2528 185.41C66.1665 189.59 70.9508 191.604 75.4832 192.41C82.6345 193.669 89.9872 192.712 97.1384 191.352C102.174 190.395 107.11 194.676 110.887 191.201C111.642 190.496 112.347 189.539 112.952 188.482C112.045 183.949 111.29 179.316 111.693 174.683Z" fill="#F09F92"/>
<path fill-rule="evenodd" clip-rule="evenodd" d="M116.304 219H39.4232C38.9461 218.879 38.6543 218.791 38.6191 218.748C38.3775 218.507 41.5182 213.227 43.5674 209.783C44.5084 208.201 45.2192 207.006 45.2667 206.863C45.8365 205.308 46.7589 203.895 47.6774 202.488C48.8699 200.662 50.0556 198.846 50.4539 196.741C50.5637 196.192 50.6065 195.633 50.649 195.078C50.704 194.359 50.7587 193.645 50.9575 192.964C51.6505 190.405 53.839 188.791 56.0519 187.16C58.02 185.708 60.0074 184.243 60.9793 182.086C62.3137 179.187 66.5492 179.357 69.7288 179.485C70.0292 179.497 70.3201 179.509 70.5982 179.517C72.1017 179.577 73.6052 179.651 75.11 179.725C78.6458 179.898 82.1889 180.071 85.7569 180.071C91.0181 180.071 96.2976 180.235 101.573 180.398C105.085 180.507 108.594 180.615 112.096 180.676C113.177 180.676 115.178 204.417 116.304 219Z" fill="#3B2078"/>
<path d="M64.2024 164.611C66.3175 166.424 67.4255 168.891 69.037 171.107C70.9004 173.625 73.7709 174.633 76.843 174.532C78.4545 174.481 80.0157 174.179 81.6272 173.927C83.2388 173.625 84.9007 173.525 86.5626 173.575C89.6346 173.625 92.7066 174.079 95.7283 174.431C100.915 174.985 106.254 174.633 111.441 174.028C113.153 173.827 118.491 174.683 120.204 174.381C120.153 173.575 120.153 172.719 120.153 171.913C119.801 161.085 115.822 149.15 113.757 138.574C112.901 134.293 111.793 130.013 109.578 126.336C100.714 111.48 79.1092 111.933 69.3392 125.329C65.7636 130.214 63.9002 136.258 62.2887 142.2C60.526 148.596 58.9145 154.992 57.5044 161.488C59.8714 161.891 62.2383 162.898 64.2024 164.611Z" fill="#856096"/>
<path d="M82.6848 104.681C82.6848 103.372 82.6848 102.062 82.6345 100.703C82.4834 96.422 82.5338 92.0406 84.6489 88.2635C86.8144 84.3858 90.6922 83.4289 95.0736 84.0836C98.8003 84.6879 100.261 85.9469 101.469 89.2204C102.98 93.4003 103.736 97.1774 103.736 101.66C103.736 103.825 103.635 106.041 102.678 108.005C101.721 109.969 99.7572 111.53 97.5917 111.379C97.6924 115.106 98.2463 121.048 94.2175 122.61C90.5915 124.02 82.8359 123.818 82.1309 118.732C82.0302 118.128 82.0805 117.473 82.1309 116.868C82.3827 112.789 82.6345 108.76 82.6848 104.681Z" fill="#F09F92"/>
<path d="M90.3619 89.8309L90.3619 89.8308L90.3572 89.8286C89.519 89.4202 89.0327 88.7548 88.6707 87.92C88.4878 87.4981 88.3404 87.0415 88.195 86.5578C88.1599 86.4409 88.1247 86.3217 88.0891 86.2012C87.9801 85.832 87.8672 85.4498 87.7408 85.0801L87.3945 84.068L86.8401 84.9828C86.3116 85.8549 86.2867 86.8999 86.2657 87.7846C86.2633 87.8846 86.261 87.9825 86.258 88.078C86.2263 89.0851 86.1317 89.8812 85.5484 90.4845L85.5422 90.4909L85.5363 90.4976C85.386 90.6645 85.2058 90.8015 84.982 90.9715C84.9271 91.0132 84.8695 91.057 84.809 91.1037C84.5271 91.3215 84.1953 91.5971 83.9668 91.9875C83.7568 92.3389 83.6979 92.7088 83.6835 93.0388C83.6764 93.2036 83.6801 93.3675 83.6849 93.5185C83.6859 93.5499 83.6869 93.5806 83.6879 93.6107C83.6919 93.7307 83.6957 93.8419 83.6957 93.9544C83.6957 94.079 83.6966 94.2065 83.6976 94.3361C83.7015 94.8597 83.7057 95.4176 83.6481 95.9601C83.5757 96.6418 83.4131 97.1984 83.1082 97.5605L83.1065 97.5625C82.8502 97.87 82.3779 98.0676 81.7879 98.101C81.2047 98.134 80.5979 97.9991 80.1631 97.7506L80.1631 97.7506L80.1578 97.7476C79.646 97.4633 79.339 96.948 79.1811 96.2599C79.0223 95.5682 79.0299 94.7611 79.1033 94.0026L79.1035 94.0007C79.3044 91.8404 79.6507 89.7526 80.8678 88.1119C81.3455 87.4915 81.925 86.9106 82.5191 86.366L82.5191 86.366L82.5256 86.3599C83.0266 85.884 83.5405 85.4076 84.0571 84.9288L84.0583 84.9278C84.5716 84.452 85.0877 83.9737 85.5916 83.495C86.0459 83.0912 86.46 82.7257 86.9107 82.4536C90.2733 80.6477 93.6901 79.2336 97.4113 80.2355L97.4128 80.2359C101.196 81.2415 104.226 84.6536 104.802 88.5361C104.831 88.7462 104.858 88.969 104.886 89.1993C104.972 89.9123 105.068 90.6974 105.262 91.3997C105.523 92.343 105.991 93.2615 106.961 93.7835C107.205 93.9332 107.457 94.0221 107.657 94.0927L107.674 94.0986C107.895 94.1766 108.057 94.2359 108.205 94.3281C108.334 94.4086 108.442 94.529 108.498 94.6447C108.553 94.7586 108.537 94.8161 108.526 94.8387C108.47 94.9512 108.383 95.0397 108.293 95.0996L108.278 95.1099L108.263 95.1213C106.894 96.1882 105.204 96.577 103.369 96.5831C101.53 96.5892 99.5881 96.2108 97.7554 95.784L97.7544 95.7838C97.0757 95.6272 96.555 95.4963 96.1635 95.144L96.1635 95.1439L96.1583 95.1393C95.6847 94.725 95.4891 94.079 95.2452 93.2417L95.2368 93.2128C95.0143 92.4489 94.7397 91.5059 93.9759 90.8949L93.9733 90.8929C93.3771 90.4221 92.645 90.2984 92.0275 90.2111C91.9586 90.2013 91.8911 90.192 91.8247 90.1828C91.2534 90.104 90.7765 90.0382 90.3619 89.8309Z" fill="#F2C94C" stroke="#F2C94C"/>
<path d="M86.3065 104.522C87.5527 102.85 87.2068 100.483 85.5341 99.2371C83.8613 97.9909 81.495 98.3367 80.2488 100.01C79.0026 101.682 79.3485 104.049 81.0212 105.295C82.694 106.541 85.0603 106.195 86.3065 104.522Z" fill="#F09F92"/>
<path d="M82.8863 100.501C82.2316 101.055 81.9294 101.962 82.1309 102.768C82.3323 103.573 83.0877 104.228 83.8935 104.379" fill="#1A2732"/>
<path d="M76.787 72.7992L76.787 72.7992L76.7916 72.8038C77.9915 74.0037 78.8676 75.5527 79.6743 77.0651C80.6239 78.883 81.2356 81.8147 81.4541 84.1476C81.4203 84.1236 81.3866 84.1005 81.3534 84.0789C81.2889 84.037 81.2156 83.9939 81.1391 83.9598C81.0738 83.9306 80.966 83.8894 80.8382 83.886C80.2258 83.8568 79.8749 84.0036 79.5674 84.1611C79.5425 84.1739 79.5184 84.1864 79.4948 84.1986C79.268 84.3162 79.0931 84.4069 78.7547 84.4425L78.7455 84.4435L78.7363 84.4448C78.2181 84.5188 77.7027 84.3017 77.0206 84.0145C76.9948 84.0036 76.9687 83.9926 76.9424 83.9815C76.2907 83.7075 75.4521 83.3655 74.5697 83.6596C74.1486 83.8 73.8363 84.0746 73.5984 84.3645C73.3637 84.6506 73.1802 84.9786 73.0298 85.2543L73.0256 85.2621L73.0216 85.2701C72.6409 86.0315 72.2364 86.8109 71.7378 87.408C71.2436 88 70.7104 88.349 70.0795 88.3681L70.0795 88.368L70.0683 88.3686C69.7 88.388 69.3227 88.2725 68.8445 88.1109C68.8208 88.1029 68.7968 88.0948 68.7725 88.0865C68.3417 87.9404 67.8205 87.7636 67.2744 87.7636C66.5691 87.7636 65.8852 88.0487 65.312 88.2877C65.3005 88.2926 65.289 88.2974 65.2775 88.3021C63.6891 88.8963 62.0089 89.1053 60.874 88.2647L60.874 88.2646L60.868 88.2603C60.0512 87.6739 59.6842 86.7475 59.602 85.6149C59.5195 84.4774 59.7317 83.2028 60.0055 82.0328C60.7114 79.0579 61.4093 76.1707 62.5022 73.3885L62.5024 73.3886L62.5068 73.3765C62.9062 72.2781 63.331 71.3054 64.0607 70.5291C65.3193 69.2274 67.346 68.8295 69.265 69.1173L69.2672 69.1176C71.9431 69.5069 74.9599 70.924 76.787 72.7992ZM69.3392 68.6228L69.3392 68.6229L69.3392 68.6228Z" fill="#F2C94C" stroke="#F2C94C"/>
<path d="M94.9225 104.278C95.3757 105.89 97.1887 106.947 98.8003 106.545C100.412 106.142 101.469 104.278 101.067 102.667" fill="white"/>
<path d="M100.311 114.703C99.2032 115.106 97.9442 114.653 96.8362 114.149C95.1743 113.293 93.6131 112.084 92.757 110.422C94.2678 111.178 95.9297 111.53 97.5916 111.581C98.196 111.581 98.8507 111.53 99.455 111.48C100.311 111.43 101.218 111.329 102.074 111.279" fill="#1A2732" fill-opacity="0.5"/>
<path d="M93.5124 97.0767C92.8577 96.5228 91.9512 96.3213 91.1455 96.5731C90.3397 96.8249 89.6346 97.4796 89.2821 98.2854" stroke="#1A2732" stroke-miterlimit="10"/>
<path d="M86.5535 112.413C88.4907 110.417 88.4431 107.229 86.4472 105.291C84.4513 103.354 81.2629 103.402 79.3257 105.398C77.3885 107.394 77.4361 110.582 79.432 112.519C81.4279 114.456 84.6163 114.409 86.5535 112.413Z" stroke="#F2F2F2" stroke-miterlimit="10"/>
<path d="M61.7347 143.409C61.5836 143.459 61.634 143.66 61.7347 143.761C62.4397 144.768 63.447 145.524 64.3031 146.33C66.2672 148.143 67.8284 150.459 68.7852 152.977" stroke="#1A2732" stroke-miterlimit="10"/>
<path d="M38.2162 97.2278C37.8133 97.7818 37.763 98.5372 38.1155 99.1415C38.468 99.7458 39.1731 100.098 39.8277 99.9976" fill="#1A2732"/>
<path d="M43.4034 46.3633C43.3026 46.8165 43.1515 47.2698 42.9501 47.723" stroke="#1A2732" stroke-miterlimit="10"/>
<path d="M45.871 46.9677C45.7703 47.2698 45.6192 47.5216 45.5185 47.8238" stroke="#1A2732" stroke-miterlimit="10"/>
<path d="M48.4395 47.3202C48.2884 47.7734 48.0869 48.2267 47.9359 48.6799" stroke="#1A2732" stroke-miterlimit="10"/>
<path d="M50.756 48.2771C50.5042 48.6296 50.3028 48.9822 50.051 49.3347" stroke="#1A2732" stroke-miterlimit="10"/>
<path d="M81.3754 83.0764C80.8215 83.8822 79.8143 84.2347 78.8574 84.4362C77.9005 84.5872 76.8933 84.6376 75.9868 84.9398C74.0731 85.5945 73.5695 86.9038 73.2674 88.6161C73.0156 90.0766 72.5623 91.8392 70.699 91.9903C69.3392 92.1414 67.9795 91.0334 66.7204 91.537C66.1665 91.7888 65.814 92.2924 65.3103 92.645C64.5046 93.1486 63.3966 93.0982 62.4901 92.645C61.634 92.1917 60.9289 91.4867 60.3246 90.6809" stroke="#F2C94C" stroke-miterlimit="10"/>
<path d="M87.4188 82.7743C87.1166 84.9902 87.1166 87.206 87.3684 89.3716C87.4691 90.3284 87.6202 91.4364 86.9151 92.091C86.6633 92.3429 86.3108 92.4939 86.0086 92.7457C85.0014 93.7026 85.6561 95.4149 85.3036 96.7746C85.1022 97.5804 84.4475 98.2854 83.6417 98.5372C82.8359 98.789 81.9294 98.638 81.2244 98.1343" stroke="#F2C94C" stroke-miterlimit="10"/>
<path d="M84.2963 137.416C82.6344 139.43 82.1812 142.401 83.1884 144.819C84.1956 147.236 86.6129 148.999 89.2317 149.251" fill="#FFCA1C"/>
<path d="M108.369 132.229C106.556 132.43 104.743 133.135 103.484 134.445C102.225 135.754 101.57 137.718 102.124 139.481" fill="#FFCA1C"/>
<path d="M101.318 148.697C100.261 150.51 100.412 152.877 101.52 154.639C102.628 156.402 104.642 157.51 106.707 157.812" fill="#FFCA1C"/>
<path d="M83.0374 166.877C84.1453 165.265 86.1094 164.359 88.0734 164.308C90.0375 164.258 91.9512 164.913 93.6635 165.87C94.3182 166.222 94.9729 166.726 95.0232 167.431" fill="#FFCA1C"/>
<path d="M64.706 153.632C64.5045 155.143 65.3607 156.603 66.1665 157.913C67.0729 159.272 68.0802 160.783 69.6413 161.287C71.3033 161.841 73.0659 161.186 74.6271 160.431" fill="#FFCA1C"/>
<path d="M64.1017 135.754C66.2168 134.847 68.886 134.747 70.6486 136.258C72.1594 137.567 72.5623 139.682 72.9148 141.646C73.0659 142.603 73.2674 143.56 73.4184 144.517" fill="#FFCA1C"/>
<path d="M66.8715 121.603C66.8211 123.264 67.5766 124.977 68.8859 126.034C69.6414 126.689 70.5982 127.092 71.5551 127.344C73.3177 127.898 75.3825 127.998 76.9437 127.042" fill="#FFCA1C"/>
<path d="M87.6202 129.408C88.9296 131.423 91.1958 133.135 93.6131 132.833C95.6779 132.632 97.2895 131.07 98.7499 129.66" fill="#FFCA1C"/>
<path d="M114.362 121.2C113.556 121.351 113.254 122.358 113.203 123.214C113.052 124.725 112.952 126.286 113.405 127.746C113.858 129.308 114.966 130.667 116.427 131.473" fill="#FFCA1C"/>
<path d="M57.303 122.408C58.3605 121.955 59.6699 122.861 59.9721 124.02C60.2742 125.178 59.821 126.336 59.267 127.394C58.6123 128.653 57.7562 129.811 56.7993 130.818" fill="#FFCA1C"/>
<path d="M62.2887 176.395C62.2383 176.445 62.2383 176.445 62.188 176.496C61.8354 176.848 61.6844 177.352 61.6844 177.855C61.6844 178.208 61.8858 178.611 61.8858 178.963C61.1807 178.963 60.5764 178.863 60.0728 179.517C59.6699 180.122 59.6699 180.927 59.9217 181.633C59.4685 181.179 58.562 181.532 58.3102 182.136C58.0584 182.74 58.2598 183.446 58.4109 184.05C57.9073 183.899 57.303 183.748 56.8497 184.05C56.4972 184.251 56.3461 184.705 56.3461 185.107C56.3461 185.51 56.4972 185.913 56.6483 186.266C57.1015 187.424 57.6051 188.582 58.1591 189.64C58.6627 190.597 59.2167 191.604 60.0728 192.259C60.4757 192.611 60.8786 192.913 61.2815 192.561C61.6844 192.208 61.7851 191.654 61.634 191.151C61.4829 190.697 61.3318 190.194 61.1304 189.791C61.0297 189.539 60.6268 189.086 60.7779 188.784C61.08 188.179 61.7347 189.237 61.9865 189.539C62.339 189.992 62.8426 190.345 63.3966 190.395C63.9506 190.446 64.6053 190.093 64.706 189.539C64.8571 188.834 64.2528 188.23 63.9002 187.625C63.5981 187.122 63.447 186.518 63.2455 185.964C63.7995 186.215 64.1017 186.87 64.5549 187.273C64.8571 187.525 65.3103 187.676 65.7132 187.625C66.1161 187.575 66.519 187.273 66.6197 186.87C66.7204 186.518 66.6701 186.165 66.519 185.812C66.2672 185.057 65.8643 184.503 65.3607 183.899C65.0082 183.496 64.5549 182.791 64.4542 182.287C64.8067 182.237 65.1592 182.64 65.3607 182.892C65.5621 183.143 65.7636 183.395 66.0657 183.597C66.3679 183.748 66.7204 183.848 67.0226 183.647C67.6269 183.194 67.3248 182.187 67.0226 181.683C66.4686 180.726 65.7636 180.071 65.0082 179.316C64.3031 178.611 64.0009 177.553 63.3463 176.748C63.1448 176.496 62.8426 176.244 62.5405 176.294C62.5405 176.244 62.3894 176.294 62.2887 176.395Z" fill="#F09F92"/>
<path d="M61.2311 189.237C60.9289 188.834 60.6268 188.431 60.375 188.028C60.2239 187.827 60.1232 187.575 60.0224 187.374C59.6196 186.618 59.2167 185.913 58.8138 185.158" stroke="#1A2732" stroke-miterlimit="10"/>
<path d="M66.4183 184.352C65.5118 183.294 63.4974 180.273 62.4398 179.417C62.3391 179.366 62.2384 179.266 62.1376 179.316" stroke="#1A2732" stroke-miterlimit="10"/>
<path d="M64.5549 187.726C63.5981 186.417 61.3822 183.496 60.375 182.237C60.2743 182.136 60.1735 182.036 60.0225 182.036" stroke="#1A2732" stroke-miterlimit="10"/>
</svg>
