<svg width="220" height="177" viewBox="0 0 220 177" fill="none" xmlns="http://www.w3.org/2000/svg">
<path d="M158.627 17.2271C158.802 16.7139 158.965 16.2124 159.14 15.6992C159.257 15.3493 158.709 15.2093 158.592 15.5475C158.417 16.0607 158.254 16.5623 158.079 17.0755C157.962 17.4137 158.51 17.5653 158.627 17.2271Z" fill="#F2C94C"/>
<path d="M204.4 167.863C200.002 170.138 194.742 171.829 188.7 172.622C181.644 173.543 173.514 173.228 164.475 171.164C161.174 170.406 158.107 169.764 155.226 169.228C153.966 168.995 152.753 168.785 151.563 168.586C149.557 168.26 147.633 167.98 145.801 167.77C130.452 165.939 120.363 167.816 105.958 171.992C87.5764 177.322 76.0177 177.824 67.3399 176.144C65.3804 175.759 63.5609 175.27 61.8463 174.71C51.2441 171.176 44.5141 164.574 30.856 162.171C27.2636 161.541 23.1929 161.192 18.4458 161.273C18.1659 161.273 17.886 161.285 17.5944 161.297C-2.75871 161.845 -8.55555 141.34 17.6294 134.027C21.4434 132.965 25.654 132.406 32.069 132.102C34.1568 131.997 36.4779 131.927 39.0905 131.869C39.802 131.857 40.5368 131.834 41.2833 131.822C41.3533 131.822 41.4116 131.822 41.4816 131.822C41.5516 131.822 41.6099 131.822 41.6799 131.822C42.1697 131.811 42.6713 131.811 43.1845 131.799C45.3306 131.764 47.64 131.741 50.1593 131.717C50.6842 131.717 51.2207 131.706 51.7689 131.706C51.8272 131.706 51.8972 131.706 51.9555 131.706C52.0255 131.706 52.0838 131.706 52.1538 131.706C56.7726 131.671 62.0096 131.647 68.0397 131.601C68.0981 131.601 68.1564 131.601 68.203 131.601H68.238C68.2847 131.601 68.3313 131.601 68.378 131.601C68.7979 131.601 69.2294 131.589 69.6493 131.589C69.8709 131.589 70.1042 131.589 70.3375 131.589C70.9673 131.589 71.6088 131.577 72.262 131.577C72.6702 131.577 73.0901 131.566 73.51 131.566C73.8016 131.566 74.0932 131.566 74.3964 131.554C74.5131 131.554 74.6297 131.554 74.758 131.554C74.8163 131.554 74.8746 131.554 74.933 131.554C78.0005 131.531 81.2547 131.508 84.6954 131.473C86.1184 131.461 87.588 131.438 89.081 131.426C89.2326 131.426 89.3959 131.426 89.5475 131.426C89.8508 131.426 90.154 131.414 90.4573 131.414C90.6672 131.414 90.8772 131.403 91.0871 131.403C91.3437 131.403 91.612 131.391 91.8803 131.391C91.9503 131.391 92.0086 131.391 92.0785 131.391C92.1485 131.391 92.2068 131.391 92.2768 131.391C92.5218 131.391 92.7667 131.379 93.0233 131.379C93.0816 131.379 93.1283 131.379 93.1866 131.379C93.2449 131.379 93.2916 131.379 93.3499 131.379C95.0994 131.356 96.884 131.333 98.7152 131.309C120.118 131.029 136.68 130.983 149.802 131.018C153.441 131.029 156.812 131.041 159.949 131.064C164.148 131.088 167.939 131.111 171.38 131.134C173.001 131.146 174.552 131.158 176.034 131.169C176.244 131.169 176.465 131.169 176.675 131.169C180.804 131.193 184.396 131.193 187.616 131.158C188.969 131.146 190.252 131.123 191.476 131.099C191.675 131.099 191.885 131.088 192.083 131.088C192.409 131.076 192.724 131.076 193.039 131.064C226.712 130.05 226.654 156.374 204.4 167.863Z" fill="#4F4F4F"/>
<path d="M168.061 110.093C164.235 103.76 161.366 98.4062 161.366 98.4062L161.249 74.4023C161.249 74.4023 172.889 78.9395 177.741 85.4128C178.721 86.7192 192.321 109.043 186.396 130.715L168.061 110.093Z" fill="white"/>
<path d="M187.476 121.792C187.464 121.792 187.453 121.792 187.453 121.792C187.278 121.78 187.15 121.617 187.161 121.442C187.628 115.878 186.788 108.927 184.817 101.905C182.951 95.2686 180.28 89.3318 177.492 85.6111C173.083 79.7443 164.849 76.5717 162.947 75.8953L161.699 98.3361C162.073 99.0243 164.814 104.086 168.348 109.93C168.441 110.081 168.394 110.28 168.243 110.373C168.091 110.466 167.893 110.42 167.8 110.268C164.009 103.993 161.128 98.6161 161.093 98.5578C161.07 98.5111 161.046 98.4528 161.058 98.3828L162.341 75.4287C162.341 75.3237 162.399 75.2421 162.481 75.1838C162.563 75.1255 162.667 75.1138 162.761 75.1371C162.866 75.1721 172.908 78.4263 178.017 85.2145C180.863 88.9936 183.569 95.012 185.447 101.719C187.441 108.822 188.281 115.843 187.803 121.489C187.779 121.663 187.639 121.792 187.476 121.792Z" fill="#31313C"/>
<path d="M177.296 133.677C177.296 133.677 153.21 147.044 153.595 152.222C153.712 153.692 161.352 152.969 161.352 152.969L177.296 133.677Z" fill="#C5A546"/>
<path d="M169.68 93.6008C169.551 93.6008 169.435 93.5191 169.376 93.4025C169.365 93.3675 167.79 89.4835 165.072 86.8942C162.518 84.4565 158.622 82.2054 158.587 82.1821C158.436 82.0888 158.377 81.9021 158.471 81.7388C158.564 81.5872 158.751 81.5289 158.914 81.6222C158.949 81.6455 162.915 83.9316 165.527 86.4276C168.35 89.1219 169.913 92.9943 169.983 93.1576C170.053 93.3209 169.971 93.5075 169.808 93.5775C169.761 93.5891 169.726 93.6008 169.68 93.6008Z" fill="#31313C"/>
<path d="M143.621 103.981C143.621 103.981 141.86 121.384 155.425 127.017C157.233 127.764 159.88 129.735 160.09 131.683C160.09 131.683 161.175 127.67 162.423 169.205L192.049 170.616C190.941 165.764 198.825 158.637 197.671 153.96C191.746 129.921 187.733 117.546 187.733 117.546L143.621 103.981Z" fill="white"/>
<path d="M161.596 153.004C161.421 153.004 161.281 152.864 161.27 152.689C161.27 152.584 161.258 152.467 161.258 152.362L161.246 152.094C161.106 149.166 160.955 146.437 160.803 143.964C160.803 143.964 160.803 143.964 160.803 143.953C160.43 137.923 160.127 134.657 159.94 132.977C159.835 132.079 159.777 131.741 159.777 131.741C159.777 131.729 159.777 131.729 159.777 131.718C159.672 130.773 158.855 129.641 157.537 128.627C157.211 128.37 156.872 128.137 156.534 127.939C156.429 127.869 156.324 127.81 156.219 127.752C156.161 127.717 156.103 127.682 156.044 127.659C156.033 127.659 156.033 127.647 156.021 127.647C155.834 127.542 155.648 127.46 155.484 127.39C155.438 127.367 155.391 127.355 155.356 127.332L155.333 127.32C155.333 127.32 155.321 127.32 155.321 127.309C155.321 127.309 155.31 127.309 155.31 127.297C155.251 127.274 155.181 127.25 155.123 127.215C155.111 127.215 155.111 127.204 155.1 127.204C154.178 126.807 153.303 126.341 152.487 125.827C152.079 125.571 151.67 125.291 151.286 124.988C150.329 124.265 149.443 123.436 148.65 122.527C148.638 122.515 148.638 122.515 148.626 122.503C147.168 120.812 145.979 118.794 145.092 116.508C145.092 116.497 145.08 116.497 145.08 116.485C145.069 116.438 145.045 116.392 145.034 116.357C145.022 116.333 145.022 116.322 145.011 116.298L144.999 116.287C144.976 116.217 144.952 116.147 144.917 116.077C144.696 115.47 144.497 114.84 144.322 114.199C144.299 114.129 144.287 114.059 144.264 113.989C144.252 113.942 144.229 113.884 144.217 113.826L144.206 113.779C144.077 113.301 143.972 112.811 143.867 112.333C143.867 112.321 143.867 112.321 143.867 112.309C143.797 111.994 143.739 111.656 143.681 111.318L143.669 111.225C143.658 111.19 143.658 111.143 143.646 111.108L143.634 111.026C143.623 110.98 143.623 110.933 143.611 110.886C143.529 110.326 143.448 109.767 143.389 109.16C143.343 108.67 143.308 108.192 143.273 107.737C143.144 105.498 143.296 104.016 143.296 103.958C143.319 103.783 143.471 103.655 143.646 103.667C143.821 103.69 143.949 103.841 143.937 104.016C143.937 104.028 143.797 105.509 143.914 107.69C143.937 108.145 143.972 108.612 144.019 109.09C144.077 109.685 144.147 110.233 144.241 110.793C144.252 110.84 144.252 110.886 144.264 110.921L144.276 111.003C144.287 111.038 144.287 111.085 144.299 111.12L144.311 111.213C144.369 111.539 144.427 111.854 144.486 112.169C144.486 112.181 144.486 112.181 144.486 112.193C144.579 112.671 144.696 113.161 144.824 113.627L144.836 113.674C144.847 113.732 144.859 113.779 144.882 113.837C144.906 113.907 144.917 113.977 144.941 114.047C145.115 114.677 145.314 115.284 145.524 115.878C145.547 115.948 145.57 116.018 145.594 116.077L145.605 116.1C145.605 116.112 145.605 116.112 145.617 116.123C145.617 116.135 145.629 116.135 145.629 116.147C145.64 116.182 145.652 116.217 145.664 116.252C145.664 116.263 145.675 116.263 145.675 116.275C146.538 118.514 147.693 120.486 149.116 122.13C149.128 122.142 149.128 122.142 149.139 122.153C149.898 123.028 150.737 123.81 151.659 124.509C152.032 124.789 152.417 125.058 152.813 125.314C153.607 125.816 154.458 126.271 155.356 126.656C155.368 126.656 155.379 126.667 155.379 126.667C155.426 126.691 155.484 126.714 155.531 126.737H155.543C155.554 126.737 155.566 126.749 155.578 126.749H155.589C155.636 126.772 155.683 126.796 155.741 126.819C155.916 126.889 156.103 126.982 156.301 127.087C156.313 127.087 156.313 127.099 156.324 127.099C156.394 127.134 156.453 127.169 156.523 127.204C156.639 127.274 156.744 127.332 156.861 127.402C157.222 127.612 157.584 127.857 157.934 128.137C158.797 128.79 160.255 130.131 160.418 131.659C160.43 131.729 160.488 132.079 160.581 132.919C160.78 134.599 161.083 137.876 161.456 143.929C161.456 143.929 161.456 143.929 161.456 143.941C161.608 146.414 161.76 149.143 161.899 152.071L161.911 152.339C161.911 152.456 161.923 152.561 161.923 152.677V152.689C161.923 152.852 161.771 153.004 161.596 153.004Z" fill="#31313C"/>
<path d="M196.552 155.372C196.412 155.372 196.272 155.278 196.237 155.127C194.93 149.901 194.102 145.527 193.379 141.667C192.679 137.934 192.014 134.424 191.046 130.831C190.673 129.443 190.311 128.137 189.985 126.936C189.145 123.856 188.329 120.894 187.547 118.129C187.547 118.118 187.547 118.118 187.536 118.106C187.454 117.803 187.407 117.64 187.407 117.64C187.361 117.465 187.454 117.29 187.629 117.243C187.804 117.196 187.979 117.29 188.025 117.465C188.025 117.465 188.072 117.628 188.154 117.931C188.154 117.931 188.154 117.931 188.154 117.943C188.923 120.707 189.752 123.681 190.591 126.761C190.918 127.962 191.28 129.268 191.653 130.656C192.633 134.272 193.297 137.806 193.997 141.538C194.72 145.387 195.537 149.75 196.843 154.963C196.89 155.138 196.785 155.313 196.61 155.348C196.61 155.372 196.575 155.372 196.552 155.372Z" fill="#31313C"/>
<path d="M192.742 133.094C192.439 132.196 192.217 131.508 192.066 131.064C192.031 130.959 192.008 130.878 191.973 130.796C191.086 128.113 190.503 126.656 190.305 126.842C189.943 127.204 189.208 128.545 188.019 130.446C187.879 130.668 187.739 130.901 187.587 131.134C187.202 131.729 186.782 132.382 186.327 133.059C182.828 138.214 176.95 145.352 167.922 149.761C166.021 150.694 164.073 151.394 162.253 151.884C162.02 151.954 161.799 152.012 161.577 152.071C157.413 153.109 154.042 153.062 153.611 152.222V152.246V152.269L155.22 169.228C158.101 169.764 161.169 170.406 164.47 171.164C173.509 173.229 181.639 173.543 188.695 172.622C194.737 171.829 199.997 170.138 204.394 167.863C200.032 154.835 194.783 139.206 192.742 133.094Z" fill="#F2C94C"/>
<path d="M167.114 95.2803C167.055 95.2803 166.997 95.2686 166.939 95.2219C166.787 95.1286 166.752 94.9303 166.845 94.7787C167.977 93.0408 169.913 92.7142 170.741 92.5743C170.846 92.551 170.963 92.5393 171.021 92.5276C171.149 92.4577 171.313 92.4693 171.418 92.5743C171.546 92.7026 171.546 92.9009 171.418 93.0292C171.313 93.1341 171.173 93.1575 170.858 93.2158C170.053 93.3557 168.373 93.6357 167.382 95.1403C167.324 95.2336 167.219 95.2803 167.114 95.2803Z" fill="#31313C"/>
<path d="M171.122 111.33L129.915 119.168C127.687 119.588 125.517 117.966 125.063 115.54L110.086 34.9794C109.632 32.5534 111.078 30.244 113.306 29.8241L154.513 21.9861C156.741 21.5662 158.911 23.1875 159.365 25.6135L174.342 106.186C174.785 108.6 173.35 110.91 171.122 111.33Z" fill="#F2C94C"/>
<path d="M168.913 111.68L127.158 119.622C125.081 120.019 123.052 118.503 122.632 116.24L107.574 35.2242C107.154 32.9614 108.496 30.8037 110.572 30.4071L152.328 22.4641C154.404 22.0676 156.433 23.5839 156.853 25.8466L171.911 106.862C172.343 109.125 170.99 111.283 168.913 111.68Z" fill="#F2F2F2"/>
<path d="M163.307 60.511L163.295 60.476V60.4643V60.441L163.283 60.406V60.3943L162.875 59.2863L163.12 60.6276C163.179 60.6393 163.225 60.6626 163.283 60.6742C163.283 60.6742 163.283 60.6742 163.295 60.6742C163.307 60.6742 163.318 60.6859 163.33 60.6859L163.307 60.511ZM163.307 60.511L163.295 60.476V60.4643V60.441L163.283 60.406V60.3943L162.875 59.2863L163.12 60.6276C163.179 60.6393 163.225 60.6626 163.283 60.6742C163.283 60.6742 163.283 60.6742 163.295 60.6742C163.307 60.6742 163.318 60.6859 163.33 60.6859L163.307 60.511ZM172.113 106.827L170.398 97.5781L170.328 97.2282L170.247 96.7616L169.582 93.1809L169.535 92.9009L166.584 77.0384L166.549 76.8634L165.861 73.1427L165.045 68.7688L163.703 61.5374V61.5257L163.563 60.7559L163.004 57.77L162.35 54.2359L160.776 45.7914L160.717 45.4765L157.055 25.8116C156.682 23.8171 155.119 22.3708 153.334 22.2075C152.996 22.1725 152.646 22.1958 152.308 22.2541L110.552 30.1971C108.371 30.617 106.96 32.8797 107.391 35.2591L115.999 81.6105L117.842 91.5246L118.483 94.9537L120.559 106.139L121.178 109.475L121.283 110.058L121.936 113.592L122.437 116.275C122.881 118.654 125.015 120.241 127.196 119.832L128.724 119.541L145.368 116.368L162.759 113.056L168.952 111.878C169.15 111.843 169.337 111.784 169.524 111.726C169.664 111.679 169.803 111.621 169.932 111.551C171.541 110.746 172.486 108.822 172.113 106.827ZM169.22 111.388C169.115 111.423 168.999 111.446 168.882 111.469L162.817 112.624L145.228 115.972L129.167 119.028L128.432 119.168L127.126 119.412C125.155 119.786 123.23 118.351 122.834 116.205L122.297 113.312L121.679 109.965L121.458 108.752L120.886 105.661L118.822 94.5805L118.168 91.0348L116.396 81.5172L107.788 35.2008C107.391 33.0547 108.663 31.0135 110.634 30.6403L111.94 30.3954L152.39 22.6974C154.361 22.3241 156.285 23.7587 156.682 25.9049L160.309 45.4415L160.379 45.7914L161.931 54.1193L161.942 54.1776V54.1892L162.887 59.2979V59.3096L163.132 60.6509L164.66 68.8855L165.383 72.7928L166.094 76.6535L166.129 76.8517L168.87 91.5829L169.197 93.3208L169.827 96.7383L169.908 97.1932L169.932 97.3331L171.716 106.909C172.101 108.927 170.993 110.851 169.22 111.388ZM163.307 60.511L163.295 60.476V60.4643V60.441L163.283 60.406V60.3943L162.875 59.2863L163.12 60.6276C163.179 60.6393 163.225 60.6626 163.283 60.6742C163.283 60.6742 163.283 60.6742 163.295 60.6742C163.307 60.6742 163.318 60.6859 163.33 60.6859L163.307 60.511Z" fill="#F2C94C"/>
<path d="M126.575 112.554C126.167 112.554 125.759 112.426 125.397 112.181C124.884 111.831 124.523 111.271 124.406 110.63L110.678 36.7407C110.445 35.481 111.203 34.2796 112.369 34.058L151.991 26.5233C152.527 26.4183 153.075 26.535 153.542 26.8615C154.055 27.2114 154.417 27.7713 154.533 28.4128L168.261 102.302C168.495 103.562 167.737 104.763 166.57 104.985L126.949 112.519C126.832 112.543 126.704 112.554 126.575 112.554ZM152.364 26.8965C152.259 26.8965 152.166 26.9082 152.061 26.9199L112.439 34.4546C111.494 34.6295 110.876 35.6326 111.074 36.6707L124.803 110.56C124.896 111.085 125.199 111.563 125.619 111.855C125.992 112.111 126.436 112.205 126.867 112.123L166.489 104.588C167.433 104.413 168.051 103.41 167.853 102.372L154.137 28.4828C154.043 27.9579 153.74 27.4797 153.32 27.1881C153.017 27.0015 152.69 26.8965 152.364 26.8965Z" fill="#31313C"/>
<path d="M131.138 28.9258C131.057 28.4709 131.325 28.0393 131.733 27.9693C132.153 27.8877 132.55 28.1909 132.631 28.6458C132.713 29.1007 132.445 29.5323 132.037 29.6022C131.628 29.6722 131.22 29.369 131.138 28.9258Z" fill="#31313B"/>
<path d="M151.409 112.613L143.816 114.059C143.302 114.152 142.801 113.779 142.696 113.219L142.544 112.379C142.439 111.82 142.778 111.283 143.291 111.19L150.884 109.743C151.397 109.65 151.899 110.023 152.003 110.583L152.155 111.423C152.248 111.983 151.922 112.519 151.409 112.613Z" fill="white"/>
<path d="M152.348 111.388L152.196 110.548C152.068 109.872 151.461 109.417 150.843 109.533L143.938 110.851L143.25 110.98C142.632 111.096 142.235 111.738 142.352 112.414L142.504 113.254C142.632 113.931 143.238 114.385 143.857 114.269L144.638 114.117L151.45 112.823C152.068 112.706 152.476 112.064 152.348 111.388ZM142.9 113.184L142.749 112.344C142.667 111.901 142.935 111.481 143.332 111.4L144.008 111.271L150.925 109.953C151.333 109.872 151.73 110.175 151.811 110.618L151.963 111.458C152.045 111.901 151.776 112.321 151.38 112.403L144.533 113.709L143.787 113.849C143.378 113.919 142.982 113.627 142.9 113.184Z" fill="#31313B"/>
<g opacity="0.2">
<g opacity="0.2">
<path opacity="0.2" d="M142.906 28.4594L114.47 56.0439L110.878 36.7172C110.668 35.5625 111.345 34.4661 112.406 34.2679L142.906 28.4594Z" fill="#A2D2EC"/>
</g>
</g>
<g opacity="0.2">
<g opacity="0.2">
<path opacity="0.2" d="M162.679 73.3412L168.067 102.337C168.277 103.492 167.601 104.588 166.539 104.786L126.918 112.321C125.856 112.519 124.83 111.75 124.62 110.595L124.142 108.017L162.679 73.3412Z" fill="#A2D2EC"/>
</g>
</g>
<g opacity="0.2">
<g opacity="0.2">
<path opacity="0.2" d="M154.327 28.4475L155.948 37.1603L118.811 79.3827L115.907 63.7534L151.061 26.9079L152.029 26.7213C153.091 26.523 154.117 27.2928 154.327 28.4475Z" fill="#A2D2EC"/>
</g>
</g>
<rect x="110.295" y="34.8228" width="44.1762" height="78.8173" rx="2" transform="rotate(-10.5732 110.295 34.8228)" fill="#828282"/>
<rect x="113.959" y="36.7782" width="37.3375" height="37.3375" rx="2" transform="rotate(-10.5732 113.959 36.7782)" fill="white"/>
<path d="M145.293 73.1219L122.46 77.4747C122.181 77.5217 121.912 77.347 121.865 77.0671C121.818 76.7873 121.993 76.5188 122.273 76.4718L145.105 72.1191C145.385 72.0721 145.654 72.2467 145.701 72.5266C145.748 72.8065 145.573 73.075 145.293 73.1219Z" fill="white"/>
<path d="M136.542 78.2682L123.138 80.9767C122.917 81.0261 122.705 80.8771 122.655 80.656L122.618 80.4582C122.569 80.2372 122.718 80.0254 122.939 79.976L136.343 77.2675C136.564 77.2181 136.775 77.3672 136.825 77.5882L136.862 77.786C136.9 78.0072 136.751 78.2306 136.542 78.2682Z" fill="white"/>
<path d="M148.046 96.3357C148.612 96.5572 148.727 97.3085 148.252 97.6881L142.54 102.254C142.065 102.633 141.357 102.357 141.266 101.756L140.168 94.5261C140.076 93.9251 140.67 93.4506 141.236 93.672L148.046 96.3357Z" fill="white"/>
<path d="M123.755 87.575L159.491 80.9482" stroke="#E0E0E0"/>
<path d="M123.755 87.575L137.67 85.0506" stroke="white" stroke-width="2"/>
<path d="M138.861 50.3524C138.961 50.8304 138.952 51.3113 138.858 51.7606C138.585 53.0326 137.586 54.0905 136.232 54.3729C134.879 54.6553 133.54 54.0851 132.781 53.0284C132.51 52.6551 132.315 52.2167 132.216 51.7387C132.067 51.0287 132.153 50.3244 132.419 49.7058L134.512 51.0768C135.119 51.4738 135.928 51.305 136.325 50.6986L137.775 48.4848C138.314 48.9601 138.704 49.5998 138.861 50.3524Z" fill="#EFB92E"/>
<path fill-rule="evenodd" clip-rule="evenodd" d="M142.374 41.4601C141.939 41.1507 141.485 40.87 141.008 40.6189C141.008 40.6189 141.004 40.6198 141.003 40.6151C140.909 40.5704 140.82 40.5199 140.726 40.4752C140.726 40.4752 140.721 40.4714 140.716 40.4724C140.167 40.2313 139.537 40.1502 138.908 40.2816C137.36 40.6044 136.342 42.0713 136.557 43.6218L136.581 43.7354L138.772 43.2782L138.791 43.2743L138.81 43.2704C139.057 43.2237 139.297 43.2578 139.509 43.3518C139.579 43.3816 139.642 43.4228 139.705 43.464C139.937 43.628 140.113 43.8779 140.175 44.176C140.237 44.4742 140.181 44.7725 140.034 45.0155L139.262 46.2186L138.652 47.151C139.528 47.8474 140.175 48.8434 140.422 50.0267C140.52 50.4953 140.549 50.9635 140.514 51.4151C140.353 53.5775 138.785 55.4605 136.56 55.9245C134.336 56.3886 132.141 55.2906 131.133 53.3721C130.921 52.9718 130.76 52.5312 130.662 52.0626C130.425 50.922 130.594 49.795 131.079 48.8247L130.085 48.1824L128.941 47.4332L128.945 47.4275C128.665 47.2686 128.449 46.9926 128.377 46.647C128.309 46.3205 128.384 45.9936 128.558 45.74C128.607 45.6656 128.667 45.5987 128.734 45.5403C128.734 45.5403 128.739 45.5393 128.738 45.5346C128.862 45.4198 129.012 45.3341 129.179 45.2844C129.211 45.2727 129.249 45.2648 129.282 45.2579C129.316 45.251 129.349 45.2441 129.383 45.2419L131.659 44.767L131.648 44.7102C131.236 43.186 129.698 42.2324 128.132 42.5592C127.46 42.6994 126.882 43.0569 126.464 43.5393C126.425 43.587 126.385 43.6347 126.347 43.6872C125.99 44.1321 125.664 44.6051 125.377 45.0996C123.953 47.5304 123.392 50.4775 124.012 53.4499C125.34 59.816 131.576 63.8989 137.942 62.5709C144.308 61.2429 148.391 55.0075 147.063 48.6414C146.434 45.6264 144.701 43.1183 142.374 41.4601ZM131.77 59.2404C131.899 59.2924 132.051 59.3101 132.202 59.2785C132.605 59.1946 132.867 58.7942 132.788 58.3909C132.74 58.1637 132.595 57.9866 132.41 57.8819L132.416 57.8857C132.404 57.8782 132.388 57.8717 132.372 57.8652L132.367 57.8662C132.356 57.8587 132.34 57.8569 132.329 57.8494C130.669 57.0647 129.313 55.6781 128.589 53.9128C128.561 53.8495 128.538 53.7899 128.516 53.7304C128.505 53.7029 128.496 53.6803 128.485 53.6529L128.484 53.6481C128.455 53.5801 128.417 53.514 128.366 53.4604C128.353 53.4434 128.335 53.4322 128.322 53.4152C128.305 53.404 128.291 53.3871 128.274 53.3758C128.256 53.3598 128.239 53.3486 128.222 53.3374L128.193 53.3186C128.035 53.2232 127.838 53.1803 127.639 53.2218C127.587 53.2326 127.546 53.2462 127.5 53.2656C127.428 53.2956 127.362 53.334 127.303 53.3857C127.103 53.5609 127.001 53.8292 127.059 54.1084C127.063 54.1274 127.073 54.15 127.076 54.169C127.083 54.2021 127.099 54.2285 127.11 54.2607C127.961 56.4934 129.64 58.2424 131.715 59.2171C131.736 59.2226 131.753 59.2339 131.77 59.2404Z" fill="#EFB92E"/>
<path fill-rule="evenodd" clip-rule="evenodd" d="M136.516 55.9337L137.902 62.5792C131.551 63.8806 125.34 59.8017 124.015 53.4496C123.395 50.4772 123.955 47.5301 125.38 45.0993C125.667 44.6048 125.993 44.1317 126.349 43.6869C126.388 43.6344 126.427 43.5867 126.467 43.5389C126.885 43.0566 127.462 42.6991 128.134 42.5589C129.701 42.2321 131.238 43.1856 131.65 44.7099L131.662 44.7667L129.385 45.2416C129.351 45.2438 129.318 45.2507 129.285 45.2576C129.252 45.2645 129.214 45.2724 129.182 45.2841C129.014 45.3338 128.864 45.4195 128.74 45.5343C128.741 45.539 128.736 45.54 128.736 45.54C128.669 45.5984 128.609 45.6653 128.561 45.7396C128.386 45.9933 128.311 46.3201 128.379 46.6467C128.451 46.9922 128.667 47.2683 128.947 47.4272L128.943 47.4329L130.088 48.1821L131.081 48.8244C130.597 49.7946 130.427 50.9216 130.665 52.0623C130.763 52.5309 130.924 52.9715 131.136 53.3718C132.136 55.2769 134.307 56.3729 136.516 55.9337ZM132.205 59.2782C132.053 59.3098 131.901 59.2921 131.772 59.2401C131.766 59.2377 131.76 59.2348 131.754 59.2317C131.743 59.2262 131.731 59.2203 131.718 59.2168C129.642 58.2421 127.964 56.4931 127.113 54.2604C127.109 54.249 127.104 54.2384 127.1 54.2279C127.091 54.2087 127.083 54.1901 127.079 54.1687C127.077 54.1592 127.073 54.1488 127.07 54.1384C127.067 54.128 127.063 54.1176 127.061 54.1081C127.003 53.8289 127.105 53.5606 127.306 53.3854C127.364 53.3337 127.43 53.2952 127.503 53.2652C127.548 53.2459 127.59 53.2323 127.642 53.2214C127.841 53.18 128.037 53.2229 128.196 53.3183L128.224 53.337C128.241 53.3483 128.258 53.3595 128.277 53.3755C128.285 53.3811 128.293 53.3882 128.3 53.3952C128.308 53.4023 128.316 53.4093 128.324 53.4149C128.331 53.4234 128.339 53.4305 128.346 53.4375C128.354 53.4445 128.362 53.4516 128.368 53.4601C128.419 53.5137 128.457 53.5798 128.487 53.6478L128.487 53.6525C128.493 53.6662 128.498 53.6788 128.503 53.6913C128.508 53.7038 128.513 53.7163 128.518 53.73C128.541 53.7896 128.563 53.8492 128.591 53.9125C129.315 55.6778 130.671 57.0644 132.331 57.8491C132.337 57.8528 132.344 57.8551 132.35 57.8575C132.357 57.8598 132.364 57.8621 132.369 57.8658L132.374 57.8648C132.39 57.8713 132.406 57.8779 132.418 57.8853L132.412 57.8816C132.597 57.9863 132.743 58.1633 132.79 58.3905C132.869 58.7938 132.607 59.1943 132.205 59.2782Z" fill="#EFB92E"/>
<path fill-rule="evenodd" clip-rule="evenodd" d="M130.629 51.8556L123.976 53.2434C123.424 50.341 123.991 47.4737 125.382 45.0991C125.669 44.6045 125.995 44.1315 126.352 43.6867C126.39 43.6342 126.43 43.5864 126.469 43.5387C126.887 43.0564 127.464 42.6989 128.137 42.5586C129.703 42.2318 131.241 43.1854 131.652 44.7097L131.664 44.7665L129.388 45.2414C129.354 45.2436 129.32 45.2505 129.287 45.2574C129.254 45.2643 129.216 45.2722 129.184 45.2838C129.017 45.3336 128.867 45.4192 128.742 45.534C128.743 45.5388 128.739 45.5398 128.739 45.5398C128.672 45.5981 128.612 45.665 128.563 45.7394C128.389 45.9931 128.314 46.3199 128.382 46.6465C128.454 46.992 128.67 47.2681 128.95 47.427L128.946 47.4327L130.09 48.1818L131.083 48.8241C130.629 49.7358 130.451 50.7859 130.629 51.8556Z" fill="#EFB92E"/>
<path d="M176.45 127.262C176.45 127.262 184.907 133.642 185.851 129.956C189.094 117.313 181.081 108.46 176.147 102.628C172.951 98.8493 153.438 82.8001 151.327 87.4306C150.044 90.2415 155.141 96.1317 159.002 101.427C161.498 104.856 163.212 108.227 163.247 109.685C163.317 112.706 162.477 115.995 163.41 118.094C166.956 126.049 176.45 127.262 176.45 127.262Z" fill="white"/>
<path d="M176.444 127.577C176.432 127.577 176.409 127.577 176.397 127.577C176.07 127.53 168.337 126.236 164.488 120.8C162.622 118.164 162.004 115.003 162.657 111.399C163.427 107.13 159.858 102.873 156.406 98.756C153.011 94.7087 149.804 90.883 151.029 87.3256C151.215 86.7774 151.623 86.4158 152.207 86.2992C156.872 85.3311 174.041 99.8873 176.805 102.932C176.922 103.06 176.91 103.27 176.782 103.386C176.654 103.503 176.444 103.491 176.327 103.363C174.927 101.824 170.122 97.5546 164.745 93.554C158.517 88.9118 154.108 86.5675 152.335 86.929C151.973 86.999 151.752 87.1973 151.635 87.5355C150.539 90.7547 153.63 94.4404 156.907 98.3478C160.453 102.582 164.127 106.956 163.299 111.516C162.681 114.945 163.264 117.943 165.025 120.427C168.722 125.641 176.432 126.935 176.514 126.947C176.689 126.97 176.805 127.145 176.782 127.32C176.735 127.472 176.607 127.577 176.444 127.577Z" fill="#31313C"/>
<path d="M103.636 84.2244C103.636 84.2244 99.0523 86.0323 95.7399 86.942L96.9179 76.5847L103.636 84.2244Z" fill="white"/>
<path d="M103.634 84.2243C105.43 83.5362 108.171 79.8971 105.453 75.4183C104.485 73.8204 97.7204 70.6012 96.799 78.929C96.0409 85.7056 101.138 85.1808 103.634 84.2243Z" fill="white"/>
<path d="M100.776 84.9358C99.7961 84.9358 98.8513 84.7142 98.1048 84.1427C96.8568 83.1863 96.3786 81.425 96.6469 78.9174C97.0901 74.9284 98.8513 73.7154 100.251 73.4121C102.479 72.9222 104.998 74.4035 105.57 75.3483C107.063 77.8093 106.853 79.8738 106.421 81.1684C105.838 82.883 104.625 84.0144 103.692 84.376C102.817 84.6909 101.779 84.9358 100.776 84.9358ZM101.196 73.5987C100.904 73.5987 100.613 73.6221 100.321 73.692C98.4431 74.1119 97.2767 75.9198 96.9501 78.9407C96.6819 81.3434 97.1367 83.0113 98.2915 83.8977C99.2245 84.6092 101.102 85.0408 103.587 84.0844C104.438 83.7578 105.605 82.6731 106.153 81.0635C106.573 79.8271 106.771 77.856 105.336 75.4999C104.858 74.7301 103.027 73.5987 101.196 73.5987Z" fill="#31313B"/>
<path d="M103.979 95.8064C105.53 94.675 107.782 89.508 104.002 85.8806C102.661 84.5859 96.8294 83.6645 95.8729 90.4178C94.9165 97.171 101.821 97.381 103.979 95.8064Z" fill="white"/>
<path d="M100.978 96.7626C99.9053 96.7626 98.774 96.5177 97.8409 95.9579C96.6162 95.2231 95.2632 93.6601 95.7181 90.3943C96.2196 86.8952 97.9808 85.5889 99.3688 85.099C101.305 84.4342 103.358 85.064 104.093 85.7638C106.017 87.6067 106.297 89.7295 106.192 91.1874C106.075 92.832 105.247 95.0598 104.058 95.9229C103.346 96.4477 102.203 96.7626 100.978 96.7626ZM101.165 85.134C100.524 85.134 99.917 85.2273 99.4738 85.3789C98.1675 85.8338 96.4996 87.0818 96.0213 90.4293C95.5781 93.5318 96.8495 95.0014 98.0042 95.7013C99.987 96.9026 102.775 96.5061 103.894 95.6896C104.781 95.0481 105.772 93.1819 105.912 91.1758C106.005 89.7878 105.737 87.7583 103.894 85.9854C103.253 85.3673 102.168 85.134 101.165 85.134Z" fill="#31313B"/>
<path d="M102.387 106.082C102.387 106.082 97.8034 107.89 94.491 108.8L95.669 98.4424L102.387 106.082Z" fill="white"/>
<path d="M78.2277 72.8289C78.2277 72.8289 99.5255 57.2229 104.389 58.9025C106.08 59.4856 107.34 62.0283 103.654 66.1223C97.6943 72.7472 86.5322 83.1279 86.5322 83.1279L78.2277 72.8289Z" fill="white"/>
<path d="M86.5427 83.2796C86.531 83.2796 86.531 83.2796 86.5427 83.2796C86.496 83.2796 86.4494 83.2563 86.4261 83.2213L78.1215 72.9223C78.0982 72.8873 78.0865 72.8523 78.0865 72.8056C78.0865 72.7706 78.1099 72.724 78.1449 72.7006C78.2032 72.6657 83.5451 68.7583 89.412 65.1076C97.3199 60.1855 102.382 58.0511 104.446 58.7509C105.275 59.0308 105.881 59.6957 106.103 60.5588C106.383 61.6435 106.208 63.5097 103.782 66.2156C97.8915 72.7706 86.7643 83.128 86.6477 83.2329C86.6127 83.2679 86.5777 83.2796 86.5427 83.2796ZM78.4481 72.8639L86.5544 82.918C87.7557 81.7983 97.9848 72.2108 103.548 66.029C105.38 63.9996 106.184 62.0867 105.811 60.6521C105.613 59.8823 105.076 59.2991 104.341 59.0425C99.7926 57.4796 80.2093 71.5809 78.4481 72.8639Z" fill="#31313B"/>
<path d="M56.9411 148.06C56.9411 148.06 66.4353 154.976 65.2689 158.16C64.1026 161.344 54.0835 152.912 54.0835 152.912L56.9411 148.06Z" fill="#31313C"/>
<path d="M40.2172 110.503C40.2172 110.503 37.3129 117.489 33.1607 128.161C29.0084 138.834 25.0778 146.73 25.0778 146.73L60.8969 161.1L73.8085 118.714L40.2172 110.503Z" fill="white"/>
<path d="M60.9006 161.368C60.8656 161.368 60.8306 161.356 60.7956 161.345L24.9765 146.975C24.9065 146.952 24.8482 146.893 24.8248 146.823C24.8015 146.753 24.8015 146.672 24.8365 146.602C24.8715 146.52 28.8022 138.6 32.9078 128.056C37.0134 117.512 40.1742 108.963 40.2092 108.881C40.2326 108.811 40.2909 108.753 40.3609 108.73C40.4308 108.695 40.5008 108.706 40.5708 108.73L71.8644 122.306C71.9927 122.365 72.051 122.493 72.016 122.633L61.1688 161.17C61.1455 161.24 61.0988 161.31 61.0289 161.333C60.9822 161.356 60.9472 161.368 60.9006 161.368ZM25.4547 146.59L60.7256 160.738L71.4329 122.726L40.6175 109.348C40.0459 110.876 37.1067 118.76 33.4093 128.266C29.7236 137.749 26.1662 145.12 25.4547 146.59Z" fill="#31313C"/>
<path d="M43.8178 114.771C43.8178 114.771 40.412 122.994 38.1609 120.732C30.4279 112.964 32.3174 101.043 35.3266 95.3747C38.8957 88.6331 41.5433 72.7822 45.0424 75.2316C47.1652 76.7245 45.9872 83.1512 45.4507 88.6331C45.1008 92.1789 45.299 95.3514 45.8939 96.4128C47.1302 98.6289 49.1364 100.647 49.358 102.571C50.1861 109.849 43.8178 114.771 43.8178 114.771Z" fill="white"/>
<path d="M38.1621 120.988C38.0921 120.988 38.0222 120.965 37.9755 120.907C33.2167 116.171 32.3886 110.094 32.5402 105.849C32.7152 100.845 34.3131 96.1446 35.8177 93.7185C36.9957 91.8174 38.1271 88.2366 39.2118 84.7608C41.0314 78.9757 42.3494 75.1383 43.9706 74.6834C44.4022 74.5668 44.8221 74.6718 45.2186 75.0217C47.6213 77.0862 46.9215 81.2151 46.1867 85.589C45.4402 90.0445 44.6704 94.64 47.0498 97.4043C49.056 99.737 49.9541 102.291 49.7325 104.986C49.2543 110.561 44.2156 114.795 43.9939 114.97C43.8773 115.063 43.714 115.051 43.6091 114.935C43.5157 114.818 43.5274 114.655 43.644 114.55C43.6907 114.503 48.7294 110.281 49.1843 104.939C49.4059 102.385 48.5428 99.9703 46.6299 97.7542C44.0873 94.8033 44.8804 90.0678 45.6502 85.4957C46.3617 81.2734 47.0265 77.2844 44.8571 75.4183C44.5188 75.1267 44.2622 75.15 44.1106 75.1966C42.641 75.6165 41.0897 80.5619 39.7134 84.9241C38.617 88.4232 37.474 92.039 36.2609 93.9985C34.7913 96.3662 33.2284 100.95 33.0651 105.86C32.9251 110.013 33.7183 115.914 38.3487 120.522C38.4537 120.627 38.4537 120.802 38.3487 120.907C38.3021 120.965 38.2321 120.988 38.1621 120.988Z" fill="#31313C"/>
<path d="M65.2733 158.16L61.4942 174.408C50.892 170.874 44.162 164.272 30.5039 161.869C26.9115 161.24 22.8409 160.89 18.0938 160.971L29.5708 136.046C29.5708 136.046 29.6524 136.151 29.8157 136.349C30.9588 137.691 36.0791 143.324 45.8766 148.829C48.8975 150.532 51.965 152.095 54.7293 153.437C57.6336 154.848 60.2229 156.003 62.1124 156.819C62.1474 156.831 62.1707 156.842 62.2057 156.854C64.1069 157.694 65.2733 158.16 65.2733 158.16Z" fill="#FFD26D"/>
<path d="M42.1828 135.125L83.7404 140.84C85.9915 141.143 88.0676 139.417 88.3942 136.968L99.2181 55.7418C99.5446 53.2924 97.9817 51.0647 95.7423 50.7497L54.1847 45.0346C51.9336 44.7313 49.8574 46.4575 49.5309 48.9069L38.707 130.133C38.3804 132.582 39.9317 134.81 42.1828 135.125Z" fill="#F2C94C"/>
<path d="M44.3996 135.358L86.5054 141.143C88.6049 141.435 90.5411 139.813 90.8443 137.539L101.727 55.8583C102.03 53.5722 100.583 51.4961 98.484 51.2045L56.3782 45.4193C54.2787 45.1277 52.3426 46.749 52.0393 49.0234L41.1571 130.704C40.8539 132.99 42.3001 135.066 44.3996 135.358Z" fill="#F2F2F2"/>
<path d="M47.3941 83.8511L47.3824 83.9327V83.9677L47.3591 84.1427C47.3708 84.1427 47.3708 84.1427 47.3824 84.131C47.3941 84.131 47.3941 84.1194 47.4058 84.1194C47.4058 84.1194 47.4057 84.1194 47.4174 84.1194C47.4757 84.096 47.5224 84.0844 47.5807 84.0727L47.7557 82.7197L47.3941 83.8511ZM47.3941 83.8511L47.3824 83.9327V83.9677L47.3591 84.1427C47.3708 84.1427 47.3708 84.1427 47.3824 84.1427C47.3941 84.1427 47.3941 84.131 47.4058 84.131C47.4058 84.131 47.4057 84.131 47.4174 84.131C47.4757 84.1077 47.5224 84.096 47.5807 84.0844L47.7557 82.7314L47.3941 83.8511ZM97.4545 86.4171L97.4312 86.5804L97.4429 86.5687C97.4545 86.5571 97.4779 86.5337 97.4895 86.5221C97.5012 86.5104 97.5245 86.4871 97.5362 86.4754C97.5478 86.4638 97.5595 86.4521 97.5712 86.4288C97.5828 86.4171 97.6062 86.3938 97.6178 86.3821L97.6295 86.3704L97.6411 86.3588C97.5828 86.3821 97.5128 86.3938 97.4545 86.4171ZM96.6497 94.675C96.6381 94.6633 96.6381 94.6516 96.6264 94.64C96.6147 94.6167 96.5914 94.5933 96.5798 94.5817C96.5798 94.57 96.5681 94.57 96.5681 94.5583C96.5331 94.5 96.4981 94.4534 96.4631 94.3951C96.4398 94.3601 96.4281 94.3251 96.4048 94.3017L95.8216 98.6406L95.9383 98.7689C95.9499 98.7456 95.9499 98.7106 95.9616 98.6873C95.9733 98.6639 95.9732 98.629 95.9849 98.6056C96.0082 98.5473 96.0199 98.489 96.0432 98.4307C96.0432 98.4307 96.0432 98.4307 96.0432 98.419C96.0666 98.349 96.0899 98.2907 96.1132 98.2324C96.1365 98.1741 96.1482 98.1274 96.1715 98.0808C96.1832 98.0341 96.2065 97.9991 96.2182 97.9525C96.2298 97.9291 96.2415 97.9058 96.2532 97.8825C96.2765 97.8242 96.2998 97.7658 96.3348 97.7192L96.7197 94.8033C96.7081 94.745 96.6847 94.71 96.6497 94.675ZM97.4545 86.4171L97.4312 86.5804L97.4429 86.5687C97.4545 86.5571 97.4779 86.5337 97.4895 86.5221C97.5012 86.5104 97.5245 86.4871 97.5362 86.4754C97.5478 86.4638 97.5595 86.4521 97.5712 86.4288C97.5828 86.4171 97.6062 86.3938 97.6178 86.3821L97.6295 86.3704L97.6411 86.3588C97.5828 86.3821 97.5128 86.3938 97.4545 86.4171ZM96.6264 94.64C96.6147 94.6167 96.5914 94.5933 96.5798 94.5817C96.5798 94.57 96.5681 94.57 96.5681 94.5583C96.5331 94.5 96.4981 94.4534 96.4631 94.3951C96.4398 94.3601 96.4281 94.3251 96.4048 94.3017L95.8216 98.6406L95.9383 98.7689C95.9499 98.7456 95.9499 98.7106 95.9616 98.6873C95.9733 98.6639 95.9732 98.629 95.9849 98.6056C96.0082 98.5473 96.0199 98.489 96.0432 98.4307C96.0432 98.4307 96.0432 98.4307 96.0432 98.419C96.0666 98.349 96.0899 98.2907 96.1132 98.2324C96.1365 98.1741 96.1482 98.1274 96.1715 98.0808C96.1832 98.0341 96.2065 97.9991 96.2182 97.9525C96.2298 97.9291 96.2415 97.9058 96.2532 97.8825C96.2765 97.8242 96.2998 97.7658 96.3348 97.7192L96.7197 94.8033C96.6847 94.7683 96.6614 94.7333 96.6381 94.6866C96.6381 94.6633 96.6381 94.6516 96.6264 94.64ZM98.5043 50.9829L56.3984 45.1977C56.0485 45.1511 55.6986 45.1511 55.372 45.1977C53.5992 45.4543 52.1062 46.9823 51.8379 48.9884L49.202 68.7933L49.1553 69.1199L48.0239 77.6344L47.5457 81.1918V81.2034L47.1491 84.2127L47.0442 84.9941V85.0058L46.0761 92.2956L45.6562 95.4214L45.6212 95.6781L45.4812 96.7044L43.6617 110.363L43.5334 111.307L42.7869 116.929L42.3087 120.51L42.2504 120.977L40.9557 130.657C40.9208 130.949 40.9091 131.229 40.9208 131.509C40.9557 132.174 41.119 132.803 41.399 133.363C41.8305 134.215 42.5187 134.891 43.3701 135.276C43.685 135.416 44.0116 135.509 44.3615 135.556L67.199 138.694L67.6889 138.764L84.9394 141.131L86.479 141.341C88.6835 141.645 90.7246 139.942 91.0512 137.551L91.4128 134.845L91.6577 133.013L91.891 131.276L91.9143 131.066L91.9609 130.681L92.4042 127.322L93.9088 116.043L94.3753 112.579L94.9002 108.66L95.6 103.411L95.705 102.583L96.1832 99.0022L96.3581 97.6842L96.7431 94.7683L97.8744 86.2655L97.8978 86.1138L98.1777 83.9911L98.8658 78.7891L99.5307 73.7737L100.044 69.948L101.49 59.1008L101.922 55.8583C102.237 53.4789 100.709 51.2861 98.5043 50.9829ZM101.525 55.8233L101.07 59.2408L99.5773 70.4379L99.0991 74.0303L98.5159 78.4158L97.8161 83.6878L97.4545 86.4171L97.4312 86.5804L96.4048 94.2784L95.8216 98.6173L95.2968 102.513L94.5036 108.473L94.0137 112.112L93.5355 115.681L92.0426 126.855L91.6227 129.969L91.4711 131.066L91.4594 131.194L91.2145 133.013L91.0045 134.576L90.6196 137.492C90.328 139.65 88.4852 141.19 86.5023 140.921L85.1844 140.735L84.4495 140.63L67.8172 138.355L67.3156 138.285L44.4199 135.136C43.3235 134.985 42.402 134.308 41.8538 133.375C41.5389 132.827 41.3406 132.197 41.3057 131.52C41.294 131.264 41.3057 130.996 41.3406 130.727L42.6236 121.07L42.7053 120.475L43.3235 115.856L43.9183 111.412L44.0349 110.538L45.9128 96.4595L45.9245 96.3312L45.9478 96.1913L46.4493 92.3889L47.5574 84.0844L47.7323 82.7314V82.7197L48.4205 77.5644V77.5527L48.4322 77.4944L49.5519 69.0966L49.5985 68.7467L52.2228 49.0584C52.5144 46.9006 54.3573 45.361 56.3401 45.6293L97.128 51.2395L98.4459 51.4261C100.44 51.6827 101.817 53.6655 101.525 55.8233ZM96.6497 94.675C96.6381 94.6633 96.6381 94.6516 96.6264 94.64C96.6147 94.6167 96.5914 94.5933 96.5798 94.5817C96.5798 94.57 96.5681 94.57 96.5681 94.5583C96.5331 94.5 96.4981 94.4534 96.4631 94.3951C96.4398 94.3601 96.4281 94.3251 96.4048 94.3017L95.8216 98.6406L95.9383 98.7689C95.9499 98.7456 95.9499 98.7106 95.9616 98.6873C95.9733 98.6639 95.9732 98.629 95.9849 98.6056C96.0082 98.5473 96.0199 98.489 96.0432 98.4307C96.0432 98.4307 96.0432 98.4307 96.0432 98.419C96.0666 98.349 96.0899 98.2907 96.1132 98.2324C96.1365 98.1741 96.1482 98.1274 96.1715 98.0808C96.1832 98.0341 96.2065 97.9991 96.2182 97.9525C96.2298 97.9291 96.2415 97.9058 96.2532 97.8825C96.2765 97.8242 96.2998 97.7658 96.3348 97.7192L96.7197 94.8033C96.7081 94.745 96.6847 94.71 96.6497 94.675ZM97.4545 86.4171L97.4312 86.5804L97.4429 86.5687C97.4545 86.5571 97.4779 86.5337 97.4895 86.5221C97.5012 86.5104 97.5245 86.4871 97.5362 86.4754C97.5478 86.4638 97.5595 86.4521 97.5712 86.4288C97.5828 86.4171 97.6062 86.3938 97.6178 86.3821L97.6295 86.3704L97.6411 86.3588C97.5828 86.3821 97.5128 86.3938 97.4545 86.4171ZM96.6497 94.675C96.6381 94.6633 96.6381 94.6516 96.6264 94.64C96.6147 94.6167 96.5914 94.5933 96.5798 94.5817C96.5798 94.57 96.5681 94.57 96.5681 94.5583C96.5331 94.5 96.4981 94.4534 96.4631 94.3951C96.4398 94.3601 96.4281 94.3251 96.4048 94.3017L95.8216 98.6406L95.9383 98.7689C95.9499 98.7456 95.9499 98.7106 95.9616 98.6873C95.9733 98.6639 95.9732 98.629 95.9849 98.6056C96.0082 98.5473 96.0199 98.489 96.0432 98.4307C96.0432 98.4307 96.0432 98.4307 96.0432 98.419C96.0666 98.349 96.0899 98.2907 96.1132 98.2324C96.1365 98.1741 96.1482 98.1274 96.1715 98.0808C96.1832 98.0341 96.2065 97.9991 96.2182 97.9525C96.2298 97.9291 96.2415 97.9058 96.2532 97.8825C96.2765 97.8242 96.2998 97.7658 96.3348 97.7192L96.7197 94.8033C96.7081 94.745 96.6847 94.71 96.6497 94.675ZM97.4545 86.4171L97.4312 86.5804L97.4429 86.5687C97.4545 86.5571 97.4779 86.5337 97.4895 86.5221C97.5012 86.5104 97.5245 86.4871 97.5362 86.4754C97.5478 86.4638 97.5595 86.4521 97.5712 86.4288C97.5828 86.4171 97.6062 86.3938 97.6178 86.3821L97.6295 86.3704L97.6411 86.3588C97.5828 86.3821 97.5128 86.3938 97.4545 86.4171ZM47.3941 83.8511L47.3824 83.9327V83.9677L47.3591 84.1427C47.3708 84.1427 47.3708 84.1427 47.3824 84.1427C47.3941 84.1427 47.3941 84.131 47.4058 84.131C47.4058 84.131 47.4057 84.131 47.4174 84.131C47.4757 84.1077 47.5224 84.096 47.5807 84.0844L47.7557 82.7314L47.3941 83.8511Z" fill="#F2C94C"/>
<path d="M86.627 134.063C86.5336 134.063 86.4403 134.052 86.3587 134.04L46.4106 128.546C45.2326 128.383 44.4162 127.228 44.5911 125.957L52.5691 66.0174L54.5052 51.4612C54.5869 50.8197 54.9251 50.2365 55.415 49.8633C55.8582 49.525 56.4064 49.3734 56.9429 49.455L96.891 54.9486C98.069 55.1119 98.8855 56.2666 98.7105 57.538L93.042 100.075L88.7847 132.034C88.7031 132.675 88.3648 133.258 87.875 133.632C87.5134 133.912 87.0818 134.063 86.627 134.063ZM56.6747 49.8283C56.3131 49.8283 55.9632 49.9449 55.6599 50.1782C55.2517 50.4931 54.9718 50.9713 54.9018 51.5078L52.9656 66.0641L44.9877 126.004C44.8477 127.053 45.5125 128.021 46.469 128.15L86.417 133.643C86.8486 133.702 87.2918 133.585 87.6534 133.305C88.0616 132.99 88.3299 132.512 88.4115 131.975L92.6687 100.017L98.3373 57.4796C98.4772 56.4299 97.8124 55.4618 96.856 55.3335L56.8846 49.8516C56.8146 49.8399 56.7447 49.8283 56.6747 49.8283Z" fill="#31313C"/>
<path d="M77.8721 50.773C77.9305 50.3181 77.6389 49.8982 77.2307 49.8399C76.8108 49.7816 76.4259 50.1081 76.3675 50.563C76.3092 51.0179 76.6008 51.4378 77.009 51.4961C77.4173 51.5428 77.8138 51.2278 77.8721 50.773Z" fill="#31313B"/>
<path d="M61.9375 135.393L69.6005 136.443C70.1137 136.512 70.6036 136.116 70.6736 135.556L70.7902 134.705C70.8602 134.145 70.4986 133.62 69.9854 133.55L62.3224 132.5C61.8092 132.43 61.3193 132.827 61.2493 133.387L61.1327 134.238C61.0627 134.798 61.4243 135.311 61.9375 135.393Z" fill="white"/>
<path d="M70.0082 133.34L69.3784 133.258L69.1801 133.235L68.7718 133.177L62.3568 132.29C61.762 132.209 61.2021 132.64 61.0738 133.282C61.0738 133.317 61.0622 133.34 61.0622 133.375L60.9455 134.226C60.8522 134.903 61.2954 135.533 61.9136 135.614L67.8504 136.431L68.3986 136.501L69.565 136.664C70.1948 136.746 70.7663 136.268 70.8596 135.591L70.9763 134.74C71.0696 134.04 70.638 133.422 70.0082 133.34ZM70.5914 134.67L70.4747 135.521C70.4164 135.964 70.0315 136.279 69.6233 136.233L68.5269 136.081L67.9787 136.011L61.9719 135.183C61.5637 135.125 61.2838 134.716 61.3421 134.273L61.4587 133.422C61.4704 133.375 61.4704 133.317 61.4937 133.27C61.6104 132.908 61.9486 132.664 62.3102 132.71L66.1942 133.247L68.6669 133.585L69.2734 133.667L69.9732 133.76C70.3698 133.818 70.6497 134.226 70.5914 134.67Z" fill="#31313B"/>
<path d="M102.382 106.082C104.178 105.394 106.919 101.755 104.202 97.2759C103.234 95.678 96.4686 92.4588 95.5472 100.787C94.8007 107.563 99.8977 107.038 102.382 106.082Z" fill="white"/>
<path d="M99.5236 106.793C98.5439 106.793 97.5991 106.572 96.8526 106C95.6046 105.044 95.1264 103.283 95.3947 100.775C95.8379 96.786 97.5991 95.573 98.9988 95.2698C101.227 94.7799 103.746 96.2612 104.317 97.2059C105.81 99.667 105.6 101.731 105.169 103.026C104.586 104.741 103.373 105.872 102.44 106.234L102.381 106.094L102.44 106.234C101.576 106.56 100.538 106.793 99.5236 106.793ZM99.9552 95.4564C99.6636 95.4564 99.372 95.4797 99.0804 95.5497C97.2025 95.9696 96.0362 97.7775 95.7096 100.798C95.4413 103.201 95.8962 104.869 97.0509 105.755C97.984 106.467 99.8619 106.898 102.346 105.942C103.198 105.615 104.364 104.531 104.912 102.921C105.332 101.685 105.53 99.7136 104.096 97.3576C103.606 96.5994 101.786 95.4564 99.9552 95.4564Z" fill="#31313B"/>
<path d="M102.888 104.204C102.865 104.204 102.841 104.204 102.818 104.192C102.748 104.157 102.713 104.064 102.748 103.994C104.603 100.39 103.133 97.6142 103.121 97.5908C103.086 97.5208 103.11 97.4275 103.18 97.3925C103.25 97.3575 103.343 97.3809 103.378 97.4509C103.389 97.4859 103.774 98.1973 103.926 99.387C104.066 100.472 104.008 102.186 103.005 104.134C102.993 104.181 102.946 104.204 102.888 104.204Z" fill="#31313B"/>
<path d="M75.5965 25.3905C78.5913 28.9233 83.2536 30.2834 87.7054 29.9517C92.1896 29.6199 97.0947 27.6296 99.7982 23.7983C100.98 22.1231 101.822 19.9006 101.109 17.8605C100.494 16.0692 98.6002 15.4224 97.0785 16.5834C95.1197 18.0927 95.3949 21.1611 96.0748 23.2675C96.7386 25.291 98.066 27.2481 99.9924 28.177C102.631 29.4541 105.318 28.1272 107.455 26.4686C109.884 24.5778 111.923 22.2226 113.51 19.5523C113.655 19.3201 113.283 19.0879 113.137 19.3366C111.923 21.3767 110.45 23.2343 108.734 24.8432C106.953 26.5018 104.671 28.3594 102.129 28.2931C100.041 28.2267 98.3412 26.7506 97.3051 24.9925C96.2205 23.1182 95.5244 20.4479 96.3338 18.3415C96.7871 17.1639 98.0013 16.1024 99.3125 16.5004C100.251 16.7824 100.721 17.7278 100.883 18.64C101.255 20.7796 100.106 22.9358 98.7459 24.4617C96.0263 27.5467 91.8173 29.2053 87.8349 29.5204C83.4478 29.8687 78.8665 28.5916 75.9202 25.092C75.726 24.8598 75.4184 25.1749 75.5965 25.3905Z" fill="#F2C94C"/>
<path d="M121.801 4.90204C125.172 2.19607 129.382 -0.638201 133.931 0.551492C134.958 0.819757 136.054 1.30963 136.765 2.13775C137.43 2.91922 137.663 4.75041 136.275 4.93703C135.809 4.99535 135.272 4.79707 135.121 4.33052C134.888 3.64236 135.599 3.01253 136.124 2.70927C137.115 2.14941 138.352 2.00945 139.471 2.11442C142.096 2.33603 144.312 3.89896 146.341 5.45023C146.493 5.56687 146.644 5.31027 146.493 5.18197C144.253 3.46741 141.734 1.75285 138.795 1.77618C137.64 1.78784 136.275 2.04444 135.401 2.8609C134.794 3.42075 134.479 4.42383 135.261 4.99535C135.926 5.47356 136.894 5.27528 137.337 4.59878C137.908 3.72401 137.593 2.6043 136.94 1.86949C135.249 -0.00836408 132.17 -0.253301 129.849 0.189918C126.711 0.796429 124.052 2.74426 121.614 4.70376C121.428 4.80873 121.649 5.01868 121.801 4.90204Z" fill="#F2C94C"/>
<path d="M39.8612 49.5441C39.7912 45.8817 40.8176 42.2893 42.8005 39.2218C42.9054 39.0585 42.6488 38.9068 42.5322 39.0701C40.5144 42.1843 39.4763 45.8467 39.5463 49.5441C39.558 49.7307 39.8612 49.7307 39.8612 49.5441Z" fill="#F2C94C"/>
<path d="M171.614 19.2877C173.398 20.3724 174.693 22.017 175.743 23.7899C176.839 25.6444 177.714 27.6389 178.437 29.6683C179.907 33.7623 180.677 38.1128 180.712 42.4634C180.735 44.9711 180.513 47.4671 180.047 49.9165C180.012 50.1031 180.303 50.1847 180.338 49.9981C181.983 41.2504 180.595 31.8261 176.221 24.0348C175.113 22.0636 173.713 20.2208 171.754 19.0194C171.602 18.9261 171.451 19.1944 171.614 19.2877Z" fill="#F2C94C"/>
<path d="M88.8237 43.3185C88.6954 41.9655 88.5671 40.6008 88.4388 39.2479C88.4038 38.8863 87.8323 38.8863 87.8673 39.2479C87.9956 40.6008 88.1239 41.9655 88.2522 43.3185C88.2871 43.6801 88.8587 43.6801 88.8237 43.3185Z" fill="#F2C94C"/>
<path d="M93.1804 43.3186C94.3585 40.8809 95.5482 38.4432 96.7262 35.9938C96.8895 35.6672 96.3996 35.3756 96.2363 35.7022C95.0583 38.1399 93.8686 40.5776 92.6906 43.027C92.5273 43.3536 93.0172 43.6452 93.1804 43.3186Z" fill="#F2C94C"/>
<path d="M98.9906 44.9165C99.2706 44.7415 99.5621 44.5782 99.8421 44.4032C100.157 44.2166 99.8654 43.7268 99.5505 43.9134C99.2705 44.0883 98.979 44.2516 98.699 44.4266C98.3841 44.6132 98.6757 45.1031 98.9906 44.9165Z" fill="#F2C94C"/>
<path d="M150.906 17.7751C150.416 16.3521 149.926 14.9291 149.448 13.5061C149.332 13.1679 148.783 13.3079 148.9 13.6578C149.39 15.0807 149.88 16.5037 150.358 17.9267C150.475 18.2649 151.023 18.1133 150.906 17.7751Z" fill="#F2C94C"/>
<path d="M154.531 16.6322C154.601 14.3111 154.671 11.9901 154.729 9.66901C154.741 9.30743 154.169 9.30743 154.158 9.66901C154.088 11.9901 154.018 14.3111 153.96 16.6322C153.948 17.0055 154.519 16.9938 154.531 16.6322Z" fill="#F2C94C"/>
<rect x="54.9845" y="49.6968" width="44.1762" height="78.8173" rx="2" transform="rotate(7.83917 54.9845 49.6968)" fill="#828282"/>
<rect x="57.8439" y="52.7096" width="37.3375" height="37.3375" rx="2" transform="rotate(7.83917 57.8439 52.7096)" fill="white"/>
<path d="M76.0942 97.0896L53.0556 94.0078C52.7752 93.9639 52.5757 93.7134 52.6195 93.433C52.6634 93.1526 52.9139 92.9531 53.1942 92.9969L76.2328 96.0788C76.5132 96.1226 76.7128 96.3731 76.6689 96.6535C76.6251 96.9339 76.3746 97.1334 76.0942 97.0896Z" fill="white"/>
<path d="M66.1654 99.2084L52.592 97.5445C52.3667 97.5216 52.2128 97.3133 52.2357 97.088L52.2627 96.8884C52.2857 96.6631 52.4939 96.5092 52.7192 96.5322L66.2927 98.1961C66.518 98.2191 66.6718 98.4273 66.6489 98.6526L66.6219 98.8522C66.5879 99.0739 66.376 99.2389 66.1654 99.2084Z" fill="white"/>
<path d="M71.3744 119.985C71.8417 120.374 71.7126 121.123 71.1422 121.333L64.2806 123.861C63.7102 124.071 63.1261 123.585 63.2293 122.986L64.4708 115.779C64.5741 115.18 65.2871 114.918 65.7543 115.306L71.3744 119.985Z" fill="white"/>
<path d="M51.0939 104L87.0939 109" stroke="#E0E0E0"/>
<path d="M51.0939 104L65.0939 106" stroke="white" stroke-width="2"/>
<path d="M76.8913 73.1607C76.8353 73.6429 76.6764 74.0937 76.4467 74.488C75.7899 75.6018 74.5154 76.2859 73.15 76.1272C71.7847 75.9686 70.701 75.0104 70.3171 73.7756C70.1792 73.3386 70.1328 72.8639 70.1888 72.3818C70.2721 71.6657 70.5735 71.0282 71.0187 70.5284L72.5629 72.4787C73.0101 73.0435 73.8264 73.1384 74.3912 72.6911L76.4534 71.0584C76.8123 71.6758 76.9795 72.4017 76.8913 73.1607Z" fill="#EFB92E"/>
<path fill-rule="evenodd" clip-rule="evenodd" d="M82.9988 65.8776C82.6857 65.4493 82.3459 65.0421 81.9748 64.6554C81.9748 64.6554 81.97 64.6549 81.9705 64.6501C81.8966 64.5786 81.828 64.5029 81.754 64.4314C81.754 64.4314 81.7498 64.4261 81.7451 64.4255C81.3028 64.0258 80.7347 63.7517 80.0998 63.6779C78.5388 63.4965 77.1185 64.5604 76.8343 66.0901L76.8209 66.2047L79.0312 66.4615L79.0503 66.4638L79.0694 66.466C79.3171 66.4996 79.532 66.6068 79.7027 66.7621C79.7597 66.8123 79.8062 66.8709 79.8526 66.9295C80.0197 67.157 80.1068 67.4478 80.0719 67.7485C80.0369 68.0493 79.8902 68.3128 79.6754 68.4959L78.5701 69.3883L77.7016 70.076C78.3093 71.0079 78.6071 72.1505 78.4684 73.3439C78.4135 73.8165 78.2934 74.2671 78.1194 74.6823C77.2883 76.671 75.2183 77.9545 72.9746 77.6937C70.7309 77.433 69.0057 75.7084 68.6577 73.5827C68.5835 73.1386 68.5699 72.6725 68.6248 72.1999C68.7585 71.0494 69.2726 70.0399 70.0338 69.2768L69.2986 68.3592L68.4548 67.2935L68.4601 67.2893C68.2458 67.0515 68.1291 66.7234 68.1696 66.3749C68.2079 66.0456 68.3813 65.7609 68.6253 65.5764C68.6946 65.5215 68.7723 65.4773 68.8537 65.4432C68.8537 65.4432 68.8584 65.4438 68.859 65.439C69.0122 65.3697 69.1806 65.3361 69.3541 65.3417C69.3881 65.3408 69.4263 65.3453 69.4597 65.3492C69.4931 65.353 69.5265 65.3569 69.5594 65.3656L71.8556 65.6324L71.8623 65.5752C71.9524 64.0084 70.8019 62.6264 69.2217 62.4427C68.5438 62.3639 67.8871 62.5198 67.3414 62.8435C67.2893 62.8761 67.2371 62.9088 67.1843 62.9462C66.7083 63.2538 66.2523 63.5975 65.8263 63.9738C63.7201 65.8191 62.266 68.4225 61.9176 71.4204C61.1714 77.8412 65.7701 83.6494 72.1909 84.3956C78.6117 85.1418 84.4199 80.5431 85.1661 74.1223C85.5195 71.0814 84.6723 68.1719 82.9988 65.8776ZM67.4155 79.3168C67.5212 79.4065 67.6589 79.4709 67.8116 79.4887C68.2174 79.5358 68.5904 79.2405 68.6423 78.8353C68.669 78.6061 68.5872 78.3934 68.4458 78.2367L68.45 78.242C68.4416 78.2314 68.4284 78.2201 68.4151 78.2089L68.4104 78.2084C68.4019 78.1977 68.3882 78.1913 68.3797 78.1806C67.0603 76.9193 66.2167 75.1859 66.0882 73.2937C66.0817 73.2252 66.0793 73.1621 66.077 73.0989C66.0756 73.0697 66.0736 73.0453 66.0721 73.0161L66.0727 73.0113C66.0667 72.938 66.0511 72.8637 66.0202 72.7972C66.0128 72.7769 66.0002 72.761 65.9928 72.7408C65.9802 72.7248 65.9729 72.7046 65.9602 72.6886C65.9481 72.6678 65.9354 72.6518 65.9228 72.6359L65.9017 72.6092C65.7824 72.4696 65.6105 72.3673 65.41 72.344C65.3575 72.3379 65.3139 72.3377 65.2651 72.3417C65.187 72.3471 65.1127 72.3627 65.0414 72.3931C64.7973 72.4954 64.6168 72.7163 64.584 72.998C64.5818 73.0171 64.5838 73.0415 64.5816 73.0606C64.5777 73.094 64.5839 73.1237 64.5848 73.1577C64.6864 75.5306 65.7205 77.7071 67.3716 79.2779C67.3896 79.2896 67.4023 79.3056 67.4155 79.3168Z" fill="#EFB92E"/>
<path fill-rule="evenodd" clip-rule="evenodd" d="M72.9268 77.688L72.1478 84.3906C65.7491 83.6238 61.1722 77.8271 61.9168 71.4204C62.2652 68.4224 63.7193 65.819 65.8255 63.9737C66.2515 63.5974 66.7075 63.2537 67.1835 62.9461C67.2363 62.9087 67.2884 62.8761 67.3406 62.8434C67.8862 62.5198 68.543 62.3639 69.2209 62.4426C70.801 62.6263 71.9516 64.0083 71.8614 65.5751L71.8548 65.6324L69.5586 65.3655C69.5257 65.3569 69.4923 65.353 69.4589 65.3491C69.4255 65.3452 69.3873 65.3408 69.3533 65.3417C69.1798 65.336 69.0114 65.3697 68.8582 65.4389C68.8576 65.4437 68.8528 65.4432 68.8528 65.4432C68.7715 65.4772 68.6938 65.5214 68.6245 65.5763C68.3805 65.7608 68.2071 66.0455 68.1688 66.3749C68.1283 66.7234 68.245 67.0514 68.4593 67.2892L68.454 67.2934L69.2978 68.3591L70.033 69.2768C69.2718 70.0398 68.7577 71.0494 68.624 72.1999C68.5691 72.6725 68.5827 73.1385 68.6568 73.5826C69.0025 75.6935 70.706 77.4088 72.9268 77.688ZM67.8108 79.4886C67.658 79.4708 67.5204 79.4065 67.4147 79.3168C67.4099 79.3127 67.4053 79.3081 67.4004 79.3033C67.3917 79.2946 67.3824 79.2853 67.3708 79.2778C65.7197 77.707 64.6856 75.5305 64.584 73.1576C64.5837 73.1456 64.5827 73.1342 64.5817 73.1229C64.58 73.1022 64.5783 73.0821 64.5808 73.0605C64.5819 73.051 64.5819 73.0401 64.582 73.0292C64.582 73.0183 64.5821 73.0074 64.5832 72.9979C64.6159 72.7162 64.7964 72.4953 65.0406 72.393C65.1118 72.3626 65.1862 72.3471 65.2643 72.3416C65.3131 72.3376 65.3566 72.3378 65.4091 72.3439C65.6096 72.3672 65.7816 72.4695 65.9009 72.6091L65.922 72.6358C65.9346 72.6518 65.9473 72.6677 65.9594 72.6885C65.9657 72.6965 65.9707 72.7055 65.9757 72.7146C65.9807 72.7236 65.9857 72.7327 65.992 72.7407C65.9957 72.7508 66.0007 72.7598 66.0057 72.7689C66.0107 72.7779 66.0157 72.787 66.0193 72.7971C66.0503 72.8636 66.0659 72.938 66.0719 73.0112L66.0713 73.016C66.072 73.0306 66.0729 73.044 66.0737 73.0574C66.0746 73.0708 66.0755 73.0842 66.0762 73.0988C66.0785 73.162 66.0809 73.2252 66.0874 73.2937C66.2159 75.1858 67.0595 76.9192 68.3789 78.1805C68.3831 78.1859 68.3887 78.1901 68.3942 78.1944C68.3998 78.1987 68.4053 78.203 68.4096 78.2083L68.4143 78.2089C68.4275 78.2201 68.4407 78.2313 68.4492 78.2419L68.445 78.2366C68.5864 78.3934 68.6681 78.6061 68.6415 78.8352C68.5896 79.2404 68.2166 79.5358 67.8108 79.4886Z" fill="#EFB92E"/>
<path fill-rule="evenodd" clip-rule="evenodd" d="M68.6547 71.9935L61.945 71.2137C62.3351 68.303 63.7703 65.7769 65.8278 63.9742C66.2538 63.5979 66.7098 63.2542 67.1859 62.9466C67.2386 62.9092 67.2908 62.8766 67.3429 62.8439C67.8886 62.5203 68.5454 62.3644 69.2232 62.4432C70.8034 62.6268 71.9539 64.0088 71.8638 65.5756L71.8571 65.6329L69.5609 65.366C69.5281 65.3574 69.4946 65.3535 69.4612 65.3496C69.4278 65.3457 69.3896 65.3413 69.3556 65.3422C69.1821 65.3365 69.0137 65.3702 68.8605 65.4395C68.86 65.4442 68.8552 65.4437 68.8552 65.4437C68.7738 65.4778 68.6961 65.522 68.6268 65.5768C68.3828 65.7613 68.2094 66.046 68.1711 66.3754C68.1306 66.7239 68.2473 67.0519 68.4616 67.2897L68.4563 67.2939L69.3001 68.3597L70.0353 69.2773C69.3201 69.9943 68.823 70.9289 68.6547 71.9935Z" fill="#EFB92E"/>
</svg>
