<svg width="500" height="500" viewBox="0 0 500 500" fill="none" xmlns="http://www.w3.org/2000/svg">
<g opacity="0.7">
<path d="M104.719 73.3078C104.719 75.0792 104.331 76.7804 103.66 78.3062C101.736 82.6207 97.3756 85.6373 92.3268 85.6373C87.2781 85.6373 82.9179 82.6207 80.9937 78.3062C80.3053 76.7804 79.9346 75.0792 79.9346 73.3078C79.9346 70.6771 80.7643 68.2393 82.1765 66.2399L88.6374 72.6589C90.5086 74.518 93.5272 74.518 95.3984 72.6589L102.23 65.8716C103.801 67.9586 104.719 70.5192 104.719 73.3078Z" fill="#F2F2F2"/>
<path fill-rule="evenodd" clip-rule="evenodd" d="M123.908 44.3339C122.584 42.9133 121.172 41.5804 119.654 40.3352C119.654 40.3352 119.636 40.3352 119.636 40.3176C119.336 40.0896 119.054 39.8441 118.754 39.6161C118.754 39.6161 118.736 39.5986 118.718 39.5986C116.935 38.3358 114.746 37.5817 112.399 37.5817C106.626 37.5817 101.895 42.0364 101.507 47.7013V48.1222H109.68H109.751H109.821C110.739 48.1397 111.569 48.4379 112.257 48.929C112.487 49.0868 112.681 49.2797 112.875 49.4726C113.581 50.2268 114.023 51.244 114.023 52.3489C114.023 53.4538 113.599 54.4711 112.893 55.2252L109.239 58.9258L106.361 61.7845C108.974 64.9064 110.545 68.9227 110.545 73.3072C110.545 75.0435 110.298 76.7272 109.839 78.3056C107.65 85.8647 100.642 91.3892 92.345 91.3892C84.0482 91.3892 77.0224 85.8647 74.8511 78.3056C74.3921 76.7272 74.145 75.0435 74.145 73.3072C74.145 69.0805 75.5925 65.2045 78.0462 62.1178L74.9747 59.1012L71.4441 55.5935L71.4617 55.576C70.5791 54.8043 70.0142 53.6643 70.0142 52.384C70.0142 51.1739 70.5261 50.069 71.3382 49.2973C71.5677 49.0693 71.8325 48.8763 72.1149 48.7185C72.1149 48.7185 72.1326 48.7185 72.1326 48.701C72.6621 48.3853 73.2623 48.1924 73.8978 48.1397C74.0214 48.1222 74.1626 48.1222 74.2862 48.1222C74.4098 48.1222 74.5333 48.1222 74.6569 48.1397H83.1479V47.9293C82.8125 42.2118 78.0286 37.6869 72.1855 37.6869C69.6788 37.6869 67.3486 38.5287 65.4951 39.9318C65.3186 40.0721 65.142 40.2124 64.9655 40.3703C63.3591 41.6856 61.841 43.1238 60.4464 44.6672C53.5441 52.2437 49.3428 62.2932 49.3428 73.3072C49.3428 96.8963 68.5843 116.013 92.3274 116.013C116.07 116.013 135.312 96.8963 135.312 73.3072C135.312 62.1353 130.987 51.9456 123.908 44.3339ZM72.7504 99.6147C73.1741 99.8953 73.7037 100.071 74.2685 100.071C75.769 100.071 77.0047 98.843 77.0224 97.3523C77.0224 96.5104 76.634 95.7738 76.0515 95.2652L76.0691 95.2827C76.0338 95.2477 75.9809 95.2126 75.9279 95.1775H75.9103C75.8749 95.1424 75.822 95.1249 75.7867 95.0898C70.4379 91.0736 66.6249 85.1456 65.3539 78.3407C65.3009 78.0952 65.2656 77.8672 65.2303 77.6392C65.2126 77.534 65.195 77.4463 65.1773 77.341V77.3235C65.1244 77.0604 65.0361 76.7973 64.8949 76.5694C64.8596 76.4992 64.8066 76.4466 64.7713 76.3764C64.7184 76.3238 64.6831 76.2537 64.6301 76.2011C64.5771 76.1309 64.5242 76.0783 64.4712 76.0257L64.383 75.938C63.8887 75.482 63.2179 75.1838 62.4765 75.1838C62.2823 75.1838 62.1234 75.2014 61.9469 75.2364C61.6644 75.2891 61.3996 75.3767 61.1525 75.5171C60.3052 75.9906 59.7403 76.8675 59.7403 77.9023C59.7403 77.9724 59.7579 78.0601 59.7579 78.1303C59.7579 78.253 59.7932 78.3583 59.8109 78.481C61.1878 87.0397 65.8835 94.4935 72.5739 99.4919C72.6445 99.527 72.6974 99.5796 72.7504 99.6147Z" fill="#F2F2F2"/>
<path fill-rule="evenodd" clip-rule="evenodd" d="M92.171 91.3884V116.013C68.4999 115.929 49.3428 96.8445 49.3428 73.3072C49.3428 62.2932 53.5441 52.2437 60.4464 44.6671C61.841 43.1238 63.3591 41.6856 64.9655 40.3703C65.142 40.2124 65.3186 40.0721 65.4951 39.9318C67.3486 38.5287 69.6788 37.6869 72.1855 37.6869C78.0286 37.6869 82.8125 42.2118 83.1479 47.9293V48.1397H74.6569C74.5333 48.1222 74.4098 48.1222 74.2862 48.1222C74.1626 48.1222 74.0214 48.1222 73.8978 48.1397C73.2623 48.1923 72.6621 48.3853 72.1325 48.701C72.1325 48.7185 72.1149 48.7185 72.1149 48.7185C71.8325 48.8763 71.5677 49.0693 71.3382 49.2973C70.5261 50.0689 70.0142 51.1739 70.0142 52.384C70.0142 53.6643 70.5791 54.8043 71.4617 55.576L71.4441 55.5935L74.9747 59.1012L78.0462 62.1178C75.5925 65.2045 74.145 69.0805 74.145 73.3072C74.145 75.0435 74.3921 76.7272 74.8511 78.3056C77.0072 85.8118 83.9501 91.3118 92.171 91.3884ZM74.2685 100.071C73.7037 100.071 73.1741 99.8953 72.7504 99.6147C72.7314 99.6021 72.7124 99.5873 72.6926 99.5718C72.6572 99.5441 72.6191 99.5144 72.5739 99.4919C65.8835 94.4935 61.1878 87.0397 59.8109 78.481C59.8046 78.4377 59.7962 78.3965 59.7879 78.356C59.7727 78.2817 59.7579 78.2097 59.7579 78.1303C59.7579 78.0952 59.7535 78.0557 59.7491 78.0163C59.7447 77.9768 59.7403 77.9373 59.7403 77.9023C59.7403 76.8675 60.3052 75.9906 61.1525 75.517C61.3996 75.3767 61.6644 75.2891 61.9469 75.2364C62.1234 75.2014 62.2823 75.1838 62.4765 75.1838C63.2179 75.1838 63.8887 75.482 64.383 75.938L64.4712 76.0257C64.5242 76.0783 64.5771 76.1309 64.6301 76.201C64.6566 76.2274 64.6786 76.2581 64.7007 76.2887C64.7228 76.3194 64.7448 76.3501 64.7713 76.3764C64.789 76.4115 64.811 76.4422 64.8331 76.4729C64.8552 76.5036 64.8772 76.5343 64.8949 76.5693C65.0361 76.7973 65.1244 77.0604 65.1773 77.3235V77.341C65.1862 77.3937 65.195 77.4419 65.2038 77.4901C65.2126 77.5383 65.2215 77.5866 65.2303 77.6392C65.2656 77.8672 65.3009 78.0952 65.3539 78.3407C66.6249 85.1456 70.4379 91.0736 75.7867 95.0898C75.8043 95.1074 75.8264 95.1205 75.8485 95.1337C75.8705 95.1468 75.8926 95.16 75.9102 95.1775H75.9279C75.9808 95.2126 76.0338 95.2477 76.0691 95.2827L76.0515 95.2652C76.634 95.7738 77.0224 96.5104 77.0224 97.3523C77.0047 98.843 75.769 100.071 74.2685 100.071Z" fill="#F2F2F2"/>
<path fill-rule="evenodd" clip-rule="evenodd" d="M74.1608 72.5454H49.3496C49.5385 61.8302 53.7037 52.0687 60.4465 44.6671C61.8411 43.1238 63.3592 41.6856 64.9656 40.3703C65.1422 40.2124 65.3187 40.0721 65.4952 39.9318C67.3488 38.5287 69.6789 37.6869 72.1856 37.6869C78.0287 37.6869 82.8126 42.2118 83.148 47.9293V48.1397H74.657C74.5335 48.1222 74.4099 48.1222 74.2863 48.1222C74.1627 48.1222 74.0215 48.1222 73.898 48.1397C73.2625 48.1923 72.6623 48.3853 72.1327 48.701C72.1327 48.7185 72.115 48.7185 72.115 48.7185C71.8326 48.8763 71.5678 49.0693 71.3383 49.2973C70.5263 50.0689 70.0143 51.1739 70.0143 52.384C70.0143 53.6643 70.5792 54.8043 71.4619 55.576L71.4442 55.5935L74.9748 59.1012L78.0464 62.1178C75.7408 65.0181 74.3236 68.6153 74.1608 72.5454Z" fill="#F2F2F2"/>
</g>
<path d="M363.834 352.238C364.229 352.238 364.426 352.431 364.426 352.817V359.189C364.426 359.576 364.229 359.769 363.834 359.769H361.226C359.962 359.769 358.797 359.556 357.73 359.131C357.612 361.912 357.098 364.229 356.19 366.083C355.281 367.937 353.859 369.598 351.923 371.065C350.027 372.533 347.321 374.097 343.805 375.758L341.079 369.791C343.924 368.207 345.938 366.952 347.123 366.025C348.348 365.098 349.197 364.036 349.671 362.839C350.185 361.642 350.442 359.962 350.442 357.799V339.087H357.73V348.82C357.73 349.785 358.066 350.596 358.738 351.253C359.409 351.909 360.239 352.238 361.226 352.238H363.834Z" fill="white"/>
<path d="M366.308 327.211H373.122V333.873H366.308V327.211ZM376.203 327.211H383.018V333.873H376.203V327.211ZM363.226 352.817C363.226 352.431 363.424 352.238 363.819 352.238H367.552C368.54 352.238 369.349 351.909 369.982 351.253C370.653 350.596 370.989 349.785 370.989 348.82V339.087H378.277V348.82C378.277 349.785 378.613 350.596 379.285 351.253C379.956 351.909 380.786 352.238 381.774 352.238H385.507C385.902 352.238 386.099 352.431 386.099 352.817V359.189C386.099 359.576 385.902 359.769 385.507 359.769H381.774C378.732 359.769 376.362 358.687 374.663 356.525C373.833 357.567 372.806 358.378 371.581 358.958C370.396 359.498 369.053 359.769 367.552 359.769H363.819C363.424 359.769 363.226 359.576 363.226 359.189V352.817Z" fill="white"/>
<path d="M412.896 318V324.662H406.081V318H412.896ZM407.918 327.617V334.279H401.104V327.617H407.918ZM411 334.279V327.617H417.814V334.279H411ZM433.458 352.238C433.853 352.238 434.05 352.431 434.05 352.817V359.189C434.05 359.576 433.853 359.769 433.458 359.769H430.851C427.848 359.769 425.478 358.668 423.74 356.467C422.95 357.548 421.942 358.398 420.718 359.016C419.533 359.595 418.17 359.885 416.629 359.885C415.088 359.885 413.706 359.595 412.481 359.016C411.296 358.436 410.308 357.606 409.518 356.525C407.819 358.765 405.429 359.885 402.348 359.885C400.807 359.885 399.425 359.595 398.2 359.016C397.015 358.398 396.008 357.548 395.178 356.467C393.44 358.668 391.089 359.769 388.127 359.769H385.519C385.124 359.769 384.927 359.576 384.927 359.189V352.817C384.927 352.431 385.124 352.238 385.519 352.238H388.127C389.114 352.238 389.944 351.909 390.615 351.253C391.287 350.596 391.623 349.785 391.623 348.82V339.087H398.911V348.935C398.911 349.901 399.227 350.712 399.859 351.369C400.531 352.025 401.361 352.353 402.348 352.353C403.336 352.353 404.165 352.025 404.837 351.369C405.508 350.712 405.844 349.901 405.844 348.935V339.087H413.133V348.935C413.133 349.901 413.469 350.712 414.14 351.369C414.812 352.025 415.641 352.353 416.629 352.353C417.617 352.353 418.426 352.025 419.058 351.369C419.73 350.712 420.066 349.901 420.066 348.935V337.349H427.354V348.82C427.354 349.785 427.69 350.596 428.362 351.253C429.033 351.909 429.863 352.238 430.851 352.238H433.458Z" fill="white"/>
<path d="M432.841 352.817C432.841 352.431 433.039 352.238 433.434 352.238H437.167C438.154 352.238 438.964 351.909 439.596 351.253C440.268 350.596 440.604 349.785 440.604 348.82V339.087H447.892V348.82C447.892 349.785 448.228 350.596 448.9 351.253C449.571 351.909 450.401 352.238 451.388 352.238H455.122C455.517 352.238 455.714 352.431 455.714 352.817V359.189C455.714 359.576 455.517 359.769 455.122 359.769H451.388C448.347 359.769 445.976 358.687 444.278 356.525C443.448 357.567 442.421 358.378 441.196 358.958C440.011 359.498 438.668 359.769 437.167 359.769H433.434C433.039 359.769 432.841 359.576 432.841 359.189V352.817ZM435.863 364.925H442.678V371.587H435.863V364.925ZM445.759 364.925H452.574V371.587H445.759V364.925Z" fill="white"/>
<path d="M455.134 359.769C454.739 359.769 454.542 359.576 454.542 359.189V352.817C454.542 352.431 454.739 352.238 455.134 352.238H461.178C462.126 352.238 462.936 351.909 463.608 351.253C464.279 350.558 464.615 349.727 464.615 348.762V337.349H471.904V349.225C471.904 351.156 471.43 352.933 470.482 354.555C469.533 356.138 468.23 357.413 466.571 358.378C464.951 359.305 463.153 359.769 461.178 359.769H455.134ZM457.86 364.925H464.674V371.587H457.86V364.925Z" fill="white"/>
<path d="M106.8 437.764C105.536 437.764 104.41 437.281 103.422 436.316C102.474 435.35 102 434.249 102 433.014C102 431.7 102.454 430.58 103.363 429.654C104.311 428.727 105.457 428.263 106.8 428.263C108.222 428.263 109.368 428.746 110.237 429.711C111.145 430.638 111.6 431.739 111.6 433.014C111.6 434.365 111.106 435.505 110.118 436.432C109.17 437.32 108.064 437.764 106.8 437.764Z" fill="white"/>
<path d="M124.102 437.764C122.838 437.764 121.712 437.281 120.725 436.316C119.776 435.35 119.302 434.249 119.302 433.014C119.302 431.7 119.757 430.58 120.665 429.654C121.613 428.727 122.759 428.263 124.102 428.263C125.524 428.263 126.67 428.746 127.539 429.711C128.448 430.638 128.902 431.739 128.902 433.014C128.902 434.365 128.408 435.505 127.421 436.432C126.472 437.32 125.366 437.764 124.102 437.764Z" fill="white"/>
<path d="M141.405 437.764C140.141 437.764 139.015 437.281 138.027 436.316C137.079 435.35 136.605 434.249 136.605 433.014C136.605 431.7 137.059 430.58 137.968 429.654C138.916 428.727 140.062 428.263 141.405 428.263C142.827 428.263 143.972 428.746 144.842 429.711C145.75 430.638 146.204 431.739 146.204 433.014C146.204 434.365 145.711 435.505 144.723 436.432C143.775 437.32 142.669 437.764 141.405 437.764Z" fill="white"/>
<path d="M166.944 429.48C167.931 429.48 168.761 429.19 169.433 428.611C170.144 428.031 170.499 427.259 170.499 426.294C170.499 426.023 170.381 425.502 170.144 424.729L164.692 410.073L171.566 407.524L178.677 426.757C179.032 427.607 179.526 428.282 180.158 428.785C180.79 429.248 181.56 429.48 182.469 429.48H183.002C183.397 429.48 183.595 429.673 183.595 430.059V436.432C183.595 436.818 183.397 437.011 183.002 437.011H182.113C180.494 437.011 179.032 436.663 177.728 435.968C176.425 435.273 175.477 434.423 174.884 433.419C173.738 434.694 172.553 435.621 171.329 436.2C170.144 436.741 168.682 437.011 166.944 437.011H153.078V429.48H166.944Z" fill="white"/>
<path d="M182.982 437.011C182.587 437.011 182.39 436.818 182.39 436.432V430.059C182.39 429.673 182.587 429.48 182.982 429.48H188.73C189.678 429.48 190.488 429.151 191.16 428.495C191.831 427.8 192.167 426.969 192.167 426.004V414.591H199.456V426.467C199.456 428.398 198.982 430.175 198.034 431.797C197.085 433.38 195.782 434.655 194.123 435.621C192.503 436.547 190.705 437.011 188.73 437.011H182.982ZM183.042 442.167H189.856V448.829H183.042V442.167ZM192.937 442.167H199.752V448.829H192.937V442.167Z" fill="white"/>
<path d="M205.163 398.255H212.451V437.011H205.163V398.255Z" fill="white"/>
<path d="M232.673 433.535C231.527 432.415 230.658 431.16 230.065 429.769C229.512 428.379 229.236 426.95 229.236 425.482C229.236 423.86 229.572 422.296 230.243 420.79C230.915 419.245 231.883 417.855 233.147 416.619L236.406 413.375L233.799 410.884L239.013 405.902L250.035 416.619C251.259 417.855 252.188 419.245 252.82 420.79C253.491 422.296 253.827 423.86 253.827 425.482C253.827 426.95 253.531 428.379 252.938 429.769C252.385 431.16 251.536 432.415 250.39 433.535C249.205 434.694 247.842 435.582 246.302 436.2C244.761 436.779 243.161 437.069 241.502 437.069C239.882 437.069 238.302 436.779 236.761 436.2C235.221 435.582 233.858 434.694 232.673 433.535ZM238.183 428.205C239.132 429.132 240.277 429.596 241.62 429.596C242.924 429.596 244.05 429.132 244.998 428.205C245.907 427.317 246.361 426.274 246.361 425.077C246.361 423.841 245.867 422.702 244.879 421.659L241.561 418.357L238.243 421.601C237.255 422.567 236.761 423.687 236.761 424.961C236.761 426.197 237.235 427.278 238.183 428.205Z" fill="white"/>
<path d="M273.433 429.48C274.46 429.48 275.309 429.171 275.981 428.553C276.652 427.935 276.988 427.143 276.988 426.178C276.988 425.521 276.791 424.942 276.396 424.44C276.04 423.899 275.408 423.339 274.499 422.76L262.53 414.707L266.678 408.856L279.833 417.72C281.255 418.801 282.341 419.998 283.092 421.311C283.882 422.586 284.277 424.131 284.277 425.946C284.277 427.993 283.763 429.866 282.736 431.565C281.709 433.265 280.307 434.597 278.529 435.563C276.751 436.528 274.835 437.011 272.781 437.011H259.033V429.48H273.433Z" fill="white"/>
<path d="M289.65 398.255H296.938V437.011H289.65V398.255Z" fill="white"/>
<path d="M317.065 429.48C318.092 429.48 318.941 429.171 319.613 428.553C320.285 427.935 320.62 427.143 320.62 426.178C320.62 425.521 320.423 424.942 320.028 424.44C319.672 423.899 319.04 423.339 318.132 422.76L306.162 414.707L310.31 408.856L323.465 417.72C324.887 418.801 325.973 419.998 326.724 421.311C327.514 422.586 327.909 424.131 327.909 425.946C327.909 427.993 327.395 429.866 326.368 431.565C325.341 433.265 323.939 434.597 322.161 435.563C320.383 436.528 318.467 437.011 316.413 437.011H302.666V429.48H317.065Z" fill="white"/>
<path d="M395.24 395.126V401.788H388.426V395.126H395.24ZM390.263 404.743V411.405H383.448V404.743H390.263ZM393.344 411.405V404.743H400.158V411.405H393.344ZM408.869 414.591V437.011H398.914C395.912 437.011 393.541 435.91 391.803 433.709C391.013 434.79 390.006 435.64 388.781 436.258C387.557 436.837 386.174 437.127 384.633 437.127C382.658 437.127 381.038 436.605 379.774 435.563C378.51 439.116 376.318 441.993 373.197 444.194C370.076 446.396 366.54 447.496 362.59 447.496C359.271 447.496 356.19 446.685 353.346 445.063C350.541 443.441 348.309 441.24 346.65 438.459C344.991 435.717 344.161 432.724 344.161 429.48V418.647H351.45V429.074C351.45 431.044 351.943 432.859 352.931 434.52C353.958 436.181 355.321 437.494 357.02 438.459C358.758 439.463 360.615 439.965 362.59 439.965C364.644 439.965 366.52 439.463 368.219 438.459C369.918 437.494 371.261 436.181 372.249 434.52C373.276 432.859 373.789 431.044 373.789 429.074V416.329H381.196V426.178C381.196 427.143 381.512 427.954 382.144 428.611C382.816 429.267 383.646 429.596 384.633 429.596C385.621 429.596 386.45 429.267 387.122 428.611C387.794 427.954 388.129 427.143 388.129 426.178V416.329H395.418V426.062C395.418 427.027 395.754 427.838 396.425 428.495C397.097 429.151 397.926 429.48 398.914 429.48H401.581V414.591H408.869Z" fill="white"/>
<path d="M441.26 429.48C441.655 429.48 441.852 429.673 441.852 430.059V436.432C441.852 436.818 441.655 437.011 441.26 437.011H438.356C438.04 439.637 437.25 441.819 435.986 443.557C434.722 445.334 432.924 446.898 430.594 448.25C428.263 449.64 425.004 451.223 420.816 453L418.565 446.743C422.159 445.237 424.826 444.001 426.564 443.036C428.302 442.109 429.507 441.182 430.179 440.255C430.89 439.367 431.245 438.285 431.245 437.011H426.564C424.273 437.011 422.159 436.509 420.224 435.505C418.327 434.462 416.826 433.052 415.72 431.276C414.614 429.499 414.061 427.51 414.061 425.309C414.061 423.107 414.614 421.08 415.72 419.226C416.866 417.333 418.387 415.847 420.283 414.765C422.219 413.645 424.312 413.085 426.564 413.085C428.776 413.085 430.791 413.645 432.608 414.765C434.465 415.847 435.907 417.333 436.934 419.226C438.001 421.08 438.534 423.107 438.534 425.309V429.48H441.26ZM431.245 425.309C431.245 423.996 430.791 422.895 429.882 422.007C428.974 421.08 427.868 420.616 426.564 420.616C425.221 420.616 424.075 421.06 423.127 421.949C422.219 422.837 421.764 423.957 421.764 425.309C421.764 426.622 422.219 427.722 423.127 428.611C424.075 429.499 425.221 429.943 426.564 429.943H431.245V425.309Z" fill="white"/>
<path d="M442.727 402.194L453.156 391.419L456.712 394.895L446.283 405.67L442.727 402.194ZM441.246 437.011C440.851 437.011 440.653 436.818 440.653 436.432V430.059C440.653 429.673 440.851 429.48 441.246 429.48H460.149C461.373 429.48 462.42 429.074 463.289 428.263C464.198 427.414 464.652 426.332 464.652 425.019C464.652 423.397 463.862 422.122 462.282 421.196L448.594 412.39V406.828L460.267 394.721L465.245 399.355L456.119 408.682L466.845 415.576C468.464 416.619 469.728 417.971 470.637 419.631C471.546 421.292 472 423.146 472 425.193C472 427.317 471.467 429.287 470.4 431.102C469.333 432.917 467.872 434.365 466.015 435.447C464.198 436.489 462.203 437.011 460.03 437.011H441.246Z" fill="white"/>
</svg>
