<svg width="41" height="55" viewBox="0 0 41 55" fill="none" xmlns="http://www.w3.org/2000/svg">
<path d="M12.9737 35.2124C14.5245 33.6615 15.5021 31.6974 15.726 29.6817C15.758 29.3939 15.7724 29.1083 15.7724 28.8257H15.7737V0H11.8451V22.7393C11.0281 22.4035 10.1282 22.2258 9.18612 22.2258C6.89994 22.2258 4.56794 23.2467 2.78816 25.0266C-0.530702 28.3454 -0.946085 33.3299 1.86206 36.1383C3.07102 37.3473 4.74512 38.0131 6.57571 38.0131C8.86175 38.0131 11.1938 36.9922 12.9737 35.2124Z" fill="#828282"/>
<path d="M40.6545 0H36.726V22.7393C35.9089 22.4035 35.009 22.2258 34.067 22.2258C31.7808 22.2258 29.4488 23.2467 27.669 25.0266C24.3502 28.3454 23.9348 33.3299 26.7429 36.1383C27.9519 37.3473 29.626 38.0131 31.4566 38.0131C33.7427 38.0131 36.0747 36.9922 37.8545 35.2123C39.4054 33.6614 40.3829 31.6972 40.6069 29.6816C40.6388 29.3938 40.6532 29.1082 40.6532 28.8256H40.6545V0V0Z" fill="#828282"/>
<path d="M27.6734 48.1573C25.5109 50.0366 22.6801 51.0715 19.7021 51.0715C16.7241 51.0715 13.8932 50.0366 11.7309 48.1573C9.72289 46.4122 8.57116 44.1332 8.57116 41.9048H4.64258C4.64258 45.2712 6.28695 48.6309 9.1539 51.1225C12.0311 53.6231 15.7771 55.0001 19.7021 55.0001C23.6272 55.0001 27.3732 53.623 30.2504 51.1225C33.1174 48.631 34.7617 45.2712 34.7617 41.9048H30.8331C30.8331 44.1332 29.6814 46.4122 27.6734 48.1573Z" fill="#828282"/>
</svg>
