<svg width="118" height="118" viewBox="0 0 118 118" fill="none" xmlns="http://www.w3.org/2000/svg">
<rect width="118" height="118" rx="5" fill="#212121"/>
<path d="M51.9737 67.2124C53.5245 65.6615 54.5021 63.6974 54.726 61.6817C54.758 61.3939 54.7724 61.1083 54.7724 60.8257H54.7737V32H50.8451V54.7393C50.0281 54.4035 49.1282 54.2258 48.1861 54.2258C45.8999 54.2258 43.5679 55.2467 41.7882 57.0266C38.4693 60.3454 38.0539 65.3299 40.8621 68.1383C42.071 69.3473 43.7451 70.0131 45.5757 70.0131C47.8617 70.0131 50.1938 68.9922 51.9737 67.2124Z" fill="#4F4F4F"/>
<path d="M79.6547 32H75.7261V54.7393C74.9091 54.4035 74.0092 54.2258 73.0671 54.2258C70.7809 54.2258 68.4489 55.2467 66.6691 57.0266C63.3503 60.3454 62.9349 65.3299 65.743 68.1383C66.952 69.3473 68.6261 70.0131 70.4567 70.0131C72.7429 70.0131 75.0749 68.9922 76.8546 67.2123C78.4055 65.6614 79.3831 63.6972 79.607 61.6816C79.639 61.3938 79.6534 61.1082 79.6534 60.8256H79.6547V32V32Z" fill="#4F4F4F"/>
<path d="M66.6735 80.1572C64.5111 82.0365 61.6803 83.0714 58.7023 83.0714C55.7243 83.0714 52.8933 82.0365 50.731 80.1572C48.723 78.4121 47.5713 76.1332 47.5713 73.9047H43.6427C43.6427 77.2711 45.2871 80.6309 48.154 83.1225C51.0312 85.6231 54.7772 87 58.7023 87C62.6273 87 66.3733 85.6229 69.2505 83.1225C72.1176 80.631 73.7618 77.2711 73.7618 73.9047H69.8332C69.8332 76.1332 68.6815 78.4121 66.6735 80.1572Z" fill="#4F4F4F"/>
</svg>
