<svg width="124" height="131" viewBox="0 0 124 131" fill="none" xmlns="http://www.w3.org/2000/svg">
<path d="M52.5 0H124C107.431 0 94 13.4315 94 30V84C94 109.957 72.9574 131 47 131C21.0426 131 0 109.957 0 84V0H52.5Z" fill="#303030"/>
<rect x="108" y="14" width="16" height="16" rx="8" fill="#404040"/>
<path d="M4.62258 42.7546C4.11855 42.6953 3.64416 42.4581 3.31803 41.9838C2.7547 41.1835 2.96224 40.057 3.76276 39.4937C11.0564 34.4246 20.0697 33.2982 29.8834 36.2329C37.1474 38.4266 42.2767 42.0728 42.4842 42.221C43.2848 42.7842 43.4626 43.9107 42.8993 44.7111C42.336 45.5115 41.2093 45.6893 40.4088 45.1261C40.3199 45.0668 35.4871 41.6281 28.7864 39.642C19.9807 37.0037 12.272 37.9523 5.83818 42.4285C5.45275 42.6953 5.03766 42.7842 4.62258 42.7546Z" fill="#E5584B"/>
<path d="M39.5786 44.4143C38.867 44.355 38.2147 43.8214 38.0368 43.0803C34.479 29.7108 16.66 27.9618 16.4821 27.9322C16.4821 27.9322 16.4821 27.9322 16.4524 27.9322C15.474 27.8433 14.7624 26.9836 14.8514 26.0053C14.9403 25.0271 15.8001 24.286 16.7786 24.3749C16.9861 24.4046 21.9375 24.8492 27.4225 27.1911C34.8644 30.3927 39.7268 35.5507 41.5057 42.1613C41.7726 43.1099 41.1796 44.0882 40.2308 44.355C39.9937 44.4143 39.7861 44.4143 39.5786 44.4143Z" fill="#E5584B"/>
<path d="M36.8806 41.5394C36.5248 41.5097 36.169 41.3615 35.8725 41.0947C23.4793 30.0375 7.82468 32.824 7.67644 32.8537C6.69802 33.0315 5.77891 32.409 5.57137 31.4307C5.39347 30.4525 6.0161 29.5335 6.99451 29.326C7.17241 29.2964 11.4715 28.496 17.4309 29.2371C22.9456 29.8893 31.0398 32.0236 38.2148 38.4267C38.956 39.0789 39.0153 40.2054 38.3631 40.9465C38.0073 41.3911 37.4439 41.5987 36.8806 41.5394Z" fill="#E5584B"/>
<path d="M9.39607 49.0683C8.98098 49.0386 8.59555 48.8608 8.29906 48.5347C7.61713 47.8232 7.61713 46.6968 8.32871 46.015C8.4473 45.8964 11.5011 42.932 16.1264 40.679C22.4119 37.6553 28.6086 37.4775 34.064 40.1454C34.9534 40.5901 35.3092 41.6573 34.8941 42.5466C34.4494 43.4359 33.382 43.7917 32.4926 43.3766C21.7004 38.0704 10.9378 48.4754 10.8489 48.594C10.4338 48.9497 9.9001 49.1276 9.39607 49.0683Z" fill="#E5584B"/>
<path d="M13.6061 56.4797C13.3986 56.45 13.2207 56.4204 13.0131 56.3314C12.1237 55.9164 11.7382 54.8492 12.1533 53.9599C12.2423 53.8117 14.0212 49.9876 17.2529 46.46C21.7596 41.5687 26.8888 39.6715 32.0478 40.9462C32.9965 41.1833 33.5895 42.1616 33.3523 43.1102C33.1151 44.0588 32.1367 44.6517 31.1879 44.4145C21.7892 42.0727 15.474 55.3235 15.4147 55.4718C15.0886 56.1536 14.3473 56.5389 13.6061 56.4797Z" fill="#E5584B"/>
<path d="M19.6249 57.2805C18.7058 57.1915 17.9943 56.3911 18.0239 55.4425C18.0239 55.324 18.1128 52.656 19.5656 49.8102C20.9295 47.1422 23.8054 43.7924 29.6463 43.0217C30.6247 42.9031 31.5142 43.5849 31.6624 44.5632C31.781 45.5414 31.0991 46.4308 30.1207 46.579C26.6814 47.0236 24.1909 48.6837 22.7677 51.4406C21.7004 53.5453 21.6114 55.5315 21.6114 55.5315C21.5818 56.5097 20.7516 57.3101 19.7732 57.2805C19.7139 57.2805 19.6546 57.2805 19.6249 57.2805Z" fill="#E5584B"/>
<path d="M39.2525 43.0214C38.4816 42.9325 37.8294 42.3692 37.6811 41.5688C36.0208 33.0314 28.0452 25.146 27.9859 25.0571C27.2744 24.3753 27.2744 23.2192 27.9563 22.5374C28.6382 21.8259 29.7945 21.8259 30.4764 22.5077C30.8322 22.8634 39.3118 31.2527 41.1797 40.887C41.3576 41.8653 40.735 42.8139 39.7565 42.9917C39.6083 43.0214 39.4304 43.051 39.2525 43.0214Z" fill="#E5584B"/>
<path d="M40.8832 40.2654C41.743 40.5619 41.8616 43.0223 41.8616 43.0223L38.2741 49.9887C32.9077 56.2436 27.7488 58.3779 25.6733 59.119C25.3176 59.2376 25.5251 59.0005 25.5251 59.0005C25.5251 59.0005 24.4874 57.044 24.0427 55.71C22.8567 52.1527 23.1828 47.884 27.7191 43.3484C32.5815 38.4868 38.5113 39.9097 40.8832 40.2654Z" fill="#584F9A"/>
<path d="M50.8748 62.4675C50.8748 62.4675 57.1011 51.351 51.5567 45.4221C46.0124 39.4933 31.7512 38.2779 26.7109 46.0743C21.6706 53.9003 24.339 65.1058 31.8698 68.2481C39.4007 71.3903 50.8748 62.4675 50.8748 62.4675Z" fill="#E5584B"/>
<path d="M59.9769 81.2031C59.9769 81.2031 76.4617 96.2623 92.5314 101.272C108.601 106.282 99.4396 124.661 73.6154 112.537C47.8208 100.383 57.6939 85.8572 59.9769 81.2031Z" fill="#F4C19C"/>
<path d="M85.7121 99.3453C85.7121 99.3453 87.9654 90.3039 90.1001 80.7585C92.6203 69.3159 93.4505 65.5511 93.4505 65.5511C93.4505 65.5511 95.6148 53.7824 101.515 60.7784C106.585 66.8258 103.917 98.3374 100.092 111.381L85.7121 99.3453Z" fill="#F4C19C"/>
<path d="M84.9709 109.75C85.0302 109.839 85.1192 109.928 85.2378 109.928C85.4453 109.957 85.6528 109.809 85.7121 109.602C86.9574 102.813 86.6016 99.1669 86.572 99.0186C86.5423 98.8111 86.3348 98.6333 86.1272 98.6629C85.9197 98.6926 85.7418 98.9001 85.7714 99.1076C85.7714 99.1372 86.1569 102.783 84.9116 109.453C84.9116 109.572 84.9413 109.661 84.9709 109.75Z" fill="#E3A17B"/>
<path d="M88.7363 108.297C88.8549 108.475 89.0624 108.534 89.27 108.445C89.4775 108.356 89.5368 108.089 89.4479 107.912C89.4182 107.882 87.4614 104.028 86.572 102.161C86.483 101.953 86.2458 101.864 86.0383 101.983C85.8307 102.072 85.7418 102.309 85.8604 102.516C86.7498 104.414 88.7067 108.238 88.7363 108.297Z" fill="#E3A17B"/>
<path d="M103.413 66.5313C99.1136 68.7249 94.1622 64.5748 94.1622 64.5748C94.1622 64.5748 88.3807 58.2013 88.8254 55.5334C89.1812 53.3101 92.2944 52.7468 93.3321 52.5986C93.5396 52.569 93.6879 52.5689 93.6879 52.5689C93.6879 52.5689 93.6878 52.3318 93.7175 51.9464C93.8657 49.4267 94.9924 40.1777 96.5934 39.5256C98.4317 38.7845 97.8683 49.7824 97.8387 50.0492C97.9276 49.8121 98.4317 46.818 100.922 47.648C102.553 48.2113 102.019 51.146 102.019 51.146C102.019 51.146 103.591 49.2785 104.747 49.7231C106.555 50.4642 105.725 53.7251 105.725 53.7251C105.725 53.7251 110.766 47.6777 111.151 49.6342C111.151 49.6342 111.507 50.8792 109.165 54.733C106.852 58.5867 103.413 66.5313 103.413 66.5313Z" fill="#F4C19C"/>
<path d="M103.59 66.085C103.59 66.085 97.6014 68.3973 93.6581 64.6621C92.9169 65.5514 92.7983 66.7372 92.9465 67.8933C92.9465 67.8933 97.72 71.332 103.976 69.5534C104.391 68.2194 104.272 67.0336 103.59 66.085Z" fill="#584F9A"/>
<path d="M102.197 57.7256C101.871 57.7256 101.545 57.6663 101.219 57.5181C100.744 57.2809 100.388 56.9252 100.21 56.4212C100.092 56.0952 100.062 55.7394 100.062 55.3837C99.825 55.5912 99.5582 55.7691 99.2617 55.858C98.817 56.0062 98.3426 55.9766 97.9275 55.7394C96.0003 54.7019 96.9491 51.3521 96.9787 51.2039C97.038 50.9668 97.3049 50.8185 97.5421 50.8778C97.7793 50.9371 97.9275 51.2039 97.8682 51.4411C97.8682 51.4707 97.0973 54.2276 98.3722 54.8798C98.5798 54.9983 98.7577 54.9983 98.9652 54.939C99.6768 54.7019 100.388 53.5458 100.685 52.9233C100.744 52.775 100.803 52.6861 100.803 52.6565C100.922 52.4193 101.189 52.3304 101.426 52.4489C101.663 52.5675 101.752 52.8343 101.663 53.0418C101.634 53.0715 101.604 53.19 101.545 53.3086C101.248 53.9608 100.803 55.2651 101.1 56.0359C101.189 56.3027 101.367 56.4805 101.604 56.5991C103.264 57.3699 104.984 54.5537 105.014 54.524C105.132 54.3165 105.429 54.2276 105.636 54.3758C105.844 54.4944 105.933 54.7908 105.784 54.9983C105.132 56.1841 103.739 57.7256 102.197 57.7256Z" fill="#E3A17B"/>
<path d="M91.7901 58.021C91.8791 58.021 93.3319 58.021 94.7254 57.6653C95.4962 57.4578 96.2374 57.1613 96.6822 56.6574C97.0676 56.2424 97.2455 55.7681 97.2159 55.2048C97.0676 53.2483 94.9625 52.3294 93.7173 51.9736C93.6876 52.3886 93.6876 52.5962 93.6876 52.5962C93.6876 52.5962 93.569 52.5962 93.3319 52.6258C94.3696 52.9222 96.3857 53.6633 96.4746 55.2641C96.5043 55.6198 96.3857 55.8866 96.1485 56.1534C95.2294 57.102 92.7092 57.3096 91.8198 57.2799C91.6122 57.2799 91.4343 57.4281 91.4343 57.6356C91.4343 57.8432 91.6122 58.021 91.7901 58.021Z" fill="#E3A17B"/>
<path d="M100.418 64.3674C100.537 64.3377 100.655 64.2488 100.685 64.1006C100.744 63.8931 100.625 63.6856 100.418 63.6559C99.3506 63.3595 98.5797 62.7666 98.1646 61.9069C97.0676 59.6836 98.4314 56.3635 98.4314 56.3338C98.5204 56.156 98.4314 55.9188 98.2239 55.8595C98.046 55.7706 97.8088 55.8595 97.7495 56.067C97.6902 56.2153 96.2671 59.7429 97.5123 62.2626C98.046 63.3298 98.9355 64.0413 100.24 64.397C100.299 64.3674 100.359 64.3674 100.418 64.3674Z" fill="#E3A17B"/>
<path fill-rule="evenodd" clip-rule="evenodd" d="M70.0669 125.015C70.0644 124.986 70.0619 124.956 70.0594 124.927C69.9599 123.774 69.8696 122.726 69.7908 122.437C69.7741 122.337 69.748 122.247 69.7231 122.16C69.7038 122.093 69.6852 122.028 69.6722 121.963C69.6426 121.934 69.6426 121.934 69.6426 121.904C69.6426 121.904 69.7612 121.756 69.9687 121.459C70.1169 121.252 70.2948 120.985 70.4727 120.659C70.5913 120.451 70.7099 120.244 70.8582 120.007C71.9255 118.198 73.3487 115.353 73.6748 112.447C73.7934 111.469 73.6155 110.402 73.2301 109.187C73.1115 108.831 72.9929 108.475 72.8446 108.09C72.5481 107.378 72.222 106.608 71.8366 105.807L71.4808 105.096C70.8843 103.888 70.193 102.6 69.4682 101.251C68.788 99.9843 68.0782 98.6627 67.3892 97.2993C67.3219 97.2095 67.2715 97.1027 67.2253 97.0046C67.2105 96.9732 67.1961 96.9427 67.1817 96.914C67.1224 96.7657 67.0631 96.6471 67.0038 96.5286C66.9151 96.3156 66.8157 96.1134 66.7185 95.9153C66.6532 95.7825 66.5889 95.6516 66.5294 95.5207C66.4701 95.4021 66.4182 95.2835 66.3664 95.165C66.3145 95.0464 66.2626 94.9278 66.2033 94.8092L65.6696 93.6531C65.615 93.5235 65.5605 93.3955 65.5063 93.2684C65.3248 92.8428 65.1475 92.4267 64.9877 91.993C64.8987 91.7707 64.8172 91.5484 64.7357 91.3261C64.6541 91.1037 64.5726 90.8814 64.4836 90.659C64.4836 90.6442 64.4762 90.6294 64.4688 90.6146C64.4614 90.5998 64.454 90.5849 64.454 90.5701C64.4061 90.4983 64.3776 90.4072 64.3527 90.3279C64.3468 90.309 64.3411 90.2908 64.3354 90.2737C64.0924 89.5825 63.8704 88.928 63.6603 88.309C62.051 83.5657 61.1491 80.9072 56.9528 79.7797C55.9151 79.5129 54.6699 79.3054 53.1874 79.2165H52.9502C52.8647 79.2165 52.7723 79.2096 52.6764 79.2025C52.5728 79.1948 52.465 79.1868 52.3572 79.1868C51.2306 79.1275 49.9557 79.1275 48.5029 79.1572C47.8484 79.1572 47.1392 79.1845 46.4016 79.2129L46.3089 79.2165L44.5003 79.335L25.5546 80.6987C25.5546 80.6987 25.4657 80.7579 25.2878 80.8172C25.227 80.8426 25.155 80.8722 25.0725 80.9062C24.6719 81.0711 24.0237 81.3379 23.2124 81.7066C22.9149 81.8439 22.5997 81.9812 22.2532 82.1321C22.1508 82.1767 22.0457 82.2225 21.9375 82.2698C21.2556 82.5662 20.5143 82.8923 19.7138 83.2777C19.447 83.3963 19.1801 83.5148 18.8836 83.6631C18.261 83.9595 17.6087 84.2856 16.9565 84.6117C16.3635 84.9081 15.7705 85.2046 15.1479 85.5306C13.28 86.5089 11.9161 87.7243 10.997 89.1472C9.39599 91.667 9.12915 94.7499 9.78143 97.9811C10.0483 99.2855 10.4337 100.619 10.9674 101.953C11.0119 102.072 11.0637 102.191 11.1156 102.309C11.1675 102.428 11.2194 102.546 11.2639 102.665C11.3232 102.813 11.3899 102.954 11.4566 103.095C11.5233 103.236 11.59 103.376 11.6493 103.525C11.9754 104.236 12.3609 104.977 12.7463 105.689C12.7611 105.703 12.7686 105.718 12.776 105.733C12.7834 105.748 12.7908 105.763 12.8056 105.778C12.9242 106.015 13.0725 106.281 13.2207 106.519C13.3245 106.696 13.4357 106.874 13.5468 107.052C13.658 107.23 13.7692 107.408 13.873 107.586C15.0293 109.453 16.1856 111.351 17.253 113.307L17.6977 114.107C17.8015 114.315 17.9126 114.515 18.0238 114.715C18.135 114.915 18.2462 115.115 18.35 115.323C18.5126 115.638 18.6753 115.95 18.8368 116.259C19.1462 116.852 19.4512 117.436 19.7435 118.02C19.862 118.228 19.9805 118.465 20.099 118.702L20.0992 118.702C20.3017 119.133 20.5096 119.557 20.716 119.979C20.9931 120.545 21.2675 121.106 21.5224 121.667L21.8782 122.467C22.2372 123.248 22.5279 123.963 22.7735 124.632C28.627 128.159 35.09 130.282 41.677 131L52.6645 130.899C58.7141 130.126 64.6409 128.165 70.0669 125.015Z" fill="#584F9A"/>
<path d="M66.2329 94.869C64.3651 95.284 62.7937 95.0765 61.6967 94.2465C60.4514 93.2979 59.9177 91.6081 60.2142 89.4738C60.5997 86.5983 58.6428 85.9165 56.7453 85.294C55.1146 84.7307 53.4246 84.1675 52.8316 82.1517C52.5351 81.1438 52.7427 80.1655 53.2171 79.2762C53.1281 79.2762 53.0688 79.2762 52.9799 79.2762C52.7723 79.2762 52.5944 79.2466 52.3869 79.2466C51.9422 80.2248 51.7939 81.2624 52.0904 82.3888C52.7723 84.7604 54.7292 85.4422 56.4784 86.0351C58.376 86.6872 59.7398 87.1319 59.4433 89.4145C59.1172 91.8453 59.7398 93.7721 61.2223 94.8986C62.0821 95.5508 63.2088 95.8769 64.4837 95.8769C65.1359 95.8769 65.8179 95.7879 66.5591 95.6101C66.4405 95.3433 66.3515 95.1061 66.2329 94.869Z" fill="#36358D"/>
<path d="M55.0553 104.681C54.2845 101.746 51.4975 99.8784 48.5622 100.323C47.317 100.501 46.4572 101.064 46.0421 101.983C45.4194 103.347 45.9531 104.533 46.4275 105.57C47.0205 106.874 47.4949 107.882 46.1014 109.305C44.2631 111.143 43.4923 112.714 43.7591 114.019C43.9666 114.967 44.7079 115.679 45.9828 116.153C46.3682 116.301 46.7833 116.361 47.2577 116.361C48.2657 116.361 49.422 116.034 50.5783 115.382C53.0096 113.989 54.8774 111.617 55.2925 109.335C55.5594 107.882 55.4704 106.311 55.0553 104.681ZM54.5513 109.157C54.1659 111.232 52.4462 113.396 50.1929 114.671C48.7105 115.501 47.2577 115.768 46.2496 115.412C45.2415 115.027 44.6486 114.523 44.5003 113.841C44.2631 112.833 45.0044 111.44 46.635 109.809C48.414 108.031 47.7321 106.548 47.1094 105.244C46.6647 104.266 46.22 103.347 46.724 102.309C47.0205 101.657 47.6728 101.242 48.6512 101.094C48.8884 101.064 49.1552 101.035 49.3924 101.035C50.5191 101.035 51.6161 101.42 52.4759 102.102C53.3357 102.784 54.0176 103.732 54.3141 104.888C54.7292 106.4 54.8181 107.853 54.5513 109.157Z" fill="#36358D"/>
<path d="M19.8917 83.4263C19.8324 83.3967 19.7731 83.367 19.7435 83.3374C19.4767 83.456 19.1802 83.6042 18.9133 83.7228C20.6626 84.701 22.5898 86.4797 22.3526 89.4441C22.1451 92.0231 20.1882 92.7938 17.9349 93.6832C15.6519 94.5725 13.0725 95.5804 12.6871 98.8709C12.5388 100.205 11.9162 101.302 10.9971 101.984C11.086 102.221 11.175 102.458 11.2936 102.695C12.4795 101.895 13.2504 100.561 13.4283 98.9302C13.7544 96.0843 15.9188 95.2543 18.2018 94.365C20.4847 93.4757 22.8566 92.5271 23.0938 89.5034C23.3014 87.0429 22.2044 84.9382 19.8917 83.4263Z" fill="#36358D"/>
<path d="M22.0264 117.606C21.5224 118.081 20.8701 118.496 20.0993 118.733C19.9807 118.496 19.8621 118.258 19.7435 118.051C20.4254 117.873 21.0184 117.488 21.4928 117.073C22.7084 115.917 23.331 113.901 22.145 112.389C20.6033 110.492 21.0777 108.654 21.5224 107.023C21.9375 105.363 22.2933 104.059 20.7515 102.873C19.8028 102.132 18.8244 101.895 17.8459 102.162C16.0077 102.666 14.4067 104.741 13.28 106.608C13.1318 106.371 12.9835 106.104 12.8649 105.867C14.0509 104 15.7112 101.984 17.6681 101.45C18.9133 101.124 20.0993 101.391 21.2556 102.28C23.1827 103.792 22.738 105.541 22.2933 107.231C21.8782 108.832 21.4928 110.344 22.7973 111.944C24.2205 113.753 23.4792 116.213 22.0264 117.606Z" fill="#36358D"/>
<path d="M44.0852 119.295C43.5218 117.606 42.158 116.39 40.4384 116.064C39.6675 115.916 38.9559 115.975 38.3333 116.242C36.584 116.954 36.7619 118.258 36.9398 119.325C37.088 120.422 37.1473 121.044 36.1986 121.519C34.5975 122.29 33.4412 123.979 33.4116 125.61C33.3819 126.677 33.886 127.566 34.7754 128.011C35.0423 128.159 35.3684 128.218 35.6945 128.218C36.673 128.218 37.8589 127.744 38.5705 127.388C40.1715 126.618 41.8022 125.461 43.0178 124.187C44.2334 122.882 44.6485 121.015 44.0852 119.295ZM42.4248 123.653C39.964 126.232 36.1986 127.922 35.0719 127.329C34.4493 127.003 34.0935 126.38 34.1232 125.61C34.1528 124.483 34.9533 122.942 36.4654 122.201C37.9775 121.46 37.7996 120.214 37.6217 119.236C37.4438 118.08 37.4142 117.428 38.5705 116.954C38.8966 116.835 39.2524 116.746 39.6082 116.746C39.8157 116.746 40.0233 116.776 40.2605 116.805C41.7133 117.072 42.8696 118.08 43.344 119.533C43.848 121.015 43.4922 122.556 42.4248 123.653Z" fill="#36358D"/>
<path d="M71.5401 105.126C70.2652 105.363 68.3973 104.385 67.7154 103.169C67.1817 102.221 66.5591 101.894 65.8772 101.894C65.2249 101.894 64.5133 102.191 63.7721 102.487C63.2384 102.695 62.6751 102.962 61.9932 103.14C60.9258 103.466 59.8585 103.169 59.3248 102.339C58.8504 101.628 58.7318 100.442 59.7695 99.1376C61.1334 97.4479 65.0767 97.27 67.4486 97.3293C67.3893 97.2107 67.33 97.0625 67.241 96.9439C67.1817 96.8254 67.1224 96.7068 67.0631 96.5586C64.543 96.5289 60.659 96.8253 59.1765 98.6633C57.872 100.294 58.0795 101.835 58.7021 102.754C59.4434 103.851 60.8369 104.266 62.2304 103.851C62.9419 103.643 63.5349 103.377 64.0686 103.169C65.7882 102.458 66.3812 102.28 67.0631 103.525C67.834 104.889 69.6426 105.896 71.1547 105.896C71.3326 105.896 71.5105 105.896 71.6884 105.837C71.7477 105.837 71.8366 105.808 71.8959 105.808C71.7773 105.57 71.6587 105.363 71.5401 105.126Z" fill="#36358D"/>
<path d="M33.975 114.759C33.6785 114.818 33.382 114.818 33.0262 114.759C31.2176 114.552 29.9724 113.633 29.5276 112.15C28.905 110.194 29.8538 107.645 31.8995 105.836C33.6488 104.236 32.7594 103.139 31.692 101.864C30.9211 100.915 30.1206 99.9371 30.7136 98.8107C31.9292 96.4984 34.7755 97.0913 35.072 97.1506C38.7188 97.6249 41.1204 100.056 41.5947 102.22C41.8912 103.583 41.4169 104.769 40.3198 105.451C39.1932 106.133 38.5409 107.941 37.8886 109.66C36.9992 112.002 36.08 114.433 33.975 114.759ZM33.293 97.7435C32.5815 97.8621 31.781 98.2178 31.2769 99.1071C30.9211 99.7889 31.3955 100.441 32.196 101.419C33.2634 102.694 34.568 104.324 32.3146 106.34C30.4764 108 29.6166 110.253 30.1503 111.973C30.5357 113.158 31.5734 113.929 33.0855 114.107C35.3685 114.374 36.2579 111.973 37.2067 109.453C37.8886 107.615 38.6002 105.718 39.9048 104.917C40.7646 104.384 41.1204 103.494 40.8832 102.398C40.4681 100.5 38.2444 98.2771 34.9237 97.8324H34.8941C34.8644 97.8028 34.1232 97.6249 33.293 97.7435Z" fill="#36358D"/>
<path d="M73.2597 109.186C72.3109 108.415 71.3621 108.03 70.4134 108.089C68.4565 108.178 67.152 110.076 67.152 110.076C67.0927 110.135 67.0334 110.194 66.9444 110.224C66.8555 110.253 58.3759 112.299 58.287 116.034C58.2573 117.072 58.5242 117.813 59.0875 118.317C60.3327 119.443 62.7936 119.236 64.958 118.969C66.1439 118.821 67.3595 119.176 68.5158 119.502C69.346 119.739 70.1465 119.977 70.8581 120.006C70.7099 120.243 70.5913 120.451 70.4727 120.658C69.7611 120.57 69.0495 120.362 68.338 120.154C67.2409 119.828 66.1143 119.502 65.0469 119.651C62.7047 119.947 60.0956 120.154 58.6428 118.821C57.9312 118.168 57.5754 117.249 57.605 116.004C57.694 111.973 65.5213 109.868 66.648 109.572C66.9741 109.127 68.3379 107.496 70.3541 107.408C71.1842 107.378 72.0441 107.585 72.8742 108.089C73.0225 108.475 73.1411 108.83 73.2597 109.186Z" fill="#36358D"/>
<path d="M44.5299 79.3647C44.1148 81.2027 42.7807 83.6335 38.6595 84.8193C32.9965 86.4793 27.3929 82.5367 25.3174 80.8469C25.4953 80.7877 25.5843 80.7284 25.5843 80.7284L44.5299 79.3647Z" fill="#36358D"/>
<path d="M42.2766 91.3413C42.4545 91.3116 42.6324 91.282 42.7807 91.2227C44.352 90.7781 45.4194 89.8887 45.9827 88.5548C47.5541 84.6714 44.0259 78.4462 43.8777 78.1794C43.7591 77.9718 43.4922 77.9126 43.2847 78.0311C43.0771 78.1497 43.0178 78.4165 43.1364 78.624C43.1661 78.6833 46.635 84.7307 45.2119 88.2287C44.7671 89.3255 43.9073 90.037 42.6028 90.3927C37.0881 91.9342 26.029 80.5805 25.9401 80.4619C25.7622 80.2841 25.4953 80.2841 25.3174 80.4619C25.1395 80.6398 25.1395 80.9066 25.3174 81.0845C25.7029 81.5291 36.1689 92.2899 42.2766 91.3413Z" fill="white"/>
<path d="M42.9289 128.752C43.0178 128.87 43.1957 128.93 43.344 128.9C43.4033 128.9 43.4922 128.87 43.5515 128.811C43.6108 128.752 50.015 123.712 58.88 124.039C63.3866 124.216 67.0631 123.535 69.8501 122.438C69.7908 122.26 69.7611 122.112 69.7315 121.963C69.7315 121.934 69.7315 121.934 69.7018 121.904C69.7018 121.904 69.8204 121.756 70.028 121.459C67.3299 122.616 63.5942 123.327 58.9393 123.179C49.7481 122.823 43.3143 127.922 43.0475 128.159C42.8103 128.307 42.751 128.574 42.9289 128.752Z" fill="#36358D"/>
<path d="M46.6052 95.0745C52.0902 94.2148 52.357 88.1377 52.357 88.0785C52.357 87.8413 52.1792 87.6338 51.942 87.6338C51.7048 87.6338 51.4972 87.8117 51.4972 88.0488C51.4972 88.286 51.2304 93.4737 46.4866 94.2148C41.5056 94.9855 29.4681 89.0864 29.3495 89.0271C29.142 88.9085 28.8751 88.9974 28.7565 89.2346C28.6379 89.4421 28.7269 89.7089 28.9641 89.8275C29.4384 90.0646 41.3573 95.9045 46.6052 95.0745Z" fill="#36358D"/>
<path d="M49.0363 60.8654C49.0363 60.8654 51.26 58.4939 52.3274 61.0137C53.3947 63.563 52.2384 68.5432 49.066 67.565L49.0363 60.8654Z" fill="#CA8C5F"/>
<path d="M43.1067 73.3473L42.8991 81.618C42.8991 81.618 39.2227 87.369 28.8159 81.4402C30.0315 78.0015 30.8913 71.7466 30.1798 69.0786C30.1798 69.0786 30.9506 69.4047 32.1959 70.2347C32.4331 70.3829 32.7296 70.5015 33.0261 70.6497C35.7241 71.8948 39.6971 73.4659 43.1067 73.3473Z" fill="#F4C19C"/>
<path d="M43.1067 73.3493L43.0771 76.5509C40.1715 75.7505 34.9829 73.9125 32.2256 70.207C32.4924 70.3256 32.7593 70.4738 33.0558 70.6221C35.7242 71.8968 39.6971 73.4679 43.1067 73.3493Z" fill="#150F29"/>
<path d="M51.1416 60.9563C51.1119 61.6678 51.0823 62.3199 51.023 62.9721C50.7265 67.7152 50.2818 70.2645 49.0662 71.391C43.0178 77.053 30.5949 69.3456 30.2095 69.1084C30.1205 68.5748 30.0316 68.0413 29.9723 67.5077C29.3793 63.0314 29.5275 58.9405 30.1502 55.0572C30.1205 50.9366 32.7593 47.2015 36.7026 45.9861C40.7941 44.7114 44.2927 46.6679 46.4274 47.4386C49.6591 48.5948 51.4974 52.9228 51.2305 58.9405C51.2009 59.6223 51.1712 60.3042 51.1416 60.9563Z" fill="#F4C19C"/>
<path d="M43.9961 69.0491C43.077 68.723 42.4247 68.2191 42.3655 68.1894C42.2172 68.0708 42.1876 67.8633 42.3061 67.7448C42.4247 67.5965 42.6323 67.5669 42.7509 67.6855C42.7805 67.7151 45.0042 69.4048 46.6942 68.308C46.8424 68.2191 47.05 68.2487 47.1389 68.3969C47.2279 68.5451 47.1982 68.7527 47.05 68.8416C46.0419 69.4937 44.8856 69.3455 43.9961 69.0491Z" fill="#E3A17B"/>
<path d="M48.1311 66.2013C48.1311 66.2013 45.9667 67.565 40.2148 65.5195C40.2148 65.5195 41.1636 69.1954 43.8024 69.7883C47.6864 70.648 48.1311 66.2013 48.1311 66.2013Z" fill="#171717"/>
<path d="M46.1309 61.5788C46.4867 61.6085 46.7535 61.5492 46.7832 61.5492C46.8721 61.5196 46.9314 61.4899 46.9907 61.401C47.05 61.312 47.05 61.2231 47.0204 61.1638L46.0123 57.7844C45.953 57.6065 45.7751 57.5176 45.6269 57.5769C45.449 57.6362 45.36 57.814 45.4193 57.9623L46.3088 60.986C45.9826 60.986 45.5083 60.9267 45.0339 60.6599C44.8856 60.5709 44.6781 60.6302 44.5892 60.7785C44.5002 60.9267 44.5595 61.1342 44.7077 61.2231C45.2118 61.4603 45.7455 61.5492 46.1309 61.5788Z" fill="#150F29"/>
<path d="M32.8482 66.1143C32.8185 66.2032 31.6919 68.4858 30.2094 69.1083C30.1205 68.5747 30.0315 68.0411 29.9722 67.5075C30.0315 67.5075 31.4843 67.3 32.8482 66.1143Z" fill="#150F29"/>
<path d="M31.7215 60.7471C31.7215 60.7471 28.8752 56.4784 26.4736 59.6207C24.4872 62.1997 27.6596 69.2846 31.425 67.0909L31.7215 60.7471Z" fill="#F4C19C"/>
<path d="M31.0397 65.8171H31.0693C31.2472 65.8171 31.3658 65.6689 31.3658 65.491C31.1583 61.993 28.2823 60.6294 28.1341 60.5701C27.9859 60.5108 27.7783 60.5701 27.719 60.7183C27.6597 60.8665 27.719 61.074 27.8673 61.1333C27.9859 61.1926 30.5357 62.3784 30.7136 65.5207C30.7432 65.6985 30.8914 65.8171 31.0397 65.8171Z" fill="#150F29"/>
<path d="M28.1934 63.7712C28.2527 63.7712 28.3416 63.7415 28.4009 63.7119C28.6974 63.5044 29.5276 63.0004 30.0909 63.1486C30.2688 63.2079 30.4467 63.119 30.4763 62.9411C30.5356 62.7633 30.4467 62.5854 30.2688 62.5558C29.32 62.2593 28.1637 63.0893 28.0451 63.2079C27.8969 63.2969 27.8672 63.5044 27.9858 63.6526C28.0155 63.7119 28.1044 63.7712 28.1934 63.7712Z" fill="#150F29"/>
<path d="M55.3515 59.0573L51.26 58.998L51.2303 59.5613L55.3515 59.6206C55.4998 59.6206 55.648 59.502 55.648 59.3538C55.6184 59.1759 55.4998 59.0573 55.3515 59.0573Z" fill="white"/>
<path d="M44.6484 56.8357C44.5891 56.5689 44.4705 56.3318 44.3816 56.0946C44.1741 55.65 43.9072 55.2646 43.5811 54.9089C43.4032 54.7013 43.1956 54.5235 42.9584 54.3456C42.2172 53.7824 41.2981 53.397 40.3197 53.3674C40.29 53.3674 40.29 53.3674 40.2604 53.3674C37.9774 53.2488 35.991 54.7606 35.398 56.8654C35.3387 57.0432 35.309 57.2211 35.2794 57.4286C35.2497 57.6065 35.2201 57.7547 35.2201 57.9325C35.1904 58.6736 35.309 59.3555 35.5759 60.0076C35.7538 60.4523 36.0206 60.8969 36.3467 61.2527C36.3467 61.2823 36.3764 61.2823 36.3764 61.2823C36.6432 61.5788 36.9397 61.8752 37.2659 62.0827C37.9774 62.5867 38.8372 62.9127 39.786 62.9424C41.3574 63.0313 42.8102 62.3199 43.7293 61.1637C44.3519 60.393 44.767 59.4147 44.7967 58.3476C44.7967 58.0215 44.7967 57.6954 44.7374 57.399C44.7374 57.2211 44.7077 57.0136 44.6484 56.8357Z" fill="#150F29"/>
<path d="M39.5785 61.1044L39.5192 57.9325L36.3468 61.2526C36.0207 60.8673 35.7835 60.4522 35.5759 60.0076L40.8534 54.5234L40.9127 57.6954L43.5515 54.9385C43.8776 55.2942 44.1445 55.7092 44.352 56.1242L39.5785 61.1044Z" fill="#2D2B59"/>
<path d="M55.6779 56.5688C55.4704 56.1242 55.1739 55.7388 54.8477 55.3831C54.3141 54.8198 53.6618 54.4048 52.9206 54.138C52.7723 54.0787 52.6537 54.0491 52.5055 54.0195C52.3276 53.9898 52.1497 53.9602 51.9718 53.9305C51.8532 53.9009 51.7346 53.9009 51.5864 53.9009C51.3492 53.9009 51.1416 53.9009 50.9044 53.9305C50.6376 53.9602 50.3708 53.9898 50.1039 54.0787C49.3923 54.2566 48.7401 54.6123 48.2064 55.0866C47.6134 55.5906 47.139 56.2724 46.8425 57.0431C46.7536 57.2507 46.6943 57.4285 46.6646 57.636V57.6657C46.6053 57.9325 46.5757 58.1993 46.546 58.4957C46.5164 59.1775 46.635 59.8593 46.8722 60.4819C47.0501 60.9562 47.3169 61.3712 47.6134 61.7565C47.9988 62.2308 48.5029 62.6459 49.0366 62.9719C49.5406 63.2387 50.1039 63.4463 50.6969 63.5352C50.7858 63.5352 50.8748 63.5648 50.9637 63.5648C51.023 63.5648 51.0527 63.5648 51.112 63.5648C51.5864 63.5945 52.0607 63.5352 52.4758 63.4463C52.5351 63.4166 52.6241 63.4166 52.6834 63.387C52.8613 63.3277 53.0688 63.2684 53.2467 63.1795C53.5728 63.0312 53.899 62.8534 54.1955 62.6162C55.3221 61.7862 56.0633 60.4819 56.1226 58.9997C56.2116 58.0807 56.0337 57.2803 55.6779 56.5688Z" fill="#150F29"/>
<path d="M50.0149 62.4682L49.9556 59.2963L47.6133 61.7271C47.3168 61.3417 47.05 60.9267 46.8721 60.4524L51.2898 55.8576L51.3491 59.0295L54.8476 55.3833C55.1738 55.739 55.4703 56.1244 55.6778 56.5691L50.0149 62.4682Z" fill="#2D2B59"/>
<path d="M29.5274 58.6459C29.4977 58.6459 29.4681 58.6459 29.4384 58.6163C29.2902 58.557 29.2309 58.3791 29.2902 58.2309C30.7133 54.9997 35.6647 56.9265 35.724 56.9265C35.8722 56.9858 35.9315 57.1637 35.8722 57.2823C35.8129 57.4305 35.6351 57.4898 35.5165 57.4305C35.4572 57.4008 31.0395 55.6815 29.8239 58.4087C29.7646 58.5866 29.646 58.6459 29.5274 58.6459Z" fill="#150F29"/>
<path d="M46.9314 57.725C46.8721 57.725 46.7831 57.6954 46.7238 57.6361C45.9826 56.8061 44.7374 57.4286 44.7374 57.4286C44.5891 57.4879 44.4409 57.4582 44.3519 57.31C44.2926 57.1618 44.3223 56.9839 44.4705 56.9246C45.0339 56.6282 46.3088 56.3318 47.1389 57.2507C47.2575 57.3693 47.2279 57.5472 47.1093 57.6657C47.0796 57.725 46.9907 57.725 46.9314 57.725Z" fill="#150F29"/>
<path d="M35.8426 49.367C35.8426 49.367 34.8641 57.7266 33.1742 60.1278C31.4842 62.5289 29.6756 59.7127 29.6756 59.7127C28.7861 59.7424 27.5409 46.1951 35.8426 49.367Z" fill="#E5584B"/>
<path d="M46.1013 46.6675C46.1013 46.6675 41.8912 53.8117 35.8428 52.6259C34.9237 52.4481 34.2121 52.1813 33.6191 51.8552C30.8618 50.284 31.3658 46.1635 34.39 45.2149C38.1554 43.9995 44.7375 42.6063 46.1013 46.6675Z" fill="#E5584B"/>
<path d="M43.0475 45.7492C43.0475 45.7492 46.6054 54.3756 52.3276 52.4488C58.0498 50.5219 49.2441 42.3698 45.3898 42.9923C41.5058 43.6445 43.0475 45.7492 43.0475 45.7492Z" fill="#E5584B"/>
<path fill-rule="evenodd" clip-rule="evenodd" d="M20.4198 123.115C23.6396 111.991 25.3147 100.619 25.3147 100.619C25.1665 92.2893 14.5522 86.0937 10.9054 91.5186C10.9054 91.5186 10.0304 94.7149 8.99463 99.3099L8.99463 111.935C10.4398 113.939 12.0641 115.854 13.8675 117.657C15.9185 119.708 18.1135 121.528 20.4198 123.115Z" fill="#F4C19C"/>
<path d="M73.7794 59.3701C73.5902 59.2755 73.5902 59.0863 73.6848 58.8971L80.4019 46.5981L80.6857 47.0712C80.6857 47.0712 82.8617 50.2878 85.7945 51.8015C85.9837 51.8961 85.9837 52.0854 85.9837 52.2746C85.8891 52.4638 85.6999 52.4638 85.5107 52.4638C83.0509 51.2339 81.1588 48.9633 80.4019 47.9226L74.2525 59.2755C74.1579 59.3701 73.9686 59.4647 73.7794 59.3701Z" fill="#739DF3"/>
<path d="M74.2525 59.1807C73.5902 60.4106 71.9819 60.8837 70.6574 60.1268C69.3329 59.37 68.8599 57.8563 69.5221 56.5318C70.1844 55.3019 71.7927 54.8288 73.1172 55.5857C74.4417 56.3425 74.9147 57.9508 74.2525 59.1807Z" fill="#739DF3"/>
</svg>
