<svg width="143" height="132" viewBox="0 0 143 132" fill="none" xmlns="http://www.w3.org/2000/svg">
<path d="M71.5 0H143C126.431 0 113 13.4315 113 30V84C113 109.957 91.9574 131 66 131C40.0426 131 19 109.957 19 84V0H71.5Z" fill="#303030"/>
<path d="M55.2127 66.1852C55.2127 66.1852 63.2393 60.2991 74.298 64.4015L69.5416 73.5577L57.7099 75.2819L54.7966 68.2067L55.2127 66.1852Z" fill="#8E5DFC"/>
<path d="M89.0429 66.1852C89.0429 66.1852 81.9082 60.2991 63.477 64.4015L65.1417 73.5577L84.9405 75.2819L89.8158 68.2067L89.0429 66.1852Z" fill="#8E5DFC"/>
<path d="M67.0444 60.5341L66.4499 72.128C66.2715 75.4575 68.293 75.2197 71.4442 75.398C74.1791 75.517 77.2113 74.3278 77.2708 71.4145L77.3897 56.4317L67.0444 60.5341Z" fill="#ECB6A2"/>
<path d="M66.6283 68.7995L75.9034 63.0918L66.985 61.7838L66.6283 68.7995Z" fill="#D88E77"/>
<path d="M64.9636 51.5565C65.023 53.7563 63.2988 55.54 61.1584 55.5994C59.018 55.6589 57.2938 53.8752 57.2343 51.6754C57.1749 49.4755 58.8991 47.6918 61.0395 47.6324C63.1799 47.6324 64.9636 49.3566 64.9636 51.5565Z" fill="#DDA290"/>
<path d="M69.7794 63.4477C64.369 63.1504 60.1476 58.5129 60.2071 53.9348L60.4449 44.3625C60.5638 38.6547 65.023 34.0172 70.6118 33.8983C76.3196 33.7794 81.9679 38.4763 82.0273 44.303L81.7895 51.7349C81.5517 58.5129 76.2601 63.3288 69.7794 63.4477Z" fill="#ECB6A2"/>
<path d="M86.4271 51.8544C86.4865 54.0542 84.7623 55.8379 82.6814 55.8379C80.6004 55.8974 78.8167 54.1732 78.8167 51.9733C78.7573 49.7734 80.4815 47.9898 82.5624 47.9898C84.6434 47.9303 86.3676 49.6545 86.4271 51.8544Z" fill="#ECB6A2"/>
<path d="M80.9572 52.8652C80.9572 52.8652 81.2545 49.6546 84.4056 50.6059" stroke="#312220" stroke-width="0.7818" stroke-miterlimit="10" stroke-linecap="round" stroke-linejoin="round"/>
<path d="M60.2666 51.9717C60.2666 51.9717 60.326 55.3606 62.1691 55.9552C63.8339 56.4903 64.7257 55.3607 66.9256 55.4796C69.7795 55.5985 71.5631 55.8363 74.5954 57.3227C77.0925 58.5713 80.6004 51.9717 80.8977 47.6909C80.8977 47.2152 81.9084 48.5827 81.9084 48.5827L81.1355 55.2417C81.1355 55.2417 79.8275 65.1114 69.066 64.6952C58.3045 64.1601 60.2666 51.9717 60.2666 51.9717Z" fill="#332C30"/>
<path d="M82.4735 40.1364L81.8489 48.5247L81.4327 50.5461L79.5555 40.5572L82.4735 40.1364Z" fill="#332C30"/>
<path d="M60.3259 47.6322V42.4595L61.3367 42.519L60.3259 47.6322Z" fill="#332C30"/>
<path d="M67.2823 52.1509L66.985 54.2319H68.412" stroke="#312220" stroke-width="0.7818" stroke-miterlimit="10" stroke-linecap="round" stroke-linejoin="round"/>
<path d="M66.0932 46.4437C66.0932 46.4437 66.2716 47.3949 65.023 47.3355C64.0717 47.276 63.4772 47.276 62.8826 47.3949C62.5854 47.4544 62.2286 47.276 62.1097 47.0382C61.9908 46.8004 62.0503 46.5626 62.2286 46.3842C62.5854 46.0275 63.2988 45.5518 64.4879 45.5518C65.9743 45.5518 66.0932 46.4437 66.0932 46.4437Z" fill="#332C30"/>
<path d="M71.028 46.5023C71.028 46.5023 70.7902 47.4536 72.2766 47.3941C73.4062 47.3941 74.0603 47.3347 74.7143 47.4536C75.071 47.5131 75.4872 47.3941 75.6061 47.0969C75.725 46.859 75.725 46.6212 75.4872 46.4428C75.071 46.0861 74.2386 45.6105 72.9306 45.6105C71.2064 45.6699 71.028 46.5023 71.028 46.5023Z" fill="#332C30"/>
<path d="M74.3576 50.7241C74.3576 50.7241 72.6929 51.4375 71.3848 50.6052" stroke="#312220" stroke-width="0.7818" stroke-miterlimit="10" stroke-linecap="round" stroke-linejoin="round"/>
<path d="M65.3782 50.119C65.3782 50.119 63.9513 50.6541 63 50.0001" stroke="#312220" stroke-width="0.7818" stroke-miterlimit="10" stroke-linecap="round" stroke-linejoin="round"/>
<path d="M70.1956 57.9877C70.1956 57.9877 67.7579 58.8795 66.331 57.9282" stroke="#ECB6A2" stroke-width="0.7155" stroke-miterlimit="10" stroke-linecap="round" stroke-linejoin="round"/>
<path d="M58.6018 74.9245C54.5588 73.9137 50.3375 76.0541 48.7916 79.9782L35.6519 107.031C34.1061 110.955 35.7114 115.473 39.4571 117.495C43.8568 119.873 49.3862 117.851 51.2293 113.154L64.3096 86.0427C66.2122 81.3457 63.4772 76.1136 58.6018 74.9245Z" fill="#F2C94C"/>
<path d="M27.7442 90.7996L15.5558 80.2165C14.664 79.4435 13.2965 79.4435 12.4047 80.2759L11.9885 80.6921L7.1131 76.9464C7.1131 76.9464 4.91325 78.4922 6.93474 81.2272C8.95624 83.9622 13.237 91.6319 24.2958 100.075L27.7442 90.7996Z" fill="#ECB6A2"/>
<path d="M2 71.1197L16.091 84.9729" stroke="#828282" stroke-width="3.1539" stroke-miterlimit="10" stroke-linecap="round" stroke-linejoin="round"/>
<path d="M27.9261 88.7784L50.7571 104.653L40.7091 119.339L19.1862 100.848L27.9261 88.7784Z" fill="#F2C94C"/>
<path fill-rule="evenodd" clip-rule="evenodd" d="M87.7794 125.486L87.4971 123.677H54.0831C54.0831 124.185 53.5617 126.992 53.1132 129.312C64.608 132.46 77.0609 131.184 87.7794 125.486Z" fill="#F2C94C"/>
<path fill-rule="evenodd" clip-rule="evenodd" d="M91.5996 123.216V84.5558C91.5996 78.8481 87.0215 74.27 81.3138 74.27H60.6827C54.975 74.27 50.3969 78.8481 50.3969 84.5558L49.2078 118.981C49.2078 123.083 53.7264 127.602 57.8288 127.602H83.2271C86.1258 126.439 88.9324 124.977 91.5996 123.216Z" fill="#F2C94C"/>
<path fill-rule="evenodd" clip-rule="evenodd" d="M84.0206 127.273C72.0479 128.132 64.5606 127.822 60.0405 127.284C57.6607 127 56.1068 126.653 55.1561 126.382C54.6809 126.246 54.3569 126.129 54.1562 126.049C54.0559 126.009 53.9864 125.977 53.9443 125.958C53.9232 125.948 53.909 125.941 53.9012 125.937L53.8965 125.934L53.8966 125.934L53.8861 125.929C51.4644 124.676 50.3948 122.518 49.9311 120.628C49.6995 119.683 49.6225 118.817 49.6037 118.186C49.5943 117.872 49.5995 117.617 49.6069 117.443C49.6105 117.356 49.6148 117.29 49.618 117.246C49.6196 117.224 49.6209 117.207 49.6218 117.197L49.6228 117.186L49.6229 117.184L49.623 117.184L49.623 117.184L49.623 117.184L49.6242 117.171L49.6248 117.158L50.8734 89.1546L49.9203 89.1121L48.6723 117.104L48.6714 117.115C48.6701 117.129 48.6684 117.15 48.6665 117.176C48.6626 117.23 48.6578 117.306 48.6537 117.403C48.6455 117.597 48.64 117.875 48.6501 118.215C48.6704 118.894 48.7532 119.83 49.0046 120.855C49.5069 122.903 50.6959 125.351 53.4448 126.775L53.4478 126.776L53.4487 126.777L53.4691 126.787C53.4858 126.796 53.5089 126.807 53.5386 126.821C53.5982 126.849 53.6847 126.888 53.8015 126.934C54.0351 127.028 54.3902 127.155 54.8941 127.299C55.9017 127.587 57.5064 127.942 59.9276 128.231C64.1174 128.73 70.7623 129.03 81.0056 128.426C82.0208 128.078 83.0265 127.693 84.0206 127.273Z" fill="#8E5DFC"/>
<path d="M66.985 74.2695C66.985 74.2695 67.104 70.4049 80.3031 70.1076C80.3031 70.1076 89.1025 69.5725 89.1025 66.1835C89.1025 66.1835 92.7888 71.6534 87.9134 75.3397C87.9134 75.3397 90.2916 85.3877 83.811 88.301C77.2114 91.2143 66.985 74.2695 66.985 74.2695Z" fill="#F2C94C"/>
<path d="M68.4714 74.2695C68.4714 74.2695 68.4119 70.4049 60.5043 70.1076C60.5043 70.1076 55.2127 69.5725 55.2722 66.1835C55.2722 66.1835 53.0723 71.6534 55.9857 75.3397C55.9857 75.3397 54.5587 85.3877 58.4828 88.301C62.3474 91.2143 68.4714 74.2695 68.4714 74.2695Z" fill="#F2C94C"/>
<path fill-rule="evenodd" clip-rule="evenodd" d="M53.5552 129.431L54.1352 126.444L53.1987 126.262L52.6325 129.178C52.9394 129.266 53.247 129.35 53.5552 129.431Z" fill="#8E5DFC"/>
<path fill-rule="evenodd" clip-rule="evenodd" d="M102.154 113.696C101.172 114.891 100.124 116.049 99.0075 117.165C95.0538 121.119 90.5733 124.225 85.7919 126.483L84.6497 74.6591L87.7785 75.0345C95.2528 75.8926 100.931 81.5773 101.279 88.5491L102.154 113.696Z" fill="#F2C94C"/>
<path fill-rule="evenodd" clip-rule="evenodd" d="M85.8268 126.467C85.6961 122.38 85.5309 117.316 85.3658 112.296C85.1855 106.81 85.0051 101.371 84.8699 97.3037C84.8022 95.2699 84.7459 93.5788 84.7064 92.3963L84.6606 91.0245L84.6486 90.6634L84.6455 90.5709L84.6447 90.5475L84.6445 90.5416L84.6444 90.5401C84.6444 90.5398 84.6444 90.5396 84.1677 90.5556C83.691 90.5715 83.691 90.5717 83.691 90.572L83.691 90.5735L83.6912 90.5794L83.692 90.6028L83.6951 90.6953L83.7072 91.0564L83.753 92.4281C83.7924 93.6106 83.8488 95.3016 83.9164 97.3354C84.0517 101.403 84.232 106.842 84.4123 112.327C84.5831 117.522 84.7537 122.752 84.8861 126.9C85.2009 126.759 85.5145 126.615 85.8268 126.467Z" fill="#8E5DFC"/>
<path d="M11.8697 82.236C11.8697 82.236 1.10821 126.887 34.8196 130.811C56.6992 133.368 58.8991 109.467 66.0338 88.5383C66.0338 88.5383 84.7028 77.4201 81.9679 52.2109" stroke="white" stroke-width="0.7155" stroke-miterlimit="10"/>
<path d="M82.503 50.8438C82.503 50.8438 81.3733 51.0816 81.3733 52.9842C81.3733 52.9842 82.503 53.5193 82.9191 52.3896C83.3353 51.2599 82.503 50.8438 82.503 50.8438Z" fill="white"/>
<path d="M66.0933 88.4788C66.0933 88.4788 56.7588 72.9609 59.9694 51.9136" stroke="white" stroke-width="0.7155" stroke-miterlimit="10"/>
<path d="M60.3261 49.417C60.3261 49.417 59.137 49.5954 59.2559 50.9628C59.3748 52.3303 60.2667 52.2114 60.2667 52.2114L60.3261 49.417Z" fill="white"/>
<path d="M81.2142 40.8226C81.2142 40.8226 75.1401 43.0529 70.2795 43.4519C63.9962 43.9754 60.2163 42.9573 60.2163 42.9573L60.3425 39.3208C60.3425 39.3208 66.0424 39.9821 70.1336 39.6085C73.4349 39.3004 81.3556 37.1794 81.3556 37.1794L81.2142 40.8226Z" fill="#F2994A"/>
<path d="M60.2447 40.6036L58.0982 27.1602L64.098 35.0484L67.2025 23.5974L70.5916 34.3817L73.9585 22.8629L76.2682 33.6934L82.2944 23.5768L80.6206 38.4001C80.6206 38.4001 74.4829 40.7047 70.8269 41.1705C63.9263 42.0481 60.2447 40.6036 60.2447 40.6036Z" fill="#F2C94C"/>
<path d="M65.6025 22.76C65.6263 22.1894 66.1254 21.6814 66.7464 21.5997C67.3568 21.5386 67.8304 21.9379 67.8272 22.5154C67.8034 23.0859 67.3043 23.594 66.6834 23.6757C66.0574 23.7436 65.5787 23.3306 65.6025 22.76Z" fill="#F2994A"/>
<path d="M56.8728 27.1873C56.8965 26.6167 57.3957 26.1087 58.0166 26.027C58.6271 25.9659 59.1006 26.3652 59.0975 26.9427C59.0737 27.5132 58.5746 28.0213 57.9536 28.103C57.3225 28.1572 56.849 27.7579 56.8728 27.1873Z" fill="#F2994A"/>
<path d="M72.1334 22.5179C72.1572 21.9473 72.6564 21.4392 73.2773 21.3575C73.8878 21.2965 74.3614 21.6958 74.3582 22.2733C74.3345 22.8439 73.8353 23.352 73.2143 23.4337C72.6038 23.4948 72.1096 23.0885 72.1334 22.5179Z" fill="#F2994A"/>
<path d="M80.411 23.9774C80.4348 23.4068 80.934 22.8987 81.5549 22.817C82.1654 22.7559 82.639 23.1553 82.6358 23.7328C82.6121 24.3033 82.1129 24.8114 81.4919 24.8931C80.8815 24.9542 80.3924 24.5617 80.411 23.9774Z" fill="#F2994A"/>
<rect x="127" y="14" width="16" height="16" rx="8" fill="#404040"/>
</svg>
