<svg width="101" height="118" viewBox="0 0 101 118" fill="none" xmlns="http://www.w3.org/2000/svg">
<path d="M50.6058 8.11773C47.115 8.11773 44.2751 10.9577 44.2751 14.4485V26.4388C44.2751 30.016 41.6535 32.9912 38.2309 33.5472V9.6088C38.2309 4.6922 34.231 0.692238 29.3144 0.692238C24.3978 0.692238 20.3978 4.6922 20.3978 9.6088V43.8909C16.9752 43.3348 14.3537 40.3597 14.3537 36.7824V24.7921C14.3537 21.3014 11.5137 18.4614 8.02298 18.4614C4.53225 18.4614 1.69226 21.3012 1.69226 24.7921V36.7824C1.69226 47.3464 9.98186 56.0109 20.3977 56.6132V70.9889H18.3707C17.7307 70.9889 17.2119 71.5077 17.2119 72.1477C17.2119 72.7876 17.7307 73.3064 18.3707 73.3064H43.7157C44.3557 73.3064 44.8745 72.7876 44.8745 72.1477C44.8745 71.5077 44.3557 70.9889 43.7157 70.9889H38.2309H35.9136H22.7153V55.488C22.7153 54.848 22.1965 54.3292 21.5566 54.3292C11.8813 54.3292 4.00989 46.4579 4.00989 36.7826V24.7923C4.00989 22.5794 5.8101 20.779 8.02313 20.779C10.236 20.779 12.0364 22.5794 12.0364 24.7923V36.7826C12.0364 41.6397 15.6934 45.656 20.398 46.2298V48.2341C20.398 48.8741 20.9168 49.3929 21.5567 49.3929C22.1966 49.3929 22.7154 48.8741 22.7154 48.2341V9.6088C22.7153 5.97005 25.6756 3.00971 29.3144 3.00971C32.9531 3.00971 35.9135 5.97005 35.9135 9.6088V37.8902C35.9135 38.5301 36.4323 39.0489 37.0722 39.0489C37.7121 39.0489 38.2309 38.5301 38.2309 37.8902V35.8859C42.9356 35.312 46.5925 31.2956 46.5925 26.4386V14.4483C46.5925 12.2354 48.3929 10.4351 50.6058 10.4351C52.8187 10.4351 54.619 12.2354 54.619 14.4483V17.4459V18.9447L56.9363 18.9447V17.4459V14.4483C56.9365 10.9576 54.0965 8.11773 50.6058 8.11773Z" fill="#4F4F4F"/>
<path fill-rule="evenodd" clip-rule="evenodd" d="M22.7148 9.60812V48.2334C22.7148 48.8734 22.1959 49.3922 21.556 49.3922C20.9161 49.3922 20.3973 48.8734 20.3973 48.2334V46.2291C15.6927 45.6553 12.0357 41.639 12.0357 36.7819V24.7916C12.0357 22.5787 10.2353 20.7783 8.02244 20.7783C5.8094 20.7783 4.00919 22.5787 4.00919 24.7916V36.7819C4.00919 46.4572 11.8806 54.3286 21.5559 54.3286C22.1958 54.3286 22.7146 54.8474 22.7146 55.4873V70.9883H43.715C44.355 70.9883 44.8738 71.5071 44.8738 72.147C44.8738 72.7869 44.355 73.3057 43.715 73.3057H18.37C17.73 73.3057 17.2112 72.7869 17.2112 72.147C17.2112 71.5071 17.73 70.9883 18.37 70.9883H20.397V56.6125C9.98116 56.0103 1.69156 47.3457 1.69156 36.7817V24.7914C1.69156 21.3005 4.53155 18.4607 8.02228 18.4607C11.513 18.4607 14.353 21.3007 14.353 24.7914V36.7817C14.353 40.1139 16.6276 42.9237 19.7056 43.7424C19.9319 43.8027 20.1626 43.8521 20.3971 43.8902V9.60812C20.3971 4.69152 24.3971 0.691564 29.3137 0.691564C34.2303 0.691564 38.2302 4.69152 38.2302 9.60812V33.5465C38.4647 33.5084 38.6954 33.459 38.9218 33.3988C41.9997 32.58 44.2744 29.7703 44.2744 26.4381V14.4478C44.2744 10.957 47.1144 8.11706 50.6051 8.11706C54.0958 8.11706 56.9358 10.9569 56.9357 14.4476V18.944L54.6183 18.944V14.4476C54.6183 12.2347 52.818 10.4344 50.6051 10.4344C48.3922 10.4344 46.5918 12.2347 46.5918 14.4476V26.4379C46.5918 31.2949 42.9349 35.3114 38.2302 35.8852V37.8895C38.2302 38.5294 37.7114 39.0482 37.0715 39.0482C36.4316 39.0482 35.9128 38.5294 35.9128 37.8895V9.60812C35.9128 5.96938 32.9524 3.00904 29.3137 3.00904C25.6749 3.00904 22.7146 5.96938 22.7148 9.60812ZM38.9218 36.4788V37.8895C38.9218 38.9114 38.0934 39.7398 37.0715 39.7398C36.0496 39.7398 35.2212 38.9114 35.2212 37.8895V9.60812C35.2212 6.35132 32.5705 3.7006 29.3137 3.7006C26.0569 3.7006 23.4062 6.35132 23.4063 9.60809V48.2334C23.4063 49.2553 22.5779 50.0837 21.556 50.0837C20.5341 50.0837 19.7057 49.2553 19.7057 48.2334V46.8228C14.9554 45.9496 11.3441 41.7823 11.3441 36.7819V24.7916C11.3441 22.9607 9.85338 21.4699 8.02244 21.4699C6.19136 21.4699 4.70075 22.9606 4.70075 24.7916V36.7819C4.70075 46.0752 12.2625 53.637 21.5559 53.637C22.5777 53.637 23.4062 54.4654 23.4062 55.4873V70.2967H43.715C44.7369 70.2967 45.5653 71.1251 45.5653 72.147C45.5653 73.1689 44.7369 73.9973 43.715 73.9973H18.37C17.3481 73.9973 16.5197 73.1689 16.5197 72.147C16.5197 71.1251 17.3481 70.2967 18.37 70.2967H19.7054V57.2549C9.23411 56.316 1 47.4932 1 36.7817V24.7914C1 20.9186 4.14962 17.7692 8.02228 17.7692C11.895 17.7692 15.0446 20.9188 15.0446 24.7914V36.7817C15.0446 39.728 17.0137 42.2249 19.7056 43.0241V9.60812C19.7056 4.30958 24.0151 0 29.3137 0C34.6122 0 38.9218 4.30958 38.9218 9.60812V32.6804C41.6137 31.8812 43.5828 29.3844 43.5828 26.4381V14.4478C43.5828 10.5751 46.7324 7.42549 50.6051 7.42549C54.4777 7.42549 57.6274 10.5749 57.6272 14.4477V19.6355L53.9268 19.6356V14.4476C53.9268 12.6167 52.436 11.1259 50.6051 11.1259C48.7741 11.1259 47.2834 12.6167 47.2834 14.4476V26.4379C47.2834 31.4382 43.6721 35.6056 38.9218 36.4788Z" fill="#4F4F4F"/>
<path d="M29.3147 62.4923C28.6748 62.4923 28.156 63.0111 28.156 63.651V65.9685C28.156 66.6084 28.6748 67.1272 29.3147 67.1272C29.9547 67.1272 30.4735 66.6084 30.4735 65.9685V63.651C30.4735 63.0111 29.9547 62.4923 29.3147 62.4923Z" fill="#4F4F4F"/>
<path d="M32.4383 23.8687C31.7983 23.8687 31.2795 24.3875 31.2795 25.0275V27.3449C31.2795 27.9849 31.7983 28.5037 32.4383 28.5037C33.0782 28.5037 33.597 27.9849 33.597 27.3449V25.0275C33.597 24.3875 33.0782 23.8687 32.4383 23.8687Z" fill="#4F4F4F"/>
<path d="M26.1879 16.1444C25.5479 16.1444 25.0291 16.6632 25.0291 17.3031V19.6206C25.0291 20.2605 25.5479 20.7793 26.1879 20.7793C26.8278 20.7793 27.3466 20.2605 27.3466 19.6206V17.3031C27.3466 16.6632 26.8278 16.1444 26.1879 16.1444Z" fill="#4F4F4F"/>
<path d="M50.6054 18.4608C49.9654 18.4608 49.4466 18.9796 49.4466 19.6196V21.9371C49.4466 22.577 49.9654 23.0958 50.6054 23.0958C51.2453 23.0958 51.7641 22.577 51.7641 21.9371V19.6196C51.7641 18.9796 51.2453 18.4608 50.6054 18.4608Z" fill="#4F4F4F"/>
<path d="M8.02422 32.3664C7.38428 32.3664 6.86548 32.8852 6.86548 33.5251V35.8426C6.86548 36.4825 7.38428 37.0013 8.02422 37.0013C8.66415 37.0013 9.18295 36.4825 9.18295 35.8426V33.5251C9.18295 32.8852 8.66415 32.3664 8.02422 32.3664Z" fill="#4F4F4F"/>
<path fill-rule="evenodd" clip-rule="evenodd" d="M62.1635 24.897C48.7956 24.897 37.9588 35.7338 37.9588 49.1017C37.9588 62.4696 48.7956 73.3064 62.1635 73.3064C75.5314 73.3064 86.3682 62.4696 86.3682 49.1017C86.3682 35.7338 75.5314 24.897 62.1635 24.897ZM31.0432 49.1017C31.0432 31.9144 44.9762 17.9813 62.1635 17.9813C79.3508 17.9813 93.2839 31.9144 93.2839 49.1017C93.2839 66.289 79.3508 80.222 62.1635 80.222C44.9762 80.222 31.0432 66.289 31.0432 49.1017Z" fill="#4F4F4F" stroke="#303030" stroke-width="3" stroke-linecap="round" stroke-linejoin="round"/>
<path fill-rule="evenodd" clip-rule="evenodd" d="M79.8766 68.8763C81.0451 67.7078 82.9396 67.7078 84.1081 68.8763L97.1238 81.892C98.2923 83.0605 98.2923 84.955 97.1238 86.1235C95.9553 87.292 94.0608 87.292 92.8923 86.1235L79.8766 73.1078C78.7081 71.9393 78.7081 70.0447 79.8766 68.8763Z" fill="#4F4F4F"/>
<path d="M36.8081 61C53.0631 60.0672 66 46.6475 66 30.2855V21L62.3836 21.0001V30.2857C62.3836 45.2711 50.0994 57.4625 35 57.4625L36.8081 61Z" fill="#4F4F4F"/>
<path d="M3.50127 110C2.79193 110 2.2226 109.846 1.79327 109.538C1.37327 109.23 1.1446 108.833 1.10727 108.348L1.05127 107.438H2.25527C2.25527 107.699 2.26927 107.919 2.29727 108.096C2.35327 108.395 2.67993 108.544 3.27727 108.544H4.43927C5.43793 108.544 5.8346 108.18 5.62927 107.452C5.48927 107.023 5.23727 106.486 4.87327 105.842C4.50927 105.198 4.1826 104.661 3.89327 104.232L3.44527 103.602L4.49527 102.748C4.6446 102.944 4.83127 103.205 5.05527 103.532C5.27927 103.859 5.60593 104.414 6.03527 105.198C6.47393 105.973 6.7586 106.617 6.88927 107.13C7.08527 107.942 6.95927 108.623 6.51127 109.174C6.0726 109.725 5.32593 110 4.27127 110H3.50127ZM7.24616 113.584L6.91016 112.184C8.01149 111.885 8.70216 111.657 8.98216 111.498C9.51416 111.209 9.76616 110.761 9.73816 110.154C9.72882 110.089 9.71949 110.014 9.71016 109.93L9.15016 105.898L10.4382 105.702L10.9842 109.762C11.0495 110.247 11.0355 110.677 10.9422 111.05C10.8488 111.423 10.7042 111.731 10.5082 111.974C10.3215 112.226 10.0462 112.455 9.68216 112.66C9.31816 112.875 8.95882 113.043 8.60416 113.164C8.24949 113.295 7.79682 113.435 7.24616 113.584ZM13.1927 110.042L12.8287 100.648L14.1307 100.578L14.4807 109.986L13.1927 110.042ZM23.4129 108.544H24.0989V110H23.4129C22.7969 110 22.2929 109.757 21.9009 109.272C21.4342 109.757 20.7202 110 19.7589 110H19.1009C18.3915 110 17.8222 109.846 17.3929 109.538C16.9729 109.23 16.7442 108.833 16.7069 108.348L16.6509 107.438H17.8549C17.8549 107.699 17.8689 107.919 17.8969 108.096C17.9529 108.395 18.2795 108.544 18.8769 108.544H19.9269C20.4495 108.544 20.7995 108.455 20.9769 108.278C21.1542 108.091 21.2055 107.839 21.1309 107.522C21.1309 107.513 21.1262 107.503 21.1169 107.494C21.1169 107.475 21.1169 107.461 21.1169 107.452L20.0669 103.35L21.3409 103L22.3769 107.13C22.4329 107.345 22.4749 107.508 22.5029 107.62C22.5402 107.732 22.5869 107.858 22.6429 107.998C22.7082 108.138 22.7689 108.241 22.8249 108.306C22.8902 108.371 22.9695 108.427 23.0629 108.474C23.1655 108.521 23.2822 108.544 23.4129 108.544ZM25.8613 103.588L24.7693 102.496L25.8613 101.418L26.9393 102.496L25.8613 103.588ZM23.9573 110V108.544H25.0633C25.614 108.544 26.0107 108.427 26.2533 108.194C26.496 107.951 26.538 107.531 26.3793 106.934L25.8193 104.848L27.0793 104.484L27.6393 106.57C27.9193 107.625 27.798 108.46 27.2753 109.076C26.7527 109.692 26.0153 110 25.0633 110H23.9573ZM35.22 110C34.5107 110 33.9413 109.846 33.512 109.538C33.092 109.23 32.8633 108.833 32.826 108.348L32.77 107.438H33.974C33.974 107.699 33.988 107.919 34.016 108.096C34.072 108.395 34.3987 108.544 34.996 108.544H36.158C37.1567 108.544 37.5533 108.18 37.348 107.452C37.208 107.023 36.956 106.486 36.592 105.842C36.228 105.198 35.9013 104.661 35.612 104.232L35.164 103.602L36.214 102.748C36.3633 102.944 36.55 103.205 36.774 103.532C36.998 103.859 37.3247 104.414 37.754 105.198C38.1927 105.973 38.4773 106.617 38.608 107.13C38.804 107.942 38.678 108.623 38.23 109.174C37.7913 109.725 37.0447 110 35.99 110H35.22ZM46.4505 108.544V110H45.7645C45.7925 110.467 45.7505 110.868 45.6385 111.204C45.5359 111.549 45.3772 111.839 45.1625 112.072C44.9572 112.305 44.6399 112.515 44.2105 112.702C43.7905 112.889 43.3472 113.043 42.8805 113.164C42.4232 113.295 41.8119 113.439 41.0465 113.598L40.7805 112.184C42.4419 111.829 43.4825 111.54 43.9025 111.316C44.3225 111.092 44.5045 110.653 44.4485 110H42.7265C42.0172 110 41.4432 109.79 41.0045 109.37C40.5659 108.95 40.3185 108.381 40.2625 107.662C40.1972 106.869 40.3932 106.159 40.8505 105.534C41.3172 104.899 41.9285 104.563 42.6845 104.526C43.4405 104.489 44.0705 104.75 44.5745 105.31C45.0879 105.861 45.3959 106.598 45.4985 107.522L45.6105 108.544H46.4505ZM41.5645 107.55C41.6205 108.213 42.0079 108.544 42.7265 108.544H44.2945L44.1965 107.69C44.1405 107.13 43.9819 106.701 43.7205 106.402C43.4685 106.103 43.1465 105.963 42.7545 105.982C42.3625 105.991 42.0545 106.155 41.8305 106.472C41.6159 106.78 41.5272 107.139 41.5645 107.55ZM51.2809 104.652L54.8369 106.78L54.6549 108.46L50.5529 109.594C49.5635 109.865 48.1729 110 46.3809 110H46.3109V108.544H46.3809C48.0702 108.544 49.3535 108.427 50.2309 108.194L53.3109 107.396L50.6649 105.912C50.2729 105.688 49.8715 105.637 49.4609 105.758C49.0502 105.879 48.7282 106.141 48.4949 106.542L48.2429 106.976L47.1229 106.276L47.3889 105.786C47.8089 105.03 48.3829 104.549 49.1109 104.344C49.8389 104.129 50.5622 104.232 51.2809 104.652ZM49.6289 111.918L50.7069 110.826L51.7989 111.918L50.7069 112.996L49.6289 111.918ZM61.883 109.776C61.9297 110.196 61.9297 110.565 61.883 110.882C61.8363 111.199 61.729 111.479 61.561 111.722C61.393 111.974 61.197 112.184 60.973 112.352C60.749 112.529 60.4363 112.693 60.035 112.842C59.6337 113.001 59.223 113.131 58.803 113.234C58.383 113.346 57.8463 113.467 57.193 113.598L56.927 112.184C57.5523 112.053 58.0143 111.955 58.313 111.89C58.6117 111.825 58.9337 111.741 59.279 111.638C59.6337 111.535 59.8717 111.442 59.993 111.358C60.1237 111.274 60.2497 111.157 60.371 111.008C60.5017 110.868 60.5763 110.714 60.595 110.546C60.6137 110.387 60.609 110.182 60.581 109.93L60.567 109.86C59.9883 109.953 59.419 110 58.859 110C58.187 110 57.6223 109.785 57.165 109.356C56.717 108.917 56.465 108.353 56.409 107.662C56.3437 106.869 56.5397 106.159 56.997 105.534C57.4543 104.899 58.0657 104.563 58.831 104.526C59.587 104.489 60.217 104.75 60.721 105.31C61.2343 105.861 61.5423 106.598 61.645 107.522L61.883 109.776ZM58.859 108.544C59.4003 108.544 59.923 108.497 60.427 108.404L60.357 107.704C60.301 107.144 60.1423 106.715 59.881 106.416C59.6197 106.108 59.2883 105.963 58.887 105.982C58.495 105.991 58.1917 106.155 57.977 106.472C57.7623 106.789 57.6737 107.149 57.711 107.55C57.7297 107.858 57.837 108.101 58.033 108.278C58.2383 108.455 58.5137 108.544 58.859 108.544ZM75.771 108.544V110C75.4443 110 75.1317 109.986 74.833 109.958C74.861 110.014 74.875 110.07 74.875 110.126C74.9777 111.003 74.7443 111.68 74.175 112.156C73.615 112.641 72.7283 113.024 71.515 113.304C70.5723 113.519 69.737 113.5 69.009 113.248C68.2903 113.005 67.7443 112.576 67.371 111.96C67.007 111.353 66.797 110.593 66.741 109.678C66.6943 108.763 66.8717 107.751 67.273 106.64L68.505 107.13C67.9077 108.838 67.8657 110.135 68.379 111.022C68.8923 111.918 69.8397 112.207 71.221 111.89C72.201 111.657 72.8637 111.433 73.209 111.218C73.5543 111.013 73.6803 110.663 73.587 110.168C73.5403 109.925 73.1437 109.659 72.397 109.37C72.3223 109.351 72.173 109.305 71.949 109.23C71.725 109.155 71.543 109.095 71.403 109.048L71.809 107.676C71.9117 107.704 72.0983 107.76 72.369 107.844C72.6397 107.919 72.817 107.97 72.901 107.998C72.985 108.017 73.1343 108.059 73.349 108.124C73.5637 108.18 73.7083 108.217 73.783 108.236C73.8577 108.255 73.979 108.287 74.147 108.334C74.315 108.371 74.4363 108.399 74.511 108.418C74.5857 108.427 74.6883 108.446 74.819 108.474C74.959 108.493 75.071 108.507 75.155 108.516C75.2483 108.516 75.3463 108.521 75.449 108.53C75.561 108.539 75.6683 108.544 75.771 108.544ZM77.415 103.462L76.463 102.51L77.415 101.544L78.381 102.51L77.415 103.462ZM79.977 103.462L79.011 102.51L79.977 101.544L80.943 102.51L79.977 103.462ZM75.637 110V108.544H77.709C78.2504 108.544 78.6424 108.427 78.885 108.194C79.1277 107.951 79.1697 107.531 79.011 106.934L78.465 104.848L79.725 104.484L80.285 106.64C80.565 107.667 80.439 108.483 79.907 109.09C79.3844 109.697 78.6517 110 77.709 110H75.637ZM80.8965 113.584L80.5605 112.184C81.6619 111.885 82.3525 111.657 82.6325 111.498C83.1645 111.209 83.4165 110.761 83.3885 110.154C83.3792 110.089 83.3699 110.014 83.3605 109.93L82.8005 105.898L84.0885 105.702L84.6345 109.762C84.6999 110.247 84.6859 110.677 84.5925 111.05C84.4992 111.423 84.3545 111.731 84.1585 111.974C83.9719 112.226 83.6965 112.455 83.3325 112.66C82.9685 112.875 82.6092 113.043 82.2545 113.164C81.8999 113.295 81.4472 113.435 80.8965 113.584ZM89.153 110C88.229 110 87.5804 109.785 87.207 109.356C86.8337 108.927 86.6237 108.171 86.577 107.088L86.325 100.648L87.627 100.592L87.879 107.088C87.8977 107.723 87.977 108.124 88.117 108.292C88.2664 108.46 88.6117 108.544 89.153 108.544H89.293V110H89.153ZM92.4765 107.508C92.5138 107.9 92.6118 108.171 92.7705 108.32C92.9292 108.469 93.2138 108.544 93.6245 108.544V110C92.8592 110 92.2712 109.79 91.8605 109.37C91.4218 109.79 90.8152 110 90.0405 110H89.1585V108.544H90.0405C90.4698 108.544 90.7732 108.474 90.9505 108.334C91.1278 108.185 91.2072 107.956 91.1885 107.648V107.62L91.0345 105.898L92.3225 105.772L92.4765 107.494V107.508ZM89.1025 112.002L90.1945 110.91L91.2725 112.002L90.1945 113.08L89.1025 112.002ZM97.7348 109.846C97.4362 109.883 96.9462 109.916 96.2648 109.944C95.5835 109.963 94.9768 109.977 94.4448 109.986L93.6468 110H93.4788V108.544H93.6188L95.1448 108.516C95.0048 108.264 94.9068 107.979 94.8508 107.662C94.7108 106.915 94.8462 106.234 95.2568 105.618C95.6675 104.993 96.2368 104.619 96.9648 104.498C97.1982 104.461 97.5108 104.465 97.9028 104.512C98.2948 104.559 98.6262 104.615 98.8968 104.68L99.3168 104.792L98.9808 106.192C98.8875 106.164 98.7708 106.136 98.6308 106.108C98.4908 106.071 98.2622 106.029 97.9448 105.982C97.6368 105.926 97.4082 105.903 97.2588 105.912C96.8762 105.959 96.5728 106.122 96.3488 106.402C96.1248 106.682 96.0455 107.004 96.1108 107.368C96.1668 107.667 96.3115 107.914 96.5448 108.11C96.7875 108.306 97.0582 108.409 97.3568 108.418C97.4688 108.418 97.5715 108.409 97.6648 108.39V108.404L100.045 107.956L100.297 109.37L97.8888 109.818C97.8702 109.827 97.8422 109.837 97.8048 109.846C97.7768 109.846 97.7535 109.846 97.7348 109.846Z" fill="#5C5C5C"/>
</svg>
