<svg width="96" height="96" viewBox="0 0 96 96" fill="none" xmlns="http://www.w3.org/2000/svg">
<path d="M84.6915 48.7686L69.8936 36.1386C71.187 33.6816 72.0583 31.0112 72.4623 28.2011C72.5728 27.4324 72.0393 26.7197 71.2706 26.6091C70.5016 26.4988 69.789 27.0321 69.6785 27.8008C69.0043 32.49 66.8692 36.7474 63.5041 40.1126C63.2403 40.3763 63.0922 40.734 63.0922 41.1069C63.0922 41.4799 63.2403 41.8376 63.5041 42.1013L67.3605 45.9574C67.4623 46.0592 67.4859 46.1785 67.4308 46.3116C67.3756 46.4447 67.2746 46.5122 67.1306 46.5122H58.3747C57.5981 46.5122 56.9684 47.1418 56.9684 47.9185C56.9684 48.6951 57.5981 49.3247 58.3747 49.3247H67.1306C68.4041 49.3247 69.5418 48.5644 70.0291 47.3878C70.5165 46.2113 70.2495 44.8691 69.3491 43.9688L66.4597 41.0794C67.1716 40.2836 67.8234 39.447 68.42 38.5781L82.8658 50.9076C82.895 50.9325 82.919 50.9618 82.9438 50.9905L56.4772 68.7955L50.6186 63.7948C49.904 63.1851 48.9931 62.8491 48.0538 62.8491C47.1144 62.8491 46.2035 63.1851 45.4889 63.7948L39.6301 68.7955L30.2311 62.4724C29.5865 62.0387 28.7129 62.2099 28.2794 62.8541C27.8458 63.4986 28.0169 64.3723 28.6612 64.8058L37.4092 70.6911L12.9764 91.5452V54.2543L22.9366 60.9548C23.1776 61.1168 23.4504 61.1944 23.7204 61.1944C24.1728 61.1944 24.617 60.9763 24.8883 60.573C25.322 59.9286 25.1508 59.0548 24.5066 58.6213L13.1641 50.9908C13.1891 50.9621 13.2131 50.9327 13.2425 50.9078L27.6763 38.5884C29.3593 41.0451 31.5024 43.2056 34.0372 44.9545C33.5735 45.8417 33.3097 46.8493 33.3097 47.9179C33.3097 51.4585 36.1901 54.3388 39.7306 54.3388C42.8186 54.3388 45.4036 52.1477 46.0143 49.2386C46.6919 49.2941 47.3743 49.3249 48.0539 49.3249H51.4323C52.209 49.3249 52.8386 48.6953 52.8386 47.9186C52.8386 47.142 52.209 46.5124 51.4323 46.5124H48.0539C47.3594 46.5124 46.6618 46.4792 45.972 46.4141C45.2932 43.5968 42.7531 41.4968 39.7306 41.4968C38.2794 41.4968 36.9395 41.9813 35.8631 42.7963C29.7991 38.721 26.2044 32.0078 26.2042 24.6626C26.2042 18.8321 28.4786 13.3466 32.6084 9.21675C36.7383 5.08688 42.2234 2.8125 48.0539 2.8125C53.298 2.8125 58.3681 4.69819 62.3308 8.12175C66.2533 11.511 68.85 16.182 69.6423 21.2747C69.7618 22.0421 70.4818 22.5681 71.2479 22.4481C72.0153 22.3286 72.5407 21.6098 72.4213 20.8425C71.5267 15.0919 68.5961 9.81844 64.1696 5.99381C59.6962 2.12869 53.9729 0 48.0539 0C41.4721 0 35.2805 2.56688 30.6194 7.22813C25.9584 11.8892 23.3915 18.081 23.3915 24.6626C23.3915 28.7552 24.3813 32.6732 26.2053 36.1461L11.4164 48.7686C10.6205 49.4481 10.1639 50.4379 10.1639 51.4845V51.6079V51.6212V92.4291C10.1639 93.43 10.5793 94.3347 11.2449 94.9836C11.2934 95.034 11.3443 95.0813 11.3983 95.1231C12.0251 95.6674 12.8409 95.9996 13.7345 95.9996H82.3736C83.2775 95.9996 84.1018 95.6591 84.7314 95.1034C84.7736 95.0695 84.8139 95.0327 84.8525 94.9933C85.5243 94.3437 85.9441 93.4352 85.9441 92.4291V51.4843C85.9441 50.4377 85.4876 49.4479 84.6915 48.7686ZM83.1316 54.2537V91.546L58.698 70.6911L83.1316 54.2537ZM47.3146 65.9342C47.5205 65.7585 47.783 65.6618 48.0536 65.6618C48.3241 65.6618 48.5866 65.7585 48.7925 65.9342L80.7225 93.1873H15.3847L47.3146 65.9342Z" fill="#4F4F4F"/>
<path d="M59.3284 18.0407C59.3284 16.7979 58.8444 15.6294 57.9656 14.7508C57.0868 13.8718 55.9185 13.3877 54.6756 13.3877C53.4326 13.3877 52.2643 13.8718 51.3857 14.7506L48.054 18.0825L44.7223 14.7508C43.8435 13.8718 42.6752 13.3879 41.4322 13.3879C40.1893 13.3879 39.021 13.872 38.1422 14.7506C37.2634 15.6294 36.7794 16.7978 36.7794 18.0407C36.7794 19.2834 37.2634 20.4519 38.1422 21.3306L41.4741 24.6625L38.1422 27.9941C36.3281 29.8084 36.3283 32.76 38.1422 34.5741C39.021 35.4531 40.1893 35.937 41.4322 35.937C42.6752 35.937 43.8435 35.4531 44.7221 34.5743L48.0538 31.2426L51.3855 34.5743C52.2643 35.4531 53.4326 35.937 54.6754 35.937C55.9181 35.937 57.0864 35.4531 57.9654 34.5743C59.7795 32.7602 59.7795 29.8086 57.9654 27.9943L54.6338 24.6626L57.9654 21.3308C58.8444 20.4519 59.3284 19.2834 59.3284 18.0407ZM55.9768 19.3419L51.6508 23.6681C51.1016 24.2173 51.1016 25.1078 51.6508 25.6568L55.9768 29.9828C56.6944 30.7003 56.6944 31.8679 55.977 32.5853C55.6294 32.9329 55.1672 33.1243 54.6756 33.1243C54.1839 33.1243 53.7219 32.9329 53.3743 32.5853L49.0483 28.2591C48.7847 27.9953 48.4269 27.8471 48.054 27.8471C47.6811 27.8471 47.3233 27.9953 47.0597 28.2591L42.7335 32.5853C42.3861 32.9327 41.9239 33.1241 41.4324 33.1241C40.9408 33.1241 40.4786 32.9327 40.1312 32.5851C39.4136 31.8675 39.4136 30.7001 40.1312 29.9826L44.4574 25.6566C44.7212 25.393 44.8693 25.0352 44.8693 24.6623C44.8693 24.2893 44.7212 23.9316 44.4574 23.6679L40.1312 19.3418C39.7835 18.9941 39.5921 18.5321 39.5921 18.0405C39.5921 17.5489 39.7835 17.0869 40.1312 16.7393C40.4788 16.3916 40.9408 16.2002 41.4324 16.2002C41.9241 16.2002 42.3861 16.3916 42.7337 16.7393L47.0597 21.0653C47.6089 21.6144 48.4993 21.6144 49.0483 21.0653L53.3745 16.7391C53.7221 16.3914 54.1841 16.2 54.6756 16.2C55.167 16.2 55.6292 16.3914 55.9768 16.7393C56.3244 17.0867 56.5159 17.5489 56.5159 18.0403C56.5159 18.5318 56.3244 18.9943 55.9768 19.3419Z" fill="#4F4F4F"/>
<path d="M84.2304 31.501C83.6812 30.9518 82.7908 30.9518 82.2418 31.501L80.9171 32.8257L79.5924 31.501C79.0432 30.9518 78.1528 30.9518 77.6038 31.501C77.0546 32.0502 77.0546 32.9406 77.6038 33.4896L78.9285 34.8143L77.6038 36.139C77.0546 36.6882 77.0546 37.5786 77.6038 38.1276C77.8783 38.4021 78.2383 38.5396 78.5981 38.5396C78.9579 38.5396 79.3179 38.4023 79.5924 38.1276L80.9171 36.8029L82.2418 38.1276C82.5163 38.4021 82.8763 38.5396 83.2361 38.5396C83.5959 38.5396 83.9559 38.4023 84.2304 38.1276C84.7796 37.5784 84.7796 36.688 84.2304 36.139L82.9057 34.8143L84.2304 33.4896C84.7796 32.9406 84.7796 32.0502 84.2304 31.501Z" fill="#4F4F4F"/>
<path d="M80.9169 16.1254C84.4575 16.1254 87.3378 13.245 87.3378 9.70445C87.3378 6.16389 84.4575 3.28333 80.9169 3.28333C77.3763 3.28333 74.496 6.1637 74.496 9.70445C74.496 13.245 77.3763 16.1254 80.9169 16.1254Z" fill="#4F4F4F"/>
<path d="M14.5215 34.5002C17.7523 34.5002 20.3809 31.8717 20.3809 28.6409C20.3809 25.4101 17.7523 22.7815 14.5215 22.7815C11.2907 22.7815 8.66211 25.4101 8.66211 28.6409C8.66211 31.8717 11.2905 34.5002 14.5215 34.5002Z" fill="#4F4F4F"/>
<path d="M13.5271 17.5436C13.8016 17.8181 14.1616 17.9556 14.5215 17.9556C14.8813 17.9556 15.2413 17.8183 15.5158 17.5436L16.2766 16.7828L17.0375 17.5436C17.312 17.8183 17.672 17.9556 18.0318 17.9556C18.3916 17.9556 18.7516 17.8183 19.0261 17.5436C19.5753 16.9945 19.5753 16.1042 19.0261 15.555L18.2653 14.7941L19.0261 14.0333C19.5753 13.4841 19.5753 12.5936 19.0261 12.0446C18.477 11.4955 17.5865 11.4955 17.0375 12.0446L16.2766 12.8055L15.5158 12.0446C14.9668 11.4955 14.0763 11.4955 13.5271 12.0446C12.978 12.5938 12.978 13.4841 13.5271 14.0333L14.288 14.7941L13.5271 15.555C12.9778 16.1042 12.9778 16.9946 13.5271 17.5436Z" fill="#4F4F4F"/>
</svg>
