<svg width="118" height="118" viewBox="0 0 118 118" fill="none" xmlns="http://www.w3.org/2000/svg">
<rect width="118" height="118" rx="5" fill="#212121"/>
<path d="M51.9737 67.2124C53.5245 65.6615 54.5021 63.6974 54.726 61.6817C54.758 61.3939 54.7724 61.1083 54.7724 60.8257H54.7737V32H50.8451V54.7393C50.0281 54.4035 49.1282 54.2258 48.1861 54.2258C45.8999 54.2258 43.5679 55.2467 41.7882 57.0266C38.4693 60.3454 38.0539 65.3299 40.8621 68.1383C42.071 69.3473 43.7451 70.0131 45.5757 70.0131C47.8617 70.0131 50.1938 68.9922 51.9737 67.2124Z" fill="#4F4F4F"/>
<path d="M79.6545 32H75.726V54.7393C74.9089 54.4035 74.009 54.2258 73.067 54.2258C70.7808 54.2258 68.4488 55.2467 66.669 57.0266C63.3502 60.3454 62.9348 65.3299 65.7429 68.1383C66.9519 69.3473 68.626 70.0131 70.4566 70.0131C72.7427 70.0131 75.0747 68.9922 76.8545 67.2123C78.4054 65.6614 79.3829 63.6972 79.6069 61.6816C79.6388 61.3938 79.6532 61.1082 79.6532 60.8256H79.6545V32V32Z" fill="#4F4F4F"/>
<path d="M66.6734 80.1572C64.5109 82.0365 61.6801 83.0714 58.7021 83.0714C55.7241 83.0714 52.8932 82.0365 50.7309 80.1572C48.7229 78.4121 47.5712 76.1331 47.5712 73.9047H43.6426C43.6426 77.2711 45.287 80.6309 48.1539 83.1225C51.0311 85.623 54.7771 87 58.7021 87C62.6272 87 66.3732 85.6229 69.2504 83.1225C72.1174 80.631 73.7617 77.2711 73.7617 73.9047H69.8331C69.8331 76.1331 68.6814 78.4121 66.6734 80.1572Z" fill="#4F4F4F"/>
</svg>
