<svg width="146" height="155" viewBox="0 0 146 155" fill="none" xmlns="http://www.w3.org/2000/svg">
<path d="M72.5374 154.996C59.5257 155.134 46.4173 151.829 34.7578 144.689L31.5152 145.613C30.915 145.786 30.2872 145.868 29.6663 145.868C26.6513 145.868 23.9745 143.84 23.1604 140.935L21.2217 134.029C21.001 133.809 20.7802 133.581 20.5594 133.353C7.30618 119.748 0 101.776 0 82.762C0 59.3601 11.3491 37.3381 30.3907 23.7192L34.882 18.0481L35.7237 16.9788C35.7237 16.9788 37.7313 14.4468 37.7313 14.4399C38.4971 13.4395 39.6907 12.8324 40.967 12.8324C41.0291 12.8324 41.0843 12.8324 41.1464 12.8393C41.2913 12.8462 44.4925 12.998 48.6872 14.2329C56.3383 11.5698 64.3551 10.2176 72.5306 10.2176C72.9445 10.2176 73.3653 10.2176 73.7862 10.2314C74.3381 7.43726 75.5938 5.00877 77.4703 3.2081C79.616 1.13836 82.5412 0 85.7217 0C88.8815 0 91.9723 1.16595 94.2076 3.2012C96.9811 5.72628 98.4851 9.48631 98.4989 13.3015C100.058 13.681 101.555 14.3916 102.859 15.392C103.853 16.1509 104.743 17.0753 105.515 18.1378C107.04 20.2351 112.304 22.0289 114.546 23.6295C117.789 25.9407 120.845 28.521 123.667 31.3289C128.945 36.5792 133.436 42.6228 136.858 49.2391C145.116 65.183 147.379 84.335 142.577 101.686C142.543 101.81 142.508 101.935 142.474 102.059L143.723 106.805C144.654 110.338 142.557 114.029 139.038 115.029L137.265 115.533C136.396 117.265 135.423 119.003 134.374 120.714C134.354 120.749 134.278 120.88 134.257 120.907C120.762 142.502 96.8224 154.741 72.5374 154.996Z" fill="#F2C94C"/>
<path d="M141.356 82.7618C141.356 84.5694 141.294 86.377 141.156 88.1501C141.087 88.8952 141.018 89.6334 140.942 90.3647C140.701 92.5241 140.37 94.6559 139.935 96.7464C139.666 98.0434 139.362 99.3198 139.011 100.596C138.893 101.017 138.783 101.431 138.659 101.845C138.645 101.9 138.624 101.955 138.61 102.01C138.583 102.1 138.555 102.197 138.528 102.279C138.39 102.79 138.231 103.294 138.065 103.804C138.038 103.887 138.01 103.977 137.976 104.059C137.962 104.108 137.948 104.149 137.927 104.197C137.196 106.447 136.341 108.634 135.382 110.779C135.32 110.917 135.257 111.041 135.195 111.179C135.113 111.359 135.03 111.538 134.947 111.717C134.885 111.855 134.816 111.987 134.754 112.125C133.705 114.367 132.525 116.533 131.235 118.63C131.208 118.679 131.18 118.72 131.152 118.768C127.993 123.853 124.198 128.489 119.866 132.58C119.479 132.939 119.093 133.298 118.7 133.65C116.423 135.713 114.001 137.617 111.455 139.342C110.938 139.693 110.421 140.045 109.896 140.383C108.054 141.57 106.157 142.667 104.198 143.674C103.694 143.93 103.204 144.178 102.687 144.426C98.3816 146.51 93.8351 148.159 89.0747 149.297C88.9367 149.338 88.8125 149.366 88.6745 149.401C85.8459 150.07 82.9552 150.56 80.0023 150.863C79.3883 150.932 78.7674 150.987 78.1465 151.036C76.4148 151.174 74.6624 151.229 72.8962 151.229C71.6268 151.229 70.385 151.201 69.1431 151.125C68.5015 151.091 67.8668 151.049 67.2458 150.994C65.4452 150.849 63.6514 150.635 61.8852 150.339C61.5886 150.304 61.2988 150.242 61.0021 150.194C51.8263 148.586 43.2783 145.151 35.7513 140.273C35.6202 140.19 35.5029 140.107 35.3719 140.032C35.2063 139.928 35.0545 139.825 34.8889 139.714C34.7647 139.631 34.6406 139.542 34.5164 139.466C33.3987 138.707 32.3155 137.927 31.2462 137.106C30.5908 136.603 29.9422 136.085 29.3075 135.561C28.4796 134.878 27.6655 134.174 26.8721 133.443C26.4927 133.105 26.1201 132.76 25.7476 132.408L25.5613 132.222L25.1956 131.884L25.1405 131.828C24.692 131.394 24.2574 130.952 23.8296 130.511C11.8113 118.175 4.41547 101.32 4.41547 82.748C4.41547 44.9339 35.0683 14.2742 72.8893 14.2742C100.079 14.2742 123.57 30.1353 134.63 53.1094C134.85 53.5647 135.071 54.0408 135.271 54.503C137.9 60.2845 139.742 66.4937 140.666 72.9927C140.811 73.9724 140.929 74.9658 141.018 75.9455V75.9593C141.246 78.2084 141.356 80.4713 141.356 82.7618Z" fill="#F2C94C"/>
<path d="M59.4633 17.2683C58.6148 16.6681 57.4419 16.8199 56.7796 17.6133L54.4339 20.435L53.0541 22.0839L52.8126 22.3806L55.3998 24.0916L60.3326 27.3549L61.8987 25.1471L63.6442 22.6772C64.2789 21.7804 64.0651 20.5385 63.1751 19.9038L59.4633 17.2683Z" fill="#FFE2BF"/>
<path d="M54.4339 20.4351L53.0541 22.084C53.7785 22.698 54.496 23.3397 55.2273 23.9537C55.2825 24.002 55.3377 24.0434 55.3998 24.0917L60.3327 27.3549L61.8988 25.1472C60.0498 22.8429 57.3592 21.1871 54.4339 20.4351Z" fill="#3C2238"/>
<path d="M61.8092 21.1388C61.2021 21.125 60.6985 21.5872 60.6847 22.1668C60.6709 22.7463 61.1538 23.2292 61.7609 23.243C62.3681 23.2568 62.8717 22.7946 62.8855 22.2151C62.8993 21.6355 62.4163 21.1526 61.8092 21.1388Z" fill="#3C2238"/>
<path d="M39.1593 71.2953C34.7853 70.2742 31.115 68.7564 28.0379 67.004C26.5408 66.1554 25.1886 65.2585 23.9675 64.3202L23.9606 64.3134C19.0553 60.5947 16.2473 56.4828 14.8675 53.9992C14.426 53.2127 14.1293 52.5848 13.9568 52.1847C13.8188 51.8742 13.7499 51.7017 13.7499 51.7017L17.8065 46.5826L18.662 45.4994L22.9602 40.0836L23.8157 39.0005L28.1138 33.5846L28.9693 32.5015L33.2744 27.0719L34.123 25.9956L38.4211 20.5729L39.2697 19.4966L41.2705 16.9715L41.3119 16.9163L41.3188 16.9094C41.3188 16.9094 49.4667 17.2613 56.6555 22.2562C57.2627 22.6771 57.8698 23.1325 58.4631 23.6292C60.1189 25.0159 61.409 26.5475 62.4094 28.0998C62.7751 28.6586 63.1062 29.2313 63.3891 29.7901C64.7896 32.4877 65.4105 35.0817 65.6865 36.8893C65.7693 37.4344 65.8245 37.9104 65.859 38.2967C65.9073 38.8142 65.9142 39.166 65.9142 39.2902C65.9073 39.3316 65.9073 39.3454 65.9073 39.3454L62.2507 43.7125L61.2987 44.8509L56.9384 50.0666L55.9863 51.2119L55.3861 51.9294L52.5644 55.2962L51.6261 56.4208L50.674 57.5522L46.3068 62.7748L45.3617 63.9063L40.9945 69.122L40.9876 69.1289L40.0355 70.2673L39.1593 71.2953Z" fill="#5BA07F"/>
<path d="M41.3187 16.9094L41.3118 16.9232C42.4984 18.8411 44.6785 22.3735 45.0166 22.8012C48.1971 26.8717 52.0951 30.3903 56.3312 33.4259C58.4285 34.9299 60.6224 36.3097 62.8646 37.593C63.6718 38.0552 64.7964 38.8762 65.9072 39.297C65.9003 38.5243 65.6726 29.659 58.4561 23.636C50.9154 17.3233 41.3187 16.9094 41.3187 16.9094Z" fill="#FFE2BF"/>
<path d="M63.389 29.7899C54.8755 27.2579 46.5206 24.174 38.4142 20.5795L39.2628 19.5033C46.7828 22.8217 54.5236 25.6987 62.4024 28.0996C62.775 28.6584 63.0993 29.2241 63.389 29.7899Z" fill="#FFE2BF"/>
<path d="M65.8589 38.2898C54.7168 35.4612 43.7748 31.7012 33.2674 27.0718L34.116 25.9956C44.3061 30.4593 54.9031 34.1159 65.6865 36.8824C65.7761 37.4343 65.8244 37.9104 65.8589 38.2898Z" fill="#FFE2BF"/>
<path d="M65.8589 38.2898C54.7168 35.4612 43.7748 31.7012 33.2674 27.0718L34.116 25.9956C44.3061 30.4593 54.9031 34.1159 65.6865 36.8824C65.7761 37.4343 65.8244 37.9104 65.8589 38.2898Z" fill="#FFE2BF"/>
<path d="M61.2987 44.8443C49.9635 42.0363 38.8145 38.2556 28.107 33.5849L28.9625 32.5017C39.6976 37.1655 50.8742 40.9255 62.2508 43.7059L61.2987 44.8443Z" fill="#FFE2BF"/>
<path d="M61.2987 44.8443C49.9635 42.0363 38.8145 38.2556 28.107 33.5849L28.9625 32.5017C39.6976 37.1655 50.8742 40.9255 62.2508 43.7059L61.2987 44.8443Z" fill="#FFE2BF"/>
<path d="M55.9864 51.2049C44.7133 48.4245 33.6264 44.699 22.9603 40.0903L23.8158 39.0072C34.5025 43.6158 45.6239 47.3275 56.9385 50.0596L55.9864 51.2049Z" fill="#FFE2BF"/>
<path d="M55.9864 51.2049C44.7133 48.4245 33.6264 44.699 22.9603 40.0903L23.8158 39.0072C34.5025 43.6158 45.6239 47.3275 56.9385 50.0596L55.9864 51.2049Z" fill="#FFE2BF"/>
<path d="M50.6669 57.5452C39.4489 54.82 28.4241 51.1359 17.8132 46.5894L18.6687 45.5062C29.3072 50.0527 40.3734 53.7162 51.619 56.4137L50.6669 57.5452Z" fill="#FFE2BF"/>
<path d="M50.6669 57.5452C39.4489 54.82 28.4241 51.1359 17.8132 46.5894L18.6687 45.5062C29.3072 50.0527 40.3734 53.7162 51.619 56.4137L50.6669 57.5452Z" fill="#FFE2BF"/>
<path d="M45.3547 63.8994C34.9784 61.402 24.747 58.0766 14.8744 54.0061C14.4328 53.2196 14.1362 52.5918 13.9637 52.1916C24.4159 56.6002 35.2751 60.1463 46.2999 62.768L45.3547 63.8994Z" fill="#FFE2BF"/>
<path d="M45.3547 63.8994C34.9784 61.402 24.747 58.0766 14.8744 54.0061C14.4328 53.2196 14.1362 52.5918 13.9637 52.1916C24.4159 56.6002 35.2751 60.1463 46.2999 62.768L45.3547 63.8994Z" fill="#FFE2BF"/>
<path d="M40.0286 70.2534C36.0065 69.2944 32.005 68.2112 28.038 67.0039C26.5408 66.1553 25.1886 65.2584 23.9675 64.3201C29.5696 66.1622 35.2544 67.7628 40.9738 69.115L40.0286 70.2534Z" fill="#FFE2BF"/>
<path d="M62.2921 33.495C62.0368 33.3501 61.823 33.1293 61.6298 32.9017C61.0365 32.1842 60.6363 31.3287 60.312 30.4663C60.0775 29.8523 59.8843 29.1416 60.1879 28.5897C60.243 28.4862 60.3258 28.3896 60.4362 28.3551C60.5949 28.3069 60.7743 28.4034 60.9192 28.5069C61.6367 29.0313 62.0989 29.8316 62.4922 30.625C62.775 31.1907 64.0169 34.454 62.2921 33.495Z" fill="white"/>
<path d="M64.141 34.6749C63.865 34.3576 63.3959 34.3162 63.1061 34.5715C62.8164 34.8267 62.7957 35.2959 63.0716 35.6132C63.3476 35.9306 63.8167 35.972 64.1065 35.7167C64.4101 35.4545 64.4239 34.9923 64.141 34.6749Z" fill="white"/>
<path d="M20.104 51.8331C19.5452 52.4747 18.9381 53.1163 18.1447 53.4751C17.5721 53.7304 16.7304 53.7442 16.4544 53.206C16.2888 52.8818 16.413 52.4954 16.5579 52.1643C17.2133 50.6603 18.2275 49.3149 19.4003 48.1283C19.973 47.5487 20.6491 46.9692 21.4839 46.8519C22.7326 46.6725 22.9879 47.8523 22.5808 48.694C22.0427 49.8117 20.925 50.8948 20.104 51.8331Z" fill="white"/>
<path d="M65.7557 21.939C65.1692 19.7796 65.5349 17.2131 67.2321 15.7574C69.1569 14.1016 72.1925 14.4051 74.3313 15.7643C76.47 17.1234 77.9257 19.3104 79.3124 21.4353C78.6018 18.8344 77.8843 16.1989 77.8912 13.5013C77.8912 10.8038 78.6984 8.00275 80.644 6.12618C83.5968 3.27684 88.7849 3.44242 91.8206 6.20208C94.8562 8.96173 95.5944 13.7911 93.8972 17.5236C96.1187 16.5577 98.8094 17.1372 100.734 18.6136C102.652 20.09 103.866 22.3322 104.508 24.6642C104.998 26.4372 105.191 28.3207 104.839 30.1283C104.039 34.247 100.313 37.4827 96.1808 38.2278C92.0482 38.9729 87.6949 37.4482 84.5144 34.7024C86.7359 37.3654 88.1778 41.4704 86.0046 44.1749C85.3354 45.0097 84.3971 45.5892 83.4036 45.9893C79.1262 47.7003 73.7931 45.7824 71.3784 41.8568C68.9637 37.9381 69.5502 32.4878 72.5513 28.9968C72.1236 29.4935 68.881 30.4594 68.2255 30.1903C66.4594 29.4659 68.2117 28.7001 68.9362 27.7481C67.8599 25.7956 66.3559 24.1812 65.7557 21.939Z" fill="#EB5757"/>
<path d="M7.77527 69.7915L27.4171 139.838C27.8172 141.273 29.3143 142.108 30.7425 141.701L138.272 111.117C139.68 110.717 140.515 109.261 140.135 107.84L122.163 39.7458C121.783 38.3107 120.314 37.4553 118.879 37.8278L9.67943 66.4592C8.23061 66.8456 7.36822 68.3496 7.77527 69.7915Z" fill="#6E58A6"/>
<path d="M9.12057 70.1984L28.3622 138.817C28.7555 140.225 30.2181 141.039 31.6186 140.639L136.955 110.676C138.334 110.282 139.148 108.854 138.783 107.468L121.176 40.7598C120.804 39.3524 119.362 38.5107 117.961 38.8833L10.9902 66.942C9.56902 67.3146 8.72732 68.7841 9.12057 70.1984Z" stroke="#FFE2BF" stroke-width="0.2707" stroke-miterlimit="10"/>
<path d="M93.0623 94.47C93.0623 99.4167 91.986 104.108 90.0681 108.337C84.7903 119.9 73.1307 127.951 59.5877 127.951C43.1609 127.951 29.4937 116.126 26.6582 100.521C26.2994 98.5612 26.1132 96.5397 26.1132 94.4769C26.1132 87.6261 28.176 81.2513 31.7015 75.9458C37.7037 66.9356 47.9489 60.9954 59.5877 60.9954C74.8003 60.9954 87.6396 71.144 91.7101 85.0389C92.5932 88.0193 93.0623 91.186 93.0623 94.47Z" fill="#3C2238"/>
<path opacity="0.21" d="M93.0623 94.4701C93.0623 99.4168 91.986 104.108 90.0681 108.337L59.9672 94.277L26.6513 100.514C26.2925 98.5544 26.1062 96.533 26.1062 94.4701C26.1062 87.6193 28.1691 81.2445 31.6945 75.9391L59.8637 93.0351L91.7032 85.0321C92.5932 88.0194 93.0623 91.1861 93.0623 94.4701Z" fill="#FFE2BF"/>
<path d="M59.9671 102.004C64.2346 102.004 67.6941 98.5444 67.6941 94.2769C67.6941 90.0094 64.2346 86.5498 59.9671 86.5498C55.6996 86.5498 52.2401 90.0094 52.2401 94.2769C52.2401 98.5444 55.6996 102.004 59.9671 102.004Z" fill="#FFE2BF"/>
<path d="M63.4926 94.2767C63.4926 96.2223 61.9127 97.8022 59.9672 97.8022C58.0216 97.8022 56.4417 96.2223 56.4417 94.2767C56.4417 92.3312 58.0216 90.7513 59.9672 90.7513C61.9196 90.7513 63.4926 92.3312 63.4926 94.2767Z" fill="#6E58A6"/>
<path d="M18.0963 72.2474C18.0963 73.4409 17.1304 74.4068 15.9369 74.4068C14.7433 74.4068 13.7775 73.4409 13.7775 72.2474C13.7775 71.0538 14.7433 70.088 15.9369 70.088C17.1304 70.0811 18.0963 71.0538 18.0963 72.2474Z" fill="#FFE2BF"/>
<path d="M119.955 43.8851C119.955 45.0787 118.989 46.0445 117.796 46.0445C116.602 46.0445 115.636 45.0787 115.636 43.8851C115.636 42.6916 116.602 41.7257 117.796 41.7257C118.989 41.7257 119.955 42.6916 119.955 43.8851Z" fill="#FFE2BF"/>
<path d="M133.436 108.613C134.629 108.613 135.595 107.646 135.595 106.453C135.595 105.261 134.629 104.294 133.436 104.294C132.243 104.294 131.277 105.261 131.277 106.453C131.277 107.646 132.243 108.613 133.436 108.613Z" fill="#FFE2BF"/>
<path d="M34.5025 135.064C34.5025 136.258 33.5366 137.224 32.343 137.224C31.1495 137.224 30.1836 136.258 30.1836 135.064C30.1836 133.871 31.1495 132.905 32.343 132.905C33.5366 132.905 34.5025 133.871 34.5025 135.064Z" fill="#FFE2BF"/>
<path d="M111.746 61.3617C112.717 57.2259 110.152 53.0854 106.016 52.1138C101.88 51.1422 97.74 53.7073 96.7684 57.8432C95.7968 61.9791 98.3619 66.1195 102.498 67.0911C106.634 68.0628 110.774 65.4976 111.746 61.3617Z" fill="#3C2238"/>
<path d="M104.446 58.3872L110.124 77.2633C111.159 80.699 109.413 84.3487 106.102 85.7147L84.9902 94.38" stroke="#FFE2BF" stroke-width="1.0829" stroke-miterlimit="10" stroke-linecap="round" stroke-linejoin="round"/>
<path d="M95.9185 90.2338C96.6912 92.1656 95.7529 94.3664 93.8143 95.1391L76.3319 102.128L73.6619 95.0081L91.0201 88.1296C92.9588 87.3638 95.1458 88.3021 95.9185 90.2338Z" fill="#FFE2BF"/>
<path d="M89.4402 125.433C89.4402 125.433 86.1631 122.742 84.3141 122.328C82.4651 121.908 77.2563 121.569 73.2272 117.796C69.1981 114.015 59.2013 104.273 59.7877 103.432C60.3741 102.59 63.3131 102.424 65.8382 103.853C65.8382 103.853 56.7659 92.0964 57.8559 90.413C58.946 88.7365 60.2913 89.2401 62.982 91.3375C65.6726 93.4348 72.2199 99.3198 72.2199 99.3198C72.2199 99.3198 62.1334 87.3705 62.3059 85.4594C62.4439 83.9209 64.4032 83.1896 66.7558 85.1214C69.1084 87.0531 77.001 95.9599 77.001 95.9599C77.001 95.9599 67.9287 85.9631 69.5224 84.2038C71.1161 82.4376 72.3786 83.2793 74.2276 85.0455C76.0765 86.8117 81.6165 93.7798 81.6165 93.7798C81.6165 93.7798 76.7458 88.1501 77.8358 86.9772C78.9259 85.8044 79.7676 85.4663 81.8649 87.3981C83.9622 89.3298 102.611 110.579 102.611 110.579L89.4402 125.433Z" fill="#F29E74"/>
<path d="M72.0197 111.573C72.0197 111.573 63.2303 100.486 61.7745 98.5263C60.3188 96.567 56.6209 91.3581 58.1318 89.9024C59.6427 88.4467 61.2709 90.0128 62.4438 91.0201C63.6166 92.0273 71.9645 99.03 71.9645 99.03C71.9645 99.03 68.9082 95.4907 66.2245 91.9169C63.8236 88.7227 61.6986 85.5215 62.7818 84.4107C65.0792 82.0581 70.0052 88.1086 70.0052 88.1086L76.0557 94.718" stroke="#3C2238" stroke-width="0.3815" stroke-miterlimit="10" stroke-linecap="round" stroke-linejoin="round"/>
<path d="M73.5651 91.9583C73.5651 91.9583 68.5287 85.9078 69.536 84.1899C70.5433 82.4652 72.2681 83.0999 73.3167 84.1485C74.3654 85.1972 84.107 96.3255 84.107 96.3255" stroke="#3C2238" stroke-width="0.3815" stroke-miterlimit="10" stroke-linecap="round" stroke-linejoin="round"/>
<path d="M78.9396 90.3508C78.9396 90.3508 77.0355 87.805 78.0979 86.6529C79.1604 85.5076 80.4505 86.0941 81.4026 86.9634C82.3547 87.8327 87.7291 93.7935 87.7291 93.7935" stroke="#3C2238" stroke-width="0.3815" stroke-miterlimit="10" stroke-linecap="round" stroke-linejoin="round"/>
<path d="M60.2084 104.404C60.9328 104.039 61.8504 104.149 62.5196 104.598C63.1957 105.053 63.6304 105.812 63.7822 106.605C63.8925 107.171 63.8097 107.868 63.313 108.158" stroke="#3C2238" stroke-width="0.3815" stroke-miterlimit="10" stroke-linecap="round" stroke-linejoin="round"/>
<path d="M58.2973 91.4685C58.4146 92.0688 58.8009 92.5793 59.1735 93.0622C59.277 93.1933 59.4012 93.3382 59.5667 93.352C59.6909 93.3589 59.8013 93.2899 59.9117 93.2209C60.5533 92.807 61.1604 92.3447 61.7331 91.8411C61.7676 91.8066 61.8089 91.7721 61.8227 91.7238C61.8365 91.6617 61.8089 91.5996 61.7814 91.5444C61.6089 91.2133 61.395 90.8959 61.1466 90.6131C60.8983 90.3233 60.6016 90.068 60.2566 89.9093C59.1528 89.4264 58.0627 90.2612 58.2973 91.4685Z" stroke="#3C2238" stroke-width="0.3815" stroke-miterlimit="10" stroke-linecap="round" stroke-linejoin="round"/>
<path d="M63.1681 86.0526C63.2854 86.6528 63.6718 87.1633 64.0443 87.6463C64.1478 87.7774 64.272 87.9223 64.4376 87.9361C64.5617 87.9429 64.6721 87.874 64.7825 87.805C65.4241 87.391 66.0313 86.9288 66.6039 86.4251C66.6384 86.3906 66.6798 86.3561 66.6936 86.3078C66.7074 86.2458 66.6798 86.1837 66.6522 86.1285C66.4797 85.7973 66.2658 85.48 66.0175 85.1971C65.7691 84.9073 65.4724 84.6521 65.1275 84.4934C64.0236 84.0036 62.9335 84.8452 63.1681 86.0526Z" stroke="#3C2238" stroke-width="0.3815" stroke-miterlimit="10" stroke-linecap="round" stroke-linejoin="round"/>
<path d="M70.1018 85.425C70.2191 86.0252 70.6054 86.5357 70.978 87.0187C71.0815 87.1497 71.2056 87.2946 71.3712 87.3084C71.4954 87.3153 71.6058 87.2463 71.7162 87.1774C72.3578 86.7634 72.9649 86.3012 73.5375 85.7975C73.572 85.763 73.6134 85.7285 73.6272 85.6802C73.641 85.6181 73.6134 85.5561 73.5858 85.5009C73.4134 85.1697 73.1995 84.8523 72.9511 84.5695C72.7027 84.2797 72.4061 84.0245 72.0611 83.8658C70.9573 83.3759 69.8672 84.2107 70.1018 85.425Z" stroke="#3C2238" stroke-width="0.3815" stroke-miterlimit="10" stroke-linecap="round" stroke-linejoin="round"/>
<path d="M78.3048 88.1362C78.4221 88.7365 78.8084 89.247 79.181 89.7299C79.2844 89.861 79.4086 90.0059 79.5742 90.0197C79.6984 90.0266 79.8088 89.9576 79.9192 89.8886C80.5608 89.4747 81.1679 89.0124 81.7405 88.5088C81.775 88.4743 81.8164 88.4398 81.8302 88.3915C81.844 88.3294 81.8164 88.2673 81.7888 88.2121C81.6164 87.881 81.4025 87.5636 81.1541 87.2807C80.9057 86.991 80.6091 86.7357 80.2641 86.577C79.1603 86.0941 78.0702 86.9289 78.3048 88.1362Z" stroke="#3C2238" stroke-width="0.3815" stroke-miterlimit="10" stroke-linecap="round" stroke-linejoin="round"/>
<path d="M131.145 118.768C127.986 123.853 124.191 128.489 119.858 132.58C119.472 132.939 119.086 133.298 118.692 133.65C116.416 135.713 113.994 137.617 111.448 139.342C110.931 139.693 110.413 140.045 109.889 140.383C108.047 141.57 106.15 142.667 104.19 143.674C103.687 143.93 103.197 144.178 102.679 144.426C98.3744 146.51 93.8279 148.159 89.0675 149.297C87.4048 146.192 85.6524 141.708 86.9219 138.39C89.0399 132.794 90.0541 130.773 90.0541 130.773L86.639 125.799L86.3631 125.398L86.8046 124.936L87.6394 124.074L101.714 109.517L102.604 108.592L107.757 113.746C107.757 113.746 116.236 109.503 124.522 114.208C124.646 114.277 124.764 114.353 124.888 114.415C125.074 114.532 125.26 114.636 125.447 114.753C128.048 116.361 129.869 117.685 131.145 118.768Z" fill="#FFE2BF"/>
<path d="M117.258 78.988L120.618 91.6065C121.094 93.3934 122.894 94.4903 124.702 94.104C126.634 93.6831 127.827 91.7376 127.317 89.8265L123.964 77.208C123.467 75.3314 121.521 74.2345 119.659 74.7657H119.652C117.837 75.2831 116.775 77.1597 117.258 78.988Z" stroke="#FFE2BF" stroke-width="0.4811" stroke-miterlimit="10" stroke-linecap="round" stroke-linejoin="round"/>
<path d="M120.452 76.6079L124.295 91.1858" stroke="#FFE2BF" stroke-width="0.4811" stroke-miterlimit="10" stroke-linecap="round" stroke-linejoin="round"/>
<path d="M124.054 82.2269L119.649 83.2369L120.255 85.8797L124.66 84.8697L124.054 82.2269Z" fill="#FFE2BF"/>
<path d="M111.697 33.3294C111.697 34.7023 110.586 35.813 109.213 35.813C107.84 35.813 106.73 34.7023 106.73 33.3294C106.73 31.9564 107.84 30.8457 109.213 30.8457C110.586 30.8457 111.697 31.9564 111.697 33.3294Z" fill="#F29E74"/>
<path d="M12.5704 97.1739C12.5704 98.5469 11.4596 99.6576 10.0867 99.6576C8.71378 99.6576 7.60302 98.5469 7.60302 97.1739C7.60302 95.801 8.71378 94.6903 10.0867 94.6903C11.4596 94.6834 12.5704 95.801 12.5704 97.1739Z" fill="#6E58A6"/>
<path d="M69.3296 46.0995C69.3296 47.4724 68.2188 48.5832 66.8459 48.5832C65.4729 48.5832 64.3622 47.4724 64.3622 46.0995C64.3622 44.7266 65.4729 43.6158 66.8459 43.6158C68.2119 43.6158 69.3296 44.7266 69.3296 46.0995Z" fill="#F8C05A"/>
<path d="M71.0198 139.542C71.0198 140.915 69.909 142.025 68.5361 142.025C67.1632 142.025 66.0524 140.915 66.0524 139.542C66.0524 138.169 67.1632 137.058 68.5361 137.058C69.909 137.058 71.0198 138.169 71.0198 139.542Z" fill="#FFE2BF"/>
<path d="M137.741 68.9219C137.741 70.2948 136.631 71.4056 135.258 71.4056C133.885 71.4056 132.774 70.2948 132.774 68.9219C132.774 67.5489 133.885 66.4382 135.258 66.4382C136.631 66.4382 137.741 67.5489 137.741 68.9219Z" fill="#F29E74"/>
</svg>
