<svg width="153" height="155" viewBox="0 0 153 155" fill="none" xmlns="http://www.w3.org/2000/svg">
<path d="M76.4697 154.997C66.9741 155.084 57.4419 153.445 48.4369 149.923C20.0381 138.831 0.571052 110.572 0.0146427 80.1449C0.00732151 79.6837 0 79.2225 0 78.7612C0 57.5005 8.86595 37.2062 24.4015 22.7615L24.5992 7.57742C24.6284 5.50552 26.0927 3.7338 28.1206 3.33114L44.2419 0.0878533C44.5347 0.0292839 44.8349 0 45.1277 0C45.4059 0 45.6768 0.0292838 45.955 0.080532L48.6639 0.600336L49.0958 0.68819L63.3209 3.42631C67.6184 2.67223 72.0331 2.29153 76.4697 2.29153C118.64 2.29153 152.947 36.5986 152.947 78.7685C152.947 98.2063 145.647 116.722 132.396 130.917C132.286 131.034 132.177 131.152 132.067 131.269L131.964 131.379C117.527 146.438 97.0934 154.806 76.4697 154.997Z" fill="#F2C94C"/>
<path d="M148.554 78.7615C148.554 97.7673 141.189 115.067 129.16 127.938C129.036 128.077 128.904 128.209 128.772 128.348C120.755 136.818 110.682 143.334 99.363 147.127C99.2898 147.156 99.2166 147.178 99.136 147.2C99.0848 147.215 99.0335 147.229 98.9823 147.244C98.9091 147.266 98.8285 147.295 98.7553 147.317C91.7343 149.609 84.2521 150.839 76.4697 150.839C65.7002 150.839 55.4799 148.481 46.2991 144.242C46.2918 144.235 46.2771 144.235 46.2698 144.227C46.1673 144.184 46.0721 144.132 45.9697 144.081C45.955 144.074 45.9477 144.066 45.933 144.066C21.3925 132.572 4.39268 107.651 4.39268 78.7615C4.39268 57.2446 13.8224 37.9313 28.7722 24.7312C29.7898 23.8161 30.8368 22.9449 31.913 22.0956C32.3669 21.7369 32.8281 21.3855 33.2967 21.034C35.4272 19.438 37.6528 17.9592 39.959 16.6047C40.7716 16.1215 41.5989 15.6603 42.4408 15.2137C43.3047 14.7452 44.176 14.2986 45.0691 13.8739C45.4206 13.6982 45.772 13.5372 46.1307 13.3688C46.6725 13.1052 47.2289 12.8563 47.778 12.622C47.7926 12.6147 47.7999 12.6147 47.8146 12.6074C47.939 12.5561 48.0562 12.4976 48.1806 12.4463C48.6931 12.2267 49.2129 12.0144 49.7254 11.802C54.0595 10.0742 58.5987 8.74911 63.2989 7.88521C67.5671 7.0872 71.9745 6.67722 76.4697 6.67722C116.282 6.67722 148.554 38.949 148.554 78.7615Z" fill="#F2C94C"/>
<path d="M34.7536 89.2304C34.7536 89.2304 19.6134 73.3508 21.7072 66.4615C23.8011 59.565 37.8358 42.2138 37.8358 42.2138L50.8821 48.3709L42.514 63.76C42.514 63.76 52.361 71.0226 53.8399 71.6376L34.7536 89.2304Z" fill="#BA6A4C"/>
<path d="M128.772 128.348C120.756 136.818 110.682 143.334 99.3631 147.126C99.2899 147.156 99.2167 147.178 99.1361 147.2C99.0849 147.214 99.0336 147.229 98.9824 147.244C98.9092 147.266 98.8287 147.295 98.7554 147.317C91.7344 149.608 84.2522 150.838 76.4698 150.838C65.7003 150.838 55.48 148.481 46.2992 144.242C46.2919 144.235 46.2772 144.235 46.2699 144.227C46.1674 144.183 46.0723 144.132 45.9698 144.081C45.9551 144.074 45.9478 144.066 45.9332 144.066L53.8107 117.805L53.8254 117.754L53.8034 117.798L53.7668 117.871L53.7082 117.812L53.5545 117.673L45.6183 110.491L28.8748 95.5195L28.5966 95.2706L25.7706 92.7374L32.7111 86.9757L49.8061 72.8019L52.0756 70.9057L52.3026 70.7153L60.1289 64.2288L60.4803 63.9359L61.6298 64.3679H61.6371L63.116 64.9096L63.482 65.0487L73.3436 68.702L73.4168 68.7313L73.7097 68.8338L73.8195 68.8777L81.8069 71.8428L85.5846 73.2485H85.592L85.958 73.3802L85.9727 73.3949L86.2875 73.5047L86.8805 73.717L87.2319 73.8049L88.0812 74.0025L103.595 77.6851V77.6924C103.595 77.6924 104.246 78.1756 105.323 79.0175C105.374 79.0615 105.432 79.1054 105.491 79.1493C105.549 79.1932 105.615 79.2372 105.674 79.2884C106.252 79.7423 106.919 80.2768 107.673 80.8918C107.76 80.965 107.856 81.0455 107.958 81.126C112.629 84.933 119.914 91.2878 123.772 96.7421C124.563 97.8549 125.207 98.9311 125.661 99.9415C125.99 100.674 126.276 101.442 126.525 102.226C129.27 110.726 127.938 121.81 128.611 126.715C128.684 127.213 128.728 127.762 128.772 128.348Z" fill="#FFE2BF"/>
<path d="M105.667 79.2881L80.2255 87.3048C80.2035 87.3121 80.1889 87.3121 80.1669 87.3121C80.1157 87.3121 80.0717 87.2902 80.0351 87.2536C79.9839 87.2023 79.9766 87.1218 79.9985 87.0559L85.936 73.4019L85.9506 73.3726L85.9653 73.3799L86.2801 73.4971L80.4891 86.8363L105.315 79.0099C105.432 79.0978 105.549 79.193 105.667 79.2881Z" fill="#F56A6C"/>
<path d="M103.99 111.29L99.136 147.2C99.0848 147.215 99.0335 147.229 98.9823 147.244C98.9091 147.266 98.8285 147.295 98.7553 147.317L103.631 111.246C103.646 111.136 103.734 111.07 103.836 111.085C103.931 111.099 103.997 111.187 103.99 111.29Z" fill="#3C2238"/>
<path d="M60.5314 96.0541L46.2698 144.227C46.1673 144.184 46.0721 144.132 45.9696 144.081C45.9549 144.074 45.9476 144.066 45.933 144.066L53.7081 117.813L53.73 117.732L57.4565 105.154L59.6968 97.5769L60.18 95.9516C60.2093 95.8491 60.3118 95.8052 60.4143 95.8345C60.5021 95.8564 60.5607 95.9589 60.5314 96.0541Z" fill="#3C2238"/>
<path d="M63.4818 65.0487C54.2937 77.3849 41.5183 86.9097 28.8746 95.5121L28.5891 95.2632C41.2108 86.6828 53.9497 77.1945 63.1158 64.9023L63.4818 65.0487Z" fill="#F56A6C"/>
<path d="M59.8651 97.4228L57.4052 105.315L53.8837 117.871L45.6181 110.491L59.6967 97.5765L59.8651 97.4228Z" fill="#3C2238"/>
<path d="M105.33 72.5891L92.2394 72.1718L91.8441 72.1572L73.834 71.5935L73.4313 71.5788L46.3503 70.7222L28.1791 70.1512L28.9918 7.64297L43.1436 4.78771L44.8568 4.44361L45.1277 4.39236L47.8365 4.90485L48.2392 4.98538L100.564 15.0593L100.959 15.1325L103.573 15.6377L103.895 26.0997L103.997 29.3429L104.005 29.7383L105.33 72.5891Z" fill="#F56A6C"/>
<path d="M76.4257 61.4314V66.8637H81.2284V61.651L76.4257 61.4314ZM81.0234 66.666H76.6234V61.6364L81.0234 61.8341V66.666Z" fill="#FFE2BF"/>
<path d="M87.4147 61.5778L84.0836 61.4314V66.8637H88.8936V61.651L87.4147 61.5778ZM88.6886 66.666H84.2813V61.6364L87.7296 61.7901C87.7296 61.7901 87.7296 61.7901 87.7369 61.7901L88.6886 61.8341V66.666Z" fill="#FFE2BF"/>
<path d="M73.534 40.1124L93.1987 40.4565V55.8456L73.534 55.9774V40.1124Z" fill="#3C2238"/>
<path d="M78.4535 45.6475C77.2895 45.6475 76.345 46.6871 76.345 47.983C76.345 49.2715 77.2895 50.3184 78.4535 50.3184C79.6103 50.3184 80.5547 49.2715 80.5547 47.983C80.5547 46.6871 79.6103 45.6475 78.4535 45.6475ZM78.4535 50.1208C77.3993 50.1208 76.55 49.1617 76.55 47.983C76.55 46.8043 77.3993 45.8379 78.4535 45.8379C79.5005 45.8379 80.3497 46.8043 80.3497 47.983C80.3497 49.1617 79.5005 50.1208 78.4535 50.1208Z" fill="#FFE2BF"/>
<path d="M91.2804 47.4925C91.1925 47.0239 90.9802 46.6066 90.68 46.2918C90.5263 46.1307 90.3579 45.9916 90.1675 45.8891C89.882 45.7281 89.5672 45.6475 89.2304 45.6475C88.7033 45.6475 88.2274 45.8672 87.854 46.2186C87.4148 46.6432 87.1292 47.2728 87.1292 47.983C87.1292 49.0153 87.7369 49.8938 88.5788 50.2013C88.7838 50.2745 89.0035 50.3184 89.2304 50.3184C89.3769 50.3184 89.5086 50.3038 89.6404 50.2672C90.2993 50.1281 90.8484 49.6449 91.1193 48.9787C91.2511 48.6858 91.3316 48.3417 91.3316 47.983C91.3316 47.8146 91.317 47.6462 91.2804 47.4925ZM90.907 48.9713C90.6288 49.5717 90.1016 50.0109 89.472 50.0988C89.3988 50.1061 89.311 50.1208 89.2304 50.1208C89.0547 50.1208 88.8936 50.0915 88.7326 50.0402H88.7253C87.9199 49.7913 87.3269 48.964 87.3269 47.983C87.3269 47.4412 87.5026 46.9434 87.7955 46.57C88.1469 46.1234 88.6594 45.8379 89.2304 45.8379C89.5086 45.8379 89.7795 45.9038 90.0211 46.0355C90.292 46.1746 90.5336 46.387 90.7166 46.6505C90.9216 46.9361 91.0607 47.2801 91.112 47.6535C91.1266 47.7633 91.1339 47.8732 91.1339 47.983C91.1339 48.3344 91.0534 48.6785 90.907 48.9713Z" fill="#FFE2BF"/>
<path d="M73.3689 38.5376L73.3647 38.9329L92.7859 39.1369L92.79 38.7416L73.3689 38.5376Z" fill="#3C2238"/>
<path d="M104.005 29.7382L93.2497 28.6327L92.8617 28.5888L73.5997 26.6047L73.2043 26.5681L45.3765 23.6982L45.4131 23.3102L103.997 29.3428L104.005 29.7382Z" fill="#3C2238"/>
<path d="M73.834 71.593L73.4313 71.5784L73.2044 26.5678V26.3555H73.5997V26.6044L73.6217 31.6194L73.629 32.0148L73.6656 38.5233V38.926L73.6729 40.1193L73.7535 55.977L73.834 71.593Z" fill="#3C2238"/>
<path d="M93.2645 28.4571L93.2499 28.6328L92.9863 40.4565L92.6276 55.8456L92.2396 72.1719L91.8442 72.1572L92.2249 55.853L92.5837 40.4419L92.6129 39.1314L92.6276 38.7287L92.7521 33.2086L92.7594 32.8132L92.8619 28.5889V28.4498L93.2645 28.4571Z" fill="#3C2238"/>
<path d="M73.4825 31.6117L73.4579 32.0063L92.9829 33.2269L93.0075 32.8323L73.4825 31.6117Z" fill="#3C2238"/>
<path d="M103.895 26.0992L42.1412 19.7078L43.1442 4.78725L44.8574 4.44315L45.1282 4.39191L47.8371 4.90439L48.2397 4.98492L100.564 15.0589L100.96 15.1321L103.573 15.6372L103.895 26.0992Z" fill="#FFE2BF"/>
<path d="M100.959 15.1321L100.293 23.9908L100.088 23.9688L47.7416 18.2583L47.8368 4.90445L48.2395 4.98498L48.1443 17.8995L99.927 23.5588L100.564 15.0589L100.959 15.1321Z" fill="#3C2238"/>
<path d="M60.4512 61.4753C66.7427 61.4753 71.8429 54.6149 71.8429 46.1521C71.8429 37.6893 66.7427 30.8289 60.4512 30.8289C54.1597 30.8289 49.0594 37.6893 49.0594 46.1521C49.0594 54.6149 54.1597 61.4753 60.4512 61.4753Z" fill="#3C2238"/>
<path d="M60.4513 31.8244C54.5577 31.8244 49.7697 38.245 49.7697 46.1519C49.7697 46.7376 49.7989 47.316 49.8502 47.8797C49.9088 48.524 49.9966 49.1536 50.1137 49.7613C51.3071 55.9184 55.4875 60.4795 60.4513 60.4795C66.3375 60.4795 71.1255 54.0515 71.1255 46.1519C71.1255 38.245 66.3375 31.8244 60.4513 31.8244ZM60.4513 60.2818C55.5241 60.2818 51.3803 55.6621 50.2675 49.4757C50.1796 48.9852 50.1137 48.4874 50.0625 47.9822C50.0039 47.3819 49.9746 46.7742 49.9746 46.1519C49.9746 38.3549 54.6748 32.0294 60.4513 32.0294C66.2277 32.0294 70.9205 38.3549 70.9205 46.1519C70.9205 53.9343 66.2277 60.2818 60.4513 60.2818Z" fill="#FFE2BF"/>
<path d="M61.1249 37.6889C57.823 37.6889 55.1288 41.2909 55.1288 45.7422C55.1288 50.1862 57.823 53.8028 61.1249 53.8028C64.4414 53.8028 67.1356 50.1862 67.1356 45.7422C67.1356 41.2909 64.4414 37.6889 61.1249 37.6889ZM61.1249 53.6857C57.8743 53.6857 55.246 50.1276 55.246 45.7422C55.246 41.3641 57.8743 37.806 61.1249 37.806C64.3828 37.806 67.0184 41.3641 67.0184 45.7422C67.0184 50.1276 64.3828 53.6857 61.1249 53.6857Z" fill="#FFE2BF"/>
<path d="M46.3503 70.7222L28.1791 70.1512L28.9918 7.64299L44.8568 4.44363L46.3503 70.7222Z" fill="#3C2238"/>
<path d="M36.7887 27.0298C39.522 27.0298 41.7378 24.3879 41.7378 21.1289C41.7378 17.87 39.522 15.2281 36.7887 15.2281C34.0554 15.2281 31.8396 17.87 31.8396 21.1289C31.8396 24.3879 34.0554 27.0298 36.7887 27.0298Z" stroke="#FFE2BF" stroke-width="0.153" stroke-miterlimit="10"/>
<path d="M39.5781 37.1327C39.5781 38.9703 38.3335 40.4565 36.7887 40.4565C35.2512 40.4565 33.9993 38.9703 33.9993 37.1327C33.9993 35.2951 35.2439 33.8089 36.7887 33.8089C38.3261 33.8089 39.5781 35.2951 39.5781 37.1327Z" fill="#FFE2BF"/>
<path d="M107.958 81.1257C94.4431 92.4735 82.8244 102.672 72.0403 112.673C70.0197 114.547 68.0283 116.414 66.0589 118.281C66.0223 118.31 65.9784 118.332 65.9271 118.332C65.8978 118.332 65.8685 118.325 65.8393 118.31C65.7734 118.266 65.7368 118.193 65.7514 118.112C66.3005 115.14 67.0106 112.131 67.8819 109.1C70.7078 99.3188 75.2177 89.2668 81.3382 79.1124C82.5608 77.0771 83.8933 74.9832 85.5918 73.2481L85.9505 73.3872L85.9652 73.3945C85.9578 73.3945 85.9432 73.4092 85.9359 73.4165C84.2227 75.1443 82.883 77.2528 81.6457 79.2954C75.4373 89.589 70.9055 99.7581 68.1015 109.664C67.3328 112.336 66.7032 115.001 66.198 117.636C68.1454 115.799 70.1148 113.954 72.1135 112.109C82.8024 102.211 94.2967 92.1221 107.665 80.9061C107.76 80.9646 107.855 81.0452 107.958 81.1257Z" fill="#F8C05A"/>
<path d="M77.7142 118.156L73.5631 119.818L76.3232 123.332L71.9012 122.688L72.5455 127.11L69.0313 124.342L67.3694 128.493L65.7148 124.342L62.2007 127.11L62.8449 122.688L58.4156 123.332L61.183 119.818L57.0319 118.156L61.183 116.494L58.4156 112.987L62.8449 113.631L62.2007 109.202L65.7148 111.969L67.3694 107.818L69.0313 111.969L72.5455 109.202L71.9012 113.631L76.3232 112.987L73.5631 116.501L77.7142 118.156Z" fill="#F8C05A"/>
<path d="M106.545 64.3965C106.545 64.3965 103.961 75.8469 103.595 77.6918C103.228 79.5367 84.8523 84.6103 84.0177 83.6952C83.1831 82.7727 85.6796 78.7021 86.6094 76.0299C86.9389 75.0781 87.3781 73.2918 87.7954 71.381C88.2347 69.3749 88.674 67.2445 88.9522 65.8095C89.1572 64.7846 89.2816 64.1183 89.2816 64.1183L106.545 64.3965Z" fill="#BA6A4C"/>
<path d="M101.156 68.9208C97.2103 71.3807 92.1953 72.8449 87.7879 71.3807C88.2272 69.3747 88.6665 67.2442 88.9447 65.8093C89.7134 66.3657 90.775 66.9001 91.3753 67.149C94.4795 68.357 97.8765 68.3644 101.156 68.9208Z" fill="#3C2238"/>
<path d="M98.0304 27.1541C99.0187 25.4336 100.241 23.6033 102.16 23.0908C103.843 22.6369 105.622 23.3471 107.131 24.2329C109.115 25.4043 110.886 26.8979 112.57 28.4646C116.465 32.0886 119.965 36.1372 122.974 40.5226C123.501 41.2913 124.021 42.082 124.291 42.9678C125.075 45.5376 123.655 48.2244 122.139 50.4428C119.95 53.6568 117.453 56.6584 114.693 59.3966C114.466 59.6235 114.218 59.8578 113.903 59.9237C113.61 59.9823 113.31 59.8798 113.031 59.7699C106.721 57.4052 101.083 53.2687 96.9322 47.9609C95.673 46.3502 94.5382 44.6151 93.8427 42.697C92.9714 40.2883 92.62 38.0407 93.667 35.6979C94.9628 32.7841 96.4344 29.9288 98.0304 27.1541Z" fill="#3C2238"/>
<path d="M113.749 59.426C113.478 59.7701 113.2 60.1068 112.907 60.4216L112.914 60.429C112.914 60.429 112.892 60.4436 112.863 60.4729C112.036 61.3661 111.113 62.1714 110.096 62.8523C106.772 65.6124 101.405 69.7488 99.0699 69.7488C95.5631 69.7488 84.5813 64.9461 82.2678 60.8902C80.1593 57.171 86.7703 45.7354 87.9124 43.8099C88.0223 43.6269 88.0808 43.5317 88.0808 43.5317L88.1028 43.539C88.6153 42.4994 89.2449 41.511 89.977 40.6252C92.7444 37.2135 96.9761 35.0318 101.713 35.0318C105.805 35.0318 109.525 36.6498 112.248 39.2854C115.103 42.0455 116.882 45.9184 116.882 50.2086C116.882 53.6862 115.711 56.8709 113.749 59.426Z" fill="#BA6A4C"/>
<path d="M90.7166 46.6215C90.7166 47.4268 90.065 48.0857 89.2524 48.0857C88.447 48.0857 87.7881 47.4341 87.7881 46.6215C87.7881 45.8161 88.4397 45.1572 89.2524 45.1572C90.0577 45.1645 90.7166 45.8161 90.7166 46.6215Z" fill="#3C2238"/>
<path d="M99.8168 50.6262C99.8168 51.4535 99.1505 52.1197 98.3232 52.1197C97.4959 52.1197 96.8297 51.4535 96.8297 50.6262C96.8297 49.7989 97.4959 49.1327 98.3232 49.1327C99.1505 49.1327 99.8168 49.8062 99.8168 50.6262Z" fill="#3C2238"/>
<path d="M98.4625 46.226C98.3819 46.5555 98.3453 46.9142 98.4625 47.2363C98.6455 47.7561 99.1506 48.0783 99.6192 48.3565C100.227 48.7152 100.842 49.0813 101.449 49.44C101.955 49.7402 102.474 50.0403 103.053 50.1501C103.631 50.2526 104.29 50.1209 104.656 49.6596C104.883 49.3741 104.978 49.0007 104.993 48.642C105.022 47.5877 104.4 46.6067 103.587 45.9332C101.999 44.6227 99.1726 43.3122 98.4625 46.226Z" fill="#3C2238"/>
<path d="M93.0667 44.0298C92.9056 44.2933 92.7079 44.5423 92.4297 44.6814C91.9978 44.901 91.4706 44.7912 90.9874 44.674C90.3651 44.5203 89.7502 44.3739 89.1352 44.2201C88.7179 44.1176 88.2859 44.0151 87.9126 43.8175C88.0224 43.6344 88.0809 43.5393 88.0809 43.5393L88.1029 43.5466C88.6154 42.507 89.245 41.5186 89.9771 40.6328C91.8147 40.7938 94.4284 41.7236 93.0667 44.0298Z" fill="#3C2238"/>
<path d="M93.0373 45.86C91.2656 47.4414 89.5744 49.1107 87.9564 50.8604C87.7661 51.0654 87.5684 51.3583 87.7148 51.5925C87.7807 51.695 87.8979 51.7536 88.0004 51.8268C88.2566 52.0172 88.4177 52.3027 88.608 52.5589C88.8057 52.8078 89.0766 53.0494 89.3987 53.0275C89.5817 53.0202 89.7501 52.925 89.9331 52.9177C90.2919 52.903 90.5774 53.1959 90.8922 53.3789C91.207 53.5546 91.7342 53.5326 91.7854 53.1739" stroke="#3C2238" stroke-width="0.4939" stroke-miterlimit="10" stroke-linecap="round" stroke-linejoin="round"/>
<path d="M87.7075 53.7819C88.1761 54.4042 88.8789 54.8142 89.6257 55.0412C90.3724 55.2681 91.1558 55.3194 91.9318 55.334" stroke="#3C2238" stroke-width="0.4939" stroke-miterlimit="10" stroke-linecap="round" stroke-linejoin="round"/>
<path d="M117.241 49.9671C117.241 53.635 116.004 56.9881 113.932 59.6823C113.171 60.2021 112.321 60.5535 111.399 60.6414C108.895 57.2004 107.687 52.8516 108.053 48.62C108.375 44.8935 109.913 41.2842 112.351 38.4582C115.367 41.3647 117.241 45.4499 117.241 49.9671Z" fill="#3C2238"/>
<path d="M116.062 60.7803C117.087 61.9663 117.124 63.8113 116.363 65.1803C115.608 66.5494 114.181 67.4645 112.673 67.8818C110.894 68.3724 108.939 68.2259 107.255 67.4719C106.076 66.9447 104.963 66.0223 104.7 64.763C103.668 59.8871 113.485 57.8006 116.062 60.7803Z" fill="#BA6A4C"/>
<path d="M105.923 63.5111C108.646 61.7687 112.109 61.2123 115.235 62.0249" stroke="#3C2238" stroke-width="0.4939" stroke-miterlimit="10" stroke-linecap="round" stroke-linejoin="round"/>
<path d="M125.917 83.3444L130.493 64.8511L135.325 83.1321L120.126 72.348L140.691 72.9264L125.917 83.3444Z" stroke="#FFE2BF" stroke-width="0.4265" stroke-miterlimit="10" stroke-linecap="round" stroke-linejoin="round"/>
<path d="M15.9749 94.3697L13.1269 78.102L23.5303 89.8379L7.43839 86.1919L20.9533 77.8384L15.9749 94.3697Z" stroke="#FFE2BF" stroke-width="0.3417" stroke-miterlimit="10" stroke-linecap="round" stroke-linejoin="round"/>
<path d="M32.8136 106.538L37.0819 122.894" stroke="#FFE2BF" stroke-width="0.7134" stroke-miterlimit="10" stroke-linecap="round" stroke-linejoin="round"/>
<path d="M32.206 120.924C31.2542 120.939 30.2878 121.041 29.4386 121.466C28.5893 121.891 27.8865 122.703 27.8132 123.648C27.7181 124.856 28.7064 125.954 29.8632 126.298C31.0199 126.65 32.2792 126.379 33.3993 125.91C34.3071 125.529 37.8433 123.692 37.2429 122.454C36.5474 121.027 33.4945 120.895 32.206 120.924Z" fill="#FFE2BF"/>
<path d="M119.372 30.5292L127.638 39.3366" stroke="#FFE2BF" stroke-width="0.5098" stroke-miterlimit="10" stroke-linecap="round" stroke-linejoin="round"/>
<path d="M123.896 39.7612C123.311 40.0979 122.732 40.486 122.344 41.0424C121.956 41.5988 121.788 42.3455 122.066 42.9678C122.417 43.7585 123.413 44.1099 124.262 43.9342C125.104 43.7585 125.807 43.1582 126.349 42.4846C126.788 41.9356 128.377 39.5781 127.579 39.0071C126.656 38.3482 124.702 39.3073 123.896 39.7612Z" fill="#FFE2BF"/>
<path d="M118.471 101.318L130.961 90.541L132.894 102.943L118.471 101.318Z" fill="#F56A6C"/>
<path d="M26.9639 52.8151L15.2061 64.3825L12.468 52.1342L26.9639 52.8151Z" fill="#F8C05A"/>
<path d="M81.2942 139.842L90.3359 144.074L83.9665 148.21L81.2942 139.842Z" fill="#F2C94C"/>
</svg>
