<svg width="74" height="46" viewBox="0 0 74 46" fill="none" xmlns="http://www.w3.org/2000/svg">
<path fill-rule="evenodd" clip-rule="evenodd" d="M40.2825 4.75982C40.2825 6.07353 38.9098 7.13973 37.2184 7.13973C35.527 7.13973 34.1543 6.07353 34.1543 4.75982V2.37991C34.1543 1.06619 35.527 0 37.2184 0C38.9098 0 40.2825 1.06619 40.2825 2.37991V4.75982ZM37.2184 45.2184C35.527 45.2184 34.1543 44.1523 34.1543 42.8385V14.2796C34.1543 12.9659 35.527 11.8997 37.2184 11.8997C38.9098 11.8997 40.2825 12.9659 40.2825 14.2796V42.8385C40.2825 44.1523 38.9098 45.2184 37.2184 45.2184ZM0.449219 18.6907C0.449219 17.377 1.82194 16.3108 3.51334 16.3108C5.20473 16.3108 6.57745 17.377 6.57745 18.6907V42.4898C6.57745 43.8035 5.20473 44.8697 3.51334 44.8697C1.82194 44.8697 0.449219 43.8035 0.449219 42.4898V18.6907ZM29.5589 42.3902V23.3509C29.5589 22.0372 28.1862 20.971 26.4948 20.971C24.8034 20.971 23.4307 22.0372 23.4307 23.3509V42.3902C23.4307 43.7039 24.8034 44.7701 26.4948 44.7701C28.1862 44.7701 29.5589 43.7039 29.5589 42.3902ZM18.8353 42.6392C18.8353 43.953 17.4625 45.0191 15.7711 45.0191C14.0798 45.0191 12.707 43.953 12.707 42.6392V33.1196C12.707 31.8059 14.0798 30.7397 15.7711 30.7397C17.4625 30.7397 18.8353 31.8059 18.8353 33.1196V42.6392ZM51.0081 42.3902V23.3509C51.0081 22.0372 49.6354 20.971 47.944 20.971C46.2526 20.971 44.8799 22.0372 44.8799 23.3509V42.3902C44.8799 43.7039 46.2526 44.7701 47.944 44.7701C49.6354 44.7701 51.0081 43.7039 51.0081 42.3902ZM67.8604 18.6907C67.8604 17.377 69.2331 16.3108 70.9245 16.3108C72.6159 16.3108 73.9886 17.377 73.9886 18.6907V42.4898C73.9886 43.8035 72.6159 44.8697 70.9245 44.8697C69.2331 44.8697 67.8604 43.8035 67.8604 42.4898V18.6907ZM58.6676 30.7397C56.9762 30.7397 55.6035 31.8059 55.6035 33.1196V42.6392C55.6035 43.953 56.9762 45.0191 58.6676 45.0191C60.359 45.0191 61.7317 43.953 61.7317 42.6392V33.1196C61.7317 31.8059 60.359 30.7397 58.6676 30.7397Z" fill="#4F4F4F"/>
</svg>
