<svg width="500" height="500" viewBox="0 0 500 500" fill="none" xmlns="http://www.w3.org/2000/svg">
<path d="M369.678 318.49H376.961V357.843H369.678V318.49Z" fill="white"/>
<path d="M396.91 350.196C397.305 350.196 397.503 350.392 397.503 350.784V357.255C397.503 357.647 397.305 357.843 396.91 357.843H394.305C393.042 357.843 391.878 357.628 390.812 357.196C390.693 360.02 390.18 362.373 389.272 364.255C388.364 366.137 386.943 367.824 385.009 369.314C383.114 370.804 380.41 372.392 376.897 374.079L374.174 368.02C377.016 366.412 379.029 365.137 380.213 364.196C381.437 363.255 382.285 362.177 382.759 360.961C383.272 359.745 383.529 358.039 383.529 355.843V336.843H390.812V346.726C390.812 347.706 391.147 348.53 391.818 349.196C392.489 349.863 393.318 350.196 394.305 350.196H396.91Z" fill="white"/>
<path d="M396.304 350.784C396.304 350.392 396.501 350.196 396.896 350.196H400.626C401.613 350.196 402.422 349.863 403.054 349.196C403.725 348.53 404.06 347.706 404.06 346.726V336.843H411.343V346.726C411.343 347.706 411.679 348.53 412.35 349.196C413.021 349.863 413.85 350.196 414.836 350.196H418.567C418.961 350.196 419.159 350.392 419.159 350.784V357.255C419.159 357.647 418.961 357.843 418.567 357.843H414.836C411.797 357.843 409.429 356.745 407.731 354.549C406.902 355.608 405.876 356.432 404.652 357.02C403.468 357.569 402.126 357.843 400.626 357.843H396.896C396.501 357.843 396.304 357.647 396.304 357.255V350.784ZM399.323 363.079H406.133V369.843H399.323V363.079ZM409.211 363.079H416.021V369.843H409.211V363.079Z" fill="white"/>
<path d="M430.481 317.961H437.29V324.726H430.481V317.961ZM418.579 357.843C418.184 357.843 417.987 357.647 417.987 357.255V350.784C417.987 350.392 418.184 350.196 418.579 350.196H430.362C433.638 350.196 436.342 349.216 438.474 347.255L444.869 341.549L435.869 337.314C435.079 336.922 434.408 336.726 433.856 336.726C433.303 336.726 432.75 336.863 432.198 337.137C431.645 337.412 431.152 337.765 430.717 338.196L425.684 343.784L420.592 339.373L425.684 333.255C426.671 332.039 427.875 331.137 429.296 330.549C430.757 329.922 432.277 329.608 433.856 329.608C434.882 329.608 435.77 329.726 436.52 329.961C437.27 330.196 438 330.49 438.711 330.843L451.5 336.784C451.737 336.902 452.073 336.961 452.507 336.961H458.309V344.02H452.092L442.5 352.902C440.724 354.51 438.691 355.745 436.402 356.608C434.152 357.432 431.783 357.843 429.296 357.843H418.579Z" fill="white"/>
<path d="M463.698 318.49H470.981V357.843H463.698V318.49Z" fill="white"/>
<path d="M106.654 437.039C105.391 437.039 104.266 436.549 103.279 435.569C102.332 434.588 101.858 433.471 101.858 432.216C101.858 430.882 102.312 429.745 103.22 428.804C104.168 427.863 105.312 427.392 106.654 427.392C108.076 427.392 109.22 427.882 110.089 428.863C110.997 429.804 111.451 430.922 111.451 432.216C111.451 433.588 110.957 434.745 109.97 435.686C109.023 436.588 107.918 437.039 106.654 437.039Z" fill="white"/>
<path d="M123.943 437.039C122.68 437.039 121.555 436.549 120.568 435.569C119.621 434.588 119.147 433.471 119.147 432.216C119.147 430.882 119.601 429.745 120.509 428.804C121.457 427.863 122.601 427.392 123.943 427.392C125.365 427.392 126.509 427.882 127.378 428.863C128.286 429.804 128.74 430.922 128.74 432.216C128.74 433.588 128.246 434.745 127.259 435.686C126.312 436.588 125.207 437.039 123.943 437.039Z" fill="white"/>
<path d="M141.232 437.039C139.969 437.039 138.844 436.549 137.857 435.569C136.91 434.588 136.436 433.471 136.436 432.216C136.436 430.882 136.89 429.745 137.798 428.804C138.746 427.863 139.89 427.392 141.232 427.392C142.654 427.392 143.798 427.882 144.667 428.863C145.575 429.804 146.029 430.922 146.029 432.216C146.029 433.588 145.535 434.745 144.548 435.686C143.601 436.588 142.496 437.039 141.232 437.039Z" fill="white"/>
<path d="M166.752 428.628C167.739 428.628 168.568 428.333 169.239 427.745C169.949 427.157 170.304 426.373 170.304 425.392C170.304 425.118 170.186 424.588 169.949 423.804L164.502 408.922L171.37 406.333L178.475 425.863C178.831 426.726 179.324 427.412 179.956 427.922C180.587 428.392 181.357 428.628 182.265 428.628H182.798C183.193 428.628 183.39 428.824 183.39 429.216V435.686C183.39 436.079 183.193 436.275 182.798 436.275H181.91C180.291 436.275 178.831 435.922 177.528 435.216C176.225 434.51 175.278 433.647 174.686 432.628C173.541 433.922 172.357 434.863 171.133 435.451C169.949 436 168.489 436.275 166.752 436.275H152.896V428.628H166.752Z" fill="white"/>
<path d="M182.778 436.275C182.383 436.275 182.186 436.079 182.186 435.686V429.216C182.186 428.824 182.383 428.628 182.778 428.628H188.521C189.469 428.628 190.278 428.294 190.949 427.628C191.62 426.922 191.956 426.079 191.956 425.098V413.51H199.238V425.569C199.238 427.53 198.765 429.333 197.817 430.981C196.87 432.588 195.567 433.883 193.909 434.863C192.291 435.804 190.495 436.275 188.521 436.275H182.778ZM182.837 441.51H189.646V448.275H182.837V441.51ZM192.725 441.51H199.534V448.275H192.725V441.51Z" fill="white"/>
<path d="M204.941 396.922H212.224V436.275H204.941V396.922Z" fill="white"/>
<path d="M232.43 432.745C231.285 431.608 230.416 430.333 229.824 428.922C229.272 427.51 228.995 426.059 228.995 424.569C228.995 422.922 229.331 421.333 230.002 419.804C230.673 418.235 231.64 416.824 232.903 415.569L236.16 412.275L233.555 409.745L238.765 404.686L249.778 415.569C251.002 416.824 251.93 418.235 252.561 419.804C253.232 421.333 253.568 422.922 253.568 424.569C253.568 426.059 253.272 427.51 252.68 428.922C252.127 430.333 251.278 431.608 250.134 432.745C248.949 433.922 247.588 434.824 246.048 435.451C244.509 436.039 242.91 436.333 241.252 436.333C239.634 436.333 238.055 436.039 236.515 435.451C234.976 434.824 233.614 433.922 232.43 432.745ZM237.936 427.333C238.884 428.275 240.028 428.745 241.37 428.745C242.673 428.745 243.798 428.275 244.745 427.333C245.653 426.432 246.107 425.373 246.107 424.157C246.107 422.902 245.614 421.745 244.627 420.686L241.311 417.333L237.995 420.628C237.009 421.608 236.515 422.745 236.515 424.039C236.515 425.294 236.989 426.392 237.936 427.333Z" fill="white"/>
<path d="M273.158 428.628C274.184 428.628 275.033 428.314 275.704 427.686C276.375 427.059 276.711 426.255 276.711 425.275C276.711 424.608 276.513 424.02 276.119 423.51C275.763 422.961 275.132 422.392 274.224 421.804L262.263 413.628L266.408 407.686L279.553 416.686C280.974 417.784 282.059 419 282.809 420.333C283.599 421.628 283.994 423.196 283.994 425.039C283.994 427.118 283.481 429.02 282.454 430.745C281.428 432.471 280.027 433.824 278.25 434.804C276.474 435.784 274.559 436.275 272.507 436.275H258.77V428.628H273.158Z" fill="white"/>
<path d="M289.362 396.922H296.645V436.275H289.362V396.922Z" fill="white"/>
<path d="M316.757 428.628C317.783 428.628 318.632 428.314 319.303 427.686C319.974 427.059 320.309 426.255 320.309 425.275C320.309 424.608 320.112 424.02 319.717 423.51C319.362 422.961 318.73 422.392 317.822 421.804L305.862 413.628L310.007 407.686L323.151 416.686C324.572 417.784 325.658 419 326.408 420.333C327.197 421.628 327.592 423.196 327.592 425.039C327.592 427.118 327.079 429.02 326.053 430.745C325.026 432.471 323.625 433.824 321.849 434.804C320.072 435.784 318.158 436.275 316.105 436.275H302.368V428.628H316.757Z" fill="white"/>
<path d="M394.871 393.745V400.51H388.062V393.745H394.871ZM389.897 403.51V410.275H383.088V403.51H389.897ZM392.976 410.275V403.51H399.785V410.275H392.976ZM408.489 413.51V436.275H398.542C395.542 436.275 393.174 435.157 391.437 432.922C390.647 434.02 389.641 434.883 388.417 435.51C387.193 436.098 385.812 436.392 384.272 436.392C382.299 436.392 380.68 435.863 379.417 434.804C378.154 438.412 375.963 441.333 372.845 443.569C369.726 445.804 366.193 446.922 362.246 446.922C358.93 446.922 355.851 446.098 353.009 444.451C350.206 442.804 347.976 440.569 346.318 437.745C344.66 434.961 343.831 431.922 343.831 428.628V417.628H351.114V428.216C351.114 430.216 351.608 432.059 352.595 433.745C353.621 435.432 354.983 436.765 356.68 437.745C358.417 438.765 360.272 439.275 362.246 439.275C364.299 439.275 366.174 438.765 367.871 437.745C369.568 436.765 370.91 435.432 371.897 433.745C372.924 432.059 373.437 430.216 373.437 428.216V415.275H380.838V425.275C380.838 426.255 381.154 427.079 381.785 427.745C382.456 428.412 383.285 428.745 384.272 428.745C385.259 428.745 386.088 428.412 386.759 427.745C387.43 427.079 387.766 426.255 387.766 425.275V415.275H395.049V425.157C395.049 426.137 395.384 426.961 396.055 427.628C396.726 428.294 397.555 428.628 398.542 428.628H401.206V413.51H408.489Z" fill="white"/>
<path d="M440.855 428.628C441.25 428.628 441.447 428.824 441.447 429.216V435.686C441.447 436.079 441.25 436.275 440.855 436.275H437.954C437.638 438.941 436.848 441.157 435.585 442.922C434.322 444.726 432.526 446.314 430.197 447.686C427.868 449.098 424.611 450.706 420.427 452.51L418.177 446.157C421.769 444.628 424.434 443.373 426.171 442.392C427.908 441.451 429.111 440.51 429.783 439.569C430.493 438.667 430.848 437.569 430.848 436.275H426.171C423.881 436.275 421.769 435.765 419.835 434.745C417.94 433.686 416.44 432.255 415.335 430.451C414.23 428.647 413.677 426.628 413.677 424.392C413.677 422.157 414.23 420.098 415.335 418.216C416.48 416.294 418 414.784 419.894 413.686C421.829 412.549 423.921 411.981 426.171 411.981C428.381 411.981 430.394 412.549 432.21 413.686C434.065 414.784 435.506 416.294 436.532 418.216C437.598 420.098 438.131 422.157 438.131 424.392V428.628H440.855ZM430.848 424.392C430.848 423.059 430.394 421.941 429.486 421.039C428.579 420.098 427.473 419.628 426.171 419.628C424.829 419.628 423.684 420.079 422.736 420.981C421.829 421.883 421.375 423.02 421.375 424.392C421.375 425.726 421.829 426.843 422.736 427.745C423.684 428.647 424.829 429.098 426.171 429.098H430.848V424.392Z" fill="white"/>
<path d="M442.321 400.922L452.742 389.981L456.295 393.51L445.874 404.451L442.321 400.922ZM440.841 436.275C440.446 436.275 440.249 436.079 440.249 435.686V429.216C440.249 428.824 440.446 428.628 440.841 428.628H459.729C460.953 428.628 461.999 428.216 462.867 427.392C463.775 426.53 464.229 425.432 464.229 424.098C464.229 422.451 463.44 421.157 461.861 420.216L448.183 411.275V405.628L459.848 393.333L464.821 398.039L455.703 407.51L466.42 414.51C468.038 415.569 469.302 416.941 470.209 418.628C471.117 420.314 471.571 422.196 471.571 424.275C471.571 426.432 471.038 428.432 469.973 430.275C468.907 432.118 467.446 433.588 465.591 434.686C463.775 435.745 461.782 436.275 459.611 436.275H440.841Z" fill="white"/>
<g opacity="0.7">
<path d="M104.719 73.3079C104.719 75.0793 104.331 76.7805 103.66 78.3063C101.736 82.6207 97.3756 85.6373 92.3268 85.6373C87.2781 85.6373 82.9179 82.6207 80.9937 78.3063C80.3053 76.7805 79.9346 75.0793 79.9346 73.3079C79.9346 70.6771 80.7643 68.2393 82.1765 66.2399L88.6374 72.659C90.5086 74.518 93.5272 74.518 95.3984 72.659L102.23 65.8716C103.801 67.9587 104.719 70.5193 104.719 73.3079Z" fill="#F2F2F2"/>
<path fill-rule="evenodd" clip-rule="evenodd" d="M123.908 44.3339C122.584 42.9133 121.172 41.5804 119.654 40.3352C119.654 40.3352 119.636 40.3352 119.636 40.3176C119.336 40.0896 119.054 39.8441 118.754 39.6161C118.754 39.6161 118.736 39.5986 118.718 39.5986C116.935 38.3358 114.746 37.5817 112.399 37.5817C106.626 37.5817 101.895 42.0364 101.507 47.7013V48.1222H109.68H109.751H109.821C110.739 48.1397 111.569 48.4379 112.257 48.929C112.487 49.0868 112.681 49.2797 112.875 49.4726C113.581 50.2268 114.023 51.244 114.023 52.3489C114.023 53.4538 113.599 54.4711 112.893 55.2252L109.239 58.9258L106.361 61.7845C108.974 64.9064 110.545 68.9227 110.545 73.3072C110.545 75.0435 110.298 76.7272 109.839 78.3056C107.65 85.8647 100.642 91.3892 92.345 91.3892C84.0482 91.3892 77.0224 85.8647 74.8511 78.3056C74.3921 76.7272 74.145 75.0435 74.145 73.3072C74.145 69.0805 75.5925 65.2045 78.0462 62.1178L74.9747 59.1012L71.4441 55.5935L71.4617 55.576C70.5791 54.8043 70.0142 53.6643 70.0142 52.384C70.0142 51.1739 70.5261 50.069 71.3382 49.2973C71.5677 49.0693 71.8325 48.8763 72.1149 48.7185C72.1149 48.7185 72.1326 48.7185 72.1326 48.701C72.6621 48.3853 73.2623 48.1924 73.8978 48.1397C74.0214 48.1222 74.1626 48.1222 74.2862 48.1222C74.4098 48.1222 74.5333 48.1222 74.6569 48.1397H83.1479V47.9293C82.8125 42.2118 78.0286 37.6869 72.1855 37.6869C69.6788 37.6869 67.3486 38.5287 65.4951 39.9318C65.3186 40.0721 65.142 40.2124 64.9655 40.3703C63.3591 41.6856 61.841 43.1238 60.4464 44.6672C53.5441 52.2437 49.3428 62.2932 49.3428 73.3072C49.3428 96.8963 68.5843 116.013 92.3274 116.013C116.07 116.013 135.312 96.8963 135.312 73.3072C135.312 62.1353 130.987 51.9456 123.908 44.3339ZM72.7504 99.6147C73.1741 99.8953 73.7037 100.071 74.2685 100.071C75.769 100.071 77.0047 98.843 77.0224 97.3523C77.0224 96.5104 76.634 95.7738 76.0515 95.2652L76.0691 95.2827C76.0338 95.2477 75.9809 95.2126 75.9279 95.1775H75.9103C75.8749 95.1424 75.822 95.1249 75.7867 95.0898C70.4379 91.0736 66.6249 85.1456 65.3539 78.3407C65.3009 78.0952 65.2656 77.8672 65.2303 77.6392C65.2126 77.534 65.195 77.4463 65.1773 77.341V77.3235C65.1244 77.0604 65.0361 76.7973 64.8949 76.5694C64.8596 76.4992 64.8066 76.4466 64.7713 76.3764C64.7184 76.3238 64.6831 76.2537 64.6301 76.2011C64.5771 76.1309 64.5242 76.0783 64.4712 76.0257L64.383 75.938C63.8887 75.482 63.2179 75.1838 62.4765 75.1838C62.2823 75.1838 62.1234 75.2014 61.9469 75.2364C61.6644 75.2891 61.3996 75.3767 61.1525 75.5171C60.3052 75.9906 59.7403 76.8675 59.7403 77.9023C59.7403 77.9724 59.7579 78.0601 59.7579 78.1303C59.7579 78.253 59.7932 78.3583 59.8109 78.481C61.1878 87.0397 65.8835 94.4935 72.5739 99.4919C72.6445 99.527 72.6974 99.5796 72.7504 99.6147Z" fill="#F2F2F2"/>
<path fill-rule="evenodd" clip-rule="evenodd" d="M92.171 91.3884V116.013C68.4999 115.929 49.3428 96.8445 49.3428 73.3072C49.3428 62.2932 53.5441 52.2437 60.4464 44.6671C61.841 43.1238 63.3591 41.6856 64.9655 40.3703C65.142 40.2124 65.3186 40.0721 65.4951 39.9318C67.3486 38.5287 69.6788 37.6869 72.1855 37.6869C78.0286 37.6869 82.8125 42.2118 83.1479 47.9293V48.1397H74.6569C74.5333 48.1222 74.4098 48.1222 74.2862 48.1222C74.1626 48.1222 74.0214 48.1222 73.8978 48.1397C73.2623 48.1923 72.6621 48.3853 72.1325 48.701C72.1325 48.7185 72.1149 48.7185 72.1149 48.7185C71.8325 48.8763 71.5677 49.0693 71.3382 49.2973C70.5261 50.0689 70.0142 51.1739 70.0142 52.384C70.0142 53.6643 70.5791 54.8043 71.4617 55.576L71.4441 55.5935L74.9747 59.1012L78.0462 62.1178C75.5925 65.2045 74.145 69.0805 74.145 73.3072C74.145 75.0435 74.3921 76.7272 74.8511 78.3056C77.0072 85.8118 83.9501 91.3118 92.171 91.3884ZM74.2685 100.071C73.7037 100.071 73.1741 99.8953 72.7504 99.6147C72.7314 99.6021 72.7124 99.5873 72.6926 99.5718C72.6572 99.5441 72.6191 99.5144 72.5739 99.4919C65.8835 94.4935 61.1878 87.0397 59.8109 78.481C59.8046 78.4377 59.7962 78.3965 59.7879 78.356C59.7727 78.2817 59.7579 78.2097 59.7579 78.1303C59.7579 78.0952 59.7535 78.0557 59.7491 78.0163C59.7447 77.9768 59.7403 77.9373 59.7403 77.9023C59.7403 76.8675 60.3052 75.9906 61.1525 75.517C61.3996 75.3767 61.6644 75.2891 61.9469 75.2364C62.1234 75.2014 62.2823 75.1838 62.4765 75.1838C63.2179 75.1838 63.8887 75.482 64.383 75.938L64.4712 76.0257C64.5242 76.0783 64.5771 76.1309 64.6301 76.201C64.6566 76.2274 64.6786 76.2581 64.7007 76.2887C64.7228 76.3194 64.7448 76.3501 64.7713 76.3764C64.789 76.4115 64.811 76.4422 64.8331 76.4729C64.8552 76.5036 64.8772 76.5343 64.8949 76.5693C65.0361 76.7973 65.1244 77.0604 65.1773 77.3235V77.341C65.1862 77.3937 65.195 77.4419 65.2038 77.4901C65.2126 77.5383 65.2215 77.5866 65.2303 77.6392C65.2656 77.8672 65.3009 78.0952 65.3539 78.3407C66.6249 85.1456 70.4379 91.0736 75.7867 95.0898C75.8043 95.1074 75.8264 95.1205 75.8485 95.1337C75.8705 95.1468 75.8926 95.16 75.9102 95.1775H75.9279C75.9808 95.2126 76.0338 95.2477 76.0691 95.2827L76.0515 95.2652C76.634 95.7738 77.0224 96.5104 77.0224 97.3523C77.0047 98.843 75.769 100.071 74.2685 100.071Z" fill="#F2F2F2"/>
<path fill-rule="evenodd" clip-rule="evenodd" d="M74.1608 72.5454H49.3496C49.5385 61.8302 53.7037 52.0687 60.4465 44.6671C61.8411 43.1238 63.3592 41.6856 64.9656 40.3703C65.1422 40.2124 65.3187 40.0721 65.4952 39.9318C67.3488 38.5287 69.6789 37.6869 72.1856 37.6869C78.0287 37.6869 82.8126 42.2118 83.148 47.9293V48.1397H74.657C74.5335 48.1222 74.4099 48.1222 74.2863 48.1222C74.1627 48.1222 74.0215 48.1222 73.898 48.1397C73.2625 48.1923 72.6623 48.3853 72.1327 48.701C72.1327 48.7185 72.115 48.7185 72.115 48.7185C71.8326 48.8763 71.5678 49.0693 71.3383 49.2973C70.5263 50.0689 70.0143 51.1739 70.0143 52.384C70.0143 53.6643 70.5792 54.8043 71.4619 55.576L71.4442 55.5935L74.9748 59.1012L78.0464 62.1178C75.7408 65.0181 74.3236 68.6153 74.1608 72.5454Z" fill="#F2F2F2"/>
</g>
</svg>
