<svg width="100" height="100" viewBox="0 0 100 100" fill="none" xmlns="http://www.w3.org/2000/svg">
<g filter="url(#filter0_dd_421_694)">
<path d="M46.925 91.85C71.7364 91.85 91.85 71.7364 91.85 46.925C91.85 22.1136 71.7364 2 46.925 2C22.1136 2 2 22.1136 2 46.925C2 71.7364 22.1136 91.85 46.925 91.85Z" fill="#FFCA27"/>
</g>
<g filter="url(#filter1_f_421_694)">
<path fill-rule="evenodd" clip-rule="evenodd" d="M78.4523 14.9194C95.7209 32.4849 95.6291 60.7233 78.177 78.1753C60.7231 95.6292 32.4806 95.7192 14.9155 78.4451C15.0068 78.5379 15.0986 78.6304 15.1908 78.7227C32.7351 96.267 61.18 96.267 78.7243 78.7227C96.2686 61.1784 96.2686 32.7335 78.7243 15.1892C78.6339 15.0988 78.5433 15.0089 78.4523 14.9194Z" fill="#823600" fill-opacity="0.95"/>
</g>
<g filter="url(#filter2_f_421_694)">
<path fill-rule="evenodd" clip-rule="evenodd" d="M15.8194 79.2857C-1.41921 61.718 -1.31752 33.5022 16.1245 16.0602C33.5885 -1.40382 61.8535 -1.48371 79.4164 15.8204C79.3152 15.7173 79.2135 15.6146 79.1112 15.5122C61.5669 -2.03207 33.1219 -2.03207 15.5777 15.5122C-1.96664 33.0565 -1.96664 61.5014 15.5777 79.0457C15.658 79.1261 15.7386 79.2061 15.8194 79.2857Z" fill="white"/>
</g>
<path d="M60.4948 46.5629C60.4948 47.8477 60.3131 49.0936 59.9757 50.2616C58.3665 55.855 53.2143 59.9429 47.1148 59.9429C41.0153 59.9429 35.8502 55.855 34.254 50.2616C33.9166 49.0936 33.7349 47.8477 33.7349 46.5629C33.7349 43.4353 34.799 40.5673 36.6029 38.2832L39.6527 41.333C38.6145 42.8124 38.0045 44.6163 38.0045 46.5629C38.0045 47.8737 38.29 49.1325 38.7832 50.2616C40.1977 53.4541 43.4032 55.6862 47.1148 55.6862C50.8264 55.6862 54.0319 53.4541 55.4465 50.2616C55.9526 49.1325 56.2252 47.8737 56.2252 46.5629C56.2252 44.4995 55.5373 42.6048 54.3823 41.0734L57.4191 38.0366C59.3398 40.3466 60.4948 43.3185 60.4948 46.5629Z" fill="url(#paint0_linear_421_694)"/>
<path d="M56.225 46.5631C56.225 47.8738 55.9395 49.1327 55.4464 50.2617C54.0318 53.4542 50.8263 55.6864 47.1147 55.6864C43.4031 55.6864 40.1976 53.4542 38.7831 50.2617C38.2769 49.1327 38.0044 47.8738 38.0044 46.5631C38.0044 44.6164 38.6143 42.8125 39.6526 41.3331L44.4024 46.0829C45.778 47.4585 47.9972 47.4585 49.3728 46.0829L54.3952 41.0605C55.5502 42.6049 56.225 44.4996 56.225 46.5631Z" fill="url(#paint1_angular_421_694)"/>
<path fill-rule="evenodd" clip-rule="evenodd" d="M70.3318 25.1238C69.3585 24.0727 68.3203 23.0864 67.2042 22.1649C67.2042 22.1649 67.1912 22.1649 67.1912 22.152C66.9706 21.9832 66.7629 21.8016 66.5423 21.6329C66.5423 21.6329 66.5293 21.6199 66.5164 21.6199C65.2056 20.6855 63.5964 20.1274 61.8704 20.1274C57.6267 20.1274 54.1486 23.4238 53.8631 27.6156V27.927H59.8718H59.9237H59.9756C60.6505 27.94 61.2604 28.1606 61.7665 28.524C61.9352 28.6408 62.078 28.7835 62.2208 28.9263C62.7399 29.4843 63.0643 30.237 63.0643 31.0546C63.0643 31.8722 62.7528 32.6249 62.2337 33.183L59.5474 35.9213L57.432 38.0366C59.3527 40.3466 60.5077 43.3185 60.5077 46.5629C60.5077 47.8477 60.326 49.0936 59.9886 50.2616C58.3794 55.8549 53.2272 59.9429 47.1277 59.9429C41.0282 59.9429 35.8631 55.8549 34.2669 50.2616C33.9295 49.0936 33.7478 47.8477 33.7478 46.5629C33.7478 43.4353 34.8119 40.5673 36.6158 38.2832L34.3577 36.051L31.7622 33.4555L31.7752 33.4425C31.1263 32.8715 30.711 32.028 30.711 31.0806C30.711 30.1851 31.0874 29.3675 31.6843 28.7965C31.853 28.6278 32.0477 28.4851 32.2553 28.3683C32.2553 28.3683 32.2683 28.3683 32.2683 28.3553C32.6576 28.1217 33.0989 27.9789 33.5661 27.94C33.6569 27.927 33.7607 27.927 33.8516 27.927C33.9424 27.927 34.0333 27.927 34.1241 27.94H40.3664V27.7843C40.1198 23.5535 36.6029 20.2053 32.3073 20.2053C30.4644 20.2053 28.7514 20.8282 27.3887 21.8665C27.2589 21.9703 27.1292 22.0741 26.9994 22.1909C25.8184 23.1642 24.7023 24.2284 23.6771 25.3704C18.6028 30.9768 15.5142 38.413 15.5142 46.5629C15.5142 64.0179 29.6598 78.1635 47.1148 78.1635C64.5697 78.1635 78.7154 64.0179 78.7154 46.5629C78.7154 38.2962 75.5358 30.7561 70.3318 25.1238ZM32.7225 66.0294C33.034 66.2371 33.4233 66.3669 33.8386 66.3669C34.9417 66.3669 35.8501 65.4584 35.8631 64.3553C35.8631 63.7324 35.5776 63.1873 35.1494 62.811L35.1623 62.824C35.1364 62.798 35.0974 62.772 35.0585 62.7461H35.0455C35.0196 62.7201 34.9806 62.7072 34.9547 62.6812C31.0225 59.7093 28.2193 55.3229 27.2849 50.2875C27.246 50.1058 27.22 49.9371 27.1941 49.7684C27.1811 49.6906 27.1681 49.6257 27.1551 49.5478V49.5348C27.1162 49.3402 27.0513 49.1455 26.9475 48.9768C26.9215 48.9249 26.8826 48.8859 26.8566 48.834C26.8177 48.7951 26.7917 48.7432 26.7528 48.7043C26.7139 48.6523 26.6749 48.6134 26.636 48.5745L26.5711 48.5096C26.2078 48.1722 25.7146 47.9516 25.1695 47.9516C25.0268 47.9516 24.91 47.9645 24.7802 47.9905C24.5726 48.0294 24.3779 48.0943 24.1962 48.1981C23.5733 48.5485 23.158 49.1974 23.158 49.9631C23.158 50.015 23.171 50.0799 23.171 50.1318C23.171 50.2226 23.1969 50.3005 23.2099 50.3914C24.2222 56.7245 27.6742 62.24 32.5928 65.9386C32.6447 65.9645 32.6836 66.0035 32.7225 66.0294Z" fill="url(#paint2_angular_421_694)"/>
<defs>
<filter id="filter0_dd_421_694" x="0" y="0" width="99.8501" height="99.8501" filterUnits="userSpaceOnUse" color-interpolation-filters="sRGB">
<feFlood flood-opacity="0" result="BackgroundImageFix"/>
<feColorMatrix in="SourceAlpha" type="matrix" values="0 0 0 0 0 0 0 0 0 0 0 0 0 0 0 0 0 0 127 0" result="hardAlpha"/>
<feOffset dx="4" dy="4"/>
<feGaussianBlur stdDeviation="2"/>
<feColorMatrix type="matrix" values="0 0 0 0 0.491667 0 0 0 0 0.256666 0 0 0 0 0.0397431 0 0 0 0.15 0"/>
<feBlend mode="normal" in2="BackgroundImageFix" result="effect1_dropShadow_421_694"/>
<feColorMatrix in="SourceAlpha" type="matrix" values="0 0 0 0 0 0 0 0 0 0 0 0 0 0 0 0 0 0 127 0" result="hardAlpha"/>
<feOffset/>
<feGaussianBlur stdDeviation="1"/>
<feColorMatrix type="matrix" values="0 0 0 0 0.5925 0 0 0 0 0.0933187 0 0 0 0 0.0933187 0 0 0 0.2 0"/>
<feBlend mode="normal" in2="effect1_dropShadow_421_694" result="effect2_dropShadow_421_694"/>
<feBlend mode="normal" in="SourceGraphic" in2="effect2_dropShadow_421_694" result="shape"/>
</filter>
<filter id="filter1_f_421_694" x="11.9155" y="11.9194" width="82.9668" height="82.9614" filterUnits="userSpaceOnUse" color-interpolation-filters="sRGB">
<feFlood flood-opacity="0" result="BackgroundImageFix"/>
<feBlend mode="normal" in="SourceGraphic" in2="BackgroundImageFix" result="shape"/>
<feGaussianBlur stdDeviation="1.5" result="effect1_foregroundBlur_421_694"/>
</filter>
<filter id="filter2_f_421_694" x="0.419434" y="0.354004" width="80.9971" height="80.9316" filterUnits="userSpaceOnUse" color-interpolation-filters="sRGB">
<feFlood flood-opacity="0" result="BackgroundImageFix"/>
<feBlend mode="normal" in="SourceGraphic" in2="BackgroundImageFix" result="shape"/>
<feGaussianBlur stdDeviation="1" result="effect1_foregroundBlur_421_694"/>
</filter>
<linearGradient id="paint0_linear_421_694" x1="47.1148" y1="38.0366" x2="47.1148" y2="59.9429" gradientUnits="userSpaceOnUse">
<stop stop-color="#E8B007"/>
<stop offset="0.0656249" stop-color="#E6A80B"/>
<stop offset="0.430208" stop-color="#FFCA27"/>
</linearGradient>
<radialGradient id="paint1_angular_421_694" cx="0" cy="0" r="1" gradientUnits="userSpaceOnUse" gradientTransform="translate(47.1147 48.3735) rotate(90) scale(7.31291 9.11032)">
<stop stop-color="#333333"/>
<stop offset="0.315625" stop-color="#272727"/>
<stop offset="0.367708" stop-color="#141414"/>
<stop offset="0.4875" stop-color="#5F5E5E"/>
<stop offset="0.607292" stop-color="#292929"/>
<stop offset="0.758333" stop-color="#575757"/>
<stop offset="0.867708" stop-color="#929292"/>
<stop offset="1" stop-color="#333333"/>
</radialGradient>
<radialGradient id="paint2_angular_421_694" cx="0" cy="0" r="1" gradientUnits="userSpaceOnUse" gradientTransform="translate(47.1148 49.1455) rotate(90) scale(29.0181 31.6006)">
<stop stop-color="#333333"/>
<stop offset="0.315625" stop-color="#272727"/>
<stop offset="0.367708" stop-color="#141414"/>
<stop offset="0.4875" stop-color="#5F5E5E"/>
<stop offset="0.607292" stop-color="#292929"/>
<stop offset="0.758333" stop-color="#575757"/>
<stop offset="0.867708" stop-color="#929292"/>
<stop offset="1" stop-color="#333333"/>
</radialGradient>
</defs>
</svg>
