<svg width="244" height="59" viewBox="0 0 244 59" fill="none" xmlns="http://www.w3.org/2000/svg">
<rect x="3" width="241" height="28" rx="14" fill="#212121"/>
<path d="M136.638 20.304C135.705 20.5187 134.874 20.5 134.146 20.248C133.418 20.0053 132.867 19.576 132.494 18.96C132.13 18.3533 131.92 17.5927 131.864 16.678C131.817 15.7633 131.995 14.7507 132.396 13.64L133.628 14.13C133.04 15.838 133.003 17.1353 133.516 18.022C134.029 18.918 134.972 19.2073 136.344 18.89C137.119 18.7033 137.739 18.5027 138.206 18.288C138.682 18.0827 138.915 17.9053 138.906 17.756C138.906 17.728 138.892 17.7 138.864 17.672C138.845 17.644 138.808 17.616 138.752 17.588C138.696 17.56 138.635 17.532 138.57 17.504C138.514 17.4853 138.43 17.4573 138.318 17.42C138.215 17.3827 138.117 17.35 138.024 17.322C137.931 17.294 137.805 17.2567 137.646 17.21C137.487 17.1633 137.343 17.1213 137.212 17.084C136.904 16.9813 136.643 16.8787 136.428 16.776C136.223 16.6733 136.031 16.5427 135.854 16.384C135.677 16.2253 135.546 16.048 135.462 15.852C135.387 15.6467 135.35 15.404 135.35 15.124C135.359 14.8347 135.42 14.508 135.532 14.144C135.644 13.78 135.803 13.4347 136.008 13.108C136.213 12.772 136.479 12.4593 136.806 12.17C137.142 11.8807 137.515 11.6893 137.926 11.596C138.346 11.5027 138.817 11.5167 139.34 11.638L140.25 11.89L139.914 13.29L139.004 13.038C138.649 12.9353 138.323 12.9353 138.024 13.038C137.735 13.1407 137.501 13.304 137.324 13.528C137.156 13.752 137.03 13.948 136.946 14.116C136.862 14.2747 136.801 14.4147 136.764 14.536C136.661 14.928 136.68 15.194 136.82 15.334C136.96 15.474 137.287 15.6233 137.8 15.782C138.761 16.062 139.359 16.272 139.592 16.412C139.919 16.636 140.119 16.958 140.194 17.378C140.297 18.0313 140.031 18.61 139.396 19.114C138.771 19.6273 137.851 20.024 136.638 20.304ZM143.82 11.484L142.742 10.406L143.82 9.314L144.912 10.406L143.82 11.484ZM141.44 20.584L141.104 19.184C142.205 18.8853 142.896 18.6567 143.176 18.498C143.708 18.2087 143.96 17.7607 143.932 17.154C143.922 17.0887 143.913 17.014 143.904 16.93L143.344 12.898L144.632 12.702L145.178 16.762C145.243 17.2473 145.229 17.6767 145.136 18.05C145.042 18.4233 144.898 18.7313 144.702 18.974C144.515 19.226 144.24 19.4547 143.876 19.66C143.512 19.8747 143.152 20.0427 142.798 20.164C142.443 20.2947 141.99 20.4347 141.44 20.584ZM149.696 17C148.772 17 148.123 16.7853 147.75 16.356C147.377 15.9267 147.167 15.1707 147.12 14.088L146.868 7.648L148.17 7.592L148.422 14.088C148.441 14.7227 148.52 15.124 148.66 15.292C148.809 15.46 149.155 15.544 149.696 15.544H149.836V17H149.696ZM159.543 13.57C159.823 14.5967 159.721 15.4273 159.235 16.062C158.759 16.6873 158.092 17 157.233 17C156.533 17 155.969 16.7573 155.539 16.272C155.119 16.7573 154.536 17 153.789 17C153.099 17 152.539 16.7527 152.109 16.258C151.68 16.7527 151.097 17 150.359 17H149.701V15.544H150.359C151.106 15.544 151.489 15.2407 151.507 14.634V14.55V12.814H152.725V14.55V14.634C152.744 15.2407 153.099 15.544 153.789 15.544C154.247 15.544 154.55 15.4507 154.699 15.264C154.858 15.0773 154.937 14.8393 154.937 14.55V12.814H156.155V14.55V14.634C156.155 15.2407 156.515 15.544 157.233 15.544C158.223 15.544 158.573 15.0073 158.283 13.934L157.723 11.848L158.983 11.484L159.543 13.57ZM176.175 14.508C176.212 14.9 176.31 15.1707 176.469 15.32C176.627 15.4693 176.912 15.544 177.323 15.544V17C176.548 17 175.96 16.7853 175.559 16.356C175.101 16.7853 174.495 17 173.739 17H170.365C168.815 17 167.77 16.9767 167.229 16.93C166.697 16.874 166.249 16.7713 165.885 16.622C165.306 16.3607 164.909 15.9547 164.695 15.404C164.48 14.8533 164.466 14.2233 164.653 13.514L165.171 11.512L166.417 11.876L165.885 13.934C165.791 14.298 165.782 14.5873 165.857 14.802C165.941 15.0073 166.123 15.1707 166.403 15.292C166.627 15.3853 166.972 15.4507 167.439 15.488C167.915 15.5253 168.89 15.544 170.365 15.544H173.739C174.159 15.544 174.457 15.474 174.635 15.334C174.821 15.1847 174.905 14.956 174.887 14.648V14.62L174.733 12.898L176.021 12.772L176.175 14.494V14.508ZM169.413 18.988L170.491 17.91L171.583 19.002L170.491 20.08L169.413 18.988ZM178.96 10.462L178.008 9.51L178.96 8.544L179.926 9.51L178.96 10.462ZM181.522 10.462L180.556 9.51L181.522 8.544L182.488 9.51L181.522 10.462ZM177.182 17V15.544H179.254C179.795 15.544 180.187 15.4273 180.43 15.194C180.673 14.9513 180.715 14.5313 180.556 13.934L180.01 11.848L181.27 11.484L181.83 13.64C182.11 14.6667 181.984 15.4833 181.452 16.09C180.929 16.6967 180.197 17 179.254 17H177.182ZM186.781 15.544H186.879V17H186.781C186.548 17 186.357 16.9813 186.207 16.944C186.254 17.392 186.221 17.7933 186.109 18.148C186.007 18.5027 185.857 18.7967 185.661 19.03C185.475 19.2727 185.199 19.492 184.835 19.688C184.481 19.8933 184.126 20.0567 183.771 20.178C183.417 20.2993 182.973 20.4347 182.441 20.584L182.105 19.184C183.207 18.8853 183.897 18.6567 184.177 18.498C184.709 18.2087 184.961 17.7607 184.933 17.154C184.924 17.0887 184.915 17.014 184.905 16.93L184.345 12.898L185.633 12.702L185.815 14.102C185.918 14.7087 186.03 15.1007 186.151 15.278C186.273 15.4553 186.483 15.544 186.781 15.544ZM192.059 11.918C192.703 12.2633 193.099 12.8513 193.249 13.682C193.407 14.5127 193.272 15.3387 192.843 16.16C192.628 16.552 192.315 16.8227 191.905 16.972C191.494 17.1213 191.069 17.0933 190.631 16.888L188.909 16.006C188.395 16.6687 187.723 17 186.893 17H186.739V15.544H186.893C187.49 15.544 187.91 15.306 188.153 14.83L189.189 12.856C189.478 12.3053 189.893 11.9413 190.435 11.764C190.985 11.5773 191.527 11.6287 192.059 11.918ZM191.807 15.572C192.068 15.0773 192.185 14.6013 192.157 14.144C192.129 13.6773 191.942 13.3507 191.597 13.164C191.335 13.024 191.065 13.01 190.785 13.122C190.514 13.234 190.295 13.4533 190.127 13.78L189.595 14.816L191.345 15.712C191.55 15.8147 191.704 15.768 191.807 15.572Z" fill="#F2C94C"/>
<path d="M33.1631 12.524C33.5631 12.908 33.8511 13.276 34.0271 13.628C34.2031 13.98 34.2911 14.372 34.2911 14.804C34.2911 15.412 34.0791 15.936 33.6551 16.376C33.2311 16.808 32.7231 17.024 32.1311 17.024C31.5391 17.024 31.0311 16.808 30.6071 16.376C30.1831 15.936 29.9711 15.412 29.9711 14.804C29.9711 14.084 30.2911 13.412 30.9311 12.788L31.3271 12.392L30.9431 12.032L31.7231 11.132L33.1631 12.524ZM31.3631 15.524C31.5711 15.716 31.8271 15.812 32.1311 15.812C32.4351 15.812 32.6871 15.716 32.8871 15.524C33.0951 15.324 33.1991 15.084 33.1991 14.804C33.1991 14.588 33.1471 14.384 33.0431 14.192C32.9391 13.992 32.7311 13.74 32.4191 13.436L32.1431 13.172L31.7471 13.556C31.2831 14.02 31.0511 14.436 31.0511 14.804C31.0511 15.084 31.1551 15.324 31.3631 15.524ZM41.4186 15.752H42.0066V17H41.4186C40.8906 17 40.4586 16.792 40.1226 16.376C39.7226 16.792 39.1106 17 38.2866 17H37.7226C37.1146 17 36.6266 16.868 36.2586 16.604C35.8986 16.34 35.7026 16 35.6706 15.584L35.6226 14.804H36.6546C36.6546 15.028 36.6666 15.216 36.6906 15.368C36.7386 15.624 37.0186 15.752 37.5306 15.752H38.4306C38.8786 15.752 39.1786 15.676 39.3306 15.524C39.4826 15.364 39.5266 15.148 39.4626 14.876C39.4626 14.868 39.4586 14.86 39.4506 14.852C39.4506 14.836 39.4506 14.824 39.4506 14.816L38.5506 11.3L39.6426 11L40.5306 14.54C40.5786 14.724 40.6146 14.864 40.6386 14.96C40.6706 15.056 40.7106 15.164 40.7586 15.284C40.8146 15.404 40.8666 15.492 40.9146 15.548C40.9706 15.604 41.0386 15.652 41.1186 15.692C41.2066 15.732 41.3066 15.752 41.4186 15.752ZM47.5733 9.824L46.8773 10.532L46.1813 9.824L46.8773 9.14L47.5733 9.824ZM46.6133 11.384L45.7853 12.212L44.9693 11.384L45.7853 10.556L46.6133 11.384ZM47.9693 12.212L47.1413 11.384L47.9693 10.556L48.7973 11.384L47.9693 12.212ZM50.3213 14.06C50.5613 14.94 50.4733 15.652 50.0573 16.196C49.6493 16.732 49.0773 17 48.3413 17C47.7413 17 47.2573 16.792 46.8893 16.376C46.5293 16.792 46.0293 17 45.3893 17C44.7973 17 44.3173 16.788 43.9493 16.364C43.5813 16.788 43.0813 17 42.4493 17H41.8853V15.752H42.4493C43.0893 15.752 43.4173 15.492 43.4333 14.972V14.9V13.412H44.4773V14.9V14.972C44.4933 15.492 44.7973 15.752 45.3893 15.752C45.7813 15.752 46.0413 15.672 46.1693 15.512C46.3053 15.352 46.3733 15.148 46.3733 14.9V13.412H47.4173V14.9V14.972C47.4173 15.492 47.7253 15.752 48.3413 15.752C49.1893 15.752 49.4893 15.292 49.2413 14.372L48.7613 12.584L49.8413 12.272L50.3213 14.06ZM54.8311 12.524C55.2311 12.908 55.5191 13.276 55.6951 13.628C55.8711 13.98 55.9591 14.372 55.9591 14.804C55.9591 15.412 55.7471 15.936 55.3231 16.376C54.8991 16.808 54.3911 17.024 53.7991 17.024C53.2071 17.024 52.6991 16.808 52.2751 16.376C51.8511 15.936 51.6391 15.412 51.6391 14.804C51.6391 14.084 51.9591 13.412 52.5991 12.788L52.9951 12.392L52.6111 12.032L53.3911 11.132L54.8311 12.524ZM53.0311 15.524C53.2391 15.716 53.4951 15.812 53.7991 15.812C54.1031 15.812 54.3551 15.716 54.5551 15.524C54.7631 15.324 54.8671 15.084 54.8671 14.804C54.8671 14.588 54.8151 14.384 54.7111 14.192C54.6071 13.992 54.3991 13.74 54.0871 13.436L53.8111 13.172L53.4151 13.556C52.9511 14.02 52.7191 14.436 52.7191 14.804C52.7191 15.084 52.8231 15.324 53.0311 15.524ZM59.3906 17C58.7826 17 58.2946 16.868 57.9266 16.604C57.5666 16.34 57.3706 16 57.3386 15.584L57.2906 14.804H58.3226C58.3226 15.028 58.3346 15.216 58.3586 15.368C58.4066 15.624 58.6866 15.752 59.1986 15.752H60.1946C61.0506 15.752 61.3906 15.44 61.2146 14.816C61.0946 14.448 60.8786 13.988 60.5666 13.436C60.2546 12.884 59.9746 12.424 59.7266 12.056L59.3426 11.516L60.2426 10.784C60.3706 10.952 60.5306 11.176 60.7226 11.456C60.9146 11.736 61.1946 12.212 61.5626 12.884C61.9386 13.548 62.1826 14.1 62.2946 14.54C62.4626 15.236 62.3546 15.82 61.9706 16.292C61.5946 16.764 60.9546 17 60.0506 17H59.3906ZM68.4048 16.808C68.4448 17.168 68.4448 17.484 68.4048 17.756C68.3648 18.028 68.2728 18.268 68.1288 18.476C67.9848 18.692 67.8168 18.872 67.6248 19.016C67.4328 19.168 67.1648 19.308 66.8208 19.436C66.4768 19.572 66.1248 19.684 65.7648 19.772C65.4048 19.868 64.9448 19.972 64.3848 20.084L64.1568 18.872C64.6928 18.76 65.0888 18.676 65.3448 18.62C65.6008 18.564 65.8768 18.492 66.1728 18.404C66.4768 18.316 66.6808 18.236 66.7848 18.164C66.8968 18.092 67.0048 17.992 67.1088 17.864C67.2208 17.744 67.2848 17.612 67.3008 17.468C67.3168 17.332 67.3128 17.156 67.2888 16.94L67.2768 16.88C66.7808 16.96 66.2928 17 65.8128 17C65.2368 17 64.7528 16.816 64.3608 16.448C63.9768 16.072 63.7608 15.588 63.7128 14.996C63.6568 14.316 63.8248 13.708 64.2168 13.172C64.6088 12.628 65.1328 12.34 65.7888 12.308C66.4368 12.276 66.9768 12.5 67.4088 12.98C67.8488 13.452 68.1128 14.084 68.2008 14.876L68.4048 16.808ZM65.8128 15.752C66.2768 15.752 66.7248 15.712 67.1568 15.632L67.0968 15.032C67.0488 14.552 66.9128 14.184 66.6888 13.928C66.4648 13.664 66.1808 13.54 65.8368 13.556C65.5008 13.564 65.2408 13.704 65.0568 13.976C64.8728 14.248 64.7968 14.556 64.8288 14.9C64.8448 15.164 64.9368 15.372 65.1048 15.524C65.2808 15.676 65.5168 15.752 65.8128 15.752ZM72.2913 11.348L71.3553 12.272L70.4313 11.348L71.3553 10.412L72.2913 11.348ZM73.0353 15.752H73.1193V17H73.0353C72.8353 17 72.6713 16.984 72.5433 16.952C72.5833 17.336 72.5553 17.68 72.4593 17.984C72.3713 18.288 72.2433 18.54 72.0753 18.74C71.9153 18.948 71.6793 19.136 71.3673 19.304C71.0633 19.48 70.7593 19.62 70.4553 19.724C70.1513 19.828 69.7713 19.944 69.3153 20.072L69.0273 18.872C69.9713 18.616 70.5633 18.42 70.8033 18.284C71.2593 18.036 71.4753 17.652 71.4513 17.132C71.4433 17.076 71.4353 17.012 71.4273 16.94L70.9473 13.484L72.0513 13.316L72.2073 14.516C72.2953 15.036 72.3913 15.372 72.4953 15.524C72.5993 15.676 72.7793 15.752 73.0353 15.752ZM76.6346 8.672L75.6986 9.596L74.7746 8.672L75.6986 7.736L76.6346 8.672ZM78.0866 14.744C78.1586 15.56 78.0066 16.14 77.6306 16.484C77.2626 16.828 76.5106 17 75.3746 17H72.9986V15.752H75.3986C76.1426 15.752 76.6106 15.7 76.8026 15.596C76.9946 15.484 77.0706 15.244 77.0306 14.876C76.5426 14.932 76.0706 14.96 75.6146 14.96C75.0226 14.96 74.5426 14.788 74.1746 14.444C73.8146 14.1 73.6306 13.636 73.6226 13.052C73.6066 12.372 73.7706 11.788 74.1146 11.3C74.4586 10.812 74.9506 10.548 75.5906 10.508C76.2306 10.468 76.7666 10.676 77.1986 11.132C77.6386 11.58 77.8906 12.188 77.9546 12.956L78.0866 14.744ZM74.6306 12.968C74.6466 13.232 74.7426 13.44 74.9186 13.592C75.0946 13.736 75.3266 13.808 75.6146 13.808C76.1266 13.808 76.5666 13.776 76.9346 13.712L76.8746 13.052C76.8186 12.588 76.6826 12.232 76.4666 11.984C76.2506 11.736 75.9746 11.616 75.6386 11.624C75.3026 11.64 75.0426 11.78 74.8586 12.044C74.6826 12.308 74.6066 12.616 74.6306 12.968ZM79.9788 17.036L79.6668 8.984L80.7828 8.924L81.0828 16.988L79.9788 17.036ZM86.4827 17.036L86.1707 8.984L87.2867 8.924L87.5867 16.988L86.4827 17.036ZM92.0314 15.752H92.1154V17H92.0314C91.8314 17 91.6674 16.984 91.5394 16.952C91.5794 17.336 91.5514 17.68 91.4554 17.984C91.3674 18.288 91.2394 18.54 91.0714 18.74C90.9114 18.948 90.6754 19.136 90.3634 19.304C90.0594 19.48 89.7554 19.62 89.4514 19.724C89.1474 19.828 88.7674 19.944 88.3114 20.072L88.0234 18.872C88.9674 18.616 89.5594 18.42 89.7994 18.284C90.2554 18.036 90.4714 17.652 90.4474 17.132C90.4394 17.076 90.4314 17.012 90.4234 16.94L89.9434 13.484L91.0474 13.316L91.2034 14.516C91.2914 15.036 91.3874 15.372 91.4914 15.524C91.5954 15.676 91.7754 15.752 92.0314 15.752ZM96.0147 14.864C96.0467 15.2 96.1307 15.432 96.2667 15.56C96.4027 15.688 96.6467 15.752 96.9987 15.752V17C96.3347 17 95.8307 16.816 95.4867 16.448C95.0947 16.816 94.5747 17 93.9267 17H91.9947V15.752H93.9267C94.2947 15.752 94.5547 15.688 94.7067 15.56C94.8587 15.432 94.9227 15.232 94.8987 14.96L94.7667 13.484L95.8827 13.376L96.0147 14.852V14.864ZM92.1987 18.764L93.0267 17.936L93.8427 18.764L93.0267 19.58L92.1987 18.764ZM94.3827 18.764L95.2107 17.936L96.0387 18.764L95.2107 19.58L94.3827 18.764ZM100.853 10.256L99.9294 11.192L98.9934 10.256L99.9294 9.332L100.853 10.256ZM101.141 12.416L104.189 14.24L104.033 15.68L100.517 16.652C99.6694 16.884 98.4774 17 96.9414 17H96.8814V15.752H96.9414C98.3894 15.752 99.4894 15.652 100.241 15.452L102.881 14.768L100.613 13.496C100.277 13.304 99.9334 13.26 99.5814 13.364C99.2294 13.468 98.9534 13.692 98.7534 14.036L98.5374 14.408L97.5774 13.808L97.8054 13.388C98.1654 12.74 98.6574 12.328 99.2814 12.152C99.9054 11.968 100.525 12.056 101.141 12.416ZM106.053 17.036L105.741 8.984L106.857 8.924L107.157 16.988L106.053 17.036ZM122.065 13.76C121.817 13.76 121.609 13.676 121.441 13.508C121.281 13.34 121.201 13.136 121.201 12.896C121.201 12.664 121.281 12.468 121.441 12.308C121.609 12.14 121.817 12.056 122.065 12.056C122.297 12.056 122.497 12.14 122.665 12.308C122.833 12.468 122.917 12.664 122.917 12.896C122.917 13.136 122.833 13.34 122.665 13.508C122.497 13.676 122.297 13.76 122.065 13.76ZM122.065 17.072C121.817 17.072 121.609 16.988 121.441 16.82C121.281 16.652 121.201 16.448 121.201 16.208C121.201 15.976 121.281 15.78 121.441 15.62C121.609 15.452 121.817 15.368 122.065 15.368C122.297 15.368 122.497 15.452 122.665 15.62C122.833 15.78 122.917 15.976 122.917 16.208C122.917 16.448 122.833 16.652 122.665 16.82C122.497 16.988 122.297 17.072 122.065 17.072Z" fill="#828282"/>
<path d="M210 15L202 15" stroke="#F2C94C" stroke-width="2" stroke-linecap="round" stroke-linejoin="round"/>
<path d="M210 21H202" stroke="#F2C94C" stroke-width="2" stroke-linecap="round" stroke-linejoin="round"/>
<path d="M215 9L202 9" stroke="#F2C94C" stroke-width="2" stroke-linecap="round" stroke-linejoin="round"/>
<path d="M219 8V22" stroke="#F2C94C" stroke-width="2" stroke-linecap="round" stroke-linejoin="round"/>
<path d="M224 17L219 22L214 17" stroke="#F2C94C" stroke-width="2" stroke-linecap="round" stroke-linejoin="round"/>
<path d="M30.1694 31.21H30.1026C28.8222 31.21 27.7445 32.2983 27.7445 33.6969V35.6356C27.7445 36.0218 27.431 36.3353 27.0448 36.3353C26.6582 36.3353 26.3451 36.0218 26.3451 35.6356V32.0558C26.3451 30.6571 25.3295 29.5193 24.0495 29.5193C22.7625 29.5193 21.7469 30.6571 21.7469 32.0558V35.85C21.7469 36.2365 21.4333 36.5497 21.0472 36.5497C20.6606 36.5497 20.3474 36.2365 20.3474 35.85V31.014C20.3474 29.6157 19.2916 28.5111 18.0117 28.5111H17.9406C16.6926 28.5111 15.6493 29.5587 15.6493 30.9086V36.3541C15.6493 36.7406 15.3358 37.0538 14.9496 37.0538C14.563 37.0538 14.2499 36.7406 14.2499 36.3541V31.0663C14.2499 31.0491 14.2479 31.0312 14.2479 31.0136C14.2479 30.9707 14.2499 30.9277 14.2499 30.8851V18.5224C14.2499 17.1238 13.1944 15.9863 11.9148 15.9863C10.6349 15.9863 9.57982 17.1234 9.57865 18.5209L9.56459 39.0218C9.5642 39.3174 9.37872 39.5809 9.10032 39.6805C8.8223 39.7801 8.51149 39.6942 8.32406 39.4657L5.8762 36.4861C5.23075 35.6774 4.278 35.1737 3.24599 35.0952C2.23584 35.0284 1.24326 35.3845 0.506051 36.0784C0.49746 36.0862 0.488479 36.0956 0.479108 36.1034L0 36.504L8.48689 52.8136C9.8266 55.388 12.41 56.9997 15.0976 57.9998C17.7852 59 18.0478 58.9998 20.0029 58.9998C21.9579 58.9998 21.2852 59 24.9081 57.9998C28.5311 56.9997 32.4829 53.3267 32.4872 48.8273C32.4895 46.4446 32.4919 44.6574 32.4938 43.2178C32.4989 39.3693 32.5005 37.9538 32.4907 33.7145C32.4876 32.3197 31.4462 31.21 30.1694 31.21Z" fill="url(#paint0_linear_42_23)"/>
<path d="M5.54841 18.7673C5.93497 18.7673 6.24813 18.4541 6.24813 18.0675C6.23993 16.0464 7.31334 14.1749 9.06226 13.162C10.8112 12.1492 12.9685 12.1492 14.7174 13.162C16.4664 14.1749 17.5398 16.0464 17.5312 18.0675C17.5312 18.4541 17.8447 18.7673 18.2309 18.7673C18.6175 18.7673 18.9306 18.4541 18.9306 18.0675C18.9404 15.5459 17.6003 13.2112 15.418 11.9477C13.2356 10.6841 10.5441 10.6841 8.36175 11.9477C6.17941 13.2112 4.83931 15.5459 4.84868 18.0675C4.84868 18.4541 5.16223 18.7673 5.54841 18.7673Z" fill="url(#paint1_linear_42_23)"/>
<defs>
<linearGradient id="paint0_linear_42_23" x1="16.2489" y1="15.9863" x2="16.2489" y2="58.9998" gradientUnits="userSpaceOnUse">
<stop stop-color="#EFB82B"/>
<stop offset="1" stop-color="#D8875A"/>
</linearGradient>
<linearGradient id="paint1_linear_42_23" x1="11.8897" y1="11" x2="11.8897" y2="18.7673" gradientUnits="userSpaceOnUse">
<stop stop-color="#EFB82B"/>
<stop offset="1" stop-color="#D8875A"/>
</linearGradient>
</defs>
</svg>
