<svg width="20" height="22" viewBox="0 0 20 22" fill="none" xmlns="http://www.w3.org/2000/svg">
<path d="M7 17.5V14.25V12.625V11.8125M19 15.5V2.5L16 3L14.5 3.25L13.75 3.375M7 8V4.5L10 4" stroke="#E0E0E0" stroke-width="1.7" stroke-linecap="round" stroke-linejoin="round"/>
<path d="M3.5 5L7.5 4.5" stroke="#E0E0E0" stroke-width="1.7" stroke-linecap="round" stroke-linejoin="round"/>
<path d="M7 5V1" stroke="#E0E0E0" stroke-width="1.7" stroke-linecap="round" stroke-linejoin="round"/>
<path d="M4 20.5C5.65685 20.5 7 19.1569 7 17.5C7 15.8431 5.65685 14.5 4 14.5C2.34315 14.5 1 15.8431 1 17.5C1 19.1569 2.34315 20.5 4 20.5Z" stroke="#E0E0E0" stroke-width="1.7" stroke-linecap="round" stroke-linejoin="round"/>
<path d="M16 18.5C17.6569 18.5 19 17.1569 19 15.5C19 13.8431 17.6569 12.5 16 12.5C14.3431 12.5 13 13.8431 13 15.5C13 17.1569 14.3431 18.5 16 18.5Z" stroke="#E0E0E0" stroke-width="1.7" stroke-linecap="round" stroke-linejoin="round"/>
</svg>
