<svg width="26" height="24" viewBox="0 0 26 24" fill="none" xmlns="http://www.w3.org/2000/svg">
<path d="M21.0725 2.04667L17.5853 0.148863C16.7817 -0.288323 15.7959 0.2898 15.7959 1.20105V14.44H13.3745C10.7198 14.44 8.55998 16.5844 8.55998 19.22C8.55998 21.8075 10.6619 24 13.3987 24C16.0534 24 18.2132 21.8556 18.2132 19.22C18.2132 18.3841 18.2132 4.01884 18.2132 3.22729L19.9107 4.15134C21.8355 5.19915 23.0315 7.19977 23.0315 9.37257V11.941C23.0315 12.6035 23.5726 13.141 24.2402 13.141C24.9078 13.141 25.4489 12.6035 25.4489 11.941V9.37257C25.4489 6.3229 23.7718 3.51603 21.0725 2.04667ZM15.7956 19.22C15.7956 20.4972 14.7648 21.6 13.3745 21.6C12.0528 21.6 10.9773 20.5322 10.9773 19.22C10.9773 17.9078 12.0528 16.84 13.3745 16.84H15.7956V19.22Z" fill="#F2C94C"/>
<path fill-rule="evenodd" clip-rule="evenodd" d="M19.9107 4.15134C21.8355 5.19915 23.0315 7.19977 23.0315 9.37257V11.941C23.0315 12.6035 23.5726 13.141 24.2402 13.141C24.9078 13.141 25.4489 12.6035 25.4489 11.941V9.37257C25.4489 6.3229 23.7718 3.51603 21.0725 2.04667L17.5853 0.148863C16.7817 -0.288323 15.7959 0.2898 15.7959 1.20105V14.44H13.3745C10.7198 14.44 8.55998 16.5844 8.55998 19.22C8.55998 21.8075 10.6619 24 13.3987 24C16.0534 24 18.2132 21.8556 18.2132 19.22V3.22729L19.9107 4.15134ZM17.1073 1.02721C17.1073 1.02719 17.1073 1.02723 17.1073 1.02721C16.9583 0.946279 16.7959 1.06177 16.7959 1.20105V15.44H13.3745C11.2653 15.44 9.55998 17.1435 9.55998 19.22C9.55998 21.2595 11.2185 23 13.3987 23C15.5079 23 17.2132 21.2966 17.2132 19.22V1.54435L20.3888 3.27305C22.6317 4.49401 24.0315 6.82946 24.0315 9.37257V11.941C24.0315 12.0446 24.1183 12.141 24.2402 12.141C24.3622 12.141 24.4489 12.0446 24.4489 11.941V9.37257C24.4489 6.69283 22.9753 4.22104 20.5945 2.92502M20.5945 2.92502L17.1073 1.02721ZM16.7956 15.84V19.22C16.7956 21.0411 15.3254 22.6 13.3745 22.6C11.5074 22.6 9.97731 21.0913 9.97731 19.22C9.97731 17.3488 11.5074 15.84 13.3745 15.84H16.7956ZM13.3745 21.6C14.7648 21.6 15.7956 20.4972 15.7956 19.22V16.84H13.3745C12.0528 16.84 10.9773 17.9078 10.9773 19.22C10.9773 20.5322 12.0528 21.6 13.3745 21.6Z" fill="#F2C94C"/>
<path fill-rule="evenodd" clip-rule="evenodd" d="M7 3.83997C7 3.28768 7.44772 2.83997 8 2.83997L12.52 2.83997C13.0723 2.83997 13.52 3.28768 13.52 3.83997C13.52 4.39225 13.0723 4.83997 12.52 4.83997L8 4.83997C7.44772 4.83997 7 4.39225 7 3.83997Z" fill="#F2C94C"/>
<path fill-rule="evenodd" clip-rule="evenodd" d="M-8.74228e-08 3.83997C-3.91405e-08 3.28768 0.447715 2.83997 1 2.83997L5.51999 2.83997C6.07228 2.83997 6.51999 3.28768 6.51999 3.83997C6.51999 4.39225 6.07228 4.83997 5.51999 4.83997L1 4.83997C0.447715 4.83997 -1.35705e-07 4.39225 -8.74228e-08 3.83997Z" fill="#F2C94C"/>
<path fill-rule="evenodd" clip-rule="evenodd" d="M3.25999 0.579956C3.81228 0.579956 4.25999 1.02767 4.25999 1.57996L4.25999 6.09995C4.25999 6.65224 3.81228 7.09995 3.25999 7.09995C2.70771 7.09995 2.25999 6.65224 2.25999 6.09995L2.25999 1.57996C2.25999 1.02767 2.70771 0.579956 3.25999 0.579956Z" fill="#F2C94C"/>
<path fill-rule="evenodd" clip-rule="evenodd" d="M-8.74228e-08 8.64001C-3.91405e-08 8.08773 0.447715 7.64001 1 7.64001L12.52 7.64002C13.0723 7.64002 13.52 8.08773 13.52 8.64002C13.52 9.1923 13.0723 9.64002 12.52 9.64002L1 9.64001C0.447715 9.64001 -1.35705e-07 9.1923 -8.74228e-08 8.64001Z" fill="#F2C94C"/>
<path fill-rule="evenodd" clip-rule="evenodd" d="M-8.74228e-08 13.44C-3.91405e-08 12.8877 0.447715 12.44 1 12.44L8.68 12.44C9.23229 12.44 9.68 12.8877 9.68 13.44C9.68 13.9923 9.23229 14.44 8.68 14.44L1 14.44C0.447715 14.44 -1.35705e-07 13.9923 -8.74228e-08 13.44Z" fill="#F2C94C"/>
</svg>
