<svg width="30" height="23" viewBox="0 0 30 23" fill="none" xmlns="http://www.w3.org/2000/svg">
<path d="M0.999996 3.95288L6.99927 4.04639" stroke="#E0E0E0" stroke-width="2" stroke-linecap="round"/>
<path d="M4 1V7" stroke="#E0E0E0" stroke-width="2" stroke-linecap="round"/>
<path d="M25.9696 2.87611L22.773 1.13646C22.0364 0.735704 21.1327 1.26565 21.1327 2.10096V14.2367H18.9131C16.4796 14.2367 14.4998 16.2024 14.4998 18.6184C14.4998 20.9902 16.4265 23 18.9353 23C21.3687 23 23.3486 21.0343 23.3486 18.6184C23.3486 17.8521 23.3486 4.68394 23.3486 3.95835L24.9046 4.8054C26.669 5.76589 27.7654 7.59979 27.7654 9.59152V11.9459C27.7654 12.5532 28.2613 13.0459 28.8733 13.0459C29.4853 13.0459 29.9812 12.5532 29.9812 11.9459V9.59152C29.9812 6.79599 28.444 4.22303 25.9696 2.87611ZM21.1324 18.6184C21.1324 19.7891 20.1875 20.8 18.9131 20.8C17.7015 20.8 16.7156 19.8212 16.7156 18.6184C16.7156 17.4155 17.7015 16.4367 18.9131 16.4367H21.1324V18.6184Z" fill="#E0E0E0"/>
<path fill-rule="evenodd" clip-rule="evenodd" d="M25.1486 4.94634C26.7695 5.93839 27.7654 7.69327 27.7654 9.59152V11.9459C27.7654 12.5532 28.2613 13.0459 28.8733 13.0459C29.4853 13.0459 29.9812 12.5532 29.9812 11.9459V9.59152C29.9812 6.79599 28.444 4.22303 25.9696 2.87611L22.773 1.13646C22.4607 0.966555 22.1184 0.963936 21.8276 1.08095C21.7274 1.1213 21.6332 1.17587 21.5486 1.24271C21.2997 1.43926 21.1327 1.74189 21.1327 2.10096V14.2367H18.9131C16.4796 14.2367 14.4998 16.2024 14.4998 18.6184C14.4998 20.9902 16.4265 23 18.9353 23C21.3687 23 23.3486 21.0343 23.3486 18.6184V3.95835L24.9046 4.8054C24.9874 4.85048 25.0688 4.89749 25.1486 4.94634ZM18.9131 20.8C20.1875 20.8 21.1324 19.7891 21.1324 18.6184V16.4367H18.9131C17.7015 16.4367 16.7156 17.4155 16.7156 18.6184C16.7156 19.8212 17.7015 20.8 18.9131 20.8Z" fill="#E0E0E0"/>
<path d="M1.50024 11H16.0002" stroke="#E0E0E0" stroke-width="2" stroke-linecap="round"/>
<path d="M1.50024 18H11.5002" stroke="#E0E0E0" stroke-width="2" stroke-linecap="round"/>
<path d="M10.5 4.00049H16" stroke="#E0E0E0" stroke-width="2" stroke-linecap="round"/>
</svg>
