<svg width="32" height="32" viewBox="0 0 32 32" fill="none" xmlns="http://www.w3.org/2000/svg">
<path fill-rule="evenodd" clip-rule="evenodd" d="M2.66663 14.9973C2.66663 18.8533 4.58129 22.296 7.57729 24.5573V29.3L12.0533 26.7787C13.3369 27.1443 14.6653 27.3292 16 27.328C23.364 27.328 29.3333 21.8067 29.3333 14.9973C29.3333 8.18666 23.364 2.66666 16 2.66666C8.63596 2.66666 2.66663 8.18666 2.66663 14.9973ZM16 9.33333C16.6627 9.33333 17.2 9.87059 17.2 10.5333V14.1333H20.8C21.4627 14.1333 22 14.6706 22 15.3333C22 15.9961 21.4627 16.5333 20.8 16.5333H17.2V20.1333C17.2 20.7961 16.6627 21.3333 16 21.3333C15.3372 21.3333 14.8 20.7961 14.8 20.1333V16.5333H11.2C10.5372 16.5333 9.99996 15.9961 9.99996 15.3333C9.99996 14.6706 10.5372 14.1333 11.2 14.1333H14.8V10.5333C14.8 9.87059 15.3372 9.33333 16 9.33333Z" fill="#212121"/>
</svg>
