<svg width="26" height="26" viewBox="0 0 26 26" fill="none" xmlns="http://www.w3.org/2000/svg">
<path d="M24.7516 10.5594C24.9145 11.3475 25 12.1637 25 13C25 19.6274 19.6274 25 13 25C6.37258 25 1 19.6274 1 13C1 6.37258 6.37258 1 13 1C17.4664 1 21.3629 3.44011 23.4291 7.05996" stroke="#E0E0E0" stroke-width="2" stroke-linecap="round"/>
<path d="M9.67337 15.2224C9.24804 14.5869 9 13.8226 9 13.0005C9 10.7913 10.7909 9.00049 13 9.00049C15.2091 9.00049 17 10.7913 17 13.0005C17 15.2096 15.2091 17.0005 13 17.0005C12.7915 17.0005 12.5868 16.9845 12.3869 16.9538" stroke="#E0E0E0" stroke-width="2" stroke-linecap="round"/>
</svg>
