<svg width="32" height="32" viewBox="0 0 32 32" fill="none" xmlns="http://www.w3.org/2000/svg">
<path d="M13.721 5.1467L2.42767 24C2.19483 24.4033 2.07163 24.8604 2.07032 25.3261C2.06902 25.7917 2.18966 26.2495 2.42024 26.6541C2.65082 27.0586 2.98331 27.3957 3.38461 27.6318C3.78592 27.868 4.24207 27.9949 4.70767 28H27.2943C27.7599 27.9949 28.2161 27.868 28.6174 27.6318C29.0187 27.3957 29.3512 27.0586 29.5818 26.6541C29.8124 26.2495 29.933 25.7917 29.9317 25.3261C29.9304 24.8604 29.8072 24.4033 29.5743 24L18.281 5.1467C18.0433 4.75484 17.7086 4.43085 17.3093 4.20601C16.9099 3.98116 16.4593 3.86304 16.001 3.86304C15.5427 3.86304 15.0921 3.98116 14.6927 4.20601C14.2934 4.43085 13.9587 4.75484 13.721 5.1467V5.1467Z" stroke="#EB5757" stroke-width="2" stroke-linecap="round" stroke-linejoin="round"/>
<path d="M16 12V17.3333" stroke="#EB5757" stroke-width="2" stroke-linecap="round" stroke-linejoin="round"/>
<path d="M16 22.6667H16.0133" stroke="#EB5757" stroke-width="2" stroke-linecap="round" stroke-linejoin="round"/>
</svg>
