<svg width="22" height="22" viewBox="0 0 22 22" fill="none" xmlns="http://www.w3.org/2000/svg">
<path d="M9.43252 3.19825L1.66835 16.1599C1.50827 16.4371 1.42357 16.7514 1.42268 17.0716C1.42178 17.3917 1.50472 17.7064 1.66324 17.9846C1.82177 18.2627 2.05035 18.4944 2.32625 18.6568C2.60215 18.8191 2.91575 18.9064 3.23585 18.9099H18.7642C19.0843 18.9064 19.3979 18.8191 19.6738 18.6568C19.9497 18.4944 20.1783 18.2627 20.3368 17.9846C20.4953 17.7064 20.5783 17.3917 20.5774 17.0716C20.5765 16.7514 20.4918 16.4371 20.3317 16.1599L12.5675 3.19825C12.4041 2.92885 12.174 2.70611 11.8994 2.55153C11.6249 2.39694 11.3151 2.31573 11 2.31573C10.6849 2.31573 10.3752 2.39694 10.1006 2.55153C9.82602 2.70611 9.59593 2.92885 9.43252 3.19825V3.19825Z" stroke="#E0E0E0" stroke-width="1.7" stroke-linecap="round" stroke-linejoin="round"/>
<path d="M11 8.25V11.9167" stroke="#E0E0E0" stroke-width="1.7" stroke-linecap="round" stroke-linejoin="round"/>
<path d="M11 15.5833H11.0088" stroke="#E0E0E0" stroke-width="1.7" stroke-linecap="round" stroke-linejoin="round"/>
</svg>
