<svg width="19" height="24" viewBox="0 0 19 24" fill="none" xmlns="http://www.w3.org/2000/svg">
<path d="M13.996 0.613525C14.049 0.613525 14.102 0.613525 14.158 0.613525C14.288 2.21953 13.675 3.41953 12.93 4.28853C12.199 5.15153 11.198 5.98853 9.57897 5.86153C9.47097 4.27853 10.085 3.16753 10.829 2.30053C11.519 1.49253 12.784 0.773525 13.996 0.613525Z" fill="white"/>
<path d="M18.897 17.3295C18.897 17.3455 18.897 17.3595 18.897 17.3745C18.442 18.7525 17.793 19.9335 17.001 21.0295C16.278 22.0245 15.392 23.3635 13.81 23.3635C12.443 23.3635 11.535 22.4845 10.134 22.4605C8.65199 22.4365 7.83699 23.1955 6.48199 23.3865C6.32699 23.3865 6.17199 23.3865 6.01999 23.3865C5.02499 23.2425 4.22199 22.4545 3.63699 21.7445C1.91199 19.6465 0.578994 16.9365 0.330994 13.4685C0.330994 13.1285 0.330994 12.7895 0.330994 12.4495C0.435994 9.96748 1.64199 7.94948 3.24499 6.97148C4.09099 6.45148 5.25399 6.00848 6.54899 6.20648C7.10399 6.29248 7.67099 6.48248 8.16799 6.67048C8.63899 6.85148 9.22799 7.17248 9.78599 7.15548C10.164 7.14448 10.54 6.94748 10.921 6.80848C12.037 6.40548 13.131 5.94348 14.573 6.16048C16.306 6.42248 17.536 7.19248 18.296 8.38048C16.83 9.31348 15.671 10.7195 15.869 13.1205C16.045 15.3015 17.313 16.5775 18.897 17.3295Z" fill="white"/>
</svg>
