<svg width="38" height="46" viewBox="0 0 38 46" fill="none" xmlns="http://www.w3.org/2000/svg">
<path d="M27.6023 0C27.7094 0 27.8164 0 27.9296 0C28.1921 3.24402 26.9539 5.66794 25.4491 7.42326C23.9725 9.16647 21.9505 10.8572 18.6803 10.6006C18.4621 7.40307 19.7024 5.15892 21.2052 3.40763C22.5989 1.77552 25.1542 0.32319 27.6023 0Z" fill="#828282"/>
<path d="M37.5021 33.7652C37.5021 33.7976 37.5021 33.8258 37.5021 33.8561C36.5831 36.6396 35.2721 39.0252 33.6723 41.239C32.2119 43.2488 30.4223 45.9535 27.2267 45.9535C24.4655 45.9535 22.6314 44.178 19.8014 44.1295C16.8079 44.0811 15.1616 45.6142 12.4246 46C12.1115 46 11.7984 46 11.4914 46C9.48158 45.7091 7.85957 44.1174 6.67791 42.6833C3.19352 38.4454 0.500944 32.9714 0 25.9663C0 25.2795 0 24.5947 0 23.908C0.212093 18.8945 2.64814 14.8183 5.88609 12.8428C7.59496 11.7924 9.94414 10.8976 12.56 11.2975C13.681 11.4712 14.8263 11.855 15.8302 12.2348C16.7816 12.6004 17.9714 13.2488 19.0985 13.2144C19.862 13.1922 20.6215 12.7943 21.3911 12.5135C23.6454 11.6995 25.8552 10.7663 28.7679 11.2046C32.2685 11.7338 34.753 13.2892 36.2881 15.6888C33.3269 17.5734 30.9858 20.4135 31.3858 25.2633C31.7413 29.6688 34.3026 32.2463 37.5021 33.7652Z" fill="#828282"/>
</svg>
