<svg width="18" height="33" viewBox="0 0 18 33" fill="none" xmlns="http://www.w3.org/2000/svg">
<path d="M15.7019 19.7528H12.2281V11.8432C12.2281 11.489 11.941 11.2018 11.5868 11.2018C11.2326 11.2018 10.9455 11.489 10.9455 11.8432V16.2683H9.4063V1.28265H10.9455V6.07124C10.9455 6.42544 11.2326 6.71256 11.5868 6.71256C11.941 6.71256 12.2281 6.42544 12.2281 6.07124V0.641326C12.2281 0.287122 11.941 0 11.5868 0H8.76497C8.41077 0 8.12365 0.287122 8.12365 0.641326V19.7528H4.64991C3.38271 19.7528 2.35172 20.7838 2.35172 22.051V23.7413C2.35172 26.6206 1.57071 29.4286 0.0931611 31.8616C-0.0270874 32.0597 -0.0311919 32.3071 0.0823869 32.5091C0.195966 32.7109 0.409655 32.8359 0.641302 32.8359H15.007C15.2311 32.8359 15.4389 32.719 15.5551 32.5274C17.1546 29.8936 18 26.8554 18 23.7413V22.051C18.0001 20.7838 16.9691 19.7528 15.7019 19.7528ZM9.4063 17.551H10.9455V19.7528H9.4063V17.551ZM4.64991 21.0355H15.7019C16.2618 21.0355 16.7174 21.491 16.7174 22.051V23.0957H3.63437V22.051C3.63437 21.491 4.0899 21.0355 4.64991 21.0355ZM14.6412 31.5532H11.3133C11.8612 30.4953 12.2988 29.3718 12.618 28.2002C12.7111 27.8584 12.5095 27.5059 12.1678 27.4128C11.8258 27.3196 11.4735 27.5213 11.3804 27.863C11.0249 29.1681 10.511 30.4076 9.85196 31.5532H6.5247C7.07258 30.4954 7.51022 29.3719 7.82941 28.2002C7.92253 27.8584 7.72096 27.5059 7.3792 27.4128C7.03731 27.3196 6.6849 27.5213 6.59184 27.863C6.23636 29.1681 5.72246 30.4076 5.06344 31.5532H1.73726C2.88402 29.3441 3.52849 26.8957 3.62238 24.3826H16.7044C16.6022 26.9159 15.895 29.376 14.6412 31.5532Z" fill="#E0E0E0"/>
<path d="M11.5868 8.31641C11.4181 8.31641 11.2526 8.38439 11.1333 8.50432C11.0141 8.6236 10.9454 8.78842 10.9454 8.95773C10.9454 9.1264 11.0141 9.29186 11.1333 9.41115C11.2526 9.53044 11.4181 9.59906 11.5868 9.59906C11.7554 9.59906 11.9209 9.53044 12.0402 9.41115C12.1595 9.29186 12.2281 9.1264 12.2281 8.95773C12.2281 8.78842 12.1595 8.6236 12.0402 8.50432C11.9209 8.38439 11.7554 8.31641 11.5868 8.31641Z" fill="#E0E0E0"/>
</svg>
