<svg width="9" height="9" viewBox="0 0 9 9" fill="none" xmlns="http://www.w3.org/2000/svg">
<path d="M6.06221 4.63412H5.38475V3.07065C5.38475 3.00064 5.32876 2.94388 5.25968 2.94388C5.1906 2.94388 5.13461 3.00064 5.13461 3.07065V3.94535H4.83443V1.37854H5.13461V1.92974C5.13461 1.99976 5.1906 2.05651 5.25968 2.05651C5.32876 2.05651 5.38475 1.99976 5.38475 1.92974V1.25177C5.38475 1.18175 5.32876 1.125 5.25968 1.125H4.70936C4.64028 1.125 4.58429 1.18175 4.58429 1.25177V4.63412H3.90683C3.6597 4.63412 3.45864 4.83791 3.45864 5.08839V5.4225C3.45864 5.99163 3.30632 6.54667 3.01817 7.0276C2.99472 7.06675 2.99392 7.11566 3.01607 7.15558C3.03822 7.19548 3.07989 7.22018 3.12507 7.22018H5.92669C5.97039 7.22018 6.01092 7.19707 6.03359 7.1592C6.34552 6.63859 6.51039 6.03805 6.51039 5.4225V5.08839C6.51041 4.83791 6.30935 4.63412 6.06221 4.63412ZM4.83443 4.19888H5.13461V4.63412H4.83443V4.19888ZM3.90683 4.88765H6.06221C6.17141 4.88765 6.26026 4.97769 6.26026 5.08839V5.29489H3.70878V5.08839C3.70878 4.97769 3.79762 4.88765 3.90683 4.88765ZM5.85536 6.96664H5.20634C5.31319 6.75752 5.39854 6.53545 5.46079 6.30386C5.47895 6.23631 5.43964 6.16664 5.37298 6.14823C5.3063 6.1298 5.23759 6.16968 5.21943 6.23722C5.15011 6.49518 5.04988 6.74018 4.92135 6.96664H4.27246C4.37931 6.75754 4.46466 6.53547 4.52691 6.30386C4.54507 6.23631 4.50576 6.16664 4.43911 6.14823C4.37243 6.1298 4.3037 6.16966 4.28555 6.23722C4.21623 6.49519 4.11601 6.7402 3.98748 6.96664H3.3388C3.56245 6.52998 3.68813 6.04602 3.70644 5.54926H6.25772C6.23779 6.05001 6.09988 6.53628 5.85536 6.96664Z" fill="#E0E0E0"/>
<path d="M5.25966 2.37354C5.22676 2.37354 5.19449 2.38697 5.17123 2.41068C5.14797 2.43426 5.13458 2.46684 5.13458 2.5003C5.13458 2.53364 5.14797 2.56635 5.17123 2.58993C5.19449 2.61351 5.22676 2.62707 5.25966 2.62707C5.29255 2.62707 5.32482 2.61351 5.34808 2.58993C5.37134 2.56635 5.38473 2.53364 5.38473 2.5003C5.38473 2.46684 5.37134 2.43426 5.34808 2.41068C5.32482 2.38697 5.29255 2.37354 5.25966 2.37354Z" fill="#E0E0E0"/>
</svg>
