<svg width="20" height="22" viewBox="0 0 20 22" fill="none" xmlns="http://www.w3.org/2000/svg">
<path d="M14 3.16699H16C16.5304 3.16699 17.0391 3.37771 17.4142 3.75278C17.7893 4.12785 18 4.63656 18 5.16699V19.167C18 19.6974 17.7893 20.2061 17.4142 20.5812C17.0391 20.9563 16.5304 21.167 16 21.167H4C3.46957 21.167 2.96086 20.9563 2.58579 20.5812C2.21071 20.2061 2 19.6974 2 19.167V5.16699C2 4.63656 2.21071 4.12785 2.58579 3.75278C2.96086 3.37771 3.46957 3.16699 4 3.16699H6" stroke="white" stroke-linecap="round" stroke-linejoin="round"/>
<path d="M13 1.16699H7C6.44772 1.16699 6 1.61471 6 2.16699V4.16699C6 4.71928 6.44772 5.16699 7 5.16699H13C13.5523 5.16699 14 4.71928 14 4.16699V2.16699C14 1.61471 13.5523 1.16699 13 1.16699Z" stroke="white" stroke-linecap="round" stroke-linejoin="round"/>
</svg>
