<svg width="33" height="33" viewBox="0 0 33 33" fill="none" xmlns="http://www.w3.org/2000/svg">
<path d="M30.3687 23.7615C31.1971 23.7615 31.8687 23.0899 31.8687 22.2615C31.8687 21.433 31.1971 20.7615 30.3687 20.7615C29.5403 20.7615 28.8687 21.433 28.8687 22.2615C28.8687 23.0899 29.5403 23.7615 30.3687 23.7615Z" fill="#F2C94C"/>
<path d="M27.0972 28.593C27.9257 28.593 28.5972 27.9214 28.5972 27.093C28.5972 26.2646 27.9257 25.593 27.0972 25.593C26.2688 25.593 25.5972 26.2646 25.5972 27.093C25.5972 27.9214 26.2688 28.593 27.0972 28.593Z" fill="#F2C94C"/>
<path d="M31.4967 18.006C32.3251 18.006 32.9967 17.3344 32.9967 16.506C32.9967 15.6776 32.3251 15.006 31.4967 15.006C30.6683 15.006 29.9967 15.6776 29.9967 16.506C29.9967 17.3344 30.6683 18.006 31.4967 18.006Z" fill="#F2C94C"/>
<path d="M22.2387 31.8706C23.0671 31.8706 23.7387 31.199 23.7387 30.3706C23.7387 29.5422 23.0671 28.8706 22.2387 28.8706C21.4103 28.8706 20.7387 29.5422 20.7387 30.3706C20.7387 31.199 21.4103 31.8706 22.2387 31.8706Z" fill="#F2C94C"/>
<path d="M16.5012 30C14.3408 30.0026 12.2113 29.4867 10.2916 28.4956C8.37197 27.5044 6.71821 26.0671 5.46929 24.3042C4.22038 22.5414 3.41278 20.5045 3.11436 18.3648C2.81593 16.2251 3.0354 14.045 3.75431 12.0077C4.47322 9.97039 5.67059 8.13538 7.24581 6.65682C8.82103 5.17827 10.7281 4.09936 12.8068 3.51074C14.8855 2.92212 17.0751 2.84098 19.1916 3.27413C21.3082 3.70729 23.2899 4.64209 24.9702 6H22.5012C22.1034 6 21.7219 6.15804 21.4406 6.43934C21.1592 6.72065 21.0012 7.10218 21.0012 7.5C21.0012 7.89783 21.1592 8.27936 21.4406 8.56066C21.7219 8.84197 22.1034 9 22.5012 9H28.5012C28.899 9 29.2806 8.84197 29.5619 8.56066C29.8432 8.27936 30.0012 7.89783 30.0012 7.5V1.5C30.0012 1.10218 29.8432 0.720644 29.5619 0.43934C29.2806 0.158035 28.899 0 28.5012 0C28.1034 0 27.7219 0.158035 27.4406 0.43934C27.1592 0.720644 27.0012 1.10218 27.0012 1.5V3.7965C24.9614 2.11012 22.5457 0.939406 19.9582 0.38325C17.3707 -0.172906 14.6873 -0.098171 12.1347 0.601144C9.58215 1.30046 7.23537 2.60381 5.2926 4.40111C3.34983 6.19841 1.86814 8.43687 0.972673 10.9274C0.0772094 13.418 -0.205722 16.0874 0.147776 18.7103C0.501275 21.3333 1.48082 23.8326 3.00367 25.9972C4.52653 28.1618 6.54796 29.9281 8.89722 31.147C11.2465 32.3658 13.8546 33.0014 16.5012 33C16.899 33 17.2806 32.842 17.5619 32.5607C17.8432 32.2794 18.0012 31.8978 18.0012 31.5C18.0012 31.1022 17.8432 30.7206 17.5619 30.4393C17.2806 30.158 16.899 30 16.5012 30Z" fill="#F2C94C"/>
<path d="M22.0617 22.0605C22.3429 21.7792 22.5009 21.3977 22.5009 21C22.5009 20.6023 22.3429 20.2208 22.0617 19.9395L18.0012 15.879V7.5C18.0012 7.10218 17.8432 6.72064 17.5619 6.43934C17.2806 6.15804 16.899 6 16.5012 6C16.1034 6 15.7219 6.15804 15.4406 6.43934C15.1593 6.72064 15.0012 7.10218 15.0012 7.5V16.5C15.0013 16.8978 15.1594 17.2793 15.4407 17.5605L19.9407 22.0605C20.222 22.3417 20.6035 22.4997 21.0012 22.4997C21.399 22.4997 21.7804 22.3417 22.0617 22.0605Z" fill="#F2C94C"/>
</svg>
