<svg width="19" height="16" viewBox="0 0 19 16" fill="none" xmlns="http://www.w3.org/2000/svg">
<path d="M17.2507 2.76262L12.9262 5.83176L10.0428 1.22696L10.0428 1.22695C9.93492 1.05485 9.75245 0.95 9.55549 0.95C9.35853 0.95 9.17605 1.05485 9.06821 1.22695L9.0682 1.22696L6.18453 5.83154L1.86026 2.76262C1.66377 2.62317 1.40753 2.62267 1.21057 2.76141L1.21054 2.76142C1.01443 2.89972 0.916836 3.14831 0.960155 3.39164C0.960156 3.39164 0.960156 3.39165 0.960157 3.39165L2.5289 12.2117V14.431C2.5289 14.7698 2.78778 15.05 3.11364 15.05H15.947C16.2729 15.05 16.5317 14.7698 16.5317 14.431V12.2136L18.1504 3.39525C18.195 3.15165 18.0981 2.90186 17.9018 2.76261C17.7048 2.62291 17.4477 2.62291 17.2507 2.76261L17.2797 2.8034L17.2507 2.76262ZM6.02155 7.20701L6.02157 7.20702C6.29185 7.39868 6.65602 7.31971 6.83439 7.03489L9.55549 2.68969L12.2766 7.03489C12.4549 7.3197 12.8191 7.3987 13.0892 7.20701L16.7341 4.62026L15.465 11.5347H11.99C11.6641 11.5347 11.4052 11.8149 11.4052 12.1539C11.4052 12.493 11.6641 12.7732 11.99 12.7732H15.3623V13.8117H3.69837V12.7732H7.1776C7.50347 12.7732 7.76233 12.493 7.76233 12.1539C7.76233 11.8149 7.50347 11.5347 7.1776 11.5347H3.59856L2.36732 4.61348L6.02155 7.20701ZM9.58375 12.7732C9.90963 12.7732 10.1685 12.493 10.1685 12.1539C10.1685 11.8149 9.90963 11.5347 9.58375 11.5347C9.2581 11.5347 8.99902 11.8149 8.99902 12.1539C8.99902 12.493 9.2581 12.7732 9.58375 12.7732Z" fill="#F2C94C" stroke="#F2C94C" stroke-width="0.1"/>
</svg>
