<svg width="31" height="19" viewBox="0 0 31 19" fill="none" xmlns="http://www.w3.org/2000/svg">
<path d="M28.4372 17.8416H2.87695V18.7679H28.4372V17.8416Z" fill="#F2C94C"/>
<path d="M28.2332 16.9289L30.1719 7.09655H29.6028C29.6028 7.09655 28.6831 12.9126 24.9712 12.2973C21.5702 11.7282 22.5825 6.17021 22.5825 6.17021H21.7885C21.7885 6.17021 21.9804 10.6828 19.1419 10.5174C15.4432 10.3123 16.0122 2.00171 16.0122 2.00171H15.3505C15.3505 2.00171 16.5018 10.1204 12.8031 10.3321C9.93809 10.4909 9.5477 6.17021 9.5477 6.17021H8.76032C8.76032 6.17021 9.78591 11.4106 6.38494 11.9797C2.64652 12.595 1.71357 7.09655 1.71357 7.09655H1.14453L3.08322 16.9289H28.2332Z" fill="#F2C94C"/>
<path d="M17.0041 1.82309C17.0041 2.08482 16.9265 2.34067 16.7811 2.55829C16.6357 2.77591 16.429 2.94553 16.1872 3.04569C15.9454 3.14585 15.6793 3.17206 15.4226 3.121C15.1659 3.06994 14.9301 2.9439 14.745 2.75883C14.5599 2.57376 14.4339 2.33796 14.3828 2.08126C14.3318 1.82456 14.358 1.55848 14.4582 1.31667C14.5583 1.07486 14.7279 0.868187 14.9456 0.722777C15.1632 0.577367 15.419 0.499756 15.6808 0.499756C16.0317 0.499756 16.3683 0.639177 16.6165 0.88735C16.8647 1.13552 17.0041 1.47212 17.0041 1.82309Z" fill="#F2C94C"/>
<path d="M23.1452 5.87904C23.1452 6.05206 23.0938 6.22119 22.9976 6.36496C22.9013 6.50873 22.7645 6.62067 22.6045 6.68657C22.4445 6.75248 22.2686 6.76938 22.099 6.73514C21.9294 6.7009 21.7738 6.61706 21.6519 6.49425C21.53 6.37144 21.4474 6.2152 21.4144 6.04534C21.3815 5.87548 21.3997 5.69967 21.4668 5.5402C21.534 5.38072 21.6469 5.24478 21.7914 5.14961C21.9359 5.05444 22.1054 5.00433 22.2785 5.00564C22.5089 5.00739 22.7294 5.10018 22.8918 5.26378C23.0541 5.42739 23.1452 5.64854 23.1452 5.87904Z" fill="#F2C94C"/>
<path d="M10.03 5.87904C10.03 6.05206 9.97861 6.22119 9.88234 6.36496C9.78608 6.50873 9.64927 6.62067 9.4893 6.68657C9.32932 6.75248 9.15337 6.76938 8.98377 6.73514C8.81416 6.7009 8.65855 6.61706 8.53667 6.49425C8.41479 6.37144 8.33213 6.2152 8.29919 6.04534C8.26624 5.87548 8.28448 5.69967 8.35161 5.5402C8.41873 5.38072 8.5317 5.24478 8.6762 5.14961C8.8207 5.05444 8.9902 5.00433 9.16322 5.00564C9.39371 5.00739 9.61417 5.10018 9.77654 5.26378C9.9389 5.42739 10.03 5.64854 10.03 5.87904Z" fill="#F2C94C"/>
<path d="M30.5359 7.15624C30.5359 7.32898 30.4846 7.49784 30.3887 7.64147C30.2927 7.7851 30.1563 7.89705 29.9967 7.96315C29.8371 8.02926 29.6615 8.04656 29.4921 8.01286C29.3226 7.97915 29.167 7.89597 29.0449 7.77382C28.9227 7.65168 28.8395 7.49605 28.8058 7.32663C28.7721 7.15721 28.7894 6.98159 28.8555 6.822C28.9217 6.66241 29.0336 6.526 29.1772 6.43003C29.3209 6.33406 29.4897 6.28284 29.6625 6.28284C29.8941 6.28284 30.1163 6.37486 30.2801 6.53865C30.4438 6.70244 30.5359 6.9246 30.5359 7.15624Z" fill="#F2C94C"/>
<path d="M1.40856 8.02964C1.89092 8.02964 2.28196 7.6386 2.28196 7.15624C2.28196 6.67387 1.89092 6.28284 1.40856 6.28284C0.926191 6.28284 0.535156 6.67387 0.535156 7.15624C0.535156 7.6386 0.926191 8.02964 1.40856 8.02964Z" fill="#F2C94C"/>
</svg>
