<svg width="90" height="50" viewBox="0 0 90 50" fill="none" xmlns="http://www.w3.org/2000/svg">
<path d="M53.9489 4C41.9124 4 32.1527 13.7597 32.1527 25.7962C32.1527 37.8327 41.9124 47.5924 53.9489 47.5924C65.9854 47.5924 75.7451 37.8327 75.7451 25.7962C75.7451 13.7597 65.9854 4 53.9489 4ZM41.1535 21.2836C41.1535 19.5862 42.2225 18.2112 43.5445 18.2112C44.8664 18.2112 45.9354 19.5862 45.9354 21.2836C45.9354 22.9809 44.8664 24.3559 43.5445 24.3559C42.2266 24.3559 41.1535 22.9809 41.1535 21.2836ZM64.3533 28.3382C63.4189 29.1542 62.3867 29.8519 61.2809 30.4435C59.0695 31.6064 56.5561 32.3204 53.9652 32.4061C52.6718 32.451 51.3661 32.3245 50.0931 32.0633C48.8283 31.7573 47.592 31.3412 46.4577 30.7332C44.1932 29.5214 42.2796 27.7547 41.1372 25.5024C43.5894 26.1267 45.6906 26.7347 47.7634 27.0855C48.7997 27.2488 49.8075 27.3834 50.8112 27.4609C51.815 27.5425 52.8187 27.5466 53.8265 27.5344C55.8421 27.4936 57.8903 27.2447 60.0161 26.8734C62.1582 26.5102 64.3288 26.0125 66.7687 25.4984C66.1363 26.6041 65.2754 27.514 64.3533 28.3382ZM65.4264 24.4375C64.0881 24.4375 63.0028 23.0462 63.0028 21.3244C63.0028 19.6066 64.0881 18.2153 65.4264 18.2153C66.7647 18.2153 67.85 19.6066 67.85 21.3244C67.85 23.0421 66.7647 24.4375 65.4264 24.4375Z" fill="white"/>
<path d="M56.3006 6.35019C44.2641 6.35019 34.5043 16.1099 34.5043 28.1464C34.5043 40.1829 44.2641 49.9426 56.3006 49.9426C68.337 49.9426 78.0968 40.1829 78.0968 28.1464C78.0968 16.1099 68.337 6.35019 56.3006 6.35019ZM42.5912 22.3771C42.5912 20.7287 43.6317 19.3904 44.9169 19.3904C46.2022 19.3904 47.2426 20.7287 47.2426 22.3771C47.2426 24.0254 46.2022 25.3637 44.9169 25.3637C43.6317 25.3637 42.5912 24.0295 42.5912 22.3771ZM66.4724 30.7006C65.5584 31.4962 64.5466 32.1817 63.4694 32.7611C61.3069 33.8994 58.8466 34.5931 56.3128 34.6828C55.0479 34.7277 53.7709 34.6053 52.5264 34.3483C51.2901 34.0504 50.0783 33.6424 48.9685 33.0467C46.753 31.8594 44.8843 30.1334 43.7663 27.9302C46.1614 28.5422 48.2218 29.1338 50.2456 29.4806C51.2575 29.6397 52.2449 29.7744 53.2282 29.8478C54.2115 29.9254 55.1907 29.9294 56.1741 29.9213C58.1448 29.8846 60.1481 29.6357 62.229 29.2766C64.3221 28.9216 66.4479 28.4361 68.8348 27.9342C68.2187 29.0032 67.3782 29.8968 66.4724 30.7006ZM66.7662 25.3637C65.4809 25.3637 64.4405 24.0254 64.4405 22.3771C64.4405 20.7287 65.4809 19.3904 66.7662 19.3904C68.0514 19.3904 69.0919 20.7287 69.0919 22.3771C69.0959 24.0295 68.0514 25.3637 66.7662 25.3637Z" fill="#2F80ED"/>
<path d="M55.1255 5.17511C43.089 5.17511 33.3292 14.9349 33.3292 26.9713C33.3292 39.0078 43.089 48.7675 55.1255 48.7675C67.1619 48.7675 76.9217 39.0078 76.9217 26.9713C76.9217 14.9349 67.1619 5.17511 55.1255 5.17511ZM64.6445 29.5663C63.7917 30.313 62.8451 30.9536 61.8332 31.4921C59.8095 32.5571 57.5083 33.2058 55.1377 33.2874C53.9545 33.3282 52.759 33.214 51.5961 32.9732C50.4374 32.6917 49.3072 32.3123 48.2708 31.7533C46.1981 30.6435 44.4477 29.0277 43.4032 26.9672C45.6432 27.5385 47.569 28.0934 49.4663 28.4157C50.4129 28.5667 51.335 28.6891 52.253 28.7584C53.1711 28.8319 54.0891 28.836 55.0112 28.8278C56.8555 28.7911 58.7282 28.5626 60.6745 28.2239C62.633 27.8934 64.62 27.4365 66.8559 26.9672C66.2765 27.9791 65.4891 28.8115 64.6445 29.5663ZM66.0521 25.3637C64.5139 25.3637 63.2695 23.7643 63.2695 21.7895C63.2695 19.8147 64.5139 18.2153 66.0521 18.2153C67.5904 18.2153 68.8348 19.8147 68.8348 21.7895C68.8348 23.7643 67.5863 25.3637 66.0521 25.3637ZM43.8765 25.3637C42.3382 25.3637 41.0938 23.7643 41.0938 21.7895C41.0938 19.8147 42.3382 18.2153 43.8765 18.2153C45.4147 18.2153 46.6591 19.8147 46.6591 21.7895C46.6591 23.7643 45.4106 25.3637 43.8765 25.3637Z" fill="#F2C94C"/>
<path opacity="0.3" d="M64.6432 29.5662C63.7905 30.3129 62.8439 30.9535 61.832 31.4921C59.8082 32.557 57.507 33.2057 55.1364 33.2873C53.9532 33.3282 52.7577 33.2139 51.5949 32.9732C50.4361 32.6916 49.3059 32.3122 48.2695 31.7532C46.1968 30.6434 44.4464 29.0277 43.4019 26.9672C45.6419 27.5384 47.5677 28.0933 49.465 28.4156C50.4116 28.5666 51.3337 28.689 52.2518 28.7584C53.1698 28.8318 54.0878 28.8359 55.01 28.8277C56.8542 28.791 58.727 28.5625 60.6732 28.2239C62.6317 27.8934 64.6187 27.4364 66.8547 26.9672C66.2753 27.9791 65.4878 28.8114 64.6432 29.5662Z" fill="#2E0101"/>
<path opacity="0.3" d="M66.0512 25.3637C64.513 25.3637 63.2685 23.7643 63.2685 21.7895C63.2685 19.8147 64.513 18.2153 66.0512 18.2153C67.5894 18.2153 68.8339 19.8147 68.8339 21.7895C68.8339 23.7643 67.5853 25.3637 66.0512 25.3637Z" fill="#2E0101"/>
<path opacity="0.3" d="M43.8757 25.3638C42.3375 25.3638 41.0931 23.7643 41.0931 21.7895C41.0931 19.8147 42.3375 18.2153 43.8757 18.2153C45.414 18.2153 46.6584 19.8147 46.6584 21.7895C46.6584 23.7643 45.4099 25.3638 43.8757 25.3638Z" fill="#2E0101"/>
<path d="M53.0261 4.58759H39.1087" stroke="white" stroke-width="2" stroke-miterlimit="10"/>
<path d="M74.8775 48.7676H60.9641" stroke="#2F80ED" stroke-width="2" stroke-miterlimit="10"/>
<path d="M49.2854 7.99858H35.372" stroke="#F2C94C" stroke-width="2" stroke-miterlimit="10"/>
<path d="M54.1983 43.9776H40.285" stroke="white" stroke-width="2" stroke-miterlimit="10"/>
<path d="M49.9827 46.4869H36.0653" stroke="#F2C94C" stroke-width="2" stroke-miterlimit="10"/>
<path d="M45.133 14.8615H31.2197" stroke="white" stroke-width="2" stroke-miterlimit="10"/>
<path d="M40.9174 17.3708H27" stroke="#F2C94C" stroke-width="2" stroke-miterlimit="10"/>
<path d="M71.938 46.4869H58.0246" stroke="#F2C94C" stroke-width="2" stroke-miterlimit="10"/>
<path d="M84.77 32.447H70.8525" stroke="#2F80ED" stroke-width="2" stroke-miterlimit="10"/>
<path d="M81.8347 30.1701H67.9213" stroke="#F2C94C" stroke-width="2" stroke-miterlimit="10"/>
<path d="M30.6882 22.9526C27.629 22.9526 25.08 25.099 24.5 27.9471C23.92 25.099 21.371 22.9526 18.3118 22.9526C14.8261 22.9526 12 25.7398 12 29.1776C12 30.7048 12.558 32.1023 13.4828 33.1853C13.4848 33.1873 13.4848 33.1893 13.4868 33.1912L13.4947 33.1991C13.7359 33.4802 14.0029 33.7416 14.2899 33.9774L24.5 43.9526L34.7101 33.9774C34.999 33.7416 35.2641 33.4821 35.5053 33.1991L35.5132 33.1912C35.5152 33.1893 35.5152 33.1873 35.5172 33.1853C36.442 32.1023 37 30.7048 37 29.1776C37.002 25.7398 34.1759 22.9526 30.6882 22.9526Z" fill="url(#paint0_linear_41_11)"/>
<path d="M85.203 0C82.878 0 80.9408 1.63534 80.5 3.80532C80.0592 1.63534 78.122 0 75.797 0C73.1478 0 71 2.12355 71 4.74279C71 5.9064 71.4241 6.97117 72.1269 7.79633C72.1284 7.79783 72.1284 7.79933 72.1299 7.80083L72.136 7.80681C72.3193 8.02096 72.5222 8.22014 72.7404 8.39985L80.5 16L88.2596 8.39985C88.4793 8.22014 88.6807 8.02246 88.864 7.80681L88.8701 7.80083C88.8716 7.79933 88.8716 7.79783 88.8731 7.79633C89.5759 6.97117 90 5.9064 90 4.74279C90.0015 2.12355 87.8537 0 85.203 0Z" fill="url(#paint1_linear_41_11)"/>
<path d="M10.4654 2C8.75223 2 7.32478 3.22651 7 4.85399C6.67522 3.22651 5.24777 2 3.5346 2C1.58259 2 0 3.59266 0 5.5571C0 6.4298 0.3125 7.22838 0.830357 7.84725C0.831473 7.84837 0.831473 7.8495 0.832589 7.85062L0.837054 7.85511C0.972098 8.01572 1.12165 8.16511 1.28237 8.29989L7 14L12.7176 8.29989C12.8795 8.16511 13.0279 8.01685 13.1629 7.85511L13.1674 7.85062C13.1685 7.8495 13.1685 7.84837 13.1696 7.84725C13.6875 7.22838 14 6.4298 14 5.5571C14.0011 3.59266 12.4185 2 10.4654 2Z" fill="url(#paint2_linear_41_11)"/>
<defs>
<linearGradient id="paint0_linear_41_11" x1="24.5" y1="22.9526" x2="24.5" y2="43.9526" gradientUnits="userSpaceOnUse">
<stop stop-color="#B73636"/>
<stop offset="1" stop-color="#881F5E"/>
</linearGradient>
<linearGradient id="paint1_linear_41_11" x1="80.5" y1="0" x2="80.5" y2="16" gradientUnits="userSpaceOnUse">
<stop stop-color="#B73636"/>
<stop offset="1" stop-color="#881F5E"/>
</linearGradient>
<linearGradient id="paint2_linear_41_11" x1="7" y1="2" x2="7" y2="14" gradientUnits="userSpaceOnUse">
<stop stop-color="#B73636"/>
<stop offset="1" stop-color="#881F5E"/>
</linearGradient>
</defs>
</svg>
