<svg width="64" height="47" viewBox="0 0 64 47" fill="none" xmlns="http://www.w3.org/2000/svg">
<path d="M31.267 0C19.3162 0 9.62596 9.69026 9.62596 21.641C9.62596 25.1858 10.4848 28.532 11.9999 31.4852C11.2181 35.0057 10.8008 37.4282 11.3801 39.6644C11.6353 40.657 12.324 43.1808 13.1707 44.384C14.309 46.0044 17.1813 46.0247 21.755 44.7081C24.1735 44.0113 25.9519 43.9303 26.8391 42.8243C28.2692 43.1241 29.7478 43.2821 31.267 43.2821C43.2178 43.2821 52.9081 33.5918 52.9081 21.641C52.9081 9.69026 43.2178 0 31.267 0ZM16.5939 8.13464C17.1124 7.34467 17.9834 6.77751 18.9152 6.57496C19.8469 6.3562 20.8232 6.47367 21.6375 6.85043C22.4558 7.22313 23.1202 7.83485 23.5172 8.5843C22.6989 8.34529 21.9738 8.16704 21.281 8.11032C20.5923 8.05361 19.9482 8.11033 19.3608 8.28453C18.7734 8.46683 18.2386 8.7342 17.7241 9.13121C17.1975 9.52416 16.7154 10.0427 16.1361 10.7233C15.8849 9.86851 16.0794 8.92055 16.5939 8.13464ZM22.8569 16.4961C22.8569 18.4569 21.6213 20.0449 20.094 20.0449C18.5668 20.0449 17.3312 18.4569 17.3312 16.4961C17.3312 14.5354 18.5668 12.9474 20.094 12.9474C21.6213 12.9474 22.8569 14.5354 22.8569 16.4961ZM31.267 43.2821C32.499 45.1552 29.2963 44.1317 26.831 42.5C26.2963 40.1317 26.6366 34.0901 26.6366 34.0901C26.6366 34.0901 31.4276 34.7228 32.331 34.5C32.9063 36.2136 34.999 43.6552 31.267 43.2821ZM34.7793 30.1443C35.331 32.5 32.8909 33.6798 33.831 30.5C33.4178 28.28 30.331 33.5 30.331 33.5C30.331 33.5 21.4191 34.1354 19.831 34.5C18.243 34.8646 16.5048 32.9923 16.5048 27.1951C16.5048 25.7367 16.209 24.7523 15.7715 24.096C15.2894 23.3749 14.4711 23.2574 13.8027 23.5248C13.8837 22.0381 15.9619 21.2805 16.8694 22.6336C17.3109 23.2898 19.331 24.0416 19.331 25.5C19.331 31.2971 20.0454 30.1889 21.6294 29.8202C23.2174 29.4556 31.028 27.503 31.028 27.503C31.028 27.503 37.9178 27.28 38.331 29.5C38.4526 30.1563 37.331 34 34.7793 30.1443ZM37.831 28.5C37.6668 30.1921 36.1656 27.1985 35.331 27C34.5006 26.8015 29.6737 27.1337 28.831 27C27.1417 26.7407 27.65 26.5405 25.831 26.5C23.9999 26.4514 23.023 24.7199 20.9205 24.7361C21.5767 24.0474 22.4032 23.5289 23.2782 23.0792C24.1573 22.6376 25.1053 22.2892 26.0978 22.03C28.0828 21.5236 30.2704 21.3777 32.4459 21.6816C33.5316 21.8314 34.6092 22.1069 35.6422 22.4715C36.6631 22.8645 37.6475 23.3344 38.5226 23.9259C40.2686 25.1007 44.6464 29.7499 45.331 31.5C43.3581 30.71 39.5204 29.0428 37.831 28.5ZM42.1118 20.049C40.5846 20.049 39.349 18.4609 39.349 16.5002C39.349 14.5394 40.5846 12.9514 42.1118 12.9514C43.6391 12.9514 44.8747 14.5394 44.8747 16.5002C44.8788 18.4569 43.6391 20.049 42.1118 20.049ZM43.9024 11.4606C43.2867 11.2499 42.6912 11.1689 42.0794 11.1851C41.4677 11.2094 40.8398 11.3634 40.2038 11.6348C39.5677 11.9103 38.9358 12.3113 38.239 12.8015C38.3727 11.9629 38.8061 11.1689 39.4584 10.5531C40.1065 9.93333 40.9978 9.50796 41.9498 9.41478C42.8978 9.30945 43.9065 9.56872 44.6478 10.148C45.3892 10.7273 45.8794 11.5619 45.9158 12.4531C45.1502 12.0034 44.5304 11.6632 43.9024 11.4606Z" fill="white"/>
<path d="M33.701 2.50357C21.7503 2.50357 12.06 12.1938 12.06 24.1446C12.06 28.1228 13.1376 31.8458 15.0092 35.0462C15.2239 33.8794 15.5115 32.5831 15.8478 31.1044C16.1071 29.9539 16.5689 28.2038 16.2529 26.4173C15.945 24.6794 18.3149 23.6666 19.2993 25.1331C19.7409 25.7894 20.0326 26.7738 20.0326 28.2322C20.0326 34.0293 22.4754 32.6884 24.0594 32.3198C25.6474 31.9552 33.458 30.0025 33.458 30.0025C33.458 30.0025 37.8858 28.6373 38.2991 30.8573C38.7852 33.4824 30.1644 35.1312 30.1644 35.1312C30.1644 35.1312 32.5546 40.3612 30.529 43.6345C30.0469 44.4164 29.2084 44.7526 28.0781 45.0484C29.8687 45.5305 31.7525 45.7897 33.697 45.7897C45.6478 45.7897 55.3381 36.0995 55.3381 24.1487C55.3421 12.1938 45.6518 2.50357 33.701 2.50357ZM18.5701 13.2309C18.319 12.3761 18.5175 11.4282 19.032 10.6423C19.5505 9.85229 20.4215 9.28514 21.3533 9.08258C22.285 8.86382 23.2613 8.9813 24.0756 9.35805C24.8939 9.73076 25.5583 10.3425 25.9553 11.0919C25.137 10.8529 24.4118 10.6747 23.7191 10.618C23.0304 10.5612 22.3863 10.618 21.7989 10.7922C21.2115 10.9745 20.6767 11.2418 20.1622 11.6388C19.6275 12.0318 19.1495 12.5544 18.5701 13.2309ZM19.7693 18.9997C19.7693 17.039 21.0049 15.4509 22.5321 15.4509C24.0594 15.4509 25.295 17.039 25.295 18.9997C25.295 20.9604 24.0594 22.5485 22.5321 22.5485C21.0049 22.5525 19.7693 20.9604 19.7693 18.9997ZM39.4334 28.8115C38.5867 28.5482 37.7643 28.3132 36.9298 28.1147C36.0993 27.9162 35.2648 27.7704 34.4181 27.6367C32.7288 27.3774 30.9868 27.268 29.1678 27.2275C27.3367 27.1789 25.4611 27.2235 23.3585 27.2397C24.0148 26.551 24.8413 26.0324 25.7163 25.5828C26.5954 25.1412 27.5433 24.7928 28.5359 24.5335C30.5209 24.0271 32.7085 23.8813 34.884 24.1851C35.9697 24.335 37.0473 24.6105 38.0803 24.9751C39.1012 25.3681 40.0856 25.838 40.9606 26.4294C42.7067 27.6043 44.0962 29.1194 44.7808 30.8695C42.8079 30.0795 41.1186 29.3543 39.4334 28.8115ZM44.5499 22.5525C43.0227 22.5525 41.7871 20.9645 41.7871 19.0038C41.7871 17.043 43.0227 15.455 44.5499 15.455C46.0772 15.455 47.3128 17.043 47.3128 19.0038C47.3128 20.9604 46.0772 22.5525 44.5499 22.5525ZM46.3405 13.9682C45.7248 13.7576 45.1292 13.6765 44.5175 13.6927C43.9058 13.7171 43.2779 13.871 42.6419 14.1424C42.0058 14.4179 41.3739 14.819 40.6771 15.3091C40.8107 14.4706 41.2442 13.6765 41.8964 13.0608C42.5446 12.441 43.4359 12.0156 44.3879 11.9224C45.3358 11.8171 46.3446 12.0764 47.0859 12.6557C47.8273 13.235 48.3175 14.0695 48.3539 14.9607C47.5883 14.507 46.9684 14.1667 46.3405 13.9682Z" fill="#2F80ED"/>
<path d="M32.603 1.33688C20.6523 1.33688 10.962 11.0272 10.962 22.9779C10.962 26.9561 12.0396 30.6791 13.9112 33.8795C14.1259 32.7128 14.4135 31.4164 14.7498 29.9378C15.0091 28.7872 15.4709 27.0372 15.1549 25.2506C14.847 23.5127 17.2169 22.4999 18.2013 23.9664C18.6429 24.6227 18.9346 25.6071 18.9346 27.0655C18.9346 32.8626 21.3774 31.5217 22.9614 31.1531C24.5494 30.7885 32.36 28.8359 32.36 28.8359C32.36 28.8359 36.7878 27.4706 37.2011 29.6906C37.6872 32.3158 29.0664 33.9605 29.0664 33.9605C29.0664 33.9605 31.4566 39.1905 29.431 42.4638C28.9489 43.2457 28.1104 43.5819 26.9801 43.8776C28.7707 44.3597 30.6545 44.619 32.599 44.619C44.5498 44.619 54.24 34.9287 54.24 22.9779C54.2441 11.0272 44.5538 1.33688 32.603 1.33688ZM17.4721 12.0642C17.221 11.2095 17.4195 10.2615 17.934 9.47558C18.4525 8.68561 19.3235 8.11845 20.2552 7.91589C21.187 7.69713 22.1633 7.81462 22.9776 8.19137C23.7959 8.56408 24.4603 9.17579 24.8573 9.92525C24.039 9.68623 23.3138 9.50799 22.6211 9.45127C21.9324 9.39455 21.2883 9.45127 20.7009 9.62547C20.1135 9.80777 19.5787 10.0751 19.0642 10.4721C18.5295 10.8651 18.0514 11.3877 17.4721 12.0642ZM18.6672 17.833C18.6672 15.8723 19.9028 14.2842 21.4301 14.2842C22.9573 14.2842 24.1929 15.8723 24.1929 17.833C24.1929 19.7938 22.9573 21.3818 21.4301 21.3818C19.9069 21.3858 18.6672 19.7938 18.6672 17.833ZM38.3354 27.6448C37.4887 27.3815 36.6663 27.1465 35.8318 26.948C35.0013 26.7495 34.1627 26.6037 33.3201 26.47C31.6308 26.2107 29.8888 26.1013 28.0698 26.0608C26.2387 26.0122 24.3631 26.0568 22.2606 26.073C22.9168 25.3843 23.7433 24.8658 24.6183 24.4161C25.4974 23.9745 26.4454 23.6261 27.4379 23.3668C29.4229 22.8605 31.6105 22.7146 33.786 23.0184C34.8717 23.1683 35.9493 23.4438 36.9823 23.8084C38.0032 24.2014 38.9876 24.6713 39.8626 25.2628C41.6087 26.4376 42.9982 27.9527 43.6828 29.7028C41.7059 28.9128 40.0206 28.1877 38.3354 27.6448ZM43.4519 21.3858C41.9247 21.3858 40.6891 19.7978 40.6891 17.8371C40.6891 15.8763 41.9247 14.2883 43.4519 14.2883C44.9792 14.2883 46.2148 15.8763 46.2148 17.8371C46.2148 19.7938 44.9751 21.3858 43.4519 21.3858ZM45.2425 12.8015C44.6268 12.5909 44.0312 12.5099 43.4195 12.5261C42.8078 12.5504 42.1799 12.7043 41.5439 12.9757C40.9078 13.2512 40.2759 13.6523 39.5791 14.1425C39.7128 13.3039 40.1462 12.5099 40.7985 11.8941C41.4466 11.2743 42.3379 10.8489 43.2899 10.7557C44.2378 10.6504 45.2466 10.9097 45.9879 11.489C46.7293 12.0683 47.2195 12.9028 47.2559 13.7941C46.4903 13.3403 45.8664 13 45.2425 12.8015Z" fill="#F2C94C"/>
<path d="M13.6568 31.4042C13.9161 30.2537 14.3779 28.5036 14.0619 26.717C13.754 24.9791 16.1239 23.9663 17.1083 25.4328C17.5499 26.0891 17.8416 27.0735 17.8416 28.5319C17.8416 34.3291 20.2844 32.9882 21.8684 32.6195C23.4564 32.2549 31.267 30.3023 31.267 30.3023C31.267 30.3023 35.6949 28.937 36.1081 31.157C36.5942 33.7822 27.9734 35.4269 27.9734 35.4269C27.9734 35.4269 30.3636 40.6569 28.338 43.9302C27.5157 45.263 25.6643 45.3035 23.0918 46.0449C18.5181 47.3615 15.6459 47.3413 14.5075 45.7208C13.6608 44.5176 12.9722 41.9938 12.7169 41.0013C12.0647 38.4774 12.6764 35.7186 13.6568 31.4042Z" fill="#F2C94C"/>
<g opacity="0.3">
<path opacity="0.3" d="M17.4727 12.0642C17.2215 11.2094 17.42 10.2615 17.9345 9.47557C18.453 8.6856 19.324 8.11844 20.2558 7.91589C21.1875 7.69713 22.1639 7.81461 22.9781 8.19137C23.7965 8.56407 24.4608 9.17579 24.8579 9.92524C24.0395 9.68623 23.3144 9.50798 22.6216 9.45126C21.933 9.39455 21.2888 9.45126 20.7014 9.62546C20.114 9.80776 19.5792 10.0751 19.0648 10.4721C18.53 10.8651 18.052 11.3877 17.4727 12.0642Z" fill="#01202E"/>
<path opacity="0.3" d="M18.6677 17.8329C18.6677 15.8722 19.9033 14.2841 21.4306 14.2841C22.9578 14.2841 24.1934 15.8722 24.1934 17.8329C24.1934 19.7937 22.9578 21.3817 21.4306 21.3817C19.9073 21.3858 18.6677 19.7937 18.6677 17.8329Z" fill="#01202E"/>
<path opacity="0.3" d="M38.3361 27.6447C37.4894 27.3814 36.667 27.1464 35.8325 26.9479C35.002 26.7494 34.1634 26.6035 33.3208 26.4699C31.6315 26.2106 29.8895 26.1012 28.0706 26.0607C26.2395 26.0121 24.3638 26.0566 22.2613 26.0729C22.9176 25.3842 23.744 24.8656 24.619 24.4159C25.4981 23.9744 26.4461 23.626 27.4386 23.3667C29.4236 22.8603 31.6113 22.7145 33.7867 23.0183C34.8724 23.1682 35.95 23.4437 36.983 23.8083C38.0039 24.2012 38.9883 24.6712 39.8634 25.2626C41.6094 26.4375 42.9989 27.9526 43.6836 29.7026C41.7066 28.9127 40.0214 28.1875 38.3361 27.6447Z" fill="#01202E"/>
<path opacity="0.3" d="M43.4535 21.3858C41.9262 21.3858 40.6906 19.7977 40.6906 17.837C40.6906 15.8762 41.9262 14.2882 43.4535 14.2882C44.9807 14.2882 46.2163 15.8762 46.2163 17.837C46.2163 19.7937 44.9767 21.3858 43.4535 21.3858Z" fill="#01202E"/>
<path opacity="0.3" d="M45.244 12.8015C44.6282 12.5908 44.0327 12.5098 43.421 12.526C42.8093 12.5503 42.1813 12.7042 41.5453 12.9757C40.9093 13.2511 40.2773 13.6522 39.5805 14.1424C39.7142 13.3038 40.1477 12.5098 40.7999 11.894C41.4481 11.2742 42.3393 10.8488 43.2913 10.7557C44.2393 10.6503 45.248 10.9096 45.9894 11.4889C46.7307 12.0682 47.2209 12.9027 47.2574 13.794C46.4917 13.3403 45.8679 13 45.244 12.8015Z" fill="#01202E"/>
</g>
<path d="M29.6298 1.33685H15.8155" stroke="white" stroke-width="2" stroke-miterlimit="10"/>
<path d="M52.9149 44.619H39.1006" stroke="#2F80ED" stroke-width="2" stroke-miterlimit="10"/>
<path d="M25.919 4.72357H12.1047" stroke="#F2C94C" stroke-width="2" stroke-miterlimit="10"/>
<path d="M15.7024 21.3048H1.88806" stroke="white" stroke-width="2" stroke-miterlimit="10"/>
<path d="M13.8144 23.8002H7.62939e-05" stroke="#F2C94C" stroke-width="2" stroke-miterlimit="10"/>
<path d="M56.8648 3.96198H43.0506" stroke="white" stroke-width="2" stroke-miterlimit="10"/>
<path d="M52.6758 6.45346H38.8615" stroke="#F2C94C" stroke-width="2" stroke-miterlimit="10"/>
<path d="M51.2311 42.3585H37.4168" stroke="#F2C94C" stroke-width="2" stroke-miterlimit="10"/>
<path d="M63.9715 28.4185H50.1532" stroke="#2F80ED" stroke-width="2" stroke-miterlimit="10"/>
<path d="M61.0552 26.154H47.2409" stroke="#F2C94C" stroke-width="2" stroke-miterlimit="10"/>
</svg>
