<svg width="20" height="20" viewBox="0 0 20 20" fill="none" xmlns="http://www.w3.org/2000/svg">
<path fill-rule="evenodd" clip-rule="evenodd" d="M10 20C15.5228 20 20 15.5228 20 10C20 4.47715 15.5228 0 10 0C4.47715 0 0 4.47715 0 10C0 15.5228 4.47715 20 10 20ZM6.07733 13.0888C5.75189 12.7633 5.75189 12.2358 6.07733 11.9104C6.40235 11.5849 6.93071 11.5849 7.25573 11.9104L9.16667 13.8213V4.16578C9.16667 3.70575 9.54002 3.3324 10 3.3324C10.4601 3.3324 10.8334 3.70575 10.8334 4.16578V13.8213L12.7444 11.9104C13.0698 11.5849 13.5973 11.5849 13.9228 11.9104C14.2482 12.2358 14.2482 12.7633 13.9228 13.0888L10.5893 16.4223C10.4263 16.5852 10.2134 16.6665 10 16.6665C9.78671 16.6665 9.57336 16.5852 9.41085 16.4223L6.07733 13.0888Z" fill="#F2C94C"/>
</svg>
