<svg width="25" height="24" viewBox="0 0 25 24" fill="none" xmlns="http://www.w3.org/2000/svg">
<path d="M10.6422 2.09363C11.5228 1.96762 12.4783 1.96762 13.3594 2.09363C13.4079 2.10063 13.4549 2.10413 13.5024 2.10413C13.9919 2.10413 14.4194 1.74411 14.4909 1.24558C14.5689 0.698544 14.1889 0.192012 13.6429 0.114007C12.5743 -0.0380024 11.4272 -0.0380024 10.3597 0.114007C9.81315 0.192012 9.43312 0.698544 9.51113 1.24558C9.58913 1.79211 10.0967 2.17313 10.6422 2.09363Z" fill="#828282"/>
<path d="M17.4561 1.30802C16.9641 1.0565 16.362 1.25201 16.1105 1.74304C15.8595 2.23507 16.0545 2.83711 16.546 3.08863C19.9107 4.80923 22.0014 8.22345 22.0014 11.9992C22.0014 17.5135 17.5151 21.9998 12.0007 21.9998C6.4864 21.9998 2.00012 17.5135 2.00012 11.9992C2.00012 8.22345 4.09075 4.80923 7.45596 3.08913C7.94749 2.83761 8.14251 2.23507 7.89099 1.74354C7.63947 1.25151 7.03644 1.057 6.54541 1.30852C2.50816 3.37214 0 7.4684 0 11.9992C0 18.6161 5.38333 23.9999 12.0007 23.9999C18.6177 23.9999 24.0015 18.6161 24.0015 11.9992C24.0015 7.4684 21.4933 3.37215 17.4561 1.30802Z" fill="#828282"/>
<path d="M7.29338 14.2922C6.90286 14.6827 6.90286 15.3157 7.29338 15.7063L11.2936 19.7065C11.4886 19.902 11.7447 19.9995 12.0007 19.9995C12.2567 19.9995 12.5122 19.902 12.7077 19.7065L16.708 15.7063C17.0985 15.3157 17.0985 14.6827 16.708 14.2922C16.3174 13.9016 15.6844 13.9016 15.2939 14.2922L13.0007 16.5853V4.9986C13.0007 4.44656 12.5527 3.99854 12.0007 3.99854C11.4486 3.99854 11.0006 4.44656 11.0006 4.9986V16.5853L8.70747 14.2922C8.31744 13.9016 7.68341 13.9016 7.29338 14.2922Z" fill="#828282"/>
</svg>
