<svg width="23" height="22" viewBox="0 0 23 22" fill="none" xmlns="http://www.w3.org/2000/svg">
<path fill-rule="evenodd" clip-rule="evenodd" d="M11.5 22.0001C17.5751 22.0001 22.5 17.0753 22.5 11.0001C22.5 4.92499 17.5751 0.00012207 11.5 0.00012207C5.42487 0.00012207 0.5 4.92499 0.5 11.0001C0.5 17.0753 5.42487 22.0001 11.5 22.0001ZM12.655 5.00512C12.655 4.36723 12.1379 3.85012 11.5 3.85012C10.8621 3.85012 10.345 4.36723 10.345 5.00512V14.2629L8.4548 12.4267C7.99726 11.9822 7.26603 11.9928 6.82156 12.4503C6.37708 12.9079 6.38768 13.6391 6.84523 14.0836L10.6952 17.8236C11.1434 18.259 11.8566 18.259 12.3048 17.8236L16.1548 14.0836C16.6123 13.6391 16.6229 12.9079 16.1785 12.4503C15.734 11.9928 15.0028 11.9822 14.5452 12.4267L12.655 14.2629V5.00512Z" fill="#F2C94C"/>
</svg>
