<svg width="22" height="25" viewBox="0 0 22 25" fill="none" xmlns="http://www.w3.org/2000/svg">
<path d="M9.3123 5.33205C10.0828 5.22178 10.919 5.22178 11.69 5.33205C11.7324 5.33817 11.7735 5.34124 11.8151 5.34124C12.2435 5.34124 12.6176 5.0262 12.6802 4.58995C12.7484 4.11127 12.4159 3.66802 11.9381 3.59976C11.003 3.46675 9.99926 3.46675 9.06508 3.59976C8.58683 3.66802 8.25428 4.11127 8.32254 4.58995C8.3908 5.0682 8.83492 5.40162 9.3123 5.33205Z" fill="#E0E0E0"/>
<path d="M15.2741 4.64439C14.8436 4.42432 14.3168 4.59539 14.0968 5.02504C13.8771 5.45557 14.0477 5.98236 14.4778 6.20243C17.422 7.70797 19.2513 10.6954 19.2513 13.9992C19.2513 18.8243 15.3258 22.7498 10.5007 22.7498C5.67563 22.7498 1.75012 18.8243 1.75012 13.9992C1.75012 10.6954 3.57943 7.70797 6.524 6.20287C6.95409 5.98279 7.12473 5.45557 6.90465 5.02548C6.68457 4.59495 6.15691 4.42475 5.72726 4.64483C2.19465 6.45051 0 10.0348 0 13.9992C0 19.789 4.71044 24.4999 10.5007 24.4999C16.2905 24.4999 21.0014 19.789 21.0014 13.9992C21.0014 10.0348 18.8068 6.45051 15.2741 4.64439Z" fill="#E0E0E0"/>
<path d="M6.38105 16.0063C6.03932 16.348 6.03932 16.902 6.38105 17.2437L9.88151 20.7442C10.0522 20.9153 10.2762 21.0006 10.5002 21.0006C10.7242 21.0006 10.9478 20.9153 11.1189 20.7442L14.6194 17.2437C14.9611 16.902 14.9611 16.348 14.6194 16.0063C14.2776 15.6646 13.7237 15.6646 13.382 16.0063L11.3753 18.0129V7.87389C11.3753 7.39083 10.9833 6.99878 10.5002 6.99878C10.0171 6.99878 9.6251 7.39083 9.6251 7.87389V18.0129L7.61846 16.0063C7.27717 15.6646 6.72235 15.6646 6.38105 16.0063Z" fill="#E0E0E0"/>
<path d="M14.9892 2.3805C14.8919 2.3805 14.7931 2.36147 14.6979 2.32125C13.4071 1.77633 12.035 1.5 10.6199 1.5C9.20472 1.5 7.83269 1.77633 6.54189 2.32125C6.16028 2.48236 5.72036 2.30362 5.55925 1.92202C5.39814 1.54041 5.57688 1.10048 5.95849 0.939375C7.43491 0.316031 9.00321 0 10.6199 0C12.2365 0 13.8048 0.316031 15.2813 0.939375C15.6629 1.10048 15.8416 1.54041 15.6805 1.92202C15.5596 2.20833 15.2817 2.38045 14.9892 2.3805Z" fill="#E0E0E0"/>
</svg>
