<svg width="21" height="20" viewBox="0 0 21 20" fill="none" xmlns="http://www.w3.org/2000/svg">
<path d="M8.86923 1.74468C9.60302 1.63968 10.3993 1.63968 11.1335 1.74468C11.1739 1.75052 11.2131 1.75343 11.2527 1.75343C11.6606 1.75343 12.0169 1.45342 12.0765 1.03798C12.1415 0.582117 11.8248 0.160009 11.3698 0.0950054C10.4793 -0.0316685 9.52343 -0.0316685 8.6338 0.0950054C8.17835 0.160009 7.86167 0.582117 7.92667 1.03798C7.99168 1.49342 8.41462 1.81094 8.86923 1.74468Z" fill="#F2F2F2"/>
<path d="M14.5467 1.09017C14.1366 0.880579 13.6349 1.0435 13.4253 1.45269C13.2162 1.86272 13.3787 2.36441 13.7883 2.57401C16.5922 4.00784 18.3344 6.853 18.3344 9.99943C18.3344 14.5947 14.5958 18.3332 10.0006 18.3332C5.40531 18.3332 1.66676 14.5947 1.66676 9.99943C1.66676 6.853 3.40894 4.00784 6.21327 2.57442C6.62288 2.36483 6.78539 1.86272 6.57579 1.45311C6.3662 1.04309 5.86367 0.880995 5.45448 1.09059C2.09012 2.81027 0 6.2238 0 9.99943C0 15.5135 4.48609 20 10.0006 20C15.5146 20 20.0011 15.5135 20.0011 9.99943C20.0011 6.2238 17.911 2.81027 14.5467 1.09017Z" fill="#F2F2F2"/>
<path d="M6.0783 11.9104C5.75287 12.2358 5.75287 12.7633 6.0783 13.0888L9.41183 16.4223C9.57434 16.5852 9.78768 16.6665 10.001 16.6665C10.2144 16.6665 10.4273 16.5852 10.5902 16.4223L13.9237 13.0888C14.2492 12.7633 14.2492 12.2358 13.9237 11.9104C13.5983 11.5849 13.0708 11.5849 12.7453 11.9104L10.8344 13.8213V4.16577C10.8344 3.70574 10.4611 3.33239 10.001 3.33239C9.541 3.33239 9.16765 3.70574 9.16765 4.16577V13.8213L7.2567 11.9104C6.93169 11.5849 6.40332 11.5849 6.0783 11.9104Z" fill="#F2F2F2"/>
</svg>
