<svg width="25" height="24" viewBox="0 0 25 24" fill="none" xmlns="http://www.w3.org/2000/svg">
<path fill-rule="evenodd" clip-rule="evenodd" d="M0.0347236 22.8111L2.16568 15.2381C2.20946 15.0825 2.2931 14.9408 2.40854 14.8266L15.9756 1.40648C16.8925 0.4995 18.1116 0 19.4083 0C20.7049 0 21.924 0.4995 22.8409 1.40653C23.7578 2.31347 24.2628 3.51933 24.2628 4.80197C24.2628 6.08461 23.7578 7.29047 22.8408 8.19745L12.6059 18.294C12.2353 18.6595 11.6352 18.6588 11.2656 18.2921C10.896 17.9255 10.8968 17.3319 11.2674 16.9663L19.8765 8.47361L15.6942 4.33645L4.44827 15.4606L9.27486 20.2494C9.51194 20.4847 9.60549 20.8265 9.52076 21.1479C9.43603 21.4693 9.18563 21.7224 8.86263 21.8131L1.20673 23.9643C1.12129 23.9883 1.03419 24 0.947847 24C0.700765 24 0.459464 23.9043 0.279389 23.7271C0.0363348 23.488 -0.0571622 23.1377 0.0347236 22.8111ZM17.0346 3.01064L17.316 2.7323C17.4975 2.5527 17.6985 2.39932 17.9142 2.27408C18.3626 2.01378 18.8746 1.875 19.4083 1.875C20.1987 1.875 20.9417 2.17945 21.5005 2.73234C22.0594 3.28514 22.3672 4.02014 22.3672 4.80197C22.3672 5.32995 22.2269 5.83658 21.9639 6.27989C21.8718 6.4351 21.7647 6.58255 21.6433 6.72043C21.598 6.77188 21.5507 6.82201 21.5014 6.8707L21.2188 7.14956L17.0346 3.01064ZM6.79522 20.4449L3.56889 17.2438L2.31381 21.7041L6.79522 20.4449Z" fill="white"/>
</svg>
