<svg width="50" height="38" viewBox="0 0 50 38" fill="none" xmlns="http://www.w3.org/2000/svg">
<path d="M18 31.5C15.8396 31.5026 13.7101 30.9867 11.7904 29.9956C9.87074 29.0044 8.21699 27.5671 6.96807 25.8042C5.71915 24.0414 4.91156 22.0045 4.61314 19.8648C4.31471 17.7251 4.53418 15.545 5.25309 13.5077C5.972 11.4704 7.16937 9.63538 8.74459 8.15682C10.3198 6.67827 12.2269 5.59936 14.3056 5.01074C16.3843 4.42212 18.5739 4.34098 20.6904 4.77413C22.807 5.20729 24.7887 6.14209 26.469 7.5H24C23.6022 7.5 23.2206 7.65804 22.9393 7.93934C22.658 8.22065 22.5 8.60218 22.5 9C22.5 9.39783 22.658 9.77936 22.9393 10.0607C23.2206 10.342 23.6022 10.5 24 10.5H30C30.3978 10.5 30.7793 10.342 31.0607 10.0607C31.342 9.77936 31.5 9.39783 31.5 9V3C31.5 2.60218 31.342 2.22064 31.0607 1.93934C30.7793 1.65804 30.3978 1.5 30 1.5C29.6022 1.5 29.2206 1.65804 28.9393 1.93934C28.658 2.22064 28.5 2.60218 28.5 3V5.2965C26.4602 3.61012 24.0445 2.43941 21.457 1.88325C18.8694 1.32709 16.1861 1.40183 13.6335 2.10114C11.0809 2.80046 8.73415 4.10381 6.79138 5.90111C4.84861 7.69841 3.36692 9.93687 2.47145 12.4274C1.57599 14.918 1.29306 17.5874 1.64656 20.2103C2.00005 22.8333 2.9796 25.3326 4.50245 27.4972C6.02531 29.6618 8.04674 31.4281 10.396 32.647C12.7453 33.8658 15.3534 34.5014 18 34.5C18.3978 34.5 18.7793 34.342 19.0607 34.0607C19.342 33.7794 19.5 33.3978 19.5 33C19.5 32.6022 19.342 32.2206 19.0607 31.9393C18.7793 31.658 18.3978 31.5 18 31.5Z" fill="#F2C94C"/>
<path d="M23.5605 23.5605C23.8417 23.2792 23.9997 22.8977 23.9997 22.5C23.9997 22.1023 23.8417 21.7208 23.5605 21.4395L19.5 17.379V9C19.5 8.60218 19.342 8.22064 19.0607 7.93934C18.7794 7.65804 18.3978 7.5 18 7.5C17.6022 7.5 17.2206 7.65804 16.9393 7.93934C16.658 8.22064 16.5 8.60218 16.5 9V18C16.5001 18.3978 16.6582 18.7793 16.9395 19.0605L21.4395 23.5605C21.7208 23.8417 22.1023 23.9997 22.5 23.9997C22.8978 23.9997 23.2792 23.8417 23.5605 23.5605V23.5605Z" fill="#F2C94C"/>
<path d="M38 16C43.5228 16 48 20.4772 48 26C48 31.5228 43.5228 36 38 36C32.4772 36 28 31.5228 28 26C28 20.4772 32.4772 16 38 16Z" stroke="#F2C94C" stroke-width="2" stroke-linecap="round" stroke-linejoin="round"/>
<path d="M38 22V26" stroke="#F2C94C" stroke-width="2" stroke-linecap="round" stroke-linejoin="round"/>
<path d="M38 30H38.01" stroke="#F2C94C" stroke-width="2" stroke-linecap="round" stroke-linejoin="round"/>
</svg>
