<svg width="24" height="22" viewBox="0 0 24 22" fill="none" xmlns="http://www.w3.org/2000/svg">
<path fill-rule="evenodd" clip-rule="evenodd" d="M12.3765 14.1671C11.4597 13.7087 11.4597 13.7087 11.026 13.5071C11.8259 12.7801 12.3565 11.7616 12.4488 10.6215C13.6618 9.43951 15.2519 8.79154 16.9564 8.79154C18.2871 8.79154 19.5647 9.19224 20.6515 9.95016C21.7382 10.7081 22.0027 12.3335 22.0027 13.7087V21.0429C22.0027 21.5493 22.4131 21.9597 22.9195 21.9597C23.4258 21.9597 23.8362 21.5493 23.8362 21.0429V13.7087C23.8362 11.8751 23.3779 9.5832 21.6348 8.54058C21.0968 8.16523 20.5217 7.85954 19.9204 7.6257C20.8031 6.82347 21.358 5.66669 21.358 4.38284C21.358 1.96606 19.392 0 16.9752 0C14.5586 0 12.5925 1.96606 12.5925 4.38284C12.5925 5.66149 13.1429 6.81406 14.0195 7.61597C13.8995 7.66213 13.7802 7.71098 13.662 7.76302C13.1241 7.99971 12.6185 8.29079 12.1483 8.63257C11.4999 7.02155 9.92106 5.88139 8.08073 5.88139C5.66412 5.88139 3.69789 7.84745 3.69789 10.2641C3.69789 11.5392 4.2453 12.6886 5.1172 13.4901C2.78603 14.3636 0.895848 16.2395 0.126345 18.6319C-0.128814 19.4253 0.00631961 20.2666 0.497163 20.9403C0.988007 21.6137 1.74744 22 2.58073 22H10.0574C10.5319 22 10.9167 21.6152 10.9167 21.1405C10.9167 20.666 10.5319 20.2812 10.0574 20.2812H2.58073C2.30291 20.2812 2.04977 20.1525 1.8861 19.9278C1.72243 19.7032 1.67744 19.4227 1.76238 19.1582C2.61179 16.5173 5.20231 14.6729 8.06193 14.6729C9.39245 14.6729 10.3819 14.9148 11.4597 15.5423C12.5376 16.1697 13.2933 16.9174 13.2933 18.2926V21.0429C13.2933 21.0429 13.2933 21.9597 14.2101 21.9597C15.1268 21.9597 15.1268 21.0429 15.1268 21.0429V18.2926C15.1268 16.0006 13.2933 14.6255 12.3765 14.1671ZM19.6392 4.38284C19.6392 2.91384 18.4442 1.71879 16.9752 1.71879C15.5063 1.71879 14.3111 2.91384 14.3111 4.38284C14.3111 5.85168 15.5063 7.0469 16.9752 7.0469C18.4442 7.0469 19.6392 5.85168 19.6392 4.38284ZM10.7448 10.2641C10.7448 8.79523 9.54974 7.60002 8.08073 7.60002C6.61173 7.60002 5.41668 8.79523 5.41668 10.2641C5.41668 11.7331 6.61173 12.9281 8.08073 12.9281C9.54974 12.9281 10.7448 11.7331 10.7448 10.2641Z" fill="white"/>
</svg>
