<svg width="37" height="37" viewBox="0 0 37 37" fill="none" xmlns="http://www.w3.org/2000/svg">
<path d="M32.5 18.5V27.25M4.5 18.5V36H32.5V33.5" stroke="#F2C94C" stroke-width="2" stroke-linecap="round" stroke-linejoin="round"/>
<path d="M36 9.75H1V18.5H36V9.75Z" stroke="#F2C94C" stroke-width="2" stroke-linecap="round" stroke-linejoin="round"/>
<path d="M18.5 36V9.75" stroke="#F2C94C" stroke-width="2" stroke-linecap="round" stroke-linejoin="round"/>
<path d="M18.5 9.75H10.625C9.46468 9.75 8.35188 9.28906 7.53141 8.46859C6.71094 7.64812 6.25 6.53532 6.25 5.375C6.25 4.21468 6.71094 3.10188 7.53141 2.28141C8.35188 1.46094 9.46468 1 10.625 1C16.75 1 18.5 9.75 18.5 9.75Z" stroke="#F2C94C" stroke-width="2" stroke-linecap="round" stroke-linejoin="round"/>
<path d="M18.5 9.75H26.375C27.5353 9.75 28.6481 9.28906 29.4686 8.46859C30.2891 7.64812 30.75 6.53532 30.75 5.375C30.75 4.21468 30.2891 3.10188 29.4686 2.28141C28.6481 1.46094 27.5353 1 26.375 1C20.25 1 18.5 9.75 18.5 9.75Z" stroke="#F2C94C" stroke-width="2" stroke-linecap="round" stroke-linejoin="round"/>
</svg>
