<svg width="15" height="13" viewBox="0 0 15 13" fill="none" xmlns="http://www.w3.org/2000/svg">
<path d="M3.48053 0.458089C2.63523 0.692893 2.23606 0.915957 1.68427 1.46775C0.146307 3.00571 0.369371 5.25983 2.25954 7.34959C2.69393 7.83094 5.08893 9.9207 6.76778 11.2943L7.68352 12.0339L9.52673 10.5312C12.1331 8.42969 13.7532 6.78606 14.2698 5.74118C14.6337 5.00155 14.6689 4.82545 14.6689 3.92145C14.6689 3.04094 14.6337 2.85309 14.3285 2.3013C13.6241 1.03336 12.4383 0.352427 10.9121 0.352427C10.1255 0.352427 9.85546 0.399387 9.28019 0.669412C8.89276 0.845515 8.38793 1.20946 8.14139 1.46775L7.69526 1.9491L7.28435 1.47949C6.4508 0.552011 4.76021 0.105883 3.48053 0.458089Z" fill="#E81C27"/>
</svg>
