<svg width="21" height="22" viewBox="0 0 21 22" fill="none" xmlns="http://www.w3.org/2000/svg">
<path d="M17.375 0.9H14.4062C12.6281 0.9 11.1812 2.34277 11.1812 4.1169V7.07795C11.1812 8.85208 12.6281 10.2948 14.4062 10.2948H17.375C19.1531 10.2948 20.6 8.85208 20.6 7.07795V4.1169C20.6 2.34277 19.1531 0.9 17.375 0.9Z" fill="#F2C94C" stroke="#F2C94C" stroke-width="0.2"/>
<path d="M17.375 11.7052H14.4062C12.6281 11.7052 11.1812 13.1479 11.1812 14.9221V17.8831C11.1812 19.6573 12.6281 21.1 14.4062 21.1H17.375C19.1531 21.1 20.6 19.6573 20.6 17.8831V14.9221C20.6 13.1479 19.1531 11.7052 17.375 11.7052Z" fill="#F2C94C" stroke="#F2C94C" stroke-width="0.2"/>
<path d="M6.59375 0.9H3.625C1.84689 0.9 0.4 2.34277 0.4 4.1169V7.07795C0.4 8.85208 1.84689 10.2948 3.625 10.2948H6.59375C8.37186 10.2948 9.81875 8.85208 9.81875 7.07795V4.1169C9.81875 2.34277 8.37186 0.9 6.59375 0.9Z" fill="#F2C94C" stroke="#F2C94C" stroke-width="0.2"/>
<path d="M6.59375 11.6532H3.625C1.84689 11.6532 0.4 13.0959 0.4 14.8701V17.8311C0.4 19.6053 1.84689 21.048 3.625 21.048H6.59375C8.37186 21.048 9.81875 19.6053 9.81875 17.8311V14.8701C9.81875 13.0959 8.37186 11.6532 6.59375 11.6532Z" fill="#F2C94C" stroke="#F2C94C" stroke-width="0.2"/>
</svg>
