<svg width="21" height="22" viewBox="0 0 21 22" fill="none" xmlns="http://www.w3.org/2000/svg">
<path d="M17.375 0.9H14.4062C12.6281 0.9 11.1812 2.34277 11.1812 4.1169V7.07795C11.1812 8.85208 12.6281 10.2948 14.4062 10.2948H17.375C19.1531 10.2948 20.6 8.85208 20.6 7.07795V4.1169C20.6 2.34277 19.1531 0.9 17.375 0.9ZM18.8375 7.07795C18.8375 7.8818 18.1816 8.5364 17.375 8.5364H14.4062C13.5997 8.5364 12.9438 7.8818 12.9438 7.07795V4.1169C12.9438 3.31304 13.5997 2.65845 14.4062 2.65845H17.375C18.1816 2.65845 18.8375 3.31304 18.8375 4.1169V7.07795Z" fill="#828282" stroke="#828282" stroke-width="0.2"/>
<path d="M17.375 11.7051H14.4062C12.6281 11.7051 11.1812 13.1479 11.1812 14.922V17.8831C11.1812 19.6572 12.6281 21.1 14.4062 21.1H17.375C19.1531 21.1 20.6 19.6572 20.6 17.8831V14.922C20.6 13.1479 19.1531 11.7051 17.375 11.7051ZM18.8375 17.8831C18.8375 18.6869 18.1816 19.3415 17.375 19.3415H14.4062C13.5997 19.3415 12.9438 18.6869 12.9438 17.8831V14.922C12.9438 14.1182 13.5997 13.4636 14.4062 13.4636H17.375C18.1816 13.4636 18.8375 14.1182 18.8375 14.922V17.8831Z" fill="#828282" stroke="#828282" stroke-width="0.2"/>
<path d="M6.59375 0.9H3.625C1.84689 0.9 0.4 2.34277 0.4 4.1169V7.07795C0.4 8.85208 1.84689 10.2948 3.625 10.2948H6.59375C8.37186 10.2948 9.81875 8.85208 9.81875 7.07795V4.1169C9.81875 2.34277 8.37186 0.9 6.59375 0.9ZM8.05625 7.07795C8.05625 7.8818 7.40033 8.5364 6.59375 8.5364H3.625C2.81842 8.5364 2.1625 7.8818 2.1625 7.07795V4.1169C2.1625 3.31304 2.81842 2.65845 3.625 2.65845H6.59375C7.40033 2.65845 8.05625 3.31304 8.05625 4.1169V7.07795Z" fill="#828282" stroke="#828282" stroke-width="0.2"/>
<path d="M6.59375 11.6532H3.625C1.84689 11.6532 0.4 13.0959 0.4 14.8701V17.8311C0.4 19.6053 1.84689 21.048 3.625 21.048H6.59375C8.37186 21.048 9.81875 19.6053 9.81875 17.8311V14.8701C9.81875 13.0959 8.37186 11.6532 6.59375 11.6532ZM8.05625 17.8311C8.05625 18.635 7.40033 19.2896 6.59375 19.2896H3.625C2.81842 19.2896 2.1625 18.635 2.1625 17.8311V14.8701C2.1625 14.0662 2.81842 13.4116 3.625 13.4116H6.59375C7.40033 13.4116 8.05625 14.0662 8.05625 14.8701V17.8311Z" fill="#828282" stroke="#828282" stroke-width="0.2"/>
</svg>
