<svg width="21" height="25" viewBox="0 0 21 25" fill="none" xmlns="http://www.w3.org/2000/svg">
<path d="M19.5107 1.25L1.01074 23.25" stroke="white" stroke-width="1.5" stroke-linecap="round"/>
<path d="M3.04199 7.98438C3.04199 3.71964 6.51163 0.25 10.7764 0.25C15.0411 0.25 18.5107 3.71964 18.5107 7.98438C18.5107 9.93916 18.1472 11.8826 17.7956 13.7621C17.4558 15.5785 17.1045 17.4569 17.1045 19.2812C17.1045 22.021 14.8965 24.25 12.1826 24.25C9.4687 24.25 7.26074 22.021 7.26074 19.2812C7.26074 18.9321 7.29716 18.5537 7.36077 18.2432C7.70385 16.5666 6.46902 14.6151 5.30732 13.4534C3.84651 11.9926 3.04199 10.0503 3.04199 7.98438ZM8.73843 18.5251C8.69371 18.7437 8.66699 19.0264 8.66699 19.2812C8.66699 21.2456 10.2441 22.8438 12.1826 22.8438C14.1211 22.8438 15.6982 21.2456 15.6982 19.2812C15.6982 17.3265 16.0618 15.383 16.4134 13.5035C16.7532 11.6871 17.1045 9.80875 17.1045 7.98438C17.1045 4.49505 14.2657 1.65625 10.7764 1.65625C7.28704 1.65625 4.44824 4.49505 4.44824 7.98438C4.44824 9.67469 5.10646 11.2638 6.30168 12.459C7.77773 13.9351 9.19302 16.3038 8.73843 18.5251Z" fill="white"/>
<path d="M9.85682 3.14664C12.9469 2.58072 15.6982 4.94462 15.6982 7.98428C15.6982 9.67684 15.3746 11.3968 15.0312 13.2218C14.9209 13.8077 14.8069 14.4136 14.7045 15.0172C14.4973 16.2385 13.4626 17.1249 12.2441 17.1249C11.0596 17.1249 10.0313 16.2819 9.79902 15.1204C9.79729 14.9043 8.95063 12.6348 10.7099 10.4889C11.5966 9.40722 12.884 8.76137 14.2719 8.6934C14.285 8.45481 14.292 8.21851 14.292 7.98428C14.292 5.86473 12.3813 4.114 10.1101 4.52987C7.35098 5.03518 6.29723 8.47604 8.2903 10.4708L7.29548 11.4647C4.52765 8.69448 5.94862 3.86237 9.85682 3.14664ZM11.7974 11.3804C10.5072 12.9541 11.1734 14.6039 11.178 14.8446C11.2793 15.3511 11.7276 15.7187 12.2441 15.7187C12.7743 15.7187 13.226 15.3247 13.318 14.782C13.4225 14.1659 13.5378 13.5537 13.6499 12.9576C13.834 11.9796 14.0123 11.032 14.1341 10.1142C13.2227 10.2128 12.3863 10.662 11.7974 11.3804Z" fill="white"/>
</svg>
