<svg id="Layer_1" data-name="Layer 1" xmlns="http://www.w3.org/2000/svg" viewBox="0 0 25 21"><defs><style>.cls-1{fill:#828282;}</style></defs><path class="cls-1" d="M23.25,11.89l.31-.45,0,0a8.28,8.28,0,0,0,1-2,.65.65,0,0,0,0-.13c.06-.18.11-.37.16-.55s0-.13,0-.2A4.89,4.89,0,0,0,24.93,8l0-.2c0-.25,0-.49,0-.74a7.07,7.07,0,0,0-2-5.13A6.64,6.64,0,0,0,18.26,0a6.25,6.25,0,0,0-5.73,3l0,0,0,0A6.25,6.25,0,0,0,6.74,0,6.64,6.64,0,0,0,2,1.92,7.07,7.07,0,0,0,0,7.05c0,.25,0,.49,0,.74l0,.2a4.89,4.89,0,0,0,.09.53c0,.07,0,.13,0,.2s.1.37.16.55a.65.65,0,0,0,0,.13,8.28,8.28,0,0,0,1,2l0,0,.31.45.09.09a10.62,10.62,0,0,0,.7.83c.08.1.17.19.26.29l.74.73.32.29.55.48.33.27.73.59.08.06h0c.6.46,1.21.92,1.81,1.36.8.6,1.57,1.17,2.28,1.75a3.23,3.23,0,0,1,.27.23c.32.26.63.53.91.79l.1.11a8.19,8.19,0,0,1,.81.87,1,1,0,0,0,1.52,0,11,11,0,0,1,.81-.88l.1-.1c.28-.26.59-.53.91-.8l.26-.22c.71-.57,1.49-1.15,2.29-1.75.6-.44,1.21-.9,1.81-1.36h0l.07-.06.75-.59.31-.27c.19-.16.38-.32.56-.49l.32-.28c.25-.24.5-.49.74-.74a3.45,3.45,0,0,0,.26-.28,10.62,10.62,0,0,0,.7-.83Z"/></svg>