<svg width="25" height="21" viewBox="0 0 25 21" fill="none" xmlns="http://www.w3.org/2000/svg">
<path d="M23.0308 1.91732C21.8025 0.680931 20.1088 0 18.2617 0C15.0324 0 13.3627 1.65173 12.5307 3.03733C12.5204 3.05451 12.5101 3.07174 12.5 3.08892C12.4899 3.07174 12.4796 3.05451 12.4693 3.03733C11.6373 1.65173 9.96758 0 6.73828 0C4.89116 0 3.19751 0.680931 1.96924 1.91737C0.680957 3.21424 0 4.9895 0 7.05122C0 11.4292 3.91509 14.3319 7.36924 16.8929C9.09038 18.1689 10.7161 19.3742 11.7393 20.6379C11.9246 20.8669 12.2043 21 12.5 21C12.7957 21 13.0754 20.8669 13.2608 20.638C13.7871 19.988 14.5186 19.2969 15.5631 18.463C15.9836 18.1272 16.0507 17.5162 15.7129 17.0982C15.3752 16.6803 14.7605 16.6135 14.34 16.9492C13.6031 17.5376 13.0004 18.0697 12.5004 18.5754C11.3965 17.4567 9.99932 16.4208 8.53696 15.3366C5.30015 12.9368 1.95312 10.4552 1.95312 7.05122C1.95312 4.04268 3.92085 1.9415 6.73828 1.9415C8.57026 1.9415 9.923 2.6266 10.7588 3.97774C11.4224 5.05027 11.5256 6.16668 11.5263 6.17357C11.5654 6.67928 11.9896 7.0719 12.4998 7.0719C13.0101 7.0719 13.4341 6.68355 13.4733 6.17784C13.4743 6.16668 13.5775 5.05027 14.2411 3.97774C15.077 2.6266 16.4297 1.9415 18.2617 1.9415C21.0792 1.9415 23.0469 4.04268 23.0469 7.05122C23.0469 9.86824 20.7396 12.0523 18.2463 13.9929C17.8217 14.3234 17.747 14.9336 18.0795 15.3557C18.4119 15.7778 19.0257 15.8521 19.4504 15.5215C20.6365 14.5984 22.1397 13.3509 23.2455 11.886C24.4261 10.322 25 8.74052 25 7.05122C25 4.9895 24.319 3.21424 23.0308 1.91732Z" fill="#828282"/>
</svg>
