<svg width="16" height="16" viewBox="0 0 16 16" fill="none" xmlns="http://www.w3.org/2000/svg">
<path d="M12.6485 10.2968C11.9216 10.2968 11.2708 10.6283 10.8391 11.1481L9.00926 10.238C8.73886 10.1036 8.41057 10.2136 8.27609 10.4841C8.14159 10.7545 8.25178 11.0828 8.52221 11.2173L10.3548 12.1287C10.3169 12.296 10.297 12.4699 10.297 12.6484C10.297 13.9451 11.3519 15 12.6485 15C13.9452 15 15.0001 13.9451 15.0001 12.6484C15.0001 11.3517 13.9452 10.2968 12.6485 10.2968ZM12.6485 13.9062C11.955 13.9062 11.3907 13.3419 11.3907 12.6484C11.3907 12.4764 11.4254 12.3124 11.4882 12.1629C11.5016 12.143 11.5139 12.122 11.5249 12.0999C11.5366 12.0765 11.5464 12.0525 11.5545 12.0283C11.771 11.6478 12.1803 11.3906 12.6485 11.3906C13.3421 11.3906 13.9063 11.9548 13.9063 12.6484C13.9063 13.3419 13.3421 13.9062 12.6485 13.9062Z" fill="#E0E0E0" stroke="#E0E0E0" stroke-width="0.2"/>
<path d="M12.6485 1C11.3518 1 10.2969 2.0549 10.2969 3.35157C10.2969 3.53277 10.3175 3.70925 10.3565 3.87878L5.15188 6.48875C4.72018 5.97531 4.07333 5.64844 3.35157 5.64844C2.05492 5.64844 1 6.70334 1 8.00001C1 9.29668 2.05492 10.3516 3.35157 10.3516C4.07022 10.3516 4.7146 10.0275 5.14628 9.51792L6.02929 9.96731C6.10875 10.0078 6.19343 10.0269 6.27689 10.0269C6.47611 10.0269 6.66818 9.91768 6.76473 9.72797C6.90172 9.45877 6.79459 9.12953 6.52539 8.99253L5.64008 8.54199C5.68131 8.36795 5.70313 8.18647 5.70313 8.00001C5.70313 7.81656 5.68202 7.63795 5.64207 7.4665L10.844 4.85788C11.2757 5.37419 11.9244 5.70313 12.6485 5.70313C13.9451 5.70313 15 4.64824 15 3.35157C15 2.0549 13.9451 1 12.6485 1ZM3.35157 9.25782C2.65802 9.25782 2.09375 8.69356 2.09375 8.00001C2.09375 7.30646 2.65802 6.74219 3.35157 6.74219C4.04511 6.74219 4.60938 7.30646 4.60938 8.00001C4.60938 8.69356 4.04511 9.25782 3.35157 9.25782ZM12.6485 4.60938C11.9549 4.60938 11.3906 4.04511 11.3906 3.35157C11.3906 2.65802 11.9549 2.09375 12.6485 2.09375C13.342 2.09375 13.9063 2.65802 13.9063 3.35157C13.9063 4.04511 13.342 4.60938 12.6485 4.60938Z" fill="#E0E0E0" stroke="#E0E0E0" stroke-width="0.2"/>
</svg>
