<svg width="14" height="14" viewBox="0 0 14 14" fill="none" xmlns="http://www.w3.org/2000/svg">
<path d="M4.29167 0.90625H2.26042C1.90127 0.90625 1.55683 1.04892 1.30288 1.30288C1.04892 1.55683 0.90625 1.90127 0.90625 2.26042V4.29167M13.0938 4.29167V2.26042C13.0938 1.90127 12.9511 1.55683 12.6971 1.30288C12.4432 1.04892 12.0987 0.90625 11.7396 0.90625H9.70833M9.70833 13.0938H11.7396C12.0987 13.0938 12.4432 12.9511 12.6971 12.6971C12.9511 12.4432 13.0938 12.0987 13.0938 11.7396V9.70833M0.90625 9.70833V11.7396C0.90625 12.0987 1.04892 12.4432 1.30288 12.6971C1.55683 12.9511 1.90127 13.0938 2.26042 13.0938H4.29167" stroke="white" stroke-width="1.5" stroke-linecap="round" stroke-linejoin="round"/>
</svg>
