<svg width="66" height="60" viewBox="0 0 66 60" fill="none" xmlns="http://www.w3.org/2000/svg">
<path d="M42.0889 27.3301C42.0889 28.6852 41.7938 29.9866 41.2839 31.1539C39.8215 34.4544 36.5075 36.7621 32.6703 36.7621C28.8331 36.7621 25.5192 34.4544 24.0567 31.1539C23.5335 29.9866 23.2517 28.6852 23.2517 27.3301C23.2517 25.3176 23.8823 23.4526 24.9556 21.9231L29.8662 26.8337C31.2884 28.2558 33.5827 28.2558 35.0048 26.8337L40.1971 21.6414C41.3912 23.238 42.0889 25.1968 42.0889 27.3301Z" fill="#4F4F4F"/>
<path fill-rule="evenodd" clip-rule="evenodd" d="M56.6726 5.16547C55.6664 4.07871 54.593 3.05904 53.4392 2.10644C53.4392 2.10644 53.4258 2.10644 53.4258 2.09302C53.1977 1.91861 52.983 1.73077 52.7549 1.55635C52.7549 1.55635 52.7415 1.54293 52.7281 1.54293C51.373 0.576923 49.7093 0 47.9249 0C43.5376 0 39.9419 3.40787 39.6467 7.7415V8.06351H45.8587H45.9123H45.966C46.6637 8.07692 47.2943 8.30501 47.8175 8.68068C47.9919 8.80143 48.1395 8.94902 48.2871 9.0966C48.8238 9.67353 49.1592 10.4517 49.1592 11.297C49.1592 12.1422 48.8372 12.9204 48.3005 13.4973L45.5232 16.3283L43.3363 18.5152C45.322 20.9034 46.5161 23.9759 46.5161 27.3301C46.5161 28.6583 46.3283 29.9463 45.9794 31.1538C44.3157 36.9365 38.9893 41.1628 32.6834 41.1628C26.3775 41.1628 21.0376 36.9365 19.3873 31.1538C19.0385 29.9463 18.8506 28.6583 18.8506 27.3301C18.8506 24.0966 19.9508 21.1315 21.8157 18.7701L19.4812 16.4624L16.7979 13.7791L16.8113 13.7657C16.1404 13.1753 15.7111 12.3032 15.7111 11.3238C15.7111 10.398 16.1002 9.55278 16.7173 8.96244C16.8918 8.78802 17.093 8.64043 17.3077 8.51968C17.3077 8.51968 17.3211 8.51968 17.3211 8.50627C17.7236 8.26476 18.1798 8.11718 18.6628 8.07693C18.7567 8.06351 18.864 8.06351 18.958 8.06351C19.0519 8.06351 19.1458 8.06351 19.2397 8.07693H25.6932V7.91592C25.4383 3.54204 21.8023 0.0805017 17.3614 0.0805017C15.4562 0.0805017 13.6851 0.724512 12.2764 1.79786C12.1422 1.90519 12.008 2.01253 11.8739 2.13328C10.6529 3.13954 9.4991 4.23972 8.43918 5.4204C3.1932 11.2165 0 18.9043 0 27.3301C0 45.3757 14.6243 60 32.6699 60C50.7156 60 65.3399 45.3757 65.3399 27.3301C65.3399 18.7835 62.0528 10.9884 56.6726 5.16547ZM17.7907 47.4553C18.1127 47.6699 18.5152 47.8041 18.9445 47.8041C20.085 47.8041 21.0241 46.8649 21.0376 45.7245C21.0376 45.0805 20.7424 44.517 20.2996 44.1279L20.3131 44.1413C20.2862 44.1145 20.246 44.0877 20.2057 44.0608H20.1923C20.1655 44.034 20.1252 44.0206 20.0984 43.9937C16.0331 40.9213 13.1351 36.3864 12.1691 31.1807C12.1288 30.9929 12.102 30.8184 12.0751 30.644C12.0617 30.5635 12.0483 30.4964 12.0349 30.4159V30.4025C11.9946 30.2013 11.9275 30 11.8202 29.8256C11.7934 29.7719 11.7531 29.7317 11.7263 29.678C11.686 29.6377 11.6592 29.5841 11.619 29.5438C11.5787 29.4902 11.5385 29.4499 11.4982 29.4097L11.4311 29.3426C11.0555 28.9937 10.5456 28.7657 9.98211 28.7657C9.83452 28.7657 9.71377 28.7791 9.5796 28.8059C9.36494 28.8462 9.16368 28.9132 8.97585 29.0206C8.33184 29.3828 7.9025 30.0537 7.9025 30.8453C7.9025 30.8989 7.91592 30.966 7.91592 31.0197C7.91592 31.1136 7.94275 31.1941 7.95617 31.288C9.00268 37.8354 12.5716 43.5376 17.6565 47.3614C17.7102 47.3882 17.7504 47.4284 17.7907 47.4553Z" fill="#4F4F4F"/>
<path fill-rule="evenodd" clip-rule="evenodd" d="M32.5511 41.1622V59.9998C14.5602 59.9358 0 45.3361 0 27.3301C0 18.9044 3.1932 11.2165 8.43918 5.42045C9.4991 4.23977 10.6529 3.13959 11.8739 2.13333C12.008 2.01257 12.1422 1.90524 12.2764 1.79791C13.6851 0.72456 15.4562 0.0805511 17.3614 0.0805511C21.8023 0.0805511 25.4383 3.54209 25.6932 7.91597V8.07698H19.2397C19.1458 8.06356 19.0519 8.06356 18.958 8.06356C18.864 8.06356 18.7567 8.06356 18.6628 8.07698C18.1798 8.11723 17.7236 8.26481 17.3211 8.50631C17.3211 8.51973 17.3077 8.51973 17.3077 8.51973C17.093 8.64048 16.8918 8.78807 16.7173 8.96249C16.1002 9.55283 15.7111 10.3981 15.7111 11.3238C15.7111 12.3033 16.1404 13.1754 16.8113 13.7657L16.7979 13.7791L19.4812 16.4625L21.8157 18.7702C19.9508 21.1315 18.8506 24.0967 18.8506 27.3301C18.8506 28.6584 19.0385 29.9464 19.3873 31.1539C21.026 36.8961 26.3029 41.1036 32.5511 41.1622ZM18.9445 47.8042C18.5152 47.8042 18.1127 47.67 17.7907 47.4553C17.7763 47.4457 17.7618 47.4343 17.7467 47.4225C17.7198 47.4013 17.6909 47.3786 17.6565 47.3614C12.5716 43.5376 9.00268 37.8355 7.95617 31.2881C7.95143 31.2549 7.94502 31.2234 7.9387 31.1924C7.92714 31.1356 7.91592 31.0805 7.91592 31.0197C7.91592 30.9929 7.91257 30.9627 7.90921 30.9325C7.90586 30.9023 7.9025 30.8722 7.9025 30.8453C7.9025 30.0537 8.33184 29.3829 8.97585 29.0206C9.16368 28.9133 9.36494 28.8462 9.5796 28.806C9.71377 28.7791 9.83452 28.7657 9.98211 28.7657C10.5456 28.7657 11.0555 28.9938 11.4311 29.3426L11.4982 29.4097C11.5385 29.45 11.5787 29.4902 11.619 29.5439C11.6391 29.564 11.6559 29.5875 11.6726 29.611C11.6894 29.6344 11.7062 29.6579 11.7263 29.6781C11.7397 29.7049 11.7565 29.7284 11.7733 29.7518C11.79 29.7753 11.8068 29.7988 11.8202 29.8256C11.9275 30.0001 11.9946 30.2013 12.0349 30.4026V30.416C12.0416 30.4562 12.0483 30.4931 12.055 30.53C12.0617 30.5669 12.0684 30.6038 12.0751 30.6441C12.102 30.8185 12.1288 30.9929 12.1691 31.1807C13.1351 36.3865 16.0331 40.9214 20.0984 43.9938C20.1118 44.0072 20.1286 44.0173 20.1453 44.0273C20.1621 44.0374 20.1789 44.0475 20.1923 44.0609H20.2057C20.2459 44.0877 20.2862 44.1145 20.313 44.1414L20.2996 44.128C20.7424 44.5171 21.0376 45.0806 21.0376 45.7246C21.0241 46.865 20.085 47.8042 18.9445 47.8042Z" fill="#4F4F4F"/>
<path fill-rule="evenodd" clip-rule="evenodd" d="M18.8677 26.7476H0.0102539C0.153791 18.5504 3.31955 11.0828 8.44433 5.42067C9.50426 4.23999 10.6581 3.13982 11.879 2.13355C12.0132 2.0128 12.1474 1.90547 12.2815 1.79813C13.6903 0.724789 15.4613 0.08078 17.3665 0.08078C21.8075 0.08078 25.4434 3.54232 25.6984 7.9162V8.0772H19.2449C19.151 8.06379 19.057 8.06378 18.9631 8.06378C18.8692 8.06378 18.7619 8.06379 18.6679 8.0772C18.1849 8.11745 17.7288 8.26504 17.3263 8.50654C17.3263 8.51996 17.3128 8.51996 17.3128 8.51996C17.0982 8.64071 16.8969 8.78829 16.7225 8.96271C16.1053 9.55305 15.7162 10.3983 15.7162 11.3241C15.7162 12.3035 16.1456 13.1756 16.8164 13.7659L16.803 13.7793L19.4864 16.4627L21.8209 18.7704C20.0686 20.9892 18.9914 23.741 18.8677 26.7476Z" fill="#4F4F4F"/>
</svg>
