<svg width="22" height="22" viewBox="0 0 22 22" fill="none" xmlns="http://www.w3.org/2000/svg">
<path d="M20.3633 9.35337C22.5483 7.16401 22.5444 3.82714 20.359 1.64182C18.1613 -0.555911 14.8053 -0.536278 12.643 1.64165C11.3814 2.91208 10.8729 4.62229 11.1003 6.25741L0.700825 17.2789C-0.255649 18.2999 -0.229958 19.8744 0.759208 20.8636L1.1373 21.2417C2.12651 22.231 3.70119 22.2564 4.72361 21.2985L15.7435 10.9005C17.5033 11.1452 19.2372 10.5122 20.3633 9.35337ZM19.4478 2.55314C20.9719 4.07734 21.1131 6.30433 19.8714 7.95878L14.0421 2.12947C15.6978 0.886918 17.9245 1.02989 19.4478 2.55314ZM3.84081 20.3596C3.3304 20.8377 2.54319 20.8249 2.04858 20.3303L1.67049 19.9522C1.17593 19.4577 1.16308 18.6705 1.63973 18.1617L11.5093 7.70183C12.0555 8.94374 13.0548 9.94437 14.299 10.4915L3.84081 20.3596ZM13.5544 8.44643C12.0847 6.97662 11.9447 4.67303 13.1342 3.04414L18.9567 8.86671C17.3278 10.0562 15.0243 9.91623 13.5544 8.44643Z" fill="#E0E0E0"/>
</svg>
