<svg width="70" height="70" viewBox="0 0 70 70" fill="none" xmlns="http://www.w3.org/2000/svg">
<path d="M27.1875 19H25C22.243 19 20 21.243 20 24V46.0001C20 48.757 22.243 51.0001 25 51.0001H27.1875C29.9445 51.0001 32.1875 48.757 32.1875 46.0001V24C32.1875 21.243 29.9445 19 27.1875 19ZM29.6875 46.0001C29.6875 47.3785 28.566 48.5001 27.1875 48.5001H25C23.6215 48.5001 22.5 47.3785 22.5 46.0001V24C22.5 22.6215 23.6215 21.5 25 21.5H27.1875C28.566 21.5 29.6875 22.6215 29.6875 24V46.0001Z" fill="#F2C94C"/>
<path d="M49.5625 41C50.2529 41 50.8124 40.4403 50.8124 39.7501V24C50.8124 21.243 48.5695 19 45.8125 19H43.6874C40.9304 19 38.6875 21.243 38.6875 24V46.0001C38.6875 48.757 40.9304 51.0001 43.6874 51.0001H45.8125C48.5695 51.0001 50.8124 48.757 50.8124 46.0001C50.8124 45.3097 50.2529 44.75 49.5625 44.75C48.8721 44.75 48.3124 45.3097 48.3124 46.0001C48.3124 47.3785 47.1909 48.5001 45.8125 48.5001H43.6874C42.309 48.5001 41.1875 47.3785 41.1875 46.0001V24C41.1875 22.6215 42.309 21.5 43.6874 21.5H45.8125C47.1909 21.5 48.3124 22.6215 48.3124 24V39.7501C48.3124 40.4403 48.8721 41 49.5625 41Z" fill="#F2C94C"/>
</svg>
