<svg width="24" height="24" viewBox="0 0 24 24" fill="none" xmlns="http://www.w3.org/2000/svg">
<path d="M8.53125 7.73438C8.53125 3.46964 12.0009 0 16.2656 0C20.5304 0 24 3.46964 24 7.73438C24 9.68916 23.6364 11.6326 23.2849 13.5121C22.9451 15.3285 22.5938 17.2069 22.5938 19.0312C22.5938 21.771 20.3858 24 17.6719 24C14.958 24 12.75 21.771 12.75 19.0312C12.75 18.6821 12.7864 18.3037 12.85 17.9932C13.1931 16.3166 11.9583 14.3651 10.7966 13.2034C9.33577 11.7426 8.53125 9.8003 8.53125 7.73438ZM14.2277 18.2751C14.183 18.4937 14.1562 18.7764 14.1562 19.0312C14.1562 20.9956 15.7334 22.5938 17.6719 22.5938C19.6104 22.5938 21.1875 20.9956 21.1875 19.0312C21.1875 17.0765 21.5511 15.133 21.9026 13.2535C22.2424 11.4371 22.5938 9.55875 22.5938 7.73438C22.5938 4.24505 19.755 1.40625 16.2656 1.40625C12.7763 1.40625 9.9375 4.24505 9.9375 7.73438C9.9375 9.42469 10.5957 11.0138 11.7909 12.209C13.267 13.6851 14.6823 16.0538 14.2277 18.2751Z" fill="white"/>
<path d="M15.3461 2.89664C18.4361 2.33072 21.1875 4.69462 21.1875 7.73428C21.1875 9.42684 20.8639 11.1468 20.5205 12.9718C20.4102 13.5577 20.2961 14.1636 20.1938 14.7672C19.9866 15.9885 18.9518 16.8749 17.7334 16.8749C16.5488 16.8749 15.5205 16.0319 15.2883 14.8704C15.2865 14.6543 14.4399 12.3848 16.1991 10.2389C17.0859 9.15722 18.3732 8.51137 19.7612 8.4434C19.7743 8.20481 19.7812 7.96851 19.7812 7.73428C19.7812 5.61473 17.8706 3.864 15.5994 4.27987C12.8402 4.78518 11.7865 8.22604 13.7796 10.2208L12.7847 11.2147C10.0169 8.44448 11.4379 3.61237 15.3461 2.89664ZM17.2866 11.1304C15.9965 12.7041 16.6626 14.3539 16.6672 14.5946C16.7685 15.1011 17.2169 15.4687 17.7334 15.4687C18.2636 15.4687 18.7152 15.0747 18.8073 14.532C18.9118 13.9159 19.027 13.3037 19.1392 12.7076C19.3232 11.7296 19.5015 10.782 19.6234 9.86423C18.7119 9.96281 17.8756 10.412 17.2866 11.1304Z" fill="white"/>
<path d="M0 11.25H7.07812V12.6562H0V11.25Z" fill="white"/>
<path d="M6.06158 16.9488L6.69043 18.2065L1.06595 21.0188L0.437096 19.7611L6.06158 16.9488Z" fill="white"/>
<path d="M1.06448 2.88722L6.68896 5.69946L6.06011 6.95717L0.435625 4.14493L1.06448 2.88722Z" fill="white"/>
</svg>
