<svg width="23" height="23" viewBox="0 0 23 23" fill="none" xmlns="http://www.w3.org/2000/svg">
<path d="M8 18V11.5M22 15.6667V1.5L8 3.83333V8.5" stroke="#828282" stroke-width="1.6" stroke-linecap="round" stroke-linejoin="round"/>
<path d="M4.5 21.5C6.433 21.5 8 19.933 8 18C8 16.067 6.433 14.5 4.5 14.5C2.567 14.5 1 16.067 1 18C1 19.933 2.567 21.5 4.5 21.5Z" stroke="#828282" stroke-width="1.6" stroke-linecap="round" stroke-linejoin="round"/>
<path d="M18.5 19.1667C20.433 19.1667 22 17.5997 22 15.6667C22 13.7337 20.433 12.1667 18.5 12.1667C16.567 12.1667 15 13.7337 15 15.6667C15 17.5997 16.567 19.1667 18.5 19.1667Z" stroke="#828282" stroke-width="1.6" stroke-linecap="round" stroke-linejoin="round"/>
</svg>
