<svg width="23" height="26" viewBox="0 0 23 26" fill="none" xmlns="http://www.w3.org/2000/svg">
<path d="M20.8722 21.2257L20.8722 21.2246L20.8722 20.8888C20.6621 19.5012 19.403 18.5189 18.0043 18.6544L20.8722 21.2257ZM20.8722 21.2257C20.8725 21.286 20.8815 21.346 20.8987 21.4037C20.8343 22.8122 19.6738 23.9254 18.2593 23.9272C16.8496 23.9273 15.6882 22.8205 15.6201 21.4126M20.8722 21.2257L15.6201 21.4126M15.6201 21.4126C15.5519 20.0043 16.6012 18.7907 18.0043 18.6544L15.6201 21.4126ZM4.16385 21.0413H4.16401C6.31435 21.0389 8.05681 19.2965 8.05915 17.1461V17.1459V10.4695L20.8722 7.87394V13.2605V16.0761V18.398C19.5919 17.2356 17.6708 17.0429 16.1718 17.9836C14.5281 19.0149 13.8906 21.0966 14.6749 22.8716C15.4591 24.6467 17.4275 25.5771 19.2971 25.056C21.1622 24.5364 22.3646 22.729 22.1249 20.809V2.84805C22.1249 2.23377 21.8493 1.65172 21.3737 1.26281C20.8981 0.873616 20.2729 0.718886 19.6709 0.840706L19.6708 0.840715L8.44764 3.11422L8.44714 3.11433C7.49404 3.30993 6.80911 4.14741 6.80665 5.1205V5.121V14.2864C5.63282 13.2006 3.89077 12.9322 2.42798 13.6601L2.42797 13.6601C0.809504 14.4657 -0.0420502 16.2788 0.372017 18.0387C0.785801 19.7985 2.35604 21.0418 4.16385 21.0413ZM19.9196 2.06887L19.9197 2.06885C20.1534 2.0214 20.396 2.08149 20.5804 2.23249L20.5805 2.23256C20.7652 2.38356 20.8722 2.60928 20.8722 2.84805V6.59583L8.05942 9.19138L8.05942 5.12175C8.05942 5.12169 8.05942 5.12162 8.05942 5.12156C8.0604 4.74352 8.32635 4.41827 8.69671 4.34204C8.69679 4.34202 8.69686 4.34201 8.69694 4.34199L19.9196 2.06887ZM4.16428 14.5033C5.62354 14.5034 6.80665 15.6864 6.80665 17.1459C6.80665 18.6053 5.62342 19.7885 4.16407 19.7885C2.70449 19.7885 1.52154 18.6053 1.52148 17.146C1.52309 15.6871 2.70562 14.5049 4.16428 14.5033Z" fill="#E0E0E0" stroke="#E0E0E0" stroke-width="0.4"/>
</svg>
