<svg width="21" height="22" viewBox="0 0 21 22" fill="none" xmlns="http://www.w3.org/2000/svg">
<path d="M11.2389 0C12.0708 0 12.824 0.462 13.2399 1.144C13.4423 1.474 13.5772 1.881 13.5435 2.31C13.521 2.64 13.6222 2.97 13.802 3.278C14.3753 4.213 15.6456 4.565 16.6349 4.037C17.7478 3.399 19.153 3.784 19.7938 4.873L20.5469 6.171C21.1989 7.26 20.8392 8.657 19.7151 9.284C18.7595 9.845 18.4223 11.088 18.9956 12.034C19.1755 12.331 19.3778 12.584 19.6926 12.738C20.086 12.947 20.3896 13.277 20.6031 13.607C21.0191 14.289 20.9854 15.125 20.5807 15.862L19.7938 17.182C19.3778 17.886 18.6022 18.326 17.804 18.326C17.4105 18.326 16.9721 18.216 16.6124 17.996C16.3201 17.809 15.9829 17.743 15.6231 17.743C14.5102 17.743 13.5772 18.656 13.5435 19.745C13.5435 21.01 12.5092 22 11.2165 22H9.68762C8.3836 22 7.34938 21.01 7.34938 19.745C7.3269 18.656 6.39385 17.743 5.28094 17.743C4.90997 17.743 4.57272 17.809 4.29168 17.996C3.93195 18.216 3.48229 18.326 3.10008 18.326C2.29069 18.326 1.51502 17.886 1.09909 17.182L0.323422 15.862C-0.0925149 15.147 -0.114998 14.289 0.300939 13.607C0.480803 13.277 0.818049 12.947 1.20026 12.738C1.51502 12.584 1.71737 12.331 1.90848 12.034C2.47055 11.088 2.13331 9.845 1.17778 9.284C0.0648666 8.657 -0.294862 7.26 0.345905 6.171L1.09909 4.873C1.7511 3.784 3.14505 3.399 4.2692 4.037C5.24721 4.565 6.51751 4.213 7.09082 3.278C7.27069 2.97 7.37186 2.64 7.34938 2.31C7.3269 1.881 7.45055 1.474 7.66414 1.144C8.08008 0.462 8.83326 0.022 9.65389 0H11.2389ZM10.4633 7.898C8.69836 7.898 7.27069 9.284 7.27069 11.011C7.27069 12.738 8.69836 14.113 10.4633 14.113C12.2282 14.113 13.6222 12.738 13.6222 11.011C13.6222 9.284 12.2282 7.898 10.4633 7.898Z" fill="#F2F2F2"/>
</svg>
