<svg width="70" height="70" viewBox="0 0 70 70" fill="none" xmlns="http://www.w3.org/2000/svg">
<path d="M49.427 31.6972L30.1332 19.8041C28.7374 18.9448 27.0497 18.9091 25.6187 19.7086C24.1877 20.5079 23.3334 21.964 23.3334 23.6031V47.2809C23.3334 49.7593 25.3304 51.7865 27.7849 51.7999C27.7916 51.7999 27.7983 51.8 27.8048 51.8C28.5719 51.7999 29.3712 51.5595 30.1177 51.104C30.7183 50.7375 30.9081 49.9537 30.5417 49.3532C30.1753 48.7525 29.3913 48.5628 28.7909 48.9292C28.4417 49.1422 28.1007 49.2523 27.7986 49.2523C26.8725 49.2472 25.8809 48.4539 25.8809 47.2809V23.6032C25.8809 22.9 26.2474 22.2756 26.8612 21.9326C27.475 21.5897 28.1989 21.605 28.7969 21.9732L48.0908 33.8663C48.6707 34.2233 49.0025 34.8186 49.0011 35.4997C48.9997 36.1806 48.6654 36.7746 48.0823 37.1304L34.1328 45.6715C33.5328 46.0389 33.3442 46.8231 33.7116 47.423C34.0789 48.023 34.8631 48.2116 35.4631 47.8442L49.411 39.3042C50.7464 38.4895 51.5456 37.0693 51.5488 35.5048C51.552 33.9405 50.7585 32.5169 49.427 31.6972Z" fill="#F2C94C"/>
</svg>
