<svg width="16" height="21" viewBox="0 0 16 21" fill="none" xmlns="http://www.w3.org/2000/svg">
<path d="M12.299 5.45332C12.1487 5.217 11.8509 5.10469 11.571 5.17887C11.2909 5.25305 11.0973 5.4953 11.0973 5.77151C11.0973 6.52245 10.4543 7.1332 9.66413 7.1332C8.87377 7.1332 8.23095 6.52245 8.23095 5.77151V0.615243C8.23095 0.366425 8.07312 0.142121 7.83113 0.0467918C7.58915 -0.0483772 7.31058 0.00433427 7.12542 0.180253C7.05291 0.249306 5.32598 1.89938 3.57662 4.39268C2.54512 5.86284 1.72187 7.32113 1.12998 8.72704C0.380259 10.508 0 12.2132 0 13.7949C0 17.7678 3.40192 21 7.58325 21C11.7647 21 15.1667 17.7678 15.1667 13.7949C15.1667 11.2519 14.2018 8.44538 12.299 5.45332V5.45332ZM7.58325 19.7695C4.11607 19.7695 1.29507 17.0893 1.29507 13.7949C1.29507 10.5521 3.11407 7.27419 4.64017 5.09524C5.46729 3.91428 6.30082 2.91901 6.93571 2.21117V5.77151C6.93571 7.20081 8.15962 8.36367 9.66396 8.36367C10.5837 8.36367 11.3987 7.92916 11.8931 7.26474C13.2067 9.61496 13.8716 11.8071 13.8716 13.7949C13.8716 17.0893 11.0508 19.7695 7.58325 19.7695Z" fill="#7D7D7D"/>
</svg>
