<svg width="76" height="76" viewBox="0 0 76 76" fill="none" xmlns="http://www.w3.org/2000/svg">
<path d="M38.0137 17.4546C25.2002 17.4546 14.7295 27.5196 14.0005 40.1507H13.5378C8.47687 40.1507 4.35416 44.2869 4.35416 49.3618C4.35416 54.4227 8.47687 58.5426 13.5378 58.5426H15.3038C16.0749 58.5426 16.7057 57.9118 16.7057 57.1407V41.5527C16.7057 29.8187 26.252 20.2585 38 20.2585C49.748 20.2585 59.2942 29.8047 59.2942 41.5527V57.1407C59.2942 57.9118 59.9251 58.5426 60.6961 58.5426H62.4622C67.5231 58.5426 71.6458 54.423 71.6458 49.3482C71.6458 44.2872 67.5231 40.1507 62.4622 40.1507H62.0296C61.3006 27.5196 50.8131 17.4546 38.0137 17.4546H38.0137ZM38 26.0332C29.4343 26.0332 22.4667 33.0008 22.4667 41.5664C22.4667 50.1321 29.4343 57.0859 38 57.0859C46.5657 57.0859 53.5333 50.1183 53.5333 41.5527C53.5333 32.987 46.5657 26.0332 38 26.0332ZM38 28.8233C45.0095 28.8233 50.7294 34.5291 50.7294 41.5527C50.7294 48.5763 45.0095 54.2822 38 54.2822C30.9764 54.2822 25.2705 48.5763 25.2705 41.5527C25.2705 34.5291 30.9764 28.8233 38 28.8233ZM33.3096 35.466C32.9521 35.466 32.5945 35.6005 32.3212 35.8739C31.7744 36.4207 31.7744 37.304 32.3212 37.8507L36.0231 41.5527L32.3212 45.2546C31.7744 45.8013 31.7744 46.6848 32.3212 47.2316C32.6015 47.5121 32.9533 47.6369 33.3178 47.6369C33.6823 47.6369 34.0314 47.4977 34.3118 47.2316L38 43.5433L41.7019 47.2453C41.9823 47.5258 42.3313 47.6506 42.6958 47.6506C43.0603 47.6506 43.4121 47.511 43.6925 47.2453C44.2393 46.6986 44.2393 45.815 43.6925 45.2683L39.9906 41.5664L43.6925 37.8646C44.2252 37.3178 44.2256 36.4207 43.6788 35.8739C43.132 35.3272 42.2486 35.3272 41.7019 35.8739L38 39.5757L34.2981 35.8739C34.0247 35.6005 33.6671 35.466 33.3096 35.466H33.3096Z" fill="#4F4F4F"/>
</svg>
