<svg width="20" height="19" viewBox="0 0 20 19" fill="none" xmlns="http://www.w3.org/2000/svg">
<path d="M17.9996 1.1135C17.2816 0.395438 16.3269 0 15.3115 0C14.2961 0 13.3414 0.395437 12.6234 1.11347L1.99915 11.7377C1.90875 11.8281 1.84325 11.9403 1.80896 12.0635L0.140229 18.0588C0.0682738 18.3174 0.141491 18.5947 0.331825 18.784C0.47284 18.9243 0.661801 19 0.85529 19C0.922903 19 0.99111 18.9907 1.05802 18.9717L7.0533 17.2687C7.30624 17.1969 7.50232 16.9965 7.56867 16.7421C7.63502 16.4876 7.56177 16.2171 7.37611 16.0308L3.59645 12.2397L12.4031 3.43303L15.6783 6.70822L8.93645 13.4317C8.64622 13.7211 8.64559 14.191 8.93504 14.4813C9.22446 14.7715 9.69445 14.7721 9.98464 14.4827L17.9995 6.48965C18.7176 5.77162 19.113 4.81698 19.113 3.80156C19.113 2.78613 18.7176 1.8315 17.9996 1.1135ZM5.43433 16.1856L1.92497 17.1824L2.90781 13.6514L5.43433 16.1856ZM16.9507 5.43931L16.7293 5.66007L13.4527 2.38342L13.6731 2.16307C14.1107 1.7254 14.6926 1.48438 15.3115 1.48438C15.9305 1.48438 16.5123 1.7254 16.95 2.16311C17.3876 2.60074 17.6287 3.18261 17.6287 3.80156C17.6287 4.42051 17.3876 5.00238 16.9507 5.43931Z" fill="white"/>
</svg>
