<svg width="26" height="24" viewBox="0 0 26 24" fill="none" xmlns="http://www.w3.org/2000/svg">
<path d="M21.0725 2.04667L17.5853 0.148863C16.7817 -0.288323 15.7959 0.2898 15.7959 1.20105V14.44H13.3745C10.7198 14.44 8.55994 16.5844 8.55994 19.22C8.55994 21.8075 10.6619 24 13.3987 24C16.0533 24 18.2132 21.8556 18.2132 19.22C18.2132 18.3841 18.2132 4.01884 18.2132 3.22729L19.9107 4.15134C21.8354 5.19915 23.0315 7.19977 23.0315 9.37257V11.941C23.0315 12.6035 23.5726 13.141 24.2402 13.141C24.9078 13.141 25.4488 12.6035 25.4488 11.941V9.37257C25.4488 6.3229 23.7718 3.51603 21.0725 2.04667ZM15.7956 19.22C15.7956 20.4972 14.7647 21.6 13.3745 21.6C12.0528 21.6 10.9773 20.5322 10.9773 19.22C10.9773 17.9078 12.0528 16.84 13.3745 16.84H15.7956V19.22Z" fill="#E0E0E0"/>
<path fill-rule="evenodd" clip-rule="evenodd" d="M19.9107 4.15134C21.8354 5.19915 23.0315 7.19977 23.0315 9.37257V11.941C23.0315 12.6035 23.5726 13.141 24.2402 13.141C24.9078 13.141 25.4488 12.6035 25.4488 11.941V9.37257C25.4488 6.3229 23.7718 3.51603 21.0725 2.04667L17.5853 0.148863C16.7817 -0.288323 15.7959 0.2898 15.7959 1.20105V14.44H13.3745C10.7198 14.44 8.55994 16.5844 8.55994 19.22C8.55994 21.8075 10.6619 24 13.3987 24C16.0533 24 18.2132 21.8556 18.2132 19.22V3.22729L19.9107 4.15134ZM17.1072 1.02721C17.1072 1.02719 17.1073 1.02723 17.1072 1.02721C16.9583 0.946279 16.7959 1.06177 16.7959 1.20105V15.44H13.3745C11.2653 15.44 9.55994 17.1435 9.55994 19.22C9.55994 21.2595 11.2185 23 13.3987 23C15.5079 23 17.2132 21.2966 17.2132 19.22V1.54435L20.3888 3.27305C22.6316 4.49401 24.0315 6.82946 24.0315 9.37257V11.941C24.0315 12.0446 24.1182 12.141 24.2402 12.141C24.3621 12.141 24.4488 12.0446 24.4488 11.941V9.37257C24.4488 6.69283 22.9753 4.22104 20.5944 2.92502M20.5944 2.92502L17.1072 1.02721L20.5944 2.92502ZM16.7956 15.84V19.22C16.7956 21.0411 15.3254 22.6 13.3745 22.6C11.5073 22.6 9.97727 21.0913 9.97727 19.22C9.97727 17.3488 11.5073 15.84 13.3745 15.84H16.7956ZM13.3745 21.6C14.7647 21.6 15.7956 20.4972 15.7956 19.22V16.84H13.3745C12.0528 16.84 10.9773 17.9078 10.9773 19.22C10.9773 20.5322 12.0528 21.6 13.3745 21.6Z" fill="#E0E0E0"/>
<path fill-rule="evenodd" clip-rule="evenodd" d="M-8.74235e-08 3.83984C-3.91408e-08 3.28756 0.447715 2.83984 1 2.83984L12.52 2.83984C13.0723 2.83984 13.52 3.28756 13.52 3.83984C13.52 4.39213 13.0723 4.83984 12.52 4.83984L1 4.83984C0.447715 4.83984 -1.35706e-07 4.39213 -8.74235e-08 3.83984Z" fill="#E0E0E0"/>
<path fill-rule="evenodd" clip-rule="evenodd" d="M-8.74235e-08 8.64014C-3.91408e-08 8.08785 0.447715 7.64014 1 7.64014L12.52 7.64014C13.0723 7.64014 13.52 8.08785 13.52 8.64014C13.52 9.19242 13.0723 9.64014 12.52 9.64014L1 9.64014C0.447715 9.64014 -1.35706e-07 9.19242 -8.74235e-08 8.64014Z" fill="#E0E0E0"/>
<path fill-rule="evenodd" clip-rule="evenodd" d="M-8.74238e-08 13.4399C-3.91409e-08 12.8877 0.447715 12.4399 1 12.4399L8.68 12.4399C9.23229 12.4399 9.68 12.8877 9.68 13.4399C9.68 13.9922 9.23229 14.4399 8.68 14.4399L1 14.4399C0.447715 14.4399 -1.35707e-07 13.9922 -8.74238e-08 13.4399Z" fill="#E0E0E0"/>
</svg>
