<svg width="24" height="25" viewBox="0 0 24 25" fill="none" xmlns="http://www.w3.org/2000/svg">
<path d="M8.90625 0.508118C4.38305 0.508118 0.703125 4.18804 0.703125 8.71124V19.8206C0.703125 22.4054 2.80589 24.5081 5.39062 24.5081C7.97536 24.5081 10.0781 22.4054 10.0781 19.8206C10.0781 19.2637 10.3547 18.7469 10.8181 18.438L12.506 17.3127C15.3885 15.391 17.1094 12.1755 17.1094 8.71124C17.1094 4.18804 13.4295 0.508118 8.90625 0.508118ZM11.726 16.1426L10.038 17.2679C9.18263 17.8382 8.67188 18.7925 8.67188 19.8206C8.67188 21.6299 7.19991 23.1019 5.39062 23.1019C3.58134 23.1019 2.10938 21.6299 2.10938 19.8206V8.71124C2.10938 4.96345 5.15845 1.91437 8.90625 1.91437C12.654 1.91437 15.7031 4.96345 15.7031 8.71124C15.7031 11.7043 14.2163 14.4824 11.726 16.1426Z" fill="white"/>
<path d="M9.6135 4.30982C8.31858 4.11449 7.01152 4.48851 6.02723 5.33545C5.04234 6.18299 4.47703 7.41168 4.47567 8.70688L4.44014 11.6054C4.43161 12.3033 4.70916 12.986 5.20163 13.4785L5.27977 13.5566C5.49492 13.7718 5.61202 14.0557 5.60939 14.356C5.60686 14.6504 5.48911 14.9251 5.27836 15.1287L5.25089 15.1552C4.75823 15.6319 4.47567 16.2999 4.47567 16.9879V17.6175C4.47567 18.7806 5.42194 19.7269 6.58505 19.7269C6.97336 19.7269 7.28817 19.4121 7.28817 19.0237C7.28817 18.6354 6.97336 18.3206 6.58505 18.3206C6.19734 18.3206 5.88192 18.0052 5.88192 17.6175V16.9879C5.88192 16.6787 6.00834 16.3791 6.22992 16.1647L6.25491 16.1405C6.73969 15.6721 7.00978 15.0427 7.01564 14.368C7.0215 13.6875 6.7582 13.0462 6.27417 12.5622L6.19603 12.4841C5.96653 12.2546 5.84236 11.9486 5.84634 11.6225L5.86889 9.78243L5.88197 9.6487C5.88197 9.00252 6.40767 8.47682 7.05384 8.47682C7.70002 8.47682 8.22572 9.00252 8.22572 9.6487C8.22572 10.037 8.54053 10.3518 8.92884 10.3518C9.31716 10.3518 9.63197 10.037 9.63197 9.6487C9.63197 8.22712 8.47542 7.07057 7.05384 7.07057C6.78947 7.07057 6.53433 7.1107 6.29405 7.18495C6.46369 6.89287 6.68203 6.62723 6.94453 6.40129C7.62797 5.81315 8.50158 5.56438 9.40392 5.70023C11.0178 5.94351 12.1344 7.51073 11.946 9.26807C11.7819 10.7983 10.9518 12.1667 9.66849 13.0224C9.34542 13.2379 9.25814 13.6744 9.47363 13.9975C9.68911 14.3206 10.1257 14.408 10.4487 14.1924C12.0802 13.1045 13.1355 11.3643 13.3442 9.41803C13.6132 6.90946 11.9745 4.66565 9.6135 4.30982V4.30982Z" fill="white"/>
<path d="M21.8576 5.23096C21.583 4.95641 21.1378 4.95641 20.8632 5.23096C20.5886 5.50551 20.5886 5.95073 20.8632 6.22532C22.2339 7.59609 22.2339 9.8264 20.8632 11.1972C20.5886 11.4717 20.5886 11.9169 20.8632 12.1915C21.0005 12.3288 21.1805 12.3975 21.3604 12.3975C21.5403 12.3975 21.7203 12.3288 21.8575 12.1915C23.7766 10.2725 23.7766 7.14998 21.8576 5.23096V5.23096Z" fill="white"/>
<path d="M18.8745 7.21973C18.5999 7.49427 18.5999 7.93949 18.8745 8.21409C19.0073 8.34688 19.0805 8.52346 19.0805 8.71124C19.0805 8.89902 19.0073 9.0756 18.8745 9.2084C18.5999 9.48295 18.5999 9.92816 18.8745 10.2028C19.0118 10.3401 19.1918 10.4087 19.3717 10.4087C19.5516 10.4087 19.7316 10.3401 19.8688 10.2028C20.2673 9.80437 20.4867 9.27463 20.4867 8.71124C20.4867 8.14785 20.2673 7.61812 19.8688 7.21973C19.5943 6.94513 19.149 6.94513 18.8745 7.21973Z" fill="white"/>
</svg>
