<svg width="21" height="22" viewBox="0 0 21 22" fill="none" xmlns="http://www.w3.org/2000/svg">
<path d="M18.35 2V13.3018C17.7786 13.0091 17.1453 12.8538 16.5009 12.85H16.5C15.3994 12.85 14.3438 13.2872 13.5655 14.0655C12.7872 14.8438 12.35 15.8994 12.35 17C12.35 18.1007 12.7872 19.1562 13.5655 19.9345C14.3438 20.7128 15.3994 21.15 16.5 21.15C17.6007 21.15 18.6562 20.7128 19.4345 19.9345C20.2128 19.1562 20.65 18.1007 20.65 17V2C20.65 1.695 20.5289 1.40249 20.3132 1.18683C20.0975 0.97116 19.805 0.85 19.5 0.85C19.195 0.85 18.9025 0.97116 18.6868 1.18683C18.4712 1.40249 18.35 1.695 18.35 2ZM16.5 15.15C16.8659 15.15 17.2236 15.2585 17.5278 15.4618C17.832 15.6651 18.0692 15.954 18.2092 16.292C18.3492 16.6301 18.3858 17.0021 18.3145 17.3609C18.2431 17.7198 18.0669 18.0494 17.8082 18.3082C17.5494 18.5669 17.2198 18.7431 16.8609 18.8145C16.5021 18.8858 16.1301 18.8492 15.792 18.7092C15.454 18.5692 15.1651 18.332 14.9618 18.0278C14.7585 17.7236 14.65 17.3659 14.65 17C14.65 16.5094 14.8449 16.0388 15.1919 15.6919C15.5388 15.3449 16.0094 15.15 16.5 15.15Z" fill="#828282" stroke="#828282" stroke-width="0.3"/>
<path d="M11.65 12.5C11.65 12.195 11.5288 11.9025 11.3132 11.6868C11.0975 11.4712 10.805 11.35 10.5 11.35H1.5C1.195 11.35 0.902493 11.4712 0.686827 11.6868C0.47116 11.9025 0.35 12.195 0.35 12.5C0.35 12.805 0.47116 13.0975 0.686827 13.3132C0.902493 13.5288 1.195 13.65 1.5 13.65H10.5C10.805 13.65 11.0975 13.5288 11.3132 13.3132C11.5288 13.0975 11.65 12.805 11.65 12.5Z" fill="#828282" stroke="#828282" stroke-width="0.3"/>
<path d="M1.5 17.85C1.195 17.85 0.902494 17.9712 0.686827 18.1868C0.47116 18.4025 0.35 18.695 0.35 19C0.35 19.305 0.47116 19.5975 0.686827 19.8132C0.902494 20.0289 1.195 20.15 1.5 20.15H9.5C9.805 20.15 10.0975 20.0289 10.3132 19.8132L10.2071 19.7071L10.3132 19.8132C10.5288 19.5975 10.65 19.305 10.65 19C10.65 18.695 10.5288 18.4025 10.3132 18.1868L10.2071 18.2929L10.3132 18.1868C10.0975 17.9712 9.805 17.85 9.5 17.85H1.5Z" fill="#828282" stroke="#828282" stroke-width="0.3"/>
<path d="M16.65 6C16.65 5.695 16.5288 5.40249 16.3132 5.18683C16.0975 4.97116 15.805 4.85 15.5 4.85H1.5C1.195 4.85 0.902494 4.97116 0.686827 5.18683C0.47116 5.40249 0.35 5.695 0.35 6C0.35 6.305 0.47116 6.5975 0.686827 6.81317C0.902494 7.02884 1.195 7.15 1.5 7.15H15.5C15.805 7.15 16.0975 7.02884 16.3132 6.81317C16.5288 6.5975 16.65 6.305 16.65 6Z" fill="#828282" stroke="#828282" stroke-width="0.3"/>
</svg>
