<svg width="20" height="22" viewBox="0 0 20 22" fill="none" xmlns="http://www.w3.org/2000/svg">
<path d="M17.0959 12.7728L3.81725 20.7268C3.53325 20.8908 3.21126 20.9776 2.88332 20.9785C2.55537 20.9794 2.2329 20.8945 1.94798 20.7321C1.66307 20.5697 1.42564 20.3355 1.25933 20.0528C1.09301 19.7702 1.0036 19.4489 1 19.121V3.21291C1.0036 2.88498 1.09301 2.56371 1.25933 2.28106C1.42564 1.99841 1.66307 1.76424 1.94798 1.60184C2.2329 1.43944 2.55537 1.35447 2.88332 1.35539C3.21126 1.3563 3.53325 1.44308 3.81725 1.60707L17.0959 9.56111C17.3719 9.72853 17.6001 9.96424 17.7584 10.2455C17.9168 10.5268 18 10.8442 18 11.1669C18 11.4897 17.9168 11.8071 17.7584 12.0884C17.6001 12.3697 17.3719 12.6054 17.0959 12.7728V12.7728Z" stroke="white" stroke-linecap="round" stroke-linejoin="round"/>
</svg>
