<svg width="70" height="70" viewBox="0 0 70 70" fill="none" xmlns="http://www.w3.org/2000/svg">
<circle cx="35" cy="35" r="35" fill="#F2C94C"/>
<path d="M49.427 31.6971L30.1332 19.8041C28.7373 18.9447 27.0497 18.909 25.6187 19.7085C24.1876 20.5079 23.3333 21.9639 23.3333 23.603V47.2808C23.3333 49.7593 25.3303 51.7864 27.7848 51.7998C27.7915 51.7998 27.7982 51.7999 27.8048 51.7999C28.5718 51.7998 29.3711 51.5594 30.1177 51.1039C30.7183 50.7375 30.9081 49.9536 30.5416 49.3531C30.1752 48.7525 29.3912 48.5627 28.7908 48.9291C28.4417 49.1421 28.1006 49.2523 27.7985 49.2522C26.8724 49.2472 25.8809 48.4539 25.8809 47.2809V23.6031C25.8809 22.8999 26.2474 22.2755 26.8611 21.9326C27.475 21.5896 28.1988 21.605 28.7968 21.9732L48.0907 33.8662C48.6706 34.2232 49.0025 34.8186 49.001 35.4996C48.9996 36.1806 48.6654 36.7746 48.0823 37.1304L34.1328 45.6715C33.5328 46.0388 33.3442 46.823 33.7115 47.423C34.0788 48.0229 34.863 48.2115 35.463 47.8442L49.4109 39.3041C50.7464 38.4894 51.5455 37.0692 51.5487 35.5047C51.5519 33.9404 50.7585 32.5168 49.427 31.6971Z" fill="#171717"/>
</svg>
