<svg width="21" height="23" viewBox="0 0 21 23" fill="none" xmlns="http://www.w3.org/2000/svg">
<path d="M17.1778 8.69724C15.2772 6.79668 12.7503 5.75 10.0625 5.75C7.37469 5.75 4.84779 6.79668 2.94724 8.69724C1.04668 10.5978 0 13.1247 0 15.8125V19.0469C0 21.2266 1.77338 23 3.95313 23C6.13287 23 7.90625 21.2266 7.90625 19.0469C7.90625 16.8671 6.13287 15.0938 3.95313 15.0938C2.99831 15.0938 2.12148 15.434 1.4375 15.9997V15.8125C1.4375 11.0567 5.30667 7.1875 10.0625 7.1875C14.8183 7.1875 18.6875 11.0567 18.6875 15.8125V15.9997C18.0035 15.434 17.1267 15.0938 16.1719 15.0938C13.9921 15.0938 12.2188 16.8671 12.2188 19.0469C12.2188 21.2266 13.9921 23 16.1719 23C18.3516 23 20.125 21.2266 20.125 19.0469V15.8125C20.125 13.1247 19.0783 10.5978 17.1778 8.69724ZM3.95313 16.5313C5.34022 16.5313 6.46875 17.6598 6.46875 19.0469C6.46875 20.434 5.34022 21.5625 3.95313 21.5625C2.56603 21.5625 1.4375 20.434 1.4375 19.0469C1.4375 17.6598 2.56603 16.5313 3.95313 16.5313ZM16.1719 21.5625C14.7848 21.5625 13.6563 20.434 13.6563 19.0469C13.6563 17.6598 14.7848 16.5313 16.1719 16.5313C17.559 16.5313 18.6875 17.6598 18.6875 19.0469C18.6875 20.434 17.559 21.5625 16.1719 21.5625Z" fill="#E0E0E0"/>
<path d="M14.2499 2.28131C14.1566 2.28131 14.0619 2.26307 13.9706 2.22453C12.7336 1.70231 11.4187 1.4375 10.0626 1.4375C8.70636 1.4375 7.3915 1.70231 6.15449 2.22453C5.78878 2.37893 5.36719 2.20764 5.21279 1.84193C5.05839 1.47622 5.22968 1.05463 5.59539 0.900235C7.01029 0.302863 8.51325 0 10.0626 0C11.6119 0 13.1148 0.302863 14.5297 0.900235C14.8954 1.05463 15.0667 1.47622 14.9123 1.84193C14.7965 2.11631 14.5301 2.28127 14.2499 2.28131Z" fill="#E0E0E0"/>
<path d="M12.278 4.25383C12.2143 4.25383 12.1496 4.2453 12.0852 4.22742C11.4302 4.0454 10.7497 3.95313 10.0625 3.95313C9.37535 3.95313 8.69483 4.0454 8.03986 4.22742C7.65736 4.33366 7.26119 4.10981 7.1549 3.72735C7.04862 3.34488 7.27251 2.94867 7.65497 2.84239C8.43527 2.62555 9.2453 2.51562 10.0625 2.51562C10.8797 2.51562 11.6898 2.62555 12.4701 2.84239C12.8525 2.94867 13.0764 3.34488 12.9701 3.72735C12.8817 4.0454 12.5928 4.25383 12.278 4.25383Z" fill="#E0E0E0"/>
</svg>
