<svg width="20" height="20" viewBox="0 0 20 20" fill="none" xmlns="http://www.w3.org/2000/svg">
<path d="M2.5 5H4.16667H17.5" stroke="#EB5757" stroke-width="2" stroke-linecap="round" stroke-linejoin="round"/>
<path d="M6.66797 5.00002V3.33335C6.66797 2.89133 6.84356 2.4674 7.15612 2.15484C7.46869 1.84228 7.89261 1.66669 8.33464 1.66669H11.668C12.11 1.66669 12.5339 1.84228 12.8465 2.15484C13.159 2.4674 13.3346 2.89133 13.3346 3.33335V5.00002M15.8346 5.00002V16.6667C15.8346 17.1087 15.659 17.5326 15.3465 17.8452C15.0339 18.1578 14.61 18.3334 14.168 18.3334H5.83464C5.39261 18.3334 4.96868 18.1578 4.65612 17.8452C4.34356 17.5326 4.16797 17.1087 4.16797 16.6667V5.00002H15.8346Z" stroke="#EB5757" stroke-width="2" stroke-linecap="round" stroke-linejoin="round"/>
</svg>
