<svg width="22" height="22" viewBox="0 0 22 22" fill="none" xmlns="http://www.w3.org/2000/svg">
<g clip-path="url(#clip0_7630_1072)">
<path d="M0.916664 3.66669V9.16669H6.41666" stroke="white" stroke-width="2" stroke-linecap="round" stroke-linejoin="round"/>
<path d="M21.0833 18.3333V12.8333H15.5833" stroke="white" stroke-width="2" stroke-linecap="round" stroke-linejoin="round"/>
<path d="M18.7825 8.24997C18.3176 6.93619 17.5275 5.76159 16.4858 4.83577C15.4442 3.90995 14.185 3.26309 12.8257 2.95554C11.4665 2.64799 10.0515 2.68978 8.71274 3.07701C7.37401 3.46424 6.15518 4.18429 5.17 5.16997L0.916664 9.16663M21.0833 12.8333L16.83 16.83C15.8448 17.8156 14.626 18.5357 13.2873 18.9229C11.9485 19.3102 10.5335 19.3519 9.17426 19.0444C7.81501 18.7368 6.55581 18.09 5.51418 17.1642C4.47254 16.2383 3.6824 15.0637 3.2175 13.75" stroke="white" stroke-width="2" stroke-linecap="round" stroke-linejoin="round"/>
</g>
<defs>
<clipPath id="clip0_7630_1072">
<rect width="22" height="22" fill="white"/>
</clipPath>
</defs>
</svg>
