<svg width="21" height="20" viewBox="0 0 21 20" fill="none" xmlns="http://www.w3.org/2000/svg">
<g clip-path="url(#clip0_342_694)">
<path d="M14.8197 4.31958C14.4242 4.31958 14.1037 4.64009 14.1037 5.03556C14.1037 5.43103 14.4242 5.75153 14.8197 5.75153C17.1622 5.75153 19.0679 7.65728 19.0679 9.99974C19.0679 12.3425 17.1619 14.2482 14.8197 14.2482H9.56913C9.17366 14.2482 8.85315 14.5687 8.85315 14.9642C8.85315 15.3596 9.17366 15.6801 9.56913 15.6801H14.8197C17.9517 15.6801 20.4999 13.1319 20.4999 9.9997C20.4999 6.86778 17.9517 4.31958 14.8197 4.31958Z" fill="#F2C94C"/>
<path d="M10.5137 14.9625L13.2633 11.7546C13.5208 11.4546 13.486 11.0026 13.1858 10.7453C12.886 10.488 12.4337 10.5221 12.1765 10.8229L9.02586 14.4983C8.79531 14.7671 8.79602 15.1639 9.02731 15.4319L12.1777 19.0835C12.3192 19.2475 12.519 19.3317 12.7199 19.3317C12.8858 19.3317 13.0521 19.2747 13.1874 19.1577C13.4867 18.8995 13.5201 18.4475 13.2619 18.1479L10.5137 14.9625Z" fill="#F2C94C"/>
<path d="M11.4308 4.31958H6.1802C3.0482 4.31958 0.5 6.86778 0.5 9.99974C0.5 13.132 3.0482 15.6802 6.1802 15.6802C6.57566 15.6802 6.89617 15.3597 6.89617 14.9642C6.89617 14.5687 6.57566 14.2482 6.1802 14.2482C3.8377 14.2482 1.93199 12.3425 1.93199 9.99977C1.93199 7.65727 3.83773 5.75157 6.1802 5.75157H11.4308C11.8263 5.75157 12.1468 5.43106 12.1468 5.0356C12.1468 4.64013 11.8263 4.31958 11.4308 4.31958Z" fill="#F2C94C"/>
<path d="M11.973 4.56803L8.82269 0.91647C8.56468 0.617173 8.11218 0.583774 7.81288 0.842016C7.51335 1.10049 7.47995 1.55252 7.73843 1.85182L10.4864 5.03725L7.73675 8.24538C7.47949 8.54561 7.51433 8.99764 7.81456 9.25491C7.94964 9.37065 8.11527 9.42721 8.28019 9.42721C8.48187 9.42721 8.68257 9.34225 8.82433 9.17709L11.9744 5.50166C12.205 5.23295 12.2043 4.83604 11.973 4.56803Z" fill="#F2C94C"/>
</g>
<defs>
<clipPath id="clip0_342_694">
<rect width="20" height="20" fill="white" transform="translate(0.5)"/>
</clipPath>
</defs>
</svg>
