<svg width="21" height="17" viewBox="0 0 21 17" fill="none" xmlns="http://www.w3.org/2000/svg">
<path d="M19.3381 1.8316V6.83292H14.3368" stroke="#F2C94C" stroke-width="1.5" stroke-linecap="round" stroke-linejoin="round"/>
<path d="M1 15.1685V10.1672H6.00132" stroke="#F2C94C" stroke-width="1.5" stroke-linecap="round" stroke-linejoin="round"/>
<path d="M3.09222 5.99934C3.51497 4.80468 4.23346 3.73658 5.18065 2.89471C6.12785 2.05283 7.27287 1.46462 8.50888 1.18496C9.74489 0.905296 11.0316 0.943298 12.2489 1.29542C13.4663 1.64754 14.5746 2.3023 15.4705 3.19861L19.3382 6.8329M1 10.1671L4.86768 13.8014C5.76354 14.6977 6.87185 15.3525 8.0892 15.7046C9.30655 16.0567 10.5933 16.0947 11.8293 15.815C13.0653 15.5354 14.2103 14.9472 15.1575 14.1053C16.1047 13.2634 16.8232 12.1953 17.2459 11.0007" stroke="#F2C94C" stroke-width="1.5" stroke-linecap="round" stroke-linejoin="round"/>
</svg>
