<svg width="16" height="16" viewBox="0 0 16 16" fill="none" xmlns="http://www.w3.org/2000/svg">
<g clip-path="url(#clip0_12283_25052)">
<path d="M15.334 2.66669V6.66669H11.334" stroke="#EB5757" stroke-width="2" stroke-linecap="round" stroke-linejoin="round"/>
<path d="M13.6593 9.99999C13.2259 11.2266 12.4056 12.2791 11.322 12.999C10.2384 13.7188 8.95024 14.067 7.65155 13.991C6.35286 13.9151 5.11404 13.4191 4.12177 12.5778C3.12951 11.7365 2.43755 10.5955 2.15018 9.32669C1.86281 8.05792 1.99559 6.73011 2.52851 5.54337C3.06143 4.35662 3.96563 3.37523 5.10484 2.74708C6.24405 2.11893 7.55656 1.87806 8.84458 2.06075C10.1326 2.24345 11.3263 2.83981 12.2459 3.75999L15.3326 6.66666" stroke="#EB5757" stroke-width="2" stroke-linecap="round" stroke-linejoin="round"/>
</g>
<defs>
<clipPath id="clip0_12283_25052">
<rect width="16" height="16" fill="white"/>
</clipPath>
</defs>
</svg>
