<svg width="22" height="24" viewBox="0 0 22 24" fill="none" xmlns="http://www.w3.org/2000/svg">
<path d="M19.552 17.7345V20.4893C19.553 20.7451 19.5006 20.9982 19.3982 21.2325C19.2957 21.4669 19.1454 21.6772 18.957 21.8501C18.7685 22.023 18.546 22.1546 18.3038 22.2365C18.0615 22.3185 17.8048 22.3489 17.5501 22.3259C14.7244 22.0188 12.0101 21.0533 9.62533 19.5068C7.40661 18.0969 5.52551 16.2158 4.11564 13.9971C2.56372 11.6015 1.59794 8.87397 1.29652 6.03556C1.27357 5.78163 1.30375 5.5257 1.38513 5.28406C1.46651 5.04243 1.59732 4.82039 1.76922 4.63208C1.94111 4.44377 2.15034 4.29331 2.38357 4.1903C2.6168 4.08728 2.86893 4.03395 3.1239 4.03371H5.87874C6.32439 4.02932 6.75643 4.18713 7.09433 4.47773C7.43223 4.76832 7.65293 5.17187 7.71531 5.61315C7.83158 6.49476 8.04722 7.36039 8.3581 8.19352C8.48165 8.5222 8.50839 8.8794 8.43515 9.22281C8.36192 9.56621 8.19177 9.88143 7.94488 10.1311L6.77866 11.2973C8.08588 13.5963 9.98939 15.4998 12.2883 16.807L13.4546 15.6408C13.7042 15.3939 14.0195 15.2238 14.3629 15.1505C14.7063 15.0773 15.0635 15.104 15.3921 15.2276C16.2253 15.5384 17.0909 15.7541 17.9725 15.8704C18.4186 15.9333 18.826 16.158 19.1172 16.5017C19.4084 16.8454 19.5631 17.2841 19.552 17.7345Z" stroke="url(#paint0_linear_11269_26243)" stroke-width="2" stroke-linecap="round" stroke-linejoin="round"/>
<path d="M16.7148 1.66666V10.2373" stroke="url(#paint1_linear_11269_26243)" stroke-width="2" stroke-linecap="round" stroke-linejoin="round"/>
<path d="M12.4297 5.95198H21.0003" stroke="url(#paint2_linear_11269_26243)" stroke-width="2" stroke-linecap="round" stroke-linejoin="round"/>
<defs>
<linearGradient id="paint0_linear_11269_26243" x1="10.1628" y1="4.03362" x2="10.1628" y2="21.8758" gradientUnits="userSpaceOnUse">
<stop stop-color="#F2C94C"/>
<stop offset="1" stop-color="#FFC34F"/>
</linearGradient>
<linearGradient id="paint1_linear_11269_26243" x1="17.2007" y1="1.66666" x2="17.2007" y2="10.023" gradientUnits="userSpaceOnUse">
<stop stop-color="#F2C94C"/>
<stop offset="1" stop-color="#FFC34F"/>
</linearGradient>
<linearGradient id="paint2_linear_11269_26243" x1="16.5939" y1="5.95198" x2="16.5939" y2="6.92698" gradientUnits="userSpaceOnUse">
<stop stop-color="#F2C94C"/>
<stop offset="1" stop-color="#FFC34F"/>
</linearGradient>
</defs>
</svg>
