<svg width="22" height="22" viewBox="0 0 22 22" fill="none" xmlns="http://www.w3.org/2000/svg">
<path d="M17.6404 14.2812C16.602 14.2812 15.6721 14.7548 15.0555 15.4973L12.4414 14.1972C12.0551 14.0051 11.5862 14.1624 11.394 14.5488C11.2019 14.9351 11.3593 15.404 11.7457 15.5962L14.3637 16.8982C14.3096 17.1372 14.281 17.3856 14.281 17.6406C14.281 19.493 15.788 21 17.6404 21C19.4927 21 20.9998 19.493 20.9998 17.6406C20.9998 15.7882 19.4927 14.2812 17.6404 14.2812ZM17.6404 19.4375C16.6496 19.4375 15.8435 18.6314 15.8435 17.6406C15.8435 17.3949 15.8931 17.1606 15.9828 16.9471C16.0019 16.9187 16.0195 16.8887 16.0352 16.8571C16.0519 16.8236 16.0659 16.7894 16.0775 16.7548C16.3867 16.2112 16.9714 15.8437 17.6404 15.8437C18.6312 15.8437 19.4373 16.6498 19.4373 17.6406C19.4373 18.6314 18.6312 19.4375 17.6404 19.4375Z" fill="#E0E0E0" stroke="#E0E0E0" stroke-width="0.2"/>
<path d="M17.6406 1C15.7883 1 14.2813 2.50699 14.2813 4.35938C14.2813 4.61825 14.3107 4.87036 14.3664 5.11254L6.93126 8.84106C6.31454 8.10759 5.39047 7.64063 4.35938 7.64063C2.50703 7.64063 1 9.14763 1 11C1 12.8524 2.50703 14.3594 4.35938 14.3594C5.38602 14.3594 6.30657 13.8965 6.92325 13.1685L8.1847 13.8104C8.29821 13.8682 8.41919 13.8956 8.53841 13.8956C8.82302 13.8956 9.09739 13.7395 9.23532 13.4685C9.43103 13.084 9.27798 12.6136 8.89341 12.4179L7.62868 11.7743C7.68759 11.5256 7.71876 11.2664 7.71876 11C7.71876 10.7379 7.6886 10.4828 7.63153 10.2379L15.0628 6.51126C15.6796 7.24884 16.6063 7.71876 17.6406 7.71876C19.493 7.71876 21 6.21176 21 4.35938C21 2.50699 19.493 1 17.6406 1ZM4.35938 12.7969C3.3686 12.7969 2.5625 11.9908 2.5625 11C2.5625 10.0092 3.3686 9.20314 4.35938 9.20314C5.35016 9.20314 6.15626 10.0092 6.15626 11C6.15626 11.9908 5.35016 12.7969 4.35938 12.7969ZM17.6406 6.15626C16.6499 6.15626 15.8438 5.35016 15.8438 4.35938C15.8438 3.3686 16.6499 2.5625 17.6406 2.5625C18.6314 2.5625 19.4375 3.3686 19.4375 4.35938C19.4375 5.35016 18.6314 6.15626 17.6406 6.15626Z" fill="#E0E0E0" stroke="#E0E0E0" stroke-width="0.2"/>
</svg>
