<svg width="21" height="20" viewBox="0 0 21 20" fill="none" xmlns="http://www.w3.org/2000/svg">
<g clip-path="url(#clip0_341_693)">
<path d="M20.0328 13.1758L16.9493 11.3956C16.3269 11.0363 15.5458 11.486 15.5458 12.2059V13.2635H14.1532C12.8823 13.2635 11.7351 12.5597 11.1592 11.4268L9.37573 7.91844C8.55194 6.29785 6.91085 5.29114 5.09288 5.29114H1.22293C0.823671 5.29114 0.5 5.61481 0.5 6.01403C0.5 6.41324 0.823671 6.73696 1.22293 6.73696H5.09292C6.36382 6.73696 7.511 7.4407 8.08694 8.57359L8.81205 10.0001C8.11131 11.3785 7.44467 13.2632 5.09292 13.2632C4.69366 13.2632 4.36999 13.5869 4.36999 13.9861C4.36999 14.3854 4.69366 14.709 5.09292 14.709C6.91089 14.709 8.55198 13.7023 9.37576 12.0817L9.62299 11.5953L9.87037 12.082C10.6942 13.7026 12.3353 14.7092 14.1532 14.7092H15.5458V15.7664C15.5458 16.4853 16.326 16.9365 16.9493 16.5766L20.0328 14.7964C20.6552 14.4371 20.6562 13.5358 20.0328 13.1758Z" fill="#F2C94C"/>
<path d="M2.58968 13.2631H1.22289C0.823671 13.2631 0.5 13.5867 0.5 13.986C0.5 14.3852 0.823671 14.7089 1.22293 14.7089H2.58972C2.98898 14.7089 3.31265 14.3852 3.31265 13.986C3.31265 13.5867 2.98898 13.2631 2.58968 13.2631Z" fill="#F2C94C"/>
<path d="M16.9491 8.60446L20.0326 6.82426C20.6551 6.46493 20.6561 5.5636 20.0326 5.20364L16.9491 3.42341C16.3266 3.06392 15.5457 3.51396 15.5457 4.23368V7.79418C15.5456 8.51289 16.3257 8.96442 16.9491 8.60446Z" fill="#F2C94C"/>
<path d="M14.5818 6.73647V5.29065C12.7685 5.29065 11.2618 5.80198 10.1848 7.38658C10.2439 7.49783 10.1272 7.26955 10.9745 8.93631C12.02 6.87947 13.2625 6.73647 14.5818 6.73647Z" fill="#F2C94C"/>
</g>
<defs>
<clipPath id="clip0_341_693">
<rect width="20" height="20" fill="white" transform="translate(0.5)"/>
</clipPath>
</defs>
</svg>
