<svg width="18" height="22" viewBox="0 0 18 22" fill="none" xmlns="http://www.w3.org/2000/svg">
<path d="M9 21.24C9.7812 21.24 10.441 20.7369 10.6895 20.04H12.6C15.3723 20.04 17.6971 17.9326 18 15.24V9.16C17.689 4.47712 13.7604 0.760002 9 0.760002C4.23964 0.760002 0.311 4.47712 0 9.16V13.44C0 14.4341 0.805888 15.24 1.8 15.24C2.79411 15.24 3.6 14.4341 3.6 13.44V11.5296C3.6 10.2209 2.53909 9.16 1.2304 9.16C1.53876 5.13936 4.90172 1.96 9 1.96C13.0983 1.96 16.4612 5.13936 16.7696 9.16C15.4609 9.16 14.4 10.2209 14.4 11.5296V12.9006C14.4 14.1926 15.4474 15.24 16.7394 15.24C16.4451 17.27 14.7102 18.84 12.6 18.84H10.6895C10.441 18.1431 9.7812 17.64 9 17.64C8.00744 17.64 7.2 18.4474 7.2 19.44C7.2 20.4326 8.00744 21.24 9 21.24Z" fill="#F2F2F2"/>
</svg>
