<svg width="32" height="32" viewBox="0 0 32 32" fill="none" xmlns="http://www.w3.org/2000/svg">
<g clip-path="url(#clip0_10262_21362)">
<path d="M25.0523 25.8169C29.8527 20.8134 29.6881 12.8659 24.6846 8.06558C22.3425 5.81858 19.2211 4.5659 15.9754 4.57039C9.04167 4.56074 3.41291 10.1739 3.40333 17.1077C3.39885 20.3534 4.65153 23.4747 6.89853 25.8169L3.63209 30.1713C3.25339 30.6763 3.35572 31.3927 3.86065 31.7714C4.36558 32.15 5.08199 32.0477 5.46069 31.5428L8.62654 27.3209C13.0062 30.512 18.9446 30.512 23.3242 27.3209L26.4901 31.5428C26.8688 32.0478 27.5852 32.1501 28.0901 31.7714C28.5951 31.3927 28.6974 30.6762 28.3186 30.1713L25.0523 25.8169ZM15.9755 27.4284C10.2972 27.4221 5.69567 22.8205 5.68938 17.1423C5.68938 11.4614 10.2946 6.85616 15.9755 6.85616C21.6563 6.85616 26.2616 11.4614 26.2616 17.1423C26.2616 22.8231 21.6563 27.4284 15.9755 27.4284Z" fill="#F2C94C"/>
<path d="M9.72941 1.67312C7.46982 -0.530224 3.85194 -0.48462 1.64853 1.77497C-0.515433 3.99419 -0.515701 7.53391 1.648 9.75346C2.09433 10.1997 2.81777 10.1997 3.26404 9.75346L9.72941 3.28923C10.1756 2.84289 10.1756 2.11945 9.72941 1.67312ZM2.5943 7.19105C1.77825 5.48232 2.50189 3.43555 4.21061 2.61942C5.14513 2.17309 6.23133 2.17309 7.16592 2.61942L2.5943 7.19105Z" fill="#F2C94C"/>
<path d="M30.3016 1.67309C28.0701 -0.557777 24.4528 -0.557777 22.2214 1.67309C21.7752 2.11942 21.7752 2.84286 22.2214 3.28913L28.6856 9.75336C29.1319 10.1996 29.8554 10.1996 30.3016 9.75336C32.5325 7.52189 32.5325 3.90462 30.3016 1.67309ZM29.3588 7.19443L29.3565 7.19215L24.7849 2.62053C26.0995 2.01642 27.6504 2.28295 28.6879 3.2914C29.7162 4.31874 29.9851 5.88275 29.3588 7.19443Z" fill="#F2C94C"/>
<path d="M15.9755 9.14197C15.3443 9.14197 14.8326 9.65366 14.8326 10.2849V16.7617L11.6324 21.0282C11.2537 21.5332 11.3561 22.2495 11.861 22.6282C12.3659 23.0069 13.0823 22.9046 13.461 22.3997L16.8897 17.828C17.0381 17.6302 17.1183 17.3896 17.1183 17.1423V10.2849C17.1184 9.65366 16.6067 9.14197 15.9755 9.14197Z" fill="#F2C94C"/>
</g>
<defs>
<clipPath id="clip0_10262_21362">
<rect width="32" height="32" fill="white"/>
</clipPath>
</defs>
</svg>
