<svg width="18" height="26" viewBox="0 0 18 26" fill="none" xmlns="http://www.w3.org/2000/svg">
<path d="M14.581 6.75169C14.4042 6.4591 14.0539 6.32004 13.7246 6.41189C13.3952 6.50373 13.1674 6.80366 13.1674 7.14564C13.1674 8.07537 12.4111 8.83154 11.4815 8.83154C10.5518 8.83154 9.79564 8.07537 9.79564 7.14564V0.761669C9.79564 0.453609 9.60997 0.175899 9.32531 0.0578718C9.04066 -0.0599568 8.71296 0.00530522 8.49516 0.22311C8.40986 0.308605 6.37841 2.35156 4.32058 5.43851C3.10718 7.25871 2.13877 9.06422 1.44251 10.8049C0.560578 13.0099 0.113266 15.1211 0.113266 17.0793C0.113266 21.9982 4.11507 26 9.03372 26C13.9526 26 17.9544 21.9982 17.9544 17.0793C17.9544 13.9309 16.8193 10.4561 14.581 6.75169ZM9.03372 24.4766C4.95515 24.4766 1.63671 21.1581 1.63671 17.0793C1.63671 13.0644 3.77646 9.0061 5.57166 6.30834C6.54464 4.8462 7.52516 3.61395 8.272 2.73758V7.14564C8.272 8.91525 9.71173 10.355 11.4813 10.355C12.5632 10.355 13.5219 9.81701 14.1035 8.9944C15.6488 11.9042 16.4309 14.6182 16.4309 17.0793C16.4309 21.1581 13.1127 24.4766 9.03372 24.4766Z" fill="white"/>
</svg>
