<svg width="44" height="44" viewBox="0 0 44 44" fill="none" xmlns="http://www.w3.org/2000/svg">
<circle cx="22" cy="22" r="22" fill="#404040"/>
<path d="M34.9025 28.3418H9.34229V29.2681H34.9025V28.3418Z" fill="#F2C94C"/>
<path d="M34.6974 27.4292L36.6361 17.5968H36.0671C36.0671 17.5968 35.1474 23.4129 31.4354 22.7975C28.0344 22.2285 29.0468 16.6705 29.0468 16.6705H28.2528C28.2528 16.6705 28.4447 21.1831 25.6061 21.0177C21.9074 20.8125 22.4764 12.502 22.4764 12.502H21.8148C21.8148 12.502 22.9661 20.6207 19.2673 20.8324C16.4023 20.9912 16.0119 16.6705 16.0119 16.6705H15.2246C15.2246 16.6705 16.2501 21.9109 12.8492 22.4799C9.11075 23.0953 8.1778 17.5968 8.1778 17.5968H7.60876L9.54745 27.4292H34.6974Z" fill="#F2C94C"/>
<path d="M23.4689 12.3233C23.4689 12.5851 23.3913 12.8409 23.2459 13.0585C23.1005 13.2762 22.8938 13.4458 22.652 13.5459C22.4102 13.6461 22.1441 13.6723 21.8874 13.6212C21.6307 13.5702 21.3949 13.4441 21.2099 13.2591C21.0248 13.074 20.8988 12.8382 20.8477 12.5815C20.7966 12.3248 20.8228 12.0587 20.923 11.8169C21.0232 11.5751 21.1928 11.3684 21.4104 11.223C21.628 11.0776 21.8839 11 22.1456 11C22.4966 11 22.8332 11.1394 23.0813 11.3876C23.3295 11.6358 23.4689 11.9724 23.4689 12.3233Z" fill="#F2C94C"/>
<path d="M29.6091 16.3793C29.6091 16.5523 29.5577 16.7214 29.4614 16.8652C29.3652 17.009 29.2284 17.1209 29.0684 17.1868C28.9084 17.2527 28.7325 17.2696 28.5629 17.2354C28.3933 17.2011 28.2377 17.1173 28.1158 16.9945C27.9939 16.8717 27.9112 16.7154 27.8783 16.5456C27.8453 16.3757 27.8636 16.1999 27.9307 16.0404C27.9978 15.881 28.1108 15.745 28.2553 15.6499C28.3998 15.5547 28.5693 15.5046 28.7423 15.5059C28.9728 15.5076 29.1933 15.6004 29.3556 15.764C29.518 15.9276 29.6091 16.1488 29.6091 16.3793Z" fill="#F2C94C"/>
<path d="M16.4948 16.3793C16.4948 16.5523 16.4435 16.7214 16.3472 16.8652C16.2509 17.009 16.1141 17.1209 15.9541 17.1868C15.7942 17.2527 15.6182 17.2696 15.4486 17.2354C15.279 17.2011 15.1234 17.1173 15.0015 16.9945C14.8796 16.8717 14.797 16.7154 14.764 16.5456C14.7311 16.3757 14.7493 16.1999 14.8164 16.0404C14.8836 15.881 14.9965 15.745 15.141 15.6499C15.2855 15.5547 15.455 15.5046 15.6281 15.5059C15.8586 15.5076 16.079 15.6004 16.2414 15.764C16.4037 15.9276 16.4949 16.1488 16.4948 16.3793Z" fill="#F2C94C"/>
<path d="M37 17.6565C37 17.8293 36.9487 17.9981 36.8528 18.1418C36.7568 18.2854 36.6204 18.3973 36.4608 18.4634C36.3012 18.5295 36.1256 18.5468 35.9562 18.5131C35.7868 18.4794 35.6311 18.3963 35.509 18.2741C35.3868 18.152 35.3037 17.9963 35.27 17.8269C35.2363 17.6575 35.2536 17.4819 35.3197 17.3223C35.3858 17.1627 35.4977 17.0263 35.6413 16.9303C35.785 16.8344 35.9538 16.7831 36.1266 16.7831C36.3582 16.7831 36.5804 16.8751 36.7442 17.0389C36.908 17.2027 37 17.4249 37 17.6565Z" fill="#F2C94C"/>
<path d="M7.8734 18.5299C8.35577 18.5299 8.7468 18.1389 8.7468 17.6565C8.7468 17.1742 8.35577 16.7831 7.8734 16.7831C7.39103 16.7831 7 17.1742 7 17.6565C7 18.1389 7.39103 18.5299 7.8734 18.5299Z" fill="#F2C94C"/>
</svg>
