<svg width="18" height="20" viewBox="0 0 18 20" fill="none" xmlns="http://www.w3.org/2000/svg">
<path d="M8.66667 9.33333C11.244 9.33333 13.3333 7.244 13.3333 4.66667C13.3333 2.08934 11.244 0 8.66667 0C6.08934 0 4 2.08934 4 4.66667C4 7.244 6.08934 9.33333 8.66667 9.33333Z" fill="#F2C94C"/>
<path d="M11.98 10.6667H5.35333C3.93408 10.6684 2.57347 11.233 1.5699 12.2366C0.566341 13.2401 0.00176414 14.6007 0 16.02V19.3333C0 19.5101 0.0702379 19.6797 0.195262 19.8047C0.320286 19.9298 0.489856 20 0.666667 20H16.6667C16.8435 20 17.013 19.9298 17.1381 19.8047C17.2631 19.6797 17.3333 19.5101 17.3333 19.3333V16.02C17.3316 14.6007 16.767 13.2401 15.7634 12.2366C14.7599 11.233 13.3993 10.6684 11.98 10.6667V10.6667Z" fill="#F2C94C"/>
</svg>
