<svg width="19" height="22" viewBox="0 0 19 22" fill="none" xmlns="http://www.w3.org/2000/svg">
<path d="M4.85 5.66667L4.85 5.66684C4.85146 6.94381 5.35938 8.16805 6.26233 9.07101C7.16528 9.97396 8.38953 10.4819 9.6665 10.4833L9.66667 10.3333V10.4833C10.6193 10.4833 11.5506 10.2008 12.3427 9.67158C13.1348 9.14232 13.7521 8.39006 14.1167 7.50993C14.4812 6.6298 14.5766 5.66132 14.3908 4.72698C14.2049 3.79264 13.7462 2.93439 13.0726 2.26077C12.3989 1.58715 11.5407 1.12841 10.6064 0.942553C9.67201 0.756701 8.70354 0.852087 7.82341 1.21665C6.94328 1.58121 6.19102 2.19858 5.66175 2.99067C5.13249 3.78277 4.85 4.71402 4.85 5.66667ZM9.66675 2.48334C10.2963 2.48335 10.9118 2.67005 11.4352 3.01982C11.9587 3.36961 12.3667 3.86678 12.6077 4.44846C12.8486 5.03014 12.9117 5.6702 12.7888 6.28771C12.666 6.90521 12.3628 7.47243 11.9176 7.91762C11.4724 8.36282 10.9052 8.666 10.2877 8.78883C9.6702 8.91166 9.03014 8.84862 8.44846 8.60768C7.86678 8.36675 7.36961 7.95873 7.01982 7.43523C6.67005 6.91176 6.48335 6.29632 6.48333 5.66675C6.48437 4.82277 6.8201 4.01366 7.41688 3.41688C8.01366 2.8201 8.82277 2.48437 9.66675 2.48334Z" fill="#828282" stroke="#828282" stroke-width="0.3"/>
<path d="M6.35333 11.5167L6.35315 11.5167C4.89418 11.5185 3.49548 12.0989 2.46384 13.1305C1.43219 14.1622 0.851814 15.5609 0.85 17.0198V17.02V20.3333C0.85 20.5499 0.936041 20.7577 1.0892 20.9108C1.24235 21.064 1.45007 21.15 1.66667 21.15H17.6667C17.8833 21.15 18.091 21.064 18.2441 20.9108C18.3973 20.7577 18.4833 20.5499 18.4833 20.3333V17.02V17.0198C18.4815 15.5609 17.9011 14.1622 16.8695 13.1305C15.8378 12.0989 14.4392 11.5185 12.9802 11.5167L12.98 11.6667V11.5167L6.35333 11.5167ZM16.85 19.5167H2.48333L2.48333 17.0202C2.48333 17.0201 2.48333 17.0201 2.48333 17.0201C2.48455 15.994 2.89268 15.0104 3.61819 14.2849C4.34371 13.5593 5.32737 13.1512 6.35341 13.15C6.35344 13.15 6.35347 13.15 6.35351 13.15H12.9798C12.9799 13.15 12.9799 13.15 12.9799 13.15C14.006 13.1512 14.9896 13.5593 15.7151 14.2849C16.4407 15.0104 16.8488 15.9941 16.85 17.0202V19.5167Z" fill="#828282" stroke="#828282" stroke-width="0.3"/>
</svg>
