<svg width="19" height="22" viewBox="0 0 19 22" fill="none" xmlns="http://www.w3.org/2000/svg">
<path fill-rule="evenodd" clip-rule="evenodd" d="M17.6016 14.0425C16.6939 12.8321 15.4237 12.1052 14.0526 12.1052H5.2488C3.87773 12.1052 2.60756 12.8321 1.69982 14.0425C0.794329 15.2498 0.301434 16.8615 0.301434 18.5199V21.4545C0.301434 21.7558 0.545643 22 0.846889 22H18.4545C18.7558 22 19 21.7558 19 21.4545V18.5199C19 16.8615 18.5071 15.2498 17.6016 14.0425ZM14.0526 13.1961C15.0165 13.1961 15.9856 13.7059 16.7289 14.697C17.4744 15.6911 17.9091 17.0651 17.9091 18.5199V20.9091H1.39234V18.5199C1.39234 17.0651 1.82699 15.6911 2.57254 14.697C3.31584 13.7059 4.28495 13.1961 5.2488 13.1961H14.0526Z" fill="#E0E0E0"/>
<path fill-rule="evenodd" clip-rule="evenodd" d="M9.65029 1.09091C11.7802 1.09091 13.5067 2.8175 13.5067 4.94737C13.5067 7.07723 11.7802 8.80383 9.65029 8.80383C7.52042 8.80383 5.79383 7.07723 5.79383 4.94737C5.79383 2.8175 7.52042 1.09091 9.65029 1.09091ZM14.5977 4.94737C14.5977 2.21501 12.3826 0 9.65029 0C6.91793 0 4.70292 2.21501 4.70292 4.94737C4.70292 7.67972 6.91793 9.89474 9.65029 9.89474C12.3826 9.89474 14.5977 7.67972 14.5977 4.94737Z" fill="#E0E0E0"/>
</svg>
