<svg width="84" height="83" viewBox="0 0 84 83" fill="none" xmlns="http://www.w3.org/2000/svg">
<g filter="url(#filter0_d_79_14)">
<path d="M39.9512 45.667L45.3198 45.7507" stroke="#757575" stroke-width="1.8" stroke-linecap="round"/>
<path d="M42.6356 43.0244V48.3936" stroke="#757575" stroke-width="1.8" stroke-linecap="round"/>
<path d="M58.8676 55.7696H57.9676H55.9813C54.2946 55.7696 52.9319 57.1318 52.9319 58.7906C52.9319 60.42 54.2571 61.8116 56.0012 61.8116C57.6879 61.8116 59.0505 60.4495 59.0505 58.7906V58.7865V58.7821V58.7774V58.7725V58.7674V58.762V58.7563V58.7504V58.7443V58.7379V58.7313V58.7244V58.7173V58.7099V58.7023V58.6945V58.6864V58.6781V58.6696V58.6608V58.6518V58.6425V58.633V58.6233V58.6134V58.6032V58.5928V58.5822V58.5713V58.5602V58.5489V58.5374V58.5257V58.5137V58.5015V58.4891V58.4765V58.4636V58.4506V58.4373V58.4238V58.4101V58.3962V58.382V58.3677V58.3532V58.3384V58.3234V58.3083V58.2929V58.2773V58.2615V58.2456V58.2294V58.213V58.1964V58.1796V58.1626V58.1455V58.1281V58.1105V58.0928V58.0748V58.0567V58.0383V58.0198V58.0011V57.9822V57.9631V57.9438V57.9244V57.9047V57.8849V57.8649V57.8447V57.8244V57.8038V57.7831V57.7622V57.7411V57.7199V57.6985V57.6769V57.6551V57.6332V57.6111V57.5888V57.5664V57.5438V57.521V57.4981V57.475V57.4517V57.4283V57.4047V57.3809V57.357V57.333V57.3088V57.2844V57.2599V57.2352V57.2103V57.1854V57.1602V57.1349V57.1095V57.0839V57.0582V57.0323V57.0063V56.9801V56.9538V56.9274V56.9008V56.8741V56.8472V56.8202V56.7931V56.7658V56.7384V56.7108V56.6831V56.6553V56.6274V56.5993V56.5711V56.5428V56.5143V56.4858V56.4571V56.4282V56.3993V56.3702V56.341V56.3117V56.2823V56.2527V56.2231V56.1933V56.1634V56.1334V56.1032V56.073V56.0427V56.0122V55.9816V55.951V55.9202V55.8893V55.8583V55.8272V55.796V55.7647V55.7333V55.7018V55.6702V55.6385V55.6067V55.5748V55.5428V55.5108V55.4786V55.4463V55.414V55.3815V55.349V55.3164V55.2836V55.2509V55.218V55.185V55.152V55.1188V55.0856V55.0523V55.019V54.9855V54.952V54.9184V54.8847V54.8509V54.8171V54.7832V54.7493V54.7152V54.6811V54.6469V54.6127V54.5784V54.544V54.5096V54.4751V54.4405V54.4059V54.3712V54.3365V54.3017V54.2668V54.2319V54.1969V54.1619V54.1268V54.0917V54.0565V54.0213V53.986V53.9506V53.9153V53.8798V53.8444V53.8089V53.7733V53.7377V53.7021V53.6664V53.6307V53.5949V53.5591V53.5233V53.4874V53.4515V53.4156V53.3796V53.3436V53.3076V53.2715V53.2354V53.1993V53.1632V53.127V53.0908V53.0546V53.0184V52.9821V52.9458V52.9095V52.8732V52.8369V52.8005V52.7642V52.7278V52.6914V52.655V52.6186V52.5821V52.5457V52.5093V52.4728V52.4364V52.3999V52.3634V52.3269V52.2905V52.254V52.2175V52.181V52.1446V52.1081V52.0716V52.0351V51.9987V51.9622V51.9258V51.8893V51.8529V51.8165V51.7801V51.7437V51.7073V51.6709V51.6346V51.5982V51.5619V51.5256V51.4893V51.4531V51.4168V51.3806V51.3444V51.3083V51.2721V51.236V51.1999V51.1638V51.1278V51.0918V51.0558V51.0199V50.984V50.9481V50.9123V50.8765V50.8407V50.805V50.7693V50.7336V50.698V50.6625V50.627V50.5915V50.5561V50.5207V50.4853V50.45V50.4148V50.3796V50.3445V50.3094V50.2744V50.2394V50.2044V50.1696V50.1348V50.1V50.0653V50.0307V49.9961V49.9616V49.9271V49.8928V49.8584V49.8242V49.79V49.7559V49.7218V49.6879V49.654V49.6201V49.5864V49.5527V49.519V49.4855V49.452V49.4187V49.3854V49.3521V49.319V49.2859V49.2529V49.2201V49.1872V49.1545V49.1219V49.0893V49.0569V49.0245V48.9922V48.96V48.9279V48.8959V48.864V48.8322V48.8005V48.7689V48.7374V48.706V48.6746V48.6434V48.6123V48.5813V48.5504V48.5196V48.4889V48.4583V48.4279V48.3975V48.3672V48.3371V48.3071V48.2771V48.2473V48.2177V48.1881V48.1586V48.1293V48.1001V48.071V48.042V48.0132V47.9845V47.9559V47.9274V47.899V47.8708V47.8427V47.8148V47.7869V47.7592V47.7317V47.7042V47.6769V47.6498V47.6227V47.5959V47.5691V47.5425V47.516V47.4897V47.4635V47.4375V47.4116V47.3858V47.3602V47.3348V47.3095V47.2843V47.2593V47.2344V47.2097V47.1852V47.1608V47.1365V47.1124V47.0885V47.0647V47.0411V47.0177V46.9944V46.9713V46.9483V46.9255V46.9029V46.8804V46.8581V46.836V46.814V46.7922V46.7706V46.7492V46.7279V46.7068V46.6859V46.6651V46.6445V46.6241V46.6039V46.5839V46.5641V46.5444V46.5249V46.5056V46.4865V46.4675V46.4488V46.4303V46.4119V46.3937V46.3757V46.3579V46.3403V46.3229V46.3057V46.2887V46.2719V46.2553V46.2389V46.2226V46.2066V46.1908V46.1752V46.1598V46.1446V46.1296V46.1148V46.1002V46.0859V46.0717V46.0577V46.044V46.0305V46.0172V46.0041V45.9912V45.9785V45.9661V45.9539V45.9419V45.9301V45.9185V45.9072V45.8961V45.8852V45.8745V45.8641V45.8539V45.8439V45.8341V45.8246V45.8153V45.8063V45.7974V45.7889V45.7805V45.7724V45.7645V45.7569V45.7495V45.7423V45.7354V45.7288V45.7223V45.7161V45.7102V45.7045V45.6991V45.6939V45.689V45.6843V45.6798V45.6756V45.6717V44.1571L60.3808 44.8812L61.7733 45.6392L61.7733 45.6393C63.6384 46.6546 64.803 48.5971 64.803 50.7127V52.8196C64.803 52.86 64.8379 52.904 64.8945 52.904C64.951 52.904 64.9859 52.86 64.9859 52.8196V50.7127C64.9859 48.544 63.7934 46.5431 61.8658 45.4938L58.8676 55.7696ZM58.8676 55.7696V54.8696V44.0096C58.8676 43.9888 58.8723 43.9782 58.8766 43.9709C58.8824 43.9612 58.8932 43.9492 58.9102 43.9392C58.9272 43.9293 58.9444 43.9249 58.9585 43.9244C58.97 43.924 58.9846 43.9258 59.0052 43.937C59.0052 43.937 59.0053 43.937 59.0053 43.937L61.8657 45.4937L58.8676 55.7696ZM58.8673 56.8383V55.9383H57.9673H55.9813C54.4062 55.9383 53.1149 57.2111 53.1149 58.7906C53.1149 60.3702 54.4062 61.6429 55.9813 61.6429C57.6263 61.6429 58.8673 60.3278 58.8673 58.7906V56.8383Z" fill="#757575" stroke="#757575" stroke-width="1.8"/>
<path d="M40.3987 51.973H53.3744" stroke="#757575" stroke-width="1.8" stroke-linecap="round"/>
<path d="M40.3987 58.2374H49.3474" stroke="#757575" stroke-width="1.8" stroke-linecap="round"/>
<path d="M48.4526 45.7094H53.3744" stroke="#757575" stroke-width="1.8" stroke-linecap="round"/>
</g>
<path fill-rule="evenodd" clip-rule="evenodd" d="M7.62939e-06 18.2178V12.1844C0.00108337 11.0752 0.442196 10.0117 1.22654 9.22734C2.01088 8.443 3.07436 8.00189 4.18359 8.00081C5.29277 8.00201 6.35618 8.44316 7.1405 9.22748C7.92481 10.0118 8.36596 11.0752 8.36716 12.1844V18.2178C8.36213 19.3531 8.7514 20.4549 9.46847 21.335C10.1855 22.2152 11.186 22.8191 12.2988 23.0436L12.1084 18.2494H10.1636C9.9537 18.2494 9.75238 18.1661 9.60394 18.0176C9.45551 17.8692 9.37213 17.6679 9.37213 17.458C9.37213 17.248 9.45551 17.0467 9.60394 16.8983C9.75238 16.7499 9.9537 16.6665 10.1636 16.6665H12.0451L11.8217 11.0514H9.85245C9.64253 11.0514 9.44121 10.968 9.29278 10.8196C9.14435 10.6712 9.06096 10.4699 9.06096 10.2599C9.06096 10.05 9.14435 9.84871 9.29278 9.70028C9.44121 9.55184 9.64253 9.46846 9.85245 9.46846H11.7864C11.8348 7.98615 12.3571 6.5584 13.2766 5.39478L11.9981 3.67115C11.9361 3.58767 11.8912 3.49281 11.8659 3.39198C11.8406 3.29114 11.8355 3.18632 11.8507 3.08349C11.8659 2.98066 11.9012 2.88183 11.9547 2.79265C12.0081 2.70347 12.0785 2.62569 12.162 2.56374C12.2455 2.50179 12.3403 2.45689 12.4412 2.43161C12.542 2.40632 12.6468 2.40114 12.7497 2.41637C12.8525 2.43159 12.9513 2.46692 13.0405 2.52034C13.1297 2.57376 13.2075 2.64421 13.2694 2.72769L14.4073 4.26092C15.4383 3.42588 16.6874 2.90454 18.0061 2.7589V0.791488C18.0061 0.581572 18.0895 0.380254 18.2379 0.231821C18.3864 0.0833887 18.5877 0 18.7976 0C19.0075 0 19.2088 0.0833887 19.3573 0.231821C19.5057 0.380254 19.5891 0.581572 19.5891 0.791488V2.76071C20.9078 2.9063 22.1569 3.42765 23.1879 4.26273L24.3258 2.72905C24.4509 2.56046 24.6379 2.44847 24.8456 2.41772C25.0532 2.38698 25.2646 2.43999 25.4332 2.5651C25.6018 2.69021 25.7138 2.87717 25.7446 3.08485C25.7753 3.29252 25.7223 3.50391 25.5972 3.6725L24.3181 5.39614C25.2386 6.55925 25.7617 7.98691 25.8107 9.46936H27.7405C27.9504 9.46936 28.1518 9.55275 28.3002 9.70118C28.4486 9.84961 28.532 10.0509 28.532 10.2608C28.532 10.4708 28.4486 10.6721 28.3002 10.8205C28.1518 10.9689 27.9504 11.0523 27.7405 11.0523H25.7713L25.5483 16.6665H27.4325C27.6424 16.6665 27.8438 16.7499 27.9922 16.8983C28.1406 17.0467 28.224 17.248 28.224 17.458C28.224 17.6679 28.1406 17.8692 27.9922 18.0176C27.8438 18.1661 27.6424 18.2494 27.4325 18.2494H25.4855L24.9477 31.7694C26.1307 31.611 27.2161 31.029 28.0029 30.1315C28.7896 29.2339 29.2242 28.0815 29.2263 26.888V20.85C29.2276 19.7409 29.6688 18.6776 30.4531 17.8933C31.2373 17.109 32.3007 16.6678 33.4098 16.6665C34.519 16.6677 35.5824 17.1088 36.3668 17.8931C37.1511 18.6775 37.5922 19.7409 37.5934 20.85V26.8834C37.5934 31.2768 39.3026 26.2 36.8781 28.6829L35.3414 29.7073C37.4557 27.5232 35.8536 28.1707 36.0104 26.8834V20.85C36.0097 20.1605 35.7355 19.4995 35.2479 19.0119C34.7604 18.5244 34.0993 18.2502 33.4098 18.2494C32.7205 18.2508 32.0598 18.5252 31.5724 19.0126C31.085 19.5 30.8106 20.1607 30.8092 20.85V26.888C30.8069 28.5125 30.1981 30.0776 29.1022 31.2768C28.0063 32.4759 26.5021 33.2227 24.8844 33.3709L24.5854 48.6585L23.0488 51.7317L23.3276 32.6215V32.6088C23.3276 32.6043 23.3304 32.5899 23.3304 32.5799L23.931 17.4973C23.931 17.4842 23.9269 17.472 23.9269 17.4589C23.9282 17.4286 23.9312 17.3984 23.936 17.3684L24.2308 9.95104C24.2607 9.21876 24.1423 8.488 23.8827 7.80265C23.6231 7.11729 23.2276 6.49148 22.72 5.96279C22.2125 5.43411 21.6033 5.01346 20.9291 4.7261C20.2549 4.43875 19.5296 4.29063 18.7967 4.29063C18.0638 4.29063 17.3385 4.43875 16.6643 4.7261C15.9901 5.01346 15.3809 5.43411 14.8734 5.96279C14.3658 6.49148 13.9704 7.11729 13.7107 7.80265C13.4511 8.488 13.3327 9.21876 13.3626 9.95104L13.6579 17.3765C13.6621 17.404 13.6648 17.4316 13.6661 17.4593C13.6661 17.4715 13.6629 17.4828 13.6624 17.495L13.9184 23.931C13.9184 23.9344 13.9187 23.9379 13.919 23.9413L13.9193 23.9444C13.9198 23.9502 13.92 23.9559 13.9184 23.9617V23.9676L16.9025 72.7317L15.3659 73.2439L12.6362 31.5021C9.22935 31.3275 6.01937 29.8523 3.66824 27.3805C1.31711 24.9088 0.00410843 21.6291 7.62939e-06 18.2178ZM6.78419 12.1844V18.2178C6.77604 19.786 7.33724 21.3039 8.36358 22.4896C9.38993 23.6753 10.8117 24.4483 12.3649 24.665L12.5734 29.9115C9.59875 29.723 6.80738 28.4095 4.76613 26.2376C2.72488 24.0657 1.58678 21.1983 1.58298 18.2178V12.1844C1.58394 11.495 1.85823 10.834 2.34574 10.3465C2.83324 9.85904 3.49416 9.58474 4.18359 9.58379C4.87309 9.58451 5.53414 9.85873 6.02169 10.3463C6.50925 10.8338 6.78347 11.4949 6.78419 12.1844Z" fill="#828282"/>
<path d="M21.6151 27.3635C21.8248 27.3718 22.0226 27.4631 22.1651 27.6173C22.3075 27.7715 22.3828 27.976 22.3745 28.1857L21.6771 36.2346C21.669 36.4388 21.5822 36.632 21.435 36.7737C21.2877 36.9154 21.6824 36.1726 20.8869 36.9949H20.8548C20.6451 36.9865 20.4473 36.8952 20.3048 36.741C20.1624 36.5868 20.0871 36.3823 20.0954 36.1726L20.7933 28.1233C20.8029 27.914 20.8946 27.717 21.0484 27.5748C21.2022 27.4326 21.4057 27.3567 21.6151 27.3635Z" fill="#828282"/>
<path d="M15.8781 74.2681C15.8781 74.2681 19.9756 70.1708 27.6586 70.1708C40.9756 70.1708 42.5122 81.4389 56.3415 81.4388C67.1463 81.4388 73.2439 75.2925 73.2439 75.2925" stroke="#757575" stroke-width="2" stroke-linecap="round"/>
<path fill-rule="evenodd" clip-rule="evenodd" d="M29.6593 69.5617C26.4596 64.9342 24.5854 59.3201 24.5854 53.2683C24.5854 37.4272 37.4272 24.5854 53.2683 24.5854C69.1095 24.5854 81.9512 37.4272 81.9512 53.2683C81.9512 63.8336 76.2389 73.0647 67.7343 78.0415C69.2111 78.006 70.7685 77.7588 72.3317 77.3744C79.4399 71.7455 84 63.0395 84 53.2683C84 36.2957 70.241 22.5366 53.2683 22.5366C36.2957 22.5366 22.5366 36.2957 22.5366 53.2683C22.5366 59.6071 24.4557 65.4976 27.7446 70.3906C28.3661 70.093 29.0051 69.8146 29.6593 69.5617Z" fill="#757575"/>
<path d="M18 80.9393C22.5085 75.7794 32.4915 75.4353 37 80.9392" stroke="#757575" stroke-width="2" stroke-linecap="round"/>
<defs>
<filter id="filter0_d_79_14" x="35.0512" y="42.1243" width="34.8347" height="28.5873" filterUnits="userSpaceOnUse" color-interpolation-filters="sRGB">
<feFlood flood-opacity="0" result="BackgroundImageFix"/>
<feColorMatrix in="SourceAlpha" type="matrix" values="0 0 0 0 0 0 0 0 0 0 0 0 0 0 0 0 0 0 127 0" result="hardAlpha"/>
<feOffset dy="4"/>
<feGaussianBlur stdDeviation="2"/>
<feColorMatrix type="matrix" values="0 0 0 0 0 0 0 0 0 0 0 0 0 0 0 0 0 0 0.25 0"/>
<feBlend mode="normal" in2="BackgroundImageFix" result="effect1_dropShadow_79_14"/>
<feBlend mode="normal" in="SourceGraphic" in2="effect1_dropShadow_79_14" result="shape"/>
</filter>
</defs>
</svg>
