<svg width="91" height="101" viewBox="0 0 91 101" fill="none" xmlns="http://www.w3.org/2000/svg">
<path d="M49.095 52.9697C49.0941 52.7543 49.0817 52.5398 49.0553 52.3262V31.8868C49.0553 30.9389 48.6213 30.0412 47.8734 29.4418C47.1255 28.8416 46.1421 28.6029 45.1948 28.7915L30.4567 31.7182C28.9573 32.0209 27.8795 33.313 27.876 34.8144V45.5699C25.6825 44.2605 22.8645 44.5666 21.0168 46.3162C19.1699 48.065 18.7589 50.8161 20.0166 53.0112C21.2752 55.2062 23.885 56.2925 26.3696 55.6542C28.8533 55.0168 30.5855 52.8157 30.5855 50.2972V42.1277L46.3449 38.9969V48.2189C44.1452 46.9286 41.3343 47.2546 39.5015 49.012C37.6679 50.7686 37.2719 53.5163 38.5375 55.7026C39.8023 57.889 42.4112 58.9658 44.8896 58.324C47.368 57.6823 49.095 55.483 49.0941 52.9697H49.095ZM24.9381 53.1781C23.3152 53.179 22.0002 51.8886 22.0002 50.2972C22.0002 48.7067 23.3152 47.4164 24.9381 47.4164C26.5601 47.4164 27.876 48.7067 27.876 50.2972C27.8742 51.8877 26.5601 53.1764 24.9381 53.1781ZM30.5855 39.4163V34.8144C30.5864 34.5757 30.7575 34.3707 30.9956 34.3223L45.7328 31.3956C45.8836 31.3653 46.0398 31.4034 46.1579 31.4985C46.277 31.5936 46.3458 31.7363 46.3458 31.8868V36.2855L30.5855 39.4163ZM40.5097 52.9697C40.5035 51.4631 41.6836 50.2064 43.2156 50.0888C44.7476 49.9712 46.113 51.0315 46.3458 52.5208V52.6263H46.3626C46.494 53.6892 46.0124 54.7357 45.1137 55.3437C44.2149 55.9509 43.0463 56.02 42.0796 55.521C41.1138 55.0229 40.5088 54.0404 40.5097 52.9697Z" fill="#606060"/>
<path d="M90.4252 70.26C88.9875 63.2719 83.8208 58.7564 77.2632 58.7564C74.3755 58.7564 71.2965 59.6758 68.2439 61.4315L68.0666 23.9819C68.0649 23.629 67.9202 23.2917 67.6645 23.0435L44.3322 0.430703C44.3269 0.425514 44.3199 0.422055 44.3146 0.416865C44.0597 0.150487 43.7034 0 43.3312 0H43.325C43.2562 0.000864866 43.1883 0.00691893 43.1213 0.0172973L43.0225 0.00778379C42.9775 0.00345947 42.9325 0.00172973 42.8867 0.00259461L10.6304 0.153946C4.80663 0.182487 0.108255 4.8346 0.136479 10.5453L0.461934 76.9446C0.496332 82.6337 5.20529 87.2296 11.0079 87.2365H11.0582L47.2049 87.0574C50.829 92.3824 56.8689 97.3277 65.7796 100.795C65.8035 100.804 65.8273 100.812 65.8511 100.82C66.4914 101.06 67.1997 101.06 67.8409 100.82C67.8682 100.811 67.8947 100.802 67.9202 100.792C86.2039 93.5284 92.3982 80.2293 90.4269 70.2704L90.4252 70.26ZM63.4785 22.7244L52.6283 22.7754H52.5894C48.2783 22.7702 44.7794 19.3548 44.7538 15.1274L44.7018 4.52585L63.4785 22.7244ZM11.045 84.5779C6.71967 84.5926 3.19787 81.172 3.17141 76.9307L2.84596 10.5323C2.82479 6.28844 6.3166 2.83157 10.6445 2.81082L41.9826 2.66379L42.0443 15.1395C42.0787 20.8286 46.7877 25.4245 52.5894 25.4305H52.6406L65.3633 25.3709L65.5344 61.4392C62.436 59.5841 59.3632 58.6457 56.3714 58.6457C49.775 58.6457 44.6304 63.2105 43.2641 70.2721C42.4121 74.6276 43.0904 79.5954 45.6138 84.4075L11.045 84.5779ZM66.9492 98.3094C66.9077 98.3223 66.8715 98.3318 66.846 98.3362C66.8186 98.331 66.7816 98.3215 66.7384 98.3085C49.9223 91.7502 44.1673 79.7562 45.926 70.7703C47.0549 64.9298 51.0574 61.3026 56.3714 61.3026C59.4478 61.3026 62.6988 62.5402 66.0354 64.98C66.5099 65.3277 67.1608 65.332 67.6406 64.9904C70.9296 62.6501 74.2565 61.4133 77.2632 61.4133C82.5525 61.4133 86.577 65.0025 87.7677 70.7807C90.2038 83.0998 79.0739 93.4774 66.9492 98.3094V98.3094Z" fill="#606060"/>
</svg>
