<svg width="100" height="100" viewBox="0 0 100 100" fill="none" xmlns="http://www.w3.org/2000/svg">
<g clip-path="url(#clip0_75_48)">
<g filter="url(#filter0_d_75_48)">
<path d="M50.0731 40.9447C43.616 40.9514 38.3833 46.1841 38.3757 52.6413V57.8437C38.3581 62.0352 40.5833 65.9147 44.2097 68.0155C47.8369 70.1163 52.3094 70.1163 55.9366 68.0155C59.5629 65.9147 61.7882 62.0352 61.7706 57.8437V52.6413C61.763 46.1841 56.5303 40.9514 50.0731 40.9447ZM59.187 57.8454C59.203 61.1118 57.4689 64.1369 54.6431 65.7743C51.8165 67.4125 48.3298 67.4125 45.5032 65.7743C42.6774 64.1369 40.9441 61.1118 40.9593 57.8454V52.6413C40.9836 47.6256 45.0574 43.572 50.0731 43.572C55.0888 43.572 59.1626 47.6256 59.187 52.6413V57.8454Z" fill="#606060"/>
</g>
<g filter="url(#filter1_d_75_48)">
<path d="M80.508 47.5936C74.7673 47.6004 70.1158 52.2527 70.1091 57.9934V62.5474C70.1091 68.2906 74.7648 72.9472 80.5088 72.9472C86.252 72.9472 90.9086 68.2906 90.9086 62.5474V57.9934C90.9019 52.2519 86.2495 47.5995 80.508 47.5936ZM88.3234 62.5474C88.3234 66.8642 84.824 70.3636 80.5071 70.3636C76.1903 70.3636 72.6909 66.8642 72.6909 62.5474V57.9934C72.6909 53.6766 76.1903 50.1772 80.5071 50.1772C84.824 50.1772 88.3234 53.6766 88.3234 57.9934V62.5474Z" fill="#606060"/>
</g>
<g filter="url(#filter2_d_75_48)">
<path d="M87.8767 73.7983C87.1989 73.7554 86.8491 74.1826 86.511 74.5947C85.0392 76.3928 82.8207 77.4112 80.4978 77.3549C78.175 77.2977 76.0086 76.1724 74.6269 74.3037C74.3746 73.9673 73.9759 73.7722 73.5554 73.7806C71.4714 73.8269 69.4396 74.4425 67.6811 75.5619C65.3961 72.7958 62.0674 71.1012 58.4865 70.8817C57.8019 70.8338 57.463 71.2475 57.0719 71.7244C55.3554 73.8227 52.766 75.011 50.0555 74.9446C47.3458 74.8781 44.8177 73.5645 43.2056 71.3846C42.9533 71.0482 42.5546 70.8531 42.1341 70.8615C38.7466 70.9397 35.5256 72.3442 33.1632 74.7738C32.9109 75.0329 32.6729 75.302 32.4442 75.5778C30.7983 74.5283 28.912 73.916 26.9634 73.7983C26.2856 73.7579 25.9517 74.1641 25.5976 74.5947C24.1267 76.3928 21.9073 77.4112 19.5845 77.3549C17.2617 77.2977 15.0953 76.1724 13.7135 74.3037C13.462 73.9665 13.0634 73.7714 12.6421 73.7806C6.38506 73.9404 1.39627 79.0579 1.39459 85.3166V95.565C1.39459 96.2781 1.9732 96.8567 2.68636 96.8567H29.4637V98.7086C29.4637 99.4218 30.0414 100 30.7554 100H69.3891C70.1031 100 70.6809 99.4218 70.6809 98.7086V96.8567H97.4162C98.1302 96.8567 98.7079 96.2781 98.7079 95.565V85.3166C98.7021 79.221 93.9605 74.1784 87.8767 73.7983ZM29.4637 83.8574V94.2732H3.97813V85.3166C4.00757 80.7121 7.50107 76.8679 12.082 76.4012C13.9986 78.6407 16.7974 79.9334 19.746 79.9401C22.6937 79.9468 25.4984 78.6677 27.4251 76.4365C28.695 76.603 29.9136 77.0412 30.9993 77.7215C29.9876 79.6079 29.4595 81.7163 29.4637 83.8574ZM68.0974 97.4168H32.0472V83.8574C32.0489 78.4524 36.1832 73.9471 41.5673 73.4804C43.7228 76.0421 46.8975 77.5247 50.2455 77.5315C53.5935 77.539 56.775 76.0707 58.9414 73.5182C64.1657 74.1599 68.0923 78.5953 68.0974 83.8583V97.4168ZM96.1244 94.2723H70.6809V83.8574C70.6826 81.7104 70.1486 79.5978 69.1293 77.7081C70.2974 76.9764 71.6211 76.529 72.9945 76.4003C74.9111 78.6407 77.7091 79.9342 80.6576 79.9409C83.6062 79.9477 86.4109 78.6677 88.3376 76.4365C92.7915 77.0277 96.1202 80.824 96.1244 85.3166V94.2723Z" fill="#606060"/>
</g>
<g filter="url(#filter3_d_75_48)">
<path d="M19.5955 72.9472C25.3353 72.9396 29.9868 68.288 29.9944 62.5482V57.9934C29.9944 52.2494 25.3378 47.5936 19.5946 47.5936C13.8506 47.5936 9.19489 52.2494 9.19489 57.9934V62.5474C9.20161 68.288 13.854 72.9404 19.5955 72.9472ZM11.7801 57.9934C11.7801 53.6766 15.2795 50.1772 19.5963 50.1772C23.9132 50.1772 27.4125 53.6766 27.4125 57.9934V62.5474C27.4125 66.8642 23.9132 70.3636 19.5963 70.3636C15.2795 70.3636 11.7801 66.8642 11.7801 62.5474V57.9934Z" fill="#606060"/>
</g>
<g filter="url(#filter4_d_75_48)">
<path d="M66.5054 20.2613V1.29176C66.5054 0.864531 66.2943 0.464217 65.9402 0.223692C65.587 -0.016833 65.1379 -0.0664519 64.7401 0.0899735L47.2836 6.97185C46.7899 7.16612 46.4653 7.64296 46.4653 8.17363V21.0989C45.5864 20.6288 44.6033 20.3841 43.6067 20.3883C40.6052 20.3883 38.1638 22.5168 38.1638 25.1323C38.1638 27.7487 40.6052 29.8772 43.6067 29.8772C46.6074 29.8772 49.0488 27.7487 49.0488 25.1323V15.8805L63.9218 10.0171V16.2262C63.0422 15.7561 62.0599 15.5122 61.0625 15.5155C58.0618 15.5155 55.6204 17.6441 55.6204 20.2604C55.6204 22.8759 58.0618 25.0045 61.0625 25.0045C64.064 25.0045 66.5054 22.8768 66.5054 20.2613V20.2613ZM43.6067 27.2937C42.0559 27.2937 40.7474 26.3047 40.7474 25.1332C40.7474 23.9617 42.0568 22.9726 43.6067 22.9726C45.1559 22.9726 46.4653 23.9633 46.4653 25.1332C46.4653 26.3038 45.1559 27.2937 43.6067 27.2937ZM61.0625 22.4218C59.5125 22.4218 58.2039 21.4311 58.2039 20.2613C58.2039 19.0906 59.5133 18.0999 61.0625 18.0999C62.6124 18.0999 63.9218 19.0906 63.9218 20.2613C63.9218 21.4311 62.6124 22.4218 61.0625 22.4218ZM63.9218 7.24012L49.0488 13.1027V9.05247L63.9218 3.18904V7.24012Z" fill="#606060"/>
</g>
<g filter="url(#filter5_d_75_48)">
<path d="M78.5383 20.8702V33.7946C77.6587 33.3245 76.6764 33.0806 75.679 33.084C72.6783 33.084 70.2369 35.2125 70.2369 37.8289C70.2369 40.4444 72.6783 42.5729 75.679 42.5729C78.6805 42.5729 81.1219 40.4444 81.1219 37.8289V28.5762L95.9957 22.7136V28.9235C95.1161 28.4526 94.1338 28.2087 93.1364 28.2129C90.1357 28.2129 87.6943 30.3415 87.6943 32.957C87.6943 35.5725 90.1357 37.701 93.1364 37.701C96.137 37.701 98.5793 35.5725 98.5793 32.957V13.9883C98.5793 13.5602 98.3673 13.1608 98.0141 12.9202C97.6609 12.6797 97.211 12.6292 96.8132 12.7865L79.3575 19.6684C78.863 19.8626 78.5383 20.3387 78.5383 20.8702V20.8702ZM75.679 39.9902C74.129 39.9902 72.8204 38.9995 72.8204 37.8297C72.8204 36.659 74.1298 35.6692 75.679 35.6692C77.2289 35.6692 78.5383 36.659 78.5383 37.8297C78.5383 38.9995 77.2289 39.9902 75.679 39.9902V39.9902ZM93.1355 35.1175C91.5856 35.1175 90.277 34.1285 90.277 32.957C90.277 31.7855 91.5856 30.7964 93.1355 30.7964C94.6855 30.7964 95.9949 31.7871 95.9949 32.957C95.9949 34.1276 94.6855 35.1175 93.1355 35.1175ZM81.1219 21.7482L95.9957 15.8856V19.9367L81.1227 25.7992L81.1219 21.7482Z" fill="#606060"/>
</g>
<g filter="url(#filter6_d_75_48)">
<path d="M24.4236 33.475C21.4229 33.475 18.9815 35.6036 18.9815 38.2191C18.9815 40.8354 21.4229 42.964 24.4236 42.964C27.4251 42.964 29.8665 40.8354 29.8665 38.2191V19.2495C29.8665 18.8223 29.6554 18.4228 29.3014 18.1823C28.9482 17.9418 28.4991 17.8913 28.1013 18.0478L10.6447 24.9296C10.1511 25.1247 9.82644 25.6008 9.82644 26.1314V39.0567C8.94675 38.5866 7.96447 38.3427 6.96789 38.346C3.96638 38.346 1.52496 40.4746 1.52496 43.0909C1.52496 45.7064 3.96638 47.835 6.96789 47.835C9.96857 47.835 12.41 45.7064 12.41 43.0909V33.8383L27.283 27.9749V34.1848C26.4033 33.7147 25.421 33.4708 24.4236 33.475ZM24.4236 40.3804C22.8737 40.3804 21.5651 39.3897 21.5651 38.2191C21.5651 37.0492 22.8745 36.0585 24.4236 36.0585C25.9736 36.0585 27.283 37.0484 27.283 38.2191C27.283 39.3897 25.9736 40.3804 24.4236 40.3804ZM6.96789 45.2523C5.41709 45.2523 4.1085 44.2616 4.1085 43.0918C4.1085 41.9211 5.41793 40.9304 6.96789 40.9304C8.51701 40.9304 9.82644 41.9211 9.82644 43.0918C9.82644 44.2616 8.51701 45.2523 6.96789 45.2523ZM12.41 31.0613V27.0111L27.283 21.1477V25.1979L12.41 31.0613Z" fill="#606060"/>
</g>
</g>
<defs>
<filter id="filter0_d_75_48" x="34.3756" y="40.9447" width="31.3951" height="36.6464" filterUnits="userSpaceOnUse" color-interpolation-filters="sRGB">
<feFlood flood-opacity="0" result="BackgroundImageFix"/>
<feColorMatrix in="SourceAlpha" type="matrix" values="0 0 0 0 0 0 0 0 0 0 0 0 0 0 0 0 0 0 127 0" result="hardAlpha"/>
<feOffset dy="4"/>
<feGaussianBlur stdDeviation="2"/>
<feColorMatrix type="matrix" values="0 0 0 0 0 0 0 0 0 0 0 0 0 0 0 0 0 0 0.25 0"/>
<feBlend mode="normal" in2="BackgroundImageFix" result="effect1_dropShadow_75_48"/>
<feBlend mode="normal" in="SourceGraphic" in2="effect1_dropShadow_75_48" result="shape"/>
</filter>
<filter id="filter1_d_75_48" x="66.1091" y="47.5936" width="28.7995" height="33.3535" filterUnits="userSpaceOnUse" color-interpolation-filters="sRGB">
<feFlood flood-opacity="0" result="BackgroundImageFix"/>
<feColorMatrix in="SourceAlpha" type="matrix" values="0 0 0 0 0 0 0 0 0 0 0 0 0 0 0 0 0 0 127 0" result="hardAlpha"/>
<feOffset dy="4"/>
<feGaussianBlur stdDeviation="2"/>
<feColorMatrix type="matrix" values="0 0 0 0 0 0 0 0 0 0 0 0 0 0 0 0 0 0 0.25 0"/>
<feBlend mode="normal" in2="BackgroundImageFix" result="effect1_dropShadow_75_48"/>
<feBlend mode="normal" in="SourceGraphic" in2="effect1_dropShadow_75_48" result="shape"/>
</filter>
<filter id="filter2_d_75_48" x="-2.60541" y="70.8613" width="105.313" height="37.1391" filterUnits="userSpaceOnUse" color-interpolation-filters="sRGB">
<feFlood flood-opacity="0" result="BackgroundImageFix"/>
<feColorMatrix in="SourceAlpha" type="matrix" values="0 0 0 0 0 0 0 0 0 0 0 0 0 0 0 0 0 0 127 0" result="hardAlpha"/>
<feOffset dy="4"/>
<feGaussianBlur stdDeviation="2"/>
<feColorMatrix type="matrix" values="0 0 0 0 0 0 0 0 0 0 0 0 0 0 0 0 0 0 0.25 0"/>
<feBlend mode="normal" in2="BackgroundImageFix" result="effect1_dropShadow_75_48"/>
<feBlend mode="normal" in="SourceGraphic" in2="effect1_dropShadow_75_48" result="shape"/>
</filter>
<filter id="filter3_d_75_48" x="5.19489" y="47.5936" width="28.7995" height="33.3535" filterUnits="userSpaceOnUse" color-interpolation-filters="sRGB">
<feFlood flood-opacity="0" result="BackgroundImageFix"/>
<feColorMatrix in="SourceAlpha" type="matrix" values="0 0 0 0 0 0 0 0 0 0 0 0 0 0 0 0 0 0 127 0" result="hardAlpha"/>
<feOffset dy="4"/>
<feGaussianBlur stdDeviation="2"/>
<feColorMatrix type="matrix" values="0 0 0 0 0 0 0 0 0 0 0 0 0 0 0 0 0 0 0.25 0"/>
<feBlend mode="normal" in2="BackgroundImageFix" result="effect1_dropShadow_75_48"/>
<feBlend mode="normal" in="SourceGraphic" in2="effect1_dropShadow_75_48" result="shape"/>
</filter>
<filter id="filter4_d_75_48" x="34.1638" y="6.10352e-05" width="36.3416" height="37.8771" filterUnits="userSpaceOnUse" color-interpolation-filters="sRGB">
<feFlood flood-opacity="0" result="BackgroundImageFix"/>
<feColorMatrix in="SourceAlpha" type="matrix" values="0 0 0 0 0 0 0 0 0 0 0 0 0 0 0 0 0 0 127 0" result="hardAlpha"/>
<feOffset dy="4"/>
<feGaussianBlur stdDeviation="2"/>
<feColorMatrix type="matrix" values="0 0 0 0 0 0 0 0 0 0 0 0 0 0 0 0 0 0 0.25 0"/>
<feBlend mode="normal" in2="BackgroundImageFix" result="effect1_dropShadow_75_48"/>
<feBlend mode="normal" in="SourceGraphic" in2="effect1_dropShadow_75_48" result="shape"/>
</filter>
<filter id="filter5_d_75_48" x="66.2369" y="12.6962" width="36.3424" height="37.8767" filterUnits="userSpaceOnUse" color-interpolation-filters="sRGB">
<feFlood flood-opacity="0" result="BackgroundImageFix"/>
<feColorMatrix in="SourceAlpha" type="matrix" values="0 0 0 0 0 0 0 0 0 0 0 0 0 0 0 0 0 0 127 0" result="hardAlpha"/>
<feOffset dy="4"/>
<feGaussianBlur stdDeviation="2"/>
<feColorMatrix type="matrix" values="0 0 0 0 0 0 0 0 0 0 0 0 0 0 0 0 0 0 0.25 0"/>
<feBlend mode="normal" in2="BackgroundImageFix" result="effect1_dropShadow_75_48"/>
<feBlend mode="normal" in="SourceGraphic" in2="effect1_dropShadow_75_48" result="shape"/>
</filter>
<filter id="filter6_d_75_48" x="-2.47504" y="17.9581" width="36.3416" height="37.8769" filterUnits="userSpaceOnUse" color-interpolation-filters="sRGB">
<feFlood flood-opacity="0" result="BackgroundImageFix"/>
<feColorMatrix in="SourceAlpha" type="matrix" values="0 0 0 0 0 0 0 0 0 0 0 0 0 0 0 0 0 0 127 0" result="hardAlpha"/>
<feOffset dy="4"/>
<feGaussianBlur stdDeviation="2"/>
<feColorMatrix type="matrix" values="0 0 0 0 0 0 0 0 0 0 0 0 0 0 0 0 0 0 0.25 0"/>
<feBlend mode="normal" in2="BackgroundImageFix" result="effect1_dropShadow_75_48"/>
<feBlend mode="normal" in="SourceGraphic" in2="effect1_dropShadow_75_48" result="shape"/>
</filter>
<clipPath id="clip0_75_48">
<rect width="100" height="100" fill="white"/>
</clipPath>
</defs>
</svg>
