<svg width="60" height="60" viewBox="0 0 60 60" fill="none" xmlns="http://www.w3.org/2000/svg">
<path fill-rule="evenodd" clip-rule="evenodd" d="M60 30C60 46.5686 46.5686 60 30 60C13.4314 60 0 46.5686 0 30C0 13.4314 13.4314 0 30 0C46.5686 0 60 13.4314 60 30ZM27.7551 21.5918C27.7551 19.6081 26.147 18 24.1633 18C22.1795 18 20.5714 19.6081 20.5714 21.5918V37.7551C20.5714 39.7388 22.1795 41.3469 24.1633 41.3469C26.147 41.3469 27.7551 39.7388 27.7551 37.7551V21.5918ZM35.8367 18C37.8204 18 39.4285 19.6081 39.4285 21.5918V37.7551C39.4285 39.7388 37.8204 41.3469 35.8367 41.3469C33.853 41.3469 32.2449 39.7388 32.2449 37.7551V21.5918C32.2449 19.6081 33.853 18 35.8367 18Z" fill="white"/>
</svg>
