<svg width="328" height="96" viewBox="0 0 328 96" fill="none" xmlns="http://www.w3.org/2000/svg">
<rect opacity="0.8" width="328" height="96" fill="url(#paint0_linear_413_837)"/>
<path d="M221.288 41.072L221 39.872C221.944 39.616 222.536 39.42 222.776 39.284C223.232 39.036 223.448 38.652 223.424 38.132C223.416 38.076 223.408 38.012 223.4 37.94L222.92 34.484L224.024 34.316L224.492 37.796C224.548 38.212 224.536 38.58 224.456 38.9C224.376 39.22 224.252 39.484 224.084 39.692C223.924 39.908 223.688 40.104 223.376 40.28C223.064 40.464 222.756 40.608 222.452 40.712C222.148 40.824 221.76 40.944 221.288 41.072ZM227.957 38C227.349 38 226.861 37.868 226.493 37.604C226.133 37.34 225.937 37 225.905 36.584L225.857 35.804H226.889C226.889 36.028 226.901 36.216 226.925 36.368C226.973 36.624 227.253 36.752 227.765 36.752H228.761C229.617 36.752 229.957 36.44 229.781 35.816C229.661 35.448 229.445 34.988 229.133 34.436C228.821 33.884 228.541 33.424 228.293 33.056L227.909 32.516L228.809 31.784C228.937 31.952 229.097 32.176 229.289 32.456C229.481 32.736 229.761 33.212 230.129 33.884C230.505 34.548 230.749 35.1 230.861 35.54C231.029 36.236 230.921 36.82 230.537 37.292C230.161 37.764 229.521 38 228.617 38H227.957ZM240.525 36.752V38H239.937C239.961 38.4 239.925 38.744 239.829 39.032C239.741 39.328 239.605 39.576 239.421 39.776C239.245 39.976 238.973 40.156 238.605 40.316C238.245 40.476 237.865 40.608 237.465 40.712C237.073 40.824 236.549 40.948 235.893 41.084L235.665 39.872C237.089 39.568 237.981 39.32 238.341 39.128C238.701 38.936 238.857 38.56 238.809 38H237.333C236.725 38 236.233 37.82 235.857 37.46C235.481 37.1 235.269 36.612 235.221 35.996C235.165 35.316 235.333 34.708 235.725 34.172C236.125 33.628 236.649 33.34 237.297 33.308C237.945 33.276 238.485 33.5 238.917 33.98C239.357 34.452 239.621 35.084 239.709 35.876L239.805 36.752H240.525ZM236.337 35.9C236.385 36.468 236.717 36.752 237.333 36.752H238.677L238.593 36.02C238.545 35.54 238.409 35.172 238.185 34.916C237.969 34.66 237.693 34.54 237.357 34.556C237.021 34.564 236.757 34.704 236.565 34.976C236.381 35.24 236.305 35.548 236.337 35.9ZM247.869 36.752H248.649V38H247.869C247.477 38 247.117 37.892 246.789 37.676C246.469 37.452 246.229 37.164 246.069 36.812L244.029 37.46C242.861 37.82 241.673 38 240.465 38H240.405V36.752H240.465C241.497 36.752 242.577 36.592 243.705 36.272L246.405 35.504L244.065 34.34C243.713 34.156 243.369 34.116 243.033 34.22C242.705 34.324 242.441 34.544 242.241 34.88L242.025 35.264L241.053 34.664L241.281 34.244C241.665 33.604 242.161 33.196 242.769 33.02C243.385 32.836 244.001 32.916 244.617 33.26L247.701 34.94L247.521 36.356L247.185 36.464C247.361 36.656 247.589 36.752 247.869 36.752ZM243.249 39.644L244.173 38.708L245.109 39.644L244.173 40.568L243.249 39.644ZM250.698 32.504L249.87 33.32L249.042 32.504L249.87 31.676L250.698 32.504ZM252.882 32.504L252.054 33.32L251.238 32.504L252.054 31.676L252.882 32.504ZM252.546 35.864C252.578 36.2 252.662 36.432 252.798 36.56C252.934 36.688 253.178 36.752 253.53 36.752V38C252.866 38 252.362 37.816 252.018 37.448C251.626 37.816 251.106 38 250.458 38H248.526V36.752H250.458C250.826 36.752 251.086 36.688 251.238 36.56C251.39 36.432 251.454 36.232 251.43 35.96L251.298 34.484L252.414 34.376L252.546 35.852V35.864ZM261.633 35.66C261.721 35.988 261.893 36.252 262.149 36.452C262.405 36.652 262.701 36.752 263.037 36.752V38C262.357 38 261.789 37.748 261.333 37.244C260.965 37.748 260.417 38 259.689 38C259.081 38 258.589 37.768 258.213 37.304C257.845 37.768 257.329 38 256.665 38C256.065 38 255.589 37.768 255.237 37.304C254.853 37.768 254.345 38 253.713 38H253.413V36.752H253.713C254.097 36.752 254.357 36.672 254.493 36.512C254.629 36.352 254.697 36.148 254.697 35.9V34.424H255.741V35.9C255.741 35.964 255.749 36.032 255.765 36.104C255.781 36.168 255.813 36.256 255.861 36.368C255.917 36.48 256.013 36.572 256.149 36.644C256.285 36.716 256.457 36.752 256.665 36.752C257.049 36.752 257.305 36.676 257.433 36.524C257.569 36.364 257.637 36.156 257.637 35.9V34.424H258.681V35.9V35.912C258.681 35.944 258.685 35.984 258.693 36.032C258.701 36.08 258.721 36.152 258.753 36.248C258.793 36.336 258.841 36.416 258.897 36.488C258.961 36.552 259.053 36.612 259.173 36.668C259.301 36.716 259.449 36.74 259.617 36.74C260.033 36.74 260.317 36.656 260.469 36.488C260.621 36.32 260.665 36.116 260.601 35.876L260.205 34.4L261.213 34.1L261.609 35.576C261.609 35.584 261.613 35.6 261.621 35.624C261.629 35.64 261.633 35.652 261.633 35.66ZM267.177 33.416L270.225 35.24L270.069 36.68L266.553 37.652C265.705 37.884 264.513 38 262.977 38H262.917V36.752H262.977C264.425 36.752 265.525 36.652 266.277 36.452L268.917 35.768L266.649 34.496C266.313 34.304 265.969 34.26 265.617 34.364C265.265 34.468 264.989 34.692 264.789 35.036L264.573 35.408L263.613 34.808L263.841 34.388C264.201 33.74 264.693 33.328 265.317 33.152C265.941 32.968 266.561 33.056 267.177 33.416ZM265.761 39.644L266.685 38.708L267.621 39.644L266.685 40.568L265.761 39.644Z" fill="#E0E0E0"/>
<path d="M213.493 67C212.826 67 212.213 66.84 211.653 66.52C211.106 66.1867 210.673 65.7467 210.353 65.2C210.033 64.64 209.873 64.0267 209.873 63.36V53.62H212.333V63.2C212.333 63.5333 212.446 63.82 212.673 64.06C212.9 64.2867 213.18 64.4 213.513 64.4H214.533C214.666 64.4 214.733 64.4667 214.733 64.6V66.8C214.733 66.9333 214.666 67 214.533 67H213.493ZM225.155 58.8C225.915 58.8 226.615 58.98 227.255 59.34C227.908 59.6867 228.422 60.1667 228.795 60.78C229.182 61.3933 229.375 62.0733 229.375 62.82C229.375 63.58 229.182 64.28 228.795 64.92C228.408 65.56 227.888 66.0667 227.235 66.44C226.595 66.8133 225.902 67 225.155 67H214.535C214.402 67 214.335 66.9333 214.335 66.8V64.6C214.335 64.4667 214.402 64.4 214.535 64.4H216.755C216.528 63.92 216.415 63.42 216.415 62.9C216.415 62.3 216.555 61.7533 216.835 61.26H215.495V58.8H225.155ZM218.935 62.82C218.935 63.2467 219.088 63.62 219.395 63.94C219.702 64.2467 220.075 64.4 220.515 64.4C220.942 64.4 221.308 64.2467 221.615 63.94C221.922 63.62 222.075 63.2467 222.075 62.82C222.075 62.3933 221.922 62.0267 221.615 61.72C221.308 61.4133 220.942 61.26 220.515 61.26C220.075 61.26 219.702 61.4133 219.395 61.72C219.088 62.0267 218.935 62.3933 218.935 62.82ZM225.155 64.4C225.608 64.4 225.988 64.2533 226.295 63.96C226.615 63.6533 226.775 63.2733 226.775 62.82C226.775 62.38 226.615 62.0133 226.295 61.72C225.988 61.4133 225.608 61.26 225.155 61.26H223.875C224.102 61.78 224.215 62.3267 224.215 62.9C224.215 63.42 224.122 63.92 223.935 64.4H225.155ZM231.201 62.68C231.201 61.9733 231.374 61.3267 231.721 60.74C232.068 60.14 232.534 59.6667 233.121 59.32C233.721 58.96 234.374 58.78 235.081 58.78H239.661C240.434 58.78 241.141 58.96 241.781 59.32C242.434 59.6667 242.948 60.1533 243.321 60.78C243.694 61.3933 243.881 62.0733 243.881 62.82C243.881 63.58 243.688 64.2867 243.301 64.94C242.928 65.58 242.414 66.0933 241.761 66.48C241.121 66.8533 240.421 67.04 239.661 67.04C238.901 67.04 238.214 66.8533 237.601 66.48C236.988 66.0933 236.501 65.58 236.141 64.94C235.794 64.2867 235.621 63.58 235.621 62.82V61.24H235.101C234.714 61.24 234.374 61.3867 234.081 61.68C233.801 61.96 233.661 62.2933 233.661 62.68V72H231.201V62.68ZM239.661 64.44C240.128 64.44 240.514 64.2867 240.821 63.98C241.128 63.66 241.281 63.2733 241.281 62.82C241.281 62.3667 241.121 61.9867 240.801 61.68C240.494 61.3733 240.114 61.22 239.661 61.22H238.061V62.82C238.061 63.2733 238.214 63.66 238.521 63.98C238.828 64.2867 239.208 64.44 239.661 64.44ZM254.813 64.4C254.947 64.4 255.013 64.4667 255.013 64.6V66.8C255.013 66.9333 254.947 67 254.813 67H253.833C253.727 67.9067 253.46 68.66 253.033 69.26C252.607 69.8733 252 70.4133 251.213 70.88C250.427 71.36 249.327 71.9067 247.913 72.52L247.153 70.36C248.367 69.84 249.267 69.4133 249.853 69.08C250.44 68.76 250.847 68.44 251.073 68.12C251.313 67.8133 251.433 67.44 251.433 67H249.853C249.08 67 248.367 66.8267 247.713 66.48C247.073 66.12 246.567 65.6333 246.193 65.02C245.82 64.4067 245.633 63.72 245.633 62.96C245.633 62.2 245.82 61.5 246.193 60.86C246.58 60.2067 247.093 59.6933 247.733 59.32C248.387 58.9333 249.093 58.74 249.853 58.74C250.6 58.74 251.28 58.9333 251.893 59.32C252.52 59.6933 253.007 60.2067 253.353 60.86C253.713 61.5 253.893 62.2 253.893 62.96V64.4H254.813ZM251.433 62.96C251.433 62.5067 251.28 62.1267 250.973 61.82C250.667 61.5 250.293 61.34 249.853 61.34C249.4 61.34 249.013 61.4933 248.693 61.8C248.387 62.1067 248.233 62.4933 248.233 62.96C248.233 63.4133 248.387 63.7933 248.693 64.1C249.013 64.4067 249.4 64.56 249.853 64.56H251.433V62.96ZM254.809 67C254.675 67 254.609 66.9333 254.609 66.8V64.6C254.609 64.4667 254.675 64.4 254.809 64.4H255.689C256.022 64.4 256.302 64.2867 256.529 64.06C256.755 63.8333 256.869 63.5533 256.869 63.22V59.86H259.329V63.22C259.329 63.5533 259.435 63.8333 259.649 64.06C259.875 64.2867 260.155 64.4 260.489 64.4H261.369C261.502 64.4 261.569 64.4667 261.569 64.6V66.8C261.569 66.9333 261.502 67 261.369 67H260.489C259.462 67 258.662 66.6267 258.089 65.88C257.515 66.6267 256.715 67 255.689 67H254.809ZM256.969 68.74H259.269V71.04H256.969V68.74ZM261.371 67C261.238 67 261.171 66.9333 261.171 66.8V64.6C261.171 64.4667 261.238 64.4 261.371 64.4H262.131C262.464 64.4 262.744 64.2867 262.971 64.06C263.198 63.82 263.311 63.5333 263.311 63.2V53.62H265.771V63.36C265.771 64.0267 265.611 64.64 265.291 65.2C264.971 65.7467 264.531 66.1867 263.971 66.52C263.424 66.84 262.818 67 262.151 67H261.371ZM265.105 52.98C265.105 52.4067 265.291 51.9467 265.665 51.6C266.025 51.2533 266.471 51.08 267.005 51.08H271.685V52.98H267.305C267.145 52.98 267.011 53.0333 266.905 53.14C266.798 53.2333 266.745 53.36 266.745 53.52V54.44H265.105V52.98ZM267.705 54.58H270.165V67H267.705V54.58Z" fill="white"/>
<path d="M310.752 45.5594C310.914 46.3475 311 47.1637 311 48C311 54.6274 305.627 60 299 60C292.373 60 287 54.6274 287 48C287 41.3726 292.373 36 299 36C303.466 36 307.363 38.4401 309.429 42.06" stroke="white" stroke-width="2" stroke-linecap="round"/>
<path d="M295.673 50.2219C295.248 49.5864 295 48.8222 295 48C295 45.7909 296.791 44 299 44C301.209 44 303 45.7909 303 48C303 50.2091 301.209 52 299 52C298.792 52 298.587 51.9841 298.387 51.9533" stroke="white" stroke-width="2" stroke-linecap="round"/>
<defs>
<linearGradient id="paint0_linear_413_837" x1="164" y1="0" x2="164" y2="96" gradientUnits="userSpaceOnUse">
<stop stop-color="#458498"/>
<stop offset="1" stop-color="#3F5681"/>
</linearGradient>
</defs>
</svg>
