<svg width="328" height="96" viewBox="0 0 328 96" fill="none" xmlns="http://www.w3.org/2000/svg">
<rect opacity="0.8" width="328" height="96" fill="url(#paint0_linear_413_796)"/>
<path d="M220.288 41.072L220 39.872C220.944 39.616 221.536 39.42 221.776 39.284C222.232 39.036 222.448 38.652 222.424 38.132C222.416 38.076 222.408 38.012 222.4 37.94L221.92 34.484L223.024 34.316L223.492 37.796C223.548 38.212 223.536 38.58 223.456 38.9C223.376 39.22 223.252 39.484 223.084 39.692C222.924 39.908 222.688 40.104 222.376 40.28C222.064 40.464 221.756 40.608 221.452 40.712C221.148 40.824 220.76 40.944 220.288 41.072ZM226.957 38C226.349 38 225.861 37.868 225.493 37.604C225.133 37.34 224.937 37 224.905 36.584L224.857 35.804H225.889C225.889 36.028 225.901 36.216 225.925 36.368C225.973 36.624 226.253 36.752 226.765 36.752H227.761C228.617 36.752 228.957 36.44 228.781 35.816C228.661 35.448 228.445 34.988 228.133 34.436C227.821 33.884 227.541 33.424 227.293 33.056L226.909 32.516L227.809 31.784C227.937 31.952 228.097 32.176 228.289 32.456C228.481 32.736 228.761 33.212 229.129 33.884C229.505 34.548 229.749 35.1 229.861 35.54C230.029 36.236 229.921 36.82 229.537 37.292C229.161 37.764 228.521 38 227.617 38H226.957ZM239.525 36.752V38H238.937C238.961 38.4 238.925 38.744 238.829 39.032C238.741 39.328 238.605 39.576 238.421 39.776C238.245 39.976 237.973 40.156 237.605 40.316C237.245 40.476 236.865 40.608 236.465 40.712C236.073 40.824 235.549 40.948 234.893 41.084L234.665 39.872C236.089 39.568 236.981 39.32 237.341 39.128C237.701 38.936 237.857 38.56 237.809 38H236.333C235.725 38 235.233 37.82 234.857 37.46C234.481 37.1 234.269 36.612 234.221 35.996C234.165 35.316 234.333 34.708 234.725 34.172C235.125 33.628 235.649 33.34 236.297 33.308C236.945 33.276 237.485 33.5 237.917 33.98C238.357 34.452 238.621 35.084 238.709 35.876L238.805 36.752H239.525ZM235.337 35.9C235.385 36.468 235.717 36.752 236.333 36.752H237.677L237.593 36.02C237.545 35.54 237.409 35.172 237.185 34.916C236.969 34.66 236.693 34.54 236.357 34.556C236.021 34.564 235.757 34.704 235.565 34.976C235.381 35.24 235.305 35.548 235.337 35.9ZM246.869 36.752H247.649V38H246.869C246.477 38 246.117 37.892 245.789 37.676C245.469 37.452 245.229 37.164 245.069 36.812L243.029 37.46C241.861 37.82 240.673 38 239.465 38H239.405V36.752H239.465C240.497 36.752 241.577 36.592 242.705 36.272L245.405 35.504L243.065 34.34C242.713 34.156 242.369 34.116 242.033 34.22C241.705 34.324 241.441 34.544 241.241 34.88L241.025 35.264L240.053 34.664L240.281 34.244C240.665 33.604 241.161 33.196 241.769 33.02C242.385 32.836 243.001 32.916 243.617 33.26L246.701 34.94L246.521 36.356L246.185 36.464C246.361 36.656 246.589 36.752 246.869 36.752ZM242.249 39.644L243.173 38.708L244.109 39.644L243.173 40.568L242.249 39.644ZM249.698 32.504L248.87 33.32L248.042 32.504L248.87 31.676L249.698 32.504ZM251.882 32.504L251.054 33.32L250.238 32.504L251.054 31.676L251.882 32.504ZM251.546 35.864C251.578 36.2 251.662 36.432 251.798 36.56C251.934 36.688 252.178 36.752 252.53 36.752V38C251.866 38 251.362 37.816 251.018 37.448C250.626 37.816 250.106 38 249.458 38H247.526V36.752H249.458C249.826 36.752 250.086 36.688 250.238 36.56C250.39 36.432 250.454 36.232 250.43 35.96L250.298 34.484L251.414 34.376L251.546 35.852V35.864ZM260.633 35.66C260.721 35.988 260.893 36.252 261.149 36.452C261.405 36.652 261.701 36.752 262.037 36.752V38C261.357 38 260.789 37.748 260.333 37.244C259.965 37.748 259.417 38 258.689 38C258.081 38 257.589 37.768 257.213 37.304C256.845 37.768 256.329 38 255.665 38C255.065 38 254.589 37.768 254.237 37.304C253.853 37.768 253.345 38 252.713 38H252.413V36.752H252.713C253.097 36.752 253.357 36.672 253.493 36.512C253.629 36.352 253.697 36.148 253.697 35.9V34.424H254.741V35.9C254.741 35.964 254.749 36.032 254.765 36.104C254.781 36.168 254.813 36.256 254.861 36.368C254.917 36.48 255.013 36.572 255.149 36.644C255.285 36.716 255.457 36.752 255.665 36.752C256.049 36.752 256.305 36.676 256.433 36.524C256.569 36.364 256.637 36.156 256.637 35.9V34.424H257.681V35.9V35.912C257.681 35.944 257.685 35.984 257.693 36.032C257.701 36.08 257.721 36.152 257.753 36.248C257.793 36.336 257.841 36.416 257.897 36.488C257.961 36.552 258.053 36.612 258.173 36.668C258.301 36.716 258.449 36.74 258.617 36.74C259.033 36.74 259.317 36.656 259.469 36.488C259.621 36.32 259.665 36.116 259.601 35.876L259.205 34.4L260.213 34.1L260.609 35.576C260.609 35.584 260.613 35.6 260.621 35.624C260.629 35.64 260.633 35.652 260.633 35.66ZM266.177 33.416L269.225 35.24L269.069 36.68L265.553 37.652C264.705 37.884 263.513 38 261.977 38H261.917V36.752H261.977C263.425 36.752 264.525 36.652 265.277 36.452L267.917 35.768L265.649 34.496C265.313 34.304 264.969 34.26 264.617 34.364C264.265 34.468 263.989 34.692 263.789 35.036L263.573 35.408L262.613 34.808L262.841 34.388C263.201 33.74 263.693 33.328 264.317 33.152C264.941 32.968 265.561 33.056 266.177 33.416ZM264.761 39.644L265.685 38.708L266.621 39.644L265.685 40.568L264.761 39.644Z" fill="#E0E0E0"/>
<path d="M180.866 58.24H183.166V60.54H180.866V58.24ZM182.046 70.62C180.926 70.62 179.886 70.34 178.926 69.78C177.979 69.22 177.226 68.46 176.666 67.5C176.106 66.5533 175.826 65.52 175.826 64.4V60.66H178.286V64.26C178.286 64.94 178.453 65.5667 178.786 66.14C179.133 66.7133 179.593 67.1667 180.166 67.5C180.753 67.8467 181.379 68.02 182.046 68.02C182.739 68.02 183.373 67.8467 183.946 67.5C184.519 67.1667 184.973 66.7133 185.306 66.14C185.653 65.5667 185.826 64.94 185.826 64.26V59.86H188.286V64.4C188.286 65.52 188.006 66.5533 187.446 67.5C186.886 68.46 186.126 69.22 185.166 69.78C184.219 70.34 183.179 70.62 182.046 70.62ZM193.86 67C193.193 67 192.58 66.84 192.02 66.52C191.473 66.1867 191.04 65.7467 190.72 65.2C190.4 64.64 190.24 64.0267 190.24 63.36V53.62H192.7V63.2C192.7 63.5333 192.813 63.82 193.04 64.06C193.267 64.2867 193.547 64.4 193.88 64.4H194.9C195.033 64.4 195.1 64.4667 195.1 64.6V66.8C195.1 66.9333 195.033 67 194.9 67H193.86ZM195.402 54.98L198.922 51.26L200.122 52.46L196.602 56.18L195.402 54.98ZM194.902 67C194.769 67 194.702 66.9333 194.702 66.8V64.6C194.702 64.4667 194.769 64.4 194.902 64.4H201.282C201.696 64.4 202.049 64.26 202.342 63.98C202.649 63.6867 202.802 63.3133 202.802 62.86C202.802 62.3 202.536 61.86 202.002 61.54L197.382 58.5V56.58L201.322 52.4L203.002 54L199.922 57.22L203.542 59.6C204.089 59.96 204.516 60.4267 204.822 61C205.129 61.5733 205.282 62.2133 205.282 62.92C205.282 63.6533 205.102 64.3333 204.742 64.96C204.382 65.5867 203.889 66.0867 203.262 66.46C202.649 66.82 201.976 67 201.242 67H194.902ZM211.696 64.4C212.029 64.4 212.309 64.3 212.536 64.1C212.776 63.9 212.896 63.6333 212.896 63.3C212.896 63.2067 212.856 63.0267 212.776 62.76L210.936 57.7L213.256 56.82L215.656 63.46C215.776 63.7533 215.943 63.9867 216.156 64.16C216.369 64.32 216.629 64.4 216.936 64.4H217.116C217.249 64.4 217.316 64.4667 217.316 64.6V66.8C217.316 66.9333 217.249 67 217.116 67H216.816C216.269 67 215.776 66.88 215.336 66.64C214.896 66.4 214.576 66.1067 214.376 65.76C213.989 66.2 213.589 66.52 213.176 66.72C212.776 66.9067 212.283 67 211.696 67H207.016V64.4H211.696ZM219.369 55.78H221.669V58.08H219.369V55.78ZM216.909 64.6C216.909 64.4667 216.976 64.4 217.109 64.4H218.109C218.443 64.4 218.723 64.2867 218.949 64.06C219.176 63.8333 219.289 63.5533 219.289 63.22V59.86H221.749V63.22C221.749 63.5533 221.863 63.8333 222.089 64.06C222.316 64.2867 222.596 64.4 222.929 64.4H223.929C224.063 64.4 224.129 64.4667 224.129 64.6V66.8C224.129 66.9333 224.063 67 223.929 67H222.929C221.889 67 221.083 66.6267 220.509 65.88C219.936 66.6267 219.136 67 218.109 67H217.109C216.976 67 216.909 66.9333 216.909 66.8V64.6ZM226.086 55.2H228.386V57.5H226.086V55.2ZM223.926 67C223.792 67 223.726 66.9333 223.726 66.8V64.6C223.726 64.4667 223.792 64.4 223.926 64.4H224.966C225.286 64.4 225.559 64.2867 225.786 64.06C226.012 63.82 226.126 63.5333 226.126 63.2V59.26H228.586V63.36C228.586 64.0267 228.426 64.64 228.106 65.2C227.786 65.7467 227.346 66.1867 226.786 66.52C226.239 66.84 225.632 67 224.966 67H223.926ZM230.396 53.62H232.856V67H230.396V53.62ZM243.97 64.4C244.103 64.4 244.17 64.4667 244.17 64.6V66.8C244.17 66.9333 244.103 67 243.97 67H242.99C242.883 67.9067 242.616 68.66 242.19 69.26C241.763 69.8733 241.156 70.4133 240.37 70.88C239.583 71.36 238.483 71.9067 237.07 72.52L236.31 70.36C237.523 69.84 238.423 69.4133 239.01 69.08C239.596 68.76 240.003 68.44 240.23 68.12C240.47 67.8133 240.59 67.44 240.59 67H239.01C238.236 67 237.523 66.8267 236.87 66.48C236.23 66.12 235.723 65.6333 235.35 65.02C234.976 64.4067 234.79 63.72 234.79 62.96C234.79 62.2 234.976 61.5 235.35 60.86C235.736 60.2067 236.25 59.6933 236.89 59.32C237.543 58.9333 238.25 58.74 239.01 58.74C239.756 58.74 240.436 58.9333 241.05 59.32C241.676 59.6933 242.163 60.2067 242.51 60.86C242.87 61.5 243.05 62.2 243.05 62.96V64.4H243.97ZM240.59 62.96C240.59 62.5067 240.436 62.1267 240.13 61.82C239.823 61.5 239.45 61.34 239.01 61.34C238.556 61.34 238.17 61.4933 237.85 61.8C237.543 62.1067 237.39 62.4933 237.39 62.96C237.39 63.4133 237.543 63.7933 237.85 64.1C238.17 64.4067 238.556 64.56 239.01 64.56H240.59V62.96ZM243.965 67C243.832 67 243.765 66.9333 243.765 66.8V64.6C243.765 64.4667 243.832 64.4 243.965 64.4H246.925C247.058 64.4 247.125 64.4667 247.125 64.6V66.8C247.125 66.9333 247.058 67 246.925 67H243.965ZM246.934 67C246.8 67 246.734 66.9333 246.734 66.8V64.6C246.734 64.4667 246.8 64.4 246.934 64.4H249.894C250.027 64.4 250.094 64.4667 250.094 64.6V66.8C250.094 66.9333 250.027 67 249.894 67H246.934ZM249.902 67C249.769 67 249.702 66.9333 249.702 66.8V64.6C249.702 64.4667 249.769 64.4 249.902 64.4H252.862C252.996 64.4 253.062 64.4667 253.062 64.6V66.8C253.062 66.9333 252.996 67 252.862 67H249.902ZM252.871 67C252.738 67 252.671 66.9333 252.671 66.8V64.6C252.671 64.4667 252.738 64.4 252.871 64.4H255.831C255.964 64.4 256.031 64.4667 256.031 64.6V66.8C256.031 66.9333 255.964 67 255.831 67H252.871ZM259.86 53.44H262.16V55.74H259.86V53.44ZM255.84 67C255.707 67 255.64 66.9333 255.64 66.8V64.6C255.64 64.4667 255.707 64.4 255.84 64.4H259.82C260.927 64.4 261.84 64.0667 262.56 63.4L264.72 61.46L261.68 60.02C261.413 59.8867 261.187 59.82 261 59.82C260.813 59.82 260.627 59.8667 260.44 59.96C260.253 60.0533 260.087 60.1733 259.94 60.32L258.24 62.22L256.52 60.72L258.24 58.64C258.573 58.2267 258.98 57.92 259.46 57.72C259.953 57.5067 260.467 57.4 261 57.4C261.347 57.4 261.647 57.44 261.9 57.52C262.153 57.6 262.4 57.7 262.64 57.82L266.96 59.84C267.04 59.88 267.153 59.9 267.3 59.9H269.26V62.3H267.16L263.92 65.32C263.32 65.8667 262.633 66.2867 261.86 66.58C261.1 66.86 260.3 67 259.46 67H255.84Z" fill="white"/>
<path d="M298.83 35.8751H299.32C301.275 35.8751 302.86 37.4601 302.86 39.4152V43.8303V48.2455C302.86 50.2006 301.275 51.7856 299.32 51.7856H298.83C296.603 51.7856 294.799 49.981 294.799 47.7549V39.9058C294.799 37.6797 296.603 35.8751 298.83 35.8751Z" stroke="white" stroke-width="1.75"/>
<path d="M307.66 46.7735C307.66 51.6503 303.707 55.6037 298.83 55.6037C293.953 55.6037 290 51.6503 290 46.7735" stroke="white" stroke-width="1.75" stroke-linecap="round"/>
<path d="M299.075 58.547V60.9998M295.887 60.9998H302.264" stroke="white" stroke-width="1.75" stroke-linecap="round"/>
<defs>
<linearGradient id="paint0_linear_413_796" x1="164" y1="0" x2="164" y2="96" gradientUnits="userSpaceOnUse">
<stop stop-color="#409B65"/>
<stop offset="1" stop-color="#228976"/>
</linearGradient>
</defs>
</svg>
