<svg width="328" height="96" viewBox="0 0 328 96" fill="none" xmlns="http://www.w3.org/2000/svg">
<path opacity="0.8" d="M0 0H328V96H0V0Z" fill="url(#paint0_linear_417_848)"/>
<path d="M220.288 41.072L220 39.872C220.944 39.616 221.536 39.42 221.776 39.284C222.232 39.036 222.448 38.652 222.424 38.132C222.416 38.076 222.408 38.012 222.4 37.94L221.92 34.484L223.024 34.316L223.492 37.796C223.548 38.212 223.536 38.58 223.456 38.9C223.376 39.22 223.252 39.484 223.084 39.692C222.924 39.908 222.688 40.104 222.376 40.28C222.064 40.464 221.756 40.608 221.452 40.712C221.148 40.824 220.76 40.944 220.288 41.072ZM226.957 38C226.349 38 225.861 37.868 225.493 37.604C225.133 37.34 224.937 37 224.905 36.584L224.857 35.804H225.889C225.889 36.028 225.901 36.216 225.925 36.368C225.973 36.624 226.253 36.752 226.765 36.752H227.761C228.617 36.752 228.957 36.44 228.781 35.816C228.661 35.448 228.445 34.988 228.133 34.436C227.821 33.884 227.541 33.424 227.293 33.056L226.909 32.516L227.809 31.784C227.937 31.952 228.097 32.176 228.289 32.456C228.481 32.736 228.761 33.212 229.129 33.884C229.505 34.548 229.749 35.1 229.861 35.54C230.029 36.236 229.921 36.82 229.537 37.292C229.161 37.764 228.521 38 227.617 38H226.957ZM239.525 36.752V38H238.937C238.961 38.4 238.925 38.744 238.829 39.032C238.741 39.328 238.605 39.576 238.421 39.776C238.245 39.976 237.973 40.156 237.605 40.316C237.245 40.476 236.865 40.608 236.465 40.712C236.073 40.824 235.549 40.948 234.893 41.084L234.665 39.872C236.089 39.568 236.981 39.32 237.341 39.128C237.701 38.936 237.857 38.56 237.809 38H236.333C235.725 38 235.233 37.82 234.857 37.46C234.481 37.1 234.269 36.612 234.221 35.996C234.165 35.316 234.333 34.708 234.725 34.172C235.125 33.628 235.649 33.34 236.297 33.308C236.945 33.276 237.485 33.5 237.917 33.98C238.357 34.452 238.621 35.084 238.709 35.876L238.805 36.752H239.525ZM235.337 35.9C235.385 36.468 235.717 36.752 236.333 36.752H237.677L237.593 36.02C237.545 35.54 237.409 35.172 237.185 34.916C236.969 34.66 236.693 34.54 236.357 34.556C236.021 34.564 235.757 34.704 235.565 34.976C235.381 35.24 235.305 35.548 235.337 35.9ZM246.869 36.752H247.649V38H246.869C246.477 38 246.117 37.892 245.789 37.676C245.469 37.452 245.229 37.164 245.069 36.812L243.029 37.46C241.861 37.82 240.673 38 239.465 38H239.405V36.752H239.465C240.497 36.752 241.577 36.592 242.705 36.272L245.405 35.504L243.065 34.34C242.713 34.156 242.369 34.116 242.033 34.22C241.705 34.324 241.441 34.544 241.241 34.88L241.025 35.264L240.053 34.664L240.281 34.244C240.665 33.604 241.161 33.196 241.769 33.02C242.385 32.836 243.001 32.916 243.617 33.26L246.701 34.94L246.521 36.356L246.185 36.464C246.361 36.656 246.589 36.752 246.869 36.752ZM242.249 39.644L243.173 38.708L244.109 39.644L243.173 40.568L242.249 39.644ZM249.698 32.504L248.87 33.32L248.042 32.504L248.87 31.676L249.698 32.504ZM251.882 32.504L251.054 33.32L250.238 32.504L251.054 31.676L251.882 32.504ZM251.546 35.864C251.578 36.2 251.662 36.432 251.798 36.56C251.934 36.688 252.178 36.752 252.53 36.752V38C251.866 38 251.362 37.816 251.018 37.448C250.626 37.816 250.106 38 249.458 38H247.526V36.752H249.458C249.826 36.752 250.086 36.688 250.238 36.56C250.39 36.432 250.454 36.232 250.43 35.96L250.298 34.484L251.414 34.376L251.546 35.852V35.864ZM260.633 35.66C260.721 35.988 260.893 36.252 261.149 36.452C261.405 36.652 261.701 36.752 262.037 36.752V38C261.357 38 260.789 37.748 260.333 37.244C259.965 37.748 259.417 38 258.689 38C258.081 38 257.589 37.768 257.213 37.304C256.845 37.768 256.329 38 255.665 38C255.065 38 254.589 37.768 254.237 37.304C253.853 37.768 253.345 38 252.713 38H252.413V36.752H252.713C253.097 36.752 253.357 36.672 253.493 36.512C253.629 36.352 253.697 36.148 253.697 35.9V34.424H254.741V35.9C254.741 35.964 254.749 36.032 254.765 36.104C254.781 36.168 254.813 36.256 254.861 36.368C254.917 36.48 255.013 36.572 255.149 36.644C255.285 36.716 255.457 36.752 255.665 36.752C256.049 36.752 256.305 36.676 256.433 36.524C256.569 36.364 256.637 36.156 256.637 35.9V34.424H257.681V35.9V35.912C257.681 35.944 257.685 35.984 257.693 36.032C257.701 36.08 257.721 36.152 257.753 36.248C257.793 36.336 257.841 36.416 257.897 36.488C257.961 36.552 258.053 36.612 258.173 36.668C258.301 36.716 258.449 36.74 258.617 36.74C259.033 36.74 259.317 36.656 259.469 36.488C259.621 36.32 259.665 36.116 259.601 35.876L259.205 34.4L260.213 34.1L260.609 35.576C260.609 35.584 260.613 35.6 260.621 35.624C260.629 35.64 260.633 35.652 260.633 35.66ZM266.177 33.416L269.225 35.24L269.069 36.68L265.553 37.652C264.705 37.884 263.513 38 261.977 38H261.917V36.752H261.977C263.425 36.752 264.525 36.652 265.277 36.452L267.917 35.768L265.649 34.496C265.313 34.304 264.969 34.26 264.617 34.364C264.265 34.468 263.989 34.692 263.789 35.036L263.573 35.408L262.613 34.808L262.841 34.388C263.201 33.74 263.693 33.328 264.317 33.152C264.941 32.968 265.561 33.056 266.177 33.416ZM264.761 39.644L265.685 38.708L266.621 39.644L265.685 40.568L264.761 39.644Z" fill="#E0E0E0"/>
<path d="M196.399 67C195.733 67 195.119 66.84 194.559 66.52C194.013 66.1867 193.579 65.7467 193.259 65.2C192.939 64.64 192.779 64.0267 192.779 63.36V53.62H195.239V63.2C195.239 63.5333 195.353 63.82 195.579 64.06C195.806 64.2867 196.086 64.4 196.419 64.4H197.439C197.573 64.4 197.639 64.4667 197.639 64.6V66.8C197.639 66.9333 197.573 67 197.439 67H196.399ZM208.061 58.8C208.821 58.8 209.521 58.98 210.161 59.34C210.815 59.6867 211.328 60.1667 211.701 60.78C212.088 61.3933 212.281 62.0733 212.281 62.82C212.281 63.58 212.088 64.28 211.701 64.92C211.315 65.56 210.795 66.0667 210.141 66.44C209.501 66.8133 208.808 67 208.061 67H197.441C197.308 67 197.241 66.9333 197.241 66.8V64.6C197.241 64.4667 197.308 64.4 197.441 64.4H199.661C199.435 63.92 199.321 63.42 199.321 62.9C199.321 62.3 199.461 61.7533 199.741 61.26H198.401V58.8H208.061ZM201.841 62.82C201.841 63.2467 201.995 63.62 202.301 63.94C202.608 64.2467 202.981 64.4 203.421 64.4C203.848 64.4 204.215 64.2467 204.521 63.94C204.828 63.62 204.981 63.2467 204.981 62.82C204.981 62.3933 204.828 62.0267 204.521 61.72C204.215 61.4133 203.848 61.26 203.421 61.26C202.981 61.26 202.608 61.4133 202.301 61.72C201.995 62.0267 201.841 62.3933 201.841 62.82ZM208.061 64.4C208.515 64.4 208.895 64.2533 209.201 63.96C209.521 63.6533 209.681 63.2733 209.681 62.82C209.681 62.38 209.521 62.0133 209.201 61.72C208.895 61.4133 208.515 61.26 208.061 61.26H206.781C207.008 61.78 207.121 62.3267 207.121 62.9C207.121 63.42 207.028 63.92 206.841 64.4H208.061ZM224.427 52.46L220.907 56.18L219.707 54.98L223.227 51.26L224.427 52.46ZM231.607 64.4C231.741 64.4 231.807 64.4667 231.807 64.6V66.8C231.807 66.9333 231.741 67 231.607 67H230.747C230.227 67 229.761 66.9 229.347 66.7C228.947 66.5 228.614 66.22 228.347 65.86C227.974 66.22 227.547 66.5 227.067 66.7C226.587 66.9 226.081 67 225.547 67H218.967C218.087 67 217.274 66.7867 216.527 66.36C215.781 65.92 215.187 65.3333 214.747 64.6C214.321 63.8533 214.107 63.04 214.107 62.16V59.88H216.567V62.04C216.567 62.6933 216.801 63.2533 217.267 63.72C217.734 64.1733 218.301 64.4 218.967 64.4H225.567C225.994 64.4 226.354 64.26 226.647 63.98C226.954 63.6867 227.107 63.3133 227.107 62.86C227.107 62.3 226.834 61.86 226.287 61.54L221.687 58.5V56.58L225.627 52.4L227.307 54L224.227 57.22L227.847 59.6C228.394 59.9467 228.814 60.4133 229.107 61C229.414 61.5733 229.567 62.2133 229.567 62.92V63.22C229.554 63.5533 229.661 63.8333 229.887 64.06C230.127 64.2867 230.414 64.4 230.747 64.4H231.607ZM233.862 55.78H236.162V58.08H233.862V55.78ZM231.402 64.6C231.402 64.4667 231.468 64.4 231.602 64.4H232.602C232.935 64.4 233.215 64.2867 233.442 64.06C233.668 63.8333 233.782 63.5533 233.782 63.22V59.86H236.242V63.22C236.242 63.5533 236.355 63.8333 236.582 64.06C236.808 64.2867 237.088 64.4 237.422 64.4H238.422C238.555 64.4 238.622 64.4667 238.622 64.6V66.8C238.622 66.9333 238.555 67 238.422 67H237.422C236.382 67 235.575 66.6267 235.002 65.88C234.428 66.6267 233.628 67 232.602 67H231.602C231.468 67 231.402 66.9333 231.402 66.8V64.6ZM238.418 67C238.285 67 238.218 66.9333 238.218 66.8V64.6C238.218 64.4667 238.285 64.4 238.418 64.4H241.378C241.511 64.4 241.578 64.4667 241.578 64.6V66.8C241.578 66.9333 241.511 67 241.378 67H238.418ZM241.387 67C241.253 67 241.187 66.9333 241.187 66.8V64.6C241.187 64.4667 241.253 64.4 241.387 64.4H244.347C244.48 64.4 244.547 64.4667 244.547 64.6V66.8C244.547 66.9333 244.48 67 244.347 67H241.387ZM244.355 67C244.222 67 244.155 66.9333 244.155 66.8V64.6C244.155 64.4667 244.222 64.4 244.355 64.4H247.315C247.449 64.4 247.515 64.4667 247.515 64.6V66.8C247.515 66.9333 247.449 67 247.315 67H244.355ZM247.324 67C247.191 67 247.124 66.9333 247.124 66.8V64.6C247.124 64.4667 247.191 64.4 247.324 64.4H250.284C250.418 64.4 250.484 64.4667 250.484 64.6V66.8C250.484 66.9333 250.418 67 250.284 67H247.324ZM260.913 58.8C261.673 58.8 262.373 58.98 263.013 59.34C263.666 59.6867 264.18 60.1667 264.553 60.78C264.94 61.3933 265.133 62.0733 265.133 62.82C265.133 63.58 264.94 64.28 264.553 64.92C264.166 65.56 263.646 66.0667 262.993 66.44C262.353 66.8133 261.66 67 260.913 67H250.293C250.16 67 250.093 66.9333 250.093 66.8V64.6C250.093 64.4667 250.16 64.4 250.293 64.4H252.513C252.286 63.92 252.173 63.42 252.173 62.9C252.173 62.3 252.313 61.7533 252.593 61.26H251.253V58.8H260.913ZM254.693 62.82C254.693 63.2467 254.846 63.62 255.153 63.94C255.46 64.2467 255.833 64.4 256.273 64.4C256.7 64.4 257.066 64.2467 257.373 63.94C257.68 63.62 257.833 63.2467 257.833 62.82C257.833 62.3933 257.68 62.0267 257.373 61.72C257.066 61.4133 256.7 61.26 256.273 61.26C255.833 61.26 255.46 61.4133 255.153 61.72C254.846 62.0267 254.693 62.3933 254.693 62.82ZM260.913 64.4C261.366 64.4 261.746 64.2533 262.053 63.96C262.373 63.6533 262.533 63.2733 262.533 62.82C262.533 62.38 262.373 62.0133 262.053 61.72C261.746 61.4133 261.366 61.26 260.913 61.26H259.633C259.86 61.78 259.973 62.3267 259.973 62.9C259.973 63.42 259.88 63.92 259.693 64.4H260.913ZM264.105 52.98C264.105 52.4067 264.291 51.9467 264.665 51.6C265.025 51.2533 265.471 51.08 266.005 51.08H270.685V52.98H266.305C266.145 52.98 266.011 53.0333 265.905 53.14C265.798 53.2333 265.745 53.36 265.745 53.52V54.44H264.105V52.98ZM266.705 54.58H269.165V67H266.705V54.58Z" fill="white"/>
<path d="M289.696 56.0413H289.696C291.846 56.0389 293.589 54.2965 293.591 52.1461V52.1459V45.4695L306.404 42.8739V53.398C305.124 52.2356 303.203 52.0429 301.704 52.9836C300.06 54.0149 299.422 56.0966 300.207 57.8716C300.991 59.6467 302.959 60.5771 304.829 60.056C306.694 59.5364 307.896 57.729 307.657 55.809V37.848C307.657 37.2338 307.381 36.6517 306.906 36.2628C306.43 35.8736 305.805 35.7189 305.203 35.8407L305.203 35.8407L293.979 38.1142L293.979 38.1143C293.026 38.3099 292.341 39.1474 292.339 40.1205V40.121V49.2864C291.165 48.2006 289.423 47.9322 287.96 48.6601L287.96 48.6601C286.341 49.4657 285.49 51.2788 285.904 53.0387C286.318 54.7985 287.888 56.0418 289.696 56.0413ZM303.536 53.6544L303.537 53.6543C305.291 53.4767 306.49 54.7897 306.432 56.3677L306.432 56.3686C306.385 57.7936 305.217 58.9254 303.791 58.9272C302.382 58.9273 301.22 57.8205 301.152 56.4126C301.084 55.0043 302.133 53.7906 303.536 53.6544ZM305.451 37.0689L305.452 37.0689C305.685 37.0214 305.928 37.0815 306.112 37.2325L306.112 37.2326C306.297 37.3836 306.404 37.6093 306.404 37.848V41.5958L293.591 44.1914L293.591 40.1217C293.591 40.1217 293.591 40.1216 293.591 40.1216C293.592 39.7435 293.858 39.4183 294.229 39.342C294.229 39.342 294.229 39.342 294.229 39.342L305.451 37.0689ZM289.696 49.5033C291.155 49.5034 292.339 50.6864 292.339 52.1459C292.339 53.6053 291.155 54.7885 289.696 54.7885C288.236 54.7885 287.053 53.6053 287.053 52.146C287.055 50.6871 288.237 49.5049 289.696 49.5033Z" fill="white" stroke="white" stroke-width="0.4"/>
<defs>
<linearGradient id="paint0_linear_417_848" x1="164" y1="0" x2="164" y2="96" gradientUnits="userSpaceOnUse">
<stop stop-color="#B73636"/>
<stop offset="1" stop-color="#881F5E"/>
</linearGradient>
</defs>
</svg>
