<svg width="328" height="96" viewBox="0 0 328 96" fill="none" xmlns="http://www.w3.org/2000/svg">
<path opacity="0.8" d="M0 0H328V96H0V0Z" fill="url(#paint0_linear_413_833)"/>
<path d="M220.288 41.072L220 39.872C220.944 39.616 221.536 39.42 221.776 39.284C222.232 39.036 222.448 38.652 222.424 38.132C222.416 38.076 222.408 38.012 222.4 37.94L221.92 34.484L223.024 34.316L223.492 37.796C223.548 38.212 223.536 38.58 223.456 38.9C223.376 39.22 223.252 39.484 223.084 39.692C222.924 39.908 222.688 40.104 222.376 40.28C222.064 40.464 221.756 40.608 221.452 40.712C221.148 40.824 220.76 40.944 220.288 41.072ZM226.957 38C226.349 38 225.861 37.868 225.493 37.604C225.133 37.34 224.937 37 224.905 36.584L224.857 35.804H225.889C225.889 36.028 225.901 36.216 225.925 36.368C225.973 36.624 226.253 36.752 226.765 36.752H227.761C228.617 36.752 228.957 36.44 228.781 35.816C228.661 35.448 228.445 34.988 228.133 34.436C227.821 33.884 227.541 33.424 227.293 33.056L226.909 32.516L227.809 31.784C227.937 31.952 228.097 32.176 228.289 32.456C228.481 32.736 228.761 33.212 229.129 33.884C229.505 34.548 229.749 35.1 229.861 35.54C230.029 36.236 229.921 36.82 229.537 37.292C229.161 37.764 228.521 38 227.617 38H226.957ZM239.525 36.752V38H238.937C238.961 38.4 238.925 38.744 238.829 39.032C238.741 39.328 238.605 39.576 238.421 39.776C238.245 39.976 237.973 40.156 237.605 40.316C237.245 40.476 236.865 40.608 236.465 40.712C236.073 40.824 235.549 40.948 234.893 41.084L234.665 39.872C236.089 39.568 236.981 39.32 237.341 39.128C237.701 38.936 237.857 38.56 237.809 38H236.333C235.725 38 235.233 37.82 234.857 37.46C234.481 37.1 234.269 36.612 234.221 35.996C234.165 35.316 234.333 34.708 234.725 34.172C235.125 33.628 235.649 33.34 236.297 33.308C236.945 33.276 237.485 33.5 237.917 33.98C238.357 34.452 238.621 35.084 238.709 35.876L238.805 36.752H239.525ZM235.337 35.9C235.385 36.468 235.717 36.752 236.333 36.752H237.677L237.593 36.02C237.545 35.54 237.409 35.172 237.185 34.916C236.969 34.66 236.693 34.54 236.357 34.556C236.021 34.564 235.757 34.704 235.565 34.976C235.381 35.24 235.305 35.548 235.337 35.9ZM246.869 36.752H247.649V38H246.869C246.477 38 246.117 37.892 245.789 37.676C245.469 37.452 245.229 37.164 245.069 36.812L243.029 37.46C241.861 37.82 240.673 38 239.465 38H239.405V36.752H239.465C240.497 36.752 241.577 36.592 242.705 36.272L245.405 35.504L243.065 34.34C242.713 34.156 242.369 34.116 242.033 34.22C241.705 34.324 241.441 34.544 241.241 34.88L241.025 35.264L240.053 34.664L240.281 34.244C240.665 33.604 241.161 33.196 241.769 33.02C242.385 32.836 243.001 32.916 243.617 33.26L246.701 34.94L246.521 36.356L246.185 36.464C246.361 36.656 246.589 36.752 246.869 36.752ZM242.249 39.644L243.173 38.708L244.109 39.644L243.173 40.568L242.249 39.644ZM249.698 32.504L248.87 33.32L248.042 32.504L248.87 31.676L249.698 32.504ZM251.882 32.504L251.054 33.32L250.238 32.504L251.054 31.676L251.882 32.504ZM251.546 35.864C251.578 36.2 251.662 36.432 251.798 36.56C251.934 36.688 252.178 36.752 252.53 36.752V38C251.866 38 251.362 37.816 251.018 37.448C250.626 37.816 250.106 38 249.458 38H247.526V36.752H249.458C249.826 36.752 250.086 36.688 250.238 36.56C250.39 36.432 250.454 36.232 250.43 35.96L250.298 34.484L251.414 34.376L251.546 35.852V35.864ZM260.633 35.66C260.721 35.988 260.893 36.252 261.149 36.452C261.405 36.652 261.701 36.752 262.037 36.752V38C261.357 38 260.789 37.748 260.333 37.244C259.965 37.748 259.417 38 258.689 38C258.081 38 257.589 37.768 257.213 37.304C256.845 37.768 256.329 38 255.665 38C255.065 38 254.589 37.768 254.237 37.304C253.853 37.768 253.345 38 252.713 38H252.413V36.752H252.713C253.097 36.752 253.357 36.672 253.493 36.512C253.629 36.352 253.697 36.148 253.697 35.9V34.424H254.741V35.9C254.741 35.964 254.749 36.032 254.765 36.104C254.781 36.168 254.813 36.256 254.861 36.368C254.917 36.48 255.013 36.572 255.149 36.644C255.285 36.716 255.457 36.752 255.665 36.752C256.049 36.752 256.305 36.676 256.433 36.524C256.569 36.364 256.637 36.156 256.637 35.9V34.424H257.681V35.9V35.912C257.681 35.944 257.685 35.984 257.693 36.032C257.701 36.08 257.721 36.152 257.753 36.248C257.793 36.336 257.841 36.416 257.897 36.488C257.961 36.552 258.053 36.612 258.173 36.668C258.301 36.716 258.449 36.74 258.617 36.74C259.033 36.74 259.317 36.656 259.469 36.488C259.621 36.32 259.665 36.116 259.601 35.876L259.205 34.4L260.213 34.1L260.609 35.576C260.609 35.584 260.613 35.6 260.621 35.624C260.629 35.64 260.633 35.652 260.633 35.66ZM266.177 33.416L269.225 35.24L269.069 36.68L265.553 37.652C264.705 37.884 263.513 38 261.977 38H261.917V36.752H261.977C263.425 36.752 264.525 36.652 265.277 36.452L267.917 35.768L265.649 34.496C265.313 34.304 264.969 34.26 264.617 34.364C264.265 34.468 263.989 34.692 263.789 35.036L263.573 35.408L262.613 34.808L262.841 34.388C263.201 33.74 263.693 33.328 264.317 33.152C264.941 32.968 265.561 33.056 266.177 33.416ZM264.761 39.644L265.685 38.708L266.621 39.644L265.685 40.568L264.761 39.644Z" fill="#E0E0E0"/>
<path d="M163.059 67C162.393 67 161.779 66.84 161.219 66.52C160.673 66.1867 160.239 65.7467 159.919 65.2C159.599 64.64 159.439 64.0267 159.439 63.36V53.62H161.899V63.2C161.899 63.5333 162.013 63.82 162.239 64.06C162.466 64.2867 162.746 64.4 163.079 64.4H164.099C164.233 64.4 164.299 64.4667 164.299 64.6V66.8C164.299 66.9333 164.233 67 164.099 67H163.059ZM174.722 58.8C175.482 58.8 176.182 58.98 176.822 59.34C177.475 59.6867 177.988 60.1667 178.362 60.78C178.748 61.3933 178.942 62.0733 178.942 62.82C178.942 63.58 178.748 64.28 178.362 64.92C177.975 65.56 177.455 66.0667 176.802 66.44C176.162 66.8133 175.468 67 174.722 67H164.102C163.968 67 163.902 66.9333 163.902 66.8V64.6C163.902 64.4667 163.968 64.4 164.102 64.4H166.322C166.095 63.92 165.982 63.42 165.982 62.9C165.982 62.3 166.122 61.7533 166.402 61.26H165.062V58.8H174.722ZM168.502 62.82C168.502 63.2467 168.655 63.62 168.962 63.94C169.268 64.2467 169.642 64.4 170.082 64.4C170.508 64.4 170.875 64.2467 171.182 63.94C171.488 63.62 171.642 63.2467 171.642 62.82C171.642 62.3933 171.488 62.0267 171.182 61.72C170.875 61.4133 170.508 61.26 170.082 61.26C169.642 61.26 169.268 61.4133 168.962 61.72C168.655 62.0267 168.502 62.3933 168.502 62.82ZM174.722 64.4C175.175 64.4 175.555 64.2533 175.862 63.96C176.182 63.6533 176.342 63.2733 176.342 62.82C176.342 62.38 176.182 62.0133 175.862 61.72C175.555 61.4133 175.175 61.26 174.722 61.26H173.442C173.668 61.78 173.782 62.3267 173.782 62.9C173.782 63.42 173.688 63.92 173.502 64.4H174.722ZM185.708 57.56H188.008V59.86H185.708V57.56ZM189.048 57.56H191.348V59.86H189.048V57.56ZM183.228 59.86V62C183.228 62.6533 183.461 63.22 183.928 63.7C184.408 64.1667 184.974 64.4 185.628 64.4H192.168C192.621 64.4 193.001 64.2467 193.308 63.94C193.614 63.6333 193.768 63.2467 193.768 62.78V59.86H196.228V63.22C196.228 63.5533 196.334 63.8333 196.548 64.06C196.774 64.2867 197.054 64.4 197.388 64.4H198.268C198.401 64.4 198.468 64.4667 198.468 64.6V66.8C198.468 66.9333 198.401 67 198.268 67H197.388C196.294 67 195.461 66.5733 194.888 65.72C194.208 66.5733 193.301 67 192.168 67H185.628C184.748 67 183.934 66.7867 183.188 66.36C182.441 65.92 181.848 65.3267 181.408 64.58C180.981 63.8333 180.768 63.02 180.768 62.14V59.86H183.228ZM198.262 67C198.128 67 198.062 66.9333 198.062 66.8V64.6C198.062 64.4667 198.128 64.4 198.262 64.4H201.222C201.355 64.4 201.422 64.4667 201.422 64.6V66.8C201.422 66.9333 201.355 67 201.222 67H198.262ZM201.23 67C201.097 67 201.03 66.9333 201.03 66.8V64.6C201.03 64.4667 201.097 64.4 201.23 64.4H204.19C204.324 64.4 204.39 64.4667 204.39 64.6V66.8C204.39 66.9333 204.324 67 204.19 67H201.23ZM204.199 67C204.066 67 203.999 66.9333 203.999 66.8V64.6C203.999 64.4667 204.066 64.4 204.199 64.4H207.159C207.293 64.4 207.359 64.4667 207.359 64.6V66.8C207.359 66.9333 207.293 67 207.159 67H204.199ZM207.168 67C207.035 67 206.968 66.9333 206.968 66.8V64.6C206.968 64.4667 207.035 64.4 207.168 64.4H210.128C210.261 64.4 210.328 64.4667 210.328 64.6V66.8C210.328 66.9333 210.261 67 210.128 67H207.168ZM210.137 67C210.003 67 209.937 66.9333 209.937 66.8V64.6C209.937 64.4667 210.003 64.4 210.137 64.4H213.097C213.23 64.4 213.297 64.4667 213.297 64.6V66.8C213.297 66.9333 213.23 67 213.097 67H210.137ZM229.285 64.4C229.419 64.4 229.485 64.4667 229.485 64.6V66.8C229.485 66.9333 229.419 67 229.285 67H228.405C227.392 67 226.592 66.62 226.005 65.86C225.739 66.2333 225.399 66.5267 224.985 66.74C224.585 66.94 224.125 67.04 223.605 67.04C223.085 67.04 222.619 66.94 222.205 66.74C221.805 66.54 221.472 66.2533 221.205 65.88C220.632 66.6533 219.825 67.04 218.785 67.04C218.265 67.04 217.799 66.94 217.385 66.74C216.985 66.5267 216.645 66.2333 216.365 65.86C215.779 66.62 214.985 67 213.985 67H213.105C212.972 67 212.905 66.9333 212.905 66.8V64.6C212.905 64.4667 212.972 64.4 213.105 64.4H213.985C214.319 64.4 214.599 64.2867 214.825 64.06C215.052 63.8333 215.165 63.5533 215.165 63.22V59.86H217.625V63.26C217.625 63.5933 217.732 63.8733 217.945 64.1C218.172 64.3267 218.452 64.44 218.785 64.44C219.119 64.44 219.399 64.3267 219.625 64.1C219.852 63.8733 219.965 63.5933 219.965 63.26V59.86H222.425V63.26C222.425 63.5933 222.539 63.8733 222.765 64.1C222.992 64.3267 223.272 64.44 223.605 64.44C223.939 64.44 224.212 64.3267 224.425 64.1C224.652 63.8733 224.765 63.5933 224.765 63.26V59.26H227.225V63.22C227.225 63.5533 227.339 63.8333 227.565 64.06C227.792 64.2867 228.072 64.4 228.405 64.4H229.285ZM229.077 64.6C229.077 64.4667 229.144 64.4 229.277 64.4H230.537C230.871 64.4 231.144 64.2867 231.357 64.06C231.584 63.8333 231.697 63.5533 231.697 63.22V59.86H234.157V63.22C234.157 63.5533 234.271 63.8333 234.497 64.06C234.724 64.2867 235.004 64.4 235.337 64.4H236.597C236.731 64.4 236.797 64.4667 236.797 64.6V66.8C236.797 66.9333 236.731 67 236.597 67H235.337C234.311 67 233.511 66.6267 232.937 65.88C232.657 66.24 232.311 66.52 231.897 66.72C231.497 66.9067 231.044 67 230.537 67H229.277C229.144 67 229.077 66.9333 229.077 66.8V64.6ZM230.097 68.78H232.397V71.08H230.097V68.78ZM233.437 68.78H235.737V71.08H233.437V68.78ZM236.602 67C236.468 67 236.402 66.9333 236.402 66.8V64.6C236.402 64.4667 236.468 64.4 236.602 64.4H237.362C237.695 64.4 237.975 64.2867 238.202 64.06C238.428 63.82 238.542 63.5333 238.542 63.2V53.62H241.002V63.36C241.002 64.0267 240.842 64.64 240.522 65.2C240.202 65.7467 239.762 66.1867 239.202 66.52C238.655 66.84 238.048 67 237.382 67H236.602ZM257.015 64.4C257.148 64.4 257.215 64.4667 257.215 64.6V66.8C257.215 66.9333 257.148 67 257.015 67H255.935C256.082 67.3733 256.155 67.78 256.155 68.22C256.155 68.9133 255.982 69.5467 255.635 70.12C255.302 70.7067 254.842 71.1667 254.255 71.5C253.668 71.8467 253.022 72.02 252.315 72.02H247.815C246.935 72.02 246.122 71.8 245.375 71.36C244.628 70.9333 244.035 70.3467 243.595 69.6C243.168 68.8533 242.955 68.04 242.955 67.16V62.54H245.415V67.04C245.415 67.6933 245.648 68.2533 246.115 68.72C246.582 69.1867 247.148 69.42 247.815 69.42H252.375C252.708 69.42 252.995 69.3 253.235 69.06C253.475 68.8333 253.595 68.5533 253.595 68.22C253.595 67.8867 253.475 67.6 253.235 67.36C252.995 67.12 252.708 67 252.375 67H248.355V64.4H257.015ZM257.012 67C256.878 67 256.812 66.9333 256.812 66.8V64.6C256.812 64.4667 256.878 64.4 257.012 64.4H257.892C258.225 64.4 258.505 64.2867 258.732 64.06C258.958 63.8333 259.072 63.5533 259.072 63.22V53.62H261.532V63.22C261.532 63.5533 261.638 63.8333 261.852 64.06C262.078 64.2867 262.358 64.4 262.692 64.4H263.572C263.705 64.4 263.772 64.4667 263.772 64.6V66.8C263.772 66.9333 263.705 67 263.572 67H262.692C262.172 67 261.705 66.8933 261.292 66.68C260.878 66.4533 260.545 66.1467 260.292 65.76C260.038 66.1467 259.705 66.4533 259.292 66.68C258.878 66.8933 258.412 67 257.892 67H257.012ZM263.574 67C263.441 67 263.374 66.9333 263.374 66.8V64.6C263.374 64.4667 263.441 64.4 263.574 64.4H265.514C265.834 64.4 266.108 64.2867 266.334 64.06C266.561 63.82 266.674 63.5333 266.674 63.2V59.26H269.134V63.36C269.134 64.0267 268.974 64.64 268.654 65.2C268.334 65.7467 267.894 66.1867 267.334 66.52C266.788 66.84 266.181 67 265.514 67H263.574ZM263.574 68.74H265.874V71.04H263.574V68.74ZM266.894 68.74H269.194V71.04H266.894V68.74ZM265.254 72.08H267.554V74.38H265.254V72.08Z" fill="white"/>
<path d="M307.073 38.0467L303.586 36.1489C302.782 35.7117 301.796 36.2898 301.796 37.201V50.44H299.375C296.72 50.44 294.561 52.5844 294.561 55.22C294.561 57.8075 296.662 60 299.399 60C302.054 60 304.214 57.8556 304.214 55.22C304.214 54.3841 304.214 40.0188 304.214 39.2273L305.911 40.1513C307.836 41.1992 309.032 43.1998 309.032 45.3726V47.941C309.032 48.6035 309.573 49.141 310.241 49.141C310.908 49.141 311.449 48.6035 311.449 47.941V45.3726C311.449 42.3229 309.772 39.516 307.073 38.0467ZM301.796 55.22C301.796 56.4972 300.765 57.6 299.375 57.6C298.053 57.6 296.978 56.5322 296.978 55.22C296.978 53.9078 298.053 52.84 299.375 52.84H301.796V55.22Z" fill="white"/>
<path fill-rule="evenodd" clip-rule="evenodd" d="M305.911 40.1513C307.836 41.1992 309.032 43.1998 309.032 45.3726V47.941C309.032 48.6035 309.573 49.141 310.241 49.141C310.908 49.141 311.449 48.6035 311.449 47.941V45.3726C311.449 42.3229 309.772 39.516 307.073 38.0467L303.586 36.1489C302.782 35.7117 301.796 36.2898 301.796 37.201V50.44H299.375C296.72 50.44 294.561 52.5844 294.561 55.22C294.561 57.8075 296.662 60 299.399 60C302.054 60 304.214 57.8556 304.214 55.22V39.2273L305.911 40.1513ZM303.108 37.0272C303.108 37.0272 303.108 37.0272 303.108 37.0272C302.959 36.9463 302.796 37.0618 302.796 37.201V51.44H299.375C297.266 51.44 295.561 53.1435 295.561 55.22C295.561 57.2595 297.219 59 299.399 59C301.508 59 303.214 57.2966 303.214 55.22V37.5443L306.389 39.273C308.632 40.494 310.032 42.8295 310.032 45.3726V47.941C310.032 48.0446 310.119 48.141 310.241 48.141C310.363 48.141 310.449 48.0446 310.449 47.941V45.3726C310.449 42.6928 308.976 40.221 306.595 38.925M306.595 38.925L303.108 37.0272L306.595 38.925ZM302.796 51.84V55.22C302.796 57.0411 301.326 58.6 299.375 58.6C297.508 58.6 295.978 57.0913 295.978 55.22C295.978 53.3488 297.508 51.84 299.375 51.84H302.796ZM299.375 57.6C300.765 57.6 301.796 56.4972 301.796 55.22V52.84H299.375C298.053 52.84 296.978 53.9078 296.978 55.22C296.978 56.5322 298.053 57.6 299.375 57.6Z" fill="white"/>
<path fill-rule="evenodd" clip-rule="evenodd" d="M286 39.8398C286 39.2876 286.448 38.8398 287 38.8398L298.52 38.8398C299.072 38.8398 299.52 39.2876 299.52 39.8398C299.52 40.3921 299.072 40.8398 298.52 40.8398L287 40.8398C286.448 40.8398 286 40.3921 286 39.8398Z" fill="white"/>
<path fill-rule="evenodd" clip-rule="evenodd" d="M286 44.6396C286 44.0874 286.448 43.6396 287 43.6396L298.52 43.6396C299.072 43.6396 299.52 44.0874 299.52 44.6396C299.52 45.1919 299.072 45.6396 298.52 45.6396L287 45.6396C286.448 45.6396 286 45.1919 286 44.6396Z" fill="white"/>
<path fill-rule="evenodd" clip-rule="evenodd" d="M286 49.4404C286 48.8881 286.448 48.4404 287 48.4404L294.68 48.4404C295.232 48.4404 295.68 48.8881 295.68 49.4404C295.68 49.9927 295.232 50.4404 294.68 50.4404L287 50.4404C286.448 50.4404 286 49.9927 286 49.4404Z" fill="white"/>
<defs>
<linearGradient id="paint0_linear_413_833" x1="164" y1="0" x2="164" y2="96" gradientUnits="userSpaceOnUse">
<stop stop-color="#EFB82B"/>
<stop offset="1" stop-color="#D8875A"/>
</linearGradient>
</defs>
</svg>
