<svg width="86" height="43" viewBox="0 0 86 43" fill="none" xmlns="http://www.w3.org/2000/svg">
<path d="M37.5 22C37.5 31.665 29.665 39.5 20 39.5C10.335 39.5 2.5 31.665 2.5 22C2.5 12.335 10.335 4.5 20 4.5V2C8.9543 2 0 10.9543 0 22C0 33.0457 8.9543 42 20 42C31.0457 42 40 33.0457 40 22H37.5Z" fill="#F2F2F2"/>
<path d="M15 22C15 24.7614 17.2386 27 20 27C22.7614 27 25 24.7614 25 22C25 19.2386 22.7614 17 20 17C17.2386 17 15 19.2386 15 22ZM22.5 22C22.5 23.3807 21.3807 24.5 20 24.5C18.6193 24.5 17.5 23.3807 17.5 22C17.5 20.6193 18.6193 19.5 20 19.5C21.3807 19.5 22.5 20.6193 22.5 22Z" fill="#F2F2F2"/>
<path d="M20 9.5C13.0964 9.5 7.5 15.0964 7.5 22H10C10 16.4772 14.4772 12 20 12V9.5Z" fill="#F2F2F2"/>
<path d="M20 32V34.5C26.9036 34.5 32.5 28.9036 32.5 22H30C30 27.5228 25.5228 32 20 32Z" fill="#F2F2F2"/>
<path d="M58.2539 12.8281L57.5156 13.5869V16H55.8545V5.5H57.5156V11.5566L58.0352 10.9072L60.0791 8.60352H62.0752L59.3271 11.6865L62.3691 16H60.4482L58.2539 12.8281ZM69.6562 12.377C69.6562 13.5254 69.3988 14.4391 68.8838 15.1182C68.3734 15.7972 67.6693 16.1367 66.7715 16.1367C65.9056 16.1367 65.2311 15.8245 64.748 15.2002L64.666 16H63.1621V5.5H64.8232V9.31445C65.3018 8.74935 65.9466 8.4668 66.7578 8.4668C67.6602 8.4668 68.3688 8.80176 68.8838 9.47168C69.3988 10.1416 69.6562 11.0781 69.6562 12.2812V12.377ZM67.9951 12.2334C67.9951 11.4313 67.8538 10.8298 67.5713 10.4287C67.2887 10.0277 66.8786 9.82715 66.3408 9.82715C65.6208 9.82715 65.1149 10.1416 64.8232 10.7705V13.8193C65.1195 14.4619 65.6299 14.7832 66.3545 14.7832C66.874 14.7832 67.2751 14.5895 67.5576 14.2021C67.8402 13.8148 67.986 13.2292 67.9951 12.4453V12.2334ZM77.5312 12.377C77.5312 13.5208 77.2715 14.4346 76.752 15.1182C76.2324 15.7972 75.5352 16.1367 74.6602 16.1367C73.849 16.1367 73.1995 15.8701 72.7119 15.3369V18.8438H71.0508V8.60352H72.582L72.6504 9.35547C73.138 8.76302 73.8011 8.4668 74.6396 8.4668C75.542 8.4668 76.2484 8.80404 76.7588 9.47852C77.2738 10.1484 77.5312 11.0804 77.5312 12.2744V12.377ZM75.877 12.2334C75.877 11.4951 75.7288 10.9095 75.4326 10.4766C75.141 10.0436 74.7217 9.82715 74.1748 9.82715C73.4958 9.82715 73.0081 10.1074 72.7119 10.668V13.9492C73.0127 14.5234 73.5049 14.8105 74.1885 14.8105C74.7171 14.8105 75.1296 14.5986 75.4258 14.1748C75.7266 13.7464 75.877 13.0993 75.877 12.2334ZM83.0889 13.9902C83.0889 13.694 82.9658 13.4684 82.7197 13.3135C82.4782 13.1585 82.0749 13.0218 81.5098 12.9033C80.9447 12.7848 80.473 12.6344 80.0947 12.4521C79.2653 12.0511 78.8506 11.4701 78.8506 10.709C78.8506 10.071 79.1195 9.53776 79.6572 9.10938C80.195 8.68099 80.8786 8.4668 81.708 8.4668C82.5921 8.4668 83.3053 8.68555 83.8477 9.12305C84.3945 9.56055 84.668 10.1279 84.668 10.8252H83.0068C83.0068 10.5062 82.8883 10.2419 82.6514 10.0322C82.4144 9.81803 82.0999 9.71094 81.708 9.71094C81.3434 9.71094 81.0449 9.79525 80.8125 9.96387C80.5846 10.1325 80.4707 10.3581 80.4707 10.6406C80.4707 10.8958 80.5778 11.0941 80.792 11.2354C81.0062 11.3766 81.4391 11.5202 82.0908 11.666C82.7425 11.8073 83.2529 11.9782 83.6221 12.1787C83.9958 12.3747 84.2715 12.6117 84.4492 12.8896C84.6315 13.1676 84.7227 13.5049 84.7227 13.9014C84.7227 14.5667 84.4469 15.1068 83.8955 15.5215C83.3441 15.9316 82.6217 16.1367 81.7285 16.1367C81.1224 16.1367 80.5824 16.0273 80.1084 15.8086C79.6344 15.5898 79.2653 15.2891 79.001 14.9062C78.7367 14.5234 78.6045 14.111 78.6045 13.6689H80.2178C80.2406 14.0609 80.3887 14.3639 80.6621 14.5781C80.9355 14.7878 81.2979 14.8926 81.749 14.8926C82.1865 14.8926 82.5192 14.8105 82.7471 14.6465C82.9749 14.4779 83.0889 14.2591 83.0889 13.9902Z" fill="#F2F2F2"/>
<path d="M68.25 31.43C68.446 32.1673 68.4367 32.8207 68.222 33.39C68.0073 33.95 67.606 34.3607 67.018 34.622C66.6447 34.7807 66.192 34.8833 65.66 34.93C65.1373 34.9767 64.1013 35 62.552 35C61.0027 35 59.9573 34.9767 59.416 34.93C58.884 34.874 58.436 34.7713 58.072 34.622C57.4933 34.3607 57.0967 33.9547 56.882 33.404C56.6673 32.8533 56.6533 32.2233 56.84 31.514L57.358 29.512L58.604 29.876L58.072 31.934C57.9787 32.298 57.9693 32.5873 58.044 32.802C58.128 33.0073 58.31 33.1707 58.59 33.292C58.814 33.3853 59.1593 33.4507 59.626 33.488C60.102 33.5253 61.0773 33.544 62.552 33.544C63.588 33.544 64.3813 33.5347 64.932 33.516C65.492 33.488 65.8513 33.46 66.01 33.432C66.1687 33.3947 66.3273 33.3433 66.486 33.278C66.794 33.1473 66.9807 32.9793 67.046 32.774C67.1207 32.5593 67.102 32.2327 66.99 31.794L66.458 29.848L67.718 29.484L68.25 31.43ZM61.46 37.002L62.538 35.91L63.63 37.002L62.538 38.08L61.46 37.002ZM76.14 33.544V35H75.454C75.482 35.4667 75.44 35.868 75.328 36.204C75.2253 36.5493 75.0667 36.8387 74.852 37.072C74.6467 37.3053 74.3293 37.5153 73.9 37.702C73.48 37.8887 73.0367 38.0427 72.57 38.164C72.1127 38.2947 71.5013 38.4393 70.736 38.598L70.47 37.184C72.1313 36.8293 73.172 36.54 73.592 36.316C74.012 36.092 74.194 35.6533 74.138 35H72.416C71.7067 35 71.1327 34.79 70.694 34.37C70.2553 33.95 70.008 33.3807 69.952 32.662C69.8867 31.8687 70.0827 31.1593 70.54 30.534C71.0067 29.8993 71.618 29.5633 72.374 29.526C73.13 29.4887 73.76 29.75 74.264 30.31C74.7773 30.8607 75.0853 31.598 75.188 32.522L75.3 33.544H76.14ZM71.254 32.55C71.31 33.2127 71.6973 33.544 72.416 33.544H73.984L73.886 32.69C73.83 32.13 73.6713 31.7007 73.41 31.402C73.158 31.1033 72.836 30.9633 72.444 30.982C72.052 30.9913 71.744 31.1547 71.52 31.472C71.3053 31.78 71.2167 32.1393 71.254 32.55ZM80.6343 27.132L79.5563 28.224L78.4643 27.132L79.5563 26.054L80.6343 27.132ZM80.9703 29.652L84.5263 31.78L84.3443 33.46L80.2423 34.594C79.253 34.8647 77.8623 35 76.0703 35H76.0003V33.544H76.0703C77.7596 33.544 79.043 33.4273 79.9203 33.194L83.0003 32.396L80.3543 30.912C79.9623 30.688 79.561 30.6367 79.1503 30.758C78.7396 30.8793 78.4176 31.1407 78.1843 31.542L77.9323 31.976L76.8123 31.276L77.0783 30.786C77.4983 30.03 78.0723 29.5493 78.8003 29.344C79.5283 29.1293 80.2516 29.232 80.9703 29.652Z" fill="#F2F2F2"/>
<path d="M27.8896 16.08L26.8656 5.6L28.3536 5.44L29.3776 15.92L27.8896 16.08ZM37.652 10.144C37.6413 10.1547 37.6147 10.192 37.572 10.256L33.38 16.464L32.148 15.536L34.884 11.488C34.3933 11.4347 33.94 11.2693 33.524 10.992C32.8093 10.5333 32.3667 9.87733 32.196 9.024C32.036 8.16 32.196 7.376 32.676 6.672C32.804 6.49067 33.044 6.256 33.396 5.968C33.748 5.68 34.0733 5.44 34.372 5.248L34.804 4.96L35.556 6.4C34.6387 6.92267 34.0893 7.32267 33.908 7.6C33.6733 7.96267 33.588 8.32 33.652 8.672C33.716 9.024 33.924 9.32267 34.276 9.568C34.6067 9.80267 34.9747 9.89333 35.38 9.84C35.796 9.776 36.1267 9.58933 36.372 9.28L37.972 6.912L39.204 7.84L37.652 10.144ZM47.7164 12.304C47.7164 13.0933 47.439 13.776 46.8844 14.352C46.3404 14.9173 45.679 15.2 44.9004 15.2C44.1217 15.2 43.455 14.9173 42.9004 14.352C42.3564 13.776 42.0844 13.0933 42.0844 12.304C42.0844 11.504 42.3564 10.8213 42.9004 10.256C43.455 9.68 44.1217 9.392 44.9004 9.392C45.679 9.392 46.3404 9.68 46.8844 10.256C47.439 10.8213 47.7164 11.504 47.7164 12.304ZM45.8924 13.264C46.1804 12.9973 46.3244 12.6773 46.3244 12.304C46.3244 11.9307 46.1804 11.616 45.8924 11.36C45.615 11.0933 45.2844 10.96 44.9004 10.96C44.5164 10.96 44.1804 11.0933 43.8924 11.36C43.615 11.616 43.4764 11.9307 43.4764 12.304C43.4764 12.6773 43.615 12.9973 43.8924 13.264C44.1804 13.52 44.5164 13.648 44.9004 13.648C45.2844 13.648 45.615 13.52 45.8924 13.264Z" fill="#F2F2F2"/>
</svg>
