<svg width="87" height="41" viewBox="0 0 87 41" fill="none" xmlns="http://www.w3.org/2000/svg">
<path d="M36.9368 21.3987C36.9368 30.8711 29.2195 38.5499 19.6996 38.5499C10.1798 38.5499 2.46246 30.8711 2.46246 21.3987C2.46246 11.9264 10.1798 4.24753 19.6996 4.24753V1.79736C8.81982 1.79736 0 10.5732 0 21.3987C0 32.2242 8.81982 41.0001 19.6996 41.0001C30.5795 41.0001 39.3993 32.2242 39.3993 21.3987H36.9368Z" fill="#F2C94C"/>
<path d="M14.7747 21.3987C14.7747 24.1051 16.9797 26.2991 19.6996 26.2991C22.4196 26.2991 24.6246 24.1051 24.6246 21.3987C24.6246 18.6924 22.4196 16.4984 19.6996 16.4984C16.9797 16.4984 14.7747 18.6924 14.7747 21.3987ZM22.1621 21.3987C22.1621 22.7519 21.0596 23.8489 19.6996 23.8489C18.3397 23.8489 17.2372 22.7519 17.2372 21.3987C17.2372 20.0455 18.3397 18.9485 19.6996 18.9485C21.0596 18.9485 22.1621 20.0455 22.1621 21.3987Z" fill="#F2C94C"/>
<path d="M19.6996 9.14787C12.8997 9.14787 7.38737 14.6327 7.38737 21.3987H9.84982C9.84982 15.986 14.2598 11.598 19.6996 11.598V9.14787Z" fill="#F2C94C"/>
<path d="M19.6996 31.1994V33.6496C26.4996 33.6496 32.0119 28.1647 32.0119 21.3987H29.5495C29.5495 26.8114 25.1395 31.1994 19.6996 31.1994Z" fill="#F2C94C"/>
<path d="M59.4179 12.8281L58.6797 13.5869V16H57.0185V5.5H58.6797V11.5566L59.1992 10.9072L61.2431 8.60352H63.2392L60.4912 11.6865L63.5332 16H61.6123L59.4179 12.8281ZM70.8203 12.377C70.8203 13.5254 70.5628 14.4391 70.0478 15.1182C69.5374 15.7972 68.8333 16.1367 67.9355 16.1367C67.0696 16.1367 66.3952 15.8245 65.9121 15.2002L65.83 16H64.3261V5.5H65.9873V9.31445C66.4658 8.74935 67.1106 8.4668 67.9218 8.4668C68.8242 8.4668 69.5328 8.80176 70.0478 9.47168C70.5628 10.1416 70.8203 11.0781 70.8203 12.2812V12.377ZM69.1591 12.2334C69.1591 11.4313 69.0179 10.8298 68.7353 10.4287C68.4528 10.0277 68.0426 9.82715 67.5049 9.82715C66.7848 9.82715 66.2789 10.1416 65.9873 10.7705V13.8193C66.2835 14.4619 66.7939 14.7832 67.5185 14.7832C68.0381 14.7832 68.4391 14.5895 68.7216 14.2021C69.0042 13.8148 69.15 13.2292 69.1591 12.4453V12.2334ZM78.6953 12.377C78.6953 13.5208 78.4355 14.4346 77.916 15.1182C77.3965 15.7972 76.6992 16.1367 75.8242 16.1367C75.013 16.1367 74.3636 15.8701 73.8759 15.3369V18.8438H72.2148V8.60352H73.7461L73.8144 9.35547C74.3021 8.76302 74.9651 8.4668 75.8037 8.4668C76.706 8.4668 77.4124 8.80404 77.9228 9.47852C78.4378 10.1484 78.6953 11.0804 78.6953 12.2744V12.377ZM77.041 12.2334C77.041 11.4951 76.8929 10.9095 76.5966 10.4766C76.305 10.0436 75.8857 9.82715 75.3388 9.82715C74.6598 9.82715 74.1722 10.1074 73.8759 10.668V13.9492C74.1767 14.5234 74.6689 14.8105 75.3525 14.8105C75.8812 14.8105 76.2936 14.5986 76.5898 14.1748C76.8906 13.7464 77.041 13.0993 77.041 12.2334ZM84.2529 13.9902C84.2529 13.694 84.1299 13.4684 83.8838 13.3135C83.6422 13.1585 83.2389 13.0218 82.6738 12.9033C82.1087 12.7848 81.637 12.6344 81.2588 12.4521C80.4293 12.0511 80.0146 11.4701 80.0146 10.709C80.0146 10.071 80.2835 9.53776 80.8213 9.10938C81.359 8.68099 82.0426 8.4668 82.872 8.4668C83.7562 8.4668 84.4694 8.68555 85.0117 9.12305C85.5586 9.56055 85.832 10.1279 85.832 10.8252H84.1709C84.1709 10.5062 84.0524 10.2419 83.8154 10.0322C83.5784 9.81803 83.264 9.71094 82.872 9.71094C82.5075 9.71094 82.209 9.79525 81.9765 9.96387C81.7487 10.1325 81.6347 10.3581 81.6347 10.6406C81.6347 10.8958 81.7418 11.0941 81.956 11.2354C82.1702 11.3766 82.6032 11.5202 83.2549 11.666C83.9065 11.8073 84.417 11.9782 84.7861 12.1787C85.1598 12.3747 85.4355 12.6117 85.6133 12.8896C85.7955 13.1676 85.8867 13.5049 85.8867 13.9014C85.8867 14.5667 85.611 15.1068 85.0595 15.5215C84.5081 15.9316 83.7858 16.1367 82.8925 16.1367C82.2864 16.1367 81.7464 16.0273 81.2724 15.8086C80.7985 15.5898 80.4293 15.2891 80.165 14.9062C79.9007 14.5234 79.7685 14.111 79.7685 13.6689H81.3818C81.4046 14.0609 81.5527 14.3639 81.8261 14.5781C82.0996 14.7878 82.4619 14.8926 82.9131 14.8926C83.3506 14.8926 83.6832 14.8105 83.9111 14.6465C84.139 14.4779 84.2529 14.2591 84.2529 13.9902Z" fill="#F2C94C"/>
<path d="M35.1043 8.144C35.1789 8.90133 34.9443 9.55733 34.4003 10.112C33.8563 10.6667 33.2003 10.944 32.4323 10.944H32.2723C31.5256 10.944 30.8963 10.656 30.3843 10.08C29.8616 10.656 29.2109 10.944 28.4323 10.944H28.0803C27.7069 10.944 27.3763 10.8747 27.0883 10.736L27.6003 15.92L26.1123 16.08L25.0883 5.6L26.5763 5.44L26.8483 8.192C26.8909 8.52267 27.0189 8.78933 27.2323 8.992C27.4456 9.184 27.7069 9.28 28.0163 9.28H28.4323C28.7629 9.28 29.0456 9.184 29.2803 8.992C29.5256 8.78933 29.6376 8.544 29.6163 8.256V8.224L29.3923 5.968L30.8643 5.808L31.0883 8.144C31.1203 8.496 31.2429 8.77333 31.4563 8.976C31.6696 9.17867 31.9416 9.28 32.2723 9.28H32.4323C32.7736 9.28 33.0616 9.17867 33.2963 8.976C33.5309 8.76267 33.6376 8.512 33.6163 8.224L33.3603 5.6L34.8483 5.44L35.1043 8.144ZM44.3145 8.064C44.3892 8.82133 44.1545 9.488 43.6105 10.064C43.0772 10.6293 42.4212 10.912 41.6425 10.912H41.1625C40.7678 10.912 40.3785 10.8213 39.9945 10.64L40.5065 15.888L39.0185 16.048L37.9945 5.552L39.4825 5.392L39.7545 8.208C39.8612 8.90133 40.2505 9.248 40.9225 9.248H41.6425C42.0052 9.248 42.2985 9.152 42.5225 8.96C42.7572 8.768 42.8585 8.52267 42.8265 8.224L42.5545 5.552L44.0425 5.376L44.3145 8.064ZM52.8453 12.304C52.8453 13.0933 52.5679 13.776 52.0133 14.352C51.4693 14.9173 50.8079 15.2 50.0293 15.2C49.2506 15.2 48.5839 14.9173 48.0293 14.352C47.4853 13.776 47.2133 13.0933 47.2133 12.304C47.2133 11.504 47.4853 10.8213 48.0293 10.256C48.5839 9.68 49.2506 9.392 50.0293 9.392C50.8079 9.392 51.4693 9.68 52.0133 10.256C52.5679 10.8213 52.8453 11.504 52.8453 12.304ZM51.0213 13.264C51.3093 12.9973 51.4533 12.6773 51.4533 12.304C51.4533 11.9307 51.3093 11.616 51.0213 11.36C50.7439 11.0933 50.4133 10.96 50.0293 10.96C49.6453 10.96 49.3093 11.0933 49.0213 11.36C48.7439 11.616 48.6053 11.9307 48.6053 12.304C48.6053 12.6773 48.7439 12.9973 49.0213 13.264C49.3093 13.52 49.6453 13.648 50.0293 13.648C50.4133 13.648 50.7439 13.52 51.0213 13.264Z" fill="#F2C94C"/>
<path d="M72.3432 32.544V34C72.0166 34 71.7039 33.986 71.4052 33.958C71.4332 34.014 71.4472 34.07 71.4472 34.126C71.5499 35.0033 71.3166 35.68 70.7472 36.156C70.1872 36.6413 69.3006 37.024 68.0872 37.304C67.1446 37.5187 66.3092 37.5 65.5812 37.248C64.8626 37.0053 64.3166 36.576 63.9432 35.96C63.5792 35.3533 63.3692 34.5927 63.3132 33.678C63.2666 32.7633 63.4439 31.7507 63.8452 30.64L65.0772 31.13C64.4799 32.838 64.4379 34.1353 64.9512 35.022C65.4646 35.918 66.4119 36.2073 67.7932 35.89C68.7732 35.6567 69.4359 35.4327 69.7812 35.218C70.1266 35.0127 70.2526 34.6627 70.1592 34.168C70.1126 33.9253 69.7159 33.6593 68.9692 33.37C68.8946 33.3513 68.7452 33.3047 68.5212 33.23C68.2972 33.1553 68.1152 33.0947 67.9752 33.048L68.3812 31.676C68.4839 31.704 68.6706 31.76 68.9412 31.844C69.2119 31.9187 69.3892 31.97 69.4732 31.998C69.5572 32.0167 69.7066 32.0587 69.9212 32.124C70.1359 32.18 70.2806 32.2173 70.3552 32.236C70.4299 32.2547 70.5512 32.2873 70.7192 32.334C70.8872 32.3713 71.0086 32.3993 71.0832 32.418C71.1579 32.4273 71.2606 32.446 71.3912 32.474C71.5312 32.4927 71.6432 32.5067 71.7272 32.516C71.8206 32.516 71.9186 32.5207 72.0212 32.53C72.1332 32.5393 72.2406 32.544 72.3432 32.544ZM74.9672 31.508C74.9952 32.1893 74.7992 32.7773 74.3792 33.272C73.9592 33.7573 73.3432 34 72.5312 34H72.1812V32.544H72.5312C72.9792 32.544 73.2826 32.4507 73.4412 32.264C73.6092 32.0773 73.6886 31.844 73.6792 31.564L73.4132 24.648L74.7012 24.578L74.9672 31.508ZM79.4499 34C78.5259 34 77.8772 33.7853 77.5039 33.356C77.1305 32.9267 76.9205 32.1707 76.8739 31.088L76.6219 24.648L77.9239 24.592L78.1759 31.088C78.1945 31.7227 78.2739 32.124 78.4139 32.292C78.5632 32.46 78.9085 32.544 79.4499 32.544H79.5899V34H79.4499ZM83.7113 33.846C83.4127 33.8833 82.9227 33.916 82.2413 33.944C81.56 33.9627 80.9533 33.9767 80.4213 33.986L79.6233 34H79.4553V32.544H79.5953L81.1213 32.516C80.9813 32.264 80.8833 31.9793 80.8273 31.662C80.6873 30.9153 80.8227 30.234 81.2333 29.618C81.644 28.9927 82.2133 28.6193 82.9413 28.498C83.1747 28.4607 83.4873 28.4653 83.8793 28.512C84.2713 28.5587 84.6027 28.6147 84.8733 28.68L85.2933 28.792L84.9573 30.192C84.864 30.164 84.7473 30.136 84.6073 30.108C84.4673 30.0707 84.2387 30.0287 83.9213 29.982C83.6133 29.926 83.3847 29.9027 83.2353 29.912C82.8527 29.9587 82.5493 30.122 82.3253 30.402C82.1013 30.682 82.022 31.004 82.0873 31.368C82.1433 31.6667 82.288 31.914 82.5213 32.11C82.764 32.306 83.0347 32.4087 83.3333 32.418C83.4453 32.418 83.548 32.4087 83.6413 32.39V32.404L86.0213 31.956L86.2733 33.37L83.8653 33.818C83.8467 33.8273 83.8187 33.8367 83.7813 33.846C83.7533 33.846 83.73 33.846 83.7113 33.846Z" fill="#F2C94C"/>
</svg>
