<svg width="418" height="418" viewBox="0 0 418 418" fill="none" xmlns="http://www.w3.org/2000/svg">
<rect width="418" height="418" fill="#404040"/>
<path d="M212.522 332.072H193.263C188.28 332.072 184.176 328.161 183.936 323.184L175.381 144.668H230.401L221.846 323.184C221.609 328.161 217.505 332.072 212.522 332.072Z" fill="#4F4F4F"/>
<path d="M209.66 351.262H196.125L192.846 335.466H212.939L209.66 351.262Z" fill="#4F4F4F"/>
<path d="M203.431 40H202.354C172.887 40 149 63.8865 149 93.3537V94.4313C149 112.447 157.929 128.374 171.603 138.034H234.185C247.856 128.374 256.788 112.444 256.788 94.4313V93.3537C256.785 63.8865 232.899 40 203.431 40Z" fill="#4F4F4F"/>
<path d="M247.452 95.0892C246.493 95.0892 245.718 94.3137 245.718 93.3545C245.718 70.0379 226.749 51.0689 203.432 51.0689C202.473 51.0689 201.697 50.2934 201.697 49.3342C201.697 48.375 202.473 47.5996 203.432 47.5996C228.661 47.5996 249.187 68.1258 249.187 93.3545C249.19 94.3137 248.411 95.0892 247.452 95.0892Z" fill="#404040"/>
<path d="M203.756 165.563H203.581C198.843 165.563 195 169.407 195 174.144V200.078C195 204.816 198.843 208.659 203.581 208.659H203.756C208.494 208.659 212.337 204.816 212.337 200.078V174.144C212.337 169.407 208.494 165.563 203.756 165.563Z" fill="#404040"/>
<path d="M203.756 165.563H203.581C198.843 165.563 195 169.407 195 174.144V200.078C195 204.816 198.843 208.659 203.581 208.659H203.756C208.494 208.659 212.337 204.816 212.337 200.078V174.144C212.337 169.407 208.494 165.563 203.756 165.563Z" fill="#404040"/>
<path d="M209.558 187.112V174.144C209.558 170.947 206.954 168.343 203.756 168.343H203.581C200.383 168.343 197.779 170.947 197.779 174.144V187.112H209.558Z" fill="#4F4F4F"/>
<path d="M199.508 354.781C199.508 354.781 199.508 354.779 203.499 354.521C207.491 354.263 207.491 354.262 207.491 354.262L207.491 354.263L207.492 354.277L207.497 354.346C207.501 354.41 207.509 354.509 207.519 354.641C207.54 354.904 207.573 355.3 207.622 355.811C207.719 356.834 207.876 358.315 208.118 360.12C208.603 363.74 209.419 368.617 210.74 373.695C212.068 378.798 213.868 383.95 216.26 388.201C218.676 392.492 221.474 395.474 224.616 396.862C228.629 398.635 231.74 398.044 234.88 396.053C238.354 393.849 241.654 390.045 245.485 385.409C245.741 385.099 246 384.784 246.262 384.467L246.265 384.464C249.714 380.279 253.57 375.6 257.978 372.125C262.855 368.28 268.765 365.612 276.015 366.554C283.907 367.58 292.43 372.282 298.64 376.351C301.822 378.436 304.549 380.458 306.481 381.959C325 395.5 329 418 329 418H325H320C320 418 316.5 400 303.673 389.953C302.847 389.306 302.475 388.978 301.573 388.277C299.764 386.872 297.215 384.982 294.255 383.042C288.181 379.062 280.954 375.264 274.984 374.487C270.525 373.908 266.718 375.421 262.931 378.407C259.227 381.327 255.892 385.367 252.287 389.736L252.287 389.736C252.076 389.991 251.864 390.248 251.652 390.505C247.984 394.943 243.9 399.806 239.164 402.809C234.094 406.024 228.17 407.178 221.383 404.18C216.018 401.81 212.125 397.163 209.289 392.125C206.43 387.046 204.418 381.168 202.998 375.71C201.571 370.227 200.702 365.013 200.189 361.182C199.932 359.262 199.763 357.678 199.657 356.567C199.605 356.011 199.568 355.573 199.544 355.269C199.532 355.117 199.523 354.999 199.517 354.917L199.51 354.82L199.509 354.792L199.508 354.781Z" fill="#4F4F4F"/>
</svg>
