<svg width="25" height="24" viewBox="0 0 25 24" fill="none" xmlns="http://www.w3.org/2000/svg">
<path d="M12.2809 3.457C11.8572 3.457 11.5134 3.121 11.5134 2.707V0.75C11.5134 0.336 11.8572 0 12.2809 0C12.7046 0 13.0485 0.336 13.0485 0.75V2.707C13.0485 3.121 12.7046 3.457 12.2809 3.457Z" fill="#F2C94C"/>
<path d="M19.0058 6.179C18.8093 6.179 18.6128 6.106 18.4634 5.959C18.1635 5.666 18.1635 5.191 18.4634 4.898L19.8798 3.514C20.1797 3.221 20.6658 3.221 20.9656 3.514C21.2655 3.807 21.2655 4.282 20.9656 4.575L19.5492 5.959C19.3988 6.105 19.2023 6.179 19.0058 6.179Z" fill="#F2C94C"/>
<path d="M23.7943 12.75H21.7915C21.3678 12.75 21.0239 12.414 21.0239 12C21.0239 11.586 21.3678 11.25 21.7915 11.25H23.7943C24.218 11.25 24.5618 11.586 24.5618 12C24.5618 12.414 24.218 12.75 23.7943 12.75Z" fill="#F2C94C"/>
<path d="M20.4222 20.705C20.2257 20.705 20.0292 20.632 19.8798 20.485L18.4634 19.101C18.1635 18.808 18.1635 18.333 18.4634 18.04C18.7633 17.747 19.2494 17.747 19.5492 18.04L20.9656 19.424C21.2655 19.717 21.2655 20.192 20.9656 20.485C20.8152 20.632 20.6187 20.705 20.4222 20.705Z" fill="#F2C94C"/>
<path d="M4.13986 20.705C3.94337 20.705 3.74687 20.632 3.59746 20.485C3.2976 20.192 3.2976 19.717 3.59746 19.424L5.01386 18.04C5.31372 17.747 5.79984 17.747 6.0997 18.04C6.39956 18.333 6.39956 18.808 6.0997 19.101L4.6833 20.485C4.53285 20.632 4.33636 20.705 4.13986 20.705Z" fill="#F2C94C"/>
<path d="M2.77038 12.75H0.767559C0.343866 12.75 0 12.414 0 12C0 11.586 0.343866 11.25 0.767559 11.25H2.77038C3.19407 11.25 3.53793 11.586 3.53793 12C3.53793 12.414 3.19407 12.75 2.77038 12.75Z" fill="#F2C94C"/>
<path d="M5.55626 6.179C5.35977 6.179 5.16327 6.106 5.01386 5.959L3.59746 4.575C3.2976 4.282 3.2976 3.807 3.59746 3.514C3.89731 3.221 4.38344 3.221 4.6833 3.514L6.0997 4.898C6.39956 5.191 6.39956 5.666 6.0997 5.959C5.94823 6.105 5.75276 6.179 5.55626 6.179Z" fill="#F2C94C"/>
<path d="M15.3512 21V22.25C15.3512 23.21 14.5427 24 13.5602 24H11.0017C10.142 24 9.2107 23.36 9.2107 21.96V21H15.3512Z" fill="#F2C94C"/>
<path d="M16.794 6.56C15.1156 5.23 12.905 4.71 10.7456 5.16C8.0336 5.71 5.83326 7.87 5.27038 10.52C4.69727 13.24 5.74115 15.94 7.97219 17.59C8.576 18.03 8.9956 18.71 9.13888 19.5V19.51C9.15935 19.5 9.19005 19.5 9.21052 19.5H15.351C15.3715 19.5 15.3817 19.5 15.4022 19.51V19.5C15.5454 18.74 16.006 18.04 16.7121 17.5C18.4417 16.16 19.4446 14.16 19.4446 12C19.4446 9.88 18.4826 7.9 16.794 6.56ZM16.1185 12.5C15.6989 12.5 15.351 12.16 15.351 11.75C15.351 10.23 14.0922 9 12.5366 9C12.117 9 11.769 8.66 11.769 8.25C11.769 7.84 12.117 7.5 12.5366 7.5C14.9314 7.5 16.8861 9.41 16.8861 11.75C16.8861 12.16 16.5381 12.5 16.1185 12.5Z" fill="#F2C94C"/>
<path d="M9.13888 19.5H9.21052C9.19005 19.5 9.15935 19.5 9.13888 19.51V19.5Z" fill="#F2C94C"/>
<path d="M15.4022 19.5V19.51C15.3817 19.5 15.3715 19.5 15.351 19.5H15.4022Z" fill="#F2C94C"/>
</svg>
