<svg width="21" height="20" viewBox="0 0 21 20" fill="none" xmlns="http://www.w3.org/2000/svg">
<path d="M18.4753 3.22586C18.0071 2.75745 17.4512 2.38587 16.8394 2.13235C16.2275 1.87884 15.5718 1.74835 14.9095 1.74835C14.2472 1.74835 13.5914 1.87884 12.9796 2.13235C12.3677 2.38587 11.8118 2.75745 11.3436 3.22586L10.372 4.19753L9.40031 3.22586C8.45459 2.28014 7.17192 1.74884 5.83448 1.74884C4.49703 1.74884 3.21436 2.28014 2.26864 3.22586C1.32292 4.17158 0.791626 5.45425 0.791626 6.79169C0.791626 8.12914 1.32292 9.41181 2.26864 10.3575L3.24031 11.3292L10.372 18.4609L17.5036 11.3292L18.4753 10.3575C18.9437 9.88933 19.3153 9.33344 19.5688 8.7216C19.8223 8.10976 19.9528 7.45397 19.9528 6.79169C19.9528 6.12941 19.8223 5.47362 19.5688 4.86178C19.3153 4.24995 18.9437 3.69405 18.4753 3.22586V3.22586Z" stroke="#BDBDBD" stroke-width="1.5" stroke-linecap="round" stroke-linejoin="round"/>
</svg>
