<svg width="25" height="24" viewBox="0 0 25 24" fill="none" xmlns="http://www.w3.org/2000/svg">
<path d="M3.11279 6H5.11279H21.1128" stroke="white" stroke-width="1.7" stroke-linecap="round" stroke-linejoin="round"/>
<path d="M8.11279 6V4C8.11279 3.46957 8.32351 2.96086 8.69858 2.58579C9.07365 2.21071 9.58236 2 10.1128 2H14.1128C14.6432 2 15.1519 2.21071 15.527 2.58579C15.9021 2.96086 16.1128 3.46957 16.1128 4V6M19.1128 6V20C19.1128 20.5304 18.9021 21.0391 18.527 21.4142C18.1519 21.7893 17.6432 22 17.1128 22H7.11279C6.58236 22 6.07365 21.7893 5.69858 21.4142C5.32351 21.0391 5.11279 20.5304 5.11279 20V6H19.1128Z" stroke="white" stroke-width="1.7" stroke-linecap="round" stroke-linejoin="round"/>
<path d="M10.1128 11V17" stroke="white" stroke-width="1.7" stroke-linecap="round" stroke-linejoin="round"/>
<path d="M14.1128 11V17" stroke="white" stroke-width="1.7" stroke-linecap="round" stroke-linejoin="round"/>
</svg>
