<svg width="44" height="44" viewBox="0 0 44 44" fill="none" xmlns="http://www.w3.org/2000/svg">
<circle cx="22" cy="22" r="22" fill="#404040"/>
<path d="M14.9609 30.1697V29.164C14.9609 25.2759 18.1129 22.124 22.0009 22.124C25.889 22.124 29.0409 25.2759 29.0409 29.164V30.1697" fill="#828282"/>
<path d="M14.9609 30.1697V29.164C14.9609 25.2759 18.1129 22.124 22.0009 22.124C25.889 22.124 29.0409 25.2759 29.0409 29.164V30.1697H14.9609Z" stroke="#828282" stroke-width="2.4" stroke-linecap="round" stroke-linejoin="round"/>
<path d="M22.0014 22.1238C24.2231 22.1238 26.0242 20.3227 26.0242 18.101C26.0242 15.8792 24.2231 14.0781 22.0014 14.0781C19.7796 14.0781 17.9785 15.8792 17.9785 18.101C17.9785 20.3227 19.7796 22.1238 22.0014 22.1238Z" fill="#828282" stroke="#828282" stroke-width="2.4" stroke-linecap="round" stroke-linejoin="round"/>
</svg>
